%FSLAX25Y25*%
%MOIN*%
G70*
G01*
G75*
G04 Layer_Color=8421504*
%ADD10R,0.03000X0.09400*%
%ADD11R,0.06300X0.10700*%
%ADD12R,0.09500X0.10300*%
%ADD13O,0.00787X0.02559*%
%ADD14O,0.02559X0.00787*%
%ADD15R,0.18504X0.18504*%
%ADD16R,0.01575X0.06000*%
%ADD17O,0.01575X0.06000*%
%ADD18R,0.07087X0.03937*%
%ADD19R,0.04331X0.04724*%
%ADD20R,0.14200X0.08700*%
%ADD21R,0.04800X0.08800*%
%ADD22R,0.04800X0.01600*%
%ADD23R,0.06693X0.03150*%
%ADD24R,0.03150X0.06693*%
%ADD25R,0.04400X0.04000*%
%ADD26R,0.04000X0.04400*%
%ADD27R,0.03200X0.03600*%
%ADD28R,0.02800X0.04800*%
%ADD29R,0.05512X0.11811*%
%ADD30R,0.02559X0.01969*%
%ADD31R,0.02953X0.03150*%
%ADD32R,0.01969X0.02284*%
%ADD33R,0.02362X0.03937*%
%ADD34R,0.04921X0.07087*%
%ADD35R,0.02362X0.01969*%
%ADD36R,0.10700X0.06300*%
%ADD37R,0.01969X0.02362*%
%ADD38C,0.00600*%
%ADD39C,0.02500*%
%ADD40C,0.01200*%
%ADD41C,0.00800*%
%ADD42C,0.05000*%
%ADD43C,0.01000*%
%ADD44C,0.02000*%
%ADD45C,0.04500*%
%ADD46C,0.03700*%
%ADD47C,0.05906*%
G04:AMPARAMS|DCode=48|XSize=60mil|YSize=60mil|CornerRadius=0mil|HoleSize=0mil|Usage=FLASHONLY|Rotation=270.000|XOffset=0mil|YOffset=0mil|HoleType=Round|Shape=Octagon|*
%AMOCTAGOND48*
4,1,8,-0.01500,-0.03000,0.01500,-0.03000,0.03000,-0.01500,0.03000,0.01500,0.01500,0.03000,-0.01500,0.03000,-0.03000,0.01500,-0.03000,-0.01500,-0.01500,-0.03000,0.0*
%
%ADD48OCTAGOND48*%

%ADD49R,0.06000X0.06000*%
%ADD50C,0.02400*%
%ADD51C,0.02598*%
%ADD52C,0.00984*%
%ADD53C,0.01500*%
%ADD54C,0.00000*%
%ADD55C,0.01969*%
%ADD56C,0.00500*%
%ADD57C,0.00787*%
%ADD58C,0.00591*%
%ADD59C,0.01181*%
%ADD60C,0.00100*%
%ADD61R,0.12504X0.12504*%
D10*
X504000Y192000D02*
D03*
X499000D02*
D03*
X494000D02*
D03*
X489000D02*
D03*
X484000D02*
D03*
X504000Y172000D02*
D03*
X499000D02*
D03*
X494000D02*
D03*
X489000D02*
D03*
X484000D02*
D03*
D11*
X620600Y185000D02*
D03*
X609488D02*
D03*
X620600Y199000D02*
D03*
X609488D02*
D03*
D12*
X534000Y250402D02*
D03*
Y275600D02*
D03*
D13*
X551470Y193972D02*
D03*
X549895D02*
D03*
X548320D02*
D03*
X546745D02*
D03*
X545171D02*
D03*
X543596D02*
D03*
X542021D02*
D03*
X540446D02*
D03*
X538871D02*
D03*
X537297D02*
D03*
X535722D02*
D03*
X534147D02*
D03*
Y170153D02*
D03*
X535722D02*
D03*
X537297D02*
D03*
X538871D02*
D03*
X540446D02*
D03*
X542021D02*
D03*
X543596D02*
D03*
X545171D02*
D03*
X546745D02*
D03*
X548320D02*
D03*
X549895D02*
D03*
X551470D02*
D03*
D14*
X530899Y190724D02*
D03*
Y189150D02*
D03*
Y187575D02*
D03*
Y186000D02*
D03*
Y184425D02*
D03*
Y182850D02*
D03*
Y181276D02*
D03*
Y179701D02*
D03*
Y178126D02*
D03*
Y176551D02*
D03*
Y174976D02*
D03*
Y173402D02*
D03*
X554718D02*
D03*
Y174976D02*
D03*
Y176551D02*
D03*
Y178126D02*
D03*
Y179701D02*
D03*
Y181276D02*
D03*
Y182850D02*
D03*
Y184425D02*
D03*
Y186000D02*
D03*
Y187575D02*
D03*
Y189150D02*
D03*
Y190724D02*
D03*
D16*
X616000Y253000D02*
D03*
D17*
X618559D02*
D03*
X621118D02*
D03*
X623677D02*
D03*
X626236D02*
D03*
X628795D02*
D03*
X631354D02*
D03*
X633913D02*
D03*
X636473D02*
D03*
X639032D02*
D03*
X641591D02*
D03*
X644150D02*
D03*
X646709D02*
D03*
X649268D02*
D03*
X616000Y272685D02*
D03*
X618559D02*
D03*
X621118D02*
D03*
X623677D02*
D03*
X626236D02*
D03*
X628795D02*
D03*
X631354D02*
D03*
X633913D02*
D03*
X636473D02*
D03*
X639032D02*
D03*
X641591D02*
D03*
X644150D02*
D03*
X646709D02*
D03*
X649268D02*
D03*
D18*
X564808Y188142D02*
D03*
Y197984D02*
D03*
D19*
X580756Y173846D02*
D03*
X575244Y173846D02*
D03*
X580756Y167154D02*
D03*
X575244D02*
D03*
D20*
X616000Y238300D02*
D03*
D21*
X625100Y213800D02*
D03*
X616000D02*
D03*
X606900D02*
D03*
D22*
X637071Y167661D02*
D03*
Y170220D02*
D03*
Y172800D02*
D03*
Y175400D02*
D03*
X620900D02*
D03*
Y172800D02*
D03*
Y170220D02*
D03*
Y167661D02*
D03*
D23*
X489500Y142925D02*
D03*
Y156311D02*
D03*
D24*
X508000Y157500D02*
D03*
X521386D02*
D03*
X508000Y148000D02*
D03*
X521386D02*
D03*
D25*
X487653Y234500D02*
D03*
X494400D02*
D03*
X565654Y237000D02*
D03*
X572400D02*
D03*
X565154Y244000D02*
D03*
X571900D02*
D03*
X542654Y232000D02*
D03*
X549400D02*
D03*
X487797Y227371D02*
D03*
X494543D02*
D03*
X621846Y152000D02*
D03*
X615100D02*
D03*
X641347Y209000D02*
D03*
X634600D02*
D03*
X645053Y167500D02*
D03*
X651800D02*
D03*
X619153Y161500D02*
D03*
X625900D02*
D03*
X548654Y244000D02*
D03*
X555400D02*
D03*
D26*
X512000Y207653D02*
D03*
Y214400D02*
D03*
X519000Y207653D02*
D03*
Y214400D02*
D03*
X514000Y191654D02*
D03*
Y198400D02*
D03*
X632500Y148153D02*
D03*
Y154900D02*
D03*
X610000Y250654D02*
D03*
Y257400D02*
D03*
D27*
X535740Y231937D02*
D03*
X528200D02*
D03*
X532000Y223600D02*
D03*
D28*
X503800Y206095D02*
D03*
X498244D02*
D03*
X503800Y218000D02*
D03*
X498244D02*
D03*
D29*
X605000Y171500D02*
D03*
X612874D02*
D03*
D30*
X557630Y165000D02*
D03*
X561370D02*
D03*
X538130Y162000D02*
D03*
X541870D02*
D03*
X542630Y165000D02*
D03*
X546370D02*
D03*
D31*
X567035Y144760D02*
D03*
X558965D02*
D03*
X567035Y152240D02*
D03*
X558965D02*
D03*
D32*
X563000Y143933D02*
D03*
Y153067D02*
D03*
D33*
X562236Y252000D02*
D03*
X568142D02*
D03*
X574047D02*
D03*
X579953D02*
D03*
X585858D02*
D03*
X591764D02*
D03*
D34*
X551488Y272472D02*
D03*
X602512D02*
D03*
D35*
X564032Y140000D02*
D03*
X567969D02*
D03*
X566777Y202063D02*
D03*
X562840D02*
D03*
X566777Y184063D02*
D03*
X562840D02*
D03*
X534277Y199563D02*
D03*
X530340D02*
D03*
X534469Y164000D02*
D03*
X530532D02*
D03*
X560840Y170063D02*
D03*
X564777D02*
D03*
X565531Y179500D02*
D03*
X569468D02*
D03*
X564532Y165000D02*
D03*
X568469D02*
D03*
X550032D02*
D03*
X553968D02*
D03*
X534469Y160500D02*
D03*
X530532D02*
D03*
X574840Y178563D02*
D03*
X578777D02*
D03*
X579840Y162563D02*
D03*
X583777D02*
D03*
D36*
X594000Y210400D02*
D03*
Y221512D02*
D03*
X647000Y187050D02*
D03*
Y175938D02*
D03*
D37*
X555500Y200031D02*
D03*
Y203969D02*
D03*
X554500Y161969D02*
D03*
Y158031D02*
D03*
D61*
X542808Y182063D02*
D03*
M02*
