M48
;Layer_Color=9474304
;FILE_FORMAT=4:4
METRIC,LZ
;TYPE=PLATED
T01F00S00C0.3000
T03F00S00C1.0160
T04F00S00C1.0200
;TYPE=NON_PLATED
T05F00S00C0.6500
T06F00S00C1.0200
T07F00S00C1.2500
T08F00S00C3.6000
%
T01
X0016064Y0008422
X0030034
X0030288Y0006136
X00326576Y00083332
X0032701Y0010073
Y0010835
X0031812
Y0010073
X0030923
Y0010835
X0034098Y0011216
Y0009946
X0035368Y0007406
X003613Y0007914
X0043Y001
Y0011
Y0012
X0044
X0045
Y0011
X0044
Y001
X0045Y001
X004472Y0005524
X0043958
Y0004762
X0043196
Y0005524
X0045228Y0005016
X0051578
X00561855Y00048474
X00565664Y00052016
X0056196Y0005572
X0056958
X00574865Y0006007
X0058228Y0005064
X0058Y001
Y0011
Y0012
X0057
X0056
Y0011
Y001
X0057
Y0011
X00695Y00105
X00705
X00715
Y00115
Y00125
X00705
Y00115
X00695
Y00125
X006858Y0001778
X0064516
X0064578Y0005064
X00695Y00135
X00705
X00715
X00705Y00145
Y00155
Y00165
Y00175
X00695
Y00165
Y00155
Y00145
Y00185
Y00195
X00705
Y00185
X00715
Y00195
X00725
Y00185
Y00205
X00715
X00705
X00695
Y00215
X00705
X00715
X00725
Y00225
X00715
X00705
X00695
X00646696Y00216197
X0062927Y0021701
X0062165
Y0020812
X0062927
Y0019923
X0062165
X0064578Y0019034
X0066864Y0019288
X0065594Y0024368
X0065086Y002513
X0063054Y0023098
X0061784
X0059244Y00244204
X0057212Y0021828
X0057466Y0019034
X0053864Y001924
X0051578Y0018986
X0049927Y0019875
Y0020764
Y0021653
X0050054Y002305
X00516696Y00215717
X0052594Y002432
X0052086Y0025082
X005334Y0029718
X0054102Y002921
X00547607Y00289815
X0055499Y0028956
X0057Y0035
Y0037
X0059
Y0035
Y0039
Y0041
Y0043
Y0045
X0057
Y0043
Y0041
Y0039
X0053
Y0041
X0051
Y0039
Y0037
Y0035
X0053
Y0037
Y0043
Y0045
Y0047
X0051
Y0049
X0053
X0057
Y0047
X0059
Y0049
X0051Y0045
Y0043
X00679996Y00419996
X0069Y00425
Y0038
X0065786Y0039116
X00669504Y0035052
Y003429
X0066675Y0030226
X0064897Y0030099
X00710077Y00339954
X0074Y0034
X0075
X0073Y00355
X007493Y0029718
X0075946
X0082Y00345
X0083
X0084
Y00355
Y00365
Y00375
Y00385
X0083
Y00375
X0082
Y00385
Y00365
X0083
Y00355
X0082
X0058Y0014
X0057
X0056
Y0013
X0057
X0055688Y0015224
X0049165Y0019875
Y0020764
Y0021653
X0048784Y002305
X0046244Y00243724
X0044212Y002178
X0044466Y0018986
X0044Y0014
X0043
Y0013
X0044
X0045Y0014
X0042688Y0015176
X00354204Y0013756
X0032828Y0015788
X0030034Y0015534
X0030288Y0019136
X0030034Y0021422
X0030923Y0023073
Y0023835
X0031812
Y0023073
X0032701
Y0023835
X0034098Y0024216
Y0022946
X00326197Y00213304
X0035368Y0020406
X003613Y0020914
X00354204Y0026756
X0032828Y0028788
X0030034Y0028534
X0030288Y0032136
X00300287Y0034425
X0030923Y0036073
Y0036835
X0031812
Y0036073
X0032701
Y0036835
X0034098Y0037216
Y0035946
X00326197Y00343304
X0035368Y0033406
X003613Y0033914
X0040001Y0035
X0042
Y0037
X0040001
Y0039
X0042
Y0041
X0040001
Y0043
X0042
Y0045
X0040001
Y0047
X0042
Y0049
X0040001
X003613Y0046914
X0035368Y0046406
X00326197Y00473304
X0032701Y0049073
Y0049835
X0031812
Y0049073
X0030923
Y0049835
X0030034Y0047422
X0030288Y0045136
X0030034Y0041534
X0032828Y0041788
X00354204Y0039756
X0034098Y0048946
Y0050216
X0046Y0049
Y0047
X0048
Y0049
Y0045
Y0043
Y0041
Y0039
Y0037
Y0035
X0046
Y0037
Y0039
Y0041
Y0043
Y0045
X0026224Y0043312
X0025Y0043
X0024
X0023
X0022
X0021
Y0042
X0022
X0023
Y0041
X0022
X0021
X0025
Y0042
X0024
X0016572Y0042042
X001581
Y0042804
X0016572
Y004128
X0016064Y0040772
Y0034422
X001581Y0029804
X0016572
Y0029042
Y002828
X0016064Y0027772
X001581Y0029042
X0021Y0029
X0022
Y003
X0021
X0023
X0024
X0025
Y0029
Y0028
X0023
Y0029
X0024
X0022Y0028
X0021
X0026224Y0030312
X0026224Y0017312
X0025Y0017
X0024
X0023
X0022
X0021
Y0016
X0022
X0023
Y0015
X0022
X0021
X0025
Y0016
X0024
X0016572Y0016042
X001581
Y0016804
X0016572
Y001528
X0016064Y0014772
X0016064Y0021422
Y0047422
X0008Y00605
Y0062
Y0064
Y0065
X0016002Y0066548
X0016572Y006716
Y0068042
Y0068684
Y0068804
X001581
X0015748Y0068072
Y0067564
X0021Y0068
X0022
Y0069
X0021
X0023
X0024
X0025
Y0068
Y0067
X0023
Y0068
X0024
X0022Y0067
X0021
X0026224Y0069312
X0030034Y0067534
X0032828Y0067788
X00354204Y0065756
X0034098Y0063216
Y0061946
X0032701Y0062073
Y0062835
X0031812
Y0062073
X0030923
Y0062835
X0030034Y0060422
X0029972Y00593939
X00326197Y00603304
X0035368Y0059406
X003613Y0059914
X0036068Y005588
X00354204Y0052756
X0032828Y0054788
X0030034Y0054534
X0025Y0055
Y0056
X0024
X0023
X0022
X0021
Y0055
X0022
X0023
Y0054
X0022
X0021
X0025
X0024Y0055
X0026224Y0056312
X0016572Y0055804
Y0055042
Y005428
X0016064Y0053772
X001581Y0055042
Y0055804
X0016064Y0060422
Y0073422
Y0079772
X0016572Y008028
Y0081042
Y0081804
X001581
Y0081042
X0021Y0081
X0022
Y008
X0021
X0023
Y0081
Y0082
X0022
X0021
X0024
Y0081
X0025
Y008
Y0082
X0026224Y0082312
X0030034Y0080534
X0032828Y0080788
X00354204Y0078756
X0034098Y0076216
Y0074946
X0032701Y0075073
Y0075835
X0031812
Y0075073
X0030923
Y0075835
X0030034Y0073422
X0030288Y0071136
X00326197Y00733304
X0035368Y0072406
X003613Y0072914
X0037592Y006858
X0045974Y0069596
X0046736Y0066548
X004699Y0062738
X004572Y0058928
X00457957Y00560974
X0044958Y0056134
X0041402Y0056388
X0039878Y0057658
X0039624Y0058928
X004191Y0060706
X0043684Y0073152
X00438292Y00755
X00445
X00455
X00465
X00475
X0048Y00745
X0048768Y0073914
X0049Y00795
X0048
X0047
X0046
X0041
X0039624Y0081026
X00395Y00765
X0051816Y0075692
X005588Y0073912
Y0072262
Y0070612
X005753
Y0072262
Y0073912
X005918
Y0072262
Y0070612
X0063246Y0071628
X0066Y00725
X00655Y0073
X0065532Y0075692
Y0076454
Y0077216
X00655Y0079
X0069
Y0074
X0071374Y0072898
Y0071374
X00675744Y00716384
X00655Y00670484
X00625Y00669
Y00675524
X006477Y0064262
X00663186Y00622546
X0062992Y0061722
X0061214Y0061595
X0059944Y0062484
X005715Y0062992
X0058293Y0059563
X0060452Y0059436
Y005842
X006223Y0059436
X00651304Y00575
X00702302Y00591184
X00713836Y00588836
X0073152Y0059944
X00745Y006
X00755
X00765
X0075184Y0062738
Y0065024
X007747Y0064008
X0077216Y006858
X0074676Y0068834
X00725Y00675
X00715Y0065
X007239Y0064008
X00725Y00625
Y0061
X00710347Y006175
X00695017Y0061
X00698146Y00660421
X0075184Y0071882
X0077724
X008001Y0069342
X00805Y0074
X0073914Y0073914
Y0077724
X0054864Y006731
X0054356Y0066802
X005334Y0061468
X0051308Y0059563
X00495Y0059
X0053975Y0058166
X0055626Y0059055
X00565Y0057
Y0056
Y0055
X00575
X00585
X00595
Y0056
X00585
X00575
Y0057
X00585
X0049784Y0064516
T03
X00825Y007596
Y00785
T04
X007597Y0013198
Y0016198
X007897
Y0013198
X006284Y003346
Y0036
Y003854
Y004108
T05
X0079886Y0064928
Y0070708
T06
X007297Y0017138
X008197
T07
X0065Y0036
T08
X000675Y000675
X007825
X000675Y007825
X007825
M30
