**ABCDEFGHIJKLMNOPQRSTUVWXYZabcdefghijklmnopqrstuvwxyz**************************
**PARASOLID !"#$%&'()*+,-./:;<=>?@[\]^_`{|}~0123456789**************************
**PART1;
MC=AMD64;
MC_MODEL=Intel64 Family 6 Model 154 Stepping 3, GenuineIntel;
MC_ID=unknown;
OS=Windows_NT;
OS_RELEASE=unknown;
FRU=CAD Exchanger 3.23.0 (cadexchanger.com);
APPL=unknown;
SITE=unknown;
USER=unknown;
FORMAT=text;
GUISE=transmit;
KEY=CAPC1210(3225)230_M_CMP-001-00128-1;
FILE=CAPC1210(3225)230_M_CMP-001-00128-1.x_t;
DATE=Sun Sep  7 20:42:49 2025;
**PART2;
SCH=SCH_1200000_12103;
USFLD_SIZE=0;
**PART3;
**END_OF_HEADER*****************************************************************
T51 : TRANSMIT FILE created by modeller version 120000017 SCH_1200000_121030 74
 3 1 3 0 2 105 206 12 2 68 0 3 0 0 0 0 1000.0 1.0e-08 0 0 0 1 0 1 1 12 14 20 18
 9 19 17 70 3 0 2 0 0 4 1 20 0 4 4 1 T74 20 4 1 0 5 0 0 0 0 0 0 0 0 0 0 0 0 0 0
 0 0 0 0 0 81 1 5 7 6 13 0 0 42 0 8 80 1 6 0 7 8001 0 0 0 0 3 5 0 0 0 FFFFTFTFFF
FFFF2 79 15 7 SDL/TYSA_COLOUR83 3 8 0.811764717102051 0.788235306739807 0.709803
938865662 19 9 1 0 2 11 0 10 V13 10 2 0 2 0 0 0 0 9 13 19 11 3 0 2 0 9 12 S13 12
 4 0 2 0 13 0 0 11 0 14 13 5 5 1.0e-08 40 0 15 12 14 -0 0 40 0 10 50 14 6 0 13 4
1 0 0 +-0.00120000014 0.00135000238 0.0 1.0 0.0 0.0 0.0 -1.0 0.0 15 15 8 0 16 13
 0 17 16 0 15 24 36 17 21 19 0 50 +18 17 9 0 16 0 22 18 ?2 29 18 10 0 17 23 0 -0
.00120000014 -0.0013499973 0.0 16 19 11 0 ?16 0 27 20 0 0 2 30 20 12 0 19 28 0 0
 +-0.00120000014 0.00135000238 0.0 0.0 -1.0 0.0 17 21 0 99 90 50 22 16 19 0 87 -
18 22 13 0 36 17 25 23 ?2 29 23 14 0 22 26 18 -0.00120000014 0.00135000238 0.0 1
7 24 0 15 30 16 25 29 27 0 0 +18 25 15 0 35 22 31 26 ?2 29 26 16 0 25 32 23 -0.0
0120000014 -0.0013499973 0.00230000048 16 27 17 0 ?24 19 33 28 0 0 2 30 28 18 0
 27 34 20 0 +-0.00120000014 -0.0013499973 0.0 0.0 0.0 1.0 17 29 0 44 45 57 17 24
 27 0 0 -17 30 0 15 36 24 31 35 33 0 94 -18 31 19 0 39 25 46 32 ?2 29 32 20 0 31
 47 26 -0.00120000014 0.00135000238 0.00230000048 16 33 21 0 ?35 27 37 34 0 0 2
 30 34 22 0 33 38 28 0 +-0.00120000014 0.00135000238 0.00230000048 0.0 -1.0 0.0
 17 35 0 104 60 94 25 30 33 0 57 +17 36 0 15 16 30 22 39 37 0 21 -16 37 23 0 ?39
 33 48 38 0 0 2 30 38 24 0 37 49 34 0 +-0.00120000014 0.00135000238 0.0 0.0 0.0
 1.0 17 39 0 86 91 87 31 36 37 0 30 +14 40 25 42 1.0e-08 61 13 44 12 41 -0 0 61
 13 10 50 41 26 0 40 62 14 0 +-0.00120000014 -0.0013499973 0.0 0.0 1.0 0.0 1.0 0
.0 0.0 81 1 42 27 6 40 0 0 63 5 43 83 3 43 0.811764717102051 0.788235306739807 0
.709803938865662 15 44 28 0 45 40 0 17 45 0 44 51 29 46 50 48 0 71 +18 46 29 0 4
5 31 52 47 ?2 29 47 30 0 46 53 32 0.00120000014 -0.0013499973 0.0 16 48 31 0 ?45
 37 54 49 0 0 2 30 49 32 0 48 55 38 0 +-0.00120000014 -0.0013499973 0.0 1.0 0.0
 0.0 17 50 0 99 21 71 17 45 48 0 29 -17 51 0 44 57 45 52 56 54 0 78 +18 52 33 0
 60 46 67 53 ?2 29 53 34 0 52 68 47 0.00120000014 -0.0013499973 0.00230000048 16
 54 35 0 ?51 48 58 55 0 0 2 30 55 36 0 54 59 49 0 +0.00120000014 -0.0013499973 0
.0 0.0 0.0 1.0 17 56 0 65 66 78 46 51 54 0 0 -17 57 0 44 29 51 25 60 58 0 24 -16
 58 37 0 ?60 54 69 59 0 0 2 30 59 38 0 58 70 55 0 +-0.00120000014 -0.0013499973
 0.00230000048 1.0 0.0 0.0 17 60 0 104 81 35 52 57 58 0 51 +14 61 39 63 1.0e-08
 82 40 65 12 62 -0 0 82 40 10 50 62 40 0 61 83 41 0 +0.00120000014 -0.0013499973
 0.0 -1.0 0.0 0.0 0.0 1.0 0.0 81 1 63 41 6 61 0 0 84 42 64 83 3 64 0.81176471710
2051 0.788235306739807 0.709803938865662 15 65 42 0 66 61 0 17 66 0 65 72 56 67
 71 69 0 90 +18 67 43 0 66 52 73 68 ?2 29 68 44 0 67 74 53 0.00120000014 0.00135
000238 0.0 16 69 45 0 ?66 58 75 70 0 0 2 30 70 46 0 69 76 59 0 +0.00120000014 -0
.0013499973 0.0 0.0 1.0 0.0 17 71 0 99 50 90 46 66 69 0 56 -17 72 0 65 78 66 73
 77 75 0 0 +18 73 47 0 91 67 0 74 ?2 29 74 48 0 73 0 68 0.00120000014 0.00135000
238 0.00230000048 16 75 49 0 ?72 69 79 76 0 0 2 30 76 50 0 75 80 70 0 +0.0012000
0014 0.00135000238 0.0 0.0 0.0 1.0 17 77 0 86 87 91 67 72 75 0 0 -17 78 0 65 56
 72 52 81 79 0 0 -16 79 51 0 ?81 75 88 80 0 0 2 30 80 52 0 79 89 76 0 +0.0012000
0014 -0.0013499973 0.00230000048 0.0 1.0 0.0 17 81 0 104 94 60 73 78 79 0 72 +14
 82 53 84 1.0e-08 95 61 86 12 83 -0 0 95 61 10 50 83 54 0 82 96 62 0 +0.00120000
014 0.00135000238 0.0 0.0 -1.0 0.0 -1.0 0.0 0.0 81 1 84 55 6 82 0 0 97 63 85 83
 3 85 0.811764717102051 0.788235306739807 0.709803938865662 15 86 56 0 87 82 0 1
7 87 0 86 39 77 22 90 88 0 0 +16 88 57 0 ?87 79 92 89 0 0 2 30 89 58 0 88 93 80
 0 +0.00120000014 0.00135000238 0.0 -1.0 0.0 0.0 17 90 0 99 71 21 67 87 88 0 77
 -17 91 0 86 77 39 73 94 92 0 81 -16 92 59 0 ?94 88 0 93 0 0 2 30 93 60 0 92 0 8
9 0 +0.00120000014 0.00135000238 0.00230000048 -1.0 0.0 0.0 17 94 0 104 35 81 31
 91 92 0 0 +14 95 61 97 1.0e-08 100 82 99 12 96 -0 0 100 82 10 50 96 62 0 95 101
 83 0 +0.0 2.539999992859742e-09 0.0 0.0 0.0 1.0 1.0 0.0 0.0 81 1 97 63 6 95 0 0
 102 84 98 83 3 98 0.811764717102051 0.788235306739807 0.709803938865662 15 99 6
4 0 90 95 0 14 100 65 102 1.0e-08 0 95 104 12 101 +0 0 0 95 10 50 101 66 0 100 0
 96 0 +0.0 2.539999992859742e-09 0.00230000048 0.0 0.0 1.0 1.0 0.0 0.0 81 1 102
 67 6 100 0 0 0 97 103 83 3 103 0.811764717102051 0.788235306739807 0.7098039388
65662 15 104 68 0 35 100 0 12 105 68 0 106 0 0 0 0 1000.0 1.0e-08 0 0 0 1 0 1 1
 113 115 121 119 110 120 118 70 106 0 105 0 0 4 1 20 0 107 107 1 T74 20 107 1 0
 108 0 0 0 0 0 0 0 0 0 0 0 0 0 0 0 0 0 0 0 81 1 108 7 6 114 0 0 143 0 109 83 3 1
09 0.752941191196442 0.752941191196442 0.752941191196442 19 110 1 0 105 112 0 11
1 V13 111 2 0 105 0 0 0 0 110 114 19 112 3 0 105 0 110 113 S13 113 4 0 105 0 114
 0 0 112 0 14 114 5 108 1.0e-08 141 0 116 113 115 -0 0 141 0 111 50 115 6 0 114
 142 0 0 +-0.00169999914 0.00135000238 0.0 1.0 0.0 0.0 0.0 -1.0 0.0 15 116 8 0 1
17 114 0 17 117 0 116 125 137 118 122 120 0 151 +18 118 9 0 117 0 123 119 ?105 2
9 119 10 0 118 124 0 -0.00169999914 -0.0013499973 0.0 16 120 11 0 ?117 0 128 121
 0 0 105 30 121 12 0 120 129 0 0 +-0.00169999914 0.00135000238 0.0 0.0 -1.0 0.0
 17 122 0 200 191 151 123 117 120 0 188 -18 123 13 0 137 118 126 124 ?105 29 124
 14 0 123 127 119 -0.00169999914 0.00135000238 0.0 17 125 0 116 131 117 126 130
 128 0 0 +18 126 15 0 136 123 132 127 ?105 29 127 16 0 126 133 124 -0.0016999991
4 -0.0013499973 0.00230000048 16 128 17 0 ?125 120 134 129 0 0 105 30 129 18 0 1
28 135 121 0 +-0.00169999914 -0.0013499973 0.0 0.0 0.0 1.0 17 130 0 145 146 158
 118 125 128 0 0 -17 131 0 116 137 125 132 136 134 0 195 -18 132 19 0 140 126 14
7 133 ?105 29 133 20 0 132 148 127 -0.00169999914 0.00135000238 0.00230000048 16
 134 21 0 ?136 128 138 135 0 0 105 30 135 22 0 134 139 129 0 +-0.00169999914 0.0
0135000238 0.00230000048 0.0 -1.0 0.0 17 136 0 205 161 195 126 131 134 0 158 +17
 137 0 116 117 131 123 140 138 0 122 -16 138 23 0 ?140 134 149 139 0 0 105 30 13
9 24 0 138 150 135 0 +-0.00169999914 0.00135000238 0.0 0.0 0.0 1.0 17 140 0 187
 192 188 132 137 138 0 131 +14 141 25 143 1.0e-08 162 114 145 113 142 -0 0 162 1
14 111 50 142 26 0 141 163 115 0 +-0.00169999914 -0.0013499973 0.0 0.0 1.0 0.0 1
.0 0.0 0.0 81 1 143 27 6 141 0 0 164 108 144 83 3 144 0.752941191196442 0.752941
191196442 0.752941191196442 15 145 28 0 146 141 0 17 146 0 145 152 130 147 151 1
49 0 157 +18 147 29 0 146 132 153 148 ?105 29 148 30 0 147 154 133 -0.0012000001
4 -0.0013499973 0.0 16 149 31 0 ?146 138 155 150 0 0 105 30 150 32 0 149 156 139
 0 +-0.00169999914 -0.0013499973 0.0 1.0 0.0 0.0 17 151 0 200 122 172 118 146 14
9 0 130 -17 152 0 145 158 146 153 157 155 0 179 +18 153 33 0 161 147 168 154 ?10
5 29 154 34 0 153 169 148 -0.00120000014 -0.0013499973 0.00230000048 16 155 35 0
 ?152 149 159 156 0 0 105 30 156 36 0 155 160 150 0 +-0.00120000014 -0.001349997
3 0.0 0.0 0.0 1.0 17 157 0 166 167 179 147 152 155 0 172 -17 158 0 145 130 152 1
26 161 159 0 125 -16 159 37 0 ?161 155 170 160 0 0 105 30 160 38 0 159 171 156 0
 +-0.00169999914 -0.0013499973 0.00230000048 1.0 0.0 0.0 17 161 0 205 182 136 15
3 158 159 0 152 +14 162 39 164 1.0e-08 183 141 166 113 163 -0 0 183 141 111 50 1
63 40 0 162 184 142 0 +-0.00120000014 -0.0013499973 0.0 -1.0 0.0 0.0 0.0 1.0 0.0
 81 1 164 41 6 162 0 0 185 143 165 83 3 165 0.752941191196442 0.752941191196442
 0.752941191196442 15 166 42 0 167 162 0 17 167 0 166 173 157 168 172 170 0 191
 +18 168 43 0 167 153 174 169 ?105 29 169 44 0 168 175 154 -0.00120000014 0.0013
5000238 0.0 16 170 45 0 ?167 159 176 171 0 0 105 30 171 46 0 170 177 160 0 +-0.0
0120000014 -0.0013499973 0.0 0.0 1.0 0.0 17 172 0 200 151 191 147 167 170 0 0 -1
7 173 0 166 179 167 174 178 176 0 0 +18 174 47 0 182 168 0 175 ?105 29 175 48 0
 174 0 169 -0.00120000014 0.00135000238 0.00230000048 16 176 49 0 ?173 170 180 1
77 0 0 105 30 177 50 0 176 181 171 0 +-0.00120000014 0.00135000238 0.0 0.0 0.0 1
.0 17 178 0 187 188 192 168 173 176 0 0 -17 179 0 166 157 173 153 182 180 0 0 -1
6 180 51 0 ?182 176 189 181 0 0 105 30 181 52 0 180 190 177 0 +-0.00120000014 -0
.0013499973 0.00230000048 0.0 1.0 0.0 17 182 0 205 195 161 174 179 180 0 192 +14
 183 53 185 1.0e-08 196 162 187 113 184 -0 0 196 162 111 50 184 54 0 183 197 163
 0 +-0.00120000014 0.00135000238 0.0 0.0 -1.0 0.0 -1.0 0.0 0.0 81 1 185 55 6 183
 0 0 198 164 186 83 3 186 0.752941191196442 0.752941191196442 0.752941191196442
 15 187 56 0 188 183 0 17 188 0 187 140 178 123 191 189 0 0 +16 189 57 0 ?188 18
0 193 190 0 0 105 30 190 58 0 189 194 181 0 +-0.00120000014 0.00135000238 0.0 -1
.0 0.0 0.0 17 191 0 200 172 122 168 188 189 0 178 -17 192 0 187 178 140 174 195
 193 0 173 -16 193 59 0 ?195 189 0 194 0 0 105 30 194 60 0 193 0 190 0 +-0.00120
000014 0.00135000238 0.00230000048 -1.0 0.0 0.0 17 195 0 205 136 182 132 192 193
 0 0 +14 196 61 198 1.0e-08 201 183 200 113 197 -0 0 201 183 111 50 197 62 0 196
 202 184 0 +-0.00144999964 2.539999992852936e-09 0.0 0.0 0.0 1.0 1.0 0.0 0.0 81
 1 198 63 6 196 0 0 203 185 199 83 3 199 0.752941191196442 0.752941191196442 0.7
52941191196442 15 200 64 0 191 196 0 14 201 65 203 1.0e-08 0 196 205 113 202 +0
 0 0 196 111 50 202 66 0 201 0 197 0 +-0.00144999964 2.539999992852936e-09 0.002
30000048 0.0 0.0 1.0 1.0 0.0 0.0 81 1 203 67 6 201 0 0 0 198 204 83 3 204 0.7529
41191196442 0.752941191196442 0.752941191196442 15 205 68 0 136 201 0 12 206 68
 0 207 0 0 0 0 1000.0 1.0e-08 0 0 0 1 0 1 1 214 216 222 220 211 221 219 70 207 0
 206 0 0 4 1 20 0 208 208 1 T74 20 208 1 0 209 0 0 0 0 0 0 0 0 0 0 0 0 0 0 0 0 0
 0 0 81 1 209 7 6 215 0 0 244 0 210 83 3 210 0.752941191196442 0.752941191196442
 0.752941191196442 19 211 1 0 206 213 0 212 V13 212 2 0 206 0 0 0 0 211 215 19 2
13 3 0 206 0 211 214 S13 214 4 0 206 0 215 0 0 213 0 14 215 5 209 1.0e-08 242 0
 217 214 216 -0 0 242 0 212 50 216 6 0 215 243 0 0 +0.00120000014 0.00135000238
 0.0 1.0 0.0 0.0 0.0 -1.0 0.0 15 217 8 0 218 215 0 17 218 0 217 226 238 219 223
 221 0 231 +18 219 9 0 252 0 224 220 ?206 29 220 10 0 219 225 0 0.00120000014 -0
.0013499973 0.0 16 221 11 0 ?218 0 229 222 0 0 206 30 222 12 0 221 230 0 0 +0.00
120000014 0.00135000238 0.0 0.0 -1.0 0.0 17 223 0 301 292 252 224 218 221 0 289
 -18 224 13 0 238 219 227 225 ?206 29 225 14 0 224 228 220 0.00120000014 0.00135
000238 0.0 17 226 0 217 232 218 227 231 229 0 0 +18 227 15 0 259 224 233 228 ?20
6 29 228 16 0 227 234 225 0.00120000014 -0.0013499973 0.00230000048 16 229 17 0
 ?226 221 235 230 0 0 206 30 230 18 0 229 236 222 0 +0.00120000014 -0.0013499973
 0.0 0.0 0.0 1.0 17 231 0 246 247 259 219 226 229 0 0 -17 232 0 217 238 226 233
 237 235 0 0 -18 233 19 0 241 227 248 234 ?206 29 234 20 0 233 249 228 0.0012000
0014 0.00135000238 0.00230000048 16 235 21 0 ?237 229 239 236 0 0 206 30 236 22
 0 235 240 230 0 +0.00120000014 0.00135000238 0.00230000048 0.0 -1.0 0.0 17 237
 0 306 262 296 227 232 235 0 226 +17 238 0 217 218 232 224 241 239 0 223 -16 239
 23 0 ?241 235 250 240 0 0 206 30 240 24 0 239 251 236 0 +0.00120000014 0.001350
00238 0.0 0.0 0.0 1.0 17 241 0 288 293 289 233 238 239 0 296 +14 242 25 244 1.0e
-08 263 215 246 214 243 -0 0 263 215 212 50 243 26 0 242 264 216 0 +0.0012000001
4 -0.0013499973 0.0 0.0 1.0 0.0 1.0 0.0 0.0 81 1 244 27 6 242 0 0 265 209 245 83
 3 245 0.752941191196442 0.752941191196442 0.752941191196442 15 246 28 0 247 242
 0 17 247 0 246 253 231 248 252 250 0 273 +18 248 29 0 247 233 254 249 ?206 29 2
49 30 0 248 255 234 0.00169999914 -0.0013499973 0.0 16 250 31 0 ?247 239 256 251
 0 0 206 30 251 32 0 250 257 240 0 +0.00120000014 -0.0013499973 0.0 1.0 0.0 0.0
 17 252 0 301 223 273 219 247 250 0 218 -17 253 0 246 259 247 254 258 256 0 0 +1
8 254 33 0 280 248 269 255 ?206 29 255 34 0 254 270 249 0.00169999914 -0.0013499
973 0.00230000048 16 256 35 0 ?253 250 260 257 0 0 206 30 257 36 0 256 261 251 0
 +0.00169999914 -0.0013499973 0.0 0.0 0.0 1.0 17 258 0 267 268 280 248 253 256 0
 0 -17 259 0 246 231 253 227 262 260 0 237 -16 260 37 0 ?262 256 271 261 0 0 206
 30 261 38 0 260 272 257 0 +0.00120000014 -0.0013499973 0.00230000048 1.0 0.0 0.
0 17 262 0 306 283 237 254 259 260 0 253 +14 263 39 265 1.0e-08 284 242 267 214
 264 -0 0 284 242 212 50 264 40 0 263 285 243 0 +0.00169999914 -0.0013499973 0.0
 -1.0 0.0 0.0 0.0 1.0 0.0 81 1 265 41 6 263 0 0 286 244 266 83 3 266 0.752941191
196442 0.752941191196442 0.752941191196442 15 267 42 0 268 263 0 17 268 0 267 27
4 258 269 273 271 0 292 +18 269 43 0 268 254 275 270 ?206 29 270 44 0 269 276 25
5 0.00169999914 0.00135000238 0.0 16 271 45 0 ?268 260 277 272 0 0 206 30 272 46
 0 271 278 261 0 +0.00169999914 -0.0013499973 0.0 0.0 1.0 0.0 17 273 0 301 252 2
92 248 268 271 0 258 -17 274 0 267 280 268 275 279 277 0 0 +18 275 47 0 283 269
 0 276 ?206 29 276 48 0 275 0 270 0.00169999914 0.00135000238 0.00230000048 16 2
77 49 0 ?274 271 281 278 0 0 206 30 278 50 0 277 282 272 0 +0.00169999914 0.0013
5000238 0.0 0.0 0.0 1.0 17 279 0 288 289 293 269 274 277 0 0 -17 280 0 267 258 2
74 254 283 281 0 262 -16 281 51 0 ?283 277 290 282 0 0 206 30 282 52 0 281 291 2
78 0 +0.00169999914 -0.0013499973 0.00230000048 0.0 1.0 0.0 17 283 0 306 296 262
 275 280 281 0 293 +14 284 53 286 1.0e-08 297 263 288 214 285 -0 0 297 263 212 5
0 285 54 0 284 298 264 0 +0.00169999914 0.00135000238 0.0 0.0 -1.0 0.0 -1.0 0.0
 0.0 81 1 286 55 6 284 0 0 299 265 287 83 3 287 0.752941191196442 0.752941191196
442 0.752941191196442 15 288 56 0 289 284 0 17 289 0 288 241 279 224 292 290 0 0
 +16 290 57 0 ?289 281 294 291 0 0 206 30 291 58 0 290 295 282 0 +0.00169999914
 0.00135000238 0.0 -1.0 0.0 0.0 17 292 0 301 273 223 269 289 290 0 279 -17 293 0
 288 279 241 275 296 294 0 274 -16 294 59 0 ?296 290 0 295 0 0 206 30 295 60 0 2
94 0 291 0 +0.00169999914 0.00135000238 0.00230000048 -1.0 0.0 0.0 17 296 0 306
 237 283 233 293 294 0 232 +14 297 61 299 1.0e-08 302 284 301 214 298 -0 0 302 2
84 212 50 298 62 0 297 303 285 0 +0.00144999964 2.539999992852936e-09 0.0 0.0 0.
0 1.0 1.0 0.0 0.0 81 1 299 63 6 297 0 0 304 286 300 83 3 300 0.752941191196442 0
.752941191196442 0.752941191196442 15 301 64 0 292 297 0 14 302 65 304 1.0e-08 0
 297 306 214 303 +0 0 0 297 212 50 303 66 0 302 0 298 0 +0.00144999964 2.5399999
92852936e-09 0.00230000048 0.0 0.0 1.0 1.0 0.0 0.0 81 1 304 67 6 302 0 0 0 299 3
05 83 3 305 0.752941191196442 0.752941191196442 0.752941191196442 15 306 68 0 23
7 302 0 1 0 
