**ABCDEFGHIJKLMNOPQRSTUVWXYZabcdefghijklmnopqrstuvwxyz**************************
**PARASOLID !"#$%&'()*+,-./:;<=>?@[\]^_`{|}~0123456789**************************
**PART1;
MC=AMD64;
MC_MODEL=Intel64 Family 6 Model 154 Stepping 3, GenuineIntel;
MC_ID=unknown;
OS=Windows_NT;
OS_RELEASE=unknown;
FRU=CAD Exchanger 3.23.0 (cadexchanger.com);
APPL=unknown;
SITE=unknown;
USER=unknown;
FORMAT=text;
GUISE=transmit;
KEY=LED-0603_CMP-130-0000-1;
FILE=LED-0603_CMP-130-0000-1.x_t;
DATE=Sun Sep  7 20:42:44 2025;
**PART2;
SCH=SCH_1200000_12103;
USFLD_SIZE=0;
**PART3;
**END_OF_HEADER*****************************************************************
T51 : TRANSMIT FILE created by modeller version 120000017 SCH_1200000_121030 74
 5 1 5 0 2 209 394 635 778 12 2 137 0 3 0 0 0 0 1000.0 1.0e-08 0 0 0 1 0 3 1 10
 12 18 16 9 17 15 70 3 0 2 0 0 4 1 20 0 4 4 1 T74 20 4 1 0 5 0 0 0 0 0 0 0 0 0 0
 0 0 0 0 0 0 0 0 0 81 1 5 5 6 11 0 0 40 0 8 80 1 6 0 7 8001 0 0 0 0 3 5 0 0 0 FF
FFTFTFFFFFFF2 79 15 7 SDL/TYSA_COLOUR83 3 8 0.780392169952393 0.568627417087555
 0.113725490868092 19 9 1 0 2 0 0 10 V13 10 2 0 2 0 11 0 0 9 11 14 11 3 5 1.0e-0
8 38 0 13 10 12 +0 0 38 0 10 51 12 4 0 11 39 0 0 +-3.000431799999999e-04 7.00086
3599999999e-04 2.0e-04 0.0 0.0 1.0 4.0e-05 -1.83697019872103e-16 -1.0 0.0 15 13
 6 0 14 11 0 17 14 0 13 22 34 15 19 17 0 27 +18 15 7 0 14 0 20 16 ?2 29 16 8 0 1
5 21 0 -3.000431799999999e-04 7.400863599999999e-04 1.8e-04 16 17 9 0 ?14 0 25 1
8 0 0 2 31 18 10 0 17 26 0 0 +-3.000431799999999e-04 7.000863599999999e-04 1.8e-
04 0.0 0.0 1.0 -1.83697019872103e-16 -1.0 0.0 4.0e-05 17 19 0 0 0 0 20 14 17 0 3
4 -18 20 11 0 19 15 23 21 ?2 29 21 12 0 20 24 16 -3.000431799999999e-04 6.600863
6e-04 1.8e-04 17 22 0 13 28 14 23 27 25 0 33 +18 23 13 0 22 20 29 24 ?2 29 24 14
 0 23 30 21 -3.000431799999999e-04 7.400863599999999e-04 2.0e-04 16 25 15 0 ?22
 17 31 26 0 0 2 30 26 16 0 25 32 18 0 +-3.000431799999999e-04 7.400863599999999e
-04 2.0e-04 0.0 0.0 1.0 17 27 0 204 205 198 15 22 25 0 208 -17 28 0 13 34 22 29
 33 31 0 37 +18 29 17 0 28 23 44 30 ?2 29 30 18 0 29 45 24 -3.000431799999999e-0
4 6.6008636e-04 2.0e-04 16 31 19 0 ?28 25 35 32 0 0 2 31 32 20 0 31 36 26 0 +-3.
000431799999999e-04 7.000863599999999e-04 2.0e-04 0.0 0.0 -1.0 -1.83697019872103
e-16 -1.0 0.0 4.0e-05 17 33 0 194 195 195 23 28 31 0 198 -17 34 0 13 14 28 20 37
 35 0 205 -16 35 21 0 ?37 31 46 36 0 0 2 30 36 22 0 35 47 32 0 +-3.0004317999999
99e-04 6.6008636e-04 2.0e-04 0.0 0.0 1.0 17 37 0 204 198 205 29 34 35 0 195 +14
 38 23 40 1.0e-08 67 11 42 10 39 +0 0 67 11 10 51 39 24 0 38 68 12 0 +-4.3179999
99985304e-08 8.000863600000001e-04 2.0e-04 0.0 0.0 1.0 2.0e-04 -1.83697019872103
e-16 -1.0 0.0 81 1 40 25 6 38 0 0 69 5 41 83 3 41 0.780392169952393 0.5686274170
87555 0.113725490868092 15 42 26 0 43 38 0 17 43 0 42 51 63 44 48 46 0 56 -18 44
 27 0 43 29 49 45 ?2 29 45 28 0 44 50 30 -4.317999999988978e-08 6.00086360000000
1e-04 0.0 16 46 29 0 ?48 35 54 47 0 0 2 31 47 30 0 46 55 36 0 +-4.31799999998530
4e-08 8.000863600000001e-04 0.0 0.0 0.0 -1.0 -1.83697019872103e-16 -1.0 0.0 2.0e
-04 17 48 0 71 102 98 49 43 46 0 63 +18 49 31 0 48 44 52 50 ?2 29 50 32 0 49 53
 45 -2.000431799999999e-04 8.000863599999999e-04 0.0 17 51 0 42 57 43 52 56 54 0
 62 +18 52 33 0 51 49 58 53 ?2 29 53 34 0 52 59 50 -4.317999999988978e-08 6.0008
63600000001e-04 2.0e-04 16 54 35 0 ?51 46 60 55 0 0 2 30 55 36 0 54 61 47 0 +-4.
317999999988978e-08 6.000863600000001e-04 2.0e-04 0.0 0.0 1.0 17 56 0 155 101 16
2 44 51 54 0 98 -17 57 0 42 63 51 58 62 60 0 66 +18 58 37 0 57 52 73 59 ?2 29 59
 38 0 58 74 53 -2.000431799999999e-04 8.000863599999999e-04 2.0e-04 16 60 39 0 ?
57 54 64 61 0 0 2 31 61 40 0 60 65 55 0 +-4.317999999985304e-08 8.00086360000000
1e-04 2.0e-04 0.0 0.0 -1.0 -1.83697019872103e-16 -1.0 0.0 2.0e-04 17 62 0 199 16
5 150 52 57 60 0 162 -17 63 0 42 43 57 49 66 64 0 105 +16 64 41 0 ?63 60 75 65 0
 0 2 30 65 42 0 64 76 61 0 +-2.000431799999999e-04 8.000863599999999e-04 0.0 0.0
 0.0 -1.0 17 66 0 146 147 105 58 63 64 0 150 -14 67 43 69 1.0e-08 106 38 71 10 6
8 +0 0 106 38 10 50 68 44 0 67 107 39 0 +3.999568200000002e-04 8.000863599999999
e-04 0.0 0.0 0.0 1.0 -1.83697019872103e-16 -1.0 0.0 81 1 69 45 6 67 0 0 108 40 7
0 83 3 70 0.780392169952393 0.568627417087555 0.113725490868092 15 71 46 0 72 67
 0 17 72 0 71 80 102 73 77 75 0 85 +18 73 47 0 72 58 78 74 ?2 29 74 48 0 73 79 5
9 -4.000431799999999e-04 4.000863600000001e-04 0.0 16 75 49 0 ?72 64 83 76 0 0 2
 30 76 50 0 75 84 65 0 +-4.000431799999999e-04 8.000863600000001e-04 0.0 -1.8369
7019872103e-16 -1.0 0.0 17 77 0 131 132 116 78 72 75 0 102 -18 78 51 0 77 73 81
 79 ?2 29 79 52 0 78 82 74 -4.000431799999999e-04 8.000863600000001e-04 0.0 17 8
0 0 71 86 72 81 85 83 0 91 +18 81 53 0 80 78 87 82 ?2 29 82 54 0 81 88 79 3.9995
68200000001e-04 4.0008636e-04 0.0 16 83 55 0 ?80 75 89 84 0 0 2 30 84 56 0 83 90
 76 0 +3.999568200000001e-04 4.0008636e-04 0.0 1.0 -1.83697019872103e-16 0.0 17
 85 0 110 111 123 73 80 83 0 116 -17 86 0 71 92 80 87 91 89 0 97 +18 87 57 0 86
 81 93 88 ?2 29 88 58 0 87 94 82 3.999568200000002e-04 8.000863599999999e-04 0.0
 16 89 59 0 ?86 83 95 90 0 0 2 30 90 60 0 89 96 84 0 +3.999568200000002e-04 8.00
0863599999999e-04 0.0 1.83697019872103e-16 1.0 0.0 17 91 0 185 126 180 81 86 89
 0 123 -17 92 0 71 98 86 93 97 95 0 101 +18 93 61 0 92 87 112 94 ?2 29 94 62 0 9
3 113 88 1.999568200000001e-04 8.000863599999999e-04 0.0 16 95 63 0 ?92 89 99 96
 0 0 2 30 96 64 0 95 100 90 0 +3.999568200000002e-04 8.000863599999999e-04 0.0 -
1.0 1.83697019872103e-16 0.0 17 97 0 170 177 161 87 92 95 0 180 -17 98 0 71 48 9
2 44 101 99 0 0 +16 99 65 0 ?98 95 103 100 0 0 2 31 100 66 0 99 104 96 0 +-4.317
999999985304e-08 8.000863600000001e-04 0.0 0.0 0.0 -1.0 -1.83697019872103e-16 -1
.0 0.0 2.0e-04 17 101 0 155 156 56 93 98 99 0 161 -17 102 0 71 72 48 78 105 103
 0 137 +16 103 67 0 ?102 99 114 104 0 0 2 30 104 68 0 103 115 100 0 +3.999568200
000002e-04 8.000863599999999e-04 0.0 -1.0 1.83697019872103e-16 0.0 17 105 0 146
 66 137 49 102 103 0 0 -14 106 69 108 1.0e-08 127 67 110 10 107 -0 0 127 67 10 5
0 107 70 0 106 128 68 0 +3.999568200000001e-04 4.0008636e-04 0.0 -1.836970198721
03e-16 -1.0 0.0 0.0 0.0 -1.0 81 1 108 71 6 106 0 0 129 69 109 83 3 109 0.7803921
69952393 0.568627417087555 0.113725490868092 15 110 72 0 111 106 0 17 111 0 110
 117 85 112 116 114 0 122 -18 112 73 0 111 93 118 113 ?2 29 113 74 0 112 119 94
 -4.000431799999999e-04 4.000863600000001e-04 2.0e-04 16 114 75 0 ?116 103 120 1
15 0 0 2 30 115 76 0 114 121 104 0 +-4.000431799999999e-04 4.000863600000001e-04
 0.0 0.0 0.0 -1.0 17 116 0 131 77 138 73 111 114 0 0 +17 117 0 110 123 111 118 1
22 120 0 126 -18 118 77 0 117 112 133 119 ?2 29 119 78 0 118 134 113 3.999568200
000001e-04 4.0008636e-04 2.0e-04 16 120 79 0 ?122 114 124 121 0 0 2 30 121 80 0
 120 125 115 0 +3.999568200000001e-04 4.0008636e-04 2.0e-04 -1.0 1.8369701987210
3e-16 0.0 17 122 0 199 141 189 112 117 120 0 138 +17 123 0 110 85 117 81 126 124
 0 0 -16 124 81 0 ?126 120 135 125 0 0 2 30 125 82 0 124 136 121 0 +3.9995682000
00001e-04 4.0008636e-04 0.0 0.0 0.0 1.0 17 126 0 185 186 91 118 123 124 0 189 +1
4 127 83 129 1.0e-08 142 106 131 10 128 -0 0 142 106 10 50 128 84 0 127 143 107
 0 +-4.000431799999999e-04 4.000863600000001e-04 0.0 -1.0 1.83697019872103e-16 0
.0 0.0 0.0 -1.0 81 1 129 85 6 127 0 0 144 108 130 83 3 130 0.780392169952393 0.5
68627417087555 0.113725490868092 15 131 86 0 132 127 0 17 132 0 131 138 77 133 1
37 135 0 141 -18 133 87 0 132 118 157 134 ?2 29 134 88 0 133 158 119 -4.00043179
9999999e-04 8.000863600000001e-04 2.0e-04 16 135 89 0 ?137 124 139 136 0 0 2 30
 136 90 0 135 140 125 0 +-4.000431799999999e-04 8.000863600000001e-04 0.0 0.0 0.
0 -1.0 17 137 0 146 105 147 78 132 135 0 0 +17 138 0 131 116 132 112 141 139 0 0
 -16 139 91 0 ?141 135 148 140 0 0 2 30 140 92 0 139 149 136 0 +-4.0004317999999
99e-04 4.000863600000001e-04 2.0e-04 1.83697019872103e-16 1.0 0.0 17 141 0 199 1
50 122 133 138 139 0 147 +14 142 93 144 1.0e-08 151 127 146 10 143 -0 0 151 127
 10 50 143 94 0 142 152 128 0 +-4.000431799999999e-04 8.000863600000002e-04 0.0
 1.83697019872103e-16 1.0 0.0 0.0 0.0 1.0 81 1 144 95 6 142 0 0 153 129 145 83 3
 145 0.780392169952393 0.568627417087555 0.113725490868092 15 146 96 0 147 142 0
 17 147 0 146 137 66 133 150 148 0 0 -16 148 97 0 ?150 139 159 149 0 0 2 30 149
 98 0 148 160 140 0 +-4.000431799999999e-04 8.000863600000001e-04 2.0e-04 1.0 -1
.83697019872103e-16 0.0 17 150 0 199 62 141 58 147 148 0 0 +14 151 99 153 1.0e-0
8 166 142 155 10 152 +0 0 166 142 10 51 152 100 0 151 167 143 0 +-4.317999999985
304e-08 8.000863600000001e-04 2.0e-04 0.0 0.0 1.0 2.0e-04 -1.83697019872103e-16
 -1.0 0.0 81 1 153 101 6 151 0 0 168 144 154 83 3 154 0.780392169952393 0.568627
417087555 0.113725490868092 15 155 102 0 56 151 0 17 156 0 155 162 101 157 161 1
59 0 165 +18 157 103 0 156 133 175 158 ?2 29 158 104 0 157 176 134 1.99956820000
0002e-04 8.000863599999999e-04 2.0e-04 16 159 105 0 ?156 148 163 160 0 0 2 30 16
0 106 0 159 164 149 0 +1.999568200000001e-04 8.000863599999999e-04 2.0e-04 0.0 0
.0 1.0 17 161 0 170 97 171 93 156 159 0 0 -17 162 0 155 56 156 52 165 163 0 0 +1
6 163 107 0 ?162 159 172 164 0 0 2 31 164 108 0 163 173 160 0 +-4.31799999998530
4e-08 8.000863600000001e-04 2.0e-04 0.0 0.0 -1.0 -1.83697019872103e-16 -1.0 0.0
 2.0e-04 17 165 0 199 174 62 157 162 163 0 171 -14 166 109 168 1.0e-08 181 151 1
70 10 167 -0 0 181 151 10 50 167 110 0 166 182 152 0 +-4.000431799999999e-04 8.0
00863600000002e-04 0.0 1.83697019872103e-16 1.0 0.0 0.0 0.0 1.0 81 1 168 111 6 1
66 0 0 183 153 169 83 3 169 0.780392169952393 0.568627417087555 0.11372549086809
2 15 170 112 0 171 166 0 17 171 0 170 161 177 157 174 172 0 0 -16 172 113 0 ?174
 163 178 173 0 0 2 30 173 114 0 172 179 164 0 +-4.000431799999999e-04 8.00086360
0000001e-04 2.0e-04 1.0 -1.83697019872103e-16 0.0 17 174 0 199 189 165 175 171 1
72 0 177 +18 175 115 0 174 157 0 176 ?2 29 176 116 0 175 0 158 3.999568200000002
e-04 8.000863599999999e-04 2.0e-04 17 177 0 170 171 97 175 180 178 0 186 -16 178
 117 0 ?180 172 187 179 0 0 2 30 179 118 0 178 188 173 0 +3.999568200000002e-04
 8.000863599999999e-04 0.0 0.0 0.0 -1.0 17 180 0 185 91 186 87 177 178 0 0 +14 1
81 119 183 1.0e-08 190 166 185 10 182 -0 0 190 166 10 50 182 120 0 181 191 167 0
 +3.999568200000002e-04 8.000863599999999e-04 0.0 1.0 -1.83697019872103e-16 0.0
 0.0 0.0 1.0 81 1 183 121 6 181 0 0 192 168 184 83 3 184 0.780392169952393 0.568
627417087555 0.113725490868092 15 185 122 0 126 181 0 17 186 0 185 180 126 175 1
89 187 0 0 -16 187 123 0 ?189 178 196 188 0 0 2 30 188 124 0 187 197 179 0 +3.99
9568200000002e-04 8.000863599999999e-04 2.0e-04 -1.83697019872103e-16 -1.0 0.0 1
7 189 0 199 122 174 118 186 187 0 0 +14 190 125 192 1.0e-08 200 181 194 10 191 -
0 0 200 181 10 50 191 126 0 190 201 182 0 +3.999568200000002e-04 8.0008635999999
99e-04 2.0e-04 0.0 0.0 1.0 -1.83697019872103e-16 -1.0 0.0 81 1 192 127 6 190 0 0
 202 183 193 83 3 193 0.780392169952393 0.568627417087555 0.113725490868092 15 1
94 128 0 195 190 199 17 195 0 194 33 33 29 198 196 0 0 -16 196 129 0 ?198 187 20
6 197 0 0 2 31 197 130 0 196 207 188 0 +-3.000431799999999e-04 7.000863599999999
e-04 2.0e-04 0.0 0.0 -1.0 -1.83697019872103e-16 -1.0 0.0 4.0e-05 17 198 0 204 27
 37 23 195 196 0 0 +15 199 131 0 141 190 0 14 200 132 202 1.0e-08 0 190 204 10 2
01 +0 0 0 190 10 51 201 133 0 200 0 191 0 +-3.000431799999999e-04 7.000863599999
999e-04 2.0e-04 0.0 0.0 1.0 4.0e-05 -1.83697019872103e-16 -1.0 0.0 81 1 202 134
 6 200 0 0 0 192 203 83 3 203 0.780392169952393 0.568627417087555 0.113725490868
092 15 204 135 0 27 200 0 17 205 0 204 37 27 20 208 206 0 0 +16 206 136 0 ?205 1
96 0 207 0 0 2 31 207 137 0 206 0 197 0 +-3.000431799999999e-04 7.00086359999999
9e-04 1.8e-04 0.0 0.0 1.0 -1.83697019872103e-16 -1.0 0.0 4.0e-05 17 208 0 0 0 0
 15 205 206 0 0 -12 209 124 0 210 0 0 0 0 1000.0 1.0e-08 0 0 0 1 0 1 1 217 219 2
25 223 214 224 222 70 210 0 209 0 0 4 1 20 0 211 211 1 T74 20 211 1 0 212 0 0 0
 0 0 0 0 0 0 0 0 0 0 0 0 0 0 0 0 81 1 212 7 6 218 0 0 271 0 213 83 3 213 0.0 0.6
66666686534882 0.0 19 214 1 0 209 216 0 215 V13 215 2 0 209 0 0 0 0 214 218 19 2
16 3 0 209 0 214 217 S13 217 4 0 209 0 218 0 0 216 0 14 218 5 212 1.0e-08 269 0
 220 217 219 -0 0 269 0 215 50 219 6 0 218 270 0 0 +-4.000431800000001e-04 -1.99
9136399999999e-04 4.898587196589e-20 -1.224646799147e-16 2.249639673992138e-32 -
1.0 1.0 -1.83697019872103e-16 -1.224646799147e-16 15 220 8 0 221 218 0 17 221 0
 220 229 265 222 226 224 0 234 -18 222 9 0 221 0 227 223 ?209 29 223 10 0 222 22
8 0 3.999568200000001e-04 8.635999999992651e-08 -4.898587196587e-20 16 224 11 0
 ?226 0 232 225 0 0 209 30 225 12 0 224 233 0 0 +3.9995682e-04 -1.99913640000000
1e-04 -4.898587196587e-20 -1.83697019872103e-16 -1.0 0.0 17 226 0 294 277 295 22
7 221 224 0 265 +18 227 13 0 226 222 230 228 ?209 29 228 14 0 227 231 223 3.9995
682e-04 -1.999136400000001e-04 -4.898587196587e-20 17 229 0 220 235 221 230 234
 232 0 240 -18 230 15 0 229 227 236 231 ?209 29 231 16 0 230 237 228 9.995681999
999999e-05 8.635999999998163e-08 -1.224646799146e-20 16 232 17 0 ?234 224 238 23
3 0 0 209 30 233 18 0 232 239 225 0 +-4.000431799999999e-04 8.636000000007348e-0
8 4.898587196589e-20 1.0 -1.83697019872103e-16 -1.224646799147e-16 17 234 0 309
 298 310 222 229 232 0 295 +17 235 0 220 241 229 236 240 238 0 246 -18 236 19 0
 235 230 242 237 ?209 29 237 20 0 236 243 231 9.995682000000004e-05 2.0008636e-0
4 -1.224646799146e-20 16 238 21 0 ?240 232 244 239 0 0 209 30 239 22 0 238 245 2
33 0 +9.995681999999995e-05 -1.999136400000001e-04 -1.224646799146e-20 -1.836970
19872103e-16 -1.0 0.0 17 240 0 324 313 325 230 235 238 0 310 +17 241 0 220 247 2
35 242 246 244 0 252 -18 242 23 0 241 236 248 243 ?209 29 243 24 0 242 249 237 -
1.000431799999999e-04 2.0008636e-04 1.224646799148e-20 16 244 25 0 ?246 238 250
 245 0 0 209 30 245 26 0 244 251 239 0 +-4.000431799999999e-04 2.000863600000001
e-04 4.898587196589e-20 1.0 -1.83697019872103e-16 -1.224646799147e-16 17 246 0 3
39 328 340 236 241 244 0 325 +17 247 0 220 253 241 248 252 250 0 258 -18 248 27
 0 247 242 254 249 ?209 29 249 28 0 248 255 243 -1.0004318e-04 8.636000000001895
e-08 1.224646799148e-20 16 250 29 0 ?252 244 256 251 0 0 209 30 251 30 0 250 257
 245 0 +-1.0004318e-04 -1.9991364e-04 1.224646799148e-20 1.83697019872103e-16 1.
0 0.0 17 252 0 354 343 361 242 247 250 0 340 +17 253 0 220 259 247 254 258 256 0
 264 -18 254 31 0 253 248 260 255 ?209 29 255 32 0 254 261 249 -4.00043179999999
9e-04 8.636000000007405e-08 4.898587196588999e-20 16 256 33 0 ?258 250 262 257 0
 0 209 30 257 34 0 256 263 251 0 +-4.000431799999999e-04 8.636000000007348e-08 4
.898587196589e-20 1.0 -1.83697019872103e-16 -1.224646799147e-16 17 258 0 369 364
 376 248 253 256 0 361 +17 259 0 220 265 253 260 264 262 0 268 -18 260 35 0 259
 254 278 261 ?209 29 261 36 0 260 279 255 -4.0004318e-04 -1.999136399999999e-04
 4.898587196588999e-20 16 262 37 0 ?264 256 266 263 0 0 209 30 263 38 0 262 267
 257 0 +-4.0004318e-04 -1.999136399999999e-04 4.898587196589e-20 1.8369701987210
3e-16 1.0 0.0 17 264 0 384 379 285 254 259 262 0 376 +17 265 0 220 221 259 227 2
68 266 0 274 -16 266 39 0 ?268 262 275 267 0 0 209 30 267 40 0 266 276 263 0 +-4
.0004318e-04 -1.999136399999999e-04 4.898587196589e-20 -1.0 1.83697019872103e-16
 1.224646799147e-16 17 268 0 273 280 274 260 265 266 0 285 +14 269 41 271 1.0e-0
8 290 218 273 217 270 +0 0 290 218 215 50 270 42 0 269 291 219 0 +-4.00043180000
0001e-04 -1.999136399999999e-04 4.898587196589e-20 -1.83697019872103e-16 -1.0 0.
0 0.0 0.0 1.0 81 1 271 43 6 269 0 0 292 212 272 83 3 272 0.0 0.666666686534882 0
.0 15 273 44 0 274 269 0 17 274 0 273 268 286 227 277 275 0 0 +16 275 45 0 ?274
 266 283 276 0 0 209 30 276 46 0 275 284 267 0 +3.9995682e-04 -1.999136400000001
e-04 4.898587196589e-20 0.0 0.0 1.0 17 277 0 294 301 226 278 274 275 0 286 -18 2
78 47 0 277 260 281 279 ?209 29 279 48 0 278 282 261 3.9995682e-04 -1.9991364000
00001e-04 -2.0e-06 17 280 0 273 286 268 281 285 283 0 289 +18 281 49 0 280 278 2
99 282 ?209 29 282 50 0 281 300 279 -4.0004318e-04 -1.999136399999999e-04 -2.0e-
06 16 283 51 0 ?280 275 287 284 0 0 209 30 284 52 0 283 288 276 0 +-4.0004318e-0
4 -1.999136399999999e-04 4.898587196589e-20 0.0 0.0 -1.0 17 285 0 384 264 385 26
0 280 283 0 0 -17 286 0 273 274 280 278 289 287 0 304 +16 287 53 0 ?286 283 296
 288 0 0 209 30 288 54 0 287 297 284 0 +-4.0004318e-04 -1.999136399999999e-04 -2
.0e-06 1.0 -1.83697019872103e-16 0.0 17 289 0 393 388 304 281 286 287 0 385 -14
 290 55 292 1.0e-08 305 269 294 217 291 +0 0 305 269 215 50 291 56 0 290 306 270
 0 +3.9995682e-04 -1.999136400000001e-04 -4.898587196589e-20 1.0 -1.836970198721
03e-16 -1.224646799147e-16 1.224646799147e-16 -2.249639673992138e-32 1.0 81 1 29
2 57 6 290 0 0 307 271 293 83 3 293 0.0 0.666666686534882 0.0 15 294 58 0 295 29
0 0 17 295 0 294 226 301 222 298 296 0 0 +16 296 59 0 ?295 287 302 297 0 0 209 3
0 297 60 0 296 303 288 0 +3.999568200000001e-04 8.635999999992651e-08 -4.8985871
96589e-20 1.224646799147e-16 -2.249639673992138e-32 1.0 17 298 0 309 316 234 299
 295 296 0 301 -18 299 61 0 298 281 314 300 ?209 29 300 62 0 299 315 282 3.99956
8200000001e-04 8.635999999992651e-08 -2.0e-06 17 301 0 294 295 277 299 304 302 0
 319 +16 302 63 0 ?301 296 311 303 0 0 209 30 303 64 0 302 312 297 0 +3.9995682e
-04 -1.999136400000001e-04 -2.0e-06 1.83697019872103e-16 1.0 0.0 17 304 0 393 28
9 319 278 301 302 0 0 -14 305 65 307 1.0e-08 320 290 309 217 306 +0 0 320 290 21
5 50 306 66 0 305 321 291 0 +3.999568200000001e-04 8.635999999992651e-08 -4.8985
87196589e-20 1.83697019872103e-16 1.0 0.0 0.0 0.0 -1.0 81 1 307 67 6 305 0 0 322
 292 308 83 3 308 0.0 0.666666686534882 0.0 15 309 68 0 310 305 0 17 310 0 309 2
34 316 230 313 311 0 0 +16 311 69 0 ?310 302 317 312 0 0 209 30 312 70 0 311 318
 303 0 +9.995681999999999e-05 8.635999999998163e-08 -4.898587196589e-20 0.0 0.0
 1.0 17 313 0 324 331 240 314 310 311 0 316 -18 314 71 0 313 299 329 315 ?209 29
 315 72 0 314 330 300 9.995681999999999e-05 8.635999999998163e-08 -2.0e-06 17 31
6 0 309 310 298 314 319 317 0 334 +16 317 73 0 ?316 311 326 318 0 0 209 30 318 7
4 0 317 327 312 0 +3.999568200000001e-04 8.635999999992651e-08 -2.0e-06 -1.0 1.8
3697019872103e-16 0.0 17 319 0 393 304 334 299 316 317 0 0 -14 320 75 322 1.0e-0
8 335 305 324 217 321 +0 0 335 305 215 50 321 76 0 320 336 306 0 +9.995682e-05 8
.635999999998163e-08 -1.224646799147e-20 1.0 -1.83697019872103e-16 -1.2246467991
47e-16 1.224646799147e-16 -2.249639673992138e-32 1.0 81 1 322 77 6 320 0 0 337 3
07 323 83 3 323 0.0 0.666666686534882 0.0 15 324 78 0 325 320 0 17 325 0 324 240
 331 236 328 326 0 0 +16 326 79 0 ?325 317 332 327 0 0 209 30 327 80 0 326 333 3
18 0 +9.995682000000004e-05 2.0008636e-04 -1.224646799147e-20 1.224646799147e-16
 -2.249639673992138e-32 1.0 17 328 0 339 346 246 329 325 326 0 331 -18 329 81 0
 328 314 344 330 ?209 29 330 82 0 329 345 315 9.995682000000004e-05 2.0008636e-0
4 -2.0e-06 17 331 0 324 325 313 329 334 332 0 349 +16 332 83 0 ?331 326 341 333
 0 0 209 30 333 84 0 332 342 327 0 +9.995682e-05 8.635999999998163e-08 -2.0e-06
 1.83697019872103e-16 1.0 0.0 17 334 0 393 319 349 314 331 332 0 0 -14 335 85 33
7 1.0e-08 350 320 339 217 336 +0 0 350 320 215 50 336 86 0 335 351 321 0 +9.9956
82000000004e-05 2.0008636e-04 -1.224646799147e-20 1.83697019872103e-16 1.0 0.0 0
.0 0.0 -1.0 81 1 337 87 6 335 0 0 352 322 338 83 3 338 0.0 0.666666686534882 0.0
 15 339 88 0 340 335 0 17 340 0 339 246 346 242 343 341 0 0 +16 341 89 0 ?340 33
2 347 342 0 0 209 30 342 90 0 341 348 333 0 +-1.0004318e-04 2.0008636e-04 -1.224
646799147e-20 0.0 0.0 1.0 17 343 0 354 355 252 344 340 341 0 346 -18 344 91 0 34
3 329 356 345 ?209 29 345 92 0 344 357 330 -1.0004318e-04 2.0008636e-04 -2.0e-06
 17 346 0 339 340 328 344 349 347 0 360 +16 347 93 0 ?346 341 358 348 0 0 209 30
 348 94 0 347 359 342 0 +9.995682000000004e-05 2.0008636e-04 -2.0e-06 -1.0 1.836
97019872103e-16 0.0 17 349 0 393 334 360 329 346 347 0 0 -14 350 95 352 1.0e-08
 365 335 354 217 351 -0 0 365 335 215 50 351 96 0 350 366 336 0 +-1.0004318e-04
 8.636000000002008e-08 1.224646799147e-20 1.0 -1.83697019872103e-16 -1.224646799
147e-16 1.224646799147e-16 -2.249639673992138e-32 1.0 81 1 352 97 6 350 0 0 367
 337 353 83 3 353 0.0 0.666666686534882 0.0 15 354 98 0 343 350 0 17 355 0 354 3
61 343 356 360 358 0 364 -18 356 99 0 355 344 371 357 ?209 29 357 100 0 356 372
 345 -1.0004318e-04 8.636000000002008e-08 -2.0e-06 16 358 101 0 ?360 347 362 359
 0 0 209 30 359 102 0 358 363 348 0 +-1.0004318e-04 8.636000000002008e-08 -2.0e-
06 1.83697019872103e-16 1.0 0.0 17 360 0 393 349 375 344 355 358 0 0 +17 361 0 3
54 252 355 248 364 362 0 0 -16 362 103 0 ?364 358 373 363 0 0 209 30 363 104 0 3
62 374 359 0 +-1.0004318e-04 8.636000000002008e-08 1.224646799147e-20 -1.2246467
99147e-16 2.249639673992138e-32 -1.0 17 364 0 369 370 258 356 361 362 0 375 +14
 365 105 367 1.0e-08 380 350 369 217 366 -0 0 380 350 215 50 366 106 0 365 381 3
51 0 +-4.0004318e-04 8.636000000007522e-08 4.898587196589e-20 -1.83697019872103e
-16 -1.0 0.0 0.0 0.0 1.0 81 1 367 107 6 365 0 0 382 352 368 83 3 368 0.0 0.66666
6686534882 0.0 15 369 108 0 364 365 0 17 370 0 369 376 364 371 375 373 0 379 -18
 371 109 0 370 356 0 372 ?209 29 372 110 0 371 0 357 -4.000431799999999e-04 8.63
6000000007464e-08 -2.0e-06 16 373 111 0 ?375 362 377 374 0 0 209 30 374 112 0 37
3 378 363 0 +-4.000431799999999e-04 8.636000000007522e-08 -2.0e-06 1.0 -1.836970
19872103e-16 0.0 17 375 0 393 360 388 356 370 373 0 0 +17 376 0 369 258 370 254
 379 377 0 0 -16 377 113 0 ?379 373 386 378 0 0 209 30 378 114 0 377 387 374 0 +
-4.000431799999999e-04 8.636000000007522e-08 4.898587196589e-20 0.0 0.0 -1.0 17
 379 0 384 385 264 371 376 377 0 388 +14 380 115 382 1.0e-08 389 365 384 217 381
 -0 0 389 365 215 50 381 116 0 380 390 366 0 +-4.000431800000001e-04 -1.99913639
9999999e-04 4.898587196589e-20 1.0 -1.83697019872103e-16 -1.224646799147e-16 1.2
24646799147e-16 -2.249639673992138e-32 1.0 81 1 382 117 6 380 0 0 391 367 383 83
 3 383 0.0 0.666666686534882 0.0 15 384 118 0 379 380 0 17 385 0 384 285 379 281
 388 386 0 0 -16 386 119 0 ?388 377 0 387 0 0 209 30 387 120 0 386 0 378 0 +-4.0
004318e-04 -1.999136399999999e-04 -2.0e-06 1.83697019872103e-16 1.0 0.0 17 388 0
 393 375 289 371 385 386 0 0 +14 389 121 391 1.0e-08 0 380 393 217 390 +0 0 0 38
0 215 50 390 122 0 389 0 381 0 +-4.000431800000001e-04 -1.999136399999999e-04 -2
.0e-06 -1.224646799147e-16 2.249639673992138e-32 -1.0 1.0 -1.83697019872103e-16
 -1.224646799147e-16 81 1 391 123 6 389 0 0 0 382 392 83 3 392 0.0 0.66666668653
4882 0.0 15 393 124 0 304 389 0 12 394 148 0 395 0 0 0 0 1000.0 1.0e-08 0 0 0 1
 0 1 1 402 404 410 408 399 409 407 70 395 0 394 0 0 4 1 20 0 396 396 1 T74 20 39
6 1 0 397 0 0 0 0 0 0 0 0 0 0 0 0 0 0 0 0 0 0 0 81 1 397 7 6 403 0 0 432 0 398 8
3 3 398 0.0 0.74117648601532 0.0 19 399 1 0 394 401 0 400 V13 400 2 0 394 0 0 0
 0 399 403 19 401 3 0 394 0 399 402 S13 402 4 0 394 0 403 0 0 401 0 14 403 5 397
 1.0e-08 430 0 405 402 404 -0 0 430 0 400 50 404 6 0 403 431 0 0 +3.499568200000
001e-04 5.000863599999999e-04 2.0e-04 0.0 0.0 1.0 -1.83697019872103e-16 -1.0 0.0
 15 405 8 0 406 403 0 17 406 0 405 414 426 407 411 409 0 419 -18 407 9 0 406 0 4
12 408 ?394 29 408 10 0 407 413 0 -3.500431800000001e-04 -4.9991364e-04 2.0e-04
 16 409 11 0 ?411 0 417 410 0 0 394 30 410 12 0 409 418 0 0 +3.499568199999999e-
04 -4.999136400000001e-04 2.0e-04 1.0 -1.83697019872103e-16 0.0 17 411 0 455 438
 456 412 406 409 0 426 +18 412 13 0 411 407 415 413 ?394 29 413 14 0 412 416 408
 3.499568199999999e-04 -4.999136400000001e-04 2.0e-04 17 414 0 405 420 406 415 4
19 417 0 425 -18 415 15 0 414 412 421 416 ?394 29 416 16 0 415 422 413 -3.500431
799999999e-04 5.000863600000001e-04 2.0e-04 16 417 17 0 ?419 409 423 418 0 0 394
 30 418 18 0 417 424 410 0 +-3.500431799999999e-04 5.000863600000001e-04 2.0e-04
 -1.83697019872103e-16 -1.0 0.0 17 419 0 470 459 471 407 414 417 0 456 +17 420 0
 405 426 414 421 425 423 0 429 -18 421 19 0 420 415 439 422 ?394 29 422 20 0 421
 440 416 3.499568200000001e-04 5.000863599999999e-04 2.0e-04 16 423 21 0 ?425 41
7 427 424 0 0 394 30 424 22 0 423 428 418 0 +3.499568200000001e-04 5.00086359999
9999e-04 2.0e-04 -1.0 1.83697019872103e-16 0.0 17 425 0 485 474 446 415 420 423
 0 471 +17 426 0 405 406 420 412 429 427 0 435 -16 427 23 0 ?429 423 436 428 0 0
 394 30 428 24 0 427 437 424 0 +3.499568200000001e-04 5.000863599999999e-04 2.0e
-04 1.83697019872103e-16 1.0 0.0 17 429 0 434 441 435 421 426 427 0 446 +14 430
 25 432 1.0e-08 451 403 434 402 431 +0 0 451 403 400 50 431 26 0 430 452 404 0 +
3.499568200000001e-04 5.000863599999999e-04 2.0e-04 1.0 -1.83697019872103e-16 0.
0 0.0 0.0 1.0 81 1 432 27 6 430 0 0 453 397 433 83 3 433 0.0 0.74117648601532 0.
0 15 434 28 0 435 430 0 17 435 0 434 429 447 412 438 436 0 0 +16 436 29 0 ?435 4
27 444 437 0 0 394 30 437 30 0 436 445 428 0 +3.499568199999999e-04 -4.999136400
000001e-04 2.0e-04 0.0 0.0 -1.0 17 438 0 455 462 411 439 435 436 0 447 -18 439 3
1 0 438 421 442 440 ?394 29 440 32 0 439 443 422 3.499568199999992e-04 -4.999136
399999988e-04 2.499999999999998e-04 17 441 0 434 447 429 442 446 444 0 450 +18 4
42 33 0 441 439 460 443 ?394 29 443 34 0 442 461 440 3.499568199999999e-04 5.000
863599999984e-04 2.499999999999998e-04 16 444 35 0 ?441 436 448 445 0 0 394 30 4
45 36 0 444 449 437 0 +3.499568200000001e-04 5.000863599999999e-04 2.0e-04 0.0 0
.0 1.0 17 446 0 485 425 486 421 441 444 0 0 -17 447 0 434 435 441 439 450 448 0
 465 +16 448 37 0 ?447 444 457 449 0 0 394 30 449 38 0 448 458 445 0 +3.49956820
0000001e-04 5.000863599999999e-04 2.5e-04 -1.83697019872103e-16 -1.0 0.0 17 450
 0 494 495 507 442 447 448 0 486 -14 451 39 453 1.0e-08 466 430 455 402 452 +0 0
 466 430 400 50 452 40 0 451 467 431 0 +3.499568199999999e-04 -4.999136400000001
e-04 2.0e-04 -1.83697019872103e-16 -1.0 0.0 0.0 0.0 -1.0 81 1 453 41 6 451 0 0 4
68 432 454 83 3 454 0.0 0.74117648601532 0.0 15 455 42 0 456 451 0 17 456 0 455
 411 462 407 459 457 0 0 +16 457 43 0 ?456 448 463 458 0 0 394 30 458 44 0 457 4
64 449 0 +-3.500431800000001e-04 -4.9991364e-04 2.0e-04 0.0 0.0 -1.0 17 459 0 47
0 477 419 460 456 457 0 462 -18 460 45 0 459 442 475 461 ?394 29 461 46 0 460 47
6 443 -3.500431799999987e-04 -4.999136399999992e-04 2.499999999999998e-04 17 462
 0 455 456 438 460 465 463 0 480 +16 463 47 0 ?462 457 472 464 0 0 394 30 464 48
 0 463 473 458 0 +3.499568199999999e-04 -4.999136400000001e-04 2.5e-04 -1.0 1.83
697019872103e-16 0.0 17 465 0 515 510 522 439 462 463 0 507 -14 466 49 468 1.0e-
08 481 451 470 402 467 +0 0 481 451 400 50 467 50 0 466 482 452 0 +-3.5004318000
00001e-04 -4.9991364e-04 2.0e-04 -1.0 1.83697019872103e-16 0.0 0.0 0.0 -1.0 81 1
 468 51 6 466 0 0 483 453 469 83 3 469 0.0 0.74117648601532 0.0 15 470 52 0 471
 466 0 17 471 0 470 419 477 415 474 472 0 0 +16 472 53 0 ?471 463 478 473 0 0 39
4 30 473 54 0 472 479 464 0 +-3.500431799999999e-04 5.000863600000001e-04 2.0e-0
4 0.0 0.0 -1.0 17 474 0 485 486 425 475 471 472 0 477 -18 475 55 0 474 460 496 4
76 ?394 29 476 56 0 475 497 461 -3.500431799999992e-04 5.000863599999987e-04 2.4
99999999999998e-04 17 477 0 470 471 459 475 480 478 0 489 +16 478 57 0 ?477 472
 487 479 0 0 394 30 479 58 0 478 488 473 0 +-3.500431800000001e-04 -4.9991364e-0
4 2.5e-04 1.83697019872103e-16 1.0 0.0 17 480 0 530 525 537 460 477 478 0 522 -1
4 481 59 483 1.0e-08 490 466 485 402 482 +0 0 490 466 400 50 482 60 0 481 491 46
7 0 +-3.500431799999999e-04 5.000863600000001e-04 2.0e-04 1.83697019872103e-16 1
.0 0.0 0.0 0.0 1.0 81 1 483 61 6 481 0 0 492 468 484 83 3 484 0.0 0.741176486015
32 0.0 15 485 62 0 446 481 0 17 486 0 485 446 474 442 489 487 0 500 +16 487 63 0
 ?486 478 498 488 0 0 394 30 488 64 0 487 499 479 0 +-3.500431799999999e-04 5.00
0863600000001e-04 2.5e-04 1.0 -1.83697019872103e-16 0.0 17 489 0 545 540 500 475
 486 487 0 537 -14 490 65 492 1.0e-08 511 481 494 402 491 +0 0 511 481 400 50 49
1 66 0 490 512 482 0 +3.349568200000002e-04 5.000863599999999e-04 4.25e-04 0.996
346649041753 -1.834598585561184e-16 0.085401141346419 -0.085401141346419 1.56879
3515901337e-17 0.996346649041753 81 1 492 67 6 490 0 0 513 483 493 83 3 493 0.0
 0.74117648601532 0.0 15 494 68 0 450 490 0 17 495 0 494 501 450 496 500 498 0 5
06 +18 496 69 0 495 475 502 497 ?394 29 497 70 0 496 503 476 3.215247037576907e-
04 4.716542437578452e-04 5.817080228269734e-04 16 498 71 0 ?495 487 504 499 0 0
 394 30 499 72 0 498 505 488 0 +3.499568199999972e-04 5.000863599999999e-04 2.49
9999999999997e-04 -0.0850914041696 -0.085091404168683 0.99273304864553 17 500 0
 545 489 546 442 495 498 0 0 -17 501 0 494 507 495 502 506 504 0 510 +18 502 73
 0 501 496 517 503 ?394 29 503 74 0 502 518 497 3.215247037576906e-04 -4.7148152
37578455e-04 5.817080228269734e-04 16 504 75 0 ?501 498 508 505 0 0 394 30 505 7
6 0 504 509 499 0 +3.215247037576908e-04 5.000863599999999e-04 5.817080228269734
e-04 -1.841293828740108e-16 -1.0 -3.705968587780559e-20 17 506 0 554 566 555 496
 501 504 0 546 -17 507 0 494 450 501 439 510 508 0 0 +16 508 77 0 ?507 504 519 5
09 0 0 394 30 509 78 0 508 520 505 0 +3.215247037576906e-04 -4.714815237580005e-
04 5.817080228269734e-04 0.0850914041696 -0.085091404168683 -0.99273304864553 17
 510 0 515 516 465 502 507 508 0 521 -14 511 79 513 1.0e-08 526 490 515 402 512
 +0 0 526 490 400 50 512 80 0 511 527 491 0 +3.499568199999999e-04 -4.8491364000
00001e-04 4.25e-04 -1.834598585561184e-16 -0.996346649041753 0.085401141346419 -
1.568793515901337e-17 -0.085401141346419 -0.996346649041753 81 1 513 81 6 511 0
 0 528 492 514 83 3 514 0.0 0.74117648601532 0.0 15 515 82 0 465 511 0 17 516 0
 515 522 510 517 521 519 0 525 +18 517 83 0 516 502 532 518 ?394 29 518 84 0 517
 533 503 -3.216110637578455e-04 -4.714815237576906e-04 5.817080228269734e-04 16
 519 85 0 ?516 508 523 520 0 0 394 30 520 86 0 519 524 509 0 +3.499568199999999e
-04 -4.714815237576907e-04 5.817080228269734e-04 -1.0 1.841293828740108e-16 -3.7
05968587780559e-20 17 521 0 585 563 592 502 516 519 0 555 -17 522 0 515 465 516
 460 525 523 0 0 +16 523 87 0 ?522 519 534 524 0 0 394 30 524 88 0 523 535 520 0
 +-3.216110637580003e-04 -4.714815237576906e-04 5.817080228269734e-04 -0.0850914
04168683 -0.0850914041696 -0.99273304864553 17 525 0 530 531 480 517 522 523 0 5
36 -14 526 89 528 1.0e-08 541 511 530 402 527 +0 0 541 511 400 50 527 90 0 526 5
42 512 0 +-3.350431800000001e-04 -4.9991364e-04 4.25e-04 -0.996346649041753 1.83
4598585561184e-16 0.085401141346419 -0.085401141346419 1.568793515901337e-17 -0.
996346649041753 81 1 528 91 6 526 0 0 543 513 529 83 3 529 0.0 0.74117648601532
 0.0 15 530 92 0 480 526 0 17 531 0 530 537 525 532 536 534 0 540 +18 532 93 0 5
31 517 564 533 ?394 29 533 94 0 532 565 518 -3.216110637576906e-04 4.71654243757
8455e-04 5.817080228269734e-04 16 534 95 0 ?531 523 538 535 0 0 394 30 535 96 0
 534 539 524 0 +-3.216110637576908e-04 -4.9991364e-04 5.817080228269734e-04 1.84
1293828740108e-16 1.0 -3.705968587780559e-20 17 536 0 605 600 612 517 531 534 0
 592 -17 537 0 530 480 531 475 540 538 0 0 +16 538 97 0 ?537 534 547 539 0 0 394
 30 539 98 0 538 548 535 0 +-3.216110637576906e-04 4.716542437580005e-04 5.81708
0228269734e-04 -0.0850914041696 0.085091404168683 -0.99273304864553 17 540 0 545
 546 489 532 537 538 0 549 -14 541 99 543 1.0e-08 550 526 545 402 542 +0 0 550 5
26 400 50 542 100 0 541 551 527 0 +-3.500431799999999e-04 4.8508636e-04 4.25e-04
 1.834598585561184e-16 0.996346649041753 0.085401141346419 -1.568793515901337e-1
7 -0.085401141346419 0.996346649041753 81 1 543 101 6 541 0 0 552 528 544 83 3 5
44 0.0 0.74117648601532 0.0 15 545 102 0 489 541 0 17 546 0 545 500 540 496 549
 547 0 576 +16 547 103 0 ?546 538 556 548 0 0 394 30 548 104 0 547 557 539 0 +-3
.500431799999999e-04 4.716542437576908e-04 5.817080228269734e-04 1.0 -1.84129382
8740108e-16 -3.705968587780559e-20 17 549 0 625 620 576 532 546 547 0 612 -14 55
0 105 552 1.0e-08 581 541 554 402 551 +0 0 581 541 400 51 551 106 0 550 582 542
 0 +3.015977707770001e-04 4.7008636e-04 5.8e-04 -1.83697019872103e-16 -1.0 0.0 2
.000000000000005e-05 0.0 0.0 -1.0 81 1 552 107 6 550 0 0 583 543 553 83 3 553 0.
0 0.74117648601532 0.0 15 554 108 0 555 550 0 17 555 0 554 506 577 502 563 556 0
 0 +16 556 109 0 ?555 547 569 557 0 0 394 134 557 110 0 556 570 548 0 +558 562 1
36 558 3 4 4 2 1 FFT1 559 560 561 45 16 559 3.01597770777e-04 -4.51554590777e-04
 6.000000000000001e-04 1.0 2.576702394857709e-04 -3.813028532089364e-04 4.946728
547184399e-04 0.824454757864067 2.643125504793811e-04 -3.879451642025466e-04 4.8
85755289940995e-04 0.824454757864067 3.215247037576906e-04 -4.714815237578455e-0
4 5.817080228269734e-04 1.0 127 2 560 4 4 128 2 561 4.71238898038469 6.197680013
498873 135 562 1 0 17 563 0 585 586 521 564 555 556 0 577 -18 564 111 0 563 532
 567 565 ?394 29 565 112 0 564 568 533 3.01597770777e-04 -4.51554590777e-04 6.00
0000000000001e-04 17 566 0 554 577 506 567 576 569 0 580 +18 567 113 0 566 564 5
87 568 ?394 29 568 114 0 567 588 565 3.015977707770001e-04 4.517273107769999e-04
 6.000000000000001e-04 16 569 115 0 ?566 556 578 570 0 0 394 134 570 116 0 569 5
79 557 0 +571 575 136 571 3 4 4 2 1 FFT1 572 573 574 45 16 572 3.215247037576907
e-04 4.716542437578452e-04 5.817080228269734e-04 1.0 2.643125504793815e-04 3.880
875640283253e-04 4.885755289940999e-04 0.824454757864067 2.576702394857713e-04 3
.81445253034715e-04 4.946728547184403e-04 0.824454757864067 3.015977707770001e-0
4 4.517273107769999e-04 6.000000000000001e-04 1.0 127 2 573 4 4 128 2 574 3.2270
97947270509 4.71238898038469 135 575 1 0 17 576 0 625 549 626 496 566 569 0 0 -1
7 577 0 554 555 566 564 580 578 0 591 +16 578 117 0 ?577 569 589 579 0 0 394 30
 579 118 0 578 590 570 0 +3.015977707770001e-04 4.700863599999999e-04 6.00000000
0000001e-04 -1.83697019872103e-16 -1.0 0.0 17 580 0 634 629 591 567 577 578 0 62
6 -14 581 119 583 1.0e-08 601 550 585 402 582 +0 0 601 550 400 51 582 120 0 581
 602 551 0 +3.199568199999999e-04 -4.515545907770001e-04 5.8e-04 -1.0 1.83697019
872103e-16 0.0 2.000000000000005e-05 0.0 0.0 -1.0 81 1 583 121 6 581 0 0 603 552
 584 83 3 584 0.0 0.74117648601532 0.0 15 585 122 0 521 581 0 17 586 0 585 592 5
63 587 591 589 0 600 +18 587 123 0 586 567 607 588 ?394 29 588 124 0 587 608 568
 -3.01684130777e-04 -4.515545907769999e-04 6.000000000000001e-04 16 589 125 0 ?5
86 578 593 590 0 0 394 30 590 126 0 589 594 579 0 +3.199568199999999e-04 -4.5155
4590777e-04 6.000000000000001e-04 -1.0 1.83697019872103e-16 0.0 17 591 0 634 580
 611 564 586 589 0 0 -17 592 0 585 521 586 517 600 593 0 0 +16 593 127 0 ?592 58
9 609 594 0 0 394 134 594 128 0 593 610 590 0 +595 599 136 595 3 4 4 2 1 FFT1 59
6 597 598 45 16 596 -3.01684130777e-04 -4.515545907769999e-04 6.000000000000001e
-04 1.0 -2.577414393986606e-04 -3.813028532089368e-04 4.946728547184407e-04 0.82
4454757864068 -2.643837503922708e-04 -3.879451642025472e-04 4.885755289941002e-0
4 0.824454757864068 -3.216110637578455e-04 -4.714815237576906e-04 5.817080228269
734e-04 1.0 127 2 597 4 4 128 2 598 4.71238898038469 6.197680013498868 135 599 1
 0 17 600 0 605 606 536 587 592 593 0 611 -14 601 129 603 1.0e-08 621 581 605 40
2 602 +0 0 621 581 400 51 602 130 0 601 622 582 0 +-3.016841307770001e-04 -4.699
136399999999e-04 5.8e-04 1.83697019872103e-16 1.0 0.0 2.000000000000005e-05 0.0
 0.0 1.0 81 1 603 131 6 601 0 0 623 583 604 83 3 604 0.0 0.74117648601532 0.0 15
 605 132 0 536 601 0 17 606 0 605 612 600 607 611 609 0 620 +18 607 133 0 606 58
7 0 608 ?394 29 608 134 0 607 0 588 -3.016841307769999e-04 4.51727310777e-04 6.0
00000000000001e-04 16 609 135 0 ?606 593 613 610 0 0 394 30 610 136 0 609 614 59
4 0 +-3.01684130777e-04 -4.699136399999999e-04 6.000000000000001e-04 1.836970198
72103e-16 1.0 0.0 17 611 0 634 591 629 587 606 609 0 0 -17 612 0 605 536 606 532
 620 613 0 0 +16 613 137 0 ?612 609 627 614 0 0 394 134 614 138 0 613 628 610 0
 +615 619 136 615 3 4 4 2 1 FFT1 616 617 618 45 16 616 -3.016841307769999e-04 4.
51727310777e-04 6.000000000000001e-04 1.0 -2.5774143939866e-04 3.814452530347146
e-04 4.946728547184399e-04 0.824454757864067 -2.643837503922702e-04 3.8808756402
83249e-04 4.885755289940995e-04 0.824454757864067 -3.216110637576906e-04 4.71654
2437578455e-04 5.817080228269734e-04 1.0 127 2 617 4 4 128 2 618 4.7123889803846
9 6.197680013498873 135 619 1 0 17 620 0 625 626 549 607 612 613 0 629 -14 621 1
39 623 1.0e-08 630 601 625 402 622 +0 0 630 601 400 51 622 140 0 621 631 602 0 +
-3.200431799999999e-04 4.51727310777e-04 5.8e-04 1.0 -1.83697019872103e-16 0.0 2
.000000000000005e-05 0.0 0.0 1.0 81 1 623 141 6 621 0 0 632 603 624 83 3 624 0.0
 0.74117648601532 0.0 15 625 142 0 576 621 0 17 626 0 625 576 620 567 629 627 0
 0 +16 627 143 0 ?626 613 0 628 0 0 394 30 628 144 0 627 0 614 0 +-3.20043179999
9999e-04 4.51727310777e-04 6.000000000000001e-04 1.0 -1.83697019872103e-16 0.0 1
7 629 0 634 611 580 607 626 627 0 0 -14 630 145 632 1.0e-08 0 621 634 402 631 +0
 0 0 621 400 50 631 146 0 630 0 622 0 +3.499568200000001e-04 5.000863599999999e-
04 5.999999999999999e-04 0.0 0.0 1.0 -1.83697019872103e-16 -1.0 0.0 81 1 632 147
 6 630 0 0 0 623 633 83 3 633 0.0 0.74117648601532 0.0 15 634 148 0 611 630 0 12
 635 96 0 636 0 0 0 0 1000.0 1.0e-08 0 0 0 1 0 1 1 643 645 651 649 640 650 648 7
0 636 0 635 0 0 4 1 20 0 637 637 1 T74 20 637 1 0 638 0 0 0 0 0 0 0 0 0 0 0 0 0
 0 0 0 0 0 0 81 1 638 7 6 644 0 0 685 0 639 83 3 639 0.780392169952393 0.5686274
17087555 0.113725490868092 19 640 1 0 635 642 0 641 V13 641 2 0 635 0 0 0 0 640
 644 19 642 3 0 635 0 640 643 S13 643 4 0 635 0 644 0 0 642 0 14 644 5 638 1.0e-
08 683 0 646 643 645 -0 0 683 0 641 50 645 6 0 644 684 0 0 +3.9995682e-04 -3.999
136400000001e-04 0.0 0.0 0.0 1.0 -1.83697019872103e-16 -1.0 0.0 15 646 8 0 647 6
44 0 17 647 0 646 655 679 648 652 650 0 660 -18 648 9 0 647 0 653 649 ?635 29 64
9 10 0 648 654 0 -2.000431800000002e-04 -7.999136400000001e-04 0.0 16 650 11 0 ?
652 0 658 651 0 0 635 31 651 12 0 650 659 0 0 +-4.318000000014695e-08 -7.9991364
00000001e-04 0.0 0.0 0.0 -1.0 -1.83697019872103e-16 -1.0 0.0 2.0e-04 17 652 0 70
8 699 715 653 647 650 0 679 +18 653 13 0 652 648 656 654 ?635 29 654 14 0 653 65
7 649 1.999568199999999e-04 -7.999136400000001e-04 0.0 17 655 0 646 661 647 656
 660 658 0 666 -18 656 15 0 655 653 662 657 ?635 29 657 16 0 656 663 654 -4.0004
31800000001e-04 -7.9991364e-04 0.0 16 658 17 0 ?660 650 664 659 0 0 635 30 659 1
8 0 658 665 651 0 +3.999568199999999e-04 -7.999136400000002e-04 0.0 1.0 -1.83697
019872103e-16 0.0 17 660 0 723 718 730 648 655 658 0 715 +17 661 0 646 667 655 6
62 666 664 0 672 -18 662 19 0 661 656 668 663 ?635 29 663 20 0 662 669 657 -4.00
04318e-04 -3.999136399999999e-04 0.0 16 664 21 0 ?666 658 670 665 0 0 635 30 665
 22 0 664 671 659 0 +-4.0004318e-04 -3.999136399999999e-04 0.0 -1.83697019872103
e-16 -1.0 0.0 17 666 0 738 733 739 656 661 664 0 730 +17 667 0 646 673 661 668 6
72 670 0 678 -18 668 23 0 667 662 674 669 ?635 29 669 24 0 668 675 663 3.9995682
e-04 -3.999136400000001e-04 0.0 16 670 25 0 ?672 664 676 671 0 0 635 30 671 26 0
 670 677 665 0 +3.9995682e-04 -3.999136400000001e-04 0.0 -1.0 1.83697019872103e-
16 0.0 17 672 0 753 742 754 662 667 670 0 739 +17 673 0 646 679 667 674 678 676
 0 682 -18 674 27 0 673 668 689 675 ?635 29 675 28 0 674 690 669 3.9995681999999
99e-04 -7.999136400000002e-04 0.0 16 676 29 0 ?678 670 680 677 0 0 635 30 677 30
 0 676 681 671 0 +3.9995682e-04 -3.999136400000001e-04 0.0 1.83697019872103e-16
 1.0 0.0 17 678 0 768 757 703 668 673 676 0 754 +17 679 0 646 647 673 653 682 68
0 0 696 -16 680 31 0 ?682 676 691 681 0 0 635 30 681 32 0 680 692 677 0 +3.99956
8199999999e-04 -7.999136400000002e-04 0.0 1.0 -1.83697019872103e-16 0.0 17 682 0
 687 700 696 674 679 680 0 703 +14 683 33 685 1.0e-08 704 644 687 643 684 +0 0 7
04 644 641 50 684 34 0 683 705 645 0 +3.999568199999999e-04 -7.999136400000002e-
04 0.0 -1.83697019872103e-16 -1.0 0.0 0.0 0.0 -1.0 81 1 685 35 6 683 0 0 706 638
 686 83 3 686 0.780392169952393 0.568627417087555 0.113725490868092 15 687 36 0
 688 683 0 17 688 0 687 696 700 689 693 691 0 699 +18 689 37 0 688 674 694 690 ?
635 29 690 38 0 689 695 675 1.999568199999999e-04 -7.999136400000001e-04 2.0e-04
 16 691 39 0 ?688 680 697 692 0 0 635 30 692 40 0 691 698 681 0 +3.9995681999999
99e-04 -7.999136400000002e-04 2.0e-04 -1.0 1.83697019872103e-16 0.0 17 693 0 777
 772 714 694 688 691 0 700 -18 694 41 0 693 689 710 695 ?635 29 695 42 0 694 711
 690 3.999568199999999e-04 -7.999136400000002e-04 2.0e-04 17 696 0 687 682 688 6
53 699 697 0 0 +16 697 43 0 ?696 691 701 698 0 0 635 30 698 44 0 697 702 692 0 +
1.999568199999999e-04 -7.999136400000001e-04 0.0 0.0 0.0 -1.0 17 699 0 708 709 6
52 689 696 697 0 714 -17 700 0 687 688 682 694 703 701 0 769 +16 701 45 0 ?700 6
97 712 702 0 0 635 30 702 46 0 701 713 698 0 +3.999568199999999e-04 -7.999136400
000002e-04 0.0 0.0 0.0 1.0 17 703 0 768 678 769 674 700 701 0 0 -14 704 47 706 1
.0e-08 719 683 708 643 705 -0 0 719 683 641 51 705 48 0 704 720 684 0 +-4.318000
000014695e-08 -7.999136400000001e-04 2.0e-04 0.0 0.0 1.0 2.0e-04 -1.836970198721
03e-16 -1.0 0.0 81 1 706 49 6 704 0 0 721 685 707 83 3 707 0.780392169952393 0.5
68627417087555 0.113725490868092 15 708 50 0 652 704 0 17 709 0 708 715 699 710
 714 712 0 729 -18 710 51 0 718 694 725 711 ?635 29 711 52 0 710 726 695 -2.0004
31800000002e-04 -7.999136400000001e-04 2.0e-04 16 712 53 0 ?714 701 716 713 0 0
 635 31 713 54 0 712 717 702 0 +-4.318000000014695e-08 -7.999136400000001e-04 2.
0e-04 0.0 0.0 -1.0 -1.83697019872103e-16 -1.0 0.0 2.0e-04 17 714 0 777 693 729 6
89 709 712 0 0 +17 715 0 708 652 709 648 718 716 0 0 -16 716 55 0 ?718 712 727 7
17 0 0 635 30 717 56 0 716 728 713 0 +-2.000431800000002e-04 -7.999136400000001e
-04 2.0e-04 0.0 0.0 1.0 17 718 0 723 724 660 710 715 716 0 709 +14 719 57 721 1.
0e-08 734 704 723 643 720 +0 0 734 704 641 50 720 58 0 719 735 705 0 +3.99956819
9999999e-04 -7.999136400000002e-04 0.0 -1.83697019872103e-16 -1.0 0.0 0.0 0.0 -1
.0 81 1 721 59 6 719 0 0 736 706 722 83 3 722 0.780392169952393 0.56862741708755
5 0.113725490868092 15 723 60 0 724 719 0 17 724 0 723 730 718 725 729 727 0 733
 +18 725 61 0 724 710 743 726 ?635 29 726 62 0 725 744 711 -4.000431800000001e-0
4 -7.9991364e-04 2.0e-04 16 727 63 0 ?724 716 731 728 0 0 635 30 728 64 0 727 73
2 717 0 +3.999568199999999e-04 -7.999136400000002e-04 2.0e-04 -1.0 1.83697019872
103e-16 0.0 17 729 0 777 714 748 710 724 727 0 0 -17 730 0 723 660 724 656 733 7
31 0 0 +16 731 65 0 ?730 727 740 732 0 0 635 30 732 66 0 731 741 728 0 +-4.00043
1800000001e-04 -7.9991364e-04 0.0 0.0 0.0 -1.0 17 733 0 738 745 666 725 730 731
 0 748 -14 734 67 736 1.0e-08 749 719 738 643 735 +0 0 749 719 641 50 735 68 0 7
34 750 720 0 +-4.000431800000002e-04 -7.9991364e-04 0.0 -1.0 1.83697019872103e-1
6 0.0 0.0 0.0 -1.0 81 1 736 69 6 734 0 0 751 721 737 83 3 737 0.780392169952393
 0.568627417087555 0.113725490868092 15 738 70 0 739 734 0 17 739 0 738 666 745
 662 742 740 0 0 +16 740 71 0 ?739 731 746 741 0 0 635 30 741 72 0 740 747 732 0
 +-4.0004318e-04 -3.999136399999999e-04 0.0 0.0 0.0 -1.0 17 742 0 753 760 672 74
3 739 740 0 745 -18 743 73 0 742 725 758 744 ?635 29 744 74 0 743 759 726 -4.000
4318e-04 -3.999136399999999e-04 2.0e-04 17 745 0 738 739 733 743 748 746 0 763 +
16 746 75 0 ?745 740 755 747 0 0 635 30 747 76 0 746 756 741 0 +-4.0004318000000
01e-04 -7.9991364e-04 2.0e-04 1.83697019872103e-16 1.0 0.0 17 748 0 777 729 763
 725 745 746 0 0 -14 749 77 751 1.0e-08 764 734 753 643 750 +0 0 764 734 641 50
 750 78 0 749 765 735 0 +-4.000431800000001e-04 -3.999136399999999e-04 0.0 1.836
97019872103e-16 1.0 0.0 0.0 0.0 1.0 81 1 751 79 6 749 0 0 766 736 752 83 3 752 0
.780392169952393 0.568627417087555 0.113725490868092 15 753 80 0 754 749 0 17 75
4 0 753 672 760 668 757 755 0 0 +16 755 81 0 ?754 746 761 756 0 0 635 30 756 82
 0 755 762 747 0 +3.9995682e-04 -3.999136400000001e-04 0.0 0.0 0.0 -1.0 17 757 0
 768 769 678 758 754 755 0 760 -18 758 83 0 757 743 0 759 ?635 29 759 84 0 758 0
 744 3.9995682e-04 -3.999136400000001e-04 2.0e-04 17 760 0 753 754 742 758 763 7
61 0 772 +16 761 85 0 ?760 755 770 762 0 0 635 30 762 86 0 761 771 756 0 +-4.000
4318e-04 -3.999136399999999e-04 2.0e-04 1.0 -1.83697019872103e-16 0.0 17 763 0 7
77 748 772 743 760 761 0 0 -14 764 87 766 1.0e-08 773 749 768 643 765 +0 0 773 7
49 641 50 765 88 0 764 774 750 0 +3.9995682e-04 -3.999136400000001e-04 0.0 1.0 -
1.83697019872103e-16 0.0 0.0 0.0 1.0 81 1 766 89 6 764 0 0 775 751 767 83 3 767
 0.780392169952393 0.568627417087555 0.113725490868092 15 768 90 0 703 764 0 17
 769 0 768 703 757 694 772 770 0 0 +16 770 91 0 ?769 761 0 771 0 0 635 30 771 92
 0 770 0 762 0 +3.9995682e-04 -3.999136400000001e-04 2.0e-04 -1.83697019872103e-
16 -1.0 0.0 17 772 0 777 763 693 758 769 770 0 0 -14 773 93 775 1.0e-08 0 764 77
7 643 774 +0 0 0 764 641 50 774 94 0 773 0 765 0 +3.9995682e-04 -3.9991364000000
01e-04 2.0e-04 0.0 0.0 1.0 -1.83697019872103e-16 -1.0 0.0 81 1 775 95 6 773 0 0
 0 766 776 83 3 776 0.780392169952393 0.568627417087555 0.113725490868092 15 777
 96 0 714 773 0 12 778 68 0 779 0 0 0 0 1000.0 1.0e-08 0 0 0 1 0 1 1 786 788 794
 792 783 793 791 70 779 0 778 0 0 4 1 20 0 780 780 1 T74 20 780 1 0 781 0 0 0 0
 0 0 0 0 0 0 0 0 0 0 0 0 0 0 0 81 1 781 7 6 787 0 0 816 0 782 83 3 782 0.8000000
11920929 0.800000011920929 0.800000011920929 19 783 1 0 778 785 0 784 V13 784 2
 0 778 0 0 0 0 783 787 19 785 3 0 778 0 783 786 S13 786 4 0 778 0 787 0 0 785 0
 14 787 5 781 1.0e-08 814 0 789 786 788 -0 0 814 0 784 50 788 6 0 787 815 0 0 +3
.999568200000001e-04 4.0008636e-04 0.0 0.0 0.0 1.0 -1.83697019872103e-16 -1.0 0.
0 15 789 8 0 790 787 0 17 790 0 789 798 810 791 795 793 0 803 -18 791 9 0 790 0
 796 792 ?778 29 792 10 0 791 797 0 -4.0004318e-04 -3.999136399999999e-04 0.0 16
 793 11 0 ?795 0 801 794 0 0 778 30 794 12 0 793 802 0 0 +3.9995682e-04 -3.99913
6400000001e-04 0.0 1.0 -1.83697019872103e-16 0.0 17 795 0 839 822 840 796 790 79
3 0 810 +18 796 13 0 795 791 799 797 ?778 29 797 14 0 796 800 792 3.9995682e-04
 -3.999136400000001e-04 0.0 17 798 0 789 804 790 799 803 801 0 809 -18 799 15 0
 798 796 805 800 ?778 29 800 16 0 799 806 797 -4.000431799999999e-04 4.000863600
000001e-04 0.0 16 801 17 0 ?803 793 807 802 0 0 778 30 802 18 0 801 808 794 0 +-
4.000431799999999e-04 4.000863600000001e-04 0.0 -1.83697019872103e-16 -1.0 0.0 1
7 803 0 854 843 855 791 798 801 0 840 +17 804 0 789 810 798 805 809 807 0 813 -1
8 805 19 0 804 799 823 806 ?778 29 806 20 0 805 824 800 3.999568200000001e-04 4.
0008636e-04 0.0 16 807 21 0 ?809 801 811 808 0 0 778 30 808 22 0 807 812 802 0 +
3.999568200000001e-04 4.0008636e-04 0.0 -1.0 1.83697019872103e-16 0.0 17 809 0 8
69 858 830 799 804 807 0 855 +17 810 0 789 790 804 796 813 811 0 819 -16 811 23
 0 ?813 807 820 812 0 0 778 30 812 24 0 811 821 808 0 +3.999568200000001e-04 4.0
008636e-04 0.0 1.83697019872103e-16 1.0 0.0 17 813 0 818 825 819 805 810 811 0 8
30 +14 814 25 816 1.0e-08 835 787 818 786 815 +0 0 835 787 784 50 815 26 0 814 8
36 788 0 +3.999568200000001e-04 4.0008636e-04 0.0 1.0 -1.83697019872103e-16 0.0
 0.0 0.0 1.0 81 1 816 27 6 814 0 0 837 781 817 83 3 817 0.800000011920929 0.8000
00011920929 0.800000011920929 15 818 28 0 819 814 0 17 819 0 818 813 831 796 822
 820 0 0 +16 820 29 0 ?819 811 828 821 0 0 778 30 821 30 0 820 829 812 0 +3.9995
682e-04 -3.999136400000001e-04 0.0 0.0 0.0 -1.0 17 822 0 839 846 795 823 819 820
 0 849 -18 823 31 0 831 805 826 824 ?778 29 824 32 0 823 827 806 3.9995682e-04 -
3.999136400000001e-04 2.0e-04 17 825 0 818 831 813 826 830 828 0 870 +18 826 33
 0 834 823 844 827 ?778 29 827 34 0 826 845 824 3.999568200000001e-04 4.0008636e
-04 2.0e-04 16 828 35 0 ?825 820 832 829 0 0 778 30 829 36 0 828 833 821 0 +3.99
9568200000001e-04 4.0008636e-04 0.0 0.0 0.0 1.0 17 830 0 869 809 870 805 825 828
 0 0 -17 831 0 818 819 825 823 834 832 0 822 +16 832 37 0 ?831 828 841 833 0 0 7
78 30 833 38 0 832 842 829 0 +3.999568200000001e-04 4.0008636e-04 2.0e-04 -1.836
97019872103e-16 -1.0 0.0 17 834 0 878 873 849 826 831 832 0 825 -14 835 39 837 1
.0e-08 850 814 839 786 836 +0 0 850 814 784 50 836 40 0 835 851 815 0 +3.9995682
e-04 -3.999136400000001e-04 0.0 -1.83697019872103e-16 -1.0 0.0 0.0 0.0 -1.0 81 1
 837 41 6 835 0 0 852 816 838 83 3 838 0.800000011920929 0.800000011920929 0.800
000011920929 15 839 42 0 840 835 0 17 840 0 839 795 846 791 843 841 0 0 +16 841
 43 0 ?840 832 847 842 0 0 778 30 842 44 0 841 848 833 0 +-4.0004318e-04 -3.9991
36399999999e-04 0.0 0.0 0.0 -1.0 17 843 0 854 861 803 844 840 841 0 846 -18 844
 45 0 843 826 859 845 ?778 29 845 46 0 844 860 827 -4.0004318e-04 -3.99913639999
9999e-04 2.0e-04 17 846 0 839 840 822 844 849 847 0 864 +16 847 47 0 ?846 841 85
6 848 0 0 778 30 848 48 0 847 857 842 0 +3.9995682e-04 -3.999136400000001e-04 2.
0e-04 -1.0 1.83697019872103e-16 0.0 17 849 0 878 834 864 823 846 847 0 0 -14 850
 49 852 1.0e-08 865 835 854 786 851 +0 0 865 835 784 50 851 50 0 850 866 836 0 +
-4.000431800000001e-04 -3.999136399999999e-04 0.0 -1.0 1.83697019872103e-16 0.0
 0.0 0.0 -1.0 81 1 852 51 6 850 0 0 867 837 853 83 3 853 0.800000011920929 0.800
000011920929 0.800000011920929 15 854 52 0 855 850 0 17 855 0 854 803 861 799 85
8 856 0 0 +16 856 53 0 ?855 847 862 857 0 0 778 30 857 54 0 856 863 848 0 +-4.00
0431799999999e-04 4.000863600000001e-04 0.0 0.0 0.0 -1.0 17 858 0 869 870 809 85
9 855 856 0 861 -18 859 55 0 858 844 0 860 ?778 29 860 56 0 859 0 845 -4.0004317
99999999e-04 4.000863600000001e-04 2.0e-04 17 861 0 854 855 843 859 864 862 0 87
3 +16 862 57 0 ?861 856 871 863 0 0 778 30 863 58 0 862 872 857 0 +-4.0004318e-0
4 -3.999136399999999e-04 2.0e-04 1.83697019872103e-16 1.0 0.0 17 864 0 878 849 8
73 844 861 862 0 0 -14 865 59 867 1.0e-08 874 850 869 786 866 +0 0 874 850 784 5
0 866 60 0 865 875 851 0 +-4.000431799999999e-04 4.000863600000001e-04 0.0 1.836
97019872103e-16 1.0 0.0 0.0 0.0 1.0 81 1 867 61 6 865 0 0 876 852 868 83 3 868 0
.800000011920929 0.800000011920929 0.800000011920929 15 869 62 0 830 865 0 17 87
0 0 869 830 858 826 873 871 0 0 +16 871 63 0 ?870 862 0 872 0 0 778 30 872 64 0
 871 0 863 0 +-4.000431799999999e-04 4.000863600000001e-04 2.0e-04 1.0 -1.836970
19872103e-16 0.0 17 873 0 878 864 834 859 870 871 0 0 -14 874 65 876 1.0e-08 0 8
65 878 786 875 +0 0 0 865 784 50 875 66 0 874 0 866 0 +3.999568200000001e-04 4.0
008636e-04 2.0e-04 0.0 0.0 1.0 -1.83697019872103e-16 -1.0 0.0 81 1 876 67 6 874
 0 0 0 867 877 83 3 877 0.800000011920929 0.800000011920929 0.800000011920929 15
 878 68 0 849 874 0 1 0 
