**ABCDEFGHIJKLMNOPQRSTUVWXYZabcdefghijklmnopqrstuvwxyz**************************
**PARASOLID !"#$%&'()*+,-./:;<=>?@[\]^_`{|}~0123456789**************************
**PART1;
MC=AMD64;
MC_MODEL=Intel64 Family 6 Model 154 Stepping 3, GenuineIntel;
MC_ID=unknown;
OS=Windows_NT;
OS_RELEASE=unknown;
FRU=CAD Exchanger 3.23.0 (cadexchanger.com);
APPL=unknown;
SITE=unknown;
USER=unknown;
FORMAT=text;
GUISE=transmit;
KEY=RESC7146X09N_CMP-009-00241-2;
FILE=RESC7146X09N_CMP-009-00241-2.x_t;
DATE=Sun Sep  7 20:42:43 2025;
**PART2;
SCH=SCH_1200000_12103;
USFLD_SIZE=0;
**PART3;
**END_OF_HEADER*****************************************************************
T51 : TRANSMIT FILE created by modeller version 120000017 SCH_1200000_121030 74
 4 1 4 0 2 105 290 475 12 2 68 0 3 0 0 0 0 1000.0 1.0e-08 0 0 0 1 0 1 1 12 14 20
 18 9 19 17 70 3 0 2 0 0 4 1 20 0 4 4 1 T74 20 4 1 0 5 0 0 0 0 0 0 0 0 0 0 0 0 0
 0 0 0 0 0 0 81 1 5 7 6 13 0 0 42 0 8 80 1 6 0 7 8001 0 0 0 0 3 5 0 0 0 FFFFTFTF
FFFFFF2 79 15 7 SDL/TYSA_COLOUR83 3 8 0.82745099067688 0.82745099067688 0.827450
99067688 19 9 1 0 2 11 0 10 V13 10 2 0 2 0 0 0 0 9 13 19 11 3 0 2 0 9 12 S13 12
 4 0 2 0 13 0 0 11 0 14 13 5 5 1.0e-08 40 0 15 12 14 -0 0 40 0 10 50 14 6 0 13 4
1 0 0 +-0.00346 -0.0023 9.0e-05 1.0 -2.449293598294707e-16 0.0 0.0 0.0 1.0 15 15
 8 0 16 13 0 17 16 0 15 24 36 17 21 19 0 29 +18 17 9 0 16 0 22 18 ?2 29 18 10 0
 17 23 0 -0.00346 0.0023 8.100000000000001e-04 16 19 11 0 ?16 0 27 20 0 0 2 30 2
0 12 0 19 28 0 0 +-0.00346 -0.0023 8.100000000000001e-04 2.449293598294707e-16 1
.0 0.0 17 21 0 104 77 94 22 16 19 0 74 -18 22 13 0 36 17 25 23 ?2 29 23 14 0 22
 26 18 -0.00346 -0.0023 8.100000000000001e-04 17 24 0 15 30 16 25 29 27 0 87 -18
 25 15 0 35 22 31 26 ?2 29 26 16 0 25 32 23 -0.00346 0.0023 9.0e-05 16 27 17 0 ?
29 19 33 28 0 0 2 30 28 18 0 27 34 20 0 +-0.00346 0.0023 9.0e-05 0.0 0.0 1.0 17
 29 0 86 91 87 17 24 27 0 94 +17 30 0 15 36 24 31 35 33 0 81 -18 31 19 0 39 25 4
6 32 ?2 29 32 20 0 31 47 26 -0.00346 -0.0023 9.0e-05 16 33 21 0 ?35 27 37 34 0 0
 2 30 34 22 0 33 38 28 0 +-0.00346 -0.0023 9.0e-05 2.449293598294707e-16 1.0 0.0
 17 35 0 99 90 81 25 30 33 0 24 +17 36 0 15 16 30 22 39 37 0 21 +16 37 23 0 ?36
 33 48 38 0 0 2 30 38 24 0 37 49 34 0 +-0.00346 -0.0023 9.0e-05 0.0 0.0 1.0 17 3
9 0 73 78 74 31 36 37 0 30 -14 40 25 42 1.0e-08 69 13 44 12 41 +0 0 69 13 10 50
 41 26 0 40 70 14 0 +0.00346 -0.0023 9.0e-05 1.0 -2.449293598294707e-16 0.0 0.0
 0.0 1.0 81 1 42 27 6 40 0 0 71 5 43 83 3 43 0.82745099067688 0.82745099067688 0
.82745099067688 15 44 28 0 45 40 0 17 45 0 44 53 65 46 50 48 0 58 -18 46 29 0 78
 31 51 47 ?2 29 47 30 0 46 52 32 0.00346 -0.0023 9.0e-05 16 48 31 0 ?50 37 56 49
 0 0 2 30 49 32 0 48 57 38 0 +0.00346 -0.0023 9.0e-05 0.0 0.0 1.0 17 50 0 73 74
 78 51 45 48 0 0 +18 51 33 0 77 46 54 52 ?2 29 52 34 0 51 55 47 0.00346 -0.0023
 8.100000000000001e-04 17 53 0 44 59 45 54 58 56 0 0 +18 54 35 0 64 51 60 55 ?2
 29 55 36 0 54 61 52 0.00346 0.0023 9.0e-05 16 56 37 0 ?53 48 62 57 0 0 2 30 57
 38 0 56 63 49 0 +0.00346 -0.0023 9.0e-05 2.449293598294707e-16 1.0 0.0 17 58 0
 99 81 90 46 53 56 0 0 -17 59 0 44 65 53 60 64 62 0 68 +18 60 39 0 59 54 0 61 ?2
 29 61 40 0 60 0 55 0.00346 0.0023 8.100000000000001e-04 16 62 41 0 ?59 56 66 63
 0 0 2 30 63 42 0 62 67 57 0 +0.00346 0.0023 9.0e-05 0.0 0.0 1.0 17 64 0 86 87 9
1 54 59 62 0 90 -17 65 0 44 45 59 51 68 66 0 50 -16 66 43 0 ?68 62 75 67 0 0 2 3
0 67 44 0 66 76 63 0 +0.00346 -0.0023 8.100000000000001e-04 2.449293598294707e-1
6 1.0 0.0 17 68 0 104 94 77 60 65 66 0 91 +14 69 45 71 1.0e-08 82 40 73 12 70 -0
 0 82 40 10 50 70 46 0 69 83 41 0 +-0.00346 -0.0023 9.0e-05 2.449293598294707e-1
6 1.0 0.0 0.0 0.0 1.0 81 1 71 47 6 69 0 0 84 42 72 83 3 72 0.82745099067688 0.82
745099067688 0.82745099067688 15 73 48 0 50 69 0 17 74 0 73 39 50 22 77 75 0 0 -
16 75 49 0 ?77 66 79 76 0 0 2 30 76 50 0 75 80 67 0 +-0.00346 -0.0023 8.10000000
0000001e-04 1.0 -2.449293598294707e-16 0.0 17 77 0 104 68 21 51 74 75 0 65 +17 7
8 0 73 50 39 46 81 79 0 45 +16 79 51 0 ?78 75 88 80 0 0 2 30 80 52 0 79 89 76 0
 +-0.00346 -0.0023 9.0e-05 1.0 -2.449293598294707e-16 0.0 17 81 0 99 35 58 31 78
 79 0 0 -14 82 53 84 1.0e-08 95 69 86 12 83 +0 0 95 69 10 50 83 54 0 82 96 70 0
 +-0.00346 0.0023 9.0e-05 2.449293598294707e-16 1.0 0.0 0.0 0.0 1.0 81 1 84 55 6
 82 0 0 97 71 85 83 3 85 0.82745099067688 0.82745099067688 0.82745099067688 15 8
6 56 0 87 82 0 17 87 0 86 29 64 25 90 88 0 0 -16 88 57 0 ?90 79 92 89 0 0 2 30 8
9 58 0 88 93 80 0 +-0.00346 0.0023 9.0e-05 1.0 -2.449293598294707e-16 0.0 17 90
 0 99 58 35 54 87 88 0 53 +17 91 0 86 64 29 60 94 92 0 0 +16 92 59 0 ?91 88 0 93
 0 0 2 30 93 60 0 92 0 89 0 +-0.00346 0.0023 8.100000000000001e-04 1.0 -2.449293
598294707e-16 0.0 17 94 0 104 21 68 17 91 92 0 0 -14 95 61 97 1.0e-08 100 82 99
 12 96 -0 0 100 82 10 50 96 62 0 95 101 83 0 +-0.00346 -0.0023 9.0e-05 0.0 0.0 1
.0 1.0 -2.449293598294707e-16 0.0 81 1 97 63 6 95 0 0 102 84 98 83 3 98 0.827450
99067688 0.82745099067688 0.82745099067688 15 99 64 0 90 95 0 14 100 65 102 1.0e
-08 0 95 104 12 101 +0 0 0 95 10 50 101 66 0 100 0 96 0 +-0.00346 -0.0023 8.1000
00000000001e-04 0.0 0.0 1.0 1.0 -2.449293598294707e-16 0.0 81 1 102 67 6 100 0 0
 0 97 103 83 3 103 0.82745099067688 0.82745099067688 0.82745099067688 15 104 68
 0 21 100 0 12 105 124 0 106 0 0 0 0 1000.0 1.0e-08 0 0 0 1 0 1 1 113 115 121 11
9 110 120 118 70 106 0 105 0 0 4 1 20 0 107 107 1 T74 20 107 1 0 108 0 0 0 0 0 0
 0 0 0 0 0 0 0 0 0 0 0 0 0 81 1 108 7 6 114 0 0 143 0 109 83 3 109 0.80000001192
0929 0.800000011920929 0.800000011920929 19 110 1 0 105 112 0 111 V13 111 2 0 10
5 0 0 0 0 110 114 19 112 3 0 105 0 110 113 S13 113 4 0 105 0 114 0 0 112 0 14 11
4 5 108 1.0e-08 141 0 116 113 115 -0 0 141 0 111 50 115 6 0 114 142 0 0 +-0.0035
5 -0.0023 0.0 1.0 -2.449293598294707e-16 0.0 0.0 0.0 1.0 15 116 8 0 117 114 0 17
 117 0 116 125 137 118 122 120 0 130 +18 118 9 0 117 0 123 119 ?105 29 119 10 0
 118 124 0 -0.00355 0.0023 9.0e-04 16 120 11 0 ?117 0 128 121 0 0 105 30 121 12
 0 120 129 0 0 +-0.00355 -0.0023 9.0e-04 2.449293598294707e-16 1.0 0.0 17 122 0
 190 175 197 123 117 120 0 172 -18 123 13 0 137 118 126 124 ?105 29 124 14 0 123
 127 119 -0.00355 -0.0023 9.0e-04 17 125 0 116 131 117 126 130 128 0 214 -18 126
 15 0 136 123 132 127 ?105 29 127 16 0 126 133 124 -0.00355 0.0023 0.0 16 128 17
 0 ?130 120 134 129 0 0 105 30 129 18 0 128 135 121 0 +-0.00355 0.0023 0.0 0.0 0
.0 1.0 17 130 0 205 200 214 118 125 128 0 197 +17 131 0 116 137 125 132 136 134
 0 181 -18 132 19 0 140 126 147 133 ?105 29 133 20 0 132 148 127 -0.00355 -0.002
3 0.0 16 134 21 0 ?136 128 138 135 0 0 105 30 135 22 0 134 139 129 0 +-0.00355 -
0.0023 0.0 2.449293598294707e-16 1.0 0.0 17 136 0 244 217 181 126 131 134 0 125
 +17 137 0 116 117 131 123 140 138 0 122 +16 138 23 0 ?137 134 149 139 0 0 105 3
0 139 24 0 138 150 135 0 +-0.00355 -0.0023 0.0 0.0 0.0 1.0 17 140 0 145 176 172
 132 137 138 0 131 -14 141 25 143 1.0e-08 186 114 145 113 142 -0 0 186 114 111 5
0 142 26 0 141 187 115 0 +-0.00355 -0.0023 0.0 2.449293598294707e-16 1.0 0.0 0.0
 0.0 1.0 81 1 143 27 6 141 0 0 188 108 144 83 3 144 0.800000011920929 0.80000001
1920929 0.800000011920929 15 145 28 0 146 141 0 17 146 0 145 154 182 147 151 149
 0 263 -18 147 29 0 159 132 152 148 ?105 29 148 30 0 147 153 133 -0.00346 -0.002
3 9.0e-05 16 149 31 0 ?151 138 157 150 0 0 105 30 150 32 0 149 158 139 0 +-0.003
46 -0.0023 9.0e-05 1.0 -2.449293598294707e-16 0.0 17 151 0 262 257 263 152 146 1
49 0 254 +18 152 33 0 182 147 155 153 ?105 29 153 34 0 152 156 148 -0.00225 -0.0
023 9.0e-05 17 154 0 145 160 146 155 159 157 0 165 +18 155 35 0 154 152 161 156
 ?105 29 156 36 0 155 162 153 -0.00346 -0.0023 8.100000000000001e-04 16 157 37 0
 ?154 149 163 158 0 0 105 30 158 38 0 157 164 150 0 +-0.00346 -0.0023 9.0e-05 0.
0 0.0 1.0 17 159 0 271 266 272 147 154 157 0 146 -17 160 0 145 166 154 161 165 1
63 0 281 +18 161 39 0 171 155 167 162 ?105 29 162 40 0 161 168 156 -0.00225 -0.0
023 8.100000000000001e-04 16 163 41 0 ?160 157 169 164 0 0 105 30 164 42 0 163 1
70 158 0 +-0.00346 -0.0023 8.100000000000001e-04 1.0 -2.449293598294707e-16 0.0
 17 165 0 280 275 281 155 160 163 0 272 -17 166 0 145 172 160 167 171 169 0 196
 +18 167 43 0 166 161 177 168 ?105 29 168 44 0 167 178 162 -0.00225 -0.0023 9.0e
-04 16 169 45 0 ?166 163 173 170 0 0 105 30 170 46 0 169 174 164 0 +-0.00225 -0.
0023 0.0 0.0 0.0 1.0 17 171 0 289 284 196 161 166 169 0 160 -17 172 0 145 140 16
6 123 175 173 0 0 -16 173 47 0 ?175 169 179 174 0 0 105 30 174 48 0 173 180 170
 0 +-0.00355 -0.0023 9.0e-04 1.0 -2.449293598294707e-16 0.0 17 175 0 190 191 122
 167 172 173 0 0 +17 176 0 145 182 140 177 181 179 0 245 +18 177 49 0 185 167 19
2 178 ?105 29 178 50 0 177 193 168 -0.00225 -0.0023 0.0 16 179 51 0 ?176 173 183
 180 0 0 105 30 180 52 0 179 184 174 0 +-0.00355 -0.0023 0.0 1.0 -2.449293598294
707e-16 0.0 17 181 0 244 136 245 132 176 179 0 0 -17 182 0 145 146 176 152 185 1
83 0 151 +16 183 53 0 ?182 179 194 184 0 0 105 30 184 54 0 183 195 180 0 +-0.002
25 -0.0023 0.0 0.0 0.0 1.0 17 185 0 253 248 254 177 182 183 0 176 -14 186 55 188
 1.0e-08 201 141 190 113 187 +0 0 201 141 111 50 187 56 0 186 202 142 0 +-0.0035
5 -0.0023 9.0e-04 0.0 0.0 1.0 1.0 -2.449293598294707e-16 0.0 81 1 188 57 6 186 0
 0 203 143 189 83 3 189 0.800000011920929 0.800000011920929 0.800000011920929 15
 190 58 0 122 186 0 17 191 0 190 197 175 192 196 194 0 223 +18 192 59 0 200 177
 207 193 ?105 29 193 60 0 192 208 178 -0.00225 0.0023 9.0e-04 16 194 61 0 ?191 1
83 198 195 0 0 105 30 195 62 0 194 199 184 0 +-0.00225 -0.0023 9.0e-04 2.4492935
98294707e-16 1.0 0.0 17 196 0 289 171 223 167 191 194 0 175 -17 197 0 190 122 19
1 118 200 198 0 0 -16 198 63 0 ?200 194 209 199 0 0 105 30 199 64 0 198 210 195
 0 +-0.00355 0.0023 9.0e-04 1.0 -2.449293598294707e-16 0.0 17 200 0 205 218 130
 192 197 198 0 191 +14 201 65 203 1.0e-08 240 186 205 113 202 +0 0 240 186 111 5
0 202 66 0 201 241 187 0 +-0.00355 0.0023 0.0 2.449293598294707e-16 1.0 0.0 0.0
 0.0 1.0 81 1 203 67 6 201 0 0 242 188 204 83 3 204 0.800000011920929 0.80000001
1920929 0.800000011920929 15 205 68 0 206 201 0 17 206 0 205 214 236 207 211 209
 0 248 -18 207 69 0 217 192 212 208 ?105 29 208 70 0 207 213 193 -0.00225 0.0023
 0.0 16 209 71 0 ?211 198 215 210 0 0 105 30 210 72 0 209 216 199 0 +-0.00225 0.
0023 0.0 0.0 0.0 1.0 17 211 0 253 254 248 212 206 209 0 257 +18 212 73 0 236 207
 219 213 ?105 29 213 74 0 212 220 208 -0.00225 0.0023 9.0e-05 17 214 0 205 130 2
06 126 217 215 0 0 -16 215 75 0 ?217 209 221 216 0 0 105 30 216 76 0 215 222 210
 0 +-0.00355 0.0023 0.0 1.0 -2.449293598294707e-16 0.0 17 217 0 244 245 136 207
 214 215 0 206 +17 218 0 205 224 200 219 223 221 0 229 -18 219 77 0 218 212 225
 220 ?105 29 220 78 0 219 226 213 -0.00225 0.0023 8.100000000000001e-04 16 221 7
9 0 ?223 215 227 222 0 0 105 30 222 80 0 221 228 216 0 +-0.00225 0.0023 0.0 0.0
 0.0 1.0 17 223 0 289 196 284 192 218 221 0 0 +17 224 0 205 230 218 225 229 227
 0 235 -18 225 81 0 275 219 231 226 ?105 29 226 82 0 225 232 220 -0.00346 0.0023
 8.100000000000001e-04 16 227 83 0 ?229 221 233 228 0 0 105 30 228 84 0 227 234
 222 0 +-0.00346 0.0023 8.100000000000001e-04 1.0 -2.449293598294707e-16 0.0 17
 229 0 280 281 275 219 224 227 0 284 +17 230 0 205 236 224 231 235 233 0 0 -18 2
31 85 0 239 225 0 232 ?105 29 232 86 0 231 0 226 -0.00346 0.0023 9.0e-05 16 233
 87 0 ?235 227 237 234 0 0 105 30 234 88 0 233 238 228 0 +-0.00346 0.0023 9.0e-0
5 0.0 0.0 1.0 17 235 0 271 272 266 225 230 233 0 0 +17 236 0 205 206 230 212 239
 237 0 211 +16 237 89 0 ?236 233 246 238 0 0 105 30 238 90 0 237 247 234 0 +-0.0
0346 0.0023 9.0e-05 1.0 -2.449293598294707e-16 0.0 17 239 0 262 263 257 231 236
 237 0 266 -14 240 91 242 1.0e-08 249 201 244 113 241 -0 0 249 201 111 50 241 92
 0 240 250 202 0 +-0.00355 -0.0023 0.0 0.0 0.0 1.0 1.0 -2.449293598294707e-16 0.
0 81 1 242 93 6 240 0 0 251 203 243 83 3 243 0.800000011920929 0.800000011920929
 0.800000011920929 15 244 94 0 217 240 0 17 245 0 244 181 217 177 248 246 0 0 -1
6 246 95 0 ?248 237 255 247 0 0 105 30 247 96 0 246 256 238 0 +-0.00225 -0.0023
 0.0 2.449293598294707e-16 1.0 0.0 17 248 0 253 211 185 207 245 246 0 0 +14 249
 97 251 1.0e-08 258 240 253 113 250 +0 0 258 240 111 50 250 98 0 249 259 241 0 +
-0.00225 -0.0023 0.0 1.0 -2.449293598294707e-16 0.0 0.0 0.0 1.0 81 1 251 99 6 24
9 0 0 260 242 252 83 3 252 0.800000011920929 0.800000011920929 0.800000011920929
 15 253 100 0 185 249 0 17 254 0 253 185 211 152 257 255 0 0 +16 255 101 0 ?254
 246 264 256 0 0 105 30 256 102 0 255 265 247 0 +-0.00225 -0.0023 9.0e-05 -2.449
293598294707e-16 -1.0 0.0 17 257 0 262 239 151 212 254 255 0 0 -14 258 103 260 1
.0e-08 267 249 262 113 259 +0 0 267 249 111 50 259 104 0 258 268 250 0 +-0.00346
 -0.0023 9.0e-05 0.0 0.0 1.0 1.0 -2.449293598294707e-16 0.0 81 1 260 105 6 258 0
 0 269 251 261 83 3 261 0.800000011920929 0.800000011920929 0.800000011920929 15
 262 106 0 239 258 0 17 263 0 262 151 239 147 266 264 0 0 -16 264 107 0 ?266 255
 273 265 0 0 105 30 265 108 0 264 274 256 0 +-0.00346 -0.0023 9.0e-05 2.44929359
8294707e-16 1.0 0.0 17 266 0 271 235 159 231 263 264 0 230 +14 267 109 269 1.0e-
08 276 258 271 113 268 +0 0 276 258 111 50 268 110 0 267 277 259 0 +-0.00346 -0.
0023 9.0e-05 1.0 -2.449293598294707e-16 0.0 0.0 0.0 1.0 81 1 269 111 6 267 0 0 2
78 260 270 83 3 270 0.800000011920929 0.800000011920929 0.800000011920929 15 271
 112 0 159 267 0 17 272 0 271 159 235 155 275 273 0 0 -16 273 113 0 ?275 264 282
 274 0 0 105 30 274 114 0 273 283 265 0 +-0.00346 -0.0023 8.100000000000001e-04
 2.449293598294707e-16 1.0 0.0 17 275 0 280 229 165 225 272 273 0 224 +14 276 11
5 278 1.0e-08 285 267 280 113 277 -0 0 285 267 111 50 277 116 0 276 286 268 0 +-
0.00346 -0.0023 8.100000000000001e-04 0.0 0.0 1.0 1.0 -2.449293598294707e-16 0.0
 81 1 278 117 6 276 0 0 287 269 279 83 3 279 0.800000011920929 0.800000011920929
 0.800000011920929 15 280 118 0 281 276 0 17 281 0 280 165 229 161 284 282 0 0 +
16 282 119 0 ?281 273 0 283 0 0 105 30 283 120 0 282 0 274 0 +-0.00225 -0.0023 8
.100000000000001e-04 -2.449293598294707e-16 -1.0 0.0 17 284 0 289 223 171 219 28
1 282 0 0 -14 285 121 287 1.0e-08 0 276 289 113 286 +0 0 0 276 111 50 286 122 0
 285 0 277 0 +-0.00225 -0.0023 0.0 1.0 -2.449293598294707e-16 0.0 0.0 0.0 1.0 81
 1 287 123 6 285 0 0 0 278 288 83 3 288 0.800000011920929 0.800000011920929 0.80
0000011920929 15 289 124 0 171 285 0 12 290 124 0 291 0 0 0 0 1000.0 1.0e-08 0 0
 0 1 0 1 1 298 300 306 304 295 305 303 70 291 0 290 0 0 4 1 20 0 292 292 1 T74 2
0 292 1 0 293 0 0 0 0 0 0 0 0 0 0 0 0 0 0 0 0 0 0 0 81 1 293 7 6 299 0 0 328 0 2
94 83 3 294 0.800000011920929 0.800000011920929 0.800000011920929 19 295 1 0 290
 297 0 296 V13 296 2 0 290 0 0 0 0 295 299 19 297 3 0 290 0 295 298 S13 298 4 0
 290 0 299 0 0 297 0 14 299 5 293 1.0e-08 326 0 301 298 300 -0 0 326 0 296 50 30
0 6 0 299 327 0 0 +0.00355 0.0023 0.0 -1.0 3.673940397441706e-16 0.0 0.0 0.0 1.0
 15 301 8 0 302 299 0 17 302 0 301 310 322 303 307 305 0 0 +18 303 9 0 382 0 308
 304 ?290 29 304 10 0 303 309 0 0.00355 -0.0023 9.0e-04 16 305 11 0 ?302 0 313 3
06 0 0 290 30 306 12 0 305 314 0 0 +0.00355 0.0023 9.0e-04 -3.673940397441706e-1
6 -1.0 0.0 17 307 0 375 360 382 308 302 305 0 357 -18 308 13 0 322 303 311 309 ?
290 29 309 14 0 308 312 304 0.00355 0.0023 9.0e-04 17 310 0 301 316 302 311 315
 313 0 399 -18 311 15 0 321 308 317 312 ?290 29 312 16 0 311 318 309 0.00355 -0.
0023 0.0 16 313 17 0 ?315 305 319 314 0 0 290 30 314 18 0 313 320 306 0 +0.00355
 -0.0023 0.0 0.0 0.0 1.0 17 315 0 390 385 399 303 310 313 0 302 +17 316 0 301 32
2 310 317 321 319 0 366 -18 317 19 0 325 311 332 318 ?290 29 318 20 0 317 333 31
2 0.00355 0.0023 0.0 16 319 21 0 ?321 313 323 320 0 0 290 30 320 22 0 319 324 31
4 0 +0.00355 0.0023 0.0 -3.673940397441706e-16 -1.0 0.0 17 321 0 429 402 366 311
 316 319 0 310 +17 322 0 301 302 316 308 325 323 0 307 +16 323 23 0 ?322 319 334
 324 0 0 290 30 324 24 0 323 335 320 0 +0.00355 0.0023 0.0 0.0 0.0 1.0 17 325 0
 330 361 357 317 322 323 0 316 -14 326 25 328 1.0e-08 371 299 330 298 327 -0 0 3
71 299 296 50 327 26 0 326 372 300 0 +0.00355 0.0023 0.0 -3.673940397441706e-16
 -1.0 0.0 0.0 0.0 1.0 81 1 328 27 6 326 0 0 373 293 329 83 3 329 0.8000000119209
29 0.800000011920929 0.800000011920929 15 330 28 0 331 326 0 17 331 0 330 339 36
7 332 336 334 0 0 -18 332 29 0 448 317 337 333 ?290 29 333 30 0 332 338 318 0.00
346 0.0023 9.0e-05 16 334 31 0 ?336 323 342 335 0 0 290 30 335 32 0 334 343 324
 0 +0.00346 0.0023 9.0e-05 -1.0 3.673940397441706e-16 0.0 17 336 0 447 442 448 3
37 331 334 0 0 +18 337 33 0 439 332 340 338 ?290 29 338 34 0 337 341 333 0.00225
 0.0023 9.0e-05 17 339 0 330 345 331 340 344 342 0 350 +18 340 35 0 457 337 346
 341 ?290 29 341 36 0 340 347 338 0.00346 0.0023 8.100000000000001e-04 16 342 37
 0 ?339 334 348 343 0 0 290 30 343 38 0 342 349 335 0 +0.00346 0.0023 9.0e-05 0.
0 0.0 1.0 17 344 0 456 451 457 332 339 342 0 331 -17 345 0 330 351 339 346 350 3
48 0 356 +18 346 39 0 466 340 352 347 ?290 29 347 40 0 346 353 341 0.00225 0.002
3 8.100000000000001e-04 16 348 41 0 ?345 342 354 349 0 0 290 30 349 42 0 348 355
 343 0 +0.00346 0.0023 8.100000000000001e-04 -1.0 3.673940397441706e-16 0.0 17 3
50 0 465 460 466 340 345 348 0 0 -17 351 0 330 357 345 352 356 354 0 0 +18 352 4
3 0 360 346 362 353 ?290 29 353 44 0 352 363 347 0.00225 0.0023 9.0e-04 16 354 4
5 0 ?351 348 358 355 0 0 290 30 355 46 0 354 359 349 0 +0.00225 0.0023 0.0 0.0 0
.0 1.0 17 356 0 474 469 381 346 351 354 0 0 -17 357 0 330 325 351 308 360 358 0
 0 -16 358 47 0 ?360 354 364 359 0 0 290 30 359 48 0 358 365 355 0 +0.00355 0.00
23 9.0e-04 -1.0 3.673940397441706e-16 0.0 17 360 0 375 376 307 352 357 358 0 381
 +17 361 0 330 367 325 362 366 364 0 0 +18 362 49 0 430 352 377 363 ?290 29 363
 50 0 362 378 353 0.00225 0.0023 0.0 16 364 51 0 ?361 358 368 365 0 0 290 30 365
 52 0 364 369 359 0 +0.00355 0.0023 0.0 -1.0 3.673940397441706e-16 0.0 17 366 0
 429 321 430 317 361 364 0 0 -17 367 0 330 331 361 337 370 368 0 336 +16 368 53
 0 ?367 364 379 369 0 0 290 30 369 54 0 368 380 365 0 +0.00225 0.0023 0.0 0.0 0.
0 1.0 17 370 0 438 433 439 362 367 368 0 361 -14 371 55 373 1.0e-08 386 326 375
 298 372 +0 0 386 326 296 50 372 56 0 371 387 327 0 +0.00355 0.0023 9.0e-04 0.0
 0.0 1.0 -1.0 3.673940397441706e-16 0.0 81 1 373 57 6 371 0 0 388 328 374 83 3 3
74 0.800000011920929 0.800000011920929 0.800000011920929 15 375 58 0 307 371 0 1
7 376 0 375 382 360 377 381 379 0 0 +18 377 59 0 385 362 392 378 ?290 29 378 60
 0 377 393 363 0.00225 -0.0023 9.0e-04 16 379 61 0 ?376 368 383 380 0 0 290 30 3
80 62 0 379 384 369 0 +0.00225 0.0023 9.0e-04 -3.673940397441706e-16 -1.0 0.0 17
 381 0 474 356 408 352 376 379 0 351 -17 382 0 375 307 376 303 385 383 0 315 -16
 383 63 0 ?385 379 394 384 0 0 290 30 384 64 0 383 395 380 0 +0.00355 -0.0023 9.
0e-04 -1.0 3.673940397441706e-16 0.0 17 385 0 390 403 315 377 382 383 0 408 +14
 386 65 388 1.0e-08 425 371 390 298 387 +0 0 425 371 296 50 387 66 0 386 426 372
 0 +0.00355 -0.0023 0.0 -3.673940397441706e-16 -1.0 0.0 0.0 0.0 1.0 81 1 388 67
 6 386 0 0 427 373 389 83 3 389 0.800000011920929 0.800000011920929 0.8000000119
20929 15 390 68 0 391 386 0 17 391 0 390 399 421 392 396 394 0 402 -18 392 69 0
 391 377 397 393 ?290 29 393 70 0 392 398 378 0.00225 -0.0023 0.0 16 394 71 0 ?3
96 383 400 395 0 0 290 30 395 72 0 394 401 384 0 +0.00225 -0.0023 0.0 0.0 0.0 1.
0 17 396 0 438 439 433 397 391 394 0 442 +18 397 73 0 421 392 404 398 ?290 29 39
8 74 0 397 405 393 0.00225 -0.0023 9.0e-05 17 399 0 390 315 391 311 402 400 0 0
 -16 400 75 0 ?402 394 406 401 0 0 290 30 401 76 0 400 407 395 0 +0.00355 -0.002
3 0.0 -1.0 3.673940397441706e-16 0.0 17 402 0 429 430 321 392 399 400 0 433 +17
 403 0 390 409 385 404 408 406 0 414 -18 404 77 0 403 397 410 405 ?290 29 405 78
 0 404 411 398 0.00225 -0.0023 8.100000000000001e-04 16 406 79 0 ?408 400 412 40
7 0 0 290 30 407 80 0 406 413 401 0 +0.00225 -0.0023 0.0 0.0 0.0 1.0 17 408 0 47
4 381 469 377 403 406 0 376 +17 409 0 390 415 403 410 414 412 0 460 -18 410 81 0
 409 404 416 411 ?290 29 411 82 0 410 417 405 0.00346 -0.0023 8.100000000000001e
-04 16 412 83 0 ?414 406 418 413 0 0 290 30 413 84 0 412 419 407 0 +0.00346 -0.0
023 8.100000000000001e-04 -1.0 3.673940397441706e-16 0.0 17 414 0 465 466 460 40
4 409 412 0 469 +17 415 0 390 421 409 416 420 418 0 0 -18 416 85 0 424 410 0 417
 ?290 29 417 86 0 416 0 411 0.00346 -0.0023 9.0e-05 16 418 87 0 ?420 412 422 419
 0 0 290 30 419 88 0 418 423 413 0 +0.00346 -0.0023 9.0e-05 0.0 0.0 1.0 17 420 0
 456 457 451 410 415 418 0 0 +17 421 0 390 391 415 397 424 422 0 396 +16 422 89
 0 ?421 418 431 423 0 0 290 30 423 90 0 422 432 419 0 +0.00346 -0.0023 9.0e-05 -
1.0 3.673940397441706e-16 0.0 17 424 0 447 448 442 416 421 422 0 451 -14 425 91
 427 1.0e-08 434 386 429 298 426 -0 0 434 386 296 50 426 92 0 425 435 387 0 +0.0
0355 0.0023 0.0 0.0 0.0 1.0 -1.0 3.673940397441706e-16 0.0 81 1 427 93 6 425 0 0
 436 388 428 83 3 428 0.800000011920929 0.800000011920929 0.800000011920929 15 4
29 94 0 402 425 0 17 430 0 429 366 402 362 433 431 0 370 -16 431 95 0 ?433 422 4
40 432 0 0 290 30 432 96 0 431 441 423 0 +0.00225 0.0023 0.0 -3.673940397441706e
-16 -1.0 0.0 17 433 0 438 396 370 392 430 431 0 0 +14 434 97 436 1.0e-08 443 425
 438 298 435 +0 0 443 425 296 50 435 98 0 434 444 426 0 +0.00225 0.0023 0.0 -1.0
 3.673940397441706e-16 0.0 0.0 0.0 1.0 81 1 436 99 6 434 0 0 445 427 437 83 3 43
7 0.800000011920929 0.800000011920929 0.800000011920929 15 438 100 0 370 434 0 1
7 439 0 438 370 396 337 442 440 0 367 +16 440 101 0 ?439 431 449 441 0 0 290 30
 441 102 0 440 450 432 0 +0.00225 0.0023 9.0e-05 3.673940397441706e-16 1.0 0.0 1
7 442 0 447 424 336 397 439 440 0 0 -14 443 103 445 1.0e-08 452 434 447 298 444
 +0 0 452 434 296 50 444 104 0 443 453 435 0 +0.00346 0.0023 9.0e-05 0.0 0.0 1.0
 -1.0 3.673940397441706e-16 0.0 81 1 445 105 6 443 0 0 454 436 446 83 3 446 0.80
0000011920929 0.800000011920929 0.800000011920929 15 447 106 0 424 443 0 17 448
 0 447 336 424 332 451 449 0 344 -16 449 107 0 ?451 440 458 450 0 0 290 30 450 1
08 0 449 459 441 0 +0.00346 0.0023 9.0e-05 -3.673940397441706e-16 -1.0 0.0 17 45
1 0 456 420 344 416 448 449 0 415 +14 452 109 454 1.0e-08 461 443 456 298 453 +0
 0 461 443 296 50 453 110 0 452 462 444 0 +0.00346 0.0023 9.0e-05 -1.0 3.6739403
97441706e-16 0.0 0.0 0.0 1.0 81 1 454 111 6 452 0 0 463 445 455 83 3 455 0.80000
0011920929 0.800000011920929 0.800000011920929 15 456 112 0 344 452 0 17 457 0 4
56 344 420 340 460 458 0 339 -16 458 113 0 ?460 449 467 459 0 0 290 30 459 114 0
 458 468 450 0 +0.00346 0.0023 8.100000000000001e-04 -3.673940397441706e-16 -1.0
 0.0 17 460 0 465 414 350 410 457 458 0 420 +14 461 115 463 1.0e-08 470 452 465
 298 462 -0 0 470 452 296 50 462 116 0 461 471 453 0 +0.00346 0.0023 8.100000000
000001e-04 0.0 0.0 1.0 -1.0 3.673940397441706e-16 0.0 81 1 463 117 6 461 0 0 472
 454 464 83 3 464 0.800000011920929 0.800000011920929 0.800000011920929 15 465 1
18 0 466 461 0 17 466 0 465 350 414 346 469 467 0 345 +16 467 119 0 ?466 458 0 4
68 0 0 290 30 468 120 0 467 0 459 0 +0.00225 0.0023 8.100000000000001e-04 3.6739
40397441706e-16 1.0 0.0 17 469 0 474 408 356 404 466 467 0 0 -14 470 121 472 1.0
e-08 0 461 474 298 471 +0 0 0 461 296 50 471 122 0 470 0 462 0 +0.00225 0.0023 0
.0 -1.0 3.673940397441706e-16 0.0 0.0 0.0 1.0 81 1 472 123 6 470 0 0 0 463 473 8
3 3 473 0.800000011920929 0.800000011920929 0.800000011920929 15 474 124 0 356 4
70 0 12 475 68 0 476 0 0 0 0 1000.0 1.0e-08 0 0 0 1 0 1 1 483 485 491 489 480 49
0 488 70 476 0 475 0 0 4 1 20 0 477 477 1 T74 20 477 1 0 478 0 0 0 0 0 0 0 0 0 0
 0 0 0 0 0 0 0 0 0 81 1 478 7 6 484 0 0 513 0 479 83 3 479 0.16078431904316 0.16
078431904316 0.16078431904316 19 480 1 0 475 482 0 481 V13 481 2 0 475 0 0 0 0 4
80 484 19 482 3 0 475 0 480 483 S13 483 4 0 475 0 484 0 0 482 0 14 484 5 478 1.0
e-08 511 0 486 483 485 -0 0 511 0 481 50 485 6 0 484 512 0 0 +-0.00225 -0.0023 8
.100000000000001e-04 1.0 -2.449293598294707e-16 0.0 0.0 0.0 1.0 15 486 8 0 487 4
84 0 17 487 0 486 495 507 488 492 490 0 565 +18 488 9 0 500 0 493 489 ?475 29 48
9 10 0 488 494 0 -0.00225 0.0023 9.0e-04 16 490 11 0 ?487 0 498 491 0 0 475 30 4
91 12 0 490 499 0 0 +-0.00225 -0.0023 9.0e-04 2.449293598294707e-16 1.0 0.0 17 4
92 0 575 548 565 493 487 490 0 545 -18 493 13 0 507 488 496 494 ?475 29 494 14 0
 493 497 489 -0.00225 -0.0023 9.0e-04 17 495 0 486 501 487 496 500 498 0 558 -18
 496 15 0 506 493 502 497 ?475 29 497 16 0 496 503 494 -0.00225 0.0023 8.1000000
00000001e-04 16 498 17 0 ?500 490 504 499 0 0 475 30 499 18 0 498 505 491 0 +-0.
00225 0.0023 8.100000000000001e-04 0.0 0.0 1.0 17 500 0 557 562 558 488 495 498
 0 487 +17 501 0 486 507 495 502 506 504 0 552 -18 502 19 0 510 496 517 503 ?475
 29 503 20 0 502 518 497 -0.00225 -0.0023 8.100000000000001e-04 16 504 21 0 ?506
 498 508 505 0 0 475 30 505 22 0 504 509 499 0 +-0.00225 -0.0023 8.1000000000000
01e-04 2.449293598294707e-16 1.0 0.0 17 506 0 570 561 552 496 501 504 0 495 +17
 507 0 486 487 501 493 510 508 0 492 +16 508 23 0 ?507 504 519 509 0 0 475 30 50
9 24 0 508 520 505 0 +-0.00225 -0.0023 8.100000000000001e-04 0.0 0.0 1.0 17 510
 0 544 549 545 502 507 508 0 501 -14 511 25 513 1.0e-08 540 484 515 483 512 +0 0
 540 484 481 50 512 26 0 511 541 485 0 +0.00225 -0.0023 8.100000000000001e-04 1.
0 -2.449293598294707e-16 0.0 0.0 0.0 1.0 81 1 513 27 6 511 0 0 542 478 514 83 3
 514 0.16078431904316 0.16078431904316 0.16078431904316 15 515 28 0 516 511 0 17
 516 0 515 524 536 517 521 519 0 529 -18 517 29 0 516 502 522 518 ?475 29 518 30
 0 517 523 503 0.00225 -0.0023 8.100000000000001e-04 16 519 31 0 ?521 508 527 52
0 0 0 475 30 520 32 0 519 528 509 0 +0.00225 -0.0023 8.100000000000001e-04 0.0 0
.0 1.0 17 521 0 544 545 549 522 516 519 0 536 +18 522 33 0 521 517 525 523 ?475
 29 523 34 0 522 526 518 0.00225 -0.0023 9.0e-04 17 524 0 515 530 516 525 529 52
7 0 535 +18 525 35 0 524 522 531 526 ?475 29 526 36 0 525 532 523 0.00225 0.0023
 8.100000000000001e-04 16 527 37 0 ?524 519 533 528 0 0 475 30 528 38 0 527 534
 520 0 +0.00225 -0.0023 8.100000000000001e-04 2.449293598294707e-16 1.0 0.0 17 5
29 0 570 552 561 517 524 527 0 549 -17 530 0 515 536 524 531 535 533 0 539 +18 5
31 39 0 530 525 0 532 ?475 29 532 40 0 531 0 526 0.00225 0.0023 9.0e-04 16 533 4
1 0 ?530 527 537 534 0 0 475 30 534 42 0 533 538 528 0 +0.00225 0.0023 8.1000000
00000001e-04 0.0 0.0 1.0 17 535 0 557 558 562 525 530 533 0 561 -17 536 0 515 51
6 530 522 539 537 0 548 -16 537 43 0 ?539 533 546 538 0 0 475 30 538 44 0 537 54
7 534 0 +0.00225 -0.0023 9.0e-04 2.449293598294707e-16 1.0 0.0 17 539 0 575 565
 548 531 536 537 0 562 +14 540 45 542 1.0e-08 553 511 544 483 541 -0 0 553 511 4
81 50 541 46 0 540 554 512 0 +-0.00225 -0.0023 8.100000000000001e-04 2.449293598
294707e-16 1.0 0.0 0.0 0.0 1.0 81 1 542 47 6 540 0 0 555 513 543 83 3 543 0.1607
8431904316 0.16078431904316 0.16078431904316 15 544 48 0 521 540 0 17 545 0 544
 510 521 493 548 546 0 0 -16 546 49 0 ?548 537 550 547 0 0 475 30 547 50 0 546 5
51 538 0 +-0.00225 -0.0023 9.0e-04 1.0 -2.449293598294707e-16 0.0 17 548 0 575 5
39 492 522 545 546 0 0 +17 549 0 544 521 510 517 552 550 0 0 +16 550 51 0 ?549 5
46 559 551 0 0 475 30 551 52 0 550 560 547 0 +-0.00225 -0.0023 8.100000000000001
e-04 1.0 -2.449293598294707e-16 0.0 17 552 0 570 506 529 502 549 550 0 0 -14 553
 53 555 1.0e-08 566 540 557 483 554 +0 0 566 540 481 50 554 54 0 553 567 541 0 +
-0.00225 0.0023 8.100000000000001e-04 2.449293598294707e-16 1.0 0.0 0.0 0.0 1.0
 81 1 555 55 6 553 0 0 568 542 556 83 3 556 0.16078431904316 0.16078431904316 0.
16078431904316 15 557 56 0 558 553 0 17 558 0 557 500 535 496 561 559 0 0 -16 55
9 57 0 ?561 550 563 560 0 0 475 30 560 58 0 559 564 551 0 +-0.00225 0.0023 8.100
000000000001e-04 1.0 -2.449293598294707e-16 0.0 17 561 0 570 529 506 525 558 559
 0 0 +17 562 0 557 535 500 531 565 563 0 0 +16 563 59 0 ?562 559 0 564 0 0 475 3
0 564 60 0 563 0 560 0 +-0.00225 0.0023 9.0e-04 1.0 -2.449293598294707e-16 0.0 1
7 565 0 575 492 539 488 562 563 0 0 -14 566 61 568 1.0e-08 571 553 570 483 567 -
0 0 571 553 481 50 567 62 0 566 572 554 0 +-0.00225 -0.0023 8.100000000000001e-0
4 0.0 0.0 1.0 1.0 -2.449293598294707e-16 0.0 81 1 568 63 6 566 0 0 573 555 569 8
3 3 569 0.16078431904316 0.16078431904316 0.16078431904316 15 570 64 0 561 566 0
 14 571 65 573 1.0e-08 0 566 575 483 572 +0 0 0 566 481 50 572 66 0 571 0 567 0
 +-0.00225 -0.0023 9.0e-04 0.0 0.0 1.0 1.0 -2.449293598294707e-16 0.0 81 1 573 6
7 6 571 0 0 0 568 574 83 3 574 0.16078431904316 0.16078431904316 0.1607843190431
6 15 575 68 0 492 571 0 1 0 
