**ABCDEFGHIJKLMNOPQRSTUVWXYZabcdefghijklmnopqrstuvwxyz**************************
**PARASOLID !"#$%&'()*+,-./:;<=>?@[\]^_`{|}~0123456789**************************
**PART1;
MC=AMD64;
MC_MODEL=Intel64 Family 6 Model 154 Stepping 3, GenuineIntel;
MC_ID=unknown;
OS=Windows_NT;
OS_RELEASE=unknown;
FRU=CAD Exchanger 3.23.0 (cadexchanger.com);
APPL=unknown;
SITE=unknown;
USER=unknown;
FORMAT=text;
GUISE=transmit;
KEY=RESC1608-IPC-LL_CMP-009-00203-1;
FILE=RESC1608-IPC-LL_CMP-009-00203-1.x_t;
DATE=Sun Sep  7 20:42:47 2025;
**PART2;
SCH=SCH_1200000_12103;
USFLD_SIZE=0;
**PART3;
**END_OF_HEADER*****************************************************************
T51 : TRANSMIT FILE created by modeller version 120000017 SCH_1200000_121030 74
 4 1 4 0 2 105 206 475 12 2 68 0 3 0 0 0 0 1000.0 1.0e-08 0 0 0 1 0 1 1 12 14 20
 18 9 19 17 70 3 0 2 0 0 4 1 20 0 4 4 1 T74 20 4 1 0 5 0 0 0 0 0 0 0 0 0 0 0 0 0
 0 0 0 0 0 0 81 1 5 7 6 13 0 0 42 0 8 80 1 6 0 7 8001 0 0 0 0 3 5 0 0 0 FFFFTFTF
FFFFFF2 79 15 7 SDL/TYSA_COLOUR83 3 8 0.843137264251709 0.815686285495758 0.7529
41191196442 19 9 1 0 2 11 0 10 V13 10 2 0 2 0 0 0 0 9 13 19 11 3 0 2 0 9 12 S13
 12 4 0 2 0 13 0 0 11 0 14 13 5 5 1.0e-08 40 0 15 12 14 -0 0 40 0 10 50 14 6 0 1
3 41 0 0 +-7.499187199999998e-04 4.000812800000002e-04 4.0e-04 1.0 -2.4492935982
94707e-16 0.0 2.449293598294707e-16 1.0 -6.123233995736766e-17 15 15 8 0 16 13 0
 17 16 0 15 24 36 17 21 19 0 29 +18 17 9 0 16 0 22 18 ?2 29 18 10 0 17 23 0 -7.4
99187199999998e-04 4.000812800000002e-04 5.0e-05 16 19 11 0 ?16 0 27 20 0 0 2 30
 20 12 0 19 28 0 0 +-7.499187199999998e-04 4.000812800000002e-04 4.0e-04 -1.4997
59782661858e-32 -6.123233995736766e-17 -1.0 17 21 0 86 91 87 22 16 19 0 36 -18 2
2 13 0 21 17 25 23 ?2 29 23 14 0 22 26 18 -7.499187199999998e-04 4.0008128000000
02e-04 4.0e-04 17 24 0 15 30 16 25 29 27 0 35 +18 25 15 0 24 22 31 26 ?2 29 26 1
6 0 25 32 23 -7.4991872e-04 -3.999187199999999e-04 5.000000000000003e-05 16 27 1
7 0 ?24 19 33 28 0 0 2 30 28 18 0 27 34 20 0 +-7.499187199999998e-04 4.000812800
000003e-04 4.999999999999997e-05 -2.449293598294707e-16 -1.0 6.123233995736766e-
17 17 29 0 104 90 50 17 24 27 0 87 -17 30 0 15 36 24 31 35 33 0 0 -18 31 19 0 57
 25 46 32 ?2 29 32 20 0 31 47 26 -7.4991872e-04 -3.999187199999999e-04 4.0e-04 1
6 33 21 0 ?35 27 37 34 0 0 2 30 34 22 0 33 38 28 0 +-7.4991872e-04 -3.9991871999
99999e-04 4.0e-04 -1.499759782661858e-32 -6.123233995736766e-17 -1.0 17 35 0 44
 45 57 25 30 33 0 50 +17 36 0 15 16 30 22 39 37 0 94 -16 37 23 0 ?39 33 48 38 0
 0 2 30 38 24 0 37 49 34 0 +-7.499187199999998e-04 4.000812800000002e-04 4.0e-04
 -2.449293598294707e-16 -1.0 6.123233995736766e-17 17 39 0 99 60 94 31 36 37 0 3
0 +14 40 25 42 1.0e-08 61 13 44 12 41 -0 0 61 13 10 50 41 26 0 40 62 14 0 +7.500
8128e-04 -3.999187200000001e-04 4.0e-04 1.003690701647367e-16 1.0 -6.12323399573
6766e-17 -1.0 1.003690701647367e-16 8.85176480108653e-33 81 1 42 27 6 40 0 0 63
 5 43 83 3 43 0.843137264251709 0.815686285495758 0.752941191196442 15 44 28 0 3
5 40 0 17 45 0 44 51 35 46 50 48 0 56 -18 46 29 0 71 31 52 47 ?2 29 47 30 0 46 5
3 32 7.5008128e-04 -3.999187200000002e-04 5.000000000000003e-05 16 48 31 0 ?50 3
7 54 49 0 0 2 30 49 32 0 48 55 38 0 +-7.4991872e-04 -3.999187199999999e-04 5.000
000000000003e-05 -1.0 2.449293598294707e-16 0.0 17 50 0 104 29 71 25 45 48 0 0 +
17 51 0 44 57 45 52 56 54 0 0 -18 52 33 0 60 46 67 53 ?2 29 53 34 0 52 68 47 7.5
008128e-04 -3.999187200000001e-04 4.0e-04 16 54 35 0 ?56 48 58 55 0 0 2 30 55 36
 0 54 59 49 0 +7.5008128e-04 -3.999187200000001e-04 4.0e-04 -1.499759782661858e-
32 -6.123233995736766e-17 -1.0 17 56 0 65 66 78 46 51 54 0 0 +17 57 0 44 35 51 3
1 60 58 0 39 -16 58 37 0 ?60 54 69 59 0 0 2 30 59 38 0 58 70 55 0 +7.5008128e-04
 -3.999187200000001e-04 4.0e-04 1.0 -1.003690701647367e-16 -8.85176480108653e-33
 17 60 0 99 81 39 52 57 58 0 78 +14 61 39 63 1.0e-08 82 40 65 12 62 -0 0 82 40 1
0 50 62 40 0 61 83 41 0 +7.500812800000002e-04 4.0008128e-04 4.0e-04 -1.0 1.0940
40882687826e-16 8.298529501018622e-33 -1.094040882687826e-16 -1.0 6.123233995736
766e-17 81 1 63 41 6 61 0 0 84 42 64 83 3 64 0.843137264251709 0.815686285495758
 0.752941191196442 15 65 42 0 56 61 0 17 66 0 65 72 56 67 71 69 0 90 -18 67 43 0
 77 52 73 68 ?2 29 68 44 0 67 74 53 7.500812800000003e-04 4.000812799999999e-04
 4.999999999999997e-05 16 69 45 0 ?71 58 75 70 0 0 2 30 70 46 0 69 76 59 0 +7.50
0812800000003e-04 4.000812799999999e-04 4.999999999999997e-05 -2.449293598294707
e-16 -1.0 6.123233995736766e-17 17 71 0 104 50 90 46 66 69 0 45 +17 72 0 65 78 6
6 73 77 75 0 91 -18 73 47 0 81 67 0 74 ?2 29 74 48 0 73 0 68 7.500812800000002e-
04 4.000812799999999e-04 4.0e-04 16 75 49 0 ?77 69 79 76 0 0 2 30 76 50 0 75 80
 70 0 +7.500812800000002e-04 4.000812799999999e-04 4.0e-04 -1.499759782661858e-3
2 -6.123233995736766e-17 -1.0 17 77 0 86 87 91 67 72 75 0 66 +17 78 0 65 56 72 5
2 81 79 0 51 -16 79 51 0 ?81 75 88 80 0 0 2 30 80 52 0 79 89 76 0 +7.50081280000
0002e-04 4.000812799999999e-04 4.0e-04 1.094040882687826e-16 1.0 -6.123233995736
766e-17 17 81 0 99 94 60 73 78 79 0 72 +14 82 53 84 1.0e-08 95 61 86 12 83 -0 0
 95 61 10 50 83 54 0 82 96 62 0 +7.500812800000002e-04 4.0008128e-04 4.0e-04 -1.
365091425809202e-16 -1.0 6.123233995736766e-17 1.0 -1.365091425809202e-16 -6.638
823600814898e-33 81 1 84 55 6 82 0 0 97 63 85 83 3 85 0.843137264251709 0.815686
285495758 0.752941191196442 15 86 56 0 77 82 0 17 87 0 86 21 77 17 90 88 0 0 +16
 88 57 0 ?87 79 92 89 0 0 2 30 89 58 0 88 93 80 0 +-7.499187199999998e-04 4.0008
12800000003e-04 4.999999999999997e-05 -1.0 2.449293598294707e-16 0.0 17 90 0 104
 71 29 67 87 88 0 0 -17 91 0 86 77 21 73 94 92 0 0 -16 92 59 0 ?94 88 0 93 0 0 2
 30 93 60 0 92 0 89 0 +7.500812800000002e-04 4.000812799999999e-04 4.0e-04 -1.0
 1.365091425809202e-16 6.638823600814898e-33 17 94 0 99 39 81 22 91 92 0 0 +14 9
5 61 97 1.0e-08 100 82 99 12 96 -0 0 100 82 10 50 96 62 0 95 101 83 0 +-7.499187
2e-04 -3.999187199999999e-04 4.0e-04 -1.499759782661858e-32 -6.123233995736766e-
17 -1.0 2.449293598294707e-16 1.0 -6.123233995736766e-17 81 1 97 63 6 95 0 0 102
 84 98 83 3 98 0.843137264251709 0.815686285495758 0.752941191196442 15 99 64 0
 60 95 0 14 100 65 102 1.0e-08 0 95 104 12 101 -0 0 0 95 10 50 101 66 0 100 0 96
 0 +-7.499187199999998e-04 4.000812800000003e-04 4.999999999999997e-05 1.4997597
82661858e-32 6.123233995736766e-17 1.0 -2.449293598294707e-16 -1.0 6.12323399573
6766e-17 81 1 102 67 6 100 0 0 0 97 103 83 3 103 0.843137264251709 0.81568628549
5758 0.752941191196442 15 104 68 0 50 100 0 12 105 68 0 106 0 0 0 0 1000.0 1.0e-
08 0 0 0 1 0 1 1 113 115 121 119 110 120 118 70 106 0 105 0 0 4 1 20 0 107 107 1
 T74 20 107 1 0 108 0 0 0 0 0 0 0 0 0 0 0 0 0 0 0 0 0 0 0 81 1 108 7 6 114 0 0 1
43 0 109 83 3 109 0.098039217293262 0.098039217293262 0.098039217293262 19 110 1
 0 105 112 0 111 V13 111 2 0 105 0 0 0 0 110 114 19 112 3 0 105 0 110 113 S13 11
3 4 0 105 0 114 0 0 112 0 14 114 5 108 1.0e-08 141 0 116 113 115 -0 0 141 0 111
 50 115 6 0 114 142 0 0 +0.001301642257094 -3.999187200000006e-04 4.500000000000
039e-04 3.804546313901586e-16 1.0 -6.123233995736737e-17 -1.0 3.804546313901586e
-16 -8.298529501018619e-33 15 116 8 0 117 114 0 17 117 0 116 125 137 118 122 120
 0 130 -18 118 9 0 117 0 123 119 ?105 29 119 10 0 118 124 0 5.000812799999999e-0
4 -3.999187200000004e-04 4.500000000000022e-04 16 120 11 0 ?122 0 128 121 0 0 10
5 30 121 12 0 120 129 0 0 +5.000812799999999e-04 -3.999187200000003e-04 4.500000
000000057e-04 -2.168404344971004e-15 -6.123233995736654e-17 -1.0 17 122 0 205 14
9 191 123 117 120 0 137 +18 123 13 0 122 118 126 124 ?105 29 124 14 0 123 127 11
9 5.000812799999996e-04 -3.999187200000003e-04 4.000000000000022e-04 17 125 0 11
6 131 117 126 130 128 0 192 +18 126 15 0 125 123 132 127 ?105 29 127 16 0 126 13
3 124 -4.999187200000001e-04 -3.999187199999999e-04 4.5e-04 16 128 17 0 ?125 120
 134 129 0 0 105 30 129 18 0 128 135 121 0 +0.001301642257094 -3.999187200000006
e-04 4.500000000000039e-04 -1.0 3.804546313901585e-16 -2.168404344971004e-15 17
 130 0 187 188 192 118 125 128 0 191 -17 131 0 116 137 125 132 136 134 0 157 +18
 132 19 0 140 126 150 133 ?105 29 133 20 0 132 151 127 -4.9991872e-04 -3.9991871
99999999e-04 4.0e-04 16 134 21 0 ?131 128 138 135 0 0 105 30 135 22 0 134 139 12
9 0 +-4.999187200000001e-04 -3.999187199999999e-04 4.5e-04 2.168404344971008e-15
 -6.123233995736819e-17 -1.0 17 136 0 200 195 157 126 131 134 0 0 -17 137 0 116
 117 131 123 140 138 0 146 -16 138 23 0 ?140 134 147 139 0 0 105 30 139 24 0 138
 148 135 0 +0.001301642257094 -3.999187200000006e-04 4.000000000000039e-04 -1.0
 3.804546313901585e-16 -2.168404344971004e-15 17 140 0 145 152 146 132 137 138 0
 131 +14 141 25 143 1.0e-08 162 114 145 113 142 -0 0 162 114 111 50 142 26 0 141
 163 115 0 +0.001301642257094 -3.999187200000006e-04 4.000000000000039e-04 -2.16
8404344971004e-15 6.123233995736848e-17 1.0 -1.0 2.449293598294705e-16 -2.168404
344971004e-15 81 1 143 27 6 141 0 0 164 108 144 83 3 144 0.098039217293262 0.098
039217293262 0.098039217293262 15 145 28 0 146 141 0 17 146 0 145 140 158 123 14
9 147 0 0 -16 147 29 0 ?149 138 155 148 0 0 105 30 148 30 0 147 156 139 0 +5.000
812799999998e-04 -3.999187200000007e-04 4.000000000000022e-04 -1.797164910606852
e-16 1.0 -6.123233995736888e-17 17 149 0 205 170 122 150 146 147 0 167 +18 150 3
1 0 158 132 153 151 ?105 29 151 32 0 150 154 133 5.000812799999996e-04 4.0008127
99999999e-04 4.000000000000022e-04 17 152 0 145 158 140 153 157 155 0 178 +18 15
3 33 0 161 150 171 154 ?105 29 154 34 0 153 172 151 -4.999187199999996e-04 4.000
812800000004e-04 4.0e-04 16 155 35 0 ?152 147 159 156 0 0 105 30 156 36 0 155 16
0 148 0 +-4.9991872e-04 -3.999187199999999e-04 4.0e-04 3.804546313901586e-16 1.0
 -6.123233995736766e-17 17 157 0 200 136 178 132 152 155 0 0 -17 158 0 145 146 1
52 150 161 159 0 149 -16 159 37 0 ?161 155 168 160 0 0 105 30 160 38 0 159 169 1
56 0 +0.001301642257094 4.000812799999997e-04 4.000000000000039e-04 -1.0 3.80454
6313901585e-16 -2.168404344971004e-15 17 161 0 166 173 167 153 158 159 0 152 +14
 162 39 164 1.0e-08 183 141 166 113 163 -0 0 183 141 111 50 163 40 0 162 184 142
 0 +0.001301642257094 4.000812799999997e-04 4.500000000000039e-04 -3.80454631390
1586e-16 -1.0 6.123233995736766e-17 1.0 -3.804546313901586e-16 8.298529501018619
e-33 81 1 164 41 6 162 0 0 185 143 165 83 3 165 0.098039217293262 0.098039217293
262 0.098039217293262 15 166 42 0 167 162 0 17 167 0 166 161 179 150 170 168 0 0
 -16 168 43 0 ?170 159 176 169 0 0 105 30 169 44 0 168 177 160 0 +5.000812799999
998e-04 4.000812799999999e-04 4.500000000000057e-04 2.168404344971004e-15 6.1232
33995736683e-17 1.0 17 170 0 205 191 149 171 167 168 0 0 +18 171 45 0 179 153 17
4 172 ?105 29 172 46 0 171 175 154 5.000812799999999e-04 4.000812799999999e-04 4
.500000000000022e-04 17 173 0 166 179 161 174 178 176 0 0 +18 174 47 0 182 171 0
 175 ?105 29 175 48 0 174 0 172 -4.999187199999996e-04 4.000812800000004e-04 4.5
e-04 16 176 49 0 ?173 168 180 177 0 0 105 30 177 50 0 176 181 169 0 +-4.99918719
9999996e-04 4.000812800000004e-04 4.5e-04 1.499759782661858e-32 6.12323399573676
6e-17 1.0 17 178 0 200 157 195 153 173 176 0 0 -17 179 0 166 167 173 171 182 180
 0 188 -16 180 51 0 ?182 176 189 181 0 0 105 30 181 52 0 180 190 177 0 +0.001301
642257094 4.000812799999997e-04 4.500000000000039e-04 -1.0 3.804546313901585e-16
 -2.168404344971004e-15 17 182 0 187 192 188 174 179 180 0 195 +14 183 53 185 1.
0e-08 196 162 187 113 184 -0 0 196 162 111 50 184 54 0 183 197 163 0 +0.00130164
2257094 -3.999187200000006e-04 4.500000000000039e-04 2.168404344971004e-15 -6.12
3233995736878e-17 -1.0 1.0 -2.449293598294705e-16 2.168404344971004e-15 81 1 185
 55 6 183 0 0 198 164 186 83 3 186 0.098039217293262 0.098039217293262 0.0980392
17293262 15 187 56 0 188 183 0 17 188 0 187 182 130 171 191 189 0 170 -16 189 57
 0 ?191 180 193 190 0 0 105 30 190 58 0 189 194 181 0 +5.000812799999999e-04 -3.
999187200000007e-04 4.500000000000022e-04 1.797164910606852e-16 -1.0 6.123233995
736917e-17 17 191 0 205 122 170 118 188 189 0 0 +17 192 0 187 130 182 126 195 19
3 0 136 +16 193 59 0 ?192 189 0 194 0 0 105 30 194 60 0 193 0 190 0 +-4.99918720
0000001e-04 -3.999187199999999e-04 4.5e-04 -5.159799029508467e-16 -1.0 6.1232339
95736766e-17 17 195 0 200 178 136 174 192 193 0 173 -14 196 61 198 1.0e-08 201 1
83 200 113 197 -0 0 201 183 111 50 197 62 0 196 202 184 0 +-4.9991872e-04 -3.999
187199999999e-04 4.0e-04 1.0 -3.804546313901585e-16 2.168404344971008e-15 -2.168
404344971008e-15 6.123233995736819e-17 1.0 81 1 198 63 6 196 0 0 203 185 199 83
 3 199 0.098039217293262 0.098039217293262 0.098039217293262 15 200 64 0 178 196
 0 14 201 65 203 1.0e-08 0 196 205 113 202 +0 0 0 196 111 50 202 66 0 201 0 197
 0 +5.000812799999999e-04 -3.9991872e-04 4.500000000000001e-04 1.0 1.79716491060
6851e-16 -2.168404344971004e-15 -2.168404344971004e-15 -6.123233995736776e-17 -1
.0 81 1 203 67 6 201 0 0 0 198 204 83 3 204 0.098039217293262 0.098039217293262
 0.098039217293262 15 205 68 0 191 201 0 12 206 180 0 207 0 0 0 0 1000.0 1.0e-08
 0 0 0 1 0 1 1 214 216 222 220 211 221 219 70 207 0 206 0 0 4 1 20 0 208 208 1 T
74 20 208 1 0 209 0 0 0 0 0 0 0 0 0 0 0 0 0 0 0 0 0 0 0 81 1 209 7 6 215 0 0 244
 0 210 83 3 210 0.898039221763611 0.917647063732147 0.929411768913269 19 211 1 0
 206 213 0 212 V13 212 2 0 206 0 0 0 0 211 215 19 213 3 0 206 0 211 214 S13 214
 4 0 206 0 215 0 0 213 0 14 215 5 209 1.0e-08 242 0 217 214 216 -0 0 242 0 212 5
0 216 6 0 215 243 0 0 +-7.499187200000001e-04 4.000812800000005e-04 4.9999999999
99983e-05 1.242314989306307e-16 -1.967576115180557e-16 -1.0 2.449293598294707e-1
6 1.0 -1.967576115180557e-16 15 217 8 0 218 215 0 17 218 0 217 226 238 219 223 2
21 0 231 -18 219 9 0 218 0 224 220 ?206 29 220 10 0 219 225 0 -4.999187199999997
e-04 4.000812800000003e-04 5.000000000000029e-05 16 221 11 0 ?223 0 229 222 0 0
 206 30 222 12 0 221 230 0 0 +-4.999187199999997e-04 4.000812800000004e-04 4.999
999999999987e-05 -2.449293598294707e-16 -1.0 1.967576115180557e-16 17 223 0 446
 428 376 224 218 221 0 238 +18 224 13 0 223 219 227 225 ?206 29 225 14 0 224 228
 220 -4.9991872e-04 -3.999187199999998e-04 5.000000000000003e-05 17 226 0 217 23
2 218 227 231 229 0 237 -18 227 15 0 287 224 233 228 ?206 29 228 16 0 227 234 22
5 -7.4991872e-04 4.000812800000004e-04 5.000000000000016e-05 16 229 17 0 ?231 22
1 235 230 0 0 206 30 230 18 0 229 236 222 0 +-7.4991872e-04 4.000812800000004e-0
4 5.000000000000016e-05 1.0 -2.449293598294707e-16 1.242314989306307e-16 17 231
 0 362 373 287 219 226 229 0 376 +17 232 0 217 238 226 233 237 235 0 241 -18 233
 19 0 232 227 248 234 ?206 29 234 20 0 233 249 228 -7.499187200000001e-04 -3.999
187199999998e-04 5.000000000000028e-05 16 235 21 0 ?237 229 239 236 0 0 206 30 2
36 22 0 235 240 230 0 +-7.499187200000001e-04 4.000812800000005e-04 4.9999999999
99982e-05 1.094040882687825e-16 1.0 -1.967576115180557e-16 17 237 0 275 282 276
 227 232 235 0 0 +17 238 0 217 218 232 224 241 239 0 425 +16 239 23 0 ?238 235 2
50 240 0 0 206 30 240 24 0 239 251 236 0 +-7.499187200000001e-04 -3.999187199999
998e-04 5.000000000000028e-05 1.0 -2.449293598294707e-16 1.242314989306307e-16 1
7 241 0 420 279 425 233 238 239 0 276 -14 242 25 244 1.0e-08 271 215 246 214 243
 -0 0 271 215 212 50 243 26 0 242 272 216 0 +-7.999187200000002e-04 -3.999187199
999998e-04 -1.381373898898786e-19 -1.242314989306307e-16 6.123233995736769e-17 1
.0 -1.0 2.449293598294707e-16 -1.242314989306307e-16 81 1 244 27 6 242 0 0 273 2
09 245 83 3 245 0.898039221763611 0.917647063732147 0.929411768913269 15 246 28
 0 247 242 0 17 247 0 246 255 267 248 252 250 0 260 -18 248 29 0 428 233 253 249
 ?206 29 249 30 0 248 254 234 -4.9991872e-04 -3.999187199999999e-04 -7.376288589
855172e-20 16 250 31 0 ?252 239 258 251 0 0 206 30 251 32 0 250 259 240 0 +-4.99
91872e-04 -3.999187199999999e-04 -1.008679402106894e-19 2.449293598294707e-16 1.
0 -6.123233995736766e-17 17 252 0 446 376 428 253 247 250 0 373 +18 253 33 0 252
 248 256 254 ?206 29 254 34 0 253 257 249 -4.999187199999997e-04 4.0008128000000
02e-04 -1.498538121765835e-19 17 255 0 246 261 247 256 260 258 0 266 -18 256 35
 0 308 253 262 257 ?206 29 257 36 0 256 263 254 -7.999187200000004e-04 -3.999187
199999998e-04 -1.11032335577741e-19 16 258 37 0 ?260 250 264 259 0 0 206 30 259
 38 0 258 265 251 0 +-7.999187200000004e-04 -3.999187199999998e-04 -1.1103233557
7741e-19 1.0 -2.449293598294707e-16 1.242314989306307e-16 17 260 0 420 425 308 2
48 255 258 0 0 +17 261 0 246 267 255 262 266 264 0 0 -18 262 39 0 297 256 280 26
3 ?206 29 263 40 0 262 281 257 -7.9991872e-04 4.000812800000004e-04 -1.871232618
557727e-19 16 264 41 0 ?266 258 268 265 0 0 206 30 265 42 0 264 269 259 0 +-7.99
9187200000002e-04 -3.999187199999998e-04 -1.381373898898786e-19 -2.4492935982947
07e-16 -1.0 6.123233995736766e-17 17 266 0 296 303 297 256 261 264 0 0 +17 267 0
 246 247 261 253 270 268 0 0 +16 268 43 0 ?267 264 277 269 0 0 206 30 269 44 0 2
68 278 265 0 +-7.9991872e-04 4.000812800000004e-04 -1.871232618557727e-19 1.0 -2
.449293598294707e-16 1.242314989306307e-16 17 270 0 362 300 373 262 267 268 0 26
1 -14 271 45 273 1.0e-08 292 242 275 214 272 +0 0 292 242 212 50 272 46 0 271 29
3 243 0 +-7.4991872e-04 4.000812800000006e-04 4.0e-04 1.0 -1.094040882687826e-16
 -2.409338161078899e-16 2.409338161078899e-16 6.12323399573676e-17 1.0 81 1 273
 47 6 271 0 0 294 244 274 83 3 274 0.898039221763611 0.917647063732147 0.9294117
68913269 15 275 48 0 276 271 0 17 276 0 275 237 288 233 279 277 0 0 +16 277 49 0
 ?276 268 285 278 0 0 206 30 278 50 0 277 286 269 0 +-7.4991872e-04 -3.999187199
999998e-04 4.0e-04 -2.409338161078899e-16 -6.12323399573676e-17 -1.0 17 279 0 42
0 341 241 280 276 277 0 0 -18 280 51 0 288 262 283 281 ?206 29 281 52 0 280 284
 263 -7.4991872e-04 -3.999187199999998e-04 4.0e-04 17 282 0 275 288 237 283 287
 285 0 291 -18 283 53 0 347 280 301 284 ?206 29 284 54 0 283 302 281 -7.4991872e
-04 4.000812800000005e-04 4.000000000000001e-04 16 285 55 0 ?287 277 289 286 0 0
 206 30 286 56 0 285 290 278 0 +-7.4991872e-04 4.000812800000005e-04 4.000000000
000001e-04 -2.409338161078899e-16 -6.12323399573676e-17 -1.0 17 287 0 362 231 34
7 227 282 285 0 226 +17 288 0 275 276 282 280 291 289 0 338 +16 289 57 0 ?288 28
5 298 290 0 0 206 30 290 58 0 289 299 286 0 +-7.4991872e-04 4.000812800000006e-0
4 4.0e-04 -1.094040882687826e-16 -1.0 -7.429293160332037e-17 17 291 0 317 342 33
8 283 288 289 0 0 -14 292 59 294 1.0e-08 313 271 296 214 293 +0 0 313 271 212 50
 293 60 0 292 314 272 0 +-7.999187200000001e-04 -3.999187199999998e-04 4.5000000
00000001e-04 -1.0 2.449293598294707e-16 2.409338161078899e-16 -2.409338161078899
e-16 -6.12323399573676e-17 -1.0 81 1 294 61 6 292 0 0 315 273 295 83 3 295 0.898
039221763611 0.917647063732147 0.929411768913269 15 296 62 0 297 292 0 17 297 0
 296 266 309 262 300 298 0 270 +16 298 63 0 ?297 289 306 299 0 0 206 30 299 64 0
 298 307 290 0 +-7.999187199999999e-04 4.000812800000004e-04 4.5e-04 -2.40933816
1078899e-16 -6.12323399573676e-17 -1.0 17 300 0 362 363 270 301 297 298 0 368 -1
8 301 65 0 309 283 304 302 ?206 29 302 66 0 301 305 284 -7.999187199999999e-04 4
.000812800000004e-04 4.5e-04 17 303 0 296 309 266 304 308 306 0 415 -18 304 67 0
 312 301 319 305 ?206 29 305 68 0 304 320 302 -7.999187200000001e-04 -3.99918719
9999998e-04 4.5e-04 16 306 69 0 ?308 298 310 307 0 0 206 30 307 70 0 306 311 299
 0 +-7.999187200000001e-04 -3.999187199999998e-04 4.5e-04 -2.409338161078899e-16
 -6.12323399573676e-17 -1.0 17 308 0 420 260 415 256 303 306 0 255 +17 309 0 296
 297 303 301 312 310 0 300 +16 310 71 0 ?309 306 321 311 0 0 206 30 311 72 0 310
 322 307 0 +-7.999187200000001e-04 -3.999187199999998e-04 4.5e-04 2.449293598294
707e-16 1.0 -6.123233995736766e-17 17 312 0 381 412 368 304 309 310 0 303 -14 31
3 73 315 1.0e-08 358 292 317 214 314 -0 0 358 292 212 50 314 74 0 313 359 293 0
 +-0.001576479697094 4.000812800000006e-04 4.0e-04 -1.819652017745591e-32 -7.429
293160332037e-17 1.0 -2.449293598294707e-16 -1.0 -7.429293160332037e-17 81 1 315
 75 6 313 0 0 360 294 316 83 3 316 0.898039221763611 0.917647063732147 0.9294117
68913269 15 317 76 0 318 313 0 17 318 0 317 326 354 319 323 321 0 434 +18 319 77
 0 331 304 324 320 ?206 29 320 78 0 319 325 305 -4.999187199999999e-04 -2.999187
199999999e-04 3.999999999999999e-04 16 321 79 0 ?318 310 329 322 0 0 206 30 322
 80 0 321 330 311 0 +-4.999187199999997e-04 4.000812800000004e-04 4.0e-04 -1.094
040882687826e-16 -1.0 -7.429293160332037e-17 17 323 0 433 438 434 324 318 321 0
 354 -18 324 81 0 323 319 327 325 ?206 29 325 82 0 324 328 320 -4.99918719999999
6e-04 3.000812800000005e-04 3.999999999999999e-04 17 326 0 317 332 318 327 331 3
29 0 466 -18 327 83 0 337 324 333 328 ?206 29 328 84 0 327 334 325 -6.7991872e-0
4 -2.999187199999999e-04 3.999999999999999e-04 16 329 85 0 ?331 321 335 330 0 0
 206 30 330 86 0 329 336 322 0 +-4.9991872e-04 -2.999187199999999e-04 3.99999999
9999999e-04 1.0 -2.449293598294707e-16 0.0 17 331 0 465 437 466 319 326 329 0 31
8 +17 332 0 317 338 326 333 337 335 0 341 -18 333 87 0 332 327 343 334 ?206 29 3
34 88 0 333 344 328 -6.7991872e-04 -3.999187199999999e-04 4.0e-04 16 335 89 0 ?3
37 329 339 336 0 0 206 30 336 90 0 335 340 330 0 +-6.7991872e-04 -3.999187199999
999e-04 3.999999999999999e-04 2.449293598294707e-16 1.0 7.429293160332037e-17 17
 337 0 474 469 424 327 332 335 0 326 +17 338 0 317 291 332 280 341 339 0 279 -16
 339 91 0 ?341 335 345 340 0 0 206 30 340 92 0 339 346 336 0 +-0.001576479697094
 -3.999187199999995e-04 3.999999999999999e-04 1.0 -2.449293598294707e-16 0.0 17
 341 0 420 421 279 333 338 339 0 424 +17 342 0 317 348 291 343 347 345 0 353 +18
 343 93 0 342 333 349 344 ?206 29 344 94 0 343 350 334 -6.799187199999996e-04 4.
000812800000004e-04 4.0e-04 16 345 95 0 ?342 339 351 346 0 0 206 30 346 96 0 345
 352 340 0 +-0.001576479697094 4.000812800000006e-04 4.0e-04 1.0 -2.449293598294
707e-16 0.0 17 347 0 362 287 369 283 342 345 0 282 -17 348 0 317 354 342 349 353
 351 0 357 -18 349 97 0 348 343 364 350 ?206 29 350 98 0 349 365 344 -6.79918719
9999996e-04 3.000812800000006e-04 4.0e-04 16 351 99 0 ?353 345 355 352 0 0 206 3
0 352 100 0 351 356 346 0 +-6.799187199999996e-04 4.000812800000005e-04 4.0e-04
 2.449293598294707e-16 1.0 7.429293160332037e-17 17 353 0 451 372 452 343 348 35
1 0 369 +17 354 0 317 318 348 324 357 355 0 441 -16 355 101 0 ?357 351 366 356 0
 0 206 30 356 102 0 355 367 352 0 +-4.999187199999996e-04 3.000812800000005e-04
 4.0e-04 -1.0 8.472639000991954e-16 4.47491988025761e-32 17 357 0 460 455 441 34
9 354 355 0 452 +14 358 103 360 1.0e-08 377 313 362 214 359 -0 0 377 313 212 50
 359 104 0 358 378 314 0 +-0.001576479697094 4.000812800000006e-04 4.50000000000
0001e-04 -2.449293598294707e-16 -1.0 6.123233995736766e-17 1.0 -2.44929359829470
7e-16 0.0 81 1 360 105 6 358 0 0 379 315 361 83 3 361 0.898039221763611 0.917647
063732147 0.929411768913269 15 362 106 0 363 358 0 17 363 0 362 369 300 364 368
 366 0 408 +18 364 107 0 372 349 383 365 ?206 29 365 108 0 364 384 350 -6.799187
199999996e-04 4.000812800000006e-04 4.5e-04 16 366 109 0 ?363 355 370 367 0 0 20
6 30 367 110 0 366 371 356 0 +-0.001576479697094 4.000812800000006e-04 4.5e-04 1
.0 -2.449293598294707e-16 0.0 17 368 0 381 312 408 301 363 366 0 0 -17 369 0 362
 347 363 343 372 370 0 0 -16 370 111 0 ?372 366 374 371 0 0 206 30 371 112 0 370
 375 367 0 +-6.799187199999996e-04 4.000812800000006e-04 -1.000000000000212e-06
 1.499759782661858e-32 6.123233995736766e-17 1.0 17 372 0 451 411 353 364 369 37
0 0 363 +17 373 0 362 270 231 253 376 374 0 267 -16 374 113 0 ?376 370 385 375 0
 0 206 30 375 114 0 374 386 371 0 +-4.999187199999997e-04 4.000812800000003e-04
 2.250000000000001e-04 -1.242314989306307e-16 6.123233995736769e-17 1.0 17 376 0
 446 223 252 219 373 374 0 0 +14 377 115 379 1.0e-08 416 358 381 214 378 -0 0 41
6 358 212 50 378 116 0 377 417 359 0 +-0.001576479697094 -3.999187199999997e-04
 4.500000000000001e-04 -1.499759782661858e-32 -6.123233995736766e-17 -1.0 2.4492
93598294707e-16 1.0 -6.123233995736766e-17 81 1 379 117 6 377 0 0 418 360 380 83
 3 380 0.898039221763611 0.917647063732147 0.929411768913269 15 381 118 0 382 37
7 0 17 382 0 381 390 412 383 387 385 0 395 -18 383 119 0 382 364 388 384 ?206 29
 384 120 0 383 389 365 -6.7991872e-04 -2.999187199999999e-04 4.5e-04 16 385 121
 0 ?387 374 393 386 0 0 206 30 386 122 0 385 394 375 0 +-6.7991872e-04 -3.999187
199999999e-04 4.5e-04 -2.449293598294707e-16 -1.0 6.123233995736766e-17 17 387 0
 474 424 469 388 382 385 0 412 +18 388 123 0 387 383 391 389 ?206 29 389 124 0 3
88 392 384 -6.7991872e-04 -3.999187199999999e-04 4.5e-04 17 390 0 381 396 382 39
1 395 393 0 401 -18 391 125 0 390 388 397 392 ?206 29 392 126 0 391 398 389 -4.9
991872e-04 -2.999187199999999e-04 4.5e-04 16 393 127 0 ?395 385 399 394 0 0 206
 30 394 128 0 393 400 386 0 +-4.9991872e-04 -2.999187199999999e-04 4.5e-04 -1.0
 2.449293598294707e-16 0.0 17 395 0 465 466 437 383 390 393 0 469 +17 396 0 381
 402 390 397 401 399 0 438 +18 397 129 0 407 391 403 398 ?206 29 398 130 0 397 4
04 392 -4.999187199999997e-04 3.000812800000005e-04 4.5e-04 16 399 131 0 ?396 39
3 405 400 0 0 206 30 400 132 0 399 406 394 0 +-4.9991872e-04 -3.999187199999999e
-04 4.5e-04 3.804546313901586e-16 1.0 -6.123233995736766e-17 17 401 0 433 434 43
8 391 396 399 0 437 -17 402 0 381 408 396 403 407 405 0 411 -18 403 133 0 402 39
7 0 404 ?206 29 404 134 0 403 0 398 -6.799187199999996e-04 3.000812800000006e-04
 4.5e-04 16 405 135 0 ?407 399 409 406 0 0 206 30 406 136 0 405 410 400 0 +-4.99
9187199999996e-04 3.000812800000005e-04 4.5e-04 1.0 -8.472639000991954e-16 3.688
235333786056e-32 17 407 0 460 441 455 397 402 405 0 396 +17 408 0 381 368 402 36
4 411 409 0 0 -16 409 137 0 ?411 405 413 410 0 0 206 30 410 138 0 409 414 406 0
 +-6.799187199999996e-04 4.000812800000006e-04 4.5e-04 -2.449293598294707e-16 -1
.0 6.123233995736766e-17 17 411 0 451 452 372 403 408 409 0 455 +17 412 0 381 38
2 312 388 415 413 0 421 +16 413 139 0 ?412 409 422 414 0 0 206 30 414 140 0 413
 423 410 0 +-0.001576479697094 -3.999187199999996e-04 4.5e-04 1.0 -2.44929359829
4707e-16 0.0 17 415 0 420 308 421 304 412 413 0 0 -14 416 141 418 1.0e-08 429 37
7 420 214 417 -0 0 429 377 212 50 417 142 0 416 430 378 0 +-0.001576479697094 -3
.999187199999996e-04 3.999999999999999e-04 2.449293598294707e-16 1.0 1.022969832
528134e-15 -2.505553462059766e-31 -1.022969832528134e-15 1.0 81 1 418 143 6 416
 0 0 431 379 419 83 3 419 0.898039221763611 0.917647063732147 0.929411768913269
 15 420 144 0 341 416 0 17 421 0 420 415 341 388 424 422 0 0 +16 422 145 0 ?421
 413 426 423 0 0 206 30 423 146 0 422 427 414 0 +-6.7991872e-04 -3.9991871999999
99e-04 -1.000000000000162e-06 1.499759782661858e-32 6.123233995736766e-17 1.0 17
 424 0 474 337 387 333 421 422 0 0 -17 425 0 420 241 260 224 428 426 0 0 -16 426
 147 0 ?428 422 435 427 0 0 206 30 427 148 0 426 436 423 0 +-4.9991872e-04 -3.99
9187199999996e-04 2.250000000000002e-04 1.242314989306304e-16 -1.145434512442869
e-15 -1.0 17 428 0 446 252 223 248 425 426 0 247 +14 429 149 431 1.0e-08 442 416
 433 214 430 -0 0 442 416 212 50 430 150 0 429 443 417 0 +-4.9991872e-04 -3.9991
87199999999e-04 4.500000000000001e-04 -1.0 3.804546313901585e-16 -2.168404344971
004e-15 2.168404344971004e-15 -6.123233995736819e-17 -1.0 81 1 431 151 6 429 0 0
 444 418 432 83 3 432 0.898039221763611 0.917647063732147 0.929411768913269 15 4
33 152 0 401 429 0 17 434 0 433 323 401 319 437 435 0 0 -16 435 153 0 ?437 426 4
39 436 0 0 206 30 436 154 0 435 440 427 0 +-4.9991872e-04 -2.999187199999999e-04
 -1.000000000000169e-06 1.499759782661858e-32 6.123233995736766e-17 1.0 17 437 0
 465 395 331 391 434 435 0 0 +17 438 0 433 401 323 397 441 439 0 0 +16 439 155 0
 ?438 435 453 440 0 0 206 30 440 156 0 439 454 436 0 +-4.999187199999996e-04 3.0
00812800000004e-04 -1.000000000000205e-06 1.499759782661858e-32 6.12323399573676
6e-17 1.0 17 441 0 460 357 407 324 438 439 0 0 -14 442 157 444 1.0e-08 447 429 4
46 214 443 +0 0 447 429 212 50 443 158 0 442 448 430 0 +-4.999187199999999e-04 8
.12800000002324e-08 2.500000000000008e-05 1.0 -2.449293598294707e-16 1.242314989
306307e-16 -1.242314989306307e-16 6.123233995736769e-17 1.0 81 1 444 159 6 442 0
 0 449 431 445 83 3 445 0.898039221763611 0.917647063732147 0.929411768913269 15
 446 160 0 428 442 0 14 447 161 449 1.0e-08 456 442 451 214 448 -0 0 456 442 212
 50 448 162 0 447 457 443 0 +-6.799187199999996e-04 4.000812800000006e-04 -1.000
000000000212e-06 -1.0 2.449293598294707e-16 0.0 -2.449293598294707e-16 -1.0 6.12
3233995736766e-17 81 1 449 163 6 447 0 0 458 444 450 83 3 450 0.898039221763611
 0.917647063732147 0.929411768913269 15 451 164 0 353 447 0 17 452 0 451 353 411
 349 455 453 0 0 -16 453 165 0 ?455 439 467 454 0 0 206 30 454 166 0 453 468 440
 0 +-6.799187199999996e-04 3.000812800000006e-04 -1.000000000000205e-06 1.499759
782661858e-32 6.123233995736766e-17 1.0 17 455 0 460 407 357 403 452 453 0 0 +14
 456 167 458 1.0e-08 461 447 460 214 457 -0 0 461 447 212 50 457 168 0 456 462 4
48 0 +-4.999187199999996e-04 3.000812800000004e-04 -1.000000000000205e-06 -8.472
639000991954e-16 -1.0 6.123233995736766e-17 1.0 -8.472639000991954e-16 3.6882353
33786056e-32 81 1 458 169 6 456 0 0 463 449 459 83 3 459 0.898039221763611 0.917
647063732147 0.929411768913269 15 460 170 0 357 456 0 14 461 171 463 1.0e-08 470
 456 465 214 462 -0 0 470 456 212 50 462 172 0 461 471 457 0 +-4.9991872e-04 -2.
999187199999999e-04 -1.000000000000169e-06 2.449293598294707e-16 1.0 -6.12323399
5736766e-17 -1.0 2.449293598294707e-16 0.0 81 1 463 173 6 461 0 0 472 458 464 83
 3 464 0.898039221763611 0.917647063732147 0.929411768913269 15 465 174 0 331 46
1 0 17 466 0 465 331 395 327 469 467 0 0 -16 467 175 0 ?469 453 0 468 0 0 206 30
 468 176 0 467 0 454 0 +-6.7991872e-04 -2.999187199999999e-04 -1.000000000000169
e-06 1.499759782661858e-32 6.123233995736766e-17 1.0 17 469 0 474 387 337 383 46
6 467 0 0 +14 470 177 472 1.0e-08 0 461 474 214 471 -0 0 0 461 212 50 471 178 0
 470 0 462 0 +-6.7991872e-04 -3.999187199999999e-04 -1.000000000000162e-06 -1.0
 2.449293598294707e-16 0.0 -2.449293598294707e-16 -1.0 6.123233995736766e-17 81
 1 472 179 6 470 0 0 0 463 473 83 3 473 0.898039221763611 0.917647063732147 0.92
9411768913269 15 474 180 0 337 470 0 12 475 180 0 476 0 0 0 0 1000.0 1.0e-08 0 0
 0 1 0 1 1 483 485 491 489 480 490 488 70 476 0 475 0 0 4 1 20 0 477 477 1 T74 2
0 477 1 0 478 0 0 0 0 0 0 0 0 0 0 0 0 0 0 0 0 0 0 0 81 1 478 7 6 484 0 0 513 0 4
79 83 3 479 0.898039221763611 0.917647063732147 0.929411768913269 19 480 1 0 475
 482 0 481 V13 481 2 0 475 0 0 0 0 480 484 19 482 3 0 475 0 480 483 S13 483 4 0
 475 0 484 0 0 482 0 14 484 5 478 1.0e-08 511 0 486 483 485 -0 0 511 0 481 50 48
5 6 0 484 512 0 0 +7.5008128e-04 4.000812800000003e-04 4.999999999999983e-05 -1.
242314989306307e-16 -1.967576115180557e-16 -1.0 -4.419121949999719e-17 1.0 -1.96
7576115180557e-16 15 486 8 0 487 484 0 17 487 0 486 495 507 488 492 490 0 500 +1
8 488 9 0 487 0 493 489 ?475 29 489 10 0 488 494 0 5.000812799999999e-04 -3.9991
87199999999e-04 5.000000000000003e-05 16 490 11 0 ?487 0 498 491 0 0 475 30 491
 12 0 490 499 0 0 +5.000812799999999e-04 4.000812800000003e-04 4.999999999999987
e-05 4.419121949999719e-17 -1.0 1.967576115180557e-16 17 492 0 715 645 697 493 4
87 490 0 507 -18 493 13 0 492 488 496 494 ?475 29 494 14 0 493 497 489 5.0008127
99999999e-04 4.000812800000003e-04 5.000000000000029e-05 17 495 0 486 501 487 49
6 500 498 0 506 -18 496 15 0 495 493 502 497 ?475 29 497 16 0 496 503 494 7.5008
12799999999e-04 -3.999187199999999e-04 5.000000000000028e-05 16 498 17 0 ?500 49
0 504 499 0 0 475 30 499 18 0 498 505 491 0 +7.500812799999999e-04 -3.9991871999
99999e-04 5.000000000000028e-05 -1.0 -4.419121949999719e-17 1.242314989306307e-1
6 17 500 0 689 694 550 488 495 498 0 697 +17 501 0 486 507 495 502 506 504 0 510
 +18 502 19 0 557 496 517 503 ?475 29 503 20 0 502 518 497 7.500812799999999e-04
 4.000812800000003e-04 5.000000000000016e-05 16 504 21 0 ?501 498 508 505 0 0 47
5 30 505 22 0 504 509 499 0 +7.5008128e-04 4.000812800000003e-04 4.9999999999999
82e-05 9.13340520606909e-17 1.0 -1.967576115180557e-16 17 506 0 544 545 557 496
 501 504 0 550 -17 507 0 486 487 501 493 510 508 0 642 +16 508 23 0 ?507 504 519
 509 0 0 475 30 509 24 0 508 520 505 0 +7.500812799999999e-04 4.000812800000003e
-04 5.000000000000016e-05 -1.0 -4.419121949999719e-17 1.242314989306307e-16 17 5
10 0 631 560 642 502 507 508 0 0 -14 511 25 513 1.0e-08 540 484 515 483 512 -0 0
 540 484 481 50 512 26 0 511 541 485 0 +8.0008128e-04 -3.9991872e-04 -1.38137389
8898786e-19 1.242314989306307e-16 6.123233995736768e-17 1.0 1.0 4.41912194999971
9e-17 -1.242314989306307e-16 81 1 513 27 6 511 0 0 542 478 514 83 3 514 0.898039
221763611 0.917647063732147 0.929411768913269 15 515 28 0 516 511 0 17 516 0 515
 524 536 517 521 519 0 529 +18 517 29 0 516 502 522 518 ?475 29 518 30 0 517 523
 503 5.000812799999999e-04 4.000812800000001e-04 -1.498538121765835e-19 16 519 3
1 0 ?516 508 527 520 0 0 475 30 520 32 0 519 528 509 0 +5.000812799999999e-04 -3
.9991872e-04 -1.008679402106894e-19 -4.419121949999719e-17 1.0 -6.12323399573676
6e-17 17 521 0 715 697 645 522 516 519 0 536 -18 522 33 0 521 517 525 523 ?475 2
9 523 34 0 522 526 518 5.000812799999999e-04 -3.999187199999999e-04 -7.376288589
855172e-20 17 524 0 515 530 516 525 529 527 0 0 -18 525 35 0 571 522 531 526 ?47
5 29 526 36 0 525 532 523 8.0008128e-04 4.000812800000002e-04 -1.871232618557728
e-19 16 527 37 0 ?529 519 533 528 0 0 475 30 528 38 0 527 534 520 0 +8.0008128e-
04 4.000812800000002e-04 -1.871232618557728e-19 -1.0 -4.419121949999719e-17 1.24
2314989306307e-16 17 529 0 631 642 571 517 524 527 0 645 +17 530 0 515 536 524 5
31 535 533 0 539 +18 531 39 0 578 525 546 532 ?475 29 532 40 0 531 547 526 8.000
812800000002e-04 -3.9991872e-04 -1.11032335577741e-19 16 533 41 0 ?530 527 537 5
34 0 0 475 30 534 42 0 533 538 528 0 +8.0008128e-04 -3.9991872e-04 -1.3813738988
98786e-19 4.419121949999719e-17 -1.0 6.123233995736766e-17 17 535 0 565 566 578
 525 530 533 0 524 -17 536 0 515 516 530 522 539 537 0 694 +16 537 43 0 ?536 533
 548 538 0 0 475 30 538 44 0 537 549 534 0 +8.000812800000002e-04 -3.9991872e-04
 -1.11032335577741e-19 -1.0 -4.419121949999719e-17 1.242314989306307e-16 17 539
 0 689 581 694 531 536 537 0 0 -14 540 45 542 1.0e-08 561 511 544 483 541 +0 0 5
61 511 481 50 541 46 0 540 562 512 0 +7.500812799999999e-04 4.000812800000004e-0
4 4.0e-04 -1.0 9.133405206069087e-17 -2.409338161078899e-16 -2.409338161078899e-
16 6.123233995736765e-17 1.0 81 1 542 47 6 540 0 0 563 513 543 83 3 543 0.898039
221763611 0.917647063732147 0.929411768913269 15 544 48 0 545 540 0 17 545 0 544
 551 506 546 550 548 0 0 -18 546 49 0 556 531 552 547 ?475 29 547 50 0 546 553 5
32 7.500812799999998e-04 -3.999187199999999e-04 4.0e-04 16 548 51 0 ?550 537 554
 549 0 0 475 30 549 52 0 548 555 538 0 +7.500812799999998e-04 -3.999187199999999
e-04 4.0e-04 2.409338161078899e-16 -6.123233995736765e-17 -1.0 17 550 0 689 500
 592 496 545 548 0 0 +17 551 0 544 557 545 552 556 554 0 560 -18 552 53 0 551 54
6 567 553 ?475 29 553 54 0 552 568 547 7.500812799999999e-04 4.000812800000003e-
04 4.000000000000001e-04 16 554 55 0 ?556 548 558 555 0 0 475 30 555 56 0 554 55
9 549 0 +7.500812799999999e-04 4.000812800000004e-04 4.0e-04 -9.133405206069082e
-17 -1.0 -7.429293160332037e-17 17 556 0 586 587 623 546 551 554 0 592 +17 557 0
 544 506 551 502 560 558 0 501 +16 558 57 0 ?557 554 569 559 0 0 475 30 559 58 0
 558 570 555 0 +7.500812799999999e-04 4.000812800000003e-04 4.000000000000001e-0
4 2.409338161078899e-16 -6.123233995736765e-17 -1.0 17 560 0 631 626 510 552 557
 558 0 623 -14 561 59 563 1.0e-08 582 540 565 483 562 +0 0 582 540 481 50 562 60
 0 561 583 541 0 +8.000812799999999e-04 -3.9991872e-04 4.500000000000001e-04 1.0
 4.419121949999719e-17 2.409338161078899e-16 2.409338161078899e-16 -6.1232339957
36765e-17 -1.0 81 1 563 61 6 561 0 0 584 542 564 83 3 564 0.898039221763611 0.91
7647063732147 0.929411768913269 15 565 62 0 566 561 0 17 566 0 565 572 535 567 5
71 569 0 577 -18 567 63 0 566 552 573 568 ?475 29 568 64 0 567 574 553 8.0008127
99999999e-04 4.000812800000002e-04 4.5e-04 16 569 65 0 ?571 558 575 570 0 0 475
 30 570 66 0 569 576 559 0 +8.000812799999999e-04 4.000812800000002e-04 4.5e-04
 2.409338161078899e-16 -6.123233995736765e-17 -1.0 17 571 0 631 529 638 525 566
 569 0 535 +17 572 0 565 578 566 573 577 575 0 665 -18 573 67 0 581 567 588 574
 ?475 29 574 68 0 573 589 568 8.000812799999999e-04 -3.9991872e-04 4.5e-04 16 57
5 69 0 ?577 569 579 576 0 0 475 30 576 70 0 575 580 570 0 +8.000812799999999e-04
 -3.9991872e-04 4.5e-04 -4.419121949999719e-17 1.0 -6.123233995736766e-17 17 577
 0 650 641 665 567 572 575 0 638 +17 578 0 565 535 572 531 581 579 0 530 +16 579
 71 0 ?578 575 590 580 0 0 475 30 580 72 0 579 591 576 0 +8.000812799999999e-04
 -3.9991872e-04 4.5e-04 2.409338161078899e-16 -6.123233995736765e-17 -1.0 17 581
 0 689 668 539 573 578 579 0 572 -14 582 73 584 1.0e-08 627 561 586 483 583 -0 0
 627 561 481 50 583 74 0 582 628 562 0 +0.001576642257094 4.000812800000003e-04
 4.0e-04 2.098662484995367e-32 -7.429293160332037e-17 1.0 4.419121949999719e-17
 -1.0 -7.429293160332037e-17 81 1 584 75 6 582 0 0 629 563 585 83 3 585 0.898039
221763611 0.917647063732147 0.929411768913269 15 586 76 0 587 582 0 17 587 0 586
 593 556 588 592 590 0 598 +18 588 77 0 587 573 594 589 ?475 29 589 78 0 588 595
 574 6.800812799999997e-04 -3.9991872e-04 3.999999999999999e-04 16 590 79 0 ?587
 579 596 591 0 0 475 30 591 80 0 590 597 580 0 +0.001576642257094 -3.99918719999
9999e-04 3.999999999999999e-04 -1.0 -4.419121949999719e-17 1.770352960217306e-32
 17 592 0 689 550 690 546 587 590 0 545 -17 593 0 586 599 587 594 598 596 0 604
 -18 594 81 0 593 588 600 595 ?475 29 595 82 0 594 601 589 6.800812799999997e-04
 -2.999187200000002e-04 3.999999999999999e-04 16 596 83 0 ?598 590 602 597 0 0 4
75 30 597 84 0 596 603 591 0 +6.800812799999997e-04 -3.999187200000002e-04 3.999
999999999999e-04 -2.449293598294707e-16 -1.0 -7.429293160332037e-17 17 598 0 734
 693 735 588 593 596 0 690 +17 599 0 586 605 593 600 604 602 0 610 -18 600 85 0
 599 594 606 601 ?475 29 601 86 0 600 607 595 5.000812799999999e-04 -2.999187200
000002e-04 3.999999999999999e-04 16 602 87 0 ?604 596 608 603 0 0 475 30 603 88
 0 602 609 597 0 +5.000812799999999e-04 -2.999187200000002e-04 3.999999999999999
e-04 1.0 -2.449293598294707e-16 -3.918314502740958e-32 17 604 0 743 738 706 594
 599 602 0 735 +17 605 0 586 611 599 606 610 608 0 707 -18 606 89 0 616 600 612
 607 ?475 29 607 90 0 606 613 601 5.000812799999999e-04 3.000812799999996e-04 4.
0e-04 16 608 91 0 ?610 602 614 609 0 0 475 30 609 92 0 608 615 603 0 +5.00081279
9999999e-04 4.000812800000003e-04 4.0e-04 -9.133405206069083e-17 -1.0 -7.4292931
60332037e-17 17 610 0 702 703 707 600 605 608 0 706 +17 611 0 586 617 605 612 61
6 614 0 622 -18 612 93 0 611 606 618 613 ?475 29 613 94 0 612 619 607 6.80081279
9999999e-04 3.000812799999994e-04 4.0e-04 16 614 95 0 ?616 608 620 615 0 0 475 3
0 615 96 0 614 621 609 0 +5.000812799999999e-04 3.000812799999996e-04 4.0e-04 -1
.0 8.472639000991954e-16 8.393234382998566e-32 17 616 0 720 710 721 606 611 614
 0 605 +17 617 0 586 623 611 618 622 620 0 626 -18 618 97 0 617 612 633 619 ?475
 29 619 98 0 618 634 613 6.800812800000003e-04 4.000812799999994e-04 4.000000000
000001e-04 16 620 99 0 ?622 614 624 621 0 0 475 30 621 100 0 620 625 615 0 +6.80
0812800000003e-04 4.000812799999994e-04 4.0e-04 -4.581738049771489e-15 -1.0 -7.4
29293160332037e-17 17 622 0 729 724 637 612 617 620 0 721 +17 623 0 586 556 617
 552 626 624 0 0 -16 624 101 0 ?626 620 635 625 0 0 475 30 625 102 0 624 636 621
 0 +0.001576642257094 4.000812800000003e-04 4.0e-04 -1.0 -4.419121949999719e-17
 1.770352960217306e-32 17 626 0 631 632 560 618 623 624 0 637 +14 627 103 629 1.
0e-08 646 582 631 483 628 -0 0 646 582 481 50 628 104 0 627 647 583 0 +0.0015766
42257094 4.000812800000003e-04 4.500000000000001e-04 4.419121949999719e-17 -1.0
 6.123233995736766e-17 -1.0 -4.419121949999719e-17 1.770352960217306e-32 81 1 62
9 105 6 627 0 0 648 584 630 83 3 630 0.898039221763611 0.917647063732147 0.92941
1768913269 15 631 106 0 626 627 0 17 632 0 631 638 626 633 637 635 0 641 +18 633
 107 0 632 618 652 634 ?475 29 634 108 0 633 653 619 6.800812800000003e-04 4.000
812799999994e-04 4.5e-04 16 635 109 0 ?632 624 639 636 0 0 475 30 636 110 0 635
 640 625 0 +6.800812800000003e-04 4.000812799999994e-04 -1.000000000000212e-06 1
.499759782661858e-32 6.123233995736766e-17 1.0 17 637 0 729 622 674 618 632 635
 0 0 -17 638 0 631 571 632 567 641 639 0 0 -16 639 111 0 ?641 635 643 640 0 0 47
5 30 640 112 0 639 644 636 0 +0.001576642257094 4.000812800000003e-04 4.5e-04 -1
.0 -4.419121949999719e-17 1.770352960217306e-32 17 641 0 650 669 577 633 638 639
 0 674 +17 642 0 631 510 529 493 645 643 0 0 +16 643 113 0 ?642 639 654 644 0 0
 475 30 644 114 0 643 655 640 0 +5.000812799999999e-04 4.000812800000003e-04 2.2
50000000000001e-04 1.242314989306307e-16 6.123233995736768e-17 1.0 17 645 0 715
 521 492 517 642 643 0 0 -14 646 115 648 1.0e-08 685 627 650 483 647 -0 0 685 62
7 481 50 647 116 0 646 686 628 0 +0.001576642257094 -3.999187199999999e-04 4.500
000000000001e-04 -1.499759782661858e-32 -6.123233995736766e-17 -1.0 -4.419121949
999719e-17 1.0 -6.123233995736766e-17 81 1 648 117 6 646 0 0 687 629 649 83 3 64
9 0.898039221763611 0.917647063732147 0.929411768913269 15 650 118 0 651 646 0 1
7 651 0 650 659 681 652 656 654 0 738 -18 652 119 0 664 633 657 653 ?475 29 653
 120 0 652 658 634 6.800812799999997e-04 -2.999187200000002e-04 4.5e-04 16 654 1
21 0 ?656 643 662 655 0 0 475 30 655 122 0 654 663 644 0 +5.000812799999999e-04
 -2.999187200000002e-04 4.5e-04 -1.0 2.449293598294707e-16 0.0 17 656 0 743 706
 738 657 651 654 0 681 +18 657 123 0 656 652 660 658 ?475 29 658 124 0 657 661 6
53 5.000812799999999e-04 -2.999187200000002e-04 4.5e-04 17 659 0 650 665 651 660
 664 662 0 668 -18 660 125 0 659 657 670 661 ?475 29 661 126 0 660 671 658 6.800
812799999997e-04 -3.999187200000002e-04 4.5e-04 16 662 127 0 ?664 654 666 663 0
 0 475 30 663 128 0 662 667 655 0 +6.800812799999997e-04 -3.999187200000002e-04
 4.5e-04 2.449293598294707e-16 1.0 -6.123233995736766e-17 17 664 0 734 735 693 6
52 659 662 0 651 +17 665 0 650 577 659 573 668 666 0 0 -16 666 129 0 ?668 662 67
2 667 0 0 475 30 667 130 0 666 673 663 0 +0.001576642257094 -3.999187199999999e-
04 4.5e-04 -1.0 -4.419121949999719e-17 1.770352960217306e-32 17 668 0 689 690 58
1 660 665 666 0 693 +17 669 0 650 675 641 670 674 672 0 680 -18 670 131 0 669 66
0 676 671 ?475 29 671 132 0 670 677 661 6.800812799999999e-04 3.000812799999994e
-04 4.5e-04 16 672 133 0 ?674 666 678 673 0 0 475 30 673 134 0 672 679 667 0 +6.
800812800000003e-04 4.000812799999994e-04 4.5e-04 4.581738049771489e-15 1.0 -6.1
23233995736766e-17 17 674 0 729 637 724 633 669 672 0 0 +17 675 0 650 681 669 67
6 680 678 0 0 -18 676 135 0 684 670 0 677 ?475 29 677 136 0 676 0 671 5.00081279
9999999e-04 3.000812799999996e-04 4.5e-04 16 678 137 0 ?680 672 682 679 0 0 475
 30 679 138 0 678 683 673 0 +5.000812799999999e-04 3.000812799999996e-04 4.5e-04
 1.0 -8.472639000991954e-16 3.688235333786056e-32 17 680 0 720 721 710 670 675 6
78 0 724 +17 681 0 650 651 675 657 684 682 0 703 -16 682 139 0 ?684 678 691 683
 0 0 475 30 683 140 0 682 692 679 0 +5.000812799999999e-04 -3.9991872e-04 4.5e-0
4 -1.797164910606852e-16 1.0 -6.123233995736766e-17 17 684 0 702 707 703 676 681
 682 0 710 +14 685 141 687 1.0e-08 698 646 689 483 686 -0 0 698 646 481 50 686 1
42 0 685 699 647 0 +0.001576642257094 -3.999187199999999e-04 3.999999999999999e-
04 -4.419121949999719e-17 1.0 1.022969832528134e-15 6.290981401329918e-32 -1.022
969832528134e-15 1.0 81 1 687 143 6 685 0 0 700 648 688 83 3 688 0.8980392217636
11 0.917647063732147 0.929411768913269 15 689 144 0 668 685 0 17 690 0 689 592 6
68 588 693 691 0 0 -16 691 145 0 ?693 682 695 692 0 0 475 30 692 146 0 691 696 6
83 0 +6.800812799999997e-04 -3.999187200000002e-04 -1.000000000000162e-06 1.4997
59782661858e-32 6.123233995736766e-17 1.0 17 693 0 734 664 598 660 690 691 0 0 +
17 694 0 689 539 500 522 697 695 0 0 +16 695 147 0 ?694 691 704 696 0 0 475 30 6
96 148 0 695 705 692 0 +5.000812799999999e-04 -3.999187199999997e-04 2.250000000
000002e-04 -1.242314989306307e-16 -1.145434512442869e-15 -1.0 17 697 0 715 492 5
21 488 694 695 0 0 -14 698 149 700 1.0e-08 711 685 702 483 699 -0 0 711 685 481
 50 699 150 0 698 712 686 0 +5.000812799999999e-04 -3.9991872e-04 4.500000000000
001e-04 1.0 1.797164910606851e-16 -2.168404344971004e-15 -2.168404344971004e-15
 -6.123233995736776e-17 -1.0 81 1 700 151 6 698 0 0 713 687 701 83 3 701 0.89803
9221763611 0.917647063732147 0.929411768913269 15 702 152 0 610 698 0 17 703 0 7
02 684 610 657 706 704 0 0 +16 704 153 0 ?703 695 708 705 0 0 475 30 705 154 0 7
04 709 696 0 +5.000812799999999e-04 -2.999187200000002e-04 -1.000000000000169e-0
6 1.499759782661858e-32 6.123233995736766e-17 1.0 17 706 0 743 604 656 600 703 7
04 0 0 -17 707 0 702 610 684 606 710 708 0 0 -16 708 155 0 ?710 704 722 709 0 0
 475 30 709 156 0 708 723 705 0 +5.000812799999999e-04 3.000812799999996e-04 -1.
000000000000205e-06 1.499759782661858e-32 6.123233995736766e-17 1.0 17 710 0 720
 680 616 676 707 708 0 675 +14 711 157 713 1.0e-08 716 698 715 483 712 +0 0 716
 698 481 50 712 158 0 711 717 699 0 +5.000812799999999e-04 8.128000000013204e-08
 2.500000000000008e-05 -1.0 -4.419121949999719e-17 1.242314989306307e-16 1.24231
4989306307e-16 6.123233995736768e-17 1.0 81 1 713 159 6 711 0 0 718 700 714 83 3
 714 0.898039221763611 0.917647063732147 0.929411768913269 15 715 160 0 697 711
 0 14 716 161 718 1.0e-08 725 711 720 483 717 -0 0 725 711 481 50 717 162 0 716
 726 712 0 +5.000812799999999e-04 3.000812799999996e-04 -1.000000000000205e-06 -
8.472639000991954e-16 -1.0 6.123233995736766e-17 1.0 -8.472639000991954e-16 3.68
8235333786056e-32 81 1 718 163 6 716 0 0 727 713 719 83 3 719 0.898039221763611
 0.917647063732147 0.929411768913269 15 720 164 0 616 716 0 17 721 0 720 616 680
 612 724 722 0 0 -16 722 165 0 ?724 708 736 723 0 0 475 30 723 166 0 722 737 709
 0 +6.800812799999999e-04 3.000812799999994e-04 -1.000000000000205e-06 1.4997597
82661858e-32 6.123233995736766e-17 1.0 17 724 0 729 674 622 670 721 722 0 0 +14
 725 167 727 1.0e-08 730 716 729 483 726 -0 0 730 716 481 50 726 168 0 725 731 7
17 0 +6.800812800000003e-04 4.000812799999994e-04 -1.000000000000212e-06 1.0 -4.
581738049771489e-15 2.65552944032596e-31 4.581738049771489e-15 1.0 -6.1232339957
36766e-17 81 1 727 169 6 725 0 0 732 718 728 83 3 728 0.898039221763611 0.917647
063732147 0.929411768913269 15 729 170 0 622 725 0 14 730 171 732 1.0e-08 739 72
5 734 483 731 -0 0 739 725 481 50 731 172 0 730 740 726 0 +6.800812799999997e-04
 -3.999187200000002e-04 -1.000000000000162e-06 1.0 -2.449293598294707e-16 0.0 2.
449293598294707e-16 1.0 -6.123233995736766e-17 81 1 732 173 6 730 0 0 741 727 73
3 83 3 733 0.898039221763611 0.917647063732147 0.929411768913269 15 734 174 0 59
8 730 0 17 735 0 734 598 664 594 738 736 0 0 -16 736 175 0 ?738 722 0 737 0 0 47
5 30 737 176 0 736 0 723 0 +6.800812799999997e-04 -2.999187200000002e-04 -1.0000
00000000169e-06 1.499759782661858e-32 6.123233995736766e-17 1.0 17 738 0 743 656
 604 652 735 736 0 0 +14 739 177 741 1.0e-08 0 730 743 483 740 -0 0 0 730 481 50
 740 178 0 739 0 731 0 +5.000812799999999e-04 -2.999187200000002e-04 -1.00000000
0000169e-06 2.449293598294707e-16 1.0 -6.123233995736766e-17 -1.0 2.449293598294
707e-16 0.0 81 1 741 179 6 739 0 0 0 732 742 83 3 742 0.898039221763611 0.917647
063732147 0.929411768913269 15 743 180 0 604 739 0 1 0 
