**ABCDEFGHIJKLMNOPQRSTUVWXYZabcdefghijklmnopqrstuvwxyz**************************
**PARASOLID !"#$%&'()*+,-./:;<=>?@[\]^_`{|}~0123456789**************************
**PART1;
MC=AMD64;
MC_MODEL=Intel64 Family 6 Model 58 Stepping 0, GenuineIntel;
MC_ID=unknown;
OS=Windows_NT;
OS_RELEASE=unknown;
FRU=Parasolid Version 30.0, build 226,  7-26-2017;
APPL=SOLIDWORKS 2018-2017284;
SITE=;
USER=unknown;
FORMAT=text;
GUISE=transmit;
KEY=FD3D7C27-9FD1-4F56-A9C7-03DA23CD3472;
FILE=FD3D7C27-9FD1-4F56-A9C7-03DA23CD3472.x_t;
DATE=Sat Nov 17 19:51:03 2018;
**PART2;
SCH=SCH_3000226_30000;
USFLD_SIZE=0;
**PART3;
**END_OF_HEADER*****************************************************************
T51 : TRANSMIT FILE created by modeller version 300022617 SCH_1201000_121030 12
 1 2624 0 2 0 0 0 0 1e3 1e-8 0 3 0 1 0 1 1 4 5 6 7 8 9 10 70 2 0 1 0 0 4 2 20 8
 11 11 1 T13 4 94 0 1 0 12 0 0 13 0 50 5 340 0 14 15 0 0 -.00145 -65e-5 .0007749
99999999987 0 .990268068741571 -.1391731009600624 0 .1391731009600624 .990268068
741571 31 6 2147 0 16 17 0 0 --.00106 -26e-5 .0013 0 0 -1 -1 0 0 .00016887495373
79655 29 7 1518 0 10 18 0 .00119 -65e-5 .000625000000000013 19 8 28 0 1 13 0 19
 V16 9 239 0 ?20 0 21 22 0 0 1 18 10 1516 0 23 0 24 7 ?1 17 23 0 25 26 27 10 28
 29 0 30 +18 24 1513 0 31 10 32 18 ?1 17 31 0 33 34 35 24 36 37 0 38 +18 32 1507
 0 39 24 40 41 ?1 29 18 1515 0 24 41 7 71e-5 -65e-5 .000625000000000013 29 41 15
09 0 32 42 18 .00119 -65e-5 .000774999999999987 29 42 1001 0 40 43 41 -24e-5 65e
-5 .000625000000000013 18 40 999 0 44 32 45 42 ?1 29 43 998 0 45 46 42 24e-5 65e
-5 .000625000000000013 18 45 996 0 47 40 48 43 ?1 29 46 980 0 48 49 43 -24e-5 65
e-5 .000774999999999987 18 48 978 0 50 45 51 46 ?1 29 49 407 0 51 52 46 -71e-5 -
65e-5 .000625000000000013 18 51 405 0 35 48 53 49 ?1 29 52 404 0 53 54 49 -.0011
9 -65e-5 .000625000000000013 18 53 402 0 55 51 56 52 ?1 29 54 398 0 56 57 52 -71
e-5 -65e-5 .000774999999999987 18 56 396 0 58 53 59 54 ?1 29 57 237 0 59 60 54 .
001376216061781244 .000576216061781244 .0013 18 59 235 0 61 56 62 57 ?1 29 60 23
3 0 62 63 57 .001376216061781244 -.000576216061781244 .0013 18 62 231 0 64 59 65
 60 ?1 29 63 229 0 65 66 60 -.001376216061781244 -.000576216061781244 .0013 18 6
5 227 0 67 62 68 63 ?1 29 66 226 0 68 69 63 -.001376216061781244 .00057621606178
1244 .0013 18 68 224 0 70 65 71 66 ?1 29 69 203 0 71 72 66 -.00145 65e-5 .000774
999999999987 18 71 201 0 73 68 74 69 ?1 29 72 200 0 74 75 69 -.00145 65e-5 .0006
25000000000013 18 74 198 0 76 71 77 72 ?1 29 75 187 0 77 78 72 .00145 65e-5 .000
774999999999987 18 77 185 0 79 74 80 75 ?1 29 78 184 0 80 81 75 .00145 65e-5 .00
0625000000000013 18 80 182 0 82 77 83 78 ?1 29 81 171 0 83 84 78 .00145 -65e-5 .
000625000000000013 18 83 169 0 26 80 85 81 ?1 29 84 168 0 85 86 81 .00145 -65e-5
 .000774999999999987 18 85 166 0 87 83 88 84 ?1 29 86 165 0 88 89 84 -.00145 -65
e-5 .000625000000000013 18 88 163 0 90 85 91 86 ?1 29 89 162 0 91 92 86 -.00145
 -65e-5 .000774999999999987 18 91 160 0 93 88 94 89 ?1 29 92 153 0 94 95 89 .001
376216061781244 -.000576216061781244 1e-4 18 94 151 0 96 91 97 92 ?1 29 95 149 0
 97 98 92 .001376216061781244 .000576216061781244 1e-4 18 97 147 0 99 94 100 95
 ?1 29 98 145 0 100 101 95 -.001376216061781244 .000576216061781244 1e-4 18 100
 143 0 102 97 103 98 ?1 29 101 142 0 103 104 98 -.001376216061781244 -.000576216
061781244 1e-4 18 103 140 0 105 100 106 101 ?1 29 104 863 0 106 107 101 -.00119
 -65e-5 775e-6 18 106 650 0 108 103 109 104 ?1 29 107 865 0 110 111 104 -.00119
 -.00138692663858785 135525271560688e-34 18 110 648 0 112 113 114 107 ?1 29 111
 866 0 114 115 107 -.00119 -.0014 .0001494292047137618 18 114 647 0 116 110 117
 111 ?1 29 115 867 0 117 118 111 -.00119 -.00119033310024817 .000167772681558673
 18 117 646 0 119 114 120 115 ?1 29 118 868 0 120 121 115 -.00119 -.001099429204
713762 .000258676577093082 18 120 645 0 122 117 123 118 ?1 29 121 869 0 123 124
 118 -.00119 -.001074222639515086 .000546788935686914 18 123 644 0 125 120 126 1
21 ?1 29 124 870 0 126 127 121 -.00119 -.00082517396499215 775e-6 18 126 629 0 1
28 123 129 124 ?1 29 127 881 0 129 130 124 -.00119 -.00082517396499215 625e-6 18
 129 633 0 131 126 132 127 ?1 29 130 882 0 132 133 127 -.00119 -.000924793434801
325 .000533715574274766 18 132 632 0 134 129 135 130 ?1 29 133 883 0 135 136 130
 -.00119 -95e-5 .000245603215680934 18 135 630 0 137 132 138 133 ?1 29 136 884 0
 138 139 133 -.00119 -.001177259738836022 183434768449116e-19 18 138 627 0 140 1
35 141 136 ?1 29 139 885 0 109 142 136 -71e-5 -.00138692663858785 13552527156068
8e-34 18 109 613 0 143 106 144 139 ?1 29 142 886 0 144 145 139 -71e-5 -.0014 .00
01494292047137618 18 144 612 0 146 109 147 142 ?1 29 145 887 0 147 148 142 -71e-
5 -.00119033310024817 .000167772681558673 18 147 611 0 149 144 150 145 ?1 29 148
 888 0 150 151 145 -71e-5 -.001099429204713762 .000258676577093082 18 150 610 0
 152 147 153 148 ?1 29 151 889 0 153 154 148 -71e-5 -.001074222639515086 .000546
788935686914 18 153 609 0 155 150 156 151 ?1 29 154 890 0 156 157 151 -71e-5 -.0
0082517396499215 775e-6 18 156 608 0 158 153 159 154 ?1 29 157 901 0 159 160 154
 -71e-5 -.00082517396499215 625e-6 18 159 616 0 161 156 162 157 ?1 29 160 902 0
 162 163 157 -71e-5 -.000924793434801325 .000533715574274766 18 162 615 0 164 15
9 165 160 ?1 29 163 903 0 165 166 160 -71e-5 -95e-5 .000245603215680934 18 165 6
14 0 167 162 113 163 ?1 29 166 904 0 113 168 163 -71e-5 -.001177259738836022 183
434768449116e-19 18 113 631 0 169 165 110 166 ?1 29 168 1450 0 141 170 166 24e-5
 65e-5 775e-6 18 141 1237 0 171 138 172 168 ?1 29 170 1459 0 173 174 168 -24e-5
 .00082517396499215 775e-6 18 173 1231 0 175 176 177 170 ?1 29 174 1460 0 177 17
8 170 -24e-5 .001074222639515086 .000546788935686914 18 177 1230 0 179 173 180 1
74 ?1 29 178 1461 0 180 181 174 -24e-5 .001099429204713762 .000258676577093082 1
8 180 1229 0 182 177 183 178 ?1 29 181 1462 0 183 184 178 -24e-5 .00119033310024
817 .000167772681558673 18 183 1228 0 185 180 186 181 ?1 29 184 1463 0 186 187 1
81 -24e-5 .0014 .0001494292047137618 18 186 1227 0 188 183 189 184 ?1 29 187 146
4 0 189 190 184 -24e-5 .00138692663858785 1355260259016894e-35 18 189 1226 0 191
 186 192 187 ?1 29 190 1465 0 192 193 187 -24e-5 .001177259738836022 18343476844
91145e-20 18 192 1225 0 194 189 195 190 ?1 29 193 1466 0 195 196 190 -24e-5 95e-
5 .000245603215680934 18 195 1224 0 197 192 198 193 ?1 29 196 1467 0 198 199 193
 -24e-5 .000924793434801325 .000533715574274766 18 198 1223 0 200 195 201 196 ?1
 29 199 1468 0 201 202 196 -24e-5 .00082517396499215 625e-6 18 201 1194 0 203 19
8 204 199 ?1 29 202 1479 0 172 205 199 24e-5 .00082517396499215 775e-6 18 172 12
14 0 206 141 207 202 ?1 29 205 1480 0 207 208 202 24e-5 .001074222639515086 .000
546788935686914 18 207 1213 0 209 172 210 205 ?1 29 208 1481 0 210 211 205 24e-5
 .001099429204713762 .000258676577093082 18 210 1212 0 212 207 213 208 ?1 29 211
 1482 0 213 214 208 24e-5 .00119033310024817 .000167772681558673 18 213 1211 0 2
15 210 216 211 ?1 29 214 1483 0 216 217 211 24e-5 .0014 .0001494292047137618 18
 216 1210 0 218 213 219 214 ?1 29 217 1484 0 219 220 214 24e-5 .0013869266385878
5 1355260259016894e-35 18 219 1209 0 221 216 222 217 ?1 29 220 1485 0 222 223 21
7 24e-5 .001177259738836022 1834347684491145e-20 18 222 1208 0 224 219 225 220 ?
1 29 223 1486 0 225 226 220 24e-5 95e-5 .000245603215680934 18 225 1207 0 227 22
2 228 223 ?1 29 226 1487 0 228 229 223 24e-5 .000924793434801325 .00053371557427
4766 18 228 1206 0 230 225 176 226 ?1 29 229 1488 0 176 231 226 24e-5 .000825173
96499215 625e-6 18 176 1205 0 232 228 173 229 ?1 29 231 1974 0 204 233 229 71e-5
 -65e-5 775e-6 18 204 1761 0 234 201 235 231 ?1 29 233 1976 0 236 237 231 71e-5
 -.00138692663858785 135525271560688e-34 18 236 1759 0 238 239 240 233 ?1 29 237
 1977 0 240 241 233 71e-5 -.0014 .0001494292047137618 18 240 1758 0 242 236 243
 237 ?1 29 241 1978 0 243 244 237 71e-5 -.00119033310024817 .000167772681558673
 18 243 1757 0 245 240 246 241 ?1 29 244 1979 0 246 247 241 71e-5 -.001099429204
713762 .000258676577093082 18 246 1756 0 248 243 249 244 ?1 29 247 1980 0 249 25
0 244 71e-5 -.001074222639515086 .000546788935686914 18 249 1755 0 251 246 252 2
47 ?1 29 250 1981 0 252 253 247 71e-5 -.00082517396499215 775e-6 18 252 1740 0 2
54 249 255 250 ?1 29 253 1992 0 255 256 250 71e-5 -.00082517396499215 625e-6 18
 255 1744 0 257 252 258 253 ?1 29 256 1993 0 258 259 253 71e-5 -.000924793434801
325 .000533715574274766 18 258 1743 0 260 255 261 256 ?1 29 259 1994 0 261 262 2
56 71e-5 -95e-5 .000245603215680934 18 261 1741 0 263 258 264 259 ?1 29 262 1995
 0 264 265 259 71e-5 -.001177259738836022 183434768449116e-19 18 264 1738 0 266
 261 0 262 ?1 29 265 1996 0 235 267 262 .00119 -.00138692663858785 1355252715606
88e-34 18 235 1724 0 268 204 269 265 ?1 29 267 1997 0 269 270 265 .00119 -.0014
 .0001494292047137618 18 269 1723 0 271 235 272 267 ?1 29 270 1998 0 272 273 267
 .00119 -.00119033310024817 .000167772681558673 18 272 1722 0 274 269 275 270 ?1
 29 273 1999 0 275 276 270 .00119 -.001099429204713762 .000258676577093082 18 27
5 1721 0 277 272 278 273 ?1 29 276 2000 0 278 279 273 .00119 -.00107422263951508
6 .000546788935686914 18 278 1720 0 280 275 281 276 ?1 29 279 2001 0 281 282 276
 .00119 -.00082517396499215 775e-6 18 281 1719 0 283 278 284 279 ?1 29 282 2012
 0 284 285 279 .00119 -.00082517396499215 625e-6 18 284 1727 0 286 281 287 282 ?
1 29 285 2013 0 287 288 282 .00119 -.000924793434801325 .000533715574274766 18 2
87 1726 0 289 284 290 285 ?1 29 288 2014 0 290 291 285 .00119 -95e-5 .0002456032
15680934 18 290 1725 0 292 287 239 288 ?1 29 291 2015 0 239 0 288 .00119 -.00117
7259738836022 183434768449116e-19 18 239 1742 0 293 290 236 291 ?1 17 293 0 294
 295 296 239 292 297 0 298 -15 294 1797 0 263 299 0 17 295 0 294 263 293 264 300
 301 0 302 +17 296 0 294 293 263 290 303 304 0 305 -17 292 0 306 289 298 290 293
 297 0 296 +16 297 1571 0 ?292 307 308 309 0 0 1 17 298 0 306 292 268 239 310 30
8 0 300 +15 306 1772 0 28 311 0 17 268 0 306 298 271 235 312 313 0 314 +17 310 0
 315 316 300 235 298 308 0 0 -16 308 1568 0 ?298 297 317 318 0 0 1 17 300 0 315
 310 302 239 295 301 0 0 -15 315 1793 0 302 319 0 17 302 0 315 300 316 264 320 3
21 0 0 +16 301 1633 0 ?295 322 304 323 0 0 1 16 322 1621 0 ?39 324 301 325 0 0 1
 16 304 1637 0 ?303 301 326 327 0 0 1 30 323 1908 0 301 327 325 0 +.00119 -.0011
77259738836022 183434768449116e-19 -1 0 0 30 327 1909 0 304 328 323 0 +.00119 -9
5e-5 .000245603215680934 -1 0 0 30 325 1906 0 322 323 329 0 -.00145 -65e-5 775e-
6 -1 0 0 30 329 1904 0 324 325 330 0 +71e-5 -65e-5 .0013 0 0 -1 16 324 1616 0 ?3
31 29 322 329 0 0 1 30 330 1902 0 29 329 332 0 +.00119 -65e-5 .0013 0 0 -1 16 29
 1709 0 ?23 333 324 330 0 0 1 30 332 1440 0 334 330 335 0 +24e-5 .00082517396499
215 625e-6 0 1 0 16 334 1060 0 ?232 336 337 332 0 0 1 31 335 1439 0 336 332 338
 0 +24e-5 .00082517396499215 525e-6 -1 0 0 0 0 -1 1e-4 16 336 1063 0 ?230 339 33
4 335 0 0 1 30 338 1438 0 339 335 340 0 +24e-5 95e-5 .000245603215680934 0 .0871
557427476556 -.996194698091746 16 339 1066 0 ?227 341 336 338 0 0 1 31 340 1437
 0 341 338 342 0 +24e-5 .001199048674522936 .0002673921513678475 1 0 0 0 0 1 25e
-5 16 341 1069 0 ?224 343 339 340 0 0 1 30 342 1436 0 343 340 344 0 +24e-5 .0013
8692663858785 1355260259016894e-35 0 .996194698091746 -.0871557427476581 16 343
 1072 0 ?221 345 341 342 0 0 1 30 344 1435 0 345 342 346 0 +24e-5 .0014 .0001494
292047137618 0 .0871557427476591 .996194698091746 16 345 1075 0 ?218 347 343 344
 0 0 1 30 346 1434 0 347 344 348 0 +24e-5 .00119033310024817 .000167772681558673
 0 -.996194698091746 .0871557427476576 16 347 1078 0 ?215 349 345 346 0 0 1 31 3
48 1433 0 349 346 350 0 +24e-5 .001199048674522936 .0002673921513678475 -1 0 0 0
 0 -1 1e-4 16 349 1081 0 ?212 351 347 348 0 0 1 30 350 1432 0 351 348 352 0 +24e
-5 .001074222639515086 .000546788935686914 0 -.0871557427476552 .996194698091746
 16 351 1084 0 ?209 353 349 350 0 0 1 31 352 1431 0 353 350 354 0 +24e-5 .000825
17396499215 525e-6 1 0 0 0 0 1 25e-5 16 353 1087 0 ?206 355 351 352 0 0 1 30 354
 1430 0 355 352 356 0 +24e-5 -.00082517396499215 775e-6 0 -1 0 16 355 1090 0 ?35
7 358 353 354 0 0 1 30 356 1420 0 333 354 359 0 +-24e-5 .00082517396499215 625e-
6 0 1 0 16 333 1024 0 ?203 360 29 356 0 0 1 31 359 1419 0 360 356 361 0 +-24e-5
 .00082517396499215 525e-6 -1 0 0 0 0 -1 1e-4 16 360 1123 0 ?200 362 333 359 0 0
 1 30 361 1418 0 362 359 363 0 +-24e-5 95e-5 .000245603215680934 0 .087155742747
6556 -.996194698091746 16 362 1127 0 ?197 364 360 361 0 0 1 31 363 1417 0 364 36
1 365 0 +-24e-5 .001199048674522936 .0002673921513678475 1 0 0 0 0 1 25e-5 16 36
4 1131 0 ?194 366 362 363 0 0 1 30 365 1416 0 366 363 367 0 +-24e-5 .00138692663
858785 1355260259016894e-35 0 .996194698091746 -.0871557427476581 16 366 1135 0
 ?191 368 364 365 0 0 1 30 367 1415 0 368 365 369 0 +-24e-5 .0014 .0001494292047
137618 0 .0871557427476591 .996194698091746 16 368 1139 0 ?188 370 366 367 0 0 1
 30 369 1414 0 370 367 371 0 +-24e-5 .00119033310024817 .000167772681558673 0 -.
996194698091746 .0871557427476576 16 370 1143 0 ?185 372 368 369 0 0 1 31 371 14
13 0 372 369 373 0 +-24e-5 .001199048674522936 .0002673921513678475 -1 0 0 0 0 -
1 1e-4 16 372 1147 0 ?182 374 370 371 0 0 1 30 373 1412 0 374 371 375 0 +-24e-5
 .001074222639515086 .000546788935686914 0 -.0871557427476552 .996194698091746 1
6 374 1151 0 ?179 376 372 373 0 0 1 31 375 1411 0 376 373 377 0 +-24e-5 .0008251
7396499215 525e-6 1 0 0 0 0 1 25e-5 16 376 1155 0 ?175 337 374 375 0 0 1 30 377
 1410 0 337 375 378 0 +-24e-5 -.00082517396499215 775e-6 0 -1 0 16 337 1160 0 ?3
79 334 376 377 0 0 1 30 378 1398 0 358 377 380 0 +24e-5 .00082517396499215 775e-
6 -1 0 0 16 358 1159 0 ?381 382 355 378 0 0 1 30 380 1397 0 382 378 383 0 +24e-5
 .001074222639515086 .000546788935686914 -1 0 0 16 382 1158 0 ?384 385 358 380 0
 0 1 30 383 1396 0 385 380 386 0 +24e-5 .001099429204713762 .000258676577093082
 -1 0 0 16 385 1154 0 ?387 388 382 383 0 0 1 30 386 1395 0 388 383 389 0 +24e-5
 .00119033310024817 .000167772681558673 -1 0 0 16 388 1150 0 ?390 391 385 386 0
 0 1 30 389 1394 0 391 386 392 0 +24e-5 .0014 .0001494292047137618 -1 0 0 16 391
 1146 0 ?393 394 388 389 0 0 1 30 392 1393 0 394 389 395 0 +24e-5 .0013869266385
8785 1355260259016894e-35 -1 0 0 16 394 1142 0 ?396 397 391 392 0 0 1 30 395 139
2 0 397 392 398 0 +24e-5 .001177259738836022 1834347684491145e-20 -1 0 0 16 397
 1138 0 ?399 400 394 395 0 0 1 30 398 1391 0 400 395 401 0 +24e-5 95e-5 .0002456
03215680934 -1 0 0 16 400 1134 0 ?402 403 397 398 0 0 1 30 401 1390 0 403 398 40
4 0 +24e-5 .000924793434801325 .000533715574274766 -1 0 0 16 403 1130 0 ?405 406
 400 401 0 0 1 30 404 1389 0 406 401 407 0 +24e-5 .00082517396499215 625e-6 -1 0
 0 16 406 1126 0 ?408 409 403 404 0 0 1 30 407 1382 0 409 404 410 0 +-24e-5 65e-
5 .0013 0 0 1 16 409 1094 0 ?411 412 406 407 0 0 1 30 410 1380 0 412 407 413 0 +
24e-5 65e-5 .0013 0 0 1 16 412 1190 0 ?414 415 409 410 0 0 1 30 413 1377 0 415 4
10 416 0 -.00145 65e-5 625e-6 -1 0 0 16 415 1022 0 ?417 418 412 413 0 0 1 30 416
 856 0 419 413 420 0 +-71e-5 -.001177259738836022 1834347684491145e-20 0 .996194
698091746 .0871557427476581 16 419 457 0 ?421 422 423 416 0 0 1 31 420 855 0 422
 416 424 0 +-71e-5 -.001199048674522936 .0002673921513678475 1 0 0 0 0 1 25e-5 1
6 422 460 0 ?167 425 419 420 0 0 1 30 424 854 0 425 420 426 0 +-71e-5 -.00092479
3434801325 .000533715574274766 0 .0871557427476556 .996194698091746 16 425 463 0
 ?164 427 422 424 0 0 1 31 426 853 0 427 424 428 0 +-71e-5 -.00082517396499215 5
25e-6 -1 0 0 0 0 -1 1e-4 16 427 466 0 ?161 429 425 426 0 0 1 30 428 852 0 429 42
6 430 0 +-71e-5 .00082517396499215 625e-6 0 1 0 16 429 469 0 ?431 432 427 428 0
 0 1 30 430 842 0 432 428 433 0 +-71e-5 -.00082517396499215 775e-6 0 -1 0 16 432
 439 0 ?158 434 429 430 0 0 1 31 433 841 0 434 430 435 0 +-71e-5 -.0008251739649
9215 525e-6 1 0 0 0 0 1 25e-5 16 434 442 0 ?155 436 432 433 0 0 1 30 435 840 0 4
36 433 437 0 +-71e-5 -.001099429204713762 .000258676577093082 0 -.08715574274765
52 -.996194698091746 16 436 445 0 ?152 438 434 435 0 0 1 31 437 839 0 438 435 43
9 0 +-71e-5 -.001199048674522936 .0002673921513678475 -1 0 0 0 0 -1 1e-4 16 438
 448 0 ?149 440 436 437 0 0 1 30 439 838 0 440 437 441 0 +-71e-5 -.0014 .0001494
292047137618 0 -.996194698091746 -.0871557427476576 16 440 451 0 ?146 442 438 43
9 0 0 1 30 441 837 0 442 439 443 0 +-71e-5 -.00138692663858785 135525271560688e-
34 0 .087155742747659 -.996194698091745 16 442 454 0 ?143 444 440 441 0 0 1 30 4
43 836 0 418 441 445 0 +-.00119 -.001177259738836022 1834347684491145e-20 0 .996
194698091746 .0871557427476581 16 418 515 0 ?446 447 415 443 0 0 1 31 445 835 0
 447 443 448 0 +-.00119 -.001199048674522936 .0002673921513678475 1 0 0 0 0 1 25
e-5 16 447 519 0 ?137 449 418 445 0 0 1 30 448 834 0 449 445 450 0 +-.00119 -.00
0924793434801325 .000533715574274766 0 .0871557427476556 .996194698091746 16 449
 523 0 ?134 451 447 448 0 0 1 31 450 833 0 451 448 452 0 +-.00119 -.000825173964
99215 525e-6 -1 0 0 0 0 -1 1e-4 16 451 527 0 ?131 453 449 450 0 0 1 30 452 832 0
 453 450 454 0 +-.00119 .00082517396499215 625e-6 0 1 0 16 453 532 0 ?455 456 45
1 452 0 0 1 30 454 822 0 456 452 457 0 +-.00119 -.00082517396499215 775e-6 0 -1
 0 16 456 512 0 ?128 458 453 454 0 0 1 31 457 821 0 458 454 459 0 +-.00119 -.000
82517396499215 525e-6 1 0 0 0 0 1 25e-5 16 458 575 0 ?125 460 456 457 0 0 1 30 4
59 820 0 460 457 461 0 +-.00119 -.001099429204713762 .000258676577093082 0 -.087
1557427476552 -.996194698091746 16 460 579 0 ?122 462 458 459 0 0 1 31 461 819 0
 462 459 463 0 +-.00119 -.001199048674522936 .0002673921513678475 -1 0 0 0 0 -1
 1e-4 16 462 583 0 ?119 464 460 461 0 0 1 30 463 818 0 464 461 465 0 +-.00119 -.
0014 .0001494292047137618 0 -.996194698091746 -.0871557427476576 16 464 587 0 ?1
16 423 462 463 0 0 1 30 465 817 0 423 463 466 0 +-.00119 -.00138692663858785 135
525271560688e-34 0 .087155742747659 -.996194698091745 16 423 591 0 ?112 419 464
 465 0 0 1 30 466 816 0 444 465 467 0 +-71e-5 -.00138692663858785 13552527156068
8e-34 -1 0 0 16 444 518 0 ?468 469 442 466 0 0 1 30 467 815 0 469 466 470 0 +-71
e-5 -.0014 .0001494292047137618 -1 0 0 16 469 594 0 ?471 472 444 467 0 0 1 30 47
0 814 0 472 467 473 0 +-71e-5 -.00119033310024817 .000167772681558673 -1 0 0 16
 472 590 0 ?474 475 469 470 0 0 1 30 473 813 0 475 470 476 0 +-71e-5 -.001099429
204713762 .000258676577093082 -1 0 0 16 475 586 0 ?477 478 472 473 0 0 1 30 476
 812 0 478 473 479 0 +-71e-5 -.001074222639515086 .000546788935686914 -1 0 0 16
 478 582 0 ?480 481 475 476 0 0 1 30 479 811 0 481 476 482 0 +-71e-5 -.000825173
96499215 775e-6 -1 0 0 16 481 578 0 ?483 484 478 479 0 0 1 30 482 800 0 484 479
 485 0 +-71e-5 -.00082517396499215 625e-6 -1 0 0 16 484 531 0 ?486 487 481 482 0
 0 1 30 485 799 0 487 482 488 0 +-71e-5 -.000924793434801325 .000533715574274766
 -1 0 0 16 487 530 0 ?489 490 484 485 0 0 1 30 488 798 0 490 485 491 0 +-71e-5 -
95e-5 .000245603215680934 -1 0 0 16 490 526 0 ?492 493 487 488 0 0 1 30 491 797
 0 493 488 494 0 +-71e-5 -.001177259738836022 183434768449116e-19 -1 0 0 16 493
 522 0 ?495 496 490 491 0 0 1 30 494 795 0 496 491 497 0 -.00145 -65e-5 775e-6 -
1 0 0 16 496 510 0 ?498 499 493 494 0 0 1 30 497 793 0 499 494 500 0 +-.00119 -6
5e-5 .0013 0 0 -1 16 499 505 0 ?501 502 496 497 0 0 1 30 500 791 0 502 497 503 0
 +-71e-5 -65e-5 .0013 0 0 -1 16 502 598 0 ?35 504 499 500 0 0 1 30 503 8 0 505 5
00 506 0 +.00145 -65e-5 .0013 0 0 -1 16 505 167 0 ?507 508 509 503 0 0 1 30 506
 14 0 508 503 510 0 +.00145 65e-5 .0013 0 0 1 16 508 183 0 ?511 512 505 506 0 0
 1 30 510 68 0 513 506 514 0 +-.00145 -65e-5 .0013 0 0 -1 16 513 161 0 ?515 509
 516 510 0 0 1 30 514 66 0 509 510 517 0 +-.00145 65e-5 .0013 0 0 1 16 509 199 0
 ?518 505 513 514 0 0 1 30 517 146 0 512 514 519 0 +-.001376216061781244 65e-5 1
e-4 0 1 0 16 512 144 0 ?102 520 508 517 0 0 1 30 519 150 0 520 517 521 0 +.00145
 .000576216061781244 1e-4 1 0 0 16 520 148 0 ?99 522 512 519 0 0 1 30 521 154 0
 522 519 523 0 +.001376216061781244 -65e-5 1e-4 0 -1 0 16 522 152 0 ?96 524 520
 521 0 0 1 30 523 157 0 524 521 525 0 +.00145 -.000576216061781244 1e-4 -1 0 0 1
6 524 155 0 ?526 527 522 523 0 0 1 30 525 174 0 528 523 529 0 +.00145 -65e-5 .00
0774999999999987 -1 0 0 16 528 172 0 ?27 530 531 525 531 527 1 30 529 179 0 532
 525 533 0 +.00145 -65e-5 .000625000000000013 1 0 0 16 532 177 0 ?534 535 536 52
9 530 536 1 30 533 190 0 535 529 537 0 +.00145 -65e-5 .000774999999999987 0 -1 0
 16 535 188 0 ?87 538 532 533 0 0 1 30 537 195 0 538 533 539 0 +.00145 65e-5 .00
0625000000000013 0 1 0 16 538 193 0 ?82 540 535 537 0 0 1 30 539 206 0 541 537 5
42 0 +.00145 65e-5 .000774999999999987 1 0 0 16 541 204 0 ?50 543 544 539 540 54
4 1 30 542 211 0 545 539 546 0 +.00145 65e-5 .000625000000000013 -1 0 0 16 545 2
09 0 ?47 547 543 542 543 543 1 30 546 216 0 547 542 548 0 +-.00145 -65e-5 .00077
4999999999987 0 1 0 16 547 214 0 ?73 549 545 546 0 0 1 30 548 221 0 549 546 550
 0 +-.00145 -65e-5 .000625000000000013 0 -1 0 16 549 219 0 ?90 551 547 548 0 0 1
 30 550 230 0 551 548 552 0 +-.001376216061781244 65e-5 .0013 0 -1 0 16 551 228
 0 ?67 553 549 550 0 0 1 30 552 234 0 553 550 554 0 +.00145 -.000576216061781244
 .0013 1 0 0 16 553 232 0 ?64 21 551 552 0 0 1 30 554 238 0 21 552 22 0 +.001376
216061781244 65e-5 .0013 0 1 0 16 21 236 0 ?61 9 553 554 0 0 1 30 22 241 0 9 554
 555 0 +.00145 .000576216061781244 .0013 -1 0 0 30 555 294 0 556 22 557 0 --.001
352916587517204 -.000552916587517205 -657843737258219e-19 -.1378445374916258 -.1
378445374916258 .98081484846399 16 556 278 0 ?105 558 559 555 0 0 1 30 557 293 0
 558 555 560 0 +.00145 -65e-5 .000625000000000013 .1378445374916258 -.1378445374
916258 .98081484846399 16 558 276 0 ?561 562 556 557 0 0 1 30 560 292 0 562 557
 563 0 +-.00137761803898837 .000577618038988369 .0001099755861710472 .1378445374
916258 -.1378445374916258 -.98081484846399 16 562 273 0 ?564 516 558 560 0 0 1 3
0 563 291 0 516 560 565 0 +.00145 65e-5 .000625000000000013 .1378445374916258 .1
378445374916258 .98081484846399 16 516 270 0 ?566 513 562 563 0 0 1 30 565 347 0
 504 563 567 0 --.00137761803898837 .000577618038988369 .001290024413828952 -.13
78445374916258 .1378445374916258 -.98081484846399 16 504 331 0 ?70 568 502 565 0
 0 1 30 567 346 0 568 565 569 0 +.001425298548528836 .000625298548528836 .000950
759959896856 .1378445374916258 .1378445374916258 -.98081484846399 16 568 329 0 ?
570 571 504 567 0 0 1 30 569 345 0 571 567 17 0 +-.001352916587517204 -.00055291
6587517205 .001465784373725822 .1378445374916258 .1378445374916258 .980814848463
99 16 571 326 0 ?572 559 568 569 0 0 1 30 17 344 0 559 569 6 0 +.00145 -65e-5 .0
00774999999999987 .1378445374916258 -.1378445374916258 -.98081484846399 16 559 3
23 0 ?573 556 571 17 0 0 1 17 573 0 574 575 576 85 577 559 0 0 +15 574 313 0 573
 578 0 17 575 0 574 579 573 77 87 535 0 511 -17 576 0 574 573 579 62 61 21 0 0 -
17 577 0 580 581 582 62 573 559 0 576 -15 580 311 0 583 14 0 17 581 0 580 583 57
7 65 64 553 0 572 -17 582 0 580 577 39 85 27 528 0 573 -17 39 0 580 582 234 32 5
84 322 0 27 +17 27 0 25 23 585 32 582 528 0 28 +15 25 82 0 27 586 0 17 585 0 25
 27 26 85 507 505 0 582 -17 28 0 306 283 587 32 23 29 0 588 -17 283 0 306 280 28
 281 588 589 0 590 +17 587 0 306 28 286 10 591 592 0 0 +17 588 0 593 584 590 32
 283 589 0 0 -15 593 1789 0 584 594 0 17 584 0 593 254 588 204 39 322 0 595 -17
 590 0 593 588 254 281 596 597 0 598 -16 589 1550 0 ?283 599 592 600 0 0 1 16 59
9 1553 0 ?280 601 589 602 0 0 1 16 592 1580 0 ?587 589 603 604 0 0 1 30 600 1953
 0 589 604 602 0 +.00119 -.00082517396499215 775e-6 0 -1 0 30 604 1963 0 592 605
 600 0 +.00119 .00082517396499215 625e-6 0 1 0 31 602 1952 0 599 600 606 0 +.001
19 -.00082517396499215 525e-6 1 0 0 0 0 1 25e-5 30 606 1951 0 601 602 607 0 +.00
119 -.001099429204713762 .000258676577093082 0 -.0871557427476552 -.996194698091
746 16 601 1556 0 ?277 608 599 606 0 0 1 31 607 1950 0 608 606 609 0 +.00119 -.0
01199048674522936 .0002673921513678475 -1 0 0 0 0 -1 1e-4 16 608 1559 0 ?274 610
 601 607 0 0 1 30 609 1949 0 610 607 611 0 +.00119 -.0014 .0001494292047137618 0
 -.996194698091746 -.0871557427476576 16 610 1562 0 ?271 313 608 609 0 0 1 30 61
1 1948 0 313 609 612 0 +.00119 -.00138692663858785 135525271560688e-34 0 .087155
742747659 -.996194698091745 16 313 1565 0 ?268 613 610 611 0 0 1 30 612 1947 0 3
21 611 614 0 +71e-5 -.001177259738836022 1834347684491145e-20 0 .996194698091746
 .0871557427476581 16 321 1626 0 ?302 615 16 612 0 0 1 31 614 1946 0 615 612 616
 0 +71e-5 -.001199048674522936 .0002673921513678475 1 0 0 0 0 1 25e-5 16 615 163
0 0 ?263 617 321 614 0 0 1 30 616 1945 0 617 614 618 0 +71e-5 -.0009247934348013
25 .000533715574274766 0 .0871557427476556 .996194698091746 16 617 1634 0 ?260 6
19 615 616 0 0 1 31 618 1944 0 619 616 620 0 +71e-5 -.00082517396499215 525e-6 -
1 0 0 0 0 -1 1e-4 16 619 1638 0 ?257 621 617 618 0 0 1 30 620 1943 0 621 618 622
 0 +71e-5 .00082517396499215 625e-6 0 1 0 16 621 1643 0 ?623 624 619 620 0 0 1 3
0 622 1933 0 624 620 625 0 +71e-5 -.00082517396499215 775e-6 0 -1 0 16 624 1623
 0 ?254 626 621 622 0 0 1 31 625 1932 0 626 622 627 0 +71e-5 -.00082517396499215
 525e-6 1 0 0 0 0 1 25e-5 16 626 1686 0 ?251 628 624 625 0 0 1 30 627 1931 0 628
 625 629 0 +71e-5 -.001099429204713762 .000258676577093082 0 -.0871557427476552
 -.996194698091746 16 628 1690 0 ?248 630 626 627 0 0 1 31 629 1930 0 630 627 63
1 0 +71e-5 -.001199048674522936 .0002673921513678475 -1 0 0 0 0 -1 1e-4 16 630 1
694 0 ?245 632 628 629 0 0 1 30 631 1929 0 632 629 633 0 +71e-5 -.0014 .00014942
92047137618 0 -.996194698091746 -.0871557427476576 16 632 1698 0 ?242 317 630 63
1 0 0 1 30 633 1928 0 317 631 634 0 +71e-5 -.00138692663858785 135525271560688e-
34 0 .087155742747659 -.996194698091745 16 317 1702 0 ?238 308 632 633 0 0 1 30
 634 1927 0 613 633 635 0 +.00119 -.00138692663858785 135525271560688e-34 -1 0 0
 16 613 1629 0 ?316 636 313 634 0 0 1 30 635 1926 0 636 634 637 0 +.00119 -.0014
 .0001494292047137618 -1 0 0 16 636 1705 0 ?638 639 613 635 0 0 1 30 637 1925 0
 639 635 640 0 +.00119 -.00119033310024817 .000167772681558673 -1 0 0 16 639 170
1 0 ?641 642 636 637 0 0 1 30 640 1924 0 642 637 643 0 +.00119 -.001099429204713
762 .000258676577093082 -1 0 0 16 642 1697 0 ?644 645 639 640 0 0 1 30 643 1923
 0 645 640 646 0 +.00119 -.001074222639515086 .000546788935686914 -1 0 0 16 645
 1693 0 ?647 597 642 643 0 0 1 30 646 1922 0 597 643 648 0 +.00119 -.00082517396
499215 775e-6 -1 0 0 16 597 1689 0 ?596 649 645 646 0 0 1 30 648 1911 0 649 646
 328 0 +.00119 -.00082517396499215 625e-6 -1 0 0 16 649 1642 0 ?650 326 597 648
 0 0 1 30 328 1910 0 326 648 327 0 +.00119 -.000924793434801325 .000533715574274
766 -1 0 0 16 326 1641 0 ?651 304 649 328 0 0 1 17 651 0 652 257 653 258 654 326
 0 655 +15 652 1805 0 257 656 0 17 257 0 652 657 651 255 655 619 0 650 +17 653 0
 652 651 657 287 286 603 0 0 -17 654 0 658 305 260 287 651 326 0 653 -17 655 0 6
59 660 661 258 257 619 0 0 -15 659 1778 0 595 662 0 17 660 0 659 266 655 261 260
 617 0 0 -17 661 0 659 655 331 255 623 621 0 0 -17 331 0 659 661 595 24 34 324 0
 623 +17 623 0 663 664 650 24 661 621 0 0 +15 663 1809 0 664 665 0 17 664 0 663
 591 623 10 38 666 0 587 +17 650 0 663 623 591 255 657 649 0 661 +17 591 0 663 6
50 664 284 587 592 0 0 -17 657 0 652 653 257 284 650 649 0 591 -17 38 0 667 36 3
0 24 664 666 0 331 -16 666 1514 0 ?664 37 530 529 37 530 1 16 37 406 0 ?31 536 6
66 529 536 666 1 16 530 1517 0 ?26 666 528 529 666 532 1 17 26 0 25 585 23 83 30
 530 0 561 +17 30 0 667 38 561 10 26 530 0 664 -17 561 0 667 30 668 83 669 558 0
 670 +15 667 264 0 561 671 0 17 668 0 667 561 105 94 526 524 0 0 -17 669 0 672 6
73 670 94 561 558 0 668 -17 670 0 672 669 566 83 82 538 0 507 -15 672 260 0 566
 674 0 17 566 0 672 670 673 80 675 516 0 0 +17 82 0 676 511 507 80 670 538 0 677
 +17 507 0 676 82 87 83 585 505 0 0 +15 676 3 0 507 678 0 17 87 0 676 507 511 85
 575 535 0 585 +17 511 0 676 87 82 77 677 508 0 0 +17 677 0 679 47 79 80 511 508
 0 680 -15 679 1526 0 79 681 0 17 47 0 679 414 677 45 680 545 0 417 +17 79 0 679
 677 414 77 171 540 0 570 +17 680 0 682 675 417 80 47 545 0 566 -15 682 258 0 68
3 684 0 17 675 0 682 685 680 97 566 516 0 673 -17 417 0 682 680 44 45 686 415 0
 687 +17 44 0 682 417 683 40 76 543 0 688 -17 686 0 689 203 690 40 417 415 0 691
 -17 687 0 692 232 357 45 414 412 0 690 -15 692 1252 0 687 693 0 17 232 0 692 23
0 687 176 690 334 0 694 +17 357 0 692 687 206 141 695 355 0 0 +17 414 0 679 79 4
7 141 687 412 0 696 +17 690 0 689 686 694 45 232 334 0 0 -15 689 1246 0 686 697
 0 17 694 0 689 690 203 176 408 406 0 698 -17 203 0 689 694 686 201 691 333 0 40
8 +17 408 0 699 200 698 201 694 406 0 700 +17 698 0 699 408 701 176 230 336 0 0
 -15 699 1290 0 200 702 0 17 701 0 699 698 200 228 405 403 0 703 -17 230 0 692 2
27 232 228 698 336 0 701 +17 227 0 692 224 230 225 703 339 0 704 +17 224 0 692 2
21 227 222 705 341 0 706 +17 703 0 707 405 704 228 227 339 0 0 -17 704 0 707 703
 197 225 402 400 0 705 -15 707 1294 0 197 708 0 17 197 0 707 704 405 195 709 362
 0 402 +17 402 0 710 194 705 195 704 400 0 711 +17 705 0 710 402 706 225 224 341
 0 0 -15 710 1298 0 194 712 0 17 706 0 710 705 194 222 399 397 0 713 -17 194 0 7
10 706 402 192 711 364 0 399 +17 399 0 714 191 713 192 706 397 0 715 +17 713 0 7
14 399 716 222 221 343 0 0 -15 714 1302 0 191 717 0 17 716 0 714 713 191 219 396
 394 0 718 -17 221 0 692 218 224 219 713 343 0 716 +17 218 0 692 215 221 216 718
 345 0 719 +17 215 0 692 212 218 213 720 347 0 721 +17 718 0 722 396 719 219 218
 345 0 0 -17 719 0 722 718 188 216 393 391 0 720 -15 722 1306 0 188 723 0 17 188
 0 722 719 396 186 724 368 0 393 +17 393 0 725 185 720 186 719 391 0 726 +17 720
 0 725 393 721 216 215 347 0 0 -15 725 1310 0 185 727 0 17 721 0 725 720 185 213
 390 388 0 728 -17 185 0 725 721 393 183 726 370 0 390 +17 390 0 729 182 728 183
 721 388 0 730 +17 728 0 729 390 731 213 212 349 0 0 -15 729 1314 0 182 732 0 17
 731 0 729 728 182 210 387 385 0 733 -17 212 0 692 209 215 210 728 349 0 731 +17
 209 0 692 206 212 207 733 351 0 734 +17 206 0 692 357 209 172 735 353 0 736 +17
 733 0 737 387 734 210 209 351 0 0 -17 734 0 737 733 179 207 384 382 0 735 -15 7
37 1318 0 179 738 0 17 179 0 737 734 387 177 739 374 0 384 +17 384 0 740 175 735
 177 734 382 0 741 +17 735 0 740 384 736 207 206 353 0 0 -15 740 1322 0 175 742
 0 17 736 0 740 735 175 172 381 358 0 695 -17 175 0 740 736 384 173 741 376 0 38
1 +17 381 0 743 379 695 173 736 358 0 744 +17 695 0 743 381 696 172 357 355 0 0
 -15 743 1326 0 696 745 0 17 696 0 743 695 379 141 746 544 0 357 +17 379 0 743 6
96 381 48 744 337 0 0 +17 746 0 747 748 171 48 696 544 0 411 -16 544 979 0 ?696
 541 540 539 541 540 1 16 540 982 0 ?79 544 538 539 544 541 1 15 747 317 0 570 7
49 0 17 748 0 747 70 746 71 50 541 0 750 -17 171 0 747 746 570 141 79 540 0 414
 -17 411 0 751 744 691 48 688 409 0 379 +15 751 1258 0 691 752 0 17 744 0 751 74
1 411 173 379 337 0 0 -17 691 0 751 411 700 40 203 333 0 0 -17 688 0 753 76 50 4
0 411 409 0 686 -15 753 1003 0 688 754 0 17 76 0 753 518 688 74 44 543 0 755 +17
 50 0 753 688 518 48 748 541 0 746 +17 518 0 753 50 76 71 755 509 0 748 +17 755
 0 756 90 73 74 518 509 0 683 -15 756 44 0 755 757 0 17 90 0 756 758 755 88 759
 549 0 515 +17 73 0 756 755 758 71 760 547 0 518 +17 683 0 682 44 685 74 564 562
 0 759 -17 685 0 682 683 675 100 99 520 0 564 -17 564 0 761 762 759 100 683 562
 0 0 +17 759 0 761 564 763 74 90 549 0 0 -15 761 262 0 564 764 0 17 763 0 761 75
9 762 88 105 556 0 0 -17 762 0 761 763 564 103 102 512 0 526 -17 105 0 667 668 7
65 103 763 556 0 762 +17 765 0 667 105 55 88 534 532 0 763 -17 55 0 667 765 36 5
3 766 536 0 534 -17 534 0 767 768 515 53 765 532 0 501 +15 767 423 0 768 769 0 1
7 768 0 767 93 534 106 501 499 0 770 -17 515 0 767 534 93 88 758 513 0 765 +17 5
01 0 771 772 773 53 768 499 0 455 +15 771 667 0 773 774 0 17 772 0 771 775 501 1
29 455 453 0 0 -17 773 0 771 501 776 106 128 456 0 0 -17 455 0 777 766 486 53 77
2 453 0 0 +15 777 698 0 766 778 0 17 766 0 777 779 455 51 55 536 0 431 +17 486 0
 777 455 779 129 780 484 0 772 +17 779 0 777 486 766 159 431 429 0 0 -17 780 0 7
81 782 131 159 486 484 0 779 -15 781 694 0 131 783 0 17 782 0 781 489 780 162 16
1 427 0 0 -17 131 0 781 780 489 129 775 451 0 486 +17 489 0 781 131 782 132 784
 487 0 775 +17 775 0 771 785 772 132 131 451 0 0 -17 785 0 771 140 775 135 134 4
49 0 0 -17 140 0 771 786 785 138 137 447 0 495 -17 134 0 787 784 492 132 785 449
 0 489 +15 787 690 0 134 788 0 17 784 0 787 789 134 162 489 487 0 782 -17 492 0
 787 134 789 135 790 490 0 785 +17 789 0 787 492 784 165 164 425 0 0 -17 790 0 7
91 169 137 165 492 490 0 789 -15 791 686 0 137 792 0 17 169 0 791 495 790 113 16
7 422 0 421 -17 137 0 791 790 495 135 140 447 0 492 +17 495 0 791 137 169 138 79
3 493 0 446 +17 793 0 794 795 446 113 495 493 0 0 -17 446 0 794 793 468 138 786
 418 0 0 +15 794 682 0 446 796 0 17 468 0 794 446 795 110 797 444 0 786 +17 786
 0 771 798 140 110 446 418 0 0 -17 798 0 771 799 786 114 112 423 0 0 -17 799 0 7
71 800 798 117 116 464 0 0 -17 112 0 801 797 471 110 798 423 0 468 +15 801 758 0
 112 802 0 17 797 0 801 803 112 109 468 444 0 795 -17 471 0 801 112 803 114 804
 469 0 798 +17 803 0 801 471 797 144 143 442 0 0 -17 804 0 805 806 116 144 471 4
69 0 803 -15 805 754 0 116 807 0 17 806 0 805 474 804 147 146 440 0 0 -17 116 0
 805 804 474 114 799 464 0 471 +17 474 0 805 116 806 117 808 472 0 799 +17 808 0
 809 810 119 147 474 472 0 806 -15 809 750 0 119 811 0 17 810 0 809 477 808 150
 149 438 0 0 -17 119 0 809 808 477 117 800 462 0 474 +17 477 0 809 119 810 120 8
12 475 0 800 +17 800 0 771 813 799 120 119 462 0 0 -17 813 0 771 776 800 123 122
 460 0 0 -17 776 0 771 773 813 126 125 458 0 0 -17 122 0 814 812 480 120 813 460
 0 477 +15 814 746 0 122 815 0 17 812 0 814 816 122 150 477 475 0 810 -17 480 0
 814 122 816 123 817 478 0 813 +17 816 0 814 480 812 153 152 436 0 0 -17 817 0 8
18 819 125 153 480 478 0 816 -15 818 742 0 125 820 0 17 819 0 818 483 817 156 15
5 434 0 0 -17 125 0 818 817 483 123 776 458 0 480 +17 483 0 818 125 819 126 821
 481 0 776 +17 821 0 822 823 128 156 483 481 0 819 -15 822 678 0 770 824 0 17 82
3 0 822 770 821 56 158 432 0 0 -17 128 0 822 821 770 126 773 456 0 483 +17 770 0
 822 128 823 106 498 496 0 773 -17 498 0 580 234 108 56 770 496 0 825 +17 234 0
 580 39 498 204 58 531 0 34 -17 108 0 580 498 583 106 93 527 0 768 -17 825 0 826
 158 431 56 35 502 0 823 -15 826 661 0 825 827 0 17 158 0 826 155 825 156 823 43
2 0 821 +17 431 0 826 825 161 51 779 429 0 0 +17 35 0 33 31 58 51 825 502 0 36 +
15 33 1011 0 31 828 0 17 58 0 33 35 34 56 234 531 0 498 +17 36 0 667 55 38 51 31
 37 0 766 -17 34 0 33 58 31 204 331 324 0 584 -16 531 988 0 ?58 528 527 525 527
 528 1 16 527 400 0 ?93 531 524 525 528 531 1 17 93 0 767 515 768 91 108 527 0 7
58 +17 758 0 756 73 90 91 515 513 0 583 -17 583 0 580 108 581 91 572 571 0 760 -
17 572 0 829 830 760 65 583 571 0 0 +17 760 0 829 572 750 91 73 547 0 0 -15 829
 315 0 572 831 0 17 750 0 829 760 830 71 70 504 0 0 -17 830 0 829 750 572 68 67
 551 0 20 -17 70 0 747 832 748 68 750 504 0 830 +17 832 0 747 570 70 59 20 9 0 0
 -17 570 0 747 171 832 77 579 568 0 575 +17 20 0 833 67 61 68 832 9 0 0 +15 833
 225 0 61 12 834 17 67 0 833 64 20 65 830 551 0 581 +17 61 0 833 20 64 59 576 21
 0 579 +17 64 0 833 61 67 62 581 553 0 577 +17 579 0 574 576 575 59 570 568 0 83
2 -14 12 2148 835 ?681 0 833 4 836 -0 0 681 0 19 15 834 2146 0 837 12 0 17 837 0
 834 837 837 0 838 16 0 0 -17 838 0 839 838 838 0 837 16 0 0 +16 16 2152 0 ?838
 321 0 6 0 0 1 15 839 2155 0 838 840 0 14 840 2153 841 ?0 842 839 4 843 +0 0 0 8
42 19 81 1 841 2569 844 840 845 0 835 846 847 14 842 1866 846 ?840 848 849 4 850
 -0 0 840 848 19 53 843 2161 0 840 0 851 0 --.00106 -26e-5 .0013975 195e-6 0 1 0
 698296267768627e-29 0 1 13 19 29 0 0 0 0 0 0 8 12 50 851 1899 0 311 843 852 0 +
.00119 -.001199048674522936 .0002673921513678475 1 0 0 0 0 -1 14 311 1770 853 ?6
62 693 306 4 851 +0 0 662 693 19 50 852 1898 0 662 851 850 0 +71e-5 -.0011990486
74522936 .0002673921513678475 1 0 0 0 0 -1 14 662 1776 854 ?594 311 659 4 852 -0
 0 594 311 19 50 850 1897 0 842 852 855 0 +.00119 -.00138692663858785 1355252715
60688e-34 0 .996194698091745 .087155742747659 0 -.087155742747659 .9961946980917
45 50 855 1896 0 848 850 856 0 +.00119 -.0014 .0001494292047137618 0 .0871557427
476577 -.996194698091746 0 .996194698091746 .0871557427476576 14 848 1862 857 ?8
42 858 859 4 855 -0 0 842 858 19 51 856 1895 0 858 855 860 0 +.00119 -.001199048
674522936 .0002673921513678475 -1 0 0 1e-4 0 0 1 14 858 1858 861 ?848 862 863 4
 856 -0 0 848 862 19 50 860 1894 0 862 856 864 0 +.00119 -.001099429204713762 .0
00258676577093082 0 .996194698091746 -.0871557427476552 0 .0871557427476552 .996
194698091746 14 862 1854 865 ?858 866 867 4 860 -0 0 858 866 19 51 864 1893 0 86
6 860 868 0 -.00119 -.00082517396499215 525e-6 -1 0 0 25e-5 0 0 1 14 866 1850 86
9 ?862 665 870 4 864 -0 0 862 665 19 50 868 1892 0 594 864 871 0 +.00119 -.00082
517396499215 775e-6 0 0 -1 -1 0 0 14 594 1786 872 ?319 662 593 4 868 -0 0 319 66
2 19 50 871 1882 0 665 868 873 0 +.00119 .00082517396499215 625e-6 0 0 1 1 0 0 1
4 665 1806 874 ?866 656 663 4 871 -0 0 866 656 19 51 873 1881 0 656 871 875 0 +.
00119 -.00082517396499215 525e-6 -1 0 0 1e-4 0 0 1 14 656 1802 876 ?665 877 652
 4 873 -0 0 665 877 19 50 875 1880 0 877 873 878 0 +.00119 -.000924793434801325
 .000533715574274766 0 -.996194698091746 .0871557427476556 0 -.0871557427476556
 -.996194698091746 14 877 1798 879 ?656 299 658 4 875 -0 0 656 299 19 51 878 187
9 0 299 875 880 0 -.00119 -.001199048674522936 .0002673921513678475 -1 0 0 25e-5
 0 0 1 14 299 1794 881 ?877 319 294 4 878 -0 0 877 319 19 50 880 1878 0 319 878
 882 0 +.00119 -.001177259738836022 1834347684491145e-20 0 -.0871557427476581 .9
96194698091746 0 -.996194698091746 -.0871557427476581 14 319 1790 883 ?299 594 3
15 4 880 -0 0 299 594 19 50 882 1376 0 693 880 884 0 +24e-5 -.001199048674522936
 .0002673921513678475 1 0 0 0 0 -1 14 693 1250 885 ?311 752 692 4 882 +0 0 311 7
52 19 50 884 1375 0 752 882 886 0 +-24e-5 -.001199048674522936 .0002673921513678
475 1 0 0 0 0 -1 14 752 1256 887 ?693 697 751 4 884 -0 0 693 697 19 50 886 1369
 0 745 884 888 0 +24e-5 -.00082517396499215 775e-6 0 0 -1 -1 0 0 14 745 1323 889
 ?697 742 743 4 886 -0 0 697 742 19 51 888 1368 0 742 886 890 0 -24e-5 .00082517
396499215 525e-6 -1 0 0 25e-5 0 0 1 14 742 1319 891 ?745 702 740 4 888 -0 0 745
 702 19 50 890 1367 0 738 888 892 0 +24e-5 .001074222639515086 .0005467889356869
14 0 -.996194698091746 -.0871557427476552 0 .0871557427476552 -.996194698091746
 14 738 1315 893 ?702 732 737 4 890 -0 0 702 732 19 51 892 1366 0 732 890 894 0
 +24e-5 .001199048674522936 .0002673921513678475 -1 0 0 1e-4 0 0 1 14 732 1311 8
95 ?738 727 729 4 892 -0 0 738 727 19 50 894 1365 0 727 892 896 0 +24e-5 .001190
33310024817 .000167772681558673 0 -.0871557427476577 -.996194698091746 0 .996194
698091746 -.0871557427476576 14 727 1307 897 ?732 723 725 4 894 -0 0 732 723 19
 50 896 1364 0 723 894 898 0 +24e-5 .0014 .0001494292047137618 0 -.9961946980917
46 .0871557427476591 0 -.0871557427476591 -.996194698091746 14 723 1303 899 ?727
 717 722 4 896 -0 0 727 717 19 50 898 1363 0 717 896 900 0 +24e-5 .0013869266385
8785 1355260259016894e-35 0 .0871557427476581 .996194698091746 0 -.9961946980917
46 .0871557427476581 14 717 1299 901 ?723 712 714 4 898 -0 0 723 712 19 51 900 1
362 0 712 898 902 0 -24e-5 .001199048674522936 .0002673921513678475 -1 0 0 25e-5
 0 0 1 14 712 1295 903 ?717 708 710 4 900 -0 0 717 708 19 50 902 1361 0 708 900
 904 0 +24e-5 95e-5 .000245603215680934 0 .996194698091746 .0871557427476556 0 -
.0871557427476556 .996194698091746 14 708 1291 905 ?712 802 707 4 902 -0 0 712 8
02 19 51 904 1360 0 702 902 906 0 +24e-5 .00082517396499215 525e-6 -1 0 0 1e-4 0
 0 1 14 702 1287 907 ?742 738 699 4 904 -0 0 742 738 19 50 906 1359 0 697 904 90
8 0 +24e-5 .00082517396499215 625e-6 0 0 1 1 0 0 14 697 1243 909 ?752 745 689 4
 906 -0 0 752 745 19 50 908 788 0 827 906 910 0 +-71e-5 -.001199048674522936 .00
02673921513678475 1 0 0 0 0 -1 14 827 659 911 ?774 749 826 4 908 +0 0 774 749 19
 50 910 787 0 774 908 912 0 +-.00119 -.001199048674522936 .0002673921513678475 1
 0 0 0 0 -1 14 774 665 913 ?824 827 771 4 910 -0 0 824 827 19 50 912 786 0 802 9
10 914 0 +-71e-5 -.00138692663858785 135525271560688e-34 0 .996194698091745 .087
155742747659 0 -.087155742747659 .996194698091745 14 802 755 915 ?708 807 801 4
 912 -0 0 708 807 19 50 914 785 0 807 912 916 0 +-71e-5 -.0014 .0001494292047137
618 0 .0871557427476577 -.996194698091746 0 .996194698091746 .0871557427476576 1
4 807 751 917 ?802 811 805 4 914 -0 0 802 811 19 51 916 784 0 811 914 918 0 +-71
e-5 -.001199048674522936 .0002673921513678475 -1 0 0 1e-4 0 0 1 14 811 747 919 ?
807 815 809 4 916 -0 0 807 815 19 50 918 783 0 815 916 920 0 +-71e-5 -.001099429
204713762 .000258676577093082 0 .996194698091746 -.0871557427476552 0 .087155742
7476552 .996194698091746 14 815 743 921 ?811 820 814 4 918 -0 0 811 820 19 51 92
0 782 0 820 918 922 0 --71e-5 -.00082517396499215 525e-6 -1 0 0 25e-5 0 0 1 14 8
20 739 923 ?815 778 818 4 920 -0 0 815 778 19 50 922 781 0 824 920 924 0 +-71e-5
 -.00082517396499215 775e-6 0 0 -1 -1 0 0 14 824 675 925 ?796 774 822 4 922 -0 0
 796 774 19 50 924 771 0 778 922 926 0 +-71e-5 .00082517396499215 625e-6 0 0 1 1
 0 0 14 778 695 927 ?820 783 777 4 924 -0 0 820 783 19 51 926 770 0 783 924 928
 0 +-71e-5 -.00082517396499215 525e-6 -1 0 0 1e-4 0 0 1 14 783 691 929 ?778 788
 781 4 926 -0 0 778 788 19 50 928 769 0 788 926 930 0 +-71e-5 -.0009247934348013
25 .000533715574274766 0 -.996194698091746 .0871557427476556 0 -.087155742747655
6 -.996194698091746 14 788 687 931 ?783 792 787 4 928 -0 0 783 792 19 51 930 768
 0 792 928 932 0 --71e-5 -.001199048674522936 .0002673921513678475 -1 0 0 25e-5
 0 0 1 14 792 683 933 ?788 796 791 4 930 -0 0 788 796 19 50 932 767 0 796 930 93
4 0 +-71e-5 -.001177259738836022 1834347684491145e-20 0 -.0871557427476581 .9961
94698091746 0 -.996194698091746 -.0871557427476581 14 796 679 935 ?792 824 794 4
 932 -0 0 792 824 19 50 934 2 0 678 932 936 0 +.00145 -65e-5 .0013 1 0 0 0 0 -1
 14 678 1 937 ?757 938 676 4 934 +0 0 757 938 19 50 936 65 0 757 934 939 0 +-.00
145 -65e-5 .0013 1 0 0 0 0 -1 14 757 43 940 ?684 678 756 4 936 -0 0 684 678 19 5
0 939 90 0 681 936 941 0 +.00145 65e-5 .0013 0 -1 0 0 0 -1 14 681 1527 942 ?828
 12 679 4 939 -754 754 828 12 19 50 941 91 0 938 939 943 0 +.00145 65e-5 1e-4 0
 0 1 1 0 0 14 938 81 944 ?678 586 945 4 941 -0 0 678 586 19 50 943 92 0 586 941
 836 0 +.00145 -65e-5 .0013 0 1 0 0 0 1 14 586 83 946 ?938 769 25 4 943 -828 769
 938 769 19 50 836 93 0 12 943 947 0 +.00145 65e-5 .0013 0 0 -1 -1 0 0 50 947 29
0 0 671 836 948 0 -.00145 -.000576216061781244 1e-4 0 .990268068741571 .13917310
09600624 0 -.1391731009600624 .990268068741571 14 671 263 949 ?14 764 667 4 947
 +0 0 14 764 19 50 948 289 0 764 947 950 0 --.001376216061781244 65e-5 1e-4 .990
268068741571 0 .1391731009600624 .1391731009600624 0 -.990268068741571 14 764 26
1 951 ?671 674 761 4 948 +0 0 671 674 19 50 950 288 0 674 948 952 0 +.00145 -65e
-5 .000625000000000013 .990268068741571 0 -.1391731009600624 -.1391731009600624
 0 -.990268068741571 14 674 259 953 ?764 684 672 4 950 +0 0 764 684 19 50 952 28
7 0 684 950 954 0 -.00145 65e-5 .000625000000000013 0 -.990268068741571 .1391731
009600624 0 -.1391731009600624 -.990268068741571 14 684 257 955 ?674 757 682 4 9
52 +0 0 674 757 19 50 954 343 0 749 952 956 0 -.00145 .000576216061781244 .0013
 0 -.990268068741571 -.1391731009600624 0 .1391731009600624 -.990268068741571 14
 749 316 957 ?827 831 747 4 954 +0 0 827 831 19 50 956 342 0 831 954 15 0 --.001
376216061781244 65e-5 .0013 .990268068741571 0 -.1391731009600624 -.139173100960
0624 0 -.990268068741571 14 831 314 958 ?749 578 829 4 956 +0 0 749 578 19 50 15
 341 0 578 956 5 0 +.00145 -65e-5 .000774999999999987 .990268068741571 0 .139173
1009600624 .1391731009600624 0 -.990268068741571 14 578 312 959 ?831 14 574 4 15
 +0 0 831 14 19 81 1 959 2620 844 578 960 0 958 961 962 14 14 310 961 ?578 671 5
80 4 5 +0 0 578 671 19 81 1 961 2621 844 14 963 0 959 964 965 80 1 844 966 967 9
000 1 1 1 1 1 1 1 1 0 FFFFTFTFFFFFFF1 81 1 963 2408 968 14 0 961 969 960 970 81
 1 964 2622 844 769 971 0 961 972 973 82 1 965 225838271 14 769 424 964 ?586 754
 767 4 943 -586 828 586 754 19 81 1 971 2399 968 769 0 964 974 975 976 81 1 972
 2623 844 754 974 0 964 977 978 82 1 973 -1015413599 14 754 1004 972 ?769 828 75
3 4 939 -681 681 769 828 19 81 1 974 2398 968 754 0 972 979 971 980 81 1 977 262
4 844 828 979 0 972 0 981 82 1 978 227345599 14 828 1012 977 ?754 681 33 4 943 -
769 586 754 681 19 81 1 979 2397 968 828 0 977 982 974 983 82 1 981 227542207 80
 1 968 0 984 8001 0 0 0 0 3 5 0 0 0 FFFFTFTFFFFFFF2 81 1 982 2396 968 681 0 942
 985 979 986 83 3 983 .1098039215686274 .1098039215686274 .1098039215686274 81 1
 942 2611 844 681 982 0 940 944 987 81 1 985 2395 968 12 0 835 0 982 988 83 3 98
6 .1098039215686274 .1098039215686274 .1098039215686274 81 1 835 2568 844 12 985
 0 0 841 989 83 3 988 .1098039215686274 .1098039215686274 .1098039215686274 82 1
 989 331220158 81 1 940 2610 844 757 990 0 937 942 991 81 1 944 2612 844 938 992
 0 942 946 993 82 1 987 224462015 81 1 992 2401 968 938 0 944 975 994 995 81 1 9
46 2613 844 586 975 0 944 949 996 82 1 993 -460323700 81 1 975 2400 968 586 0 94
6 971 992 997 81 1 949 2614 844 671 969 0 946 951 998 82 1 996 -460061534 81 1 9
69 2407 968 671 0 949 999 963 1000 81 1 951 2615 844 764 999 0 949 953 1001 82 1
 998 224920767 81 1 999 2406 968 764 0 951 1002 969 1003 81 1 953 2616 844 674 1
002 0 951 955 1004 82 1 1001 -450231156 81 1 1002 2405 968 674 0 953 1005 999 10
06 81 1 955 2617 844 684 1005 0 953 957 1007 82 1 1004 -449051508 81 1 1005 2404
 968 684 0 955 990 1002 1008 81 1 957 2618 844 749 1009 0 955 958 1010 82 1 1007
 225313983 81 1 1009 2411 968 749 0 957 1011 1012 1013 81 1 958 2619 844 831 101
1 0 957 959 1014 82 1 1010 225445055 81 1 1011 2410 968 831 0 958 960 1009 1015
 82 1 1014 -445184884 81 1 960 2409 968 578 0 959 963 1011 1016 83 3 1015 .10980
39215686274 .1098039215686274 .1098039215686274 83 3 1016 .1098039215686274 .109
8039215686274 .1098039215686274 81 1 1012 2412 968 827 0 911 1009 1017 1018 83 3
 1013 .1098039215686274 .1098039215686274 .1098039215686274 81 1 911 2596 844 82
7 1012 0 909 913 1019 81 1 1017 2413 968 774 0 913 1012 1020 1021 83 3 1018 .768
627450980392 .768627450980392 .768627450980392 81 1 913 2597 844 774 1017 0 911
 915 1022 81 1 1020 2414 968 824 0 925 1017 1023 1024 83 3 1021 .768627450980392
 .768627450980392 .768627450980392 81 1 925 2603 844 824 1020 0 923 927 1025 81
 1 1023 2415 968 796 0 935 1020 1026 1027 83 3 1024 .768627450980392 .7686274509
80392 .768627450980392 81 1 935 2608 844 796 1023 0 933 937 1028 81 1 1026 2416
 968 792 0 933 1023 1029 1030 83 3 1027 .768627450980392 .768627450980392 .76862
7450980392 81 1 933 2607 844 792 1026 0 931 935 1031 81 1 1029 2417 968 788 0 93
1 1026 1032 1033 83 3 1030 .768627450980392 .768627450980392 .768627450980392 81
 1 931 2606 844 788 1029 0 929 933 1034 81 1 1032 2418 968 783 0 929 1029 1035 1
036 83 3 1033 .768627450980392 .768627450980392 .768627450980392 81 1 929 2605 8
44 783 1032 0 927 931 1037 81 1 1035 2419 968 778 0 927 1032 1038 1039 83 3 1036
 .768627450980392 .768627450980392 .768627450980392 81 1 927 2604 844 778 1035 0
 925 929 1040 81 1 1038 2420 968 820 0 923 1035 1041 1042 83 3 1039 .76862745098
0392 .768627450980392 .768627450980392 81 1 923 2602 844 820 1038 0 921 925 1043
 81 1 1041 2421 968 815 0 921 1038 1044 1045 83 3 1042 .768627450980392 .7686274
50980392 .768627450980392 81 1 921 2601 844 815 1041 0 919 923 1046 81 1 1044 24
22 968 811 0 919 1041 1047 1048 83 3 1045 .768627450980392 .768627450980392 .768
627450980392 81 1 919 2600 844 811 1044 0 917 921 1049 81 1 1047 2423 968 807 0
 917 1044 1050 1051 83 3 1048 .768627450980392 .768627450980392 .768627450980392
 81 1 917 2599 844 807 1047 0 915 919 1052 81 1 1050 2424 968 802 0 915 1047 105
3 1054 83 3 1051 .768627450980392 .768627450980392 .768627450980392 81 1 915 259
8 844 802 1050 0 913 917 1055 81 1 1053 2425 968 708 0 905 1050 1056 1057 83 3 1
054 .768627450980392 .768627450980392 .768627450980392 81 1 905 2593 844 708 105
3 0 903 907 1058 81 1 1056 2426 968 712 0 903 1053 1059 1060 83 3 1057 .76862745
0980392 .768627450980392 .768627450980392 81 1 903 2592 844 712 1056 0 901 905 1
061 81 1 1059 2427 968 717 0 901 1056 1062 1063 83 3 1060 .768627450980392 .7686
27450980392 .768627450980392 81 1 901 2591 844 717 1059 0 899 903 1064 81 1 1062
 2428 968 723 0 899 1059 1065 1066 83 3 1063 .768627450980392 .768627450980392 .
768627450980392 81 1 899 2590 844 723 1062 0 897 901 1067 81 1 1065 2429 968 727
 0 897 1062 1068 1069 83 3 1066 .768627450980392 .768627450980392 .7686274509803
92 81 1 897 2589 844 727 1065 0 895 899 1070 81 1 1068 2430 968 732 0 895 1065 1
071 1072 83 3 1069 .768627450980392 .768627450980392 .768627450980392 81 1 895 2
588 844 732 1068 0 893 897 1073 81 1 1071 2431 968 738 0 893 1068 1074 1075 83 3
 1072 .768627450980392 .768627450980392 .768627450980392 81 1 893 2587 844 738 1
071 0 891 895 1076 81 1 1074 2432 968 702 0 907 1071 1077 1078 83 3 1075 .768627
450980392 .768627450980392 .768627450980392 81 1 907 2594 844 702 1074 0 905 909
 1079 81 1 1077 2433 968 742 0 891 1074 1080 1081 83 3 1078 .768627450980392 .76
8627450980392 .768627450980392 81 1 891 2586 844 742 1077 0 889 893 1082 81 1 10
80 2434 968 745 0 889 1077 1083 1084 83 3 1081 .768627450980392 .768627450980392
 .768627450980392 81 1 889 2585 844 745 1080 0 887 891 1085 81 1 1083 2435 968 6
97 0 909 1080 1086 1087 83 3 1084 .768627450980392 .768627450980392 .76862745098
0392 81 1 909 2595 844 697 1083 0 907 911 1088 81 1 1086 2436 968 752 0 887 1083
 1089 1090 83 3 1087 .768627450980392 .768627450980392 .768627450980392 81 1 887
 2584 844 752 1086 0 885 889 1091 81 1 1089 2437 968 693 0 885 1086 1092 1093 83
 3 1090 .768627450980392 .768627450980392 .768627450980392 81 1 885 2583 844 693
 1089 0 883 887 1094 81 1 1092 2438 968 311 0 853 1089 1095 1096 83 3 1093 .7686
27450980392 .768627450980392 .768627450980392 81 1 853 2571 844 311 1092 0 846 8
54 1097 81 1 1095 2439 968 662 0 854 1092 1098 1099 83 3 1096 .768627450980392 .
768627450980392 .768627450980392 81 1 854 2572 844 662 1095 0 853 857 1100 81 1
 1098 2440 968 594 0 872 1095 1101 1102 83 3 1099 .768627450980392 .768627450980
392 .768627450980392 81 1 872 2577 844 594 1098 0 869 874 1103 81 1 1101 2441 96
8 319 0 883 1098 1104 1105 83 3 1102 .768627450980392 .768627450980392 .76862745
0980392 81 1 883 2582 844 319 1101 0 881 885 1106 81 1 1104 2442 968 299 0 881 1
101 1107 1108 83 3 1105 .768627450980392 .768627450980392 .768627450980392 81 1
 881 2581 844 299 1104 0 879 883 1109 81 1 1107 2443 968 877 0 879 1104 1110 111
1 83 3 1108 .768627450980392 .768627450980392 .768627450980392 81 1 879 2580 844
 877 1107 0 876 881 1112 81 1 1110 2444 968 656 0 876 1107 1113 1114 83 3 1111 .
768627450980392 .768627450980392 .768627450980392 81 1 876 2579 844 656 1110 0 8
74 879 1115 81 1 1113 2445 968 665 0 874 1110 1116 1117 83 3 1114 .7686274509803
92 .768627450980392 .768627450980392 81 1 874 2578 844 665 1113 0 872 876 1118 8
1 1 1116 2446 968 866 0 869 1113 1119 1120 83 3 1117 .768627450980392 .768627450
980392 .768627450980392 81 1 869 2576 844 866 1116 0 865 872 1121 81 1 1119 2447
 968 862 0 865 1116 1122 1123 83 3 1120 .768627450980392 .768627450980392 .76862
7450980392 81 1 865 2575 844 862 1119 0 861 869 1124 81 1 1122 2448 968 858 0 86
1 1119 1125 1126 83 3 1123 .768627450980392 .768627450980392 .768627450980392 81
 1 861 2574 844 858 1122 0 857 865 1127 81 1 1125 2449 968 848 0 857 1122 1128 1
129 83 3 1126 .768627450980392 .768627450980392 .768627450980392 81 1 857 2573 8
44 848 1125 0 854 861 1130 81 1 1128 2450 968 842 0 846 1125 845 1131 83 3 1129
 .768627450980392 .768627450980392 .768627450980392 81 1 846 2570 844 842 1128 0
 841 853 1132 81 1 845 2451 968 840 0 841 1128 0 1133 83 3 1131 .768627450980392
 .768627450980392 .768627450980392 83 3 1133 1 1 1 82 1 1132 -835517278 82 1 113
0 -835255134 82 1 1127 -834992990 82 1 1124 -834730846 82 1 1121 -834468702 82 1
 1118 -831585118 82 1 1115 -831322974 82 1 1112 -831060830 82 1 1109 -830798686
 82 1 1106 -830536542 82 1 1103 -804387678 82 1 1100 -800652126 82 1 1097 -79881
7118 82 1 1094 -811858782 82 1 1091 -813693790 82 1 1088 -810941278 82 1 1085 -9
28775006 82 1 1082 -928512862 82 1 1079 -926415710 82 1 1076 -928250718 82 1 107
3 -927988574 82 1 1070 -927726430 82 1 1067 -927464286 82 1 1064 -927202142 82 1
 1061 -926939998 82 1 1058 -926677854 82 1 1055 -1041038175 82 1 1052 -104077603
1 82 1 1049 -1040513887 82 1 1046 -1040251743 82 1 1043 -1039989599 82 1 1040 -1
037106015 82 1 1037 -1036843871 82 1 1034 -1036581727 82 1 1031 -1036319583 81 1
 937 2609 844 678 994 0 935 940 1134 82 1 1028 -1036057439 81 1 994 2402 968 678
 0 937 992 990 1135 82 1 1134 -467139444 81 1 990 2403 968 757 0 940 994 1005 11
36 83 3 1135 .1098039215686274 .1098039215686274 .1098039215686274 83 3 1136 .10
98039215686274 .1098039215686274 .1098039215686274 82 1 1025 -1023867743 82 1 10
22 -1020132191 82 1 1019 -1018297183 83 3 1008 .1098039215686274 .10980392156862
74 .1098039215686274 83 3 1006 .1098039215686274 .1098039215686274 .109803921568
6274 83 3 1003 .1098039215686274 .1098039215686274 .1098039215686274 83 3 1000 .
1098039215686274 .1098039215686274 .1098039215686274 83 3 997 .1098039215686274
 .1098039215686274 .1098039215686274 83 3 995 .1098039215686274 .109803921568627
4 .1098039215686274 82 1 991 -463666036 79 15 984 SDL/TYSA_COLOUR83 3 980 .10980
39215686274 .1098039215686274 .1098039215686274 83 3 976 .1098039215686274 .1098
039215686274 .1098039215686274 83 3 970 .1098039215686274 .1098039215686274 .109
8039215686274 79 14 967 SWEntUnchanged82 1 962 -444005236 15 945 141 0 96 938 0
 17 96 0 945 526 99 94 673 522 0 669 +17 526 0 945 102 96 103 668 524 0 0 +17 99
 0 945 96 102 97 685 520 0 675 +17 673 0 672 566 669 97 96 522 0 0 -17 102 0 945
 99 526 100 762 512 0 685 +15 658 1801 0 260 877 0 17 260 0 658 654 303 258 660
 617 0 651 +17 303 0 658 260 305 261 296 304 0 660 +17 305 0 658 303 654 290 289
 307 0 0 -17 289 0 306 286 292 287 305 307 0 654 +16 307 1574 0 ?289 603 297 113
7 0 0 1 16 603 1577 0 ?286 592 307 605 0 0 1 30 1137 1965 0 307 309 605 0 +.0011
9 -.000924793434801325 .000533715574274766 0 .0871557427476556 .996194698091746
 31 309 1966 0 297 318 1137 0 +.00119 -.001199048674522936 .0002673921513678475
 1 0 0 0 0 1 25e-5 31 605 1964 0 603 1137 604 0 +.00119 -.00082517396499215 525e
-6 -1 0 0 0 0 -1 1e-4 30 318 1967 0 308 0 309 0 +.00119 -.001177259738836022 183
4347684491145e-20 0 .996194698091746 .0871557427476581 17 286 0 306 587 289 284
 653 603 0 657 +15 870 1853 0 251 866 0 17 251 0 870 1138 596 249 1139 626 0 647
 +17 1138 0 870 598 251 278 647 645 0 1140 -17 596 0 870 251 598 252 590 597 0 1
139 +17 1139 0 659 595 1141 252 251 626 0 0 -17 647 0 867 248 1140 249 1138 645
 0 1141 +15 867 1857 0 248 862 0 17 248 0 867 1142 647 246 1141 628 0 644 +17 11
40 0 867 647 1142 278 277 601 0 0 -17 1141 0 659 1139 1143 249 248 628 0 0 -17 1
143 0 659 1141 1144 246 245 630 0 0 -17 1144 0 659 1143 1145 243 242 632 0 0 -17
 245 0 863 1146 644 243 1143 630 0 641 +15 863 1861 0 245 858 0 17 1146 0 863 11
47 245 272 641 639 0 1148 -17 644 0 863 245 1147 246 1142 642 0 1143 +17 641 0 8
59 242 1148 243 1146 639 0 1144 +15 859 1865 0 242 848 0 17 242 0 859 1149 641 2
40 1144 632 0 638 +17 1148 0 859 641 1149 272 271 610 0 0 -17 1149 0 859 1148 24
2 269 638 636 0 312 -17 271 0 306 268 274 269 1148 610 0 1149 +17 274 0 306 271
 277 272 1147 608 0 1146 +17 277 0 306 274 280 275 1140 601 0 1142 +17 1147 0 86
3 644 1146 275 274 608 0 0 -17 280 0 306 277 283 278 598 599 0 1138 +17 1142 0 8
67 1140 248 275 644 642 0 1147 -17 598 0 870 596 1138 281 280 599 0 0 -17 638 0
 849 238 312 240 1149 636 0 1145 +17 312 0 849 638 314 269 268 313 0 0 -15 849 1
869 0 238 842 0 17 314 0 849 312 238 235 316 613 0 310 -17 238 0 849 314 638 236
 1145 317 0 316 +17 316 0 315 302 310 236 314 613 0 320 +17 320 0 659 1145 266 2
36 302 321 0 0 -17 1145 0 659 1144 320 240 238 317 0 0 -17 266 0 659 320 660 264
 263 615 0 295 -17 263 0 294 296 295 261 266 615 0 303 +17 595 0 659 331 1139 20
4 254 624 0 0 -17 254 0 593 590 584 252 595 624 0 596 +82 1 847 331678910 17 161
 0 826 431 164 159 782 427 0 780 +17 164 0 826 161 167 162 789 425 0 784 +17 167
 0 826 164 421 165 169 422 0 790 +17 421 0 826 167 143 113 795 419 0 793 +17 143
 0 826 421 146 109 803 442 0 797 +17 795 0 794 468 793 109 421 419 0 0 -17 146 0
 826 143 149 144 806 440 0 804 +17 149 0 826 146 152 147 810 438 0 808 +17 152 0
 826 149 155 150 816 436 0 812 +17 155 0 826 152 158 153 819 434 0 817 +16 536 4
03 0 ?766 532 37 529 532 37 1 16 543 412 0 ?76 545 541 542 545 545 1 17 700 0 75
1 691 709 201 200 360 0 0 -17 709 0 751 700 711 198 197 362 0 0 -17 200 0 699 70
1 408 198 700 360 0 405 +17 405 0 707 197 703 198 701 403 0 709 +17 711 0 751 70
9 715 195 194 364 0 0 -17 715 0 751 711 724 192 191 366 0 0 -17 724 0 751 715 72
6 189 188 368 0 0 -17 191 0 714 716 399 189 715 366 0 396 +17 396 0 722 188 718
 189 716 394 0 724 +17 726 0 751 724 730 186 185 370 0 0 -17 730 0 751 726 739 1
83 182 372 0 0 -17 739 0 751 730 741 180 179 374 0 0 -17 182 0 729 731 390 180 7
30 372 0 387 +17 387 0 737 179 733 180 731 385 0 739 +17 741 0 751 739 744 177 1
75 376 0 0 -19 13 95 0 1 0 8 4 S74 20 11 2 0 977 845 0 0 0 0 0 0 0 0 0 0 0 0 0 0
 0 0 0 0 1 0 
