G04*
G04 #@! TF.GenerationSoftware,Altium Limited,Altium Designer,19.0.12 (326)*
G04*
G04 Layer_Color=8388736*
%FSLAX25Y25*%
%MOIN*%
G70*
G01*
G75*
%ADD35R,0.02769X0.13792*%
%ADD36R,0.05918X0.13792*%
%ADD37R,0.13792X0.02769*%
%ADD38R,0.13792X0.05918*%
%ADD39R,0.01378X0.07087*%
%ADD40R,0.02362X0.07087*%
%ADD41R,0.07087X0.01378*%
%ADD42R,0.07087X0.02362*%
%ADD43R,0.04540X0.04540*%
%ADD44R,0.01981X0.03753*%
%ADD45R,0.07690X0.06509*%
%ADD46R,0.02965X0.13005*%
%ADD47R,0.04934X0.13005*%
%ADD48R,0.13005X0.02965*%
%ADD49R,0.13005X0.04934*%
%ADD50R,0.04737X0.03162*%
%ADD51R,0.07887X0.05721*%
%ADD52R,0.02965X0.02769*%
%ADD53R,0.02769X0.02965*%
%ADD54R,0.00800X0.00800*%
D35*
X266512Y452756D02*
D03*
X255488D02*
D03*
X479839Y455500D02*
D03*
X468815D02*
D03*
X252488Y237500D02*
D03*
X263512D02*
D03*
X319291Y324803D02*
D03*
X330315D02*
D03*
X368504D02*
D03*
X379528D02*
D03*
Y364173D02*
D03*
X368504D02*
D03*
X330315D02*
D03*
X319291D02*
D03*
D36*
X261000Y452756D02*
D03*
X474327Y455500D02*
D03*
X258000Y237500D02*
D03*
X324803Y324803D02*
D03*
X374016D02*
D03*
Y364173D02*
D03*
X324803D02*
D03*
D37*
X478000Y229488D02*
D03*
Y240512D02*
D03*
D38*
Y235000D02*
D03*
D39*
X322854Y246061D02*
D03*
X317146D02*
D03*
X396806Y246000D02*
D03*
X391098D02*
D03*
X390646Y442500D02*
D03*
X396354D02*
D03*
X317146Y442913D02*
D03*
X322854D02*
D03*
X343307Y295276D02*
D03*
X337598D02*
D03*
X376772D02*
D03*
X371063D02*
D03*
X371260Y393701D02*
D03*
X376969D02*
D03*
X337795D02*
D03*
X343504D02*
D03*
X317717Y295276D02*
D03*
X312008D02*
D03*
X406299D02*
D03*
X400591D02*
D03*
X400787Y393701D02*
D03*
X406496D02*
D03*
X312205D02*
D03*
X317913D02*
D03*
X278346Y305118D02*
D03*
X272638D02*
D03*
X439370Y216535D02*
D03*
X433661D02*
D03*
X433857Y472441D02*
D03*
X439566D02*
D03*
X272835Y383858D02*
D03*
X278543D02*
D03*
X278346Y265748D02*
D03*
X272638D02*
D03*
X291732Y216535D02*
D03*
X286024D02*
D03*
X286220Y472441D02*
D03*
X291928D02*
D03*
X272835Y423228D02*
D03*
X278543D02*
D03*
D40*
X320000Y246061D02*
D03*
X393952Y246000D02*
D03*
X393500Y442500D02*
D03*
X320000Y442913D02*
D03*
X340453Y295276D02*
D03*
X373917D02*
D03*
X374114Y393701D02*
D03*
X340650D02*
D03*
X314862Y295276D02*
D03*
X403445D02*
D03*
X403642Y393701D02*
D03*
X315059D02*
D03*
X275492Y305118D02*
D03*
X436516Y216535D02*
D03*
X436712Y472441D02*
D03*
X275689Y383858D02*
D03*
X275492Y265748D02*
D03*
X288878Y216535D02*
D03*
X289074Y472441D02*
D03*
X275689Y423228D02*
D03*
D41*
X433071Y298031D02*
D03*
Y292323D02*
D03*
Y398425D02*
D03*
Y392717D02*
D03*
X472441Y314174D02*
D03*
Y308465D02*
D03*
Y380315D02*
D03*
Y374606D02*
D03*
D42*
X433071Y295177D02*
D03*
Y395571D02*
D03*
X472441Y311320D02*
D03*
Y377461D02*
D03*
D43*
X310236Y348130D02*
D03*
Y342421D02*
D03*
D44*
X297244Y339764D02*
D03*
X299213D02*
D03*
X301181D02*
D03*
X303150D02*
D03*
X297244Y351181D02*
D03*
X299213D02*
D03*
X301181D02*
D03*
X303150D02*
D03*
D45*
X300197Y345472D02*
D03*
D46*
X352599Y216535D02*
D03*
X343938D02*
D03*
X392520D02*
D03*
X383858D02*
D03*
X384409Y472441D02*
D03*
X393070D02*
D03*
X344488D02*
D03*
X353150D02*
D03*
D47*
X348268Y216535D02*
D03*
X388189D02*
D03*
X388739Y472441D02*
D03*
X348819D02*
D03*
D48*
X456693Y270079D02*
D03*
Y261417D02*
D03*
Y417717D02*
D03*
Y409055D02*
D03*
D49*
Y265748D02*
D03*
Y413386D02*
D03*
D50*
X227000Y303500D02*
D03*
Y297594D02*
D03*
Y250350D02*
D03*
Y256256D02*
D03*
Y262161D02*
D03*
Y268067D02*
D03*
Y273972D02*
D03*
Y279878D02*
D03*
Y285784D02*
D03*
Y291689D02*
D03*
Y364264D02*
D03*
Y358358D02*
D03*
Y352453D02*
D03*
Y346547D02*
D03*
Y340642D02*
D03*
Y334736D02*
D03*
Y451575D02*
D03*
Y445669D02*
D03*
Y398425D02*
D03*
Y404331D02*
D03*
Y410236D02*
D03*
Y416142D02*
D03*
Y422047D02*
D03*
Y427953D02*
D03*
Y433858D02*
D03*
Y439764D02*
D03*
D51*
X206528Y239602D02*
D03*
Y314248D02*
D03*
Y375012D02*
D03*
Y323988D02*
D03*
Y387677D02*
D03*
Y462323D02*
D03*
D52*
X253618Y452756D02*
D03*
X268382D02*
D03*
X466945Y455500D02*
D03*
X481709D02*
D03*
X265382Y237500D02*
D03*
X250618D02*
D03*
X332185Y324803D02*
D03*
X317421D02*
D03*
X381398D02*
D03*
X366634D02*
D03*
X366634Y364173D02*
D03*
X381398D02*
D03*
X317421D02*
D03*
X332185D02*
D03*
D53*
X478000Y242382D02*
D03*
Y227618D02*
D03*
D54*
X488189Y488189D02*
D03*
X206693D02*
D03*
X488189Y206693D02*
D03*
X206693D02*
D03*
X275590Y344488D02*
D03*
X354331Y257874D02*
D03*
X423228Y344488D02*
D03*
X354331Y431102D02*
D03*
M02*
