%FSLAX25Y25*%
%MOIN*%
G70*
G01*
G75*
G04 Layer_Color=8421504*
%ADD10R,0.07087X0.04921*%
%ADD11R,0.03937X0.02362*%
%ADD12R,0.05315X0.03150*%
%ADD13R,0.11811X0.07874*%
%ADD14R,0.05118X0.13780*%
%ADD15R,0.03543X0.13189*%
%ADD16R,0.04134X0.12205*%
%ADD17R,0.02165X0.12205*%
%ADD18R,0.03937X0.11811*%
%ADD19R,0.02756X0.11811*%
%ADD20R,0.01772X0.06693*%
%ADD21R,0.13189X0.03543*%
%ADD22R,0.13780X0.05118*%
%ADD23R,0.12205X0.04134*%
%ADD24R,0.12205X0.02165*%
%ADD25R,0.06890X0.05709*%
%ADD26R,0.01181X0.02953*%
%ADD27R,0.04000X0.04400*%
%ADD28C,0.02500*%
%ADD29C,0.02000*%
%ADD30C,0.01000*%
%ADD31C,0.01200*%
%ADD32C,0.01969*%
%ADD33C,0.01181*%
%ADD34C,0.00787*%
%ADD35R,0.01969X0.01575*%
%ADD36R,0.02000X0.02000*%
%ADD37R,0.01969X0.01969*%
%ADD38R,0.01870X0.01969*%
%ADD39R,0.01083X0.01083*%
%ADD40R,0.01969X0.01969*%
%ADD41R,0.29528X0.26378*%
%ADD42R,0.27559X0.19685*%
D10*
X206528Y462323D02*
D03*
Y387677D02*
D03*
Y323988D02*
D03*
Y375012D02*
D03*
Y314248D02*
D03*
Y239602D02*
D03*
D11*
X227000Y439764D02*
D03*
Y433858D02*
D03*
Y427953D02*
D03*
Y422047D02*
D03*
Y416142D02*
D03*
Y410236D02*
D03*
Y404331D02*
D03*
Y398425D02*
D03*
Y445669D02*
D03*
Y451575D02*
D03*
Y334736D02*
D03*
Y340642D02*
D03*
Y346547D02*
D03*
Y352453D02*
D03*
Y358358D02*
D03*
Y364264D02*
D03*
Y291689D02*
D03*
Y285784D02*
D03*
Y279878D02*
D03*
Y273972D02*
D03*
Y268067D02*
D03*
Y262161D02*
D03*
Y256256D02*
D03*
Y250350D02*
D03*
Y297594D02*
D03*
Y303500D02*
D03*
D12*
X318504Y406693D02*
D03*
X311417D02*
D03*
X344094D02*
D03*
X337008D02*
D03*
X407087D02*
D03*
X400000D02*
D03*
X377559D02*
D03*
X370472D02*
D03*
X400000Y282283D02*
D03*
X407087D02*
D03*
X370472D02*
D03*
X377559D02*
D03*
X311417D02*
D03*
X318504D02*
D03*
X337008D02*
D03*
X344094D02*
D03*
D13*
X314961Y393701D02*
D03*
X340551D02*
D03*
X403543D02*
D03*
X374016D02*
D03*
X403543Y295276D02*
D03*
X374016D02*
D03*
X314961D02*
D03*
X340551D02*
D03*
D14*
X324803Y364173D02*
D03*
X374016D02*
D03*
Y324803D02*
D03*
X324803D02*
D03*
X275590Y423228D02*
D03*
Y383858D02*
D03*
X288976Y472441D02*
D03*
X436613D02*
D03*
X288976Y216535D02*
D03*
X436614D02*
D03*
X275590Y265748D02*
D03*
Y305118D02*
D03*
D15*
X331103Y364173D02*
D03*
X318504D02*
D03*
X380316D02*
D03*
X367717D02*
D03*
X367716Y324803D02*
D03*
X380315D02*
D03*
X318503D02*
D03*
X331102D02*
D03*
X269291Y423228D02*
D03*
X281891D02*
D03*
X269291Y383858D02*
D03*
X281891D02*
D03*
X282676Y472441D02*
D03*
X295276D02*
D03*
X430314D02*
D03*
X442913D02*
D03*
X295276Y216535D02*
D03*
X282676D02*
D03*
X442913D02*
D03*
X430314D02*
D03*
X281890Y265748D02*
D03*
X269290D02*
D03*
X281890Y305118D02*
D03*
X269290D02*
D03*
D16*
X348819Y472441D02*
D03*
X389370D02*
D03*
X388189Y216535D02*
D03*
X348819D02*
D03*
D17*
X353150Y472441D02*
D03*
X344488D02*
D03*
X393701D02*
D03*
X385039D02*
D03*
X383858Y216535D02*
D03*
X392520D02*
D03*
X344488D02*
D03*
X353150D02*
D03*
D18*
X320079Y442913D02*
D03*
X393701D02*
D03*
Y246063D02*
D03*
X320079D02*
D03*
D19*
X324803Y442913D02*
D03*
X315354D02*
D03*
X398425D02*
D03*
X388976D02*
D03*
Y246063D02*
D03*
X398425D02*
D03*
X315354D02*
D03*
X324803D02*
D03*
D20*
X267126Y452756D02*
D03*
X264370D02*
D03*
X473819D02*
D03*
X471063D02*
D03*
Y236221D02*
D03*
X473819D02*
D03*
X264370D02*
D03*
X267126D02*
D03*
D21*
X472441Y383858D02*
D03*
Y371259D02*
D03*
X433071Y401968D02*
D03*
Y389369D02*
D03*
X472441Y317717D02*
D03*
Y305118D02*
D03*
X433071Y301575D02*
D03*
Y288976D02*
D03*
D22*
X472441Y377559D02*
D03*
X433071Y395669D02*
D03*
X472441Y311418D02*
D03*
X433071Y295276D02*
D03*
D23*
X456693Y413386D02*
D03*
Y265748D02*
D03*
D24*
Y409055D02*
D03*
Y417717D02*
D03*
Y261417D02*
D03*
Y270079D02*
D03*
D25*
X300197Y345472D02*
D03*
D26*
X303150Y351181D02*
D03*
X301181D02*
D03*
X299213D02*
D03*
X297244D02*
D03*
X303150Y339764D02*
D03*
X301181D02*
D03*
X299213D02*
D03*
X297244D02*
D03*
D27*
X310236Y341876D02*
D03*
Y348622D02*
D03*
M02*
