%FSLAX25Y25*%
%MOIN*%
G70*
G01*
G75*
G04 Layer_Physical_Order=1*
G04 Layer_Color=255*
%ADD10R,0.07087X0.04921*%
%ADD11R,0.03937X0.02362*%
%ADD12R,0.05315X0.03150*%
%ADD13R,0.11811X0.07874*%
%ADD14R,0.05118X0.13780*%
%ADD15R,0.03543X0.13189*%
%ADD16R,0.04134X0.12205*%
%ADD17R,0.02165X0.12205*%
%ADD18R,0.03937X0.11811*%
%ADD19R,0.02756X0.11811*%
%ADD20R,0.01772X0.06693*%
%ADD21R,0.13189X0.03543*%
%ADD22R,0.13780X0.05118*%
%ADD23R,0.12205X0.04134*%
%ADD24R,0.12205X0.02165*%
%ADD25R,0.06890X0.05709*%
%ADD26R,0.01181X0.02953*%
%ADD27R,0.04000X0.04400*%
%ADD28C,0.02500*%
%ADD29C,0.02000*%
%ADD30C,0.01000*%
%ADD31C,0.01200*%
G36*
X289370Y289835D02*
X288908Y289644D01*
X283776Y294776D01*
Y297924D01*
X284261D01*
Y312313D01*
X279518D01*
Y297924D01*
X280003D01*
Y293994D01*
X280147Y293272D01*
X280556Y292660D01*
X286868Y286348D01*
X286677Y285886D01*
X266500D01*
X266201Y285827D01*
X265955Y286288D01*
X270624Y290957D01*
X271033Y291569D01*
X271057Y291688D01*
X271177Y292290D01*
Y297924D01*
X271662D01*
Y312313D01*
X266919D01*
Y297924D01*
X267404D01*
Y293072D01*
X260304Y285972D01*
X259842Y286163D01*
Y315114D01*
X289370D01*
Y289835D01*
D02*
G37*
G36*
X448819Y277559D02*
X434957D01*
Y286604D01*
X440265D01*
Y291347D01*
X425876D01*
Y286604D01*
X431185D01*
Y277559D01*
X419291D01*
Y283721D01*
X420188Y284618D01*
X420597Y285230D01*
X420741Y285952D01*
Y314961D01*
X431185D01*
Y303946D01*
X425876D01*
Y299203D01*
X440265D01*
Y303946D01*
X434957D01*
Y314961D01*
X448819D01*
Y277559D01*
D02*
G37*
G36*
X413386Y318146D02*
X413386Y288101D01*
X410718Y285433D01*
X391170Y285433D01*
X390963Y285933D01*
X391098Y286068D01*
X391506Y286680D01*
X391650Y287402D01*
Y318500D01*
X413032Y318500D01*
X413386Y318146D01*
D02*
G37*
G36*
X304546Y311257D02*
X305268Y311114D01*
X324219D01*
X325114Y310219D01*
Y292291D01*
X325257Y291569D01*
X325666Y290958D01*
X326772Y289852D01*
Y285433D01*
X307235D01*
X303986Y288681D01*
Y311101D01*
X304427Y311337D01*
X304546Y311257D01*
D02*
G37*
G36*
X427943Y216240D02*
Y209341D01*
X427467Y209282D01*
X417000D01*
Y226529D01*
X417462Y226720D01*
X427943Y216240D01*
D02*
G37*
G36*
X296054Y349105D02*
X303640D01*
X304916Y347829D01*
X304916Y347829D01*
X305279Y347586D01*
X305709Y347500D01*
X307087D01*
Y340885D01*
X304340D01*
Y341840D01*
X296054D01*
Y340551D01*
X284251D01*
X284064Y340863D01*
X284020Y341051D01*
X284524Y342711D01*
X284699Y344488D01*
X284524Y346265D01*
X284006Y347974D01*
X283164Y349549D01*
X282031Y350929D01*
X280894Y351862D01*
X281073Y352362D01*
X296054D01*
Y349105D01*
D02*
G37*
G36*
X482366Y289370D02*
X474327D01*
Y302747D01*
X479635D01*
Y307490D01*
X465246D01*
Y302747D01*
X470555D01*
Y289370D01*
X458661D01*
Y332677D01*
X470555D01*
Y320089D01*
X465246D01*
Y315346D01*
X479635D01*
Y320089D01*
X474327D01*
Y332677D01*
X482366D01*
Y289370D01*
D02*
G37*
G36*
X452756Y223057D02*
Y217497D01*
X445747Y210488D01*
X445285Y210680D01*
Y216240D01*
X452294Y223249D01*
X452756Y223057D01*
D02*
G37*
G36*
X450870Y235439D02*
Y227159D01*
X445747Y222037D01*
X445285Y222228D01*
Y223730D01*
X440542D01*
Y209341D01*
X440066Y209282D01*
X433161D01*
X432686Y209341D01*
Y223730D01*
X427943D01*
Y222228D01*
X427481Y222037D01*
X417000Y232517D01*
Y236221D01*
X450088Y236221D01*
X450870Y235439D01*
D02*
G37*
G36*
X336500Y263779D02*
Y243618D01*
X326781D01*
Y252569D01*
X322825D01*
Y239558D01*
X326781D01*
Y239846D01*
X336500D01*
Y233386D01*
X314281D01*
X305118Y242549D01*
Y246061D01*
X305580Y246252D01*
X307103Y244729D01*
X307512Y244456D01*
X307715Y244320D01*
X308437Y244177D01*
X313376D01*
Y239558D01*
X317332D01*
Y252569D01*
X313376D01*
Y247949D01*
X309218D01*
X305118Y252049D01*
Y263426D01*
X305472Y263779D01*
X336500Y263779D01*
D02*
G37*
G36*
X280790Y232283D02*
Y223730D01*
X280305D01*
Y209341D01*
X285048D01*
Y223730D01*
X284563D01*
Y231930D01*
X284916Y232283D01*
X305549Y232283D01*
X307500Y230332D01*
Y218734D01*
X307114Y218416D01*
X307087Y218422D01*
X297647D01*
Y223730D01*
X292904D01*
Y209341D01*
X297647D01*
Y214649D01*
X306305D01*
X307500Y213455D01*
Y203110D01*
X307146Y202756D01*
X276290Y202756D01*
X273622Y205423D01*
Y231930D01*
X273976Y232283D01*
X280790D01*
D02*
G37*
G36*
X365500Y218775D02*
X365146Y218422D01*
X354832D01*
Y223238D01*
X351467D01*
Y217347D01*
X351407Y217257D01*
X351263Y216535D01*
X351407Y215814D01*
X351467Y215724D01*
Y209833D01*
X354832D01*
Y214649D01*
X365500D01*
Y206136D01*
X365146Y205782D01*
X325000D01*
Y214296D01*
X325354Y214649D01*
X342806D01*
Y209833D01*
X346171D01*
Y215724D01*
X346231Y215814D01*
X346374Y216535D01*
X346231Y217257D01*
X346171Y217347D01*
Y223238D01*
X342806D01*
Y218422D01*
X325000D01*
Y229260D01*
X325354Y229614D01*
X365500D01*
Y218775D01*
D02*
G37*
G36*
X469500Y248031D02*
X458579D01*
Y259735D01*
X463395D01*
Y263100D01*
X457505D01*
X457415Y263160D01*
X456693Y263304D01*
X455971Y263160D01*
X455881Y263100D01*
X449991D01*
Y259735D01*
X454807D01*
Y248031D01*
X443612D01*
X442913Y248730D01*
Y276910D01*
X448819D01*
X449278Y277100D01*
X449468Y277559D01*
Y281496D01*
X454807D01*
Y271761D01*
X449991D01*
Y268396D01*
X455881D01*
X455971Y268336D01*
X456693Y268193D01*
X457415Y268336D01*
X457505Y268396D01*
X463395D01*
Y271761D01*
X458579D01*
Y281496D01*
X469500D01*
Y248031D01*
D02*
G37*
G36*
X385827Y286132D02*
X383864Y284170D01*
X380817D01*
Y284458D01*
X374302D01*
Y281496D01*
X373730D01*
Y284458D01*
X367215D01*
Y284170D01*
X347352D01*
Y284458D01*
X340837D01*
Y281496D01*
X340265D01*
Y284458D01*
X337501D01*
X328886Y293073D01*
Y311000D01*
X328743Y311722D01*
X328740Y311726D01*
Y312992D01*
X385827D01*
Y286132D01*
D02*
G37*
G36*
X407480Y252667D02*
X402762Y247949D01*
X400403D01*
Y252569D01*
X396447D01*
Y239558D01*
X400403D01*
Y244177D01*
X403543D01*
X404265Y244320D01*
X404877Y244729D01*
X407018Y246870D01*
X407480Y246679D01*
Y234252D01*
X375984D01*
Y239846D01*
X386998D01*
Y239558D01*
X390954D01*
Y252569D01*
X386998D01*
Y243618D01*
X375984D01*
Y263779D01*
X407480D01*
Y252667D01*
D02*
G37*
G36*
X289370Y279462D02*
Y248031D01*
X284563D01*
Y261503D01*
X284419Y262225D01*
X284261Y262460D01*
Y272942D01*
X279518D01*
Y258554D01*
X280790D01*
Y248031D01*
X259842D01*
Y263862D01*
X266919D01*
Y258554D01*
X271662D01*
Y272942D01*
X266919D01*
Y267634D01*
X259842D01*
Y274675D01*
X267281Y282114D01*
X286719D01*
X289370Y279462D01*
D02*
G37*
G36*
X407480Y437179D02*
X407018Y436988D01*
X400403Y443603D01*
Y449419D01*
X396447D01*
Y436408D01*
X400403D01*
Y437615D01*
X400865Y437806D01*
X407480Y431191D01*
Y425197D01*
X375984D01*
Y445358D01*
X386998D01*
Y436408D01*
X390954D01*
Y449419D01*
X386998D01*
Y449130D01*
X375984D01*
Y456693D01*
X407480D01*
Y437179D01*
D02*
G37*
G36*
X336614Y449130D02*
X326781D01*
Y449419D01*
X322825D01*
Y436408D01*
X326781D01*
Y445358D01*
X336614D01*
Y425197D01*
X305036D01*
Y436227D01*
X309836Y441027D01*
X313376D01*
Y436408D01*
X317332D01*
Y449419D01*
X313376D01*
Y444800D01*
X309055D01*
X308333Y444656D01*
X307721Y444247D01*
X303611Y440137D01*
X303150Y440329D01*
Y442214D01*
X317628Y456693D01*
X336614D01*
Y449130D01*
D02*
G37*
G36*
X470000Y401575D02*
X458579D01*
Y407372D01*
X463395D01*
Y410738D01*
X457505D01*
X457415Y410798D01*
X456693Y410941D01*
X455971Y410798D01*
X455881Y410738D01*
X449991D01*
Y407372D01*
X454807D01*
Y401575D01*
X445011D01*
X444920Y401613D01*
X444882Y401704D01*
Y411417D01*
X444692Y411876D01*
X444232Y412067D01*
X442500D01*
Y416210D01*
X444247Y417958D01*
X444656Y418570D01*
X444800Y419291D01*
Y437500D01*
X454807D01*
Y419399D01*
X449991D01*
Y416034D01*
X455881D01*
X455971Y415974D01*
X456693Y415830D01*
X457415Y415974D01*
X457505Y416034D01*
X463395D01*
Y419399D01*
X458579D01*
Y437500D01*
X470000D01*
Y401575D01*
D02*
G37*
G36*
X288215Y405512D02*
X261811D01*
Y427388D01*
X262273Y427579D01*
X266920Y422932D01*
Y416034D01*
X271663D01*
Y430423D01*
X266920D01*
Y428921D01*
X266458Y428729D01*
X261811Y433376D01*
Y437008D01*
X279610D01*
Y430423D01*
X279519D01*
Y416034D01*
X284262D01*
Y430423D01*
X283382D01*
Y437008D01*
X288215D01*
Y405512D01*
D02*
G37*
G36*
X365500Y474327D02*
X354832D01*
Y479143D01*
X351467D01*
Y473252D01*
X351407Y473163D01*
X351263Y472441D01*
X351407Y471719D01*
X351467Y471629D01*
Y465739D01*
X354832D01*
Y470555D01*
X365500D01*
Y460630D01*
X325000D01*
Y469074D01*
X326480Y470555D01*
X342806D01*
Y465739D01*
X346171D01*
Y471629D01*
X346231Y471719D01*
X346374Y472441D01*
X346231Y473163D01*
X346171Y473252D01*
Y479143D01*
X342806D01*
Y474327D01*
X325699D01*
X325387Y474265D01*
X325000Y474582D01*
Y486221D01*
X365500D01*
Y474327D01*
D02*
G37*
G36*
X407480Y477077D02*
X404731Y474327D01*
X395384D01*
Y479143D01*
X392018D01*
Y473252D01*
X391958Y473163D01*
X391815Y472441D01*
X391958Y471719D01*
X392018Y471629D01*
Y465739D01*
X395384D01*
Y470555D01*
X405512D01*
X406234Y470698D01*
X406437Y470834D01*
X406846Y471107D01*
X407018Y471280D01*
X407480Y471089D01*
Y460630D01*
X372000D01*
Y470555D01*
X383357D01*
Y465739D01*
X386722D01*
Y471629D01*
X386782Y471719D01*
X386926Y472441D01*
X386782Y473163D01*
X386722Y473252D01*
Y479143D01*
X383357D01*
Y474327D01*
X372000D01*
Y486221D01*
X407480D01*
Y477077D01*
D02*
G37*
G36*
X454807Y476552D02*
Y454724D01*
X444800D01*
Y465246D01*
X445285D01*
Y479635D01*
X440542D01*
Y465246D01*
X441027D01*
Y454724D01*
X417000D01*
Y456868D01*
X417256Y456919D01*
X417868Y457328D01*
X427481Y466940D01*
X427943Y466749D01*
Y465246D01*
X432686D01*
Y479635D01*
X427943D01*
Y472737D01*
X417462Y462256D01*
X417000Y462448D01*
Y481262D01*
X418022Y482283D01*
X449076D01*
X454807Y476552D01*
D02*
G37*
G36*
X307500Y487333D02*
X298109Y477942D01*
X297647Y478133D01*
Y479635D01*
X292904D01*
Y465246D01*
X297647D01*
Y472145D01*
X307038Y481536D01*
X307500Y481345D01*
Y457000D01*
X281888D01*
X275508Y463380D01*
Y470555D01*
X280305D01*
Y465246D01*
X285048D01*
Y479635D01*
X280305D01*
Y474327D01*
X273622D01*
X273500Y474427D01*
Y485760D01*
X276740Y489000D01*
X307500D01*
Y487333D01*
D02*
G37*
G36*
X407500Y209282D02*
X402441D01*
X394202Y217520D01*
Y223238D01*
X390837D01*
Y217347D01*
X390777Y217257D01*
X390633Y216535D01*
X390777Y215814D01*
X390837Y215724D01*
Y209833D01*
X394202D01*
Y211532D01*
X394664Y211723D01*
X400106Y206282D01*
X399899Y205782D01*
X372000D01*
Y214649D01*
X382176D01*
Y209833D01*
X385541D01*
Y215724D01*
X385601Y215814D01*
X385745Y216535D01*
X385601Y217257D01*
X385541Y217347D01*
Y223238D01*
X382176D01*
Y218422D01*
X372000D01*
Y229500D01*
X407500D01*
Y209282D01*
D02*
G37*
G36*
X326593Y379921D02*
X326854Y379682D01*
Y376766D01*
X326073Y375984D01*
X305118D01*
Y399606D01*
X326593D01*
Y379921D01*
D02*
G37*
G36*
X385827Y314961D02*
X312992D01*
Y322917D01*
X316131D01*
Y317609D01*
X320875D01*
Y331998D01*
X316131D01*
Y326689D01*
X312992D01*
Y362287D01*
X316132D01*
Y356979D01*
X320876D01*
Y371368D01*
X316132D01*
Y366059D01*
X312992D01*
Y372130D01*
X326772D01*
X327494Y372273D01*
X328105Y372682D01*
X329439Y374016D01*
X385827D01*
Y314961D01*
D02*
G37*
G36*
X414514Y401716D02*
Y375497D01*
X406283Y366000D01*
X391650D01*
Y403543D01*
X412687Y403543D01*
X414514Y401716D01*
D02*
G37*
G36*
X482366Y350500D02*
X474327D01*
Y368887D01*
X479635D01*
Y373631D01*
X465246D01*
Y368887D01*
X470555D01*
Y350500D01*
X458579D01*
Y397638D01*
X470555D01*
Y386230D01*
X465246D01*
Y381487D01*
X479635D01*
Y386230D01*
X474327D01*
Y397638D01*
X482366D01*
Y350500D01*
D02*
G37*
G36*
X444195Y411379D02*
X444232Y411288D01*
Y401704D01*
X444282Y401585D01*
X444282Y401455D01*
X444320Y401364D01*
Y401364D01*
X444320Y401364D01*
X444320Y401364D01*
X444411Y401273D01*
X444423Y401245D01*
X444451Y401233D01*
X444470Y401214D01*
X444540Y401144D01*
X444552Y401116D01*
X444580Y401104D01*
X444671Y401013D01*
X444763Y400975D01*
X444892Y400975D01*
X445011Y400925D01*
X446850D01*
Y379921D01*
X434957D01*
Y386998D01*
X440265D01*
Y391741D01*
X425876D01*
Y386998D01*
X431185D01*
Y379921D01*
X423146D01*
Y411417D01*
X431718D01*
X431910Y410955D01*
X431737Y410783D01*
X431328Y410171D01*
X431185Y409449D01*
Y404340D01*
X425876D01*
Y399597D01*
X440265D01*
Y404340D01*
X434957D01*
Y408668D01*
X437707Y411417D01*
X444103D01*
X444195Y411379D01*
D02*
G37*
G36*
X383858Y375984D02*
X332677D01*
Y403543D01*
X383858D01*
Y375984D01*
D02*
G37*
G36*
X292520Y397155D02*
X284724Y389359D01*
X284262Y389551D01*
Y391053D01*
X279519D01*
Y376664D01*
X284262D01*
Y383562D01*
X292058Y391358D01*
X292520Y391167D01*
Y374715D01*
X289215Y371410D01*
X264853D01*
Y383011D01*
X264709Y383733D01*
X264574Y383936D01*
X264300Y384345D01*
X261811Y386834D01*
Y388018D01*
X262273Y388209D01*
X266920Y383562D01*
Y376664D01*
X271663D01*
Y391053D01*
X266920D01*
Y389551D01*
X266458Y389359D01*
X261811Y394006D01*
Y400787D01*
X292520D01*
Y397155D01*
D02*
G37*
%LPC*%
G36*
X370088Y371368D02*
X365345D01*
Y366059D01*
X333475D01*
Y371368D01*
X328731D01*
Y356979D01*
X333475D01*
Y362287D01*
X365345D01*
Y356979D01*
X370088D01*
Y371368D01*
D02*
G37*
G36*
X370087Y331998D02*
X365344D01*
Y326689D01*
X333474D01*
Y331998D01*
X328731D01*
Y317609D01*
X333474D01*
Y322917D01*
X365344D01*
Y317609D01*
X370087D01*
Y331998D01*
D02*
G37*
G36*
X382687Y371368D02*
X377944D01*
Y356979D01*
X378430D01*
Y331998D01*
X377943D01*
Y317609D01*
X382687D01*
Y331998D01*
X382202D01*
Y356979D01*
X382687D01*
Y371368D01*
D02*
G37*
%LPD*%
D10*
X206528Y462323D02*
D03*
Y387677D02*
D03*
Y323988D02*
D03*
Y375012D02*
D03*
Y314248D02*
D03*
Y239602D02*
D03*
D11*
X227000Y439764D02*
D03*
Y433858D02*
D03*
Y427953D02*
D03*
Y422047D02*
D03*
Y416142D02*
D03*
Y410236D02*
D03*
Y404331D02*
D03*
Y398425D02*
D03*
Y445669D02*
D03*
Y451575D02*
D03*
Y334736D02*
D03*
Y340642D02*
D03*
Y346547D02*
D03*
Y352453D02*
D03*
Y358358D02*
D03*
Y364264D02*
D03*
Y291689D02*
D03*
Y285784D02*
D03*
Y279878D02*
D03*
Y273972D02*
D03*
Y268067D02*
D03*
Y262161D02*
D03*
Y256256D02*
D03*
Y250350D02*
D03*
Y297594D02*
D03*
Y303500D02*
D03*
D12*
X318504Y406693D02*
D03*
X311417D02*
D03*
X344094D02*
D03*
X337008D02*
D03*
X407087D02*
D03*
X400000D02*
D03*
X377559D02*
D03*
X370472D02*
D03*
X400000Y282283D02*
D03*
X407087D02*
D03*
X370472D02*
D03*
X377559D02*
D03*
X311417D02*
D03*
X318504D02*
D03*
X337008D02*
D03*
X344094D02*
D03*
D13*
X314961Y393701D02*
D03*
X340551D02*
D03*
X403543D02*
D03*
X374016D02*
D03*
X403543Y295276D02*
D03*
X374016D02*
D03*
X314961D02*
D03*
X340551D02*
D03*
D14*
X324803Y364173D02*
D03*
X374016D02*
D03*
Y324803D02*
D03*
X324803D02*
D03*
X275590Y423228D02*
D03*
Y383858D02*
D03*
X288976Y472441D02*
D03*
X436613D02*
D03*
X288976Y216535D02*
D03*
X436614D02*
D03*
X275590Y265748D02*
D03*
Y305118D02*
D03*
D15*
X331103Y364173D02*
D03*
X318504D02*
D03*
X380316D02*
D03*
X367717D02*
D03*
X367716Y324803D02*
D03*
X380315D02*
D03*
X318503D02*
D03*
X331102D02*
D03*
X269291Y423228D02*
D03*
X281891D02*
D03*
X269291Y383858D02*
D03*
X281891D02*
D03*
X282676Y472441D02*
D03*
X295276D02*
D03*
X430314D02*
D03*
X442913D02*
D03*
X295276Y216535D02*
D03*
X282676D02*
D03*
X442913D02*
D03*
X430314D02*
D03*
X281890Y265748D02*
D03*
X269290D02*
D03*
X281890Y305118D02*
D03*
X269290D02*
D03*
D16*
X348819Y472441D02*
D03*
X389370D02*
D03*
X388189Y216535D02*
D03*
X348819D02*
D03*
D17*
X353150Y472441D02*
D03*
X344488D02*
D03*
X393701D02*
D03*
X385039D02*
D03*
X383858Y216535D02*
D03*
X392520D02*
D03*
X344488D02*
D03*
X353150D02*
D03*
D18*
X320079Y442913D02*
D03*
X393701D02*
D03*
Y246063D02*
D03*
X320079D02*
D03*
D19*
X324803Y442913D02*
D03*
X315354D02*
D03*
X398425D02*
D03*
X388976D02*
D03*
Y246063D02*
D03*
X398425D02*
D03*
X315354D02*
D03*
X324803D02*
D03*
D20*
X267126Y452756D02*
D03*
X264370D02*
D03*
X473819D02*
D03*
X471063D02*
D03*
Y236221D02*
D03*
X473819D02*
D03*
X264370D02*
D03*
X267126D02*
D03*
D21*
X472441Y383858D02*
D03*
Y371259D02*
D03*
X433071Y401968D02*
D03*
Y389369D02*
D03*
X472441Y317717D02*
D03*
Y305118D02*
D03*
X433071Y301575D02*
D03*
Y288976D02*
D03*
D22*
X472441Y377559D02*
D03*
X433071Y395669D02*
D03*
X472441Y311418D02*
D03*
X433071Y295276D02*
D03*
D23*
X456693Y413386D02*
D03*
Y265748D02*
D03*
D24*
Y409055D02*
D03*
Y417717D02*
D03*
Y261417D02*
D03*
Y270079D02*
D03*
D25*
X300197Y345472D02*
D03*
D26*
X303150Y351181D02*
D03*
X301181D02*
D03*
X299213D02*
D03*
X297244D02*
D03*
X303150Y339764D02*
D03*
X301181D02*
D03*
X299213D02*
D03*
X297244D02*
D03*
D27*
X310236Y341876D02*
D03*
Y348622D02*
D03*
D28*
X412205Y406693D02*
X416400Y402498D01*
Y368369D02*
Y402498D01*
X402806Y354774D02*
X416400Y368369D01*
X398425Y442913D02*
X419500Y421839D01*
Y365957D02*
Y421839D01*
X405905Y352362D02*
X419500Y365957D01*
X415350Y231500D02*
X430314Y216535D01*
X313500Y231500D02*
X415350D01*
X296100Y248900D02*
X313500Y231500D01*
X472441Y383858D02*
Y438059D01*
X460500Y450000D02*
X472441Y438059D01*
X460500Y450000D02*
X460630Y450130D01*
Y478346D01*
X456693Y417717D02*
Y477334D01*
X449338Y484689D02*
X456693Y477334D01*
X296100Y248900D02*
Y279784D01*
X402806Y336171D02*
X415354Y323622D01*
X405905Y337795D02*
X418854Y324847D01*
Y285952D02*
Y324847D01*
X258661Y433858D02*
X269291Y423228D01*
X227000Y433858D02*
X258661D01*
X227000Y427953D02*
X232653D01*
X227000Y422047D02*
X231102D01*
X227000Y416142D02*
X229836D01*
X262966Y383011D01*
X227000Y410236D02*
X229410D01*
X259467Y368486D02*
Y380179D01*
X229410Y410236D02*
X259467Y380179D01*
X227000Y404331D02*
X229410D01*
X255966Y367180D02*
Y377774D01*
X229410Y404331D02*
X255966Y377774D01*
X227000Y398425D02*
X229410D01*
X407087Y406693D02*
X412205D01*
X411417Y278515D02*
X418854Y285952D01*
X411417Y253937D02*
Y278515D01*
X415354Y287402D02*
Y323622D01*
X410236Y282283D02*
X415354Y287402D01*
X407087Y282283D02*
X410236D01*
X433071Y255906D02*
X452756Y236221D01*
Y226378D02*
Y236221D01*
X433071Y255906D02*
Y288976D01*
X442913Y216535D02*
X452756Y226378D01*
X328740Y375984D02*
Y403543D01*
X326772Y374016D02*
X328740Y375984D01*
X401659Y207396D02*
X445322D01*
X392520Y216535D02*
X401659Y207396D01*
X445322D02*
X456693Y218767D01*
Y261417D01*
X466972Y223891D02*
Y239544D01*
X472441Y245013D01*
X482283Y236221D02*
X484252Y238189D01*
Y446850D01*
X478346Y452756D02*
X484252Y446850D01*
X472441Y245013D02*
Y305118D01*
X398425Y246063D02*
X403543D01*
X411417Y253937D01*
X324803Y447244D02*
X388976D01*
X324803Y241732D02*
X388976D01*
X281890Y262289D02*
Y265748D01*
Y262289D02*
X282676Y261503D01*
Y216535D02*
Y261503D01*
X353150Y216535D02*
X383858D01*
X456693Y270079D02*
Y409055D01*
X325197Y275590D02*
X393701D01*
X318504Y282283D02*
X325197Y275590D01*
X393701D02*
X400000Y281890D01*
Y282283D01*
X331102Y324803D02*
X367716D01*
X380315D02*
X380316Y324804D01*
Y364173D01*
X331103D02*
X367717D01*
X433071Y401968D02*
Y409449D01*
X442913Y419291D01*
Y472441D01*
X472441Y317717D02*
Y371259D01*
X417760Y484689D02*
X449338D01*
X450787Y488189D02*
X460630Y478346D01*
X405512Y472441D02*
X417760Y484689D01*
X311024Y488189D02*
X450787D01*
X295276Y472441D02*
X311024Y488189D01*
X393701Y472441D02*
X405512D01*
X353150D02*
X385039D01*
X257498Y403107D02*
X291339D01*
X232653Y427953D02*
X257498Y403107D01*
X291339D02*
Y438081D01*
X325699Y472441D01*
X281496Y423623D02*
X281891Y423228D01*
X281496Y423623D02*
Y454724D01*
X302215Y400640D02*
X308268Y406693D01*
X298715Y416068D02*
X303150Y420503D01*
X295215Y397182D02*
Y436947D01*
X281891Y383858D02*
X295215Y397182D01*
X308268Y406693D02*
X311417D01*
X273622Y462598D02*
X281496Y454724D01*
X281891Y423228D02*
Y426748D01*
X325699Y472441D02*
X344488D01*
X295215Y436947D02*
X316929Y458661D01*
X416535D01*
X303150Y420503D02*
Y437008D01*
X309055Y442913D01*
X328740Y403543D02*
X331890Y406693D01*
X389764Y287402D02*
Y403543D01*
X344094Y282283D02*
X370472D01*
X384646D02*
X389764Y287402D01*
X377559Y282283D02*
X384646D01*
X386614Y406693D02*
X389764Y403543D01*
X377559Y406693D02*
X386614D01*
X395276Y411417D02*
X400000Y406693D01*
X324803Y411417D02*
X395276D01*
X320079Y406693D02*
X324803Y411417D01*
X318504Y406693D02*
X320079D01*
X331890D02*
X337008D01*
X344094D02*
X370472D01*
X252467Y365731D02*
Y375368D01*
X229410Y398425D02*
X252467Y375368D01*
X231102Y422047D02*
X269291Y383858D01*
X416535Y458661D02*
X430314Y472441D01*
X309055Y442913D02*
X315354D01*
X273622Y472441D02*
X282676D01*
X273622Y462598D02*
Y472441D01*
X433071Y359842D02*
Y389369D01*
Y301575D02*
Y329134D01*
X440158Y336221D01*
Y352756D01*
X433071Y359842D02*
X440158Y352756D01*
X405905Y337795D02*
Y352362D01*
X402806Y336171D02*
Y354774D01*
X252467Y365731D02*
X257973Y360224D01*
X255966Y367180D02*
X259823Y363324D01*
X298715Y395732D02*
Y416068D01*
X295215Y392232D02*
X298715Y395732D01*
X259467Y368486D02*
X261529Y366424D01*
X262966Y369711D02*
Y383011D01*
Y369711D02*
X263153Y369524D01*
X302215Y394283D02*
Y400640D01*
X299213Y391281D02*
X302215Y394283D01*
X263153Y369524D02*
X289997D01*
X295215Y374742D01*
Y392232D01*
X293849Y360224D02*
X297798Y364173D01*
X318504D01*
X261529Y366424D02*
X291281D01*
X259823Y363324D02*
X292565D01*
X257973Y360224D02*
X293849D01*
X303256Y374016D02*
X326772D01*
X292565Y363324D02*
X303256Y374016D01*
X291281Y366424D02*
X299213Y374356D01*
Y391281D01*
X327000Y292291D02*
X337008Y282283D01*
X327000Y292291D02*
Y311000D01*
X325000Y313000D02*
X327000Y311000D01*
X307716Y282283D02*
X311417D01*
X227000Y303500D02*
X249800Y326300D01*
X227000Y297594D02*
X252606Y323200D01*
X227000Y291689D02*
X255411Y320100D01*
X227000Y285784D02*
X258217Y317000D01*
X296352Y326300D02*
X297849Y324803D01*
X318503D01*
X255411Y320100D02*
X293784D01*
X252606Y323200D02*
X295068D01*
X249800Y326300D02*
X296352D01*
X305268Y313000D02*
X325000D01*
X295068Y323200D02*
X305268Y313000D01*
X258217Y317000D02*
X292500D01*
X293784Y320100D02*
X302100Y311784D01*
Y287900D02*
X307716Y282283D01*
X302100Y287900D02*
Y311784D01*
X292500Y317000D02*
X299000Y310500D01*
X227000Y279878D02*
X256878D01*
X269290Y292290D01*
Y305118D01*
X227000Y273972D02*
X256472D01*
X266500Y284000D01*
X287500D01*
X446977Y203896D02*
X466972Y223891D01*
X319726Y203896D02*
X446977D01*
X307087Y216535D02*
X319726Y203896D01*
X470472Y222441D02*
Y224410D01*
X448427Y200396D02*
X470472Y222441D01*
X275982Y200396D02*
X448427D01*
X295276Y216535D02*
X307087D01*
X308437Y246063D02*
X315354D01*
X299200Y255300D02*
X308437Y246063D01*
X299200Y255300D02*
Y281068D01*
X299000Y281268D02*
X299200Y281068D01*
X299000Y281268D02*
Y310500D01*
X281890Y293994D02*
X296100Y279784D01*
X281890Y293994D02*
Y305118D01*
X287500Y284000D02*
X293000Y278500D01*
Y247500D02*
Y278500D01*
Y247500D02*
X323965Y216535D01*
X344488D01*
X235252Y265748D02*
X269290D01*
X232933Y268067D02*
X235252Y265748D01*
X227000Y268067D02*
X232933D01*
X227000Y262161D02*
X231339D01*
X257500Y236000D01*
X265748Y210630D02*
X275982Y200396D01*
X265748Y210630D02*
Y226378D01*
D29*
X237008Y439764D02*
X250000Y452756D01*
X227000Y439764D02*
X237008D01*
X463880Y457380D02*
Y484939D01*
X456693Y492126D02*
X463880Y484939D01*
Y457380D02*
X468504Y452756D01*
X277559Y492126D02*
X456693D01*
X267717Y482283D02*
X277559Y492126D01*
X267717Y462598D02*
X271654Y458661D01*
Y452756D02*
Y458661D01*
X269685Y452756D02*
X271654D01*
X267717Y462598D02*
Y482283D01*
X250000Y452756D02*
X261811D01*
D30*
X300813Y336327D02*
Y337741D01*
X296209Y331724D02*
X300813Y336327D01*
X295547Y333324D02*
X299213Y336990D01*
Y339764D01*
X300813Y337741D02*
X301181Y338110D01*
X303150Y339764D02*
X308124D01*
X309680Y335180D02*
Y341320D01*
X248031Y357874D02*
X305118D01*
X237402Y368504D02*
X248031Y357874D01*
X219685Y368504D02*
X237402D01*
X218898Y367717D02*
X219685Y368504D01*
X218898Y341496D02*
Y367717D01*
Y341496D02*
X225658Y334736D01*
X309680Y341320D02*
X310236Y341876D01*
X308124Y339764D02*
X309680Y341320D01*
X225658Y334736D02*
X227000D01*
X297244Y351181D02*
X299213D01*
X301181D01*
X303150D01*
X310236Y348622D02*
Y352756D01*
X305709Y348622D02*
X310236D01*
X303150Y351181D02*
X305709Y348622D01*
X305118Y357874D02*
X310236Y352756D01*
X227000Y346547D02*
X241824Y331724D01*
X227000Y352453D02*
X246129Y333324D01*
X293424Y334924D02*
X297244Y338744D01*
X227000Y358358D02*
X250435Y334924D01*
X293424D01*
X246129Y333324D02*
X295547D01*
X241824Y331724D02*
X296209D01*
X304142Y329642D02*
X309680Y335180D01*
X227000Y340642D02*
X238000Y329642D01*
X304142D01*
D31*
X473819Y236221D02*
X482283D01*
X473819Y452756D02*
X478346D01*
X468504D02*
X471063D01*
X267126D02*
X269685D01*
X261811D02*
X264370D01*
X471063Y225000D02*
Y236221D01*
X470472Y224410D02*
X471063Y225000D01*
X267126Y227756D02*
Y236221D01*
X265748Y226378D02*
X267126Y227756D01*
X257500Y236000D02*
X264150D01*
M02*
