M48
;Layer_Color=9474304
;FILE_FORMAT=2:5
INCH,LZ
;TYPE=PLATED
T1F00S00C0.01200
T2F00S00C0.01299
T3F00S00C0.04000
T4F00S00C0.04016
;TYPE=NON_PLATED
T5F00S00C0.03937
T6F00S00C0.04921
T7F00S00C0.16929
%
T01
X0485Y014
X0481Y0145
Y0155
X0495Y014
X0505
X0515
X0525
X0535
X0545
X0555
Y0144
Y0154
X05505
X0571
Y0144
X0575Y014
X0585
X0595
X05955Y0148
X0605Y014
X0615
X05275Y01561
X0625Y014
X0635
X0632Y0168
Y0172
Y0176
X0627
Y0172
Y0168
Y01815
Y0185
Y0189
Y01925
X0631
Y0189
Y0185
Y01815
X0637
Y01875
X06425Y0194
X0647
X06515
X0656Y0187
Y0172
Y01635
X0641Y0204
X0631
Y02005
Y01965
X0627
Y02005
Y0204
X0641Y0215
X06346Y02305
Y02335
X0635Y0236
X0648Y02585
X0651
X06215Y02675
X06045Y02505
X0597Y02535
X05785Y02405
X05595Y02435
X0543Y0244
Y02505
X05405Y02595
X05375
X05345
X05315
X05285
X0525Y02505
X05275Y0221
X05295Y0219
X05325
X05355
X0536Y0222
Y0225
Y0228
X05375Y02085
X053
X0530308Y0203563
X05295Y01945
X05215Y0195
X05075Y0202
X0499298Y0200304
X0497Y01825
X0492
X04815
X0488Y02205
X05555Y0208
X0571308Y0201563
Y0183563
X0579Y01825
X0583308Y0178563
X0585308Y0174563
X0596Y01745
Y01825
Y0165
Y01565
X0588308Y0162563
X0584308Y0158563
X05815Y01585
X0576Y0161
X0568
Y0157
X0569Y0169
X0562Y0174
X05505Y01575
X05475
X05425
X05375
X05325
X05265Y01603
Y01645
X0582Y0189
X0585Y0211
X0594Y02035
X06025Y0202
Y02055
X0602Y02095
Y02125
X0607Y0222
X0572012Y0221512
X0568Y0258
X05435Y02775
X0541
T02
X0535722Y0174976
X0540446
X0545171
X0549895
Y0179701
X0545171
Y0184425
X0549895
Y018915
X0545171
X0540446
Y0184425
Y0179701
X0535722
Y0184425
Y018915
T03
X0661Y0182
X0671
Y0192
X0661
Y0202
X0671
Y0212
X0661
Y0222
X0671
Y0232
X0661
Y0242
X0671
Y0252
X0661
Y0262
X0671
Y0272
X0661
T04
X0486Y0268
X0496
X0506
X0516
T05
X04865Y0182
X05015
T06
X0496Y0259496
T07
X0653543Y0145669
M30
