<svg width="160.00000004mm" height="87.00000126mm" viewBox="0 0 62992126 34251969"  version="1.1" xmlns="http://www.w3.org/2000/svg" xmlns:xlink="http://www.w3.org/1999/xlink">
<desc>
Origin 10236220 10236220 Bound 10236220 10236220 62992126 34251969
</desc>
<g fill-rule="evenodd" fill="rgb(128, 0, 128)" stroke="black" stroke-width="1" transform="translate(0, 34251969) scale(1, -1) translate(-10236220, -10236220)">
<path id="N" d="M 73228346.00 10236220.00 L 67322834.00 10236220.00 L 67322834.00 10629921.00 L 57874015.00 10629921.00 L 57874015.00 10236220.00 L 50669291.00 10236220.00 L 50669291.00 13011811.00 L 32795276.00 13011811.00 L 32795276.00 10236220.00 L 29527559.00 10236220.00 L 29527559.00 10629921.00 L 13779527.00 10629921.00 L 13779527.00 10236220.00 L 10236220.00 10236220.00 L 10236220.00 44488189.00 L 32795276.00 44488189.00 L 32795276.00 41712598.00 L 50669291.00 41712598.00 L 50669291.00 44488189.00 L 73228346.00 44488189.00 L 73228346.00 10236220.00  zM 14673228.00 11712597.00 L 14181102.00 11712597.00 L 14181102.00 11003937.00 L 14673228.00 11003937.00 L 14673228.00 11712597.00  zM 15570866.00 13598424.00 L 15334646.00 13598424.00 L 15334646.00 13204724.00 L 15570866.00 13204724.00 L 15570866.00 13598424.00  zM 16751968.00 13598424.00 L 16515748.00 13598424.00 L 16515748.00 13204724.00 L 16751968.00 13204724.00 L 16751968.00 13598424.00  zM 17342519.00 13598424.00 L 17106299.00 13598424.00 L 17106299.00 13204724.00 L 17342519.00 13204724.00 L 17342519.00 13598424.00  zM 17933070.00 13598424.00 L 17696850.00 13598424.00 L 17696850.00 13204724.00 L 17933070.00 13204724.00 L 17933070.00 13598424.00  zM 18523622.00 13598424.00 L 18287402.00 13598424.00 L 18287402.00 13204724.00 L 18523622.00 13204724.00 L 18523622.00 13598424.00  zM 19114173.00 13598424.00 L 18877953.00 13598424.00 L 18877953.00 13204724.00 L 19114173.00 13204724.00 L 19114173.00 13598424.00  zM 19704724.00 13598424.00 L 19468504.00 13598424.00 L 19468504.00 13204724.00 L 19704724.00 13204724.00 L 19704724.00 13598424.00  zM 20295275.00 13598424.00 L 20059055.00 13598424.00 L 20059055.00 13204724.00 L 20295275.00 13204724.00 L 20295275.00 13598424.00  zM 22039370.00 11712597.00 L 21547244.00 11712597.00 L 21547244.00 11003937.00 L 22039370.00 11003937.00 L 22039370.00 11712597.00  zM 20885826.00 13598424.00 L 20649606.00 13598424.00 L 20649606.00 13204724.00 L 20885826.00 13204724.00 L 20885826.00 13598424.00  zM 23758345.00 11675668.00 L 23206219.00 11675668.00 L 23206219.00 10907008.00 L 23758345.00 10907008.00 L 23758345.00 11675668.00  zM 24655983.00 13561495.00 L 24359763.00 13561495.00 L 24359763.00 13107795.00 L 24655983.00 13107795.00 L 24655983.00 13561495.00  zM 25246534.00 13561495.00 L 24950314.00 13561495.00 L 24950314.00 13107795.00 L 25246534.00 13107795.00 L 25246534.00 13561495.00  zM 25837085.00 13561495.00 L 25540865.00 13561495.00 L 25540865.00 13107795.00 L 25837085.00 13107795.00 L 25837085.00 13561495.00  zM 26427637.00 13561495.00 L 26131417.00 13561495.00 L 26131417.00 13107795.00 L 26427637.00 13107795.00 L 26427637.00 13561495.00  zM 27018188.00 13561495.00 L 26721968.00 13561495.00 L 26721968.00 13107795.00 L 27018188.00 13107795.00 L 27018188.00 13561495.00  zM 16161417.00 13598424.00 L 15925197.00 13598424.00 L 15925197.00 13204724.00 L 16161417.00 13204724.00 L 16161417.00 13598424.00  zM 18110238.69 17519676.28 m -712098.72 0 a 712098.72 712098.72 0 1 1 1424197.44 0a 712098.72 712098.72 0 1 1 -1424197.44 0M 20423254.00 21033431.00 L 19734278.00 21033431.00 L 19734278.00 20915321.00 L 20423254.00 20915321.00 L 20423254.00 21033431.00  zM 15984246.00 21210643.00 L 15511805.00 21210643.00 L 15511805.00 21023635.00 L 15984246.00 21023635.00 L 15984246.00 21210643.00  zM 23297243.00 21604315.00 L 23179133.00 21604315.00 L 23179133.00 20915339.00 L 23297243.00 20915339.00 L 23297243.00 21604315.00  zM 23868109.00 21604315.00 L 23749999.00 21604315.00 L 23749999.00 20915339.00 L 23868109.00 20915339.00 L 23868109.00 21604315.00  zM 23631904.00 21604331.00 L 23415370.00 21604331.00 L 23415370.00 20915355.00 L 23631904.00 20915355.00 L 23631904.00 21604331.00  zM 25757880.00 21604333.00 L 25639770.00 21604333.00 L 25639770.00 20915357.00 L 25757880.00 20915357.00 L 25757880.00 21604333.00  zM 26328746.00 21604333.00 L 26210636.00 21604333.00 L 26210636.00 20915357.00 L 26328746.00 20915357.00 L 26328746.00 21604333.00  zM 15984244.00 24389775.00 L 15511803.00 24389775.00 L 15511803.00 24202767.00 L 15984244.00 24202767.00 L 15984244.00 24389775.00  zM 15984244.00 24675209.00 L 15511803.00 24675209.00 L 15511803.00 24488201.00 L 15984244.00 24488201.00 L 15984244.00 24675209.00  zM 15984246.00 21496077.00 L 15511805.00 21496077.00 L 15511805.00 21309069.00 L 15984246.00 21309069.00 L 15984246.00 21496077.00  zM 20423254.00 21604297.00 L 19734278.00 21604297.00 L 19734278.00 21486187.00 L 20423254.00 21486187.00 L 20423254.00 21604297.00  zM 20423263.00 21368137.00 L 19734287.00 21368137.00 L 19734287.00 21151603.00 L 20423263.00 21151603.00 L 20423263.00 21368137.00  zM 22391749.00 24517754.00 L 21702773.00 24517754.00 L 21702773.00 24301220.00 L 22391749.00 24301220.00 L 22391749.00 24517754.00  zM 22391770.00 24183054.00 L 21702794.00 24183054.00 L 21702794.00 24064944.00 L 22391770.00 24064944.00 L 22391770.00 24183054.00  zM 26092515.00 21604335.00 L 25875981.00 21604335.00 L 25875981.00 20915359.00 L 26092515.00 20915359.00 L 26092515.00 21604335.00  zM 15984242.00 27313003.00 L 15511801.00 27313003.00 L 15511801.00 27125995.00 L 15984242.00 27125995.00 L 15984242.00 27313003.00  zM 15984242.00 27598437.00 L 15511801.00 27598437.00 L 15511801.00 27411429.00 L 15984242.00 27411429.00 L 15984242.00 27598437.00  zM 15984242.00 30127965.00 L 15511801.00 30127965.00 L 15511801.00 29940957.00 L 15984242.00 29940957.00 L 15984242.00 30127965.00  zM 15984242.00 29842531.00 L 15511801.00 29842531.00 L 15511801.00 29655523.00 L 15984242.00 29655523.00 L 15984242.00 29842531.00  zM 20423223.00 27470476.00 L 19734247.00 27470476.00 L 19734247.00 27253942.00 L 20423223.00 27253942.00 L 20423223.00 27470476.00  zM 20423234.00 27135830.00 L 19734258.00 27135830.00 L 19734258.00 27017720.00 L 20423234.00 27017720.00 L 20423234.00 27135830.00  zM 22391733.00 27470491.00 L 21702757.00 27470491.00 L 21702757.00 27253957.00 L 22391733.00 27253957.00 L 22391733.00 27470491.00  zM 20423234.00 27706696.00 L 19734258.00 27706696.00 L 19734258.00 27588586.00 L 20423234.00 27588586.00 L 20423234.00 27706696.00  zM 22391678.00 30088566.00 L 21702702.00 30088566.00 L 21702702.00 29970456.00 L 22391678.00 29970456.00 L 22391678.00 30088566.00  zM 22391770.00 24753920.00 L 21702794.00 24753920.00 L 21702794.00 24635810.00 L 22391770.00 24635810.00 L 22391770.00 24753920.00  zM 25571495.00 25492755.00 L 25294645.00 25492755.00 L 25294645.00 24901574.00 L 25137794.00 24901574.00 L 25137794.00 24704724.00 L 25294645.00 24704724.00 L 25294645.00 24113543.00 L 25571495.00 24113543.00 L 25571495.00 25492755.00  zM 26673857.00 25492755.00 L 26397007.00 25492755.00 L 26397007.00 24113543.00 L 26673857.00 24113543.00 L 26673857.00 24704724.00 L 26830708.00 24704724.00 L 26830708.00 24901574.00 L 26673857.00 24901574.00 L 26673857.00 25492755.00  zM 26280156.00 25492755.00 L 25688346.00 25492755.00 L 25688346.00 24113543.00 L 26280156.00 24113543.00 L 26280156.00 25492755.00  zM 22391752.00 27706695.00 L 21702776.00 27706695.00 L 21702776.00 27588585.00 L 22391752.00 27588585.00 L 22391752.00 27706695.00  zM 22391752.00 27135829.00 L 21702776.00 27135829.00 L 21702776.00 27017719.00 L 22391752.00 27017719.00 L 22391752.00 27135829.00  zM 26220503.00 30157506.00 L 26033495.00 30157506.00 L 26033495.00 29685065.00 L 26220503.00 29685065.00 L 26220503.00 30157506.00  zM 25935071.00 30157508.00 L 25748063.00 30157508.00 L 25748063.00 29685067.00 L 25935071.00 29685067.00 L 25935071.00 30157508.00  zM 15984242.00 33051192.00 L 15511801.00 33051192.00 L 15511801.00 32864184.00 L 15984242.00 32864184.00 L 15984242.00 33051192.00  zM 20423216.00 32844360.00 L 19734240.00 32844360.00 L 19734240.00 32726250.00 L 20423216.00 32726250.00 L 20423216.00 32844360.00  zM 22391678.00 30659432.00 L 21702702.00 30659432.00 L 21702702.00 30541322.00 L 22391678.00 30541322.00 L 22391678.00 30659432.00  zM 22391749.00 30423174.00 L 21702773.00 30423174.00 L 21702773.00 30206640.00 L 22391749.00 30206640.00 L 22391749.00 30423174.00  zM 15984242.00 33336626.00 L 15511801.00 33336626.00 L 15511801.00 33149618.00 L 15984242.00 33149618.00 L 15984242.00 33336626.00  zM 20423355.00 33179120.00 L 19734379.00 33179120.00 L 19734379.00 32962586.00 L 20423355.00 32962586.00 L 20423355.00 33179120.00  zM 20423216.00 33415226.00 L 19734240.00 33415226.00 L 19734240.00 33297116.00 L 20423216.00 33297116.00 L 20423216.00 33415226.00  zM 18110238.69 37204715.28 m -712098.72 0 a 712098.72 712098.72 0 1 1 1424197.44 0a 712098.72 712098.72 0 1 1 -1424197.44 0M 24616108.00 33415360.00 L 24399574.00 33415360.00 L 24399574.00 32726384.00 L 24616108.00 32726384.00 L 24616108.00 33415360.00  zM 26643700.00 33415368.00 L 26525590.00 33415368.00 L 26525590.00 32726392.00 L 26643700.00 32726392.00 L 26643700.00 33415368.00  zM 26978335.00 33415356.00 L 26761801.00 33415356.00 L 26761801.00 32726380.00 L 26978335.00 32726380.00 L 26978335.00 33415356.00  zM 27214566.00 33415368.00 L 27096456.00 33415368.00 L 27096456.00 32726392.00 L 27214566.00 32726392.00 L 27214566.00 33415368.00  zM 24281503.00 33415390.00 L 24163393.00 33415390.00 L 24163393.00 32726414.00 L 24281503.00 32726414.00 L 24281503.00 33415390.00  zM 24852369.00 33415390.00 L 24734259.00 33415390.00 L 24734259.00 32726414.00 L 24852369.00 32726414.00 L 24852369.00 33415390.00  zM 25935040.00 36850393.00 L 25748032.00 36850393.00 L 25748032.00 36377952.00 L 25935040.00 36377952.00 L 25935040.00 36850393.00  zM 26220474.00 36850393.00 L 26033466.00 36850393.00 L 26033466.00 36377952.00 L 26220474.00 36377952.00 L 26220474.00 36850393.00  zM 28762283.00 11675668.00 L 28210157.00 11675668.00 L 28210157.00 10907008.00 L 28762283.00 10907008.00 L 28762283.00 11675668.00  zM 27608739.00 13561495.00 L 27312519.00 13561495.00 L 27312519.00 13107795.00 L 27608739.00 13107795.00 L 27608739.00 13561495.00  zM 28848418.00 20816928.00 L 28631884.00 20816928.00 L 28631884.00 20127952.00 L 28848418.00 20127952.00 L 28848418.00 20816928.00  zM 32785432.00 20816928.00 L 32568898.00 20816928.00 L 32568898.00 20127952.00 L 32785432.00 20127952.00 L 32785432.00 20816928.00  zM 32450789.00 20816928.00 L 32332679.00 20816928.00 L 32332679.00 20127952.00 L 32450789.00 20127952.00 L 32450789.00 20816928.00  zM 28513779.00 20816936.00 L 28395669.00 20816936.00 L 28395669.00 20127960.00 L 28513779.00 20127960.00 L 28513779.00 20816936.00  zM 29084645.00 20816936.00 L 28966535.00 20816936.00 L 28966535.00 20127960.00 L 29084645.00 20127960.00 L 29084645.00 20816936.00  zM 33021655.00 20816928.00 L 32903545.00 20816928.00 L 32903545.00 20127952.00 L 33021655.00 20127952.00 L 33021655.00 20816928.00  zM 33021655.00 22785432.00 L 32903545.00 22785432.00 L 32903545.00 22096456.00 L 33021655.00 22096456.00 L 33021655.00 22785432.00  zM 28848426.00 22785434.00 L 28631892.00 22785434.00 L 28631892.00 22096458.00 L 28848426.00 22096458.00 L 28848426.00 22785434.00  zM 28513779.00 22785434.00 L 28395669.00 22785434.00 L 28395669.00 22096458.00 L 28513779.00 22096458.00 L 28513779.00 22785434.00  zM 28848426.00 24753938.00 L 28631892.00 24753938.00 L 28631892.00 24064962.00 L 28848426.00 24064962.00 L 28848426.00 24753938.00  zM 29084645.00 24753938.00 L 28966535.00 24753938.00 L 28966535.00 24064962.00 L 29084645.00 24064962.00 L 29084645.00 24753938.00  zM 29084645.00 22785434.00 L 28966535.00 22785434.00 L 28966535.00 22096458.00 L 29084645.00 22096458.00 L 29084645.00 22785434.00  zM 32450789.00 22785432.00 L 32332679.00 22785432.00 L 32332679.00 22096456.00 L 32450789.00 22096456.00 L 32450789.00 22785432.00  zM 32785432.00 22785432.00 L 32568898.00 22785432.00 L 32568898.00 22096456.00 L 32785432.00 22096456.00 L 32785432.00 22785432.00  zM 32785426.00 24753936.00 L 32568892.00 24753936.00 L 32568892.00 24064960.00 L 32785426.00 24064960.00 L 32785426.00 24753936.00  zM 37581127.00 17225226.00 L 37222021.00 17225226.00 L 37222021.00 16848006.00 L 37581127.00 16848006.00 L 37581127.00 17225226.00  zM 37581127.00 17797662.00 L 37222021.00 17797662.00 L 37222021.00 17420442.00 L 37581127.00 17420442.00 L 37581127.00 17797662.00  zM 38835571.00 16752926.00 L 38828740.00 16718582.75 L 38821909.00 16752926.00 A 131112.76 131112.76 0 0 1 38579665.00 16752926.00 L 38572834.50 16718585.27 L 38566004.00 16752926.00 A 131112.76 131112.76 0 0 1 38323760.00 16752926.00 L 38316929.00 16718582.75 L 38310098.00 16752926.00 A 131112.76 131112.76 0 0 1 38057875.00 16702756.00 L 38057875.00 16210630.00 A 131092.80 131092.80 0 0 1 38310098.00 16160460.00 L 38316929.00 16194803.25 L 38323760.00 16160460.00 A 131112.76 131112.76 0 0 1 38566004.00 16160460.00 L 38572834.50 16194800.73 L 38579665.00 16160460.00 A 131112.76 131112.76 0 0 1 38821909.00 16160460.00 L 38828740.00 16194803.25 L 38835571.00 16160460.00 A 131112.76 131112.76 0 0 1 39087794.00 16210630.00 L 39087794.00 16702756.00 A 131092.80 131092.80 0 0 1 38835571.00 16752926.00  zM 38835571.00 18406469.00 L 38828740.00 18372125.75 L 38821909.00 18406469.00 A 131112.76 131112.76 0 0 1 38579665.00 18406469.00 L 38572834.50 18372128.27 L 38566004.00 18406469.00 A 131112.76 131112.76 0 0 1 38323760.00 18406469.00 L 38316929.00 18372125.75 L 38310098.00 18406469.00 A 131112.76 131112.76 0 0 1 38057875.00 18356299.00 L 38057875.00 17864173.00 A 131092.80 131092.80 0 0 1 38310098.00 17814003.00 L 38316929.00 17848346.25 L 38323760.00 17814003.00 A 131112.76 131112.76 0 0 1 38566004.00 17814003.00 L 38572834.50 17848343.73 L 38579665.00 17814003.00 A 131112.76 131112.76 0 0 1 38821909.00 17814003.00 L 38828740.00 17848346.25 L 38835571.00 17814003.00 A 131112.76 131112.76 0 0 1 39087794.00 17864173.00 L 39087794.00 18356299.00 A 131092.80 131092.80 0 0 1 38835571.00 18406469.00  zM 41732285.69 17519676.28 m -712098.72 0 a 712098.72 712098.72 0 1 1 1424197.44 0a 712098.72 712098.72 0 1 1 -1424197.44 0M 36781498.00 20816922.00 L 36663388.00 20816922.00 L 36663388.00 20127946.00 L 36781498.00 20127946.00 L 36781498.00 20816922.00  zM 37116149.00 20816930.00 L 36899615.00 20816930.00 L 36899615.00 20127954.00 L 37116149.00 20127954.00 L 37116149.00 20816930.00  zM 37352364.00 20816922.00 L 37234254.00 20816922.00 L 37234254.00 20127946.00 L 37352364.00 20127946.00 L 37352364.00 20816922.00  zM 39931104.00 22785426.00 L 39812994.00 22785426.00 L 39812994.00 22096450.00 L 39931104.00 22096450.00 L 39931104.00 22785426.00  zM 36781498.00 22785432.00 L 36663388.00 22785432.00 L 36663388.00 22096456.00 L 36781498.00 22096456.00 L 36781498.00 22785432.00  zM 37352364.00 22785432.00 L 37234254.00 22785432.00 L 37234254.00 22096456.00 L 37352364.00 22096456.00 L 37352364.00 22785432.00  zM 37116141.00 22785432.00 L 36899607.00 22785432.00 L 36899607.00 22096456.00 L 37116141.00 22096456.00 L 37116141.00 22785432.00  zM 37116135.00 24753936.00 L 36899601.00 24753936.00 L 36899601.00 24064960.00 L 37116135.00 24064960.00 L 37116135.00 24753936.00  zM 40501970.00 22785426.00 L 40383860.00 22785426.00 L 40383860.00 22096450.00 L 40501970.00 22096450.00 L 40501970.00 22785426.00  zM 40265755.00 22785434.00 L 40049221.00 22785434.00 L 40049221.00 22096458.00 L 40265755.00 22096458.00 L 40265755.00 22785434.00  zM 39931105.00 24753930.00 L 39812995.00 24753930.00 L 39812995.00 24064954.00 L 39931105.00 24064954.00 L 39931105.00 24753930.00  zM 40501971.00 24753930.00 L 40383861.00 24753930.00 L 40383861.00 24064954.00 L 40501971.00 24064954.00 L 40501971.00 24753930.00  zM 28513779.00 24753938.00 L 28395669.00 24753938.00 L 28395669.00 24064962.00 L 28513779.00 24064962.00 L 28513779.00 24753938.00  zM 28582682.00 26614175.00 L 28395674.00 26614175.00 L 28395674.00 26141734.00 L 28582682.00 26141734.00 L 28582682.00 26614175.00  zM 32450787.00 24753944.00 L 32332677.00 24753944.00 L 32332677.00 24064968.00 L 32450787.00 24064968.00 L 32450787.00 24753944.00  zM 28297248.00 26614175.00 L 28110240.00 26614175.00 L 28110240.00 26141734.00 L 28297248.00 26141734.00 L 28297248.00 26614175.00  zM 30944888.00 30157482.00 L 30757880.00 30157482.00 L 30757880.00 29685041.00 L 30944888.00 29685041.00 L 30944888.00 30157482.00  zM 33021653.00 24753944.00 L 32903543.00 24753944.00 L 32903543.00 24064968.00 L 33021653.00 24064968.00 L 33021653.00 24753944.00  zM 32942916.00 26614173.00 L 32755908.00 26614173.00 L 32755908.00 26141732.00 L 32942916.00 26141732.00 L 32942916.00 26614173.00  zM 32657482.00 26614173.00 L 32470474.00 26614173.00 L 32470474.00 26141732.00 L 32657482.00 26141732.00 L 32657482.00 26614173.00  zM 35275596.00 30157482.00 L 35088588.00 30157482.00 L 35088588.00 29685041.00 L 35275596.00 29685041.00 L 35275596.00 30157482.00  zM 30659454.00 30157482.00 L 30472446.00 30157482.00 L 30472446.00 29685041.00 L 30659454.00 29685041.00 L 30659454.00 30157482.00  zM 29694883.00 33415354.00 L 29576773.00 33415354.00 L 29576773.00 32726378.00 L 29694883.00 32726378.00 L 29694883.00 33415354.00  zM 30265749.00 33415354.00 L 30147639.00 33415354.00 L 30147639.00 32726378.00 L 30265749.00 32726378.00 L 30265749.00 33415354.00  zM 30029526.00 33415354.00 L 29812992.00 33415354.00 L 29812992.00 32726378.00 L 30029526.00 32726378.00 L 30029526.00 33415354.00  zM 34990162.00 30157482.00 L 34803154.00 30157482.00 L 34803154.00 29685041.00 L 34990162.00 29685041.00 L 34990162.00 30157482.00  zM 32844490.00 33415348.00 L 32726380.00 33415348.00 L 32726380.00 32726372.00 L 32844490.00 32726372.00 L 32844490.00 33415348.00  zM 33415356.00 33415348.00 L 33297246.00 33415348.00 L 33297246.00 32726372.00 L 33415356.00 32726372.00 L 33415356.00 33415348.00  zM 33179141.00 33415356.00 L 32962607.00 33415356.00 L 32962607.00 32726380.00 L 33179141.00 32726380.00 L 33179141.00 33415356.00  zM 36781496.00 24753944.00 L 36663386.00 24753944.00 L 36663386.00 24064968.00 L 36781496.00 24064968.00 L 36781496.00 24753944.00  zM 37352362.00 24753944.00 L 37234252.00 24753944.00 L 37234252.00 24064968.00 L 37352362.00 24064968.00 L 37352362.00 24753944.00  zM 37352366.00 26614175.00 L 37165358.00 26614175.00 L 37165358.00 26141734.00 L 37352366.00 26141734.00 L 37352366.00 26614175.00  zM 37637800.00 26614175.00 L 37450792.00 26614175.00 L 37450792.00 26141734.00 L 37637800.00 26141734.00 L 37637800.00 26614175.00  zM 40265756.00 24753938.00 L 40049222.00 24753938.00 L 40049222.00 24064962.00 L 40265756.00 24064962.00 L 40265756.00 24753938.00  zM 40265741.00 26722440.00 L 40049207.00 26722440.00 L 40049207.00 26033464.00 L 40265741.00 26033464.00 L 40265741.00 26722440.00  zM 39931102.00 26722448.00 L 39812992.00 26722448.00 L 39812992.00 26033472.00 L 39931102.00 26033472.00 L 39931102.00 26722448.00  zM 40501968.00 26722448.00 L 40383858.00 26722448.00 L 40383858.00 26033472.00 L 40501968.00 26033472.00 L 40501968.00 26722448.00  zM 38356302.00 31053145.00 L 38238192.00 31053145.00 L 38238192.00 30364169.00 L 38356302.00 30364169.00 L 38356302.00 31053145.00  zM 37116143.00 33415356.00 L 36899609.00 33415356.00 L 36899609.00 32726380.00 L 37116143.00 32726380.00 L 37116143.00 33415356.00  zM 36781496.00 33415356.00 L 36663386.00 33415356.00 L 36663386.00 32726380.00 L 36781496.00 32726380.00 L 36781496.00 33415356.00  zM 37352362.00 33415356.00 L 37234252.00 33415356.00 L 37234252.00 32726380.00 L 37352362.00 32726380.00 L 37352362.00 33415356.00  zM 38927168.00 31053145.00 L 38809058.00 31053145.00 L 38809058.00 30364169.00 L 38927168.00 30364169.00 L 38927168.00 31053145.00  zM 41683072.00 30157479.00 L 41496064.00 30157479.00 L 41496064.00 29685038.00 L 41683072.00 29685038.00 L 41683072.00 30157479.00  zM 38690951.00 31053151.00 L 38474417.00 31053151.00 L 38474417.00 30364175.00 L 38690951.00 30364175.00 L 38690951.00 31053151.00  zM 41683071.00 34094486.00 L 41496063.00 34094486.00 L 41496063.00 33622045.00 L 41683071.00 33622045.00 L 41683071.00 34094486.00  zM 45061442.00 18012628.00 L 44702336.00 18012628.00 L 44702336.00 17635408.00 L 45061442.00 17635408.00 L 45061442.00 18012628.00  zM 46457479.00 18081495.00 L 45668504.00 18081495.00 L 45668504.00 17705905.00 L 45737402.00 17705905.00 L 45737402.00 16939763.00 L 45668504.00 16939763.00 L 45668504.00 16564173.00 L 46457479.00 16564173.00 L 46457479.00 16939763.00 L 46388582.00 16939763.00 L 46388582.00 17705905.00 L 46457479.00 17705905.00 L 46457479.00 18081495.00  zM 45061442.00 18585064.00 L 44702336.00 18585064.00 L 44702336.00 18207844.00 L 45061442.00 18207844.00 L 45061442.00 18585064.00  zM 46171258.00 20816928.00 L 45954724.00 20816928.00 L 45954724.00 20127952.00 L 46171258.00 20127952.00 L 46171258.00 20816928.00  zM 45836615.00 20816928.00 L 45718505.00 20816928.00 L 45718505.00 20127952.00 L 45836615.00 20127952.00 L 45836615.00 20816928.00  zM 43257875.00 22785432.00 L 43139765.00 22785432.00 L 43139765.00 22096456.00 L 43257875.00 22096456.00 L 43257875.00 22785432.00  zM 45836615.00 22785426.00 L 45718505.00 22785426.00 L 45718505.00 22096450.00 L 45836615.00 22096450.00 L 45836615.00 22785426.00  zM 46407481.00 20816928.00 L 46289371.00 20816928.00 L 46289371.00 20127952.00 L 46407481.00 20127952.00 L 46407481.00 20816928.00  zM 46407481.00 22785426.00 L 46289371.00 22785426.00 L 46289371.00 22096450.00 L 46407481.00 22096450.00 L 46407481.00 22785426.00  zM 42687009.00 22785432.00 L 42568899.00 22785432.00 L 42568899.00 22096456.00 L 42687009.00 22096456.00 L 42687009.00 22785432.00  zM 43021652.00 22785432.00 L 42805118.00 22785432.00 L 42805118.00 22096456.00 L 43021652.00 22096456.00 L 43021652.00 22785432.00  zM 43021652.00 24753936.00 L 42805118.00 24753936.00 L 42805118.00 24064960.00 L 43021652.00 24064960.00 L 43021652.00 24753936.00  zM 42687009.00 24753936.00 L 42568899.00 24753936.00 L 42568899.00 24064960.00 L 42687009.00 24064960.00 L 42687009.00 24753936.00  zM 43257875.00 24753936.00 L 43139765.00 24753936.00 L 43139765.00 24064960.00 L 43257875.00 24064960.00 L 43257875.00 24753936.00  zM 45836614.00 24753938.00 L 45718504.00 24753938.00 L 45718504.00 24064962.00 L 45836614.00 24064962.00 L 45836614.00 24753938.00  zM 46171266.00 22785434.00 L 45954732.00 22785434.00 L 45954732.00 22096458.00 L 46171266.00 22096458.00 L 46171266.00 22785434.00  zM 46407480.00 24753938.00 L 46289370.00 24753938.00 L 46289370.00 24064962.00 L 46407480.00 24064962.00 L 46407480.00 24753938.00  zM 48294233.00 16811980.00 L 48287402.00 16777636.75 L 48280571.00 16811980.00 A 131112.76 131112.76 0 0 1 48038327.00 16811980.00 L 48031496.50 16777639.27 L 48024666.00 16811980.00 A 131112.76 131112.76 0 0 1 47782422.00 16811980.00 L 47775591.00 16777636.75 L 47768760.00 16811980.00 A 131112.76 131112.76 0 0 1 47516537.00 16761810.00 L 47516537.00 16190944.00 A 131092.80 131092.80 0 0 1 47768760.00 16140774.00 L 47775591.00 16175117.25 L 47782422.00 16140774.00 A 131112.76 131112.76 0 0 1 48024666.00 16140774.00 L 48031496.50 16175114.73 L 48038327.00 16140774.00 A 131112.76 131112.76 0 0 1 48280571.00 16140774.00 L 48287402.00 16175117.25 L 48294233.00 16140774.00 A 131112.76 131112.76 0 0 1 48546456.00 16190944.00 L 48546456.00 16761810.00 A 131092.80 131092.80 0 0 1 48294233.00 16811980.00  zM 49785852.00 17225226.00 L 49426746.00 17225226.00 L 49426746.00 16848006.00 L 49785852.00 16848006.00 L 49785852.00 17225226.00  zM 49785852.00 17797662.00 L 49426746.00 17797662.00 L 49426746.00 17420442.00 L 49785852.00 17420442.00 L 49785852.00 17797662.00  zM 48294233.00 18504893.00 L 48287402.00 18470549.75 L 48280571.00 18504893.00 A 131112.76 131112.76 0 0 1 48038327.00 18504893.00 L 48031496.50 18470552.27 L 48024666.00 18504893.00 A 131112.76 131112.76 0 0 1 47782422.00 18504893.00 L 47775591.00 18470549.75 L 47768760.00 18504893.00 A 131112.76 131112.76 0 0 1 47516537.00 18454723.00 L 47516537.00 17883857.00 A 131092.80 131092.80 0 0 1 47768760.00 17833687.00 L 47775591.00 17868030.25 L 47782422.00 17833687.00 A 131112.76 131112.76 0 0 1 48024666.00 17833687.00 L 48031496.50 17868027.73 L 48038327.00 17833687.00 A 131112.76 131112.76 0 0 1 48280571.00 17833687.00 L 48287402.00 17868030.25 L 48294233.00 17833687.00 A 131112.76 131112.76 0 0 1 48546456.00 17883857.00 L 48546456.00 18454723.00 A 131092.80 131092.80 0 0 1 48294233.00 18504893.00  zM 50167324.00 20816928.00 L 50049214.00 20816928.00 L 50049214.00 20127952.00 L 50167324.00 20127952.00 L 50167324.00 20816928.00  zM 50501967.00 20816928.00 L 50285433.00 20816928.00 L 50285433.00 20127952.00 L 50501967.00 20127952.00 L 50501967.00 20816928.00  zM 50738190.00 20816928.00 L 50620080.00 20816928.00 L 50620080.00 20127952.00 L 50738190.00 20127952.00 L 50738190.00 20816928.00  zM 54104332.00 20816922.00 L 53986222.00 20816922.00 L 53986222.00 20127946.00 L 54104332.00 20127946.00 L 54104332.00 20816922.00  zM 54675198.00 20816922.00 L 54557088.00 20816922.00 L 54557088.00 20127946.00 L 54675198.00 20127946.00 L 54675198.00 20816922.00  zM 50167325.00 22785432.00 L 50049215.00 22785432.00 L 50049215.00 22096456.00 L 50167325.00 22096456.00 L 50167325.00 22785432.00  zM 50501968.00 22785432.00 L 50285434.00 22785432.00 L 50285434.00 22096456.00 L 50501968.00 22096456.00 L 50501968.00 22785432.00  zM 50738191.00 22785432.00 L 50620081.00 22785432.00 L 50620081.00 22096456.00 L 50738191.00 22096456.00 L 50738191.00 22785432.00  zM 50501961.00 24753936.00 L 50285427.00 24753936.00 L 50285427.00 24064960.00 L 50501961.00 24064960.00 L 50501961.00 24753936.00  zM 54438983.00 20816930.00 L 54222449.00 20816930.00 L 54222449.00 20127954.00 L 54438983.00 20127954.00 L 54438983.00 20816930.00  zM 54675198.00 22785426.00 L 54557088.00 22785426.00 L 54557088.00 22096450.00 L 54675198.00 22096450.00 L 54675198.00 22785426.00  zM 54104332.00 22785426.00 L 53986222.00 22785426.00 L 53986222.00 22096450.00 L 54104332.00 22096450.00 L 54104332.00 22785426.00  zM 54438983.00 22785434.00 L 54222449.00 22785434.00 L 54222449.00 22096458.00 L 54438983.00 22096458.00 L 54438983.00 22785434.00  zM 43021654.00 26722442.00 L 42805120.00 26722442.00 L 42805120.00 26033466.00 L 43021654.00 26033466.00 L 43021654.00 26722442.00  zM 43257873.00 26722442.00 L 43139763.00 26722442.00 L 43139763.00 26033466.00 L 43257873.00 26033466.00 L 43257873.00 26722442.00  zM 45620082.00 26614174.00 L 45433074.00 26614174.00 L 45433074.00 26141733.00 L 45620082.00 26141733.00 L 45620082.00 26614174.00  zM 42687007.00 26722442.00 L 42568897.00 26722442.00 L 42568897.00 26033466.00 L 42687007.00 26033466.00 L 42687007.00 26722442.00  zM 41968506.00 30157479.00 L 41781498.00 30157479.00 L 41781498.00 29685038.00 L 41968506.00 29685038.00 L 41968506.00 30157479.00  zM 46171261.00 24753938.00 L 45954727.00 24753938.00 L 45954727.00 24064962.00 L 46171261.00 24064962.00 L 46171261.00 24753938.00  zM 45905516.00 26614174.00 L 45718508.00 26614174.00 L 45718508.00 26141733.00 L 45905516.00 26141733.00 L 45905516.00 26614174.00  zM 47982287.00 30157481.00 L 47795279.00 30157481.00 L 47795279.00 29685040.00 L 47982287.00 29685040.00 L 47982287.00 30157481.00  zM 48267721.00 30157481.00 L 48080713.00 30157481.00 L 48080713.00 29685040.00 L 48267721.00 29685040.00 L 48267721.00 30157481.00  zM 50167322.00 24753944.00 L 50049212.00 24753944.00 L 50049212.00 24064968.00 L 50167322.00 24064968.00 L 50167322.00 24753944.00  zM 50738188.00 24753944.00 L 50620078.00 24753944.00 L 50620078.00 24064968.00 L 50738188.00 24064968.00 L 50738188.00 24753944.00  zM 50374019.00 26614174.00 L 50187011.00 26614174.00 L 50187011.00 26141733.00 L 50374019.00 26141733.00 L 50374019.00 26614174.00  zM 50659453.00 26614174.00 L 50472445.00 26614174.00 L 50472445.00 26141733.00 L 50659453.00 26141733.00 L 50659453.00 26614174.00  zM 54675196.00 24753938.00 L 54557086.00 24753938.00 L 54557086.00 24064962.00 L 54675196.00 24064962.00 L 54675196.00 24753938.00  zM 54438977.00 24753938.00 L 54222443.00 24753938.00 L 54222443.00 24064962.00 L 54438977.00 24064962.00 L 54438977.00 24753938.00  zM 54104330.00 24753938.00 L 53986220.00 24753938.00 L 53986220.00 24064962.00 L 54104330.00 24064962.00 L 54104330.00 24753938.00  zM 54675200.00 26614174.00 L 54488192.00 26614174.00 L 54488192.00 26141733.00 L 54675200.00 26141733.00 L 54675200.00 26614174.00  zM 44596450.00 31053149.00 L 44379916.00 31053149.00 L 44379916.00 30364173.00 L 44596450.00 30364173.00 L 44596450.00 31053149.00  zM 44261811.00 31053157.00 L 44143701.00 31053157.00 L 44143701.00 30364181.00 L 44261811.00 30364181.00 L 44261811.00 31053157.00  zM 44832677.00 31053157.00 L 44714567.00 31053157.00 L 44714567.00 30364181.00 L 44832677.00 30364181.00 L 44832677.00 31053157.00  zM 46171253.00 33415354.00 L 45954719.00 33415354.00 L 45954719.00 32726378.00 L 46171253.00 32726378.00 L 46171253.00 33415354.00  zM 41968505.00 34094486.00 L 41781497.00 34094486.00 L 41781497.00 33622045.00 L 41968505.00 33622045.00 L 41968505.00 34094486.00  zM 41732285.69 37204715.28 m -712098.72 0 a 712098.72 712098.72 0 1 1 1424197.44 0a 712098.72 712098.72 0 1 1 -1424197.44 0M 45836614.00 33415362.00 L 45718504.00 33415362.00 L 45718504.00 32726386.00 L 45836614.00 32726386.00 L 45836614.00 33415362.00  zM 46407480.00 33415362.00 L 46289370.00 33415362.00 L 46289370.00 32726386.00 L 46407480.00 32726386.00 L 46407480.00 33415362.00  zM 52312995.00 30157481.00 L 52125987.00 30157481.00 L 52125987.00 29685040.00 L 52312995.00 29685040.00 L 52312995.00 30157481.00  zM 52598429.00 30157481.00 L 52411421.00 30157481.00 L 52411421.00 29685040.00 L 52598429.00 29685040.00 L 52598429.00 30157481.00  zM 49950789.00 33415348.00 L 49832679.00 33415348.00 L 49832679.00 32726372.00 L 49950789.00 32726372.00 L 49950789.00 33415348.00  zM 52135828.00 33415348.00 L 52017718.00 33415348.00 L 52017718.00 32726372.00 L 52135828.00 32726372.00 L 52135828.00 33415348.00  zM 49379923.00 33415348.00 L 49261813.00 33415348.00 L 49261813.00 32726372.00 L 49379923.00 32726372.00 L 49379923.00 33415348.00  zM 49714574.00 33415356.00 L 49498040.00 33415356.00 L 49498040.00 32726380.00 L 49714574.00 32726380.00 L 49714574.00 33415356.00  zM 52706694.00 33415348.00 L 52588584.00 33415348.00 L 52588584.00 32726372.00 L 52706694.00 32726372.00 L 52706694.00 33415348.00  zM 52470479.00 33415356.00 L 52253945.00 33415356.00 L 52253945.00 32726380.00 L 52470479.00 32726380.00 L 52470479.00 33415356.00  zM 59161417.00 11712597.00 L 58669291.00 11712597.00 L 58669291.00 11003937.00 L 59161417.00 11003937.00 L 59161417.00 11712597.00  zM 60059055.00 13598424.00 L 59822835.00 13598424.00 L 59822835.00 13204724.00 L 60059055.00 13204724.00 L 60059055.00 13598424.00  zM 61240157.00 13598424.00 L 61003937.00 13598424.00 L 61003937.00 13204724.00 L 61240157.00 13204724.00 L 61240157.00 13598424.00  zM 61830708.00 13598424.00 L 61594488.00 13598424.00 L 61594488.00 13204724.00 L 61830708.00 13204724.00 L 61830708.00 13598424.00  zM 62421259.00 13598424.00 L 62185039.00 13598424.00 L 62185039.00 13204724.00 L 62421259.00 13204724.00 L 62421259.00 13598424.00  zM 60649606.00 13598424.00 L 60413386.00 13598424.00 L 60413386.00 13204724.00 L 60649606.00 13204724.00 L 60649606.00 13598424.00  zM 61851210.00 17659868.00 L 61434620.00 17659868.00 L 61434620.00 16985800.00 L 61851210.00 16985800.00 L 61851210.00 17659868.00  zM 61457509.00 18840971.00 L 61040919.00 18840971.00 L 61040919.00 18166903.00 L 61457509.00 18166903.00 L 61457509.00 18840971.00  zM 62581127.00 18840971.00 L 62164537.00 18840971.00 L 62164537.00 18166903.00 L 62581127.00 18166903.00 L 62581127.00 18840971.00  zM 63602362.00 13598424.00 L 63366142.00 13598424.00 L 63366142.00 13204724.00 L 63602362.00 13204724.00 L 63602362.00 13598424.00  zM 64783464.00 13598424.00 L 64547244.00 13598424.00 L 64547244.00 13204724.00 L 64783464.00 13204724.00 L 64783464.00 13598424.00  zM 66527559.00 11712597.00 L 66035433.00 11712597.00 L 66035433.00 11003937.00 L 66527559.00 11003937.00 L 66527559.00 11712597.00  zM 65374015.00 13598424.00 L 65137795.00 13598424.00 L 65137795.00 13204724.00 L 65374015.00 13204724.00 L 65374015.00 13598424.00  zM 63011811.00 13598424.00 L 62775591.00 13598424.00 L 62775591.00 13204724.00 L 63011811.00 13204724.00 L 63011811.00 13598424.00  zM 64192913.00 13598424.00 L 63956693.00 13598424.00 L 63956693.00 13204724.00 L 64192913.00 13204724.00 L 64192913.00 13598424.00  zM 62974828.00 17659868.00 L 62558238.00 17659868.00 L 62558238.00 16985800.00 L 62974828.00 16985800.00 L 62974828.00 17659868.00  zM 65354333.69 17519676.28 m -712098.72 0 a 712098.72 712098.72 0 1 1 1424197.44 0a 712098.72 712098.72 0 1 1 -1424197.44 0M 57352367.00 21604330.00 L 57234257.00 21604330.00 L 57234257.00 20915354.00 L 57352367.00 20915354.00 L 57352367.00 21604330.00  zM 57687008.00 21604338.00 L 57470474.00 21604338.00 L 57470474.00 20915362.00 L 57687008.00 20915362.00 L 57687008.00 21604338.00  zM 57923233.00 21604330.00 L 57805123.00 21604330.00 L 57805123.00 20915354.00 L 57923233.00 20915354.00 L 57923233.00 21604330.00  zM 59616143.00 21604330.00 L 59498033.00 21604330.00 L 59498033.00 20915354.00 L 59616143.00 20915354.00 L 59616143.00 21604330.00  zM 59950786.00 21604328.00 L 59734252.00 21604328.00 L 59734252.00 20915352.00 L 59950786.00 20915352.00 L 59950786.00 21604328.00  zM 60187009.00 21604330.00 L 60068899.00 21604330.00 L 60068899.00 20915354.00 L 60187009.00 20915354.00 L 60187009.00 21604330.00  zM 61761822.00 24183012.00 L 61072846.00 24183012.00 L 61072846.00 24064902.00 L 61761822.00 24064902.00 L 61761822.00 24183012.00  zM 61761822.00 24753878.00 L 61072846.00 24753878.00 L 61072846.00 24635768.00 L 61761822.00 24635768.00 L 61761822.00 24753878.00  zM 63730293.00 21131888.00 L 63041317.00 21131888.00 L 63041317.00 21013778.00 L 63730293.00 21013778.00 L 63730293.00 21131888.00  zM 63730314.00 21466512.00 L 63041338.00 21466512.00 L 63041338.00 21249978.00 L 63730314.00 21249978.00 L 63730314.00 21466512.00  zM 63730293.00 21702754.00 L 63041317.00 21702754.00 L 63041317.00 21584644.00 L 63730293.00 21584644.00 L 63730293.00 21702754.00  zM 61761869.00 24517728.00 L 61072893.00 24517728.00 L 61072893.00 24301194.00 L 61761869.00 24301194.00 L 61761869.00 24517728.00  zM 67952755.00 21210609.00 L 67480314.00 21210609.00 L 67480314.00 21023601.00 L 67952755.00 21023601.00 L 67952755.00 21210609.00  zM 67952755.00 21496043.00 L 67480314.00 21496043.00 L 67480314.00 21309035.00 L 67952755.00 21309035.00 L 67952755.00 21496043.00  zM 67952755.00 24360215.00 L 67480314.00 24360215.00 L 67480314.00 24173207.00 L 67952755.00 24173207.00 L 67952755.00 24360215.00  zM 67952755.00 24645649.00 L 67480314.00 24645649.00 L 67480314.00 24458641.00 L 67952755.00 24458641.00 L 67952755.00 24645649.00  zM 57067558.00 25492755.00 L 56790708.00 25492755.00 L 56790708.00 24901574.00 L 56633857.00 24901574.00 L 56633857.00 24704724.00 L 56790708.00 24704724.00 L 56790708.00 24113543.00 L 57067558.00 24113543.00 L 57067558.00 25492755.00  zM 54960634.00 26614174.00 L 54773626.00 26614174.00 L 54773626.00 26141733.00 L 54960634.00 26141733.00 L 54960634.00 26614174.00  zM 57776219.00 25492755.00 L 57184409.00 25492755.00 L 57184409.00 24113543.00 L 57776219.00 24113543.00 L 57776219.00 25492755.00  zM 57431105.00 30157481.00 L 57244097.00 30157481.00 L 57244097.00 29685040.00 L 57431105.00 29685040.00 L 57431105.00 30157481.00  zM 57716539.00 30157481.00 L 57529531.00 30157481.00 L 57529531.00 29685040.00 L 57716539.00 29685040.00 L 57716539.00 30157481.00  zM 58169920.00 25492755.00 L 57893070.00 25492755.00 L 57893070.00 24113543.00 L 58169920.00 24113543.00 L 58169920.00 24704724.00 L 58326771.00 24704724.00 L 58326771.00 24901574.00 L 58169920.00 24901574.00 L 58169920.00 25492755.00  zM 61761486.00 27372054.00 L 61072510.00 27372054.00 L 61072510.00 27155520.00 L 61761486.00 27155520.00 L 61761486.00 27372054.00  zM 61761815.00 27608596.00 L 61072839.00 27608596.00 L 61072839.00 27490486.00 L 61761815.00 27490486.00 L 61761815.00 27608596.00  zM 61761762.00 30127959.00 L 61072786.00 30127959.00 L 61072786.00 29911425.00 L 61761762.00 29911425.00 L 61761762.00 30127959.00  zM 55226379.00 33415356.00 L 55009845.00 33415356.00 L 55009845.00 32726380.00 L 55226379.00 32726380.00 L 55226379.00 33415356.00  zM 55462598.00 33415356.00 L 55344488.00 33415356.00 L 55344488.00 32726380.00 L 55462598.00 32726380.00 L 55462598.00 33415356.00  zM 57253936.00 33415356.00 L 57135826.00 33415356.00 L 57135826.00 32726380.00 L 57253936.00 32726380.00 L 57253936.00 33415356.00  zM 57824802.00 33415356.00 L 57706692.00 33415356.00 L 57706692.00 32726380.00 L 57824802.00 32726380.00 L 57824802.00 33415356.00  zM 54891732.00 33415356.00 L 54773622.00 33415356.00 L 54773622.00 32726380.00 L 54891732.00 32726380.00 L 54891732.00 33415356.00  zM 57588583.00 33415356.00 L 57372049.00 33415356.00 L 57372049.00 32726380.00 L 57588583.00 32726380.00 L 57588583.00 33415356.00  zM 57431103.00 36850393.00 L 57244095.00 36850393.00 L 57244095.00 36377952.00 L 57431103.00 36377952.00 L 57431103.00 36850393.00  zM 57716537.00 36850393.00 L 57529529.00 36850393.00 L 57529529.00 36377952.00 L 57716537.00 36377952.00 L 57716537.00 36850393.00  zM 61761815.00 27037730.00 L 61072839.00 27037730.00 L 61072839.00 26919620.00 L 61761815.00 26919620.00 L 61761815.00 27037730.00  zM 63730314.00 27470520.00 L 63041338.00 27470520.00 L 63041338.00 27253986.00 L 63730314.00 27253986.00 L 63730314.00 27470520.00  zM 61761815.00 29793355.00 L 61072839.00 29793355.00 L 61072839.00 29675245.00 L 61761815.00 29675245.00 L 61761815.00 29793355.00  zM 63730365.00 27706690.00 L 63041389.00 27706690.00 L 63041389.00 27588580.00 L 63730365.00 27588580.00 L 63730365.00 27706690.00  zM 63730365.00 27135824.00 L 63041389.00 27135824.00 L 63041389.00 27017714.00 L 63730365.00 27017714.00 L 63730365.00 27135824.00  zM 67952755.00 29872026.00 L 67480314.00 29872026.00 L 67480314.00 29685018.00 L 67952755.00 29685018.00 L 67952755.00 29872026.00  zM 67952757.00 27312971.00 L 67480316.00 27312971.00 L 67480316.00 27125963.00 L 67952757.00 27125963.00 L 67952757.00 27312971.00  zM 67952757.00 27598405.00 L 67480316.00 27598405.00 L 67480316.00 27411397.00 L 67952757.00 27411397.00 L 67952757.00 27598405.00  zM 61761815.00 30364221.00 L 61072839.00 30364221.00 L 61072839.00 30246111.00 L 61761815.00 30246111.00 L 61761815.00 30364221.00  zM 63730351.00 32844485.00 L 63041375.00 32844485.00 L 63041375.00 32726375.00 L 63730351.00 32726375.00 L 63730351.00 32844485.00  zM 67952755.00 30157460.00 L 67480314.00 30157460.00 L 67480314.00 29970452.00 L 67952755.00 29970452.00 L 67952755.00 30157460.00  zM 67952755.00 33021633.00 L 67480314.00 33021633.00 L 67480314.00 32834625.00 L 67952755.00 32834625.00 L 67952755.00 33021633.00  zM 63730322.00 33179171.00 L 63041346.00 33179171.00 L 63041346.00 32962637.00 L 63730322.00 32962637.00 L 63730322.00 33179171.00  zM 67952755.00 33307067.00 L 67480314.00 33307067.00 L 67480314.00 33120059.00 L 67952755.00 33120059.00 L 67952755.00 33307067.00  zM 63730351.00 33415351.00 L 63041375.00 33415351.00 L 63041375.00 33297241.00 L 63730351.00 33297241.00 L 63730351.00 33415351.00  zM 65354333.69 37204715.28 m -712098.72 0 a 712098.72 712098.72 0 1 1 1424197.44 0a 712098.72 712098.72 0 1 1 -1424197.44 0"/>
</g>
</svg>
