G04*
G04 #@! TF.GenerationSoftware,Altium Limited,Altium Designer,25.8.1 (18)*
G04*
G04 Layer_Physical_Order=1*
G04 Layer_Color=255*
%FSLAX44Y44*%
%MOMM*%
G71*
G04*
G04 #@! TF.SameCoordinates,660DA955-28A1-446D-8B2B-196904F11E2A*
G04*
G04*
G04 #@! TF.FilePolarity,Positive*
G04*
G01*
G75*
%ADD13C,0.2540*%
%ADD24O,0.4500X1.9000*%
%ADD25R,0.9121X0.9581*%
%ADD26R,1.4500X1.7500*%
%ADD27R,0.3000X0.7500*%
%ADD28R,1.0581X1.7121*%
%ADD29O,0.4500X1.7000*%
%ADD30R,1.3000X3.3000*%
%ADD31R,0.5000X3.3000*%
%ADD32R,1.2500X1.8000*%
%ADD33R,0.6000X1.0000*%
%ADD34R,0.5500X0.5000*%
%ADD51R,1.8000X0.5000*%
%ADD52R,1.8000X0.6900*%
%ADD53R,3.0000X2.0000*%
%ADD54R,2.0000X3.0000*%
%ADD55R,0.5000X1.8000*%
%ADD56R,0.6900X1.8000*%
%ADD57C,0.5080*%
%ADD58C,1.5240*%
G36*
X400000Y686270D02*
X399480D01*
Y653730D01*
X400000D01*
Y640000D01*
X330000D01*
Y720000D01*
X150000D01*
Y640000D01*
X200000D01*
Y581375D01*
X20000D01*
Y770000D01*
X400000D01*
Y686270D01*
D02*
G37*
G36*
X1398625Y581375D02*
X1398712Y581166D01*
X1398696Y580940D01*
X1398905Y580698D01*
X1398910Y580687D01*
X1398625Y580000D01*
Y500000D01*
X1398910Y499313D01*
X1398905Y499302D01*
X1398696Y499060D01*
X1398712Y498834D01*
X1398625Y498625D01*
Y430000D01*
X1398910Y429313D01*
X1398625Y428625D01*
Y360000D01*
X1398910Y359313D01*
X1398625Y358625D01*
Y280000D01*
X1399028Y279028D01*
X1400000Y278625D01*
Y240000D01*
X1353885D01*
Y271230D01*
X1360270D01*
Y278770D01*
X1350576D01*
X1350000Y278885D01*
X1349424Y278770D01*
X1339730D01*
X1338885Y280960D01*
Y283499D01*
X1339730Y285845D01*
X1360000D01*
X1360972Y286248D01*
X1361375Y287220D01*
Y430280D01*
X1360972Y431252D01*
X1360000Y431655D01*
X1339730D01*
X1338885Y434001D01*
Y435999D01*
X1339730Y438345D01*
X1360000D01*
X1360972Y438748D01*
X1361375Y439720D01*
Y575280D01*
X1360972Y576252D01*
X1360000Y576655D01*
X1339730D01*
X1339309Y576480D01*
X1338871Y576353D01*
X1338833Y576283D01*
X1338758Y576252D01*
X1338584Y575831D01*
X1338364Y575432D01*
X1338094Y573004D01*
X1338116Y572926D01*
X1338085Y572852D01*
Y519981D01*
X1335545Y518929D01*
X1323885Y530589D01*
Y570000D01*
X1323589Y571487D01*
X1322747Y572747D01*
X1312747Y582747D01*
X1311487Y583589D01*
X1310000Y583885D01*
X1211270D01*
Y590270D01*
X1203730D01*
Y580576D01*
X1203615Y580000D01*
X1203730Y579424D01*
Y569730D01*
X1211270D01*
Y576115D01*
X1308391D01*
X1316115Y568391D01*
Y532697D01*
X1313769Y531725D01*
X1292747Y552747D01*
X1291487Y553589D01*
X1290000Y553885D01*
X1255750D01*
X1254263Y553589D01*
X1253003Y552747D01*
X1242347Y542090D01*
X1240000Y543062D01*
Y550000D01*
X1201375D01*
X1200972Y550972D01*
X1200000Y551375D01*
X1131375D01*
X1130687Y551090D01*
X1130000Y551375D01*
X1126156D01*
X1123885Y552976D01*
Y575415D01*
X1124585Y576115D01*
X1128730D01*
Y569730D01*
X1136270D01*
Y579424D01*
X1136385Y580000D01*
X1136270Y580576D01*
Y590270D01*
X1128730D01*
Y583885D01*
X1122976D01*
X1121489Y583589D01*
X1120229Y582747D01*
X1117253Y579771D01*
X1116411Y578511D01*
X1116115Y577024D01*
Y554585D01*
X1115415Y553885D01*
X942689D01*
X921385Y575189D01*
Y580000D01*
X921270Y580576D01*
Y590270D01*
X913730D01*
Y580576D01*
X913615Y580000D01*
Y573580D01*
X913730Y573004D01*
Y569730D01*
X915856D01*
X931865Y553721D01*
X930893Y551375D01*
X900000D01*
X899028Y550972D01*
X898625Y550000D01*
Y501375D01*
X851375D01*
Y513844D01*
X852976Y516115D01*
X858730D01*
Y509730D01*
X866270D01*
Y519424D01*
X866385Y520000D01*
X866270Y520576D01*
Y530270D01*
X858730D01*
Y523885D01*
X854585D01*
X853885Y524585D01*
Y557024D01*
X853589Y558511D01*
X852747Y559771D01*
X849771Y562747D01*
X848511Y563589D01*
X847024Y563885D01*
X752976D01*
X751489Y563589D01*
X750229Y562747D01*
X747253Y559771D01*
X746411Y558511D01*
X746115Y557024D01*
Y524585D01*
X745415Y523885D01*
X731270D01*
Y530270D01*
X723730D01*
Y520576D01*
X723615Y520000D01*
X723730Y519424D01*
Y509730D01*
X731270D01*
Y516115D01*
X747024D01*
X748625Y513844D01*
Y501375D01*
X691375D01*
Y550000D01*
X690972Y550972D01*
X690000Y551375D01*
X660187D01*
X659215Y553721D01*
X662747Y557253D01*
X663589Y558513D01*
X663885Y560000D01*
Y575415D01*
X664585Y576115D01*
X668730D01*
Y569730D01*
X676270D01*
Y579424D01*
X676385Y580000D01*
X676270Y580576D01*
Y590270D01*
X668730D01*
Y583885D01*
X662976D01*
X661489Y583589D01*
X660229Y582747D01*
X657253Y579771D01*
X656411Y578511D01*
X656115Y577024D01*
Y561609D01*
X648391Y553885D01*
X455189D01*
X433885Y575189D01*
Y580000D01*
X433770Y580576D01*
Y590270D01*
X426230D01*
Y580576D01*
X426115Y580000D01*
Y573580D01*
X426230Y573004D01*
Y569730D01*
X428356D01*
X444365Y553721D01*
X443393Y551375D01*
X400000D01*
X399028Y550972D01*
X398625Y550000D01*
X350000D01*
Y543885D01*
X292971D01*
X291918Y546425D01*
X321609Y576115D01*
X351230D01*
Y569730D01*
X358770D01*
Y579424D01*
X358885Y580000D01*
X358770Y580576D01*
Y590270D01*
X351230D01*
Y583885D01*
X320000D01*
X318513Y583589D01*
X317253Y582747D01*
X263991Y529485D01*
X261645Y530457D01*
Y575280D01*
X261242Y576252D01*
X260270Y576655D01*
X239730D01*
X238758Y576252D01*
X238355Y575280D01*
Y439720D01*
X238758Y438748D01*
X239730Y438345D01*
X259765D01*
Y431375D01*
X240000D01*
X239747Y431270D01*
X239730D01*
Y431263D01*
X239582Y431201D01*
X239146Y431077D01*
X239105Y431004D01*
X239028Y430972D01*
X238855Y430554D01*
X238634Y430158D01*
X238365Y427821D01*
X238387Y427741D01*
X238355Y427663D01*
Y284720D01*
X238758Y283748D01*
X239730Y283345D01*
X260270D01*
X261242Y283748D01*
X261645Y284720D01*
Y339543D01*
X263991Y340515D01*
X321167Y283340D01*
X322427Y282498D01*
X323914Y282202D01*
X326115D01*
Y280000D01*
X326230Y279424D01*
Y269730D01*
X333770D01*
Y279424D01*
X333885Y280000D01*
Y286046D01*
X333770Y286623D01*
Y290270D01*
X326230D01*
X324139Y291355D01*
X311918Y303575D01*
X312971Y306115D01*
X418625D01*
Y283885D01*
X411270D01*
Y290270D01*
X403730D01*
Y280576D01*
X403615Y280000D01*
X403730Y279424D01*
Y269730D01*
X411270D01*
Y276115D01*
X418625D01*
Y240000D01*
X351375D01*
Y250000D01*
X350972Y250972D01*
X350000Y251375D01*
X253885D01*
Y268730D01*
X260270D01*
Y276270D01*
X250576D01*
X250000Y276385D01*
X249424Y276270D01*
X239730D01*
Y268730D01*
X246115D01*
Y251375D01*
X201375D01*
Y278625D01*
X201090Y279313D01*
X201375Y280000D01*
Y360000D01*
X201090Y360687D01*
X201375Y361375D01*
Y435000D01*
X201090Y435687D01*
X201375Y436375D01*
Y500000D01*
X201090Y500687D01*
X201375Y501375D01*
Y580000D01*
X201090Y580687D01*
X201375Y581375D01*
Y640000D01*
X328625D01*
X329028Y639028D01*
X330000Y638625D01*
X400000D01*
X400972Y639028D01*
X401375Y640000D01*
X748056D01*
X748625Y639431D01*
Y600461D01*
X747341Y599570D01*
X746279Y599215D01*
X743885Y601609D01*
Y627024D01*
X743589Y628511D01*
X742747Y629771D01*
X739771Y632747D01*
X738511Y633589D01*
X737024Y633885D01*
X660000D01*
X658513Y633589D01*
X657253Y632747D01*
X608391Y583885D01*
X591270D01*
Y590270D01*
X583730D01*
Y580576D01*
X583615Y580000D01*
X583730Y579424D01*
Y569730D01*
X591270D01*
Y576115D01*
X610000D01*
X611487Y576411D01*
X612747Y577253D01*
X661609Y626115D01*
X735415D01*
X736115Y625415D01*
Y600000D01*
X736411Y598513D01*
X737253Y597253D01*
X765149Y569357D01*
X766409Y568515D01*
X767896Y568219D01*
X842104D01*
X843591Y568515D01*
X844851Y569357D01*
X872747Y597253D01*
X873589Y598513D01*
X873885Y600000D01*
Y618391D01*
X881609Y626115D01*
X928391D01*
X977253Y577253D01*
X978513Y576411D01*
X980000Y576115D01*
X988730D01*
Y569730D01*
X996270D01*
Y579424D01*
X996385Y580000D01*
X996270Y580576D01*
Y590270D01*
X988730D01*
Y583885D01*
X981609D01*
X932747Y632747D01*
X931487Y633589D01*
X930000Y633885D01*
X880000D01*
X878513Y633589D01*
X877253Y632747D01*
X867253Y622747D01*
X866411Y621487D01*
X866115Y620000D01*
Y601609D01*
X863721Y599215D01*
X862659Y599571D01*
X861375Y600461D01*
Y638625D01*
X1200000D01*
X1200687Y638910D01*
X1201375Y638625D01*
X1300000D01*
X1300972Y639028D01*
X1301375Y640000D01*
X1398625D01*
Y581375D01*
D02*
G37*
G36*
X1580000Y581375D02*
X1476270D01*
X1475298Y580972D01*
X1475249Y580855D01*
X1444751D01*
X1444702Y580972D01*
X1443730Y581375D01*
X1400000D01*
X1400000Y581375D01*
Y640000D01*
X1440000D01*
Y730000D01*
X1300000D01*
Y640000D01*
X1201375D01*
Y653730D01*
X1200972Y654702D01*
X1200855Y654751D01*
Y685249D01*
X1200972Y685298D01*
X1201375Y686270D01*
Y750000D01*
X1200972Y750972D01*
X1200000Y751375D01*
Y770000D01*
X1580000D01*
X1580000Y581375D01*
D02*
G37*
G36*
X1200000Y686270D02*
X1199480D01*
Y653730D01*
X1200000D01*
Y640000D01*
X860000D01*
Y600000D01*
X840000Y580000D01*
X801375D01*
Y583730D01*
X800972Y584702D01*
X800855Y584751D01*
Y615249D01*
X800972Y615298D01*
X801375Y616270D01*
Y650000D01*
X801375Y650000D01*
X800972Y650972D01*
X900000Y750000D01*
X1200000D01*
Y686270D01*
D02*
G37*
G36*
X800000Y650000D02*
Y616270D01*
X799480D01*
Y583730D01*
X800000D01*
Y580000D01*
X770000D01*
X750000Y600000D01*
X750000D01*
Y640000D01*
X748625Y641375D01*
X401375D01*
Y653730D01*
X400972Y654702D01*
X400855Y654751D01*
Y685249D01*
X400972Y685298D01*
X401375Y686270D01*
Y750000D01*
X700000D01*
X800000Y650000D01*
D02*
G37*
G36*
X1580000Y500000D02*
X1476270D01*
Y500520D01*
X1443730D01*
Y500000D01*
X1400000D01*
Y580000D01*
X1443730D01*
Y579480D01*
X1476270D01*
Y580000D01*
X1580000D01*
Y500000D01*
D02*
G37*
G36*
X801375Y578625D02*
X836790D01*
X838327Y576085D01*
X838310Y576054D01*
X838204Y575989D01*
X771796D01*
X771690Y576054D01*
X771673Y576085D01*
X773210Y578625D01*
X800000D01*
X800687Y578910D01*
X801375Y578625D01*
D02*
G37*
G36*
X350000Y518812D02*
X347653Y517840D01*
X345247Y520247D01*
X343987Y521089D01*
X342500Y521385D01*
X300000D01*
X299424Y521270D01*
X289730D01*
Y513730D01*
X299424D01*
X300000Y513615D01*
X340891D01*
X346115Y508391D01*
Y372976D01*
X346411Y371489D01*
X347253Y370229D01*
X350000Y367482D01*
Y364351D01*
X350440Y364960D01*
X352540Y366202D01*
X352976Y366115D01*
X382230D01*
Y352230D01*
X389770D01*
Y369424D01*
X389885Y370000D01*
X389770Y370576D01*
Y387770D01*
X389770D01*
X390518Y390000D01*
X398625D01*
X399028Y389028D01*
X400000Y388625D01*
X408044D01*
X410230Y387770D01*
Y370576D01*
X410115Y370000D01*
X410230Y369424D01*
Y352230D01*
X417770D01*
X418625Y350044D01*
Y333885D01*
X311609D01*
X303885Y341609D01*
Y348730D01*
X310270D01*
Y356270D01*
X300576D01*
X300000Y356385D01*
X299424Y356270D01*
X289730D01*
Y348730D01*
X296115D01*
Y340000D01*
X296411Y338513D01*
X297253Y337253D01*
X307253Y327253D01*
X308513Y326411D01*
X310000Y326115D01*
X418625D01*
Y313885D01*
X311609D01*
X273885Y351609D01*
Y518391D01*
X291609Y536115D01*
X350000D01*
Y518812D01*
D02*
G37*
G36*
X200000Y501375D02*
X156270D01*
X155298Y500972D01*
X154939Y500105D01*
X125061D01*
X124702Y500972D01*
X123730Y501375D01*
X20000D01*
Y580000D01*
X200000D01*
Y501375D01*
D02*
G37*
G36*
X1304869Y529637D02*
X1303897Y527290D01*
X1303406D01*
X1301919Y526995D01*
X1300659Y526152D01*
X1297253Y522747D01*
X1296411Y521487D01*
X1296115Y520000D01*
Y513770D01*
X1289730D01*
Y506230D01*
X1299424D01*
X1300000Y506115D01*
X1300576Y506230D01*
X1309765D01*
Y498770D01*
X1300576D01*
X1300000Y498885D01*
X1299424Y498770D01*
X1289730D01*
Y491230D01*
X1296115D01*
Y443770D01*
X1289730D01*
Y436230D01*
X1299424D01*
X1300000Y436115D01*
X1300576Y436230D01*
X1309765D01*
Y428770D01*
X1300576D01*
X1300000Y428885D01*
X1299424Y428770D01*
X1289730D01*
Y421230D01*
X1296115D01*
Y371270D01*
X1289730D01*
Y363730D01*
X1299424D01*
X1300000Y363615D01*
X1300576Y363730D01*
X1309765D01*
Y356270D01*
X1300576D01*
X1300000Y356385D01*
X1259109D01*
X1242747Y372747D01*
X1241487Y373589D01*
X1240000Y373885D01*
X1217770D01*
Y387770D01*
X1217770D01*
X1218518Y390000D01*
X1240000D01*
Y528756D01*
X1257359Y546115D01*
X1288391D01*
X1304869Y529637D01*
D02*
G37*
G36*
X200000Y436375D02*
X156270D01*
X155298Y435972D01*
X155249Y435855D01*
X124751D01*
X124702Y435972D01*
X123730Y436375D01*
X20000D01*
Y500000D01*
X123730D01*
Y498730D01*
X156270D01*
Y500000D01*
X200000D01*
Y436375D01*
D02*
G37*
G36*
X1309765Y443770D02*
X1303885D01*
Y491230D01*
X1309765D01*
Y443770D01*
D02*
G37*
G36*
X1360000Y439720D02*
X1339730D01*
X1339460Y442148D01*
Y572852D01*
X1339730Y575280D01*
X1360000D01*
Y439720D01*
D02*
G37*
G36*
X260270Y525449D02*
X260061Y525137D01*
X259765Y523650D01*
Y439720D01*
X239730D01*
Y575280D01*
X260270D01*
Y525449D01*
D02*
G37*
G36*
X809028Y439028D02*
X810000Y438625D01*
X810000Y438625D01*
X848625D01*
Y430187D01*
X846279Y429215D01*
X842747Y432747D01*
X841487Y433589D01*
X840000Y433885D01*
X750000D01*
X748513Y433589D01*
X747253Y432747D01*
X743721Y429215D01*
X741375Y430187D01*
Y438625D01*
X790000D01*
X790000Y438625D01*
X790972Y439028D01*
X791944Y440000D01*
X808056D01*
X809028Y439028D01*
D02*
G37*
G36*
X200000Y361375D02*
X20000D01*
Y435000D01*
X123730D01*
Y434480D01*
X156270D01*
Y435000D01*
X200000D01*
Y361375D01*
D02*
G37*
G36*
X1475298Y499028D02*
X1476270Y498625D01*
X1580000D01*
Y430000D01*
X1476270D01*
Y435520D01*
X1443730D01*
Y430000D01*
X1400000D01*
Y498625D01*
X1400000Y498625D01*
X1443730D01*
X1444702Y499028D01*
X1444751Y499145D01*
X1475249D01*
X1475298Y499028D01*
D02*
G37*
G36*
X841998Y422509D02*
X840644Y420270D01*
X833730D01*
Y410576D01*
X833615Y410000D01*
X833730Y409424D01*
Y399730D01*
X841270D01*
Y406115D01*
X845415D01*
X846115Y405415D01*
Y390000D01*
X846411Y388513D01*
X847253Y387253D01*
X877253Y357253D01*
X878513Y356411D01*
X880000Y356115D01*
X898730D01*
Y349730D01*
X906270D01*
Y359424D01*
X906385Y360000D01*
X906270Y360576D01*
Y370270D01*
X898730D01*
Y363885D01*
X881609D01*
X857840Y387653D01*
X858812Y390000D01*
X864506D01*
X877253Y377253D01*
X878513Y376411D01*
X880000Y376115D01*
X1148391D01*
X1157253Y367253D01*
X1158513Y366411D01*
X1160000Y366115D01*
X1182230D01*
Y352230D01*
X1189770D01*
Y369424D01*
X1189885Y370000D01*
X1189770Y370576D01*
Y387770D01*
X1189770D01*
X1190518Y390000D01*
X1209482D01*
X1210230Y387770D01*
X1210230D01*
Y370576D01*
X1210115Y370000D01*
X1210230Y369424D01*
Y352230D01*
X1217770D01*
Y366115D01*
X1238391D01*
X1240000Y364506D01*
Y361188D01*
X1242347Y362160D01*
X1254753Y349753D01*
X1256013Y348911D01*
X1257500Y348615D01*
X1300000D01*
X1300576Y348730D01*
X1309765D01*
Y240000D01*
X1283885D01*
Y277024D01*
X1283589Y278511D01*
X1282747Y279771D01*
X1279771Y282747D01*
X1278511Y283589D01*
X1277024Y283885D01*
X1271270D01*
Y290270D01*
X1263730D01*
Y280576D01*
X1263615Y280000D01*
X1263730Y279424D01*
Y269730D01*
X1271270D01*
Y276115D01*
X1275415D01*
X1276115Y275415D01*
Y240000D01*
X1195494D01*
X1173885Y261609D01*
Y275415D01*
X1174585Y276115D01*
X1191230D01*
Y269730D01*
X1198770D01*
Y279424D01*
X1198885Y280000D01*
X1198770Y280576D01*
Y290270D01*
X1191230D01*
Y283885D01*
X1172976D01*
X1171489Y283589D01*
X1170229Y282747D01*
X1167253Y279771D01*
X1166411Y278511D01*
X1166115Y277024D01*
Y260000D01*
X1166411Y258513D01*
X1167253Y257253D01*
X1182160Y242347D01*
X1181188Y240000D01*
X1175494D01*
X1152535Y262959D01*
Y351350D01*
X1152239Y352837D01*
X1151397Y354097D01*
X1142747Y362747D01*
X1141487Y363589D01*
X1140000Y363885D01*
X1131270D01*
Y370270D01*
X1123730D01*
Y360576D01*
X1123615Y360000D01*
X1123730Y359424D01*
Y349730D01*
X1131270D01*
Y356115D01*
X1138391D01*
X1144765Y349741D01*
Y309455D01*
X1142419Y308483D01*
X1140451Y310451D01*
X1139191Y311293D01*
X1137704Y311589D01*
X1131270D01*
Y320270D01*
X1123730D01*
Y310576D01*
X1123615Y310000D01*
Y307744D01*
X1123730Y307168D01*
Y299730D01*
X1131270D01*
Y303819D01*
X1136095D01*
X1138415Y301499D01*
Y251750D01*
X1135875Y250698D01*
X1131270Y255304D01*
Y270270D01*
X1123730D01*
Y253915D01*
X1123655Y253540D01*
X1123730Y253165D01*
Y249730D01*
X1125856D01*
X1133240Y242347D01*
X1132268Y240000D01*
X451375D01*
Y256115D01*
X458730D01*
Y249730D01*
X466270D01*
Y259424D01*
X466385Y260000D01*
X466270Y260576D01*
Y270270D01*
X458730D01*
Y263885D01*
X451375D01*
Y306115D01*
X458730D01*
Y299730D01*
X466270D01*
Y309424D01*
X466385Y310000D01*
X466270Y310576D01*
Y320270D01*
X458730D01*
Y313885D01*
X451375D01*
Y355881D01*
X451609Y356115D01*
X458730D01*
Y349730D01*
X466270D01*
Y359424D01*
X466385Y360000D01*
X466270Y360576D01*
Y370270D01*
X458730D01*
Y363885D01*
X450000D01*
X448513Y363589D01*
X447253Y362747D01*
X445881Y361375D01*
X420000D01*
X417770Y363033D01*
X417770Y363033D01*
Y366115D01*
X440000D01*
X441487Y366411D01*
X442747Y367253D01*
X451609Y376115D01*
X710000D01*
X711487Y376411D01*
X712747Y377253D01*
X725494Y390000D01*
X731188D01*
X732160Y387653D01*
X708391Y363885D01*
X691270D01*
Y370270D01*
X683730D01*
Y360576D01*
X683615Y360000D01*
X683730Y359424D01*
Y349730D01*
X691270D01*
Y356115D01*
X710000D01*
X711487Y356411D01*
X712747Y357253D01*
X742747Y387253D01*
X743589Y388513D01*
X743885Y390000D01*
Y405415D01*
X744585Y406115D01*
X748730D01*
Y399730D01*
X756270D01*
Y409424D01*
X756385Y410000D01*
X756270Y410576D01*
Y420270D01*
X749356D01*
X748002Y422509D01*
X751609Y426115D01*
X838391D01*
X841998Y422509D01*
D02*
G37*
G36*
X1238625Y543062D02*
X1238730Y542810D01*
Y542536D01*
X1238923Y542343D01*
X1239028Y542090D01*
X1239281Y541986D01*
X1239474Y541792D01*
X1240000Y541575D01*
Y530700D01*
X1239028Y529728D01*
X1238625Y528756D01*
X1238625Y528756D01*
Y391375D01*
X1218518D01*
X1218224Y391253D01*
X1217906Y391231D01*
X1217757Y391059D01*
X1217546Y390972D01*
X1217424Y390678D01*
X1217215Y390437D01*
X1217068Y390000D01*
X1210932D01*
X1210785Y390437D01*
X1210576Y390678D01*
X1210454Y390972D01*
X1210243Y391059D01*
X1210094Y391231D01*
X1209776Y391253D01*
X1209482Y391375D01*
X1190518D01*
X1190224Y391253D01*
X1189906Y391231D01*
X1189757Y391059D01*
X1189546Y390972D01*
X1189424Y390678D01*
X1189215Y390437D01*
X1189068Y390000D01*
X1182932D01*
X1182785Y390437D01*
X1182576Y390678D01*
X1182454Y390972D01*
X1182243Y391059D01*
X1182094Y391231D01*
X1181776Y391253D01*
X1181482Y391375D01*
X1166637D01*
X1165665Y393721D01*
X1200972Y429028D01*
X1201375Y430000D01*
X1201375Y430000D01*
Y483730D01*
X1200972Y484702D01*
X1200855Y484751D01*
Y515249D01*
X1200972Y515298D01*
X1201375Y516270D01*
Y548625D01*
X1238625D01*
Y543062D01*
D02*
G37*
G36*
X1200000Y516270D02*
X1199480D01*
Y483730D01*
X1200000D01*
Y430000D01*
X1160000Y390000D01*
X1131375D01*
Y393730D01*
X1130972Y394702D01*
X1130855Y394751D01*
Y425249D01*
X1130972Y425298D01*
X1131375Y426270D01*
Y550000D01*
X1200000D01*
Y516270D01*
D02*
G37*
G36*
X1130000Y426270D02*
X1129480D01*
Y393730D01*
X1130000D01*
Y390000D01*
X1071375D01*
Y483730D01*
X1070972Y484702D01*
X1070855Y484751D01*
Y515249D01*
X1070972Y515298D01*
X1071375Y516270D01*
Y546115D01*
X1117024D01*
X1118511Y546411D01*
X1119771Y547253D01*
X1122518Y550000D01*
X1130000D01*
Y426270D01*
D02*
G37*
G36*
X1070000Y516270D02*
X1069480D01*
Y483730D01*
X1070000D01*
Y390000D01*
X1021375D01*
Y546115D01*
X1070000D01*
Y516270D01*
D02*
G37*
G36*
X1020000Y390000D02*
X961375D01*
Y483730D01*
X960972Y484702D01*
X960855Y484751D01*
Y515249D01*
X960972Y515298D01*
X961375Y516270D01*
Y546115D01*
X1020000D01*
Y390000D01*
D02*
G37*
G36*
X938333Y547253D02*
X939593Y546411D01*
X941080Y546115D01*
X960000D01*
Y516270D01*
X959480D01*
Y483730D01*
X960000D01*
Y390000D01*
X903730D01*
X901375Y392355D01*
Y393730D01*
X900972Y394702D01*
X900855Y394751D01*
Y425249D01*
X900972Y425298D01*
X901375Y426270D01*
Y500000D01*
X900972Y500972D01*
X900000Y501375D01*
Y550000D01*
X935586D01*
X938333Y547253D01*
D02*
G37*
G36*
X846115Y555415D02*
Y522976D01*
X846411Y521489D01*
X847253Y520229D01*
X850000Y517482D01*
Y500000D01*
X900000D01*
Y426270D01*
X899480D01*
Y393730D01*
X900000D01*
Y390000D01*
X875494D01*
X863885Y401609D01*
Y410000D01*
X863589Y411487D01*
X862747Y412747D01*
X850000Y425494D01*
Y440000D01*
X810000D01*
X800972Y449028D01*
X801375Y450000D01*
X801375Y450000D01*
Y483730D01*
X800972Y484702D01*
X800855Y484751D01*
Y515249D01*
X800972Y515298D01*
X801375Y516270D01*
Y556115D01*
X845415D01*
X846115Y555415D01*
D02*
G37*
G36*
X800000Y516270D02*
X799480D01*
Y483730D01*
X800000D01*
Y450000D01*
X790000Y440000D01*
X740000D01*
Y425494D01*
X723417Y408911D01*
X722575Y407651D01*
X722279Y406164D01*
Y397773D01*
X714506Y390000D01*
X691375D01*
Y393730D01*
X690972Y394702D01*
X690855Y394751D01*
Y425249D01*
X690972Y425298D01*
X691375Y426270D01*
Y500000D01*
X750000D01*
Y517482D01*
X752747Y520229D01*
X753589Y521489D01*
X753638Y521736D01*
X753885Y522976D01*
Y555415D01*
X754585Y556115D01*
X800000D01*
Y516270D01*
D02*
G37*
G36*
X690000Y426270D02*
X689480D01*
Y393730D01*
X690000D01*
Y390000D01*
X631375D01*
Y483730D01*
X630972Y484702D01*
X630855Y484751D01*
Y515249D01*
X630972Y515298D01*
X631375Y516270D01*
Y546115D01*
X650000D01*
X651487Y546411D01*
X652747Y547253D01*
X655494Y550000D01*
X690000D01*
Y426270D01*
D02*
G37*
G36*
X630000Y516270D02*
X629480D01*
Y483730D01*
X630000D01*
Y390000D01*
X571375D01*
Y546115D01*
X630000D01*
Y516270D01*
D02*
G37*
G36*
X570000Y390000D02*
X521375D01*
Y483730D01*
X520972Y484702D01*
X520855Y484751D01*
Y515249D01*
X520972Y515298D01*
X521375Y516270D01*
Y546115D01*
X570000D01*
Y390000D01*
D02*
G37*
G36*
X520000Y516270D02*
X519480D01*
Y483730D01*
X520000D01*
Y390000D01*
X461375D01*
Y393730D01*
X460972Y394702D01*
X460855Y394751D01*
Y425249D01*
X460972Y425298D01*
X461375Y426270D01*
Y546115D01*
X520000D01*
Y516270D01*
D02*
G37*
G36*
X450833Y547253D02*
X452093Y546411D01*
X453580Y546115D01*
X460000D01*
Y426270D01*
X459480D01*
Y393730D01*
X460000D01*
Y390000D01*
X400000D01*
Y483730D01*
X400520D01*
Y516270D01*
X400000D01*
Y550000D01*
X448086D01*
X450833Y547253D01*
D02*
G37*
G36*
X398625Y516270D02*
X399028Y515298D01*
X399145Y515249D01*
Y484751D01*
X399028Y484702D01*
X398625Y483730D01*
Y391375D01*
X390518D01*
X390224Y391253D01*
X389906Y391231D01*
X389757Y391059D01*
X389546Y390972D01*
X389424Y390678D01*
X389215Y390437D01*
X389068Y390000D01*
X382932D01*
X382785Y390437D01*
X382576Y390678D01*
X382454Y390972D01*
X382243Y391059D01*
X382094Y391231D01*
X381776Y391253D01*
X381482Y391375D01*
X353885D01*
Y510000D01*
X353589Y511487D01*
X352747Y512747D01*
X350516Y514978D01*
X350518Y515579D01*
X350719Y517736D01*
X350719Y517736D01*
X350972Y517840D01*
X351077Y518093D01*
X351270Y518286D01*
Y518560D01*
X351375Y518812D01*
Y536115D01*
X350972Y537087D01*
X350000Y537490D01*
Y542510D01*
X350972Y542913D01*
X351375Y543885D01*
Y548625D01*
X398625D01*
Y516270D01*
D02*
G37*
G36*
X691375Y388625D02*
X709813D01*
X710785Y386279D01*
X708391Y383885D01*
X450000D01*
X448513Y383589D01*
X447253Y382747D01*
X438391Y373885D01*
X417770D01*
Y387770D01*
X419956Y388625D01*
X460000D01*
X460687Y388910D01*
X461375Y388625D01*
X520000D01*
X520687Y388910D01*
X521375Y388625D01*
X570000D01*
X570687Y388910D01*
X571375Y388625D01*
X630000D01*
X630687Y388910D01*
X631375Y388625D01*
X690000D01*
X690687Y388910D01*
X691375Y388625D01*
D02*
G37*
G36*
X1182230Y387770D02*
X1182230D01*
Y373885D01*
X1161609D01*
X1152747Y382747D01*
X1151487Y383589D01*
X1150000Y383885D01*
X881609D01*
X879215Y386279D01*
X880187Y388625D01*
X900000D01*
X900972Y389028D01*
X903580Y388687D01*
X903730Y388625D01*
X903730Y388625D01*
X960000D01*
X960687Y388910D01*
X961375Y388625D01*
X1020000D01*
X1020687Y388910D01*
X1021375Y388625D01*
X1070000D01*
X1070687Y388910D01*
X1071375Y388625D01*
X1130000D01*
X1130687Y388910D01*
X1131375Y388625D01*
X1160000D01*
X1160000Y388625D01*
X1160972Y389028D01*
X1160972Y389028D01*
X1161944Y390000D01*
X1181482D01*
X1182230Y387770D01*
D02*
G37*
G36*
X382230D02*
X382230D01*
Y373885D01*
X354585D01*
X353885Y374585D01*
Y390000D01*
X381482D01*
X382230Y387770D01*
D02*
G37*
G36*
X1309765Y371270D02*
X1303885D01*
Y421230D01*
X1309765D01*
Y371270D01*
D02*
G37*
G36*
X1474895Y430000D02*
X1475298Y429028D01*
X1476270Y428625D01*
X1580000D01*
Y360000D01*
X1476270D01*
Y360520D01*
X1443730D01*
Y360000D01*
X1400000D01*
Y428625D01*
X1443730D01*
X1444702Y429028D01*
X1445105Y430000D01*
Y434145D01*
X1474895D01*
Y430000D01*
D02*
G37*
G36*
X1360000Y287220D02*
X1339730D01*
X1339460Y289648D01*
Y427852D01*
X1339730Y430280D01*
X1360000D01*
Y287220D01*
D02*
G37*
G36*
X259765Y346350D02*
X260061Y344863D01*
X260270Y344551D01*
Y284720D01*
X239730D01*
Y427663D01*
X240000Y430000D01*
X259765D01*
Y346350D01*
D02*
G37*
G36*
X1475298Y359028D02*
X1476270Y358625D01*
X1580000D01*
Y280000D01*
X1476270D01*
Y280520D01*
X1443730D01*
Y280000D01*
X1400000D01*
Y358625D01*
X1443730D01*
X1444702Y359028D01*
X1444751Y359145D01*
X1475249D01*
X1475298Y359028D01*
D02*
G37*
G36*
X200000Y280000D02*
X156270D01*
Y280520D01*
X123730D01*
Y280000D01*
X20000D01*
Y360000D01*
X200000D01*
Y280000D01*
D02*
G37*
G36*
X1346115Y240000D02*
X1338885D01*
Y269040D01*
X1339730Y271230D01*
X1346115D01*
Y240000D01*
D02*
G37*
G36*
X1331115Y512371D02*
Y240000D01*
X1323885D01*
Y516283D01*
X1326231Y517255D01*
X1331115Y512371D01*
D02*
G37*
G36*
X1475298Y279028D02*
X1476270Y278625D01*
X1580000D01*
Y217500D01*
X1400000D01*
Y238625D01*
X1400972Y239028D01*
X1401375Y240000D01*
Y278625D01*
X1443730D01*
X1444702Y279028D01*
X1444751Y279145D01*
X1475249D01*
X1475298Y279028D01*
D02*
G37*
G36*
X450000Y210000D02*
X460000D01*
Y160000D01*
X300000D01*
Y100000D01*
X20000D01*
Y278625D01*
X123730D01*
X124702Y279028D01*
X124751Y279145D01*
X155249D01*
X155298Y279028D01*
X156270Y278625D01*
X200000D01*
Y250000D01*
X350000D01*
Y210000D01*
X420000D01*
Y360000D01*
X450000D01*
Y210000D01*
D02*
G37*
G36*
X1030000Y100000D02*
X912755D01*
X911783Y102347D01*
X957184Y147747D01*
X958123Y147934D01*
X959288Y148712D01*
X960712D01*
X961877Y147934D01*
X963250Y147661D01*
X964623Y147934D01*
X965788Y148712D01*
X966566Y149877D01*
X966839Y151250D01*
Y165750D01*
X966566Y167123D01*
X965788Y168288D01*
X964623Y169066D01*
X963250Y169339D01*
X961877Y169066D01*
X959340Y170425D01*
Y173250D01*
X959143Y174241D01*
X958581Y175081D01*
X955641Y178021D01*
X954801Y178583D01*
X953810Y178780D01*
X946190D01*
X945199Y178583D01*
X944359Y178021D01*
X938169Y171831D01*
X937607Y170991D01*
X937410Y170000D01*
Y161073D01*
X932737Y156400D01*
X910320D01*
Y160480D01*
X915270D01*
Y170520D01*
X899730D01*
Y160480D01*
X899910D01*
Y147500D01*
X900107Y146509D01*
X900669Y145669D01*
X907410Y138927D01*
Y121073D01*
X895117Y108780D01*
X874273D01*
X873301Y111126D01*
X874442Y112267D01*
X875003Y113108D01*
X875201Y114099D01*
Y184038D01*
X877832Y186669D01*
X885831D01*
Y191910D01*
X899730D01*
Y189480D01*
X905270D01*
Y194480D01*
X905320Y194730D01*
Y197499D01*
X921421Y213600D01*
X946601D01*
X947298Y212150D01*
X947560Y211060D01*
X946934Y210123D01*
X946661Y208750D01*
Y194250D01*
X946934Y192877D01*
X947712Y191712D01*
X948877Y190934D01*
X950250Y190661D01*
X951623Y190934D01*
X952788Y191712D01*
X953566Y192877D01*
X953839Y194250D01*
Y208750D01*
X953806Y208917D01*
X958489Y213600D01*
X987349D01*
X991725Y209225D01*
X991725Y209225D01*
X997410Y203539D01*
Y193331D01*
X994169D01*
Y181209D01*
X1005831D01*
Y193331D01*
X1002590D01*
Y204612D01*
X1002393Y205603D01*
X1001831Y206443D01*
X995387Y212887D01*
X995387Y212887D01*
X990253Y218021D01*
X989413Y218583D01*
X988422Y218780D01*
X920348D01*
X919357Y218583D01*
X918517Y218021D01*
X900899Y200403D01*
X900337Y199563D01*
X900329Y199520D01*
X899730D01*
Y197090D01*
X885831D01*
Y198791D01*
X874169D01*
Y197090D01*
X872770D01*
X871779Y196893D01*
X870939Y196331D01*
X870377Y195491D01*
X870180Y194500D01*
X870377Y193509D01*
X870939Y192669D01*
X871779Y192107D01*
X872258Y192012D01*
X872991Y190625D01*
X873208Y189370D01*
X870779Y186942D01*
X870218Y186102D01*
X870021Y185111D01*
Y115171D01*
X867439Y112590D01*
X660000D01*
Y133600D01*
X688190D01*
X689181Y133797D01*
X690021Y134359D01*
X704595Y148932D01*
X707462Y149212D01*
X708627Y148434D01*
X710000Y148161D01*
X711373Y148434D01*
X712538Y149212D01*
X713962D01*
X715127Y148434D01*
X716500Y148161D01*
X717873Y148434D01*
X719038Y149212D01*
X720462D01*
X721627Y148434D01*
X723000Y148161D01*
X724373Y148434D01*
X725538Y149212D01*
X726316Y150377D01*
X726589Y151750D01*
Y164250D01*
X726316Y165623D01*
X725538Y166788D01*
X724373Y167566D01*
X723000Y167839D01*
X721627Y167566D01*
X720462Y166788D01*
X719038D01*
X717873Y167566D01*
X716500Y167839D01*
X715127Y167566D01*
X713962Y166788D01*
X712538D01*
X711373Y167566D01*
X710000Y167839D01*
X708627Y167566D01*
X707462Y166788D01*
X706684Y165623D01*
X706411Y164250D01*
Y158074D01*
X687117Y138780D01*
X660000D01*
Y166338D01*
X681073Y187410D01*
X684169D01*
Y181209D01*
X695831D01*
Y193331D01*
X692590D01*
Y216427D01*
X693573Y217410D01*
X707410D01*
Y208710D01*
X706684Y207623D01*
X706411Y206250D01*
Y193750D01*
X706684Y192377D01*
X707462Y191212D01*
X708627Y190434D01*
X710000Y190161D01*
X711373Y190434D01*
X712538Y191212D01*
X713962D01*
X715127Y190434D01*
X716500Y190161D01*
X717873Y190434D01*
X719038Y191212D01*
X720462D01*
X721627Y190434D01*
X723000Y190161D01*
X724373Y190434D01*
X725538Y191212D01*
X726962D01*
X728127Y190434D01*
X729500Y190161D01*
X730873Y190434D01*
X732038Y191212D01*
X732816Y192377D01*
X733089Y193750D01*
Y206250D01*
X732816Y207623D01*
X732038Y208788D01*
X730873Y209566D01*
X729500Y209839D01*
X728127Y209566D01*
X726962Y208788D01*
X725538D01*
X724373Y209566D01*
X723000Y209839D01*
X721627Y209566D01*
X720462Y208788D01*
X719038D01*
X717873Y209566D01*
X716500Y209839D01*
X715127Y209566D01*
X712590Y210926D01*
Y218512D01*
X712393Y219503D01*
X711831Y220343D01*
X710343Y221831D01*
X709503Y222393D01*
X708512Y222590D01*
X692500D01*
X691509Y222393D01*
X690669Y221831D01*
X688169Y219331D01*
X687607Y218491D01*
X687410Y217500D01*
Y193331D01*
X684169D01*
Y192590D01*
X680000D01*
X679009Y192393D01*
X678169Y191831D01*
X662347Y176009D01*
X660000Y176981D01*
Y230000D01*
X1030000D01*
Y100000D01*
D02*
G37*
%LPC*%
G36*
X1196270Y590270D02*
X1188730D01*
Y583885D01*
X1151270D01*
Y590270D01*
X1143730D01*
Y580576D01*
X1143615Y580000D01*
X1143730Y579424D01*
Y569730D01*
X1151270D01*
Y576115D01*
X1188730D01*
Y569730D01*
X1196270D01*
Y579424D01*
X1196385Y580000D01*
X1196270Y580576D01*
Y590270D01*
D02*
G37*
G36*
X1066270D02*
X1058730D01*
Y583885D01*
X1011270D01*
Y590270D01*
X1003730D01*
Y580576D01*
X1003615Y580000D01*
X1003730Y579424D01*
Y569730D01*
X1011270D01*
Y576115D01*
X1058730D01*
Y569730D01*
X1066270D01*
Y579424D01*
X1066385Y580000D01*
X1066270Y580576D01*
Y590270D01*
D02*
G37*
G36*
X576270D02*
X568730D01*
Y583885D01*
X511270D01*
Y590270D01*
X503730D01*
Y580576D01*
X503615Y580000D01*
X503730Y579424D01*
Y569730D01*
X511270D01*
Y576115D01*
X568730D01*
Y569730D01*
X576270D01*
Y579424D01*
X576385Y580000D01*
X576270Y580576D01*
Y590270D01*
D02*
G37*
G36*
X418770D02*
X411230D01*
Y583885D01*
X373770D01*
Y590270D01*
X366230D01*
Y580576D01*
X366115Y580000D01*
X366230Y579424D01*
Y569730D01*
X373770D01*
Y576115D01*
X411230D01*
Y569730D01*
X418770D01*
Y579424D01*
X418885Y580000D01*
X418770Y580576D01*
Y590270D01*
D02*
G37*
G36*
X1347024Y633885D02*
X1092976D01*
X1091489Y633589D01*
X1090229Y632747D01*
X1087253Y629771D01*
X1086411Y628511D01*
X1086115Y627024D01*
Y584585D01*
X1085415Y583885D01*
X1081270D01*
Y590270D01*
X1073730D01*
Y580576D01*
X1073615Y580000D01*
X1073730Y579424D01*
Y569730D01*
X1081270D01*
Y576115D01*
X1087024D01*
X1088511Y576411D01*
X1089771Y577253D01*
X1092747Y580229D01*
X1093589Y581489D01*
X1093885Y582976D01*
Y625415D01*
X1094585Y626115D01*
X1345415D01*
X1346115Y625415D01*
Y591270D01*
X1339730D01*
Y583730D01*
X1349424D01*
X1350000Y583615D01*
X1350576Y583730D01*
X1360270D01*
Y591270D01*
X1353885D01*
Y627024D01*
X1353589Y628511D01*
X1352747Y629771D01*
X1349771Y632747D01*
X1348511Y633589D01*
X1347024Y633885D01*
D02*
G37*
G36*
X906270Y590270D02*
X898730D01*
Y583885D01*
X892976D01*
X891489Y583589D01*
X890229Y582747D01*
X887253Y579771D01*
X886411Y578511D01*
X886115Y577024D01*
Y524585D01*
X885415Y523885D01*
X881270D01*
Y530270D01*
X873730D01*
Y520576D01*
X873615Y520000D01*
X873730Y519424D01*
Y509730D01*
X881270D01*
Y516115D01*
X887024D01*
X888511Y516411D01*
X889771Y517253D01*
X892747Y520229D01*
X893589Y521489D01*
X893885Y522976D01*
Y575415D01*
X894585Y576115D01*
X898730D01*
Y569730D01*
X906270D01*
Y579424D01*
X906385Y580000D01*
X906270Y580576D01*
Y590270D01*
D02*
G37*
G36*
X440000Y613885D02*
X260000D01*
X258513Y613589D01*
X257253Y612747D01*
X247253Y602747D01*
X246411Y601487D01*
X246115Y600000D01*
Y591270D01*
X239730D01*
Y583730D01*
X249424D01*
X250000Y583615D01*
X250576Y583730D01*
X260270D01*
Y591270D01*
X253885D01*
Y598391D01*
X261609Y606115D01*
X438391D01*
X467253Y577253D01*
X468513Y576411D01*
X470000Y576115D01*
X488730D01*
Y569730D01*
X496270D01*
Y579424D01*
X496385Y580000D01*
X496270Y580576D01*
Y590270D01*
X488730D01*
Y583885D01*
X471609D01*
X442747Y612747D01*
X441487Y613589D01*
X440000Y613885D01*
D02*
G37*
G36*
X691270Y590270D02*
X683730D01*
Y580576D01*
X683615Y580000D01*
X683730Y579424D01*
Y569730D01*
X691270D01*
Y576115D01*
X695415D01*
X696115Y575415D01*
Y522976D01*
X696411Y521489D01*
X697253Y520229D01*
X700229Y517253D01*
X701489Y516411D01*
X702976Y516115D01*
X708730D01*
Y509730D01*
X716270D01*
Y530270D01*
X708730D01*
Y523885D01*
X704585D01*
X703885Y524585D01*
Y577024D01*
X703589Y578511D01*
X702747Y579771D01*
X699771Y582747D01*
X698511Y583589D01*
X697024Y583885D01*
X691270D01*
Y590270D01*
D02*
G37*
G36*
X350000Y292300D02*
X348770Y290270D01*
X341230D01*
Y280576D01*
X341115Y280000D01*
X341230Y279424D01*
Y269730D01*
X348770D01*
X350000Y267700D01*
Y276115D01*
X388730D01*
Y269730D01*
X396270D01*
Y279424D01*
X396385Y280000D01*
X396270Y280576D01*
Y290270D01*
X388730D01*
Y283885D01*
X350000D01*
Y292300D01*
D02*
G37*
G36*
X300000Y506385D02*
X299424Y506270D01*
X289730D01*
Y498730D01*
X296115D01*
Y446270D01*
X289730D01*
Y438730D01*
X299424D01*
X300000Y438615D01*
X300576Y438730D01*
X310270D01*
Y446270D01*
X303885D01*
Y498730D01*
X310270D01*
Y506270D01*
X300576D01*
X300000Y506385D01*
D02*
G37*
G36*
Y431385D02*
X299424Y431270D01*
X289730D01*
Y423730D01*
X296115D01*
Y371270D01*
X289730D01*
Y363730D01*
X299424D01*
X300000Y363615D01*
X300576Y363730D01*
X310270D01*
Y371270D01*
X303885D01*
Y423730D01*
X310270D01*
Y431270D01*
X300576D01*
X300000Y431385D01*
D02*
G37*
G36*
X826270Y420270D02*
X818730D01*
Y413885D01*
X771270D01*
Y420270D01*
X763730D01*
Y410576D01*
X763615Y410000D01*
X763730Y409424D01*
Y399730D01*
X771270D01*
Y406115D01*
X818730D01*
Y399730D01*
X826270D01*
Y409424D01*
X826385Y410000D01*
X826270Y410576D01*
Y420270D01*
D02*
G37*
G36*
X1116270Y370270D02*
X1108730D01*
Y363885D01*
X1031270D01*
Y370270D01*
X1023730D01*
Y360576D01*
X1023615Y360000D01*
X1023730Y359424D01*
Y349730D01*
X1031270D01*
Y356115D01*
X1108730D01*
Y349730D01*
X1116270D01*
Y359424D01*
X1116385Y360000D01*
X1116270Y360576D01*
Y370270D01*
D02*
G37*
G36*
X1016270D02*
X1008730D01*
Y363885D01*
X921270D01*
Y370270D01*
X913730D01*
Y360576D01*
X913615Y360000D01*
X913730Y359424D01*
Y349730D01*
X921270D01*
Y356115D01*
X1008730D01*
Y349730D01*
X1016270D01*
Y359424D01*
X1016385Y360000D01*
X1016270Y360576D01*
Y370270D01*
D02*
G37*
G36*
X826270D02*
X818730D01*
Y363885D01*
X771270D01*
Y370270D01*
X763730D01*
Y360576D01*
X763615Y360000D01*
X763730Y359424D01*
Y349730D01*
X771270D01*
Y356115D01*
X818730D01*
Y349730D01*
X826270D01*
Y359424D01*
X826385Y360000D01*
X826270Y360576D01*
Y370270D01*
D02*
G37*
G36*
X676270D02*
X668730D01*
Y363885D01*
X581270D01*
Y370270D01*
X573730D01*
Y360576D01*
X573615Y360000D01*
X573730Y359424D01*
Y349730D01*
X581270D01*
Y356115D01*
X668730D01*
Y349730D01*
X676270D01*
Y359424D01*
X676385Y360000D01*
X676270Y360576D01*
Y370270D01*
D02*
G37*
G36*
X566270D02*
X558730D01*
Y363885D01*
X481270D01*
Y370270D01*
X473730D01*
Y360576D01*
X473615Y360000D01*
X473730Y359424D01*
Y349730D01*
X481270D01*
Y356115D01*
X558730D01*
Y349730D01*
X566270D01*
Y359424D01*
X566385Y360000D01*
X566270Y360576D01*
Y370270D01*
D02*
G37*
G36*
X756270D02*
X748730D01*
Y363885D01*
X742976D01*
X741489Y363589D01*
X740229Y362747D01*
X737253Y359771D01*
X736411Y358511D01*
X736115Y357024D01*
Y351609D01*
X698391Y313885D01*
X691270D01*
Y320270D01*
X683730D01*
Y310576D01*
X683615Y310000D01*
X683730Y309424D01*
Y299730D01*
X691270D01*
Y306115D01*
X700000D01*
X701487Y306411D01*
X702747Y307253D01*
X742747Y347253D01*
X743589Y348513D01*
X743885Y350000D01*
Y355415D01*
X744585Y356115D01*
X748730D01*
Y349730D01*
X756270D01*
Y359424D01*
X756385Y360000D01*
X756270Y360576D01*
Y370270D01*
D02*
G37*
G36*
X1116270Y320270D02*
X1108730D01*
Y313885D01*
X1031270D01*
Y320270D01*
X1023730D01*
Y310576D01*
X1023615Y310000D01*
X1023730Y309424D01*
Y299730D01*
X1031270D01*
Y306115D01*
X1108730D01*
Y299730D01*
X1116270D01*
Y309424D01*
X1116385Y310000D01*
X1116270Y310576D01*
Y320270D01*
D02*
G37*
G36*
X1016270D02*
X1008730D01*
Y313885D01*
X921270D01*
Y320270D01*
X913730D01*
Y310576D01*
X913615Y310000D01*
X913730Y309424D01*
Y299730D01*
X921270D01*
Y306115D01*
X1008730D01*
Y299730D01*
X1016270D01*
Y309424D01*
X1016385Y310000D01*
X1016270Y310576D01*
Y320270D01*
D02*
G37*
G36*
X826270D02*
X818730D01*
Y313885D01*
X771270D01*
Y320270D01*
X763730D01*
Y310576D01*
X763615Y310000D01*
X763730Y309424D01*
Y299730D01*
X771270D01*
Y306115D01*
X818730D01*
Y299730D01*
X826270D01*
Y309424D01*
X826385Y310000D01*
X826270Y310576D01*
Y320270D01*
D02*
G37*
G36*
X676270D02*
X668730D01*
Y313885D01*
X581270D01*
Y320270D01*
X573730D01*
Y310576D01*
X573615Y310000D01*
X573730Y309424D01*
Y299730D01*
X581270D01*
Y306115D01*
X668730D01*
Y299730D01*
X676270D01*
Y309424D01*
X676385Y310000D01*
X676270Y310576D01*
Y320270D01*
D02*
G37*
G36*
X566270D02*
X558730D01*
Y313885D01*
X481270D01*
Y320270D01*
X473730D01*
Y310576D01*
X473615Y310000D01*
X473730Y309424D01*
Y299730D01*
X481270D01*
Y306115D01*
X558730D01*
Y299730D01*
X566270D01*
Y309424D01*
X566385Y310000D01*
X566270Y310576D01*
Y320270D01*
D02*
G37*
G36*
X841270Y370270D02*
X833730D01*
Y360576D01*
X833615Y360000D01*
X833730Y359424D01*
Y349730D01*
X841270D01*
Y356115D01*
X848391D01*
X886115Y318391D01*
Y312976D01*
X886411Y311489D01*
X887253Y310229D01*
X890229Y307253D01*
X891489Y306411D01*
X892976Y306115D01*
X898730D01*
Y299730D01*
X906270D01*
Y309424D01*
X906385Y310000D01*
X906270Y310576D01*
Y320270D01*
X898730D01*
Y313885D01*
X894585D01*
X893885Y314585D01*
Y320000D01*
X893589Y321487D01*
X892747Y322747D01*
X852747Y362747D01*
X851487Y363589D01*
X850000Y363885D01*
X841270D01*
Y370270D01*
D02*
G37*
G36*
X756270Y320270D02*
X748730D01*
Y310576D01*
X748615Y310000D01*
Y309200D01*
X745316D01*
X743829Y308905D01*
X742569Y308063D01*
X698391Y263885D01*
X691270D01*
Y270270D01*
X683730D01*
Y260576D01*
X683615Y260000D01*
X683730Y259424D01*
Y249730D01*
X691270D01*
Y256115D01*
X700000D01*
X701487Y256411D01*
X702747Y257253D01*
X746190Y300696D01*
X748730Y299730D01*
Y299730D01*
X756270D01*
Y304779D01*
X756385Y305356D01*
Y310000D01*
X756270Y310576D01*
Y320270D01*
D02*
G37*
G36*
X1256270Y290270D02*
X1248730D01*
Y283885D01*
X1213770D01*
Y290270D01*
X1206230D01*
Y280576D01*
X1206115Y280000D01*
X1206230Y279424D01*
Y269730D01*
X1213770D01*
Y276115D01*
X1248730D01*
Y269730D01*
X1256270D01*
Y279424D01*
X1256385Y280000D01*
X1256270Y280576D01*
Y290270D01*
D02*
G37*
G36*
X1116270Y270270D02*
X1108730D01*
Y263885D01*
X1031270D01*
Y270270D01*
X1023730D01*
Y260576D01*
X1023615Y260000D01*
X1023730Y259424D01*
Y249730D01*
X1031270D01*
Y256115D01*
X1108730D01*
Y249730D01*
X1116270D01*
Y259424D01*
X1116385Y260000D01*
X1116270Y260576D01*
Y270270D01*
D02*
G37*
G36*
X1016270D02*
X1008730D01*
Y263885D01*
X921270D01*
Y270270D01*
X913730D01*
Y260576D01*
X913615Y260000D01*
X913730Y259424D01*
Y249730D01*
X921270D01*
Y256115D01*
X1008730D01*
Y249730D01*
X1016270D01*
Y259424D01*
X1016385Y260000D01*
X1016270Y260576D01*
Y270270D01*
D02*
G37*
G36*
X676270D02*
X668730D01*
Y263885D01*
X581270D01*
Y270270D01*
X573730D01*
Y260576D01*
X573615Y260000D01*
X573730Y259424D01*
Y249730D01*
X581270D01*
Y256115D01*
X668730D01*
Y249730D01*
X676270D01*
Y259424D01*
X676385Y260000D01*
X676270Y260576D01*
Y270270D01*
D02*
G37*
G36*
X566270D02*
X558730D01*
Y263885D01*
X481270D01*
Y270270D01*
X473730D01*
Y260576D01*
X473615Y260000D01*
X473730Y259424D01*
Y249730D01*
X481270D01*
Y256115D01*
X558730D01*
Y249730D01*
X566270D01*
Y259424D01*
X566385Y260000D01*
X566270Y260576D01*
Y270270D01*
D02*
G37*
G36*
X841270Y320270D02*
X833730D01*
Y310576D01*
X833615Y310000D01*
X833730Y309424D01*
Y299730D01*
X841270D01*
Y306115D01*
X848391D01*
X886115Y268391D01*
Y262976D01*
X886411Y261489D01*
X887253Y260229D01*
X890229Y257253D01*
X891489Y256411D01*
X892976Y256115D01*
X898730D01*
Y249730D01*
X906270D01*
Y259424D01*
X906385Y260000D01*
X906270Y260576D01*
Y270270D01*
X898730D01*
Y263885D01*
X894585D01*
X893885Y264585D01*
Y270000D01*
X893589Y271487D01*
X892747Y272747D01*
X852747Y312747D01*
X851487Y313589D01*
X850000Y313885D01*
X841270D01*
Y320270D01*
D02*
G37*
G36*
X201898Y204270D02*
X198102D01*
X194379Y203529D01*
X190872Y202077D01*
X187716Y199968D01*
X185032Y197284D01*
X182923Y194128D01*
X181471Y190621D01*
X180730Y186898D01*
Y183102D01*
X181471Y179379D01*
X182923Y175872D01*
X185032Y172716D01*
X187716Y170032D01*
X190872Y167923D01*
X194379Y166471D01*
X198102Y165730D01*
X201898D01*
X205621Y166471D01*
X209128Y167923D01*
X212284Y170032D01*
X214968Y172716D01*
X217077Y175872D01*
X218529Y179379D01*
X219270Y183102D01*
Y186898D01*
X218529Y190621D01*
X217077Y194128D01*
X214968Y197284D01*
X212284Y199968D01*
X209128Y202077D01*
X205621Y203529D01*
X201898Y204270D01*
D02*
G37*
G36*
X801898D02*
X798102D01*
X794379Y203529D01*
X790872Y202077D01*
X787716Y199968D01*
X785032Y197284D01*
X782923Y194128D01*
X781470Y190621D01*
X780730Y186898D01*
Y183102D01*
X781470Y179379D01*
X782923Y175872D01*
X785032Y172716D01*
X787716Y170032D01*
X790872Y167923D01*
X794379Y166471D01*
X798102Y165730D01*
X801898D01*
X805621Y166471D01*
X809128Y167923D01*
X812284Y170032D01*
X814968Y172716D01*
X817077Y175872D01*
X818530Y179379D01*
X819270Y183102D01*
Y186898D01*
X818530Y190621D01*
X817077Y194128D01*
X814968Y197284D01*
X812284Y199968D01*
X809128Y202077D01*
X805621Y203529D01*
X801898Y204270D01*
D02*
G37*
%LPD*%
D13*
X883805Y203805D02*
X890000Y210000D01*
Y217500D01*
X892500Y220000D01*
X990000D01*
X876709Y203805D02*
X880000Y207096D01*
X860000Y140000D02*
Y190000D01*
X880000Y207096D02*
Y207270D01*
X860000Y190000D02*
X873805Y203805D01*
X876709D01*
X890000Y194500D02*
X902500D01*
X990000Y220000D02*
X1010000Y200000D01*
Y182960D02*
Y200000D01*
X1000000Y172960D02*
X1010000Y182960D01*
X1000000Y172730D02*
Y172960D01*
X920348Y216190D02*
X957416D01*
X988422D02*
X993556Y211056D01*
X902730Y198572D02*
X920348Y216190D01*
X950250Y209024D02*
X957416Y216190D01*
X988422D01*
X1000000Y187270D02*
Y204612D01*
X993556Y211056D02*
X1000000Y204612D01*
X993556Y211056D02*
X993556D01*
X902500Y150000D02*
X940000D01*
X942520Y152520D01*
X907730Y155298D02*
Y165270D01*
X909218Y153810D02*
X933810D01*
X940000Y160000D01*
X902500Y147500D02*
Y150000D01*
Y165500D01*
X907730Y155298D02*
X909218Y153810D01*
X956750Y150976D02*
Y173250D01*
X946190Y176190D02*
X953810D01*
X956750Y173250D01*
X840000Y120000D02*
X860000Y140000D01*
X740000Y120000D02*
X840000D01*
X360000Y140000D02*
X630000D01*
X360000Y110000D02*
X386190Y136190D01*
X350000Y130000D02*
X360000Y140000D01*
X630000D02*
X680000Y190000D01*
X688190Y136190D02*
X710000Y158000D01*
X386190Y136190D02*
X688190D01*
X362500Y78700D02*
Y96017D01*
X360000Y98517D02*
Y110000D01*
Y98517D02*
X362500Y96017D01*
X391446Y77646D02*
X392500Y78700D01*
X351488Y60000D02*
X380000D01*
X391446Y71446D02*
Y77646D01*
X380000Y60000D02*
X391446Y71446D01*
X687270Y190000D02*
X690000Y187270D01*
X680000Y190000D02*
X687270D01*
X350000Y61488D02*
Y130000D01*
Y61488D02*
X351488Y60000D01*
X880000Y192500D02*
Y192730D01*
X872611Y185111D02*
X880000Y192500D01*
X872611Y114099D02*
Y185111D01*
X868512Y110000D02*
X872611Y114099D01*
X423800Y110000D02*
X868512D01*
X396230Y82430D02*
X423800Y110000D01*
X394230Y82430D02*
X396230D01*
X392500Y80700D02*
X394230Y82430D01*
X392500Y78700D02*
Y80700D01*
X449990Y106190D02*
X896190D01*
X910000Y120000D01*
X426230Y82430D02*
X449990Y106190D01*
X729500Y130500D02*
X740000Y120000D01*
X912500Y184000D02*
X917270Y188770D01*
X911750Y183250D02*
X912500Y184000D01*
Y194500D01*
Y182500D02*
Y184000D01*
X907500Y182500D02*
Y194500D01*
X729500Y130500D02*
Y139500D01*
X720000Y130000D02*
X729500Y139500D01*
X400000Y130000D02*
X720000D01*
X905774Y100000D02*
X956750Y150976D01*
X480000Y100000D02*
X905774D01*
X440000Y60000D02*
X480000Y100000D01*
X426200Y60000D02*
X440000D01*
X411230Y74970D02*
X426200Y60000D01*
X409230Y74970D02*
X411230D01*
X407500Y76700D02*
X409230Y74970D01*
X407500Y76700D02*
Y78700D01*
X910000Y120000D02*
Y140000D01*
X424230Y82430D02*
X426230D01*
X422500Y80700D02*
X424230Y82430D01*
X422500Y78700D02*
Y80700D01*
X902730Y194730D02*
Y198572D01*
X902500Y194500D02*
X902730Y194730D01*
X902500Y147500D02*
X910000Y140000D01*
X942520Y152520D02*
X949345D01*
X950250Y153425D01*
Y158500D01*
X940000Y160000D02*
Y170000D01*
X946190Y176190D01*
X907500Y165500D02*
X907730Y165270D01*
X950250Y201500D02*
Y209024D01*
X967270Y172730D02*
X1000000D01*
X967270D02*
X969750Y170250D01*
Y158500D02*
Y170250D01*
X960000Y180000D02*
X967270Y172730D01*
X910000Y180000D02*
X960000D01*
X910000Y178500D02*
Y180000D01*
Y178500D02*
X917270Y171230D01*
Y165730D02*
Y171230D01*
Y165730D02*
X917500Y165500D01*
X917270Y188770D02*
Y194270D01*
X917500Y194500D01*
X872770D02*
X892500D01*
X729500Y139500D02*
Y158000D01*
X377500Y107500D02*
X400000Y130000D01*
X377500Y78700D02*
Y107500D01*
X729500Y158000D02*
Y170500D01*
X727270Y172730D02*
X729500Y170500D01*
X690000Y172730D02*
X727270D01*
X710000Y200000D02*
Y218512D01*
X708512Y220000D02*
X710000Y218512D01*
X692500Y220000D02*
X708512D01*
X690000Y217500D02*
X692500Y220000D01*
X690000Y187270D02*
Y217500D01*
D24*
X950250Y158500D02*
D03*
X956750D02*
D03*
X963250D02*
D03*
X969750D02*
D03*
X950250Y201500D02*
D03*
X956750D02*
D03*
X963250D02*
D03*
X969750D02*
D03*
D25*
X1000000Y172730D02*
D03*
Y187270D02*
D03*
X880000Y207270D02*
D03*
Y192730D02*
D03*
X690000Y172730D02*
D03*
Y187270D02*
D03*
D26*
X910000Y180000D02*
D03*
D27*
X917500Y194500D02*
D03*
X912500D02*
D03*
X907500D02*
D03*
X902500D02*
D03*
X917500Y165500D02*
D03*
X912500D02*
D03*
X907500D02*
D03*
X902500D02*
D03*
D28*
X1295730Y210000D02*
D03*
X1324270D02*
D03*
X1334270Y180000D02*
D03*
X1305730D02*
D03*
D29*
X729500Y200000D02*
D03*
X723000D02*
D03*
X716500D02*
D03*
X710000D02*
D03*
X729500Y158000D02*
D03*
X723000D02*
D03*
X716500D02*
D03*
X710000D02*
D03*
D30*
X1200000Y370000D02*
D03*
X400000D02*
D03*
D31*
X1186000D02*
D03*
X1214000D02*
D03*
X386000D02*
D03*
X414000D02*
D03*
D32*
X1236450Y28500D02*
D03*
X1423550D02*
D03*
X106450D02*
D03*
X293550D02*
D03*
X336450Y26800D02*
D03*
X463550D02*
D03*
D33*
X1397500Y80400D02*
D03*
X1382500D02*
D03*
X1367500D02*
D03*
X1352500D02*
D03*
X1337500D02*
D03*
X1322500D02*
D03*
X1307500D02*
D03*
X1292500D02*
D03*
X1277500D02*
D03*
X1262500D02*
D03*
X267500D02*
D03*
X252500D02*
D03*
X237500D02*
D03*
X222500D02*
D03*
X207500D02*
D03*
X192500D02*
D03*
X177500D02*
D03*
X162500D02*
D03*
X147500D02*
D03*
X132500D02*
D03*
X437500Y78700D02*
D03*
X422500D02*
D03*
X407500D02*
D03*
X392500D02*
D03*
X377500D02*
D03*
X362500D02*
D03*
D34*
X1218750Y370000D02*
D03*
X1181250D02*
D03*
X418750D02*
D03*
X381250D02*
D03*
D51*
X300000Y367500D02*
D03*
Y352500D02*
D03*
X1350000Y290000D02*
D03*
Y275000D02*
D03*
Y442500D02*
D03*
Y427500D02*
D03*
Y587500D02*
D03*
Y572500D02*
D03*
X250000D02*
D03*
Y587500D02*
D03*
Y427500D02*
D03*
Y442500D02*
D03*
Y272500D02*
D03*
Y287500D02*
D03*
X1300000Y495000D02*
D03*
Y510000D02*
D03*
Y425000D02*
D03*
Y440000D02*
D03*
Y352500D02*
D03*
Y367500D02*
D03*
X300000Y502500D02*
D03*
Y517500D02*
D03*
Y427500D02*
D03*
Y442500D02*
D03*
D52*
Y360000D02*
D03*
X1350000Y282500D02*
D03*
Y435000D02*
D03*
Y580000D02*
D03*
X250000Y580000D02*
D03*
Y435000D02*
D03*
Y280000D02*
D03*
X1300000Y502500D02*
D03*
Y432500D02*
D03*
Y360000D02*
D03*
X300000Y510000D02*
D03*
Y435000D02*
D03*
D53*
X1460000Y269250D02*
D03*
Y290750D02*
D03*
Y349250D02*
D03*
Y370750D02*
D03*
Y424250D02*
D03*
Y445750D02*
D03*
Y489250D02*
D03*
Y510750D02*
D03*
Y569250D02*
D03*
Y590750D02*
D03*
X140000Y591500D02*
D03*
Y570000D02*
D03*
Y510000D02*
D03*
Y488500D02*
D03*
Y445750D02*
D03*
Y424250D02*
D03*
Y371500D02*
D03*
Y350000D02*
D03*
Y290750D02*
D03*
Y269250D02*
D03*
D54*
X1210750Y670000D02*
D03*
X1189250D02*
D03*
X810750Y600000D02*
D03*
X789250D02*
D03*
X410750Y670000D02*
D03*
X389250D02*
D03*
X1119250Y410000D02*
D03*
X1140750D02*
D03*
X1010000D02*
D03*
X1031500D02*
D03*
X889250D02*
D03*
X910750D02*
D03*
X679250D02*
D03*
X700750D02*
D03*
X449250D02*
D03*
X470750D02*
D03*
X560000D02*
D03*
X581500D02*
D03*
X1210750Y500000D02*
D03*
X1189250D02*
D03*
X1080750D02*
D03*
X1059250D02*
D03*
X970750D02*
D03*
X949250D02*
D03*
X810750D02*
D03*
X789250D02*
D03*
X640750D02*
D03*
X619250D02*
D03*
X530750D02*
D03*
X509250D02*
D03*
X410750D02*
D03*
X389250D02*
D03*
D55*
X1112500Y310000D02*
D03*
X1127500D02*
D03*
X1012500D02*
D03*
X1027500D02*
D03*
X902500D02*
D03*
X917500D02*
D03*
X822500Y360000D02*
D03*
X837500D02*
D03*
X752500D02*
D03*
X767500D02*
D03*
X672500Y310000D02*
D03*
X687500D02*
D03*
X562500D02*
D03*
X577500D02*
D03*
X462500D02*
D03*
X477500D02*
D03*
X1112500Y360000D02*
D03*
X1127500D02*
D03*
X1012500D02*
D03*
X1027500D02*
D03*
X902500D02*
D03*
X917500D02*
D03*
X822500Y410000D02*
D03*
X837500D02*
D03*
X752500D02*
D03*
X767500D02*
D03*
X672500Y360000D02*
D03*
X687500D02*
D03*
X562500D02*
D03*
X577500D02*
D03*
X462500D02*
D03*
X477500D02*
D03*
X1112500Y260000D02*
D03*
X1127500D02*
D03*
X1012500D02*
D03*
X1027500D02*
D03*
X902500D02*
D03*
X917500D02*
D03*
X822500Y310000D02*
D03*
X837500D02*
D03*
X752500D02*
D03*
X767500D02*
D03*
X672500Y260000D02*
D03*
X687500D02*
D03*
X562500D02*
D03*
X577500D02*
D03*
X462500D02*
D03*
X477500D02*
D03*
X492500Y580000D02*
D03*
X507500D02*
D03*
X1062500D02*
D03*
X1077500D02*
D03*
X992500D02*
D03*
X1007500D02*
D03*
X572500D02*
D03*
X587500D02*
D03*
X1210000Y280000D02*
D03*
X1195000D02*
D03*
X1267500D02*
D03*
X1252500D02*
D03*
X1192500Y580000D02*
D03*
X1207500D02*
D03*
X1132500D02*
D03*
X1147500D02*
D03*
X902500D02*
D03*
X917500D02*
D03*
X862500Y520000D02*
D03*
X877500D02*
D03*
X712500D02*
D03*
X727500D02*
D03*
X672500Y580000D02*
D03*
X687500D02*
D03*
X415000D02*
D03*
X430000D02*
D03*
X355000D02*
D03*
X370000D02*
D03*
X345000Y280000D02*
D03*
X330000D02*
D03*
X407500D02*
D03*
X392500D02*
D03*
D56*
X1120000Y310000D02*
D03*
X1020000D02*
D03*
X910000D02*
D03*
X830000Y360000D02*
D03*
X760000D02*
D03*
X680000Y310000D02*
D03*
X570000D02*
D03*
X470000D02*
D03*
X1120000Y360000D02*
D03*
X1020000D02*
D03*
X910000D02*
D03*
X830000Y410000D02*
D03*
X760000D02*
D03*
X680000Y360000D02*
D03*
X570000D02*
D03*
X470000D02*
D03*
X1120000Y260000D02*
D03*
X1020000D02*
D03*
X910000D02*
D03*
X830000Y310000D02*
D03*
X760000D02*
D03*
X680000Y260000D02*
D03*
X570000D02*
D03*
X470000D02*
D03*
X500000Y580000D02*
D03*
X1070000D02*
D03*
X1000000D02*
D03*
X580000D02*
D03*
X1202500Y280000D02*
D03*
X1260000D02*
D03*
X1200000Y580000D02*
D03*
X1140000D02*
D03*
X910000D02*
D03*
X870000Y520000D02*
D03*
X720000D02*
D03*
X680000Y580000D02*
D03*
X422500D02*
D03*
X362500D02*
D03*
X337500Y280000D02*
D03*
X400000D02*
D03*
D57*
X1325000Y210000D02*
X1330000D01*
X1335000Y215000D02*
Y513980D01*
X1330000Y210000D02*
X1335000Y215000D01*
X1324270Y213270D02*
X1327021Y216021D01*
X1324270Y210000D02*
Y213270D01*
X1320000Y528980D02*
X1335000Y513980D01*
X1470000Y160000D02*
Y220000D01*
X1320000Y224970D02*
Y520000D01*
X1315169Y194831D02*
Y220139D01*
X1320000Y224970D01*
X1315169Y194831D02*
X1322500Y187500D01*
X1304831Y196189D02*
Y224831D01*
X1277024Y280000D02*
X1280000Y277024D01*
Y212976D02*
Y277024D01*
Y212976D02*
X1282976Y210000D01*
X1295730D01*
X1322500Y80400D02*
Y187500D01*
X1304831Y224831D02*
X1313650Y233650D01*
X1304831Y196189D02*
X1305730Y195290D01*
Y174974D02*
Y195290D01*
X1290000Y550000D02*
X1320000Y520000D01*
X1334270Y95730D02*
X1337500Y92500D01*
X1334270Y95730D02*
Y180000D01*
X1337500Y80400D02*
Y92500D01*
X1172976Y280000D02*
X1195000D01*
X1170000Y277024D02*
X1172976Y280000D01*
X1170000Y260000D02*
Y277024D01*
Y260000D02*
X1307500Y122500D01*
Y80400D02*
Y122500D01*
X1277500Y80400D02*
Y112500D01*
X1149404Y240596D02*
X1277500Y112500D01*
X1292500Y80400D02*
Y117500D01*
X1148650Y261350D02*
X1292500Y117500D01*
X1313650Y233650D02*
Y517370D01*
X1320000Y528980D02*
Y570000D01*
X1300000Y520000D02*
X1303406Y523406D01*
X1255750Y550000D02*
X1290000D01*
X1300000Y510000D02*
Y520000D01*
X1210750Y505000D02*
X1255750Y550000D01*
X1307614Y523406D02*
X1313650Y517370D01*
X1303406Y523406D02*
X1307614D01*
X1143054Y227515D02*
Y238026D01*
Y227515D02*
X1262500Y108069D01*
X1148650Y261350D02*
Y351350D01*
X1142300Y249739D02*
Y303108D01*
X1137704Y307704D02*
X1142300Y303108D01*
Y249739D02*
X1149404Y242635D01*
X1140000Y360000D02*
X1148650Y351350D01*
X1149404Y240596D02*
Y242635D01*
X1127540Y253540D02*
X1143054Y238026D01*
X1262500Y80400D02*
Y108069D01*
X1127500Y360000D02*
X1140000D01*
X1127500Y307744D02*
Y310000D01*
Y307744D02*
X1127540Y307704D01*
X1137704D01*
X1210750Y500000D02*
Y505000D01*
X1210000Y280000D02*
X1252500D01*
X1267500D02*
X1277024D01*
X1310000Y580000D02*
X1320000Y570000D01*
X1207500Y580000D02*
X1310000D01*
X1450000Y140000D02*
X1470000Y160000D01*
X1400000Y140000D02*
X1450000D01*
X1367500Y107500D02*
X1400000Y140000D01*
X1367500Y80400D02*
Y107500D01*
X1352500Y80400D02*
Y82400D01*
X1350000Y84900D02*
X1352500Y82400D01*
X1350000Y84900D02*
Y275000D01*
X270000Y350000D02*
X310000Y310000D01*
X270000Y350000D02*
Y520000D01*
X290000Y540000D01*
X263650Y346350D02*
X323914Y286086D01*
X263650Y523650D02*
X320000Y580000D01*
X263650Y346350D02*
Y523650D01*
X290000Y540000D02*
X360000D01*
X310000Y310000D02*
X420000D01*
X220000Y120000D02*
X237500Y102500D01*
Y80400D02*
Y102500D01*
X210000Y120000D02*
X222500Y107500D01*
Y80400D02*
Y107500D01*
X190000Y120000D02*
X207500Y102500D01*
Y80400D02*
Y102500D01*
X180000Y120000D02*
X192500Y107500D01*
Y80400D02*
Y107500D01*
X160000Y120000D02*
X177500Y102500D01*
Y80400D02*
Y102500D01*
X150000Y120000D02*
X162500Y107500D01*
Y80400D02*
Y107500D01*
X140000Y120000D02*
X147500Y112500D01*
Y80400D02*
Y112500D01*
X130000Y120000D02*
X132500Y117500D01*
Y80400D02*
Y117500D01*
X250000Y240000D02*
Y272500D01*
X440000Y260000D02*
X462500D01*
X407500Y280000D02*
X430000D01*
X440000Y310000D02*
X462500D01*
X440000Y350000D02*
X450000Y360000D01*
X462500D01*
X310000Y330000D02*
X420000D01*
X300000Y340000D02*
X310000Y330000D01*
X300000Y340000D02*
Y352500D01*
X745316Y305316D02*
X752460D01*
X687500Y260000D02*
X700000D01*
X752500Y305356D02*
Y310000D01*
X752460Y305316D02*
X752500Y305356D01*
X700000Y260000D02*
X745316Y305316D01*
X710000Y360000D02*
X740000Y390000D01*
X687500Y360000D02*
X710000D01*
X740000Y390000D02*
Y407024D01*
X450000Y380000D02*
X710000D01*
X726164Y396164D01*
Y406164D01*
X414000Y370000D02*
X440000D01*
X450000Y380000D01*
X726164Y406164D02*
X750000Y430000D01*
X840000D01*
X860000Y410000D01*
Y400000D02*
Y410000D01*
Y400000D02*
X880000Y380000D01*
X1150000D01*
X1160000Y370000D01*
X1186000D01*
X837500Y410000D02*
X847024D01*
X850000Y407024D01*
Y390000D02*
Y407024D01*
X880000Y360000D02*
X902500D01*
X850000Y390000D02*
X880000Y360000D01*
X1214000Y370000D02*
X1240000D01*
X1257500Y352500D01*
X1300000D01*
Y367500D02*
Y425000D01*
Y440000D02*
Y495000D01*
X1027500Y260000D02*
X1112500D01*
X1027500Y310000D02*
X1112500D01*
X1027500Y360000D02*
X1112500D01*
X917500Y260000D02*
X1012500D01*
X917500Y310000D02*
X1012500D01*
X917500Y360000D02*
X1012500D01*
X892976Y260000D02*
X902500D01*
X890000Y262976D02*
X892976Y260000D01*
X890000Y262976D02*
Y270000D01*
X850000Y310000D02*
X890000Y270000D01*
X837500Y310000D02*
X850000D01*
X892976D02*
X902500D01*
X890000Y312976D02*
X892976Y310000D01*
X890000Y312976D02*
Y320000D01*
X850000Y360000D02*
X890000Y320000D01*
X837500Y360000D02*
X850000D01*
X767500Y310000D02*
X822500D01*
X767500Y360000D02*
X822500D01*
X767500Y410000D02*
X822500D01*
X742976D02*
X752500D01*
X740000Y407024D02*
X742976Y410000D01*
Y360000D02*
X752500D01*
X740000Y357024D02*
X742976Y360000D01*
X740000Y350000D02*
Y357024D01*
X700000Y310000D02*
X740000Y350000D01*
X687500Y310000D02*
X700000D01*
X577500Y260000D02*
X672500D01*
X577500Y310000D02*
X672500D01*
X577500Y360000D02*
X672500D01*
X477500D02*
X562500D01*
X477500Y310000D02*
X562500D01*
X477500Y260000D02*
X562500D01*
X345000Y280000D02*
X392500D01*
X1147500Y580000D02*
X1192500D01*
X1350000Y587500D02*
Y627024D01*
X1347024Y630000D02*
X1350000Y627024D01*
X1092976Y630000D02*
X1347024D01*
X1090000Y627024D02*
X1092976Y630000D01*
X1090000Y582976D02*
Y627024D01*
X1087024Y580000D02*
X1090000Y582976D01*
X1077500Y580000D02*
X1087024D01*
X1007500D02*
X1062500D01*
X1122976D02*
X1132500D01*
X1120000Y577024D02*
X1122976Y580000D01*
X1120000Y552976D02*
Y577024D01*
X1117024Y550000D02*
X1120000Y552976D01*
X941080Y550000D02*
X1117024D01*
X917500Y573580D02*
X941080Y550000D01*
X917500Y573580D02*
Y580000D01*
X702976Y520000D02*
X710000D01*
X700000Y522976D02*
X702976Y520000D01*
X700000Y522976D02*
Y577024D01*
X697024Y580000D02*
X700000Y577024D01*
X687500Y580000D02*
X697024D01*
X727500Y520000D02*
X747024D01*
X750000Y522976D01*
Y557024D01*
X752976Y560000D01*
X847024D01*
X850000Y557024D01*
Y522976D02*
Y557024D01*
Y522976D02*
X852976Y520000D01*
X862500D01*
X892976Y580000D02*
X902500D01*
X890000Y577024D02*
X892976Y580000D01*
X890000Y522976D02*
Y577024D01*
X887024Y520000D02*
X890000Y522976D01*
X877500Y520000D02*
X887024D01*
X980000Y580000D02*
X992500D01*
X930000Y630000D02*
X980000Y580000D01*
X880000Y630000D02*
X930000D01*
X870000Y620000D02*
X880000Y630000D01*
X870000Y600000D02*
Y620000D01*
X842104Y572104D02*
X870000Y600000D01*
X767896Y572104D02*
X842104D01*
X740000Y600000D02*
X767896Y572104D01*
X740000Y600000D02*
Y627024D01*
X737024Y630000D02*
X740000Y627024D01*
X660000Y630000D02*
X737024D01*
X610000Y580000D02*
X660000Y630000D01*
X587500Y580000D02*
X610000D01*
X507500D02*
X572500D01*
X662976D02*
X672500D01*
X660000Y577024D02*
X662976Y580000D01*
X660000Y560000D02*
Y577024D01*
X650000Y550000D02*
X660000Y560000D01*
X453580Y550000D02*
X650000D01*
X430000Y573580D02*
X453580Y550000D01*
X430000Y573580D02*
Y580000D01*
X370000D02*
X415000D01*
X470000D02*
X492500D01*
X440000Y610000D02*
X470000Y580000D01*
X260000Y610000D02*
X440000D01*
X250000Y600000D02*
X260000Y610000D01*
X250000Y587500D02*
Y600000D01*
X330000Y280000D02*
Y286046D01*
X323914Y286086D02*
X329960D01*
X330000Y286046D01*
X320000Y580000D02*
X355000D01*
X352976Y370000D02*
X386000D01*
X350000Y372976D02*
X352976Y370000D01*
X350000Y372976D02*
Y510000D01*
X342500Y517500D02*
X350000Y510000D01*
X300000Y517500D02*
X342500D01*
X300000Y442500D02*
Y502500D01*
Y367500D02*
Y427500D01*
D58*
X1400000Y685000D02*
D03*
Y185000D02*
D03*
X200000D02*
D03*
Y685000D02*
D03*
X800000Y185000D02*
D03*
Y685000D02*
D03*
M02*
