G04*
G04 #@! TF.GenerationSoftware,Altium Limited,Altium Designer,25.8.1 (18)*
G04*
G04 Layer_Color=8421504*
%FSLAX44Y44*%
%MOMM*%
G71*
G04*
G04 #@! TF.SameCoordinates,660DA955-28A1-446D-8B2B-196904F11E2A*
G04*
G04*
G04 #@! TF.FilePolarity,Positive*
G04*
G01*
G75*
%ADD18R,1.7000X0.2500*%
%ADD19R,1.7000X0.5000*%
%ADD20R,1.1000X0.3750*%
%ADD21R,0.3750X1.1000*%
%ADD22R,0.5000X1.7000*%
%ADD23R,0.2500X1.7000*%
%ADD24O,0.4500X1.9000*%
%ADD25R,0.9121X0.9581*%
%ADD26R,1.4500X1.7500*%
%ADD27R,0.3000X0.7500*%
%ADD28R,1.0581X1.7121*%
%ADD29O,0.4500X1.7000*%
%ADD30R,1.3000X3.3000*%
%ADD31R,0.5000X3.3000*%
%ADD32R,1.2500X1.8000*%
%ADD33R,0.6000X1.0000*%
%ADD34R,0.5500X0.5000*%
D18*
X299999Y352750D02*
D03*
Y367250D02*
D03*
X1350000Y275250D02*
D03*
Y289750D02*
D03*
X1349999Y427750D02*
D03*
Y442250D02*
D03*
X1349999Y572750D02*
D03*
Y587250D02*
D03*
X250000Y587253D02*
D03*
Y572753D02*
D03*
X250000Y442250D02*
D03*
Y427750D02*
D03*
X249999Y287251D02*
D03*
Y272751D02*
D03*
X1300000Y509749D02*
D03*
Y495249D02*
D03*
Y439742D02*
D03*
Y425242D02*
D03*
X1300000Y367252D02*
D03*
Y352752D02*
D03*
X300001Y517250D02*
D03*
Y502750D02*
D03*
X300000Y442250D02*
D03*
Y427750D02*
D03*
D19*
X300000Y360001D02*
D03*
X1350000Y282498D02*
D03*
Y434998D02*
D03*
X1350000Y579999D02*
D03*
X249998Y580000D02*
D03*
X250000Y435000D02*
D03*
X249998Y280000D02*
D03*
X1300000Y502500D02*
D03*
X1300001Y432500D02*
D03*
X1300001Y360000D02*
D03*
X300000Y509999D02*
D03*
X299999Y435000D02*
D03*
D20*
X1459999Y283625D02*
D03*
Y276375D02*
D03*
X1459999Y363625D02*
D03*
Y356375D02*
D03*
X1460000Y438625D02*
D03*
Y431375D02*
D03*
X1460000Y503625D02*
D03*
Y496375D02*
D03*
X1459999Y583625D02*
D03*
Y576375D02*
D03*
X140000Y577125D02*
D03*
Y584375D02*
D03*
X140000Y495625D02*
D03*
Y502876D02*
D03*
Y431375D02*
D03*
Y438624D02*
D03*
X140000Y357124D02*
D03*
Y364374D02*
D03*
X140000Y276376D02*
D03*
Y283626D02*
D03*
D21*
X1196375Y670000D02*
D03*
X1203625D02*
D03*
X796375Y600000D02*
D03*
X803625D02*
D03*
X396375Y670000D02*
D03*
X403625D02*
D03*
X1133625Y410000D02*
D03*
X1126375D02*
D03*
X1024375Y410000D02*
D03*
X1017125D02*
D03*
X903625Y410000D02*
D03*
X896375D02*
D03*
X693625Y410000D02*
D03*
X686375D02*
D03*
X463625Y409998D02*
D03*
X456375D02*
D03*
X574375Y410000D02*
D03*
X567125D02*
D03*
X1196375Y500000D02*
D03*
X1203625D02*
D03*
X1066375Y500001D02*
D03*
X1073625D02*
D03*
X956375Y500000D02*
D03*
X963625D02*
D03*
X796375Y500000D02*
D03*
X803625D02*
D03*
X626375Y499999D02*
D03*
X633625D02*
D03*
X516375Y499999D02*
D03*
X523625D02*
D03*
X396375Y499999D02*
D03*
X403625D02*
D03*
D22*
X1120000Y310000D02*
D03*
X1020000Y310000D02*
D03*
X910000Y310000D02*
D03*
X830000Y360000D02*
D03*
X760000Y360000D02*
D03*
X680000Y310000D02*
D03*
X570000D02*
D03*
X470000Y310000D02*
D03*
X1120000Y360000D02*
D03*
X1020000Y360000D02*
D03*
X910000Y360000D02*
D03*
X830000Y410000D02*
D03*
X760000Y410000D02*
D03*
X680000Y360000D02*
D03*
X570000D02*
D03*
X470000Y360000D02*
D03*
X1120000Y260000D02*
D03*
X1020000Y260000D02*
D03*
X910000D02*
D03*
X830000Y310000D02*
D03*
X760000Y310000D02*
D03*
X680000Y260000D02*
D03*
X570000Y260000D02*
D03*
X470000D02*
D03*
X500000Y580000D02*
D03*
X1070000Y580000D02*
D03*
X1000000D02*
D03*
X580000D02*
D03*
X1202500Y280000D02*
D03*
X1260000Y280000D02*
D03*
X1200000Y580000D02*
D03*
X1140000D02*
D03*
X910000Y580000D02*
D03*
X870000Y520000D02*
D03*
X720000D02*
D03*
X680000Y580000D02*
D03*
X422500Y580000D02*
D03*
X362501Y580000D02*
D03*
X337500Y280000D02*
D03*
X400000Y280000D02*
D03*
D23*
X1127250Y310000D02*
D03*
X1112750D02*
D03*
X1027250Y310000D02*
D03*
X1012750D02*
D03*
X917250Y310000D02*
D03*
X902750D02*
D03*
X837250Y360000D02*
D03*
X822750D02*
D03*
X767250Y360000D02*
D03*
X752750D02*
D03*
X687250Y310000D02*
D03*
X672750D02*
D03*
X577250D02*
D03*
X562750D02*
D03*
X477250Y310000D02*
D03*
X462750D02*
D03*
X1127250Y360000D02*
D03*
X1112750D02*
D03*
X1027250Y360000D02*
D03*
X1012750D02*
D03*
X917250Y360000D02*
D03*
X902750D02*
D03*
X837250Y410000D02*
D03*
X822750D02*
D03*
X767250Y410000D02*
D03*
X752750D02*
D03*
X687250Y360000D02*
D03*
X672750D02*
D03*
X577250D02*
D03*
X562750D02*
D03*
X477250Y360000D02*
D03*
X462750D02*
D03*
X1127250Y260000D02*
D03*
X1112750D02*
D03*
X1027250Y260000D02*
D03*
X1012750D02*
D03*
X917250D02*
D03*
X902750D02*
D03*
X837250Y310000D02*
D03*
X822750D02*
D03*
X767250Y310000D02*
D03*
X752750D02*
D03*
X687250Y260000D02*
D03*
X672750D02*
D03*
X577250Y260000D02*
D03*
X562750D02*
D03*
X477250Y260000D02*
D03*
X462750D02*
D03*
X507250Y580000D02*
D03*
X492750D02*
D03*
X1077250Y580000D02*
D03*
X1062750D02*
D03*
X1007250D02*
D03*
X992750D02*
D03*
X587250D02*
D03*
X572750D02*
D03*
X1195250Y280000D02*
D03*
X1209750D02*
D03*
X1252750D02*
D03*
X1267250D02*
D03*
X1207250Y580000D02*
D03*
X1192750D02*
D03*
X1147250D02*
D03*
X1132750D02*
D03*
X917250Y580000D02*
D03*
X902750D02*
D03*
X877250Y520000D02*
D03*
X862750D02*
D03*
X727250Y520000D02*
D03*
X712750D02*
D03*
X687250Y580000D02*
D03*
X672750D02*
D03*
X429750Y580000D02*
D03*
X415250D02*
D03*
X369750Y579999D02*
D03*
X355250D02*
D03*
X330250Y280000D02*
D03*
X344750D02*
D03*
X392750Y280000D02*
D03*
X407250D02*
D03*
D24*
X950250Y158500D02*
D03*
X956750D02*
D03*
X963250D02*
D03*
X969750D02*
D03*
X950250Y201500D02*
D03*
X956750D02*
D03*
X963250D02*
D03*
X969750D02*
D03*
D25*
X1000000Y172730D02*
D03*
Y187270D02*
D03*
X880000Y207270D02*
D03*
Y192730D02*
D03*
X690000Y172730D02*
D03*
Y187270D02*
D03*
D26*
X910000Y180000D02*
D03*
D27*
X917500Y194500D02*
D03*
X912500D02*
D03*
X907500D02*
D03*
X902500D02*
D03*
X917500Y165500D02*
D03*
X912500D02*
D03*
X907500D02*
D03*
X902500D02*
D03*
D28*
X1295730Y210000D02*
D03*
X1324270D02*
D03*
X1334270Y180000D02*
D03*
X1305730D02*
D03*
D29*
X729500Y200000D02*
D03*
X723000D02*
D03*
X716500D02*
D03*
X710000D02*
D03*
X729500Y158000D02*
D03*
X723000D02*
D03*
X716500D02*
D03*
X710000D02*
D03*
D30*
X1200000Y370000D02*
D03*
X400000D02*
D03*
D31*
X1186000D02*
D03*
X1214000D02*
D03*
X386000D02*
D03*
X414000D02*
D03*
D32*
X1236450Y28500D02*
D03*
X1423550D02*
D03*
X106450D02*
D03*
X293550D02*
D03*
X336450Y26800D02*
D03*
X463550D02*
D03*
D33*
X1397500Y80400D02*
D03*
X1382500D02*
D03*
X1367500D02*
D03*
X1352500D02*
D03*
X1337500D02*
D03*
X1322500D02*
D03*
X1307500D02*
D03*
X1292500D02*
D03*
X1277500D02*
D03*
X1262500D02*
D03*
X267500D02*
D03*
X252500D02*
D03*
X237500D02*
D03*
X222500D02*
D03*
X207500D02*
D03*
X192500D02*
D03*
X177500D02*
D03*
X162500D02*
D03*
X147500D02*
D03*
X132500D02*
D03*
X437500Y78700D02*
D03*
X422500D02*
D03*
X407500D02*
D03*
X392500D02*
D03*
X377500D02*
D03*
X362500D02*
D03*
D34*
X1218750Y370000D02*
D03*
X1181250D02*
D03*
X418750D02*
D03*
X381250D02*
D03*
M02*
