<svg width="85.00000018mm" height="85.00000018mm" viewBox="0 0 33464567 33464567"  version="1.1" xmlns="http://www.w3.org/2000/svg" xmlns:xlink="http://www.w3.org/1999/xlink">
<desc>
Origin 11811024 10629921 Bound 11811024 10629921 33464567 33464567
</desc>
<g fill-rule="evenodd" fill="rgb(188, 142, 0)" stroke="black" stroke-width="1" transform="translate(0, 33464567) scale(1, -1) translate(-11811024, -10629921)">
<path id="N" d="M 36551171.01 26803129.86 m -297844.08 0 a 297844.08 297844.08 0 1 1 595688.15 0a 297844.08 297844.08 0 1 1 -595688.15 0M 36551180.24 26803148.93 m -204721.07 0 a 204721.07 204721.07 0 1 1 409442.13 0a 204721.07 204721.07 0 1 1 -409442.13 0"/>
<path id="N" d="M 37361022.47 22479919.47 m -100354.75 0 a 100354.75 100354.75 0 1 1 200709.51 0a 100354.75 100354.75 0 1 1 -200709.51 0"/>
<path id="N" d="M 35911022.47 34879919.47 m -100354.75 0 a 100354.75 100354.75 0 1 1 200709.51 0a 100354.75 100354.75 0 1 1 -200709.51 0"/>
<path id="N" d="M 23635432.47 42336219.47 m -100354.75 0 a 100354.75 100354.75 0 1 1 200709.51 0a 100354.75 100354.75 0 1 1 -200709.51 0"/>
<path id="N" d="M 18135432.47 39536219.47 m -100354.75 0 a 100354.75 100354.75 0 1 1 200709.51 0a 100354.75 100354.75 0 1 1 -200709.51 0"/>
<path id="N" d="M 38976376.47 39763777.47 m -100354.75 0 a 100354.75 100354.75 0 1 1 200709.51 0a 100354.75 100354.75 0 1 1 -200709.51 0"/>
<path id="N" d="M 37611022.47 41029919.47 m -100354.75 0 a 100354.75 100354.75 0 1 1 200709.51 0a 100354.75 100354.75 0 1 1 -200709.51 0"/>
<path id="N" d="M 45071678.00 42977436.63 L 45071678.00 39294429.74 L 45021677.50 39275416.62 L 44960544.00 39300739.00 L 44936023.98 39303967.22 L 44936023.99 39201829.04 L 44957315.00 39197594.00 A 180634.12 180634.12 0 0 0 44957315.00 38863822.00 L 44936024.01 38859586.96 L 44936024.02 38757448.79 L 44960544.00 38760677.00 L 45021677.50 38785999.38 L 45071678.00 38766986.26 L 45071678.00 35892855.74 L 45021677.50 35873842.62 L 44960544.00 35899165.00 L 44936023.98 35902393.22 L 44936023.99 35800255.04 L 44957315.00 35796020.00 A 180634.12 180634.12 0 0 0 44957315.00 35462248.00 L 44936024.01 35458012.96 L 44936024.02 35355874.79 L 44960544.00 35359103.00 L 45021677.50 35384425.38 L 45071678.00 35365412.26 L 45071678.00 11746971.94 A 979314.46 979314.46 0 0 0 44158534.69 10833834.00 L 12928079.40 10833834.00 A 979247.74 979247.74 0 0 0 12014937.00 11746976.31 L 12014937.00 42977431.60 A 979247.74 979247.74 0 0 0 12928074.37 43890575.00 L 31364190.00 43890575.00 L 31364190.00 42120866.00 L 31383212.00 42074944.00 L 31429134.00 42055922.00 L 37492126.00 42055922.00 L 37538048.00 42074944.00 L 37557070.00 42120866.00 L 37557070.00 43890575.00 L 44158539.06 43890575.00 A 979257.73 979257.73 0 0 0 45071678.00 42977436.63  zM 14468504.00 13287395.52 m -772385.62 0 a 772385.62 772385.62 0 1 1 1544771.25 0a 772385.62 772385.62 0 1 1 -1544771.25 0M 18135433.00 13945669.02 m -161528.77 0 a 161528.77 161528.77 0 1 1 323057.53 0a 161528.77 161528.77 0 1 1 -323057.53 0M 18135433.00 16445669.02 m -161528.77 0 a 161528.77 161528.77 0 1 1 323057.53 0a 161528.77 161528.77 0 1 1 -323057.53 0M 21486662.00 17434342.00 L 21483753.43 17427319.92 L 21429633.57 17427319.92 L 21426725.00 17434342.00 A 200702.40 200702.40 0 0 1 21092961.00 17434342.00 L 21090052.43 17427319.92 L 21035932.57 17427319.92 L 21033024.00 17434342.00 A 200702.40 200702.40 0 0 1 20699260.00 17434342.00 L 20696351.43 17427319.92 L 20642231.57 17427319.92 L 20639323.00 17434342.00 A 200702.40 200702.40 0 0 1 20305559.00 17434342.00 L 20300591.23 17422348.44 L 20250590.77 17422348.44 L 20245623.00 17434342.00 A 200702.40 200702.40 0 1 1 19967234.00 17155953.00 L 19974256.08 17153044.43 L 19974256.08 17098924.57 L 19967234.00 17096016.00 A 200702.40 200702.40 0 0 1 19967234.00 16762252.00 L 19974255.58 16759343.64 L 19974255.58 16705223.77 L 19967233.00 16702315.00 A 200702.40 200702.40 0 1 1 20245622.00 16423926.00 L 20248530.57 16430948.08 L 20302650.43 16430948.08 L 20305559.00 16423926.00 A 200702.40 200702.40 0 0 1 20639323.00 16423926.00 L 20642231.57 16430948.08 L 20696351.43 16430948.08 L 20699260.00 16423926.00 A 200702.40 200702.40 0 1 1 20977649.00 16702315.00 L 20970626.92 16705223.57 L 20970626.92 16759343.43 L 20977649.00 16762252.00 L 21033024.00 16817627.00 L 21035932.57 16824649.08 L 21090052.43 16824649.08 L 21092961.00 16817627.00 A 200702.40 200702.40 0 0 1 21426725.00 16817627.00 L 21429633.57 16824649.08 L 21483753.43 16824649.08 L 21486662.00 16817627.00 L 21542037.00 16762252.00 L 21549059.08 16759343.43 L 21549059.08 16705223.57 L 21542037.00 16702315.00 A 200702.40 200702.40 0 1 1 21765051.00 16702315.00 L 21758028.92 16705223.57 L 21758028.92 16759343.43 L 21765051.00 16762252.00 A 200702.40 200702.40 0 0 1 21765051.00 17096016.00 L 21758028.92 17098924.57 L 21758028.92 17153044.43 L 21765051.00 17155953.00 A 200702.40 200702.40 0 1 1 21486662.00 17434342.00  zM 23635433.00 13945664.03 m -200711.42 0 a 200711.42 200711.42 0 1 1 401422.84 0a 200711.42 200711.42 0 1 1 -401422.84 0M 23635433.00 16745669.02 m -161528.77 0 a 161528.77 161528.77 0 1 1 323057.53 0a 161528.77 161528.77 0 1 1 -323057.53 0M 22135433.00 17445664.03 m -200711.42 0 a 200711.42 200711.42 0 1 1 401422.84 0a 200711.42 200711.42 0 1 1 -401422.84 0M 24668337.00 13910723.02 m -161528.77 0 a 161528.77 161528.77 0 1 1 323057.53 0a 161528.77 161528.77 0 1 1 -323057.53 0M 29360677.00 16253239.00 L 29357768.43 16246216.92 L 29303648.57 16246216.92 L 29300740.00 16253239.00 A 200702.40 200702.40 0 0 1 28966976.00 16253239.00 L 28964067.43 16246216.92 L 28909947.57 16246216.92 L 28907039.00 16253239.00 A 200702.40 200702.40 0 1 1 28628650.00 15974850.00 L 28635672.08 15971941.43 L 28635672.08 15917821.57 L 28628650.00 15914913.00 A 200702.40 200702.40 0 0 1 28628650.00 15581149.00 L 28635672.08 15578240.43 L 28635672.08 15524120.57 L 28628650.00 15521212.00 A 200702.40 200702.40 0 0 1 28628650.00 15187448.00 L 28635672.08 15184539.43 L 28635672.08 15130419.57 L 28628650.00 15127511.00 A 200702.40 200702.40 0 0 1 28628650.00 14793747.00 L 28640643.56 14788779.23 L 28640643.56 14738778.77 L 28628650.00 14733811.00 A 200702.40 200702.40 0 1 1 28907039.00 14455422.00 L 28909947.57 14462444.08 L 28964067.43 14462444.08 L 28966976.00 14455422.00 A 200702.40 200702.40 0 0 1 29300740.00 14455422.00 L 29303648.36 14462443.58 L 29357768.23 14462443.58 L 29360677.00 14455421.00 A 200702.40 200702.40 0 1 1 29639066.00 14733810.00 L 29632043.92 14736718.57 L 29632043.92 14790838.43 L 29639066.00 14793747.00 A 200702.40 200702.40 0 0 1 29639066.00 15127511.00 L 29632043.92 15130419.57 L 29632043.92 15184539.43 L 29639066.00 15187448.00 A 200702.40 200702.40 0 1 1 29360677.00 15465837.00 L 29357768.43 15458814.92 L 29303648.57 15458814.92 L 29300740.00 15465837.00 L 29245365.00 15521212.00 L 29238342.92 15524120.57 L 29238342.92 15578240.43 L 29245365.00 15581149.00 A 200702.40 200702.40 0 0 1 29245365.00 15914913.00 L 29238342.92 15917821.57 L 29238342.92 15971941.43 L 29245365.00 15974850.00 L 29300740.00 16030225.00 L 29303648.57 16037247.08 L 29357768.43 16037247.08 L 29360677.00 16030225.00 A 200702.40 200702.40 0 1 1 29360677.00 16253239.00  zM 29617324.00 12604724.02 m -161528.77 0 a 161528.77 161528.77 0 1 1 323057.53 0a 161528.77 161528.77 0 1 1 -323057.53 0M 24735433.00 16845669.02 m -161528.77 0 a 161528.77 161528.77 0 1 1 323057.53 0a 161528.77 161528.77 0 1 1 -323057.53 0M 28617324.00 16604719.03 m -200711.42 0 a 200711.42 200711.42 0 1 1 401422.84 0a 200711.42 200711.42 0 1 1 -401422.84 0M 29317324.00 18104724.02 m -161528.77 0 a 161528.77 161528.77 0 1 1 323057.53 0a 161528.77 161528.77 0 1 1 -323057.53 0M 18135434.00 19063780.02 m -161528.77 0 a 161528.77 161528.77 0 1 1 323057.53 0a 161528.77 161528.77 0 1 1 -323057.53 0M 18135434.00 21563780.02 m -161528.77 0 a 161528.77 161528.77 0 1 1 323057.53 0a 161528.77 161528.77 0 1 1 -323057.53 0M 18135434.00 24181891.02 m -161528.77 0 a 161528.77 161528.77 0 1 1 323057.53 0a 161528.77 161528.77 0 1 1 -323057.53 0M 21486662.00 22552452.00 L 21483753.43 22545429.92 L 21429633.57 22545429.92 L 21426725.00 22552452.00 A 200702.40 200702.40 0 0 1 21092961.00 22552452.00 L 21090052.43 22545429.92 L 21035932.57 22545429.92 L 21033024.00 22552452.00 A 200702.40 200702.40 0 0 1 20699260.00 22552452.00 L 20696351.43 22545429.92 L 20642231.57 22545429.92 L 20639323.00 22552452.00 A 200702.40 200702.40 0 0 1 20305559.00 22552452.00 L 20300591.23 22540458.44 L 20250590.77 22540458.44 L 20245623.00 22552452.00 A 200702.40 200702.40 0 1 1 19967234.00 22274063.00 L 19974256.08 22271154.43 L 19974256.08 22217034.57 L 19967234.00 22214126.00 A 200702.40 200702.40 0 0 1 19967234.00 21880362.00 L 19974255.58 21877453.64 L 19974255.58 21823333.77 L 19967233.00 21820425.00 A 200702.40 200702.40 0 1 1 20245622.00 21542036.00 L 20248530.57 21549058.08 L 20302650.43 21549058.08 L 20305559.00 21542036.00 A 200702.40 200702.40 0 0 1 20639323.00 21542036.00 L 20642231.57 21549058.08 L 20696351.43 21549058.08 L 20699260.00 21542036.00 A 200702.40 200702.40 0 1 1 20977649.00 21820425.00 L 20970626.92 21823333.57 L 20970626.92 21877453.43 L 20977649.00 21880362.00 L 21033024.00 21935737.00 L 21035932.57 21942759.08 L 21090052.43 21942759.08 L 21092961.00 21935737.00 A 200702.40 200702.40 0 0 1 21426725.00 21935737.00 L 21429633.57 21942759.08 L 21483753.43 21942759.08 L 21486662.00 21935737.00 L 21542037.00 21880362.00 L 21549059.08 21877453.43 L 21549059.08 21823333.57 L 21542037.00 21820425.00 A 200702.40 200702.40 0 1 1 21765051.00 21820425.00 L 21758028.92 21823333.57 L 21758028.92 21877453.43 L 21765051.00 21880362.00 A 200702.40 200702.40 0 0 1 21765051.00 22214126.00 L 21758028.92 22217034.57 L 21758028.92 22271154.43 L 21765051.00 22274063.00 A 200702.40 200702.40 0 1 1 21486662.00 22552452.00  zM 22135434.00 22563775.03 m -200711.42 0 a 200711.42 200711.42 0 1 1 401422.84 0a 200711.42 200711.42 0 1 1 -401422.84 0M 23635434.00 21863780.02 m -161528.77 0 a 161528.77 161528.77 0 1 1 323057.53 0a 161528.77 161528.77 0 1 1 -323057.53 0M 23633345.00 24183071.03 m -200711.42 0 a 200711.42 200711.42 0 1 1 401422.84 0a 200711.42 200711.42 0 1 1 -401422.84 0M 23635434.00 19063775.03 m -200711.42 0 a 200711.42 200711.42 0 1 1 401422.84 0a 200711.42 200711.42 0 1 1 -401422.84 0M 24653413.00 19027702.02 m -161528.77 0 a 161528.77 161528.77 0 1 1 323057.53 0a 161528.77 161528.77 0 1 1 -323057.53 0M 24653413.00 24145813.02 m -161528.77 0 a 161528.77 161528.77 0 1 1 323057.53 0a 161528.77 161528.77 0 1 1 -323057.53 0M 24735434.00 21963780.02 m -161528.77 0 a 161528.77 161528.77 0 1 1 323057.53 0a 161528.77 161528.77 0 1 1 -323057.53 0M 29217324.00 19204724.02 m -161528.77 0 a 161528.77 161528.77 0 1 1 323057.53 0a 161528.77 161528.77 0 1 1 -323057.53 0M 29921260.00 24409444.03 m -200711.42 0 a 200711.42 200711.42 0 1 1 401422.84 0a 200711.42 200711.42 0 1 1 -401422.84 0M 18135434.00 26681891.02 m -161528.77 0 a 161528.77 161528.77 0 1 1 323057.53 0a 161528.77 161528.77 0 1 1 -323057.53 0M 18135434.00 29300001.02 m -161528.77 0 a 161528.77 161528.77 0 1 1 323057.53 0a 161528.77 161528.77 0 1 1 -323057.53 0M 21486662.00 27670562.00 L 21483753.43 27663539.92 L 21429633.57 27663539.92 L 21426725.00 27670562.00 A 200702.40 200702.40 0 0 1 21092961.00 27670562.00 L 21090052.43 27663539.92 L 21035932.57 27663539.92 L 21033024.00 27670562.00 A 200702.40 200702.40 0 0 1 20699260.00 27670562.00 L 20696351.43 27663539.92 L 20642231.57 27663539.92 L 20639323.00 27670562.00 A 200702.40 200702.40 0 0 1 20305559.00 27670562.00 L 20300591.23 27658568.44 L 20250590.77 27658568.44 L 20245623.00 27670562.00 A 200702.40 200702.40 0 1 1 19967234.00 27392173.00 L 19974256.08 27389264.43 L 19974256.08 27335144.57 L 19967234.00 27332236.00 A 200702.40 200702.40 0 0 1 19967234.00 26998472.00 L 19974255.58 26995563.64 L 19974255.58 26941443.77 L 19967233.00 26938535.00 A 200702.40 200702.40 0 1 1 20245622.00 26660146.00 L 20248530.57 26667168.08 L 20302650.43 26667168.08 L 20305559.00 26660146.00 A 200702.40 200702.40 0 0 1 20639323.00 26660146.00 L 20642231.57 26667168.08 L 20696351.43 26667168.08 L 20699260.00 26660146.00 A 200702.40 200702.40 0 1 1 20977649.00 26938535.00 L 20970626.92 26941443.57 L 20970626.92 26995563.43 L 20977649.00 26998472.00 L 21033024.00 27053847.00 L 21035932.57 27060869.08 L 21090052.43 27060869.08 L 21092961.00 27053847.00 A 200702.40 200702.40 0 0 1 21426725.00 27053847.00 L 21429633.57 27060869.08 L 21483753.43 27060869.08 L 21486662.00 27053847.00 L 21542037.00 26998472.00 L 21549059.08 26995563.43 L 21549059.08 26941443.57 L 21542037.00 26938535.00 A 200702.40 200702.40 0 1 1 21765051.00 26938535.00 L 21758028.92 26941443.57 L 21758028.92 26995563.43 L 21765051.00 26998472.00 A 200702.40 200702.40 0 0 1 21765051.00 27332236.00 L 21758028.92 27335144.57 L 21758028.92 27389264.43 L 21765051.00 27392173.00 A 200702.40 200702.40 0 1 1 21486662.00 27670562.00  zM 22135434.00 27681886.03 m -200711.42 0 a 200711.42 200711.42 0 1 1 401422.84 0a 200711.42 200711.42 0 1 1 -401422.84 0M 23635434.00 26981891.02 m -161528.77 0 a 161528.77 161528.77 0 1 1 323057.53 0a 161528.77 161528.77 0 1 1 -323057.53 0M 24653413.00 29263923.02 m -161528.77 0 a 161528.77 161528.77 0 1 1 323057.53 0a 161528.77 161528.77 0 1 1 -323057.53 0M 23635434.00 29299996.03 m -200711.42 0 a 200711.42 200711.42 0 1 1 401422.84 0a 200711.42 200711.42 0 1 1 -401422.84 0M 27559449.00 24409444.03 m -200711.42 0 a 200711.42 200711.42 0 1 1 401422.84 0a 200711.42 200711.42 0 1 1 -401422.84 0M 27559449.00 25196845.03 m -200711.42 0 a 200711.42 200711.42 0 1 1 401422.84 0a 200711.42 200711.42 0 1 1 -401422.84 0M 27559449.00 25984247.03 m -200711.42 0 a 200711.42 200711.42 0 1 1 401422.84 0a 200711.42 200711.42 0 1 1 -401422.84 0M 24735434.00 27081891.02 m -161528.77 0 a 161528.77 161528.77 0 1 1 323057.53 0a 161528.77 161528.77 0 1 1 -323057.53 0M 27559449.00 27559050.03 m -200711.42 0 a 200711.42 200711.42 0 1 1 401422.84 0a 200711.42 200711.42 0 1 1 -401422.84 0M 27559449.00 29133853.03 m -200711.42 0 a 200711.42 200711.42 0 1 1 401422.84 0a 200711.42 200711.42 0 1 1 -401422.84 0M 28346457.00 24409444.03 m -200711.42 0 a 200711.42 200711.42 0 1 1 401422.84 0a 200711.42 200711.42 0 1 1 -401422.84 0M 28346457.00 25196845.03 m -200711.42 0 a 200711.42 200711.42 0 1 1 401422.84 0a 200711.42 200711.42 0 1 1 -401422.84 0M 28346457.00 25984247.03 m -200711.42 0 a 200711.42 200711.42 0 1 1 401422.84 0a 200711.42 200711.42 0 1 1 -401422.84 0M 28346457.00 26771648.03 m -200711.42 0 a 200711.42 200711.42 0 1 1 401422.84 0a 200711.42 200711.42 0 1 1 -401422.84 0M 27559449.00 26771648.03 m -200711.42 0 a 200711.42 200711.42 0 1 1 401422.84 0a 200711.42 200711.42 0 1 1 -401422.84 0M 28346457.00 27559050.03 m -200711.42 0 a 200711.42 200711.42 0 1 1 401422.84 0a 200711.42 200711.42 0 1 1 -401422.84 0M 29921260.00 26771648.03 m -200711.42 0 a 200711.42 200711.42 0 1 1 401422.84 0a 200711.42 200711.42 0 1 1 -401422.84 0M 27559449.00 28346451.03 m -200711.42 0 a 200711.42 200711.42 0 1 1 401422.84 0a 200711.42 200711.42 0 1 1 -401422.84 0M 28346457.00 29133853.03 m -200711.42 0 a 200711.42 200711.42 0 1 1 401422.84 0a 200711.42 200711.42 0 1 1 -401422.84 0M 28346457.00 29921255.03 m -200711.42 0 a 200711.42 200711.42 0 1 1 401422.84 0a 200711.42 200711.42 0 1 1 -401422.84 0M 28346457.00 28346451.03 m -200711.42 0 a 200711.42 200711.42 0 1 1 401422.84 0a 200711.42 200711.42 0 1 1 -401422.84 0M 29921260.00 29133853.03 m -200711.42 0 a 200711.42 200711.42 0 1 1 401422.84 0a 200711.42 200711.42 0 1 1 -401422.84 0M 29921260.00 28346451.03 m -200711.42 0 a 200711.42 200711.42 0 1 1 401422.84 0a 200711.42 200711.42 0 1 1 -401422.84 0M 32117324.00 12604724.02 m -161528.77 0 a 161528.77 161528.77 0 1 1 323057.53 0a 161528.77 161528.77 0 1 1 -323057.53 0M 34735434.00 12623622.02 m -161528.77 0 a 161528.77 161528.77 0 1 1 323057.53 0a 161528.77 161528.77 0 1 1 -323057.53 0M 34478787.00 16253239.00 L 34475878.43 16246216.92 L 34421758.57 16246216.92 L 34418850.00 16253239.00 A 200702.40 200702.40 0 0 1 34085086.00 16253239.00 L 34082177.43 16246216.92 L 34028057.57 16246216.92 L 34025149.00 16253239.00 A 200702.40 200702.40 0 1 1 33746760.00 15974850.00 L 33753782.08 15971941.43 L 33753782.08 15917821.57 L 33746760.00 15914913.00 A 200702.40 200702.40 0 0 1 33746760.00 15581149.00 L 33753782.08 15578240.43 L 33753782.08 15524120.57 L 33746760.00 15521212.00 A 200702.40 200702.40 0 0 1 33746760.00 15187448.00 L 33753782.08 15184539.43 L 33753782.08 15130419.57 L 33746760.00 15127511.00 A 200702.40 200702.40 0 0 1 33746760.00 14793747.00 L 33758753.56 14788779.23 L 33758753.56 14738778.77 L 33746760.00 14733811.00 A 200702.40 200702.40 0 1 1 34025149.00 14455422.00 L 34028057.57 14462444.08 L 34082177.43 14462444.08 L 34085086.00 14455422.00 A 200702.40 200702.40 0 0 1 34418850.00 14455422.00 L 34421758.36 14462443.58 L 34475878.23 14462443.58 L 34478787.00 14455421.00 A 200702.40 200702.40 0 1 1 34757176.00 14733810.00 L 34750153.92 14736718.57 L 34750153.92 14790838.43 L 34757176.00 14793747.00 A 200702.40 200702.40 0 0 1 34757176.00 15127511.00 L 34750153.92 15130419.57 L 34750153.92 15184539.43 L 34757176.00 15187448.00 A 200702.40 200702.40 0 1 1 34478787.00 15465837.00 L 34475878.43 15458814.92 L 34421758.57 15458814.92 L 34418850.00 15465837.00 L 34363475.00 15521212.00 L 34356452.92 15524120.57 L 34356452.92 15578240.43 L 34363475.00 15581149.00 A 200702.40 200702.40 0 0 1 34363475.00 15914913.00 L 34356452.92 15917821.57 L 34356452.92 15971941.43 L 34363475.00 15974850.00 L 34418850.00 16030225.00 L 34421758.57 16037247.08 L 34475878.43 16037247.08 L 34478787.00 16030225.00 A 200702.40 200702.40 0 1 1 34478787.00 16253239.00  zM 33735434.00 16623617.03 m -200711.42 0 a 200711.42 200711.42 0 1 1 401422.84 0a 200711.42 200711.42 0 1 1 -401422.84 0M 32117324.00 18104719.03 m -200711.42 0 a 200711.42 200711.42 0 1 1 401422.84 0a 200711.42 200711.42 0 1 1 -401422.84 0M 32153401.00 19122703.02 m -161528.77 0 a 161528.77 161528.77 0 1 1 323057.53 0a 161528.77 161528.77 0 1 1 -323057.53 0M 34435434.00 18123622.02 m -161528.77 0 a 161528.77 161528.77 0 1 1 323057.53 0a 161528.77 161528.77 0 1 1 -323057.53 0M 37235434.00 12623622.02 m -161528.77 0 a 161528.77 161528.77 0 1 1 323057.53 0a 161528.77 161528.77 0 1 1 -323057.53 0M 38811024.00 11329921.02 m -161528.77 0 a 161528.77 161528.77 0 1 1 323057.53 0a 161528.77 161528.77 0 1 1 -323057.53 0M 41495473.00 16168416.81 L 41469307.00 16153310.00 L 41393147.00 16077150.00 L 41378040.19 16050984.00 L 41495473.00 16050984.00 L 41495473.00 16168416.81  zM 40187449.00 19599696.00 L 40184540.43 19592673.92 L 40130420.57 19592673.92 L 40127512.00 19599696.00 A 200702.40 200702.40 0 0 1 39793748.00 19599696.00 L 39788780.23 19587702.44 L 39738779.77 19587702.44 L 39733812.00 19599696.00 A 200702.40 200702.40 0 0 1 39400048.00 19599696.00 L 39397139.43 19592673.92 L 39343019.57 19592673.92 L 39340111.00 19599696.00 A 200702.40 200702.40 0 1 1 39061722.00 19321307.00 L 39068744.08 19318398.43 L 39068744.08 19264278.57 L 39061722.00 19261370.00 A 200702.40 200702.40 0 0 1 39061722.00 18927606.00 L 39068744.08 18924697.43 L 39068744.08 18870577.57 L 39061722.00 18867669.00 A 200702.40 200702.40 0 0 1 39061722.00 18533905.00 L 39068744.08 18530996.43 L 39068744.08 18476876.57 L 39061722.00 18473968.00 A 200702.40 200702.40 0 0 1 39061722.00 18140204.00 L 39073715.56 18135236.23 L 39073715.56 18085235.77 L 39061722.00 18080268.00 A 200702.40 200702.40 0 0 1 39061722.00 17746504.00 L 39068744.08 17743595.43 L 39068744.08 17689475.57 L 39061722.00 17686567.00 A 200702.40 200702.40 0 0 1 39061722.00 17352803.00 L 39068744.08 17349894.43 L 39068744.08 17295774.57 L 39061722.00 17292866.00 A 200702.40 200702.40 0 0 1 39061722.00 16959102.00 L 39073715.56 16954134.23 L 39073715.56 16904133.77 L 39061722.00 16899166.00 A 200702.40 200702.40 0 0 1 39061722.00 16565402.00 L 39068744.08 16562493.43 L 39068744.08 16508373.57 L 39061722.00 16505465.00 A 200702.40 200702.40 0 0 1 39061722.00 16171701.00 L 39068744.08 16168792.43 L 39068744.08 16114672.57 L 39061722.00 16111764.00 A 200702.40 200702.40 0 0 1 39061722.00 15778000.00 L 39068744.08 15775091.43 L 39068744.08 15720971.57 L 39061722.00 15718063.00 A 200702.40 200702.40 0 0 1 39061722.00 15384299.00 L 39073715.56 15379331.23 L 39073715.56 15329330.77 L 39061722.00 15324363.00 A 200702.40 200702.40 0 0 1 39061722.00 14990599.00 L 39068744.08 14987690.43 L 39068744.08 14933570.57 L 39061722.00 14930662.00 A 200702.40 200702.40 0 1 1 39340111.00 14652273.00 L 39343019.57 14659295.08 L 39397139.43 14659295.08 L 39400048.00 14652273.00 A 200702.40 200702.40 0 0 1 39733812.00 14652273.00 L 39738779.77 14664266.56 L 39788780.23 14664266.56 L 39793748.00 14652273.00 A 200702.40 200702.40 0 1 1 40072137.00 14930662.00 L 40065114.92 14933570.57 L 40065114.92 14987690.43 L 40072137.00 14990599.00 A 200702.40 200702.40 0 0 1 40072137.00 15324363.00 L 40060143.44 15329330.77 L 40060143.44 15379331.23 L 40072137.00 15384299.00 A 200702.40 200702.40 0 0 1 40072137.00 15718063.00 L 40065114.92 15720971.57 L 40065114.92 15775091.43 L 40072137.00 15778000.00 A 200702.40 200702.40 0 1 1 39793748.00 16056389.00 L 39788780.23 16044395.44 L 39738779.77 16044395.44 L 39733812.00 16056389.00 L 39678437.00 16111764.00 L 39671414.92 16114672.57 L 39671414.92 16168792.43 L 39678437.00 16171701.00 A 200702.40 200702.40 0 0 1 39678437.00 16505465.00 L 39671414.92 16508373.57 L 39671414.92 16562493.43 L 39678437.00 16565402.00 A 200702.40 200702.40 0 0 1 39678437.00 16899166.00 L 39666443.44 16904133.77 L 39666443.44 16954134.23 L 39678437.00 16959102.00 A 200702.40 200702.40 0 0 1 39678437.00 17292866.00 L 39671414.92 17295774.57 L 39671414.92 17349894.43 L 39678437.00 17352803.00 A 200702.40 200702.40 0 0 1 39678437.00 17686567.00 L 39671414.92 17689475.57 L 39671414.92 17743595.43 L 39678437.00 17746504.00 L 39733812.00 17801879.00 L 39738779.77 17813872.56 L 39788780.23 17813872.56 L 39793748.00 17801879.00 A 200702.40 200702.40 0 0 1 40127512.00 17801879.00 L 40130420.57 17808901.08 L 40184540.43 17808901.08 L 40187449.00 17801879.00 A 200702.40 200702.40 0 1 1 40465838.00 18080268.00 L 40453844.44 18085235.77 L 40453844.44 18135236.23 L 40465838.00 18140204.00 A 200702.40 200702.40 0 0 1 40465838.00 18473968.00 L 40458815.92 18476876.57 L 40458815.92 18530996.43 L 40465838.00 18533905.00 A 200702.40 200702.40 0 0 1 40465838.00 18867669.00 L 40458815.92 18870577.57 L 40458815.92 18924697.43 L 40465838.00 18927606.00 A 200702.40 200702.40 0 0 1 40465838.00 19261370.00 L 40458815.92 19264278.57 L 40458815.92 19318398.43 L 40465838.00 19321307.00 A 200702.40 200702.40 0 1 1 40187449.00 19599696.00  zM 40539370.00 17377161.86 m -263040.40 0 a 263040.40 263040.40 0 1 1 526080.80 0a 263040.40 263040.40 0 1 1 -526080.80 0M 37235434.00 18123617.03 m -200711.42 0 a 200711.42 200711.42 0 1 1 401422.84 0a 200711.42 200711.42 0 1 1 -401422.84 0M 42618111.00 13287395.52 m -772385.62 0 a 772385.62 772385.62 0 1 1 1544771.25 0a 772385.62 772385.62 0 1 1 -1544771.25 0M 42062905.81 15600984.00 L 41945473.00 15600984.00 L 41945473.00 15483551.19 L 41971639.00 15498658.00 L 42047799.00 15574818.00 L 42062905.81 15600984.00  zM 41495473.00 15600984.00 L 41378040.19 15600984.00 L 41393147.00 15574818.00 L 41469307.00 15498658.00 L 41495473.00 15483551.19 L 41495473.00 15600984.00  zM 43309055.00 16233464.00 L 42494095.00 16233464.00 L 42494095.00 15418504.00 L 43309055.00 15418504.00 L 43309055.00 16233464.00  zM 41720472.24 15825983.93 m -204721.07 0 a 204721.07 204721.07 0 1 1 409442.13 0a 204721.07 204721.07 0 1 1 -409442.13 0M 41945473.00 16168416.81 L 41945473.00 16050984.00 L 42062905.81 16050984.00 L 42047799.00 16077150.00 L 41971639.00 16153310.00 L 41945473.00 16168416.81  zM 41495473.00 16782086.00 L 41378040.19 16782086.00 L 41393147.00 16755920.00 L 41469307.00 16679760.00 L 41495473.00 16664653.19 L 41495473.00 16782086.00  zM 41495473.00 17349518.81 L 41469307.00 17334412.00 L 41393147.00 17258252.00 L 41378040.19 17232086.00 L 41495473.00 17232086.00 L 41495473.00 17349518.81  zM 41720472.24 17007085.93 m -204721.07 0 a 204721.07 204721.07 0 1 1 409442.13 0a 204721.07 204721.07 0 1 1 -409442.13 0M 41945473.00 17349518.81 L 41945473.00 17232086.00 L 42062905.81 17232086.00 L 42047799.00 17258252.00 L 41971639.00 17334412.00 L 41945473.00 17349518.81  zM 42062905.81 16782086.00 L 41945473.00 16782086.00 L 41945473.00 16664653.19 L 41971639.00 16679760.00 L 42047799.00 16755920.00 L 42062905.81 16782086.00  zM 42901575.00 17007087.57 m -410994.60 0 a 410994.60 410994.60 0 1 1 821989.21 0a 410994.60 410994.60 0 1 1 -821989.21 0M 44082678.00 17377161.86 m -263040.40 0 a 263040.40 263040.40 0 1 1 526080.80 0a 263040.40 263040.40 0 1 1 -526080.80 0M 34335434.00 19223622.02 m -161528.77 0 a 161528.77 161528.77 0 1 1 323057.53 0a 161528.77 161528.77 0 1 1 -323057.53 0M 32900765.00 22195615.00 L 32921032.56 22215882.56 L 32963420.67 22187559.65 L 32952599.00 22161434.00 A 161528.77 161528.77 0 0 1 33200764.22 21995614.68 L 33218742.83 21992038.53 L 33236066.00 21950217.00 A 161528.81 161528.81 0 0 1 33460113.00 21905652.00 L 33479054.15 21924593.15 L 33521641.16 21938519.15 L 33543343.94 21923554.06 L 33571283.00 21895615.00 A 161528.77 161528.77 0 1 1 33571283.00 22164227.00 L 33552341.85 22145285.85 L 33509754.84 22131359.85 L 33488052.06 22146324.94 L 33460113.00 22174264.00 A 161528.77 161528.77 0 0 1 33280631.78 22174264.32 L 33262653.17 22177840.47 L 33245330.00 22219662.00 A 161528.81 161528.81 0 0 1 33021283.00 22264227.00 L 33001015.44 22243959.44 L 32958627.33 22272282.35 L 32969449.00 22298408.00 A 161528.77 161528.77 0 1 1 32900765.00 22195615.00  zM 30708662.00 24409444.03 m -200711.42 0 a 200711.42 200711.42 0 1 1 401422.84 0a 200711.42 200711.42 0 1 1 -401422.84 0M 30708662.00 25196845.03 m -200711.42 0 a 200711.42 200711.42 0 1 1 401422.84 0a 200711.42 200711.42 0 1 1 -401422.84 0M 29921260.00 25196845.03 m -200711.42 0 a 200711.42 200711.42 0 1 1 401422.84 0a 200711.42 200711.42 0 1 1 -401422.84 0M 29921260.00 25984247.03 m -200711.42 0 a 200711.42 200711.42 0 1 1 401422.84 0a 200711.42 200711.42 0 1 1 -401422.84 0M 30708662.00 25984247.03 m -200711.42 0 a 200711.42 200711.42 0 1 1 401422.84 0a 200711.42 200711.42 0 1 1 -401422.84 0M 29921260.00 27559050.03 m -200711.42 0 a 200711.42 200711.42 0 1 1 401422.84 0a 200711.42 200711.42 0 1 1 -401422.84 0M 30708662.00 27559050.03 m -200711.42 0 a 200711.42 200711.42 0 1 1 401422.84 0a 200711.42 200711.42 0 1 1 -401422.84 0M 30708662.00 28346451.03 m -200711.42 0 a 200711.42 200711.42 0 1 1 401422.84 0a 200711.42 200711.42 0 1 1 -401422.84 0M 30708662.00 26771648.03 m -200711.42 0 a 200711.42 200711.42 0 1 1 401422.84 0a 200711.42 200711.42 0 1 1 -401422.84 0M 30708662.00 29133853.03 m -200711.42 0 a 200711.42 200711.42 0 1 1 401422.84 0a 200711.42 200711.42 0 1 1 -401422.84 0M 36551181.00 26803143.96 m -358345.67 0 a 358345.67 358345.67 0 1 1 716691.35 0a 358345.67 358345.67 0 1 1 -716691.35 0M 37271511.00 19141601.02 m -161528.77 0 a 161528.77 161528.77 0 1 1 323057.53 0a 161528.77 161528.77 0 1 1 -323057.53 0M 37361024.00 22479921.02 m -161528.77 0 a 161528.77 161528.77 0 1 1 323057.53 0a 161528.77 161528.77 0 1 1 -323057.53 0M 36551181.00 23803143.96 m -358345.67 0 a 358345.67 358345.67 0 1 1 716691.35 0a 358345.67 358345.67 0 1 1 -716691.35 0M 38061024.00 22529921.02 m -161528.77 0 a 161528.77 161528.77 0 1 1 323057.53 0a 161528.77 161528.77 0 1 1 -323057.53 0M 38035144.00 24340180.00 L 38063634.95 24311689.05 L 38074393.41 24279921.00 L 38063634.95 24248152.95 L 38035144.00 24219662.00 A 161528.77 161528.77 0 1 1 38303756.00 24219662.00 L 38275265.05 24248152.95 L 38264506.59 24279921.00 L 38275265.05 24311689.05 L 38303756.00 24340180.00 A 161528.77 161528.77 0 1 1 38035144.00 24340180.00  zM 40944882.00 24015748.02 m -161528.77 0 a 161528.77 161528.77 0 1 1 323057.53 0a 161528.77 161528.77 0 1 1 -323057.53 0M 41338583.00 24015748.02 m -161528.77 0 a 161528.77 161528.77 0 1 1 323057.53 0a 161528.77 161528.77 0 1 1 -323057.53 0M 36551181.00 24803143.96 m -358345.67 0 a 358345.67 358345.67 0 1 1 716691.35 0a 358345.67 358345.67 0 1 1 -716691.35 0M 37401575.00 24803152.83 m -308700.21 0 a 308700.21 308700.21 0 1 1 617400.42 0a 308700.21 308700.21 0 1 1 -617400.42 0M 36551181.00 25803143.96 m -358345.67 0 a 358345.67 358345.67 0 1 1 716691.35 0a 358345.67 358345.67 0 1 1 -716691.35 0M 37711024.00 26029921.02 m -161528.77 0 a 161528.77 161528.77 0 1 1 323057.53 0a 161528.77 161528.77 0 1 1 -323057.53 0M 38976378.00 25590551.02 m -161528.77 0 a 161528.77 161528.77 0 1 1 323057.53 0a 161528.77 161528.77 0 1 1 -323057.53 0M 38582504.00 27165180.02 m -161528.77 0 a 161528.77 161528.77 0 1 1 323057.53 0a 161528.77 161528.77 0 1 1 -323057.53 0M 14960630.00 35039370.02 m -161528.77 0 a 161528.77 161528.77 0 1 1 323057.53 0a 161528.77 161528.77 0 1 1 -323057.53 0M 14960630.00 35826771.02 m -161528.77 0 a 161528.77 161528.77 0 1 1 323057.53 0a 161528.77 161528.77 0 1 1 -323057.53 0M 14960630.00 36220472.02 m -161528.77 0 a 161528.77 161528.77 0 1 1 323057.53 0a 161528.77 161528.77 0 1 1 -323057.53 0M 18111024.00 36829921.02 m -161528.77 0 a 161528.77 161528.77 0 1 1 323057.53 0a 161528.77 161528.77 0 1 1 -323057.53 0M 18135434.00 31800001.02 m -161528.77 0 a 161528.77 161528.77 0 1 1 323057.53 0a 161528.77 161528.77 0 1 1 -323057.53 0M 18135434.00 34418111.02 m -161528.77 0 a 161528.77 161528.77 0 1 1 323057.53 0a 161528.77 161528.77 0 1 1 -323057.53 0M 21486662.00 32788673.00 L 21483753.43 32781650.92 L 21429633.57 32781650.92 L 21426725.00 32788673.00 A 200702.40 200702.40 0 0 1 21092961.00 32788673.00 L 21090052.43 32781650.92 L 21035932.57 32781650.92 L 21033024.00 32788673.00 A 200702.40 200702.40 0 0 1 20699260.00 32788673.00 L 20696351.43 32781650.92 L 20642231.57 32781650.92 L 20639323.00 32788673.00 A 200702.40 200702.40 0 0 1 20305559.00 32788673.00 L 20300591.23 32776679.44 L 20250590.77 32776679.44 L 20245623.00 32788673.00 A 200702.40 200702.40 0 1 1 19967234.00 32510284.00 L 19974256.08 32507375.43 L 19974256.08 32453255.57 L 19967234.00 32450347.00 A 200702.40 200702.40 0 0 1 19967234.00 32116583.00 L 19974255.58 32113674.64 L 19974255.58 32059554.77 L 19967233.00 32056646.00 A 200702.40 200702.40 0 1 1 20245622.00 31778257.00 L 20248530.57 31785279.08 L 20302650.43 31785279.08 L 20305559.00 31778257.00 A 200702.40 200702.40 0 0 1 20639323.00 31778257.00 L 20642231.57 31785279.08 L 20696351.43 31785279.08 L 20699260.00 31778257.00 A 200702.40 200702.40 0 1 1 20977649.00 32056646.00 L 20970626.92 32059554.57 L 20970626.92 32113674.43 L 20977649.00 32116583.00 L 21033024.00 32171958.00 L 21035932.57 32178980.08 L 21090052.43 32178980.08 L 21092961.00 32171958.00 A 200702.40 200702.40 0 0 1 21426725.00 32171958.00 L 21429633.57 32178980.08 L 21483753.43 32178980.08 L 21486662.00 32171958.00 L 21542037.00 32116583.00 L 21549059.08 32113674.43 L 21549059.08 32059554.57 L 21542037.00 32056646.00 A 200702.40 200702.40 0 1 1 21765051.00 32056646.00 L 21758028.92 32059554.57 L 21758028.92 32113674.43 L 21765051.00 32116583.00 A 200702.40 200702.40 0 0 1 21765051.00 32450347.00 L 21758028.92 32453255.57 L 21758028.92 32507375.43 L 21765051.00 32510284.00 A 200702.40 200702.40 0 1 1 21486662.00 32788673.00  zM 22135434.00 32799996.03 m -200711.42 0 a 200711.42 200711.42 0 1 1 401422.84 0a 200711.42 200711.42 0 1 1 -401422.84 0M 23635434.00 32100001.02 m -161528.77 0 a 161528.77 161528.77 0 1 1 323057.53 0a 161528.77 161528.77 0 1 1 -323057.53 0M 23635434.00 34418106.03 m -200711.42 0 a 200711.42 200711.42 0 1 1 401422.84 0a 200711.42 200711.42 0 1 1 -401422.84 0M 24735434.00 32200001.02 m -161528.77 0 a 161528.77 161528.77 0 1 1 323057.53 0a 161528.77 161528.77 0 1 1 -323057.53 0M 26011024.00 32629921.02 m -161528.77 0 a 161528.77 161528.77 0 1 1 323057.53 0a 161528.77 161528.77 0 1 1 -323057.53 0M 24653413.00 34382033.02 m -161528.77 0 a 161528.77 161528.77 0 1 1 323057.53 0a 161528.77 161528.77 0 1 1 -323057.53 0M 14468504.00 41437002.52 m -772385.62 0 a 772385.62 772385.62 0 1 1 1544771.25 0a 772385.62 772385.62 0 1 1 -1544771.25 0M 18135434.00 39536221.02 m -161528.77 0 a 161528.77 161528.77 0 1 1 323057.53 0a 161528.77 161528.77 0 1 1 -323057.53 0M 21486662.00 37906783.00 L 21483753.43 37899760.92 L 21429633.57 37899760.92 L 21426725.00 37906783.00 A 200702.40 200702.40 0 0 1 21092961.00 37906783.00 L 21090052.43 37899760.92 L 21035932.57 37899760.92 L 21033024.00 37906783.00 A 200702.40 200702.40 0 0 1 20699260.00 37906783.00 L 20696351.43 37899760.92 L 20642231.57 37899760.92 L 20639323.00 37906783.00 A 200702.40 200702.40 0 0 1 20305559.00 37906783.00 L 20300591.23 37894789.44 L 20250590.77 37894789.44 L 20245623.00 37906783.00 A 200702.40 200702.40 0 1 1 19967234.00 37628394.00 L 19974256.08 37625485.43 L 19974256.08 37571365.57 L 19967234.00 37568457.00 A 200702.40 200702.40 0 0 1 19967234.00 37234693.00 L 19974255.58 37231784.64 L 19974255.58 37177664.77 L 19967233.00 37174756.00 A 200702.40 200702.40 0 1 1 20245622.00 36896367.00 L 20248530.57 36903389.08 L 20302650.43 36903389.08 L 20305559.00 36896367.00 A 200702.40 200702.40 0 0 1 20639323.00 36896367.00 L 20642231.57 36903389.08 L 20696351.43 36903389.08 L 20699260.00 36896367.00 A 200702.40 200702.40 0 1 1 20977649.00 37174756.00 L 20970626.92 37177664.57 L 20970626.92 37231784.43 L 20977649.00 37234693.00 L 21033024.00 37290068.00 L 21035932.57 37297090.08 L 21090052.43 37297090.08 L 21092961.00 37290068.00 A 200702.40 200702.40 0 0 1 21426725.00 37290068.00 L 21429633.57 37297090.08 L 21483753.43 37297090.08 L 21486662.00 37290068.00 L 21542037.00 37234693.00 L 21549059.08 37231784.43 L 21549059.08 37177664.57 L 21542037.00 37174756.00 A 200702.40 200702.40 0 1 1 21765051.00 37174756.00 L 21758028.92 37177664.57 L 21758028.92 37231784.43 L 21765051.00 37234693.00 A 200702.40 200702.40 0 0 1 21765051.00 37568457.00 L 21758028.92 37571365.57 L 21758028.92 37625485.43 L 21765051.00 37628394.00 A 200702.40 200702.40 0 1 1 21486662.00 37906783.00  zM 18135434.00 42036221.02 m -161528.77 0 a 161528.77 161528.77 0 1 1 323057.53 0a 161528.77 161528.77 0 1 1 -323057.53 0M 22135434.00 37918106.03 m -200711.42 0 a 200711.42 200711.42 0 1 1 401422.84 0a 200711.42 200711.42 0 1 1 -401422.84 0M 21486662.00 43024893.00 L 21483753.43 43017870.92 L 21429633.57 43017870.92 L 21426725.00 43024893.00 A 200702.40 200702.40 0 0 1 21092961.00 43024893.00 L 21090052.43 43017870.92 L 21035932.57 43017870.92 L 21033024.00 43024893.00 A 200702.40 200702.40 0 0 1 20699260.00 43024893.00 L 20696351.43 43017870.92 L 20642231.57 43017870.92 L 20639323.00 43024893.00 A 200702.40 200702.40 0 0 1 20305559.00 43024893.00 L 20300591.23 43012899.44 L 20250590.77 43012899.44 L 20245623.00 43024893.00 A 200702.40 200702.40 0 1 1 19967234.00 42746504.00 L 19974256.08 42743595.43 L 19974256.08 42689475.57 L 19967234.00 42686567.00 A 200702.40 200702.40 0 0 1 19967234.00 42352803.00 L 19974255.58 42349894.64 L 19974255.58 42295774.77 L 19967233.00 42292866.00 A 200702.40 200702.40 0 1 1 20245622.00 42014477.00 L 20248530.57 42021499.08 L 20302650.43 42021499.08 L 20305559.00 42014477.00 A 200702.40 200702.40 0 0 1 20639323.00 42014477.00 L 20642231.57 42021499.08 L 20696351.43 42021499.08 L 20699260.00 42014477.00 A 200702.40 200702.40 0 1 1 20977649.00 42292866.00 L 20970626.92 42295774.57 L 20970626.92 42349894.43 L 20977649.00 42352803.00 L 21033024.00 42408178.00 L 21035932.57 42415200.08 L 21090052.43 42415200.08 L 21092961.00 42408178.00 A 200702.40 200702.40 0 0 1 21426725.00 42408178.00 L 21429633.57 42415200.08 L 21483753.43 42415200.08 L 21486662.00 42408178.00 L 21542037.00 42352803.00 L 21549059.08 42349894.43 L 21549059.08 42295774.57 L 21542037.00 42292866.00 A 200702.40 200702.40 0 1 1 21765051.00 42292866.00 L 21758028.92 42295774.57 L 21758028.92 42349894.43 L 21765051.00 42352803.00 A 200702.40 200702.40 0 0 1 21765051.00 42686567.00 L 21758028.92 42689475.57 L 21758028.92 42743595.43 L 21765051.00 42746504.00 A 200702.40 200702.40 0 1 1 21486662.00 43024893.00  zM 22135434.00 43036216.03 m -200711.42 0 a 200711.42 200711.42 0 1 1 401422.84 0a 200711.42 200711.42 0 1 1 -401422.84 0M 23635434.00 37218111.02 m -161528.77 0 a 161528.77 161528.77 0 1 1 323057.53 0a 161528.77 161528.77 0 1 1 -323057.53 0M 24735434.00 37318111.02 m -161528.77 0 a 161528.77 161528.77 0 1 1 323057.53 0a 161528.77 161528.77 0 1 1 -323057.53 0M 24653413.00 39500143.02 m -161528.77 0 a 161528.77 161528.77 0 1 1 323057.53 0a 161528.77 161528.77 0 1 1 -323057.53 0M 23635434.00 39536216.03 m -200711.42 0 a 200711.42 200711.42 0 1 1 401422.84 0a 200711.42 200711.42 0 1 1 -401422.84 0M 23635434.00 42336221.02 m -161528.77 0 a 161528.77 161528.77 0 1 1 323057.53 0a 161528.77 161528.77 0 1 1 -323057.53 0M 24735434.00 42436221.02 m -161528.77 0 a 161528.77 161528.77 0 1 1 323057.53 0a 161528.77 161528.77 0 1 1 -323057.53 0M 27559449.00 29921255.03 m -200711.42 0 a 200711.42 200711.42 0 1 1 401422.84 0a 200711.42 200711.42 0 1 1 -401422.84 0M 29921260.00 29921255.03 m -200711.42 0 a 200711.42 200711.42 0 1 1 401422.84 0a 200711.42 200711.42 0 1 1 -401422.84 0M 28111024.00 32829921.02 m -161528.77 0 a 161528.77 161528.77 0 1 1 323057.53 0a 161528.77 161528.77 0 1 1 -323057.53 0M 29645883.83 32641517.07 L 29700003.96 32641517.07 L 29706525.00 32625774.00 A 161528.81 161528.81 0 1 1 29705971.17 32803918.93 L 29651851.04 32803918.93 L 29645330.00 32819662.00 A 161528.81 161528.81 0 1 1 29645883.83 32641517.07  zM 27511024.00 33329921.02 m -161528.77 0 a 161528.77 161528.77 0 1 1 323057.53 0a 161528.77 161528.77 0 1 1 -323057.53 0M 27411024.00 33829921.02 m -161528.77 0 a 161528.77 161528.77 0 1 1 323057.53 0a 161528.77 161528.77 0 1 1 -323057.53 0M 29811024.00 33829921.02 m -161528.77 0 a 161528.77 161528.77 0 1 1 323057.53 0a 161528.77 161528.77 0 1 1 -323057.53 0M 30708662.00 29921255.03 m -200711.42 0 a 200711.42 200711.42 0 1 1 401422.84 0a 200711.42 200711.42 0 1 1 -401422.84 0M 34055118.00 32283464.02 m -161528.77 0 a 161528.77 161528.77 0 1 1 323057.53 0a 161528.77 161528.77 0 1 1 -323057.53 0M 34055118.00 33070866.02 m -161528.77 0 a 161528.77 161528.77 0 1 1 323057.53 0a 161528.77 161528.77 0 1 1 -323057.53 0M 32011024.00 34079921.02 m -161528.77 0 a 161528.77 161528.77 0 1 1 323057.53 0a 161528.77 161528.77 0 1 1 -323057.53 0M 33061024.00 33529921.02 m -161528.77 0 a 161528.77 161528.77 0 1 1 323057.53 0a 161528.77 161528.77 0 1 1 -323057.53 0M 33711024.00 33879921.02 m -161528.77 0 a 161528.77 161528.77 0 1 1 323057.53 0a 161528.77 161528.77 0 1 1 -323057.53 0M 28311024.00 34529921.02 m -161528.77 0 a 161528.77 161528.77 0 1 1 323057.53 0a 161528.77 161528.77 0 1 1 -323057.53 0M 26611024.00 37629921.02 m -161528.77 0 a 161528.77 161528.77 0 1 1 323057.53 0a 161528.77 161528.77 0 1 1 -323057.53 0M 29724410.00 40354330.02 m -161528.77 0 a 161528.77 161528.77 0 1 1 323057.53 0a 161528.77 161528.77 0 1 1 -323057.53 0M 30511811.00 40354330.02 m -161528.77 0 a 161528.77 161528.77 0 1 1 323057.53 0a 161528.77 161528.77 0 1 1 -323057.53 0M 33252599.00 37161434.00 L 33252599.00 37134540.45 L 33244336.15 37096608.85 L 33206404.55 37088346.00 L 33179511.00 37088346.00 A 161528.81 161528.81 0 1 1 33369449.00 36898408.00 L 33369449.00 36925301.55 L 33377711.85 36963233.15 L 33415643.45 36971496.00 L 33442537.00 36971496.00 A 161528.81 161528.81 0 1 1 33252599.00 37161434.00  zM 31011024.00 39729921.02 m -161528.77 0 a 161528.77 161528.77 0 1 1 323057.53 0a 161528.77 161528.77 0 1 1 -323057.53 0M 30708662.00 39960630.02 m -161528.77 0 a 161528.77 161528.77 0 1 1 323057.53 0a 161528.77 161528.77 0 1 1 -323057.53 0M 27362205.00 40748031.02 m -161528.77 0 a 161528.77 161528.77 0 1 1 323057.53 0a 161528.77 161528.77 0 1 1 -323057.53 0M 27952756.00 41929134.02 m -161528.77 0 a 161528.77 161528.77 0 1 1 323057.53 0a 161528.77 161528.77 0 1 1 -323057.53 0M 27411024.00 42529921.02 m -161528.77 0 a 161528.77 161528.77 0 1 1 323057.53 0a 161528.77 161528.77 0 1 1 -323057.53 0M 29198662.00 40446330.00 A 157437.01 157437.01 0 0 1 28908190.00 40322817.00 A 161528.81 161528.81 0 0 1 29198662.00 40262330.00 A 157437.01 157437.01 0 0 1 29489134.00 40385843.00 A 161528.81 161528.81 0 0 1 29198662.00 40446330.00  zM 30118111.00 40354330.02 m -161528.77 0 a 161528.77 161528.77 0 1 1 323057.53 0a 161528.77 161528.77 0 1 1 -323057.53 0M 32211024.00 40429921.02 m -161528.77 0 a 161528.77 161528.77 0 1 1 323057.53 0a 161528.77 161528.77 0 1 1 -323057.53 0M 34055118.00 32677165.02 m -161528.77 0 a 161528.77 161528.77 0 1 1 323057.53 0a 161528.77 161528.77 0 1 1 -323057.53 0M 34448819.00 32283464.02 m -161528.77 0 a 161528.77 161528.77 0 1 1 323057.53 0a 161528.77 161528.77 0 1 1 -323057.53 0M 34842520.00 32283464.02 m -161528.77 0 a 161528.77 161528.77 0 1 1 323057.53 0a 161528.77 161528.77 0 1 1 -323057.53 0M 34842520.00 32677165.02 m -161528.77 0 a 161528.77 161528.77 0 1 1 323057.53 0a 161528.77 161528.77 0 1 1 -323057.53 0M 34448819.00 32677165.02 m -161528.77 0 a 161528.77 161528.77 0 1 1 323057.53 0a 161528.77 161528.77 0 1 1 -323057.53 0M 34448819.00 33070866.02 m -161528.77 0 a 161528.77 161528.77 0 1 1 323057.53 0a 161528.77 161528.77 0 1 1 -323057.53 0M 34761024.00 34079921.02 m -161528.77 0 a 161528.77 161528.77 0 1 1 323057.53 0a 161528.77 161528.77 0 1 1 -323057.53 0M 35236221.00 32283464.02 m -161528.77 0 a 161528.77 161528.77 0 1 1 323057.53 0a 161528.77 161528.77 0 1 1 -323057.53 0M 35236221.00 32677165.02 m -161528.77 0 a 161528.77 161528.77 0 1 1 323057.53 0a 161528.77 161528.77 0 1 1 -323057.53 0M 34842520.00 33070866.02 m -161528.77 0 a 161528.77 161528.77 0 1 1 323057.53 0a 161528.77 161528.77 0 1 1 -323057.53 0M 39460709.00 33904874.02 m -161528.77 0 a 161528.77 161528.77 0 1 1 323057.53 0a 161528.77 161528.77 0 1 1 -323057.53 0M 39914805.00 33812442.02 m -161528.77 0 a 161528.77 161528.77 0 1 1 323057.53 0a 161528.77 161528.77 0 1 1 -323057.53 0M 39173881.00 34645669.02 m -161528.77 0 a 161528.77 161528.77 0 1 1 323057.53 0a 161528.77 161528.77 0 1 1 -323057.53 0M 35411024.00 35229921.02 m -161528.77 0 a 161528.77 161528.77 0 1 1 323057.53 0a 161528.77 161528.77 0 1 1 -323057.53 0M 35911024.00 34879921.02 m -161528.77 0 a 161528.77 161528.77 0 1 1 323057.53 0a 161528.77 161528.77 0 1 1 -323057.53 0M 36611024.00 34929921.02 m -161528.77 0 a 161528.77 161528.77 0 1 1 323057.53 0a 161528.77 161528.77 0 1 1 -323057.53 0M 37598426.00 37026929.02 m -161528.77 0 a 161528.77 161528.77 0 1 1 323057.53 0a 161528.77 161528.77 0 1 1 -323057.53 0M 40354331.00 34645669.02 m -161528.77 0 a 161528.77 161528.77 0 1 1 323057.53 0a 161528.77 161528.77 0 1 1 -323057.53 0M 40311024.00 35829921.02 m -161528.77 0 a 161528.77 161528.77 0 1 1 323057.53 0a 161528.77 161528.77 0 1 1 -323057.53 0M 39297080.00 36630746.02 m -161528.77 0 a 161528.77 161528.77 0 1 1 323057.53 0a 161528.77 161528.77 0 1 1 -323057.53 0M 36321701.00 37096929.00 L 36283017.00 37058245.00 A 161528.77 161528.77 0 1 1 36551629.00 37058245.00 L 36512945.00 37096929.00 L 36551629.00 37135613.00 A 161528.77 161528.77 0 1 1 36321701.00 37096929.00  zM 36711024.00 38829921.02 m -161528.77 0 a 161528.77 161528.77 0 1 1 323057.53 0a 161528.77 161528.77 0 1 1 -323057.53 0M 38415111.00 38834008.02 m -161528.77 0 a 161528.77 161528.77 0 1 1 323057.53 0a 161528.77 161528.77 0 1 1 -323057.53 0M 37566913.00 39211653.00 L 37590656.54 39211653.00 L 37630838.02 39205640.02 L 37636851.00 39165458.54 L 37636851.00 39141715.00 A 161528.81 161528.81 0 1 1 37826789.00 39331653.00 L 37803045.46 39331653.00 L 37762863.98 39337665.98 L 37756851.00 39377847.46 L 37756851.00 39401591.00 A 161528.81 161528.81 0 1 1 37566913.00 39211653.00  zM 38976378.00 39763779.02 m -161528.77 0 a 161528.77 161528.77 0 1 1 323057.53 0a 161528.77 161528.77 0 1 1 -323057.53 0M 37611024.00 41029921.02 m -161528.77 0 a 161528.77 161528.77 0 1 1 323057.53 0a 161528.77 161528.77 0 1 1 -323057.53 0M 40354331.00 35236220.02 m -161528.77 0 a 161528.77 161528.77 0 1 1 323057.53 0a 161528.77 161528.77 0 1 1 -323057.53 0M 42840357.02 35404137.98 L 42648084.33 35404137.96 L 42703992.00 35361239.00 L 42778599.00 35330335.00 L 42840357.03 35322204.78 L 42840357.02 35404137.98  zM 40354331.00 37204724.02 m -161528.77 0 a 161528.77 161528.77 0 1 1 323057.53 0a 161528.77 161528.77 0 1 1 -323057.53 0M 42211024.00 37629921.02 m -161528.77 0 a 161528.77 161528.77 0 1 1 323057.53 0a 161528.77 161528.77 0 1 1 -323057.53 0M 42840356.97 35936063.21 L 42778599.00 35927933.00 L 42703992.00 35897029.00 L 42648094.66 35854137.96 L 42840356.98 35854137.98 L 42840356.97 35936063.21  zM 43281890.00 35749558.00 L 42848820.00 35749558.00 A 120431.73 120431.73 0 0 1 42848820.00 35508710.00 L 43281890.00 35508710.00 A 120431.73 120431.73 0 1 1 43281890.00 35749558.00  zM 43262205.00 36192124.33 m -191636.82 0 a 191636.82 191636.82 0 1 1 383273.65 0a 191636.82 191636.82 0 1 1 -383273.65 0M 43482625.76 35404138.04 L 43290357.02 35404138.02 L 43290357.03 35322205.32 L 43352111.00 35330335.00 L 43426718.00 35361239.00 L 43482625.76 35404138.04  zM 44486024.02 35404137.98 L 44371785.41 35404137.97 L 44394080.00 35387031.00 L 44461504.00 35359103.00 L 44486024.02 35355874.78 L 44486024.02 35404137.98  zM 44868504.00 35749558.00 L 44553544.00 35749558.00 A 120431.73 120431.73 0 0 1 44553544.00 35508710.00 L 44868504.00 35508710.00 A 120431.73 120431.73 0 1 1 44868504.00 35749558.00  zM 43290356.97 35936062.69 L 43290356.98 35854138.02 L 43482615.24 35854138.04 L 43426718.00 35897029.00 L 43352111.00 35927933.00 L 43290356.97 35936062.69  zM 44486023.98 35902393.21 L 44461504.00 35899165.00 L 44394080.00 35871237.00 L 44371795.76 35854137.97 L 44486023.98 35854137.98 L 44486023.98 35902393.21  zM 43311024.00 37929921.02 m -161528.77 0 a 161528.77 161528.77 0 1 1 323057.53 0a 161528.77 161528.77 0 1 1 -323057.53 0M 42840357.02 38805707.98 L 42648089.55 38805707.96 L 42703992.00 38762813.00 L 42778599.00 38731909.00 L 42840357.03 38723778.78 L 42840357.02 38805707.98  zM 43262205.00 38467714.33 m -191636.82 0 a 191636.82 191636.82 0 1 1 383273.65 0a 191636.82 191636.82 0 1 1 -383273.65 0M 43281890.00 39151132.00 L 42848820.00 39151132.00 A 120431.73 120431.73 0 0 1 42848820.00 38910284.00 L 43281890.00 38910284.00 A 120431.73 120431.73 0 1 1 43281890.00 39151132.00  zM 43290356.97 39337636.69 L 43290356.98 39255708.02 L 43482620.45 39255708.04 L 43426718.00 39298603.00 L 43352111.00 39329507.00 L 43290356.97 39337636.69  zM 42840356.97 39337637.21 L 42778599.00 39329507.00 L 42703992.00 39298603.00 L 42648089.45 39255707.96 L 42840356.98 39255707.98 L 42840356.97 39337637.21  zM 40911024.00 41229921.02 m -161528.77 0 a 161528.77 161528.77 0 1 1 323057.53 0a 161528.77 161528.77 0 1 1 -323057.53 0M 42618111.00 41437002.52 m -772385.62 0 a 772385.62 772385.62 0 1 1 1544771.25 0a 772385.62 772385.62 0 1 1 -1544771.25 0M 43482620.55 38805708.04 L 43290357.02 38805708.02 L 43290357.03 38723779.32 L 43352111.00 38731909.00 L 43426718.00 38762813.00 L 43482620.55 38805708.04  zM 44486024.02 38805707.98 L 44371790.62 38805707.97 L 44394080.00 38788605.00 L 44461504.00 38760677.00 L 44486024.02 38757448.78 L 44486024.02 38805707.98  zM 44868504.00 39151132.00 L 44553544.00 39151132.00 A 120431.73 120431.73 0 0 1 44553544.00 38910284.00 L 44868504.00 38910284.00 A 120431.73 120431.73 0 1 1 44868504.00 39151132.00  zM 44486023.98 39303967.21 L 44461504.00 39300739.00 L 44394080.00 39272811.00 L 44371790.55 39255707.97 L 44486023.98 39255707.98 L 44486023.98 39303967.21  zM 44291339.00 40535440.27 m -363099.23 0 a 363099.23 363099.23 0 1 1 726198.46 0a 363099.23 363099.23 0 1 1 -726198.46 0M 44291339.00 41535440.27 m -363099.23 0 a 363099.23 363099.23 0 1 1 726198.46 0a 363099.23 363099.23 0 1 1 -726198.46 0"/>
<path id="N" d="M 34435432.47 18123620.47 m -100354.75 0 a 100354.75 100354.75 0 1 1 200709.51 0a 100354.75 100354.75 0 1 1 -200709.51 0"/>
<path id="N" d="M 37235432.47 12623620.47 m -100354.75 0 a 100354.75 100354.75 0 1 1 200709.51 0a 100354.75 100354.75 0 1 1 -200709.51 0"/>
<path id="N" d="M 33411022.47 37129919.47 m -100354.75 0 a 100354.75 100354.75 0 1 1 200709.51 0a 100354.75 100354.75 0 1 1 -200709.51 0"/>
<path id="N" d="M 27511022.47 33329919.47 m -100354.75 0 a 100354.75 100354.75 0 1 1 200709.51 0a 100354.75 100354.75 0 1 1 -200709.51 0"/>
<path id="N" d="M 27952754.47 41929132.47 m -100354.75 0 a 100354.75 100354.75 0 1 1 200709.51 0a 100354.75 100354.75 0 1 1 -200709.51 0"/>
<path id="N" d="M 14960628.47 36220470.47 m -100354.75 0 a 100354.75 100354.75 0 1 1 200709.51 0a 100354.75 100354.75 0 1 1 -200709.51 0"/>
<path id="N" d="M 41338581.47 24015746.47 m -100354.75 0 a 100354.75 100354.75 0 1 1 200709.51 0a 100354.75 100354.75 0 1 1 -200709.51 0"/>
<path id="N" d="M 38061022.47 22529919.47 m -100354.75 0 a 100354.75 100354.75 0 1 1 200709.51 0a 100354.75 100354.75 0 1 1 -200709.51 0"/>
<path id="N" d="M 36611022.47 34929919.47 m -100354.75 0 a 100354.75 100354.75 0 1 1 200709.51 0a 100354.75 100354.75 0 1 1 -200709.51 0"/>
<path id="N" d="M 18135432.47 31799999.47 m -100354.75 0 a 100354.75 100354.75 0 1 1 200709.51 0a 100354.75 100354.75 0 1 1 -200709.51 0"/>
<path id="N" d="M 24735432.47 32199999.47 m -100354.75 0 a 100354.75 100354.75 0 1 1 200709.51 0a 100354.75 100354.75 0 1 1 -200709.51 0"/>
<path id="N" d="M 32211022.47 40429919.47 m -100354.75 0 a 100354.75 100354.75 0 1 1 200709.51 0a 100354.75 100354.75 0 1 1 -200709.51 0"/>
<path id="N" d="M 38415109.47 38834006.47 m -100354.75 0 a 100354.75 100354.75 0 1 1 200709.51 0a 100354.75 100354.75 0 1 1 -200709.51 0"/>
<path id="N" d="M 38976376.47 25590549.47 m -100354.75 0 a 100354.75 100354.75 0 1 1 200709.51 0a 100354.75 100354.75 0 1 1 -200709.51 0"/>
<path id="N" d="M 37598424.47 37026927.47 m -100354.75 0 a 100354.75 100354.75 0 1 1 200709.51 0a 100354.75 100354.75 0 1 1 -200709.51 0"/>
<path id="N" d="M 29617322.47 12604722.47 m -100354.75 0 a 100354.75 100354.75 0 1 1 200709.51 0a 100354.75 100354.75 0 1 1 -200709.51 0"/>
<path id="N" d="M 29217322.47 19204722.47 m -100354.75 0 a 100354.75 100354.75 0 1 1 200709.51 0a 100354.75 100354.75 0 1 1 -200709.51 0"/>
<path id="N" d="M 29317322.47 18104722.47 m -100354.75 0 a 100354.75 100354.75 0 1 1 200709.51 0a 100354.75 100354.75 0 1 1 -200709.51 0"/>
<path id="N" d="M 32117322.47 12604722.47 m -100354.75 0 a 100354.75 100354.75 0 1 1 200709.51 0a 100354.75 100354.75 0 1 1 -200709.51 0"/>
<path id="N" d="M 18135432.47 19063778.47 m -100354.75 0 a 100354.75 100354.75 0 1 1 200709.51 0a 100354.75 100354.75 0 1 1 -200709.51 0"/>
<path id="N" d="M 23635432.47 21863778.47 m -100354.75 0 a 100354.75 100354.75 0 1 1 200709.51 0a 100354.75 100354.75 0 1 1 -200709.51 0"/>
<path id="N" d="M 24735432.47 21963778.47 m -100354.75 0 a 100354.75 100354.75 0 1 1 200709.51 0a 100354.75 100354.75 0 1 1 -200709.51 0"/>
<path id="N" d="M 18135432.47 21563778.47 m -100354.75 0 a 100354.75 100354.75 0 1 1 200709.51 0a 100354.75 100354.75 0 1 1 -200709.51 0"/>
<path id="N" d="M 27411022.47 42529919.47 m -100354.75 0 a 100354.75 100354.75 0 1 1 200709.51 0a 100354.75 100354.75 0 1 1 -200709.51 0"/>
<path id="N" d="M 36711022.47 38829919.47 m -100354.75 0 a 100354.75 100354.75 0 1 1 200709.51 0a 100354.75 100354.75 0 1 1 -200709.51 0"/>
<path id="N" d="M 34761022.47 34079919.47 m -100354.75 0 a 100354.75 100354.75 0 1 1 200709.51 0a 100354.75 100354.75 0 1 1 -200709.51 0"/>
<path id="N" d="M 33661022.47 22029919.47 m -100354.75 0 a 100354.75 100354.75 0 1 1 200709.51 0a 100354.75 100354.75 0 1 1 -200709.51 0"/>
<path id="N" d="M 18135431.47 16445667.47 m -100354.75 0 a 100354.75 100354.75 0 1 1 200709.51 0a 100354.75 100354.75 0 1 1 -200709.51 0"/>
<path id="N" d="M 24735431.47 16845667.47 m -100354.75 0 a 100354.75 100354.75 0 1 1 200709.51 0a 100354.75 100354.75 0 1 1 -200709.51 0"/>
<path id="N" d="M 18111022.47 36829919.47 m -100354.75 0 a 100354.75 100354.75 0 1 1 200709.51 0a 100354.75 100354.75 0 1 1 -200709.51 0"/>
<path id="N" d="M 24735432.47 37318109.47 m -100354.75 0 a 100354.75 100354.75 0 1 1 200709.51 0a 100354.75 100354.75 0 1 1 -200709.51 0"/>
<path id="N" d="M 28311022.47 34529919.47 m -100354.75 0 a 100354.75 100354.75 0 1 1 200709.51 0a 100354.75 100354.75 0 1 1 -200709.51 0"/>
<path id="N" d="M 26611022.47 37629919.47 m -100354.75 0 a 100354.75 100354.75 0 1 1 200709.51 0a 100354.75 100354.75 0 1 1 -200709.51 0"/>
<path id="N" d="M 24653411.47 34382031.47 m -100354.75 0 a 100354.75 100354.75 0 1 1 200709.51 0a 100354.75 100354.75 0 1 1 -200709.51 0"/>
<path id="N" d="M 24653411.47 39500141.47 m -100354.75 0 a 100354.75 100354.75 0 1 1 200709.51 0a 100354.75 100354.75 0 1 1 -200709.51 0"/>
<path id="N" d="M 24653411.47 29263921.47 m -100354.75 0 a 100354.75 100354.75 0 1 1 200709.51 0a 100354.75 100354.75 0 1 1 -200709.51 0"/>
<path id="N" d="M 24653411.47 24145811.47 m -100354.75 0 a 100354.75 100354.75 0 1 1 200709.51 0a 100354.75 100354.75 0 1 1 -200709.51 0"/>
<path id="N" d="M 26011022.47 32629919.47 m -100354.75 0 a 100354.75 100354.75 0 1 1 200709.51 0a 100354.75 100354.75 0 1 1 -200709.51 0"/>
<path id="N" d="M 36551171.01 24803129.86 m -297844.08 0 a 297844.08 297844.08 0 1 1 595688.15 0a 297844.08 297844.08 0 1 1 -595688.15 0M 36551180.24 24803148.93 m -204721.07 0 a 204721.07 204721.07 0 1 1 409442.13 0a 204721.07 204721.07 0 1 1 -409442.13 0"/>
<path id="N" d="M 38169448.47 24429919.47 m -100354.75 0 a 100354.75 100354.75 0 1 1 200709.51 0a 100354.75 100354.75 0 1 1 -200709.51 0"/>
<path id="N" d="M 39173879.47 34645667.47 m -100354.75 0 a 100354.75 100354.75 0 1 1 200709.51 0a 100354.75 100354.75 0 1 1 -200709.51 0"/>
<path id="N" d="M 23635432.47 32099999.47 m -100354.75 0 a 100354.75 100354.75 0 1 1 200709.51 0a 100354.75 100354.75 0 1 1 -200709.51 0"/>
<path id="N" d="M 18135432.47 29299999.47 m -100354.75 0 a 100354.75 100354.75 0 1 1 200709.51 0a 100354.75 100354.75 0 1 1 -200709.51 0"/>
<path id="N" d="M 44291339.01 40535433.52 m -302589.01 0 a 302589.01 302589.01 0 1 1 605178.01 0a 302589.01 302589.01 0 1 1 -605178.01 0M 44291337.90 40535434.70 m -203916.30 0 a 203916.30 203916.30 0 1 1 407832.60 0a 203916.30 203916.30 0 1 1 -407832.60 0"/>
<path id="N" d="M 37598424.47 39370076.47 m -100354.75 0 a 100354.75 100354.75 0 1 1 200709.51 0a 100354.75 100354.75 0 1 1 -200709.51 0"/>
<path id="N" d="M 37271509.47 19141599.47 m -100354.75 0 a 100354.75 100354.75 0 1 1 200709.51 0a 100354.75 100354.75 0 1 1 -200709.51 0"/>
<path id="N" d="M 28111022.47 32829919.47 m -100354.75 0 a 100354.75 100354.75 0 1 1 200709.51 0a 100354.75 100354.75 0 1 1 -200709.51 0"/>
<path id="N" d="M 24668335.47 13910721.47 m -100354.75 0 a 100354.75 100354.75 0 1 1 200709.51 0a 100354.75 100354.75 0 1 1 -200709.51 0"/>
<path id="N" d="M 32153399.47 19122701.47 m -100354.75 0 a 100354.75 100354.75 0 1 1 200709.51 0a 100354.75 100354.75 0 1 1 -200709.51 0"/>
<path id="N" d="M 24653411.47 19027700.47 m -100354.75 0 a 100354.75 100354.75 0 1 1 200709.51 0a 100354.75 100354.75 0 1 1 -200709.51 0"/>
<path id="N" d="M 40354329.47 35236218.47 m -100354.75 0 a 100354.75 100354.75 0 1 1 200709.51 0a 100354.75 100354.75 0 1 1 -200709.51 0"/>
<path id="N" d="M 40354329.47 37204722.47 m -100354.75 0 a 100354.75 100354.75 0 1 1 200709.51 0a 100354.75 100354.75 0 1 1 -200709.51 0"/>
<path id="N" d="M 36417321.47 37225352.47 m -100354.75 0 a 100354.75 100354.75 0 1 1 200709.51 0a 100354.75 100354.75 0 1 1 -200709.51 0"/>
<path id="N" d="M 31011022.47 39729919.47 m -100354.75 0 a 100354.75 100354.75 0 1 1 200709.51 0a 100354.75 100354.75 0 1 1 -200709.51 0"/>
<path id="N" d="M 29840829.47 32715513.47 m -100354.75 0 a 100354.75 100354.75 0 1 1 200709.51 0a 100354.75 100354.75 0 1 1 -200709.51 0"/>
<path id="N" d="M 36551171.01 23803129.86 m -297844.08 0 a 297844.08 297844.08 0 1 1 595688.15 0a 297844.08 297844.08 0 1 1 -595688.15 0M 36551180.24 23803148.93 m -204721.07 0 a 204721.07 204721.07 0 1 1 409442.13 0a 204721.07 204721.07 0 1 1 -409442.13 0"/>
<path id="N" d="M 38169448.47 24129919.47 m -100354.75 0 a 100354.75 100354.75 0 1 1 200709.51 0a 100354.75 100354.75 0 1 1 -200709.51 0"/>
<path id="N" d="M 40311022.47 35829919.47 m -100354.75 0 a 100354.75 100354.75 0 1 1 200709.51 0a 100354.75 100354.75 0 1 1 -200709.51 0"/>
<path id="N" d="M 36551171.01 25803129.86 m -297844.08 0 a 297844.08 297844.08 0 1 1 595688.15 0a 297844.08 297844.08 0 1 1 -595688.15 0M 36551180.24 25803148.93 m -204721.07 0 a 204721.07 204721.07 0 1 1 409442.13 0a 204721.07 204721.07 0 1 1 -409442.13 0"/>
<path id="N" d="M 42211022.47 37629919.47 m -100354.75 0 a 100354.75 100354.75 0 1 1 200709.51 0a 100354.75 100354.75 0 1 1 -200709.51 0"/>
<path id="N" d="M 43311022.47 37929919.47 m -100354.75 0 a 100354.75 100354.75 0 1 1 200709.51 0a 100354.75 100354.75 0 1 1 -200709.51 0"/>
<path id="N" d="M 36417321.47 36968502.47 m -100354.75 0 a 100354.75 100354.75 0 1 1 200709.51 0a 100354.75 100354.75 0 1 1 -200709.51 0"/>
<path id="N" d="M 39297078.47 36630744.47 m -100354.75 0 a 100354.75 100354.75 0 1 1 200709.51 0a 100354.75 100354.75 0 1 1 -200709.51 0"/>
<path id="N" d="M 33111022.47 22129919.47 m -100354.75 0 a 100354.75 100354.75 0 1 1 200709.51 0a 100354.75 100354.75 0 1 1 -200709.51 0"/>
<path id="N" d="M 33061022.47 33529919.47 m -100354.75 0 a 100354.75 100354.75 0 1 1 200709.51 0a 100354.75 100354.75 0 1 1 -200709.51 0"/>
<path id="N" d="M 33211022.47 36929919.47 m -100354.75 0 a 100354.75 100354.75 0 1 1 200709.51 0a 100354.75 100354.75 0 1 1 -200709.51 0"/>
<path id="N" d="M 27411022.47 33829919.47 m -100354.75 0 a 100354.75 100354.75 0 1 1 200709.51 0a 100354.75 100354.75 0 1 1 -200709.51 0"/>
<path id="N" d="M 23635431.47 16745667.47 m -100354.75 0 a 100354.75 100354.75 0 1 1 200709.51 0a 100354.75 100354.75 0 1 1 -200709.51 0"/>
<path id="N" d="M 18135431.47 13945667.47 m -100354.75 0 a 100354.75 100354.75 0 1 1 200709.51 0a 100354.75 100354.75 0 1 1 -200709.51 0"/>
<path id="N" d="M 33711022.47 33879919.47 m -100354.75 0 a 100354.75 100354.75 0 1 1 200709.51 0a 100354.75 100354.75 0 1 1 -200709.51 0"/>
<path id="N" d="M 33370370.47 22039956.47 m -100354.75 0 a 100354.75 100354.75 0 1 1 200709.51 0a 100354.75 100354.75 0 1 1 -200709.51 0"/>
<path id="N" d="M 38811022.47 11329919.47 m -100354.75 0 a 100354.75 100354.75 0 1 1 200709.51 0a 100354.75 100354.75 0 1 1 -200709.51 0"/>
<path id="N" d="M 37711022.47 26029919.47 m -100354.75 0 a 100354.75 100354.75 0 1 1 200709.51 0a 100354.75 100354.75 0 1 1 -200709.51 0"/>
<path id="N" d="M 35411022.47 35229919.47 m -100354.75 0 a 100354.75 100354.75 0 1 1 200709.51 0a 100354.75 100354.75 0 1 1 -200709.51 0"/>
<path id="N" d="M 20866140.47 42913384.47 m -100354.75 0 a 100354.75 100354.75 0 1 1 200709.51 0a 100354.75 100354.75 0 1 1 -200709.51 0"/>
<path id="N" d="M 20078739.47 42913384.47 m -100354.75 0 a 100354.75 100354.75 0 1 1 200709.51 0a 100354.75 100354.75 0 1 1 -200709.51 0"/>
<path id="N" d="M 20472439.47 42913384.47 m -100354.75 0 a 100354.75 100354.75 0 1 1 200709.51 0a 100354.75 100354.75 0 1 1 -200709.51 0"/>
<path id="N" d="M 20866140.47 42125982.47 m -100354.75 0 a 100354.75 100354.75 0 1 1 200709.51 0a 100354.75 100354.75 0 1 1 -200709.51 0"/>
<path id="N" d="M 20866140.47 37795274.47 m -100354.75 0 a 100354.75 100354.75 0 1 1 200709.51 0a 100354.75 100354.75 0 1 1 -200709.51 0"/>
<path id="N" d="M 20472439.47 37795274.47 m -100354.75 0 a 100354.75 100354.75 0 1 1 200709.51 0a 100354.75 100354.75 0 1 1 -200709.51 0"/>
<path id="N" d="M 20078739.47 37795274.47 m -100354.75 0 a 100354.75 100354.75 0 1 1 200709.51 0a 100354.75 100354.75 0 1 1 -200709.51 0"/>
<path id="N" d="M 21653542.47 42519683.47 m -100354.75 0 a 100354.75 100354.75 0 1 1 200709.51 0a 100354.75 100354.75 0 1 1 -200709.51 0"/>
<path id="N" d="M 21653542.47 42125982.47 m -100354.75 0 a 100354.75 100354.75 0 1 1 200709.51 0a 100354.75 100354.75 0 1 1 -200709.51 0"/>
<path id="N" d="M 20866140.47 42519683.47 m -100354.75 0 a 100354.75 100354.75 0 1 1 200709.51 0a 100354.75 100354.75 0 1 1 -200709.51 0"/>
<path id="N" d="M 21259841.47 42519683.47 m -100354.75 0 a 100354.75 100354.75 0 1 1 200709.51 0a 100354.75 100354.75 0 1 1 -200709.51 0"/>
<path id="N" d="M 20078739.47 42519683.47 m -100354.75 0 a 100354.75 100354.75 0 1 1 200709.51 0a 100354.75 100354.75 0 1 1 -200709.51 0"/>
<path id="N" d="M 21653542.47 42913384.47 m -100354.75 0 a 100354.75 100354.75 0 1 1 200709.51 0a 100354.75 100354.75 0 1 1 -200709.51 0"/>
<path id="N" d="M 22135432.47 43036219.47 m -100354.75 0 a 100354.75 100354.75 0 1 1 200709.51 0a 100354.75 100354.75 0 1 1 -200709.51 0"/>
<path id="N" d="M 20472439.47 42519683.47 m -100354.75 0 a 100354.75 100354.75 0 1 1 200709.51 0a 100354.75 100354.75 0 1 1 -200709.51 0"/>
<path id="N" d="M 21259841.47 42913384.47 m -100354.75 0 a 100354.75 100354.75 0 1 1 200709.51 0a 100354.75 100354.75 0 1 1 -200709.51 0"/>
<path id="N" d="M 20866140.47 37401573.47 m -100354.75 0 a 100354.75 100354.75 0 1 1 200709.51 0a 100354.75 100354.75 0 1 1 -200709.51 0"/>
<path id="N" d="M 29921258.47 25984250.47 m -100354.75 0 a 100354.75 100354.75 0 1 1 200709.51 0a 100354.75 100354.75 0 1 1 -200709.51 0"/>
<path id="N" d="M 28346455.47 26771651.47 m -100354.75 0 a 100354.75 100354.75 0 1 1 200709.51 0a 100354.75 100354.75 0 1 1 -200709.51 0"/>
<path id="N" d="M 28346455.47 25984250.47 m -100354.75 0 a 100354.75 100354.75 0 1 1 200709.51 0a 100354.75 100354.75 0 1 1 -200709.51 0"/>
<path id="N" d="M 20472439.47 26771651.47 m -100354.75 0 a 100354.75 100354.75 0 1 1 200709.51 0a 100354.75 100354.75 0 1 1 -200709.51 0"/>
<path id="N" d="M 27559447.47 25984250.47 m -100354.75 0 a 100354.75 100354.75 0 1 1 200709.51 0a 100354.75 100354.75 0 1 1 -200709.51 0"/>
<path id="N" d="M 21653542.47 26771651.47 m -100354.75 0 a 100354.75 100354.75 0 1 1 200709.51 0a 100354.75 100354.75 0 1 1 -200709.51 0"/>
<path id="N" d="M 27559447.47 26771651.47 m -100354.75 0 a 100354.75 100354.75 0 1 1 200709.51 0a 100354.75 100354.75 0 1 1 -200709.51 0"/>
<path id="N" d="M 20866140.47 26771651.47 m -100354.75 0 a 100354.75 100354.75 0 1 1 200709.51 0a 100354.75 100354.75 0 1 1 -200709.51 0"/>
<path id="N" d="M 29921258.47 26771651.47 m -100354.75 0 a 100354.75 100354.75 0 1 1 200709.51 0a 100354.75 100354.75 0 1 1 -200709.51 0"/>
<path id="N" d="M 30708660.47 26771651.47 m -100354.75 0 a 100354.75 100354.75 0 1 1 200709.51 0a 100354.75 100354.75 0 1 1 -200709.51 0"/>
<path id="N" d="M 20078738.47 42125982.47 m -100354.75 0 a 100354.75 100354.75 0 1 1 200709.51 0a 100354.75 100354.75 0 1 1 -200709.51 0"/>
<path id="N" d="M 20472439.47 42125982.47 m -100354.75 0 a 100354.75 100354.75 0 1 1 200709.51 0a 100354.75 100354.75 0 1 1 -200709.51 0"/>
<path id="N" d="M 23635432.47 39536219.47 m -100354.75 0 a 100354.75 100354.75 0 1 1 200709.51 0a 100354.75 100354.75 0 1 1 -200709.51 0"/>
<path id="N" d="M 21259841.47 37401573.47 m -100354.75 0 a 100354.75 100354.75 0 1 1 200709.51 0a 100354.75 100354.75 0 1 1 -200709.51 0"/>
<path id="N" d="M 21653542.47 37401573.47 m -100354.75 0 a 100354.75 100354.75 0 1 1 200709.51 0a 100354.75 100354.75 0 1 1 -200709.51 0"/>
<path id="N" d="M 30708660.47 25984250.47 m -100354.75 0 a 100354.75 100354.75 0 1 1 200709.51 0a 100354.75 100354.75 0 1 1 -200709.51 0"/>
<path id="N" d="M 20078738.47 26771651.47 m -100354.75 0 a 100354.75 100354.75 0 1 1 200709.51 0a 100354.75 100354.75 0 1 1 -200709.51 0"/>
<path id="N" d="M 22135432.47 37918109.47 m -100354.75 0 a 100354.75 100354.75 0 1 1 200709.51 0a 100354.75 100354.75 0 1 1 -200709.51 0"/>
<path id="N" d="M 21259841.47 37795274.47 m -100354.75 0 a 100354.75 100354.75 0 1 1 200709.51 0a 100354.75 100354.75 0 1 1 -200709.51 0"/>
<path id="N" d="M 21653542.47 37795274.47 m -100354.75 0 a 100354.75 100354.75 0 1 1 200709.51 0a 100354.75 100354.75 0 1 1 -200709.51 0"/>
<path id="N" d="M 34251966.47 15748029.47 m -100354.75 0 a 100354.75 100354.75 0 1 1 200709.51 0a 100354.75 100354.75 0 1 1 -200709.51 0"/>
<path id="N" d="M 39173227.47 15944880.47 m -100354.75 0 a 100354.75 100354.75 0 1 1 200709.51 0a 100354.75 100354.75 0 1 1 -200709.51 0"/>
<path id="N" d="M 29133856.47 16141730.47 m -100354.75 0 a 100354.75 100354.75 0 1 1 200709.51 0a 100354.75 100354.75 0 1 1 -200709.51 0"/>
<path id="N" d="M 39960628.47 15944880.47 m -100354.75 0 a 100354.75 100354.75 0 1 1 200709.51 0a 100354.75 100354.75 0 1 1 -200709.51 0"/>
<path id="N" d="M 28740155.47 16141730.47 m -100354.75 0 a 100354.75 100354.75 0 1 1 200709.51 0a 100354.75 100354.75 0 1 1 -200709.51 0"/>
<path id="N" d="M 23635432.47 34418109.47 m -100354.75 0 a 100354.75 100354.75 0 1 1 200709.51 0a 100354.75 100354.75 0 1 1 -200709.51 0"/>
<path id="N" d="M 20472439.47 32677164.47 m -100354.75 0 a 100354.75 100354.75 0 1 1 200709.51 0a 100354.75 100354.75 0 1 1 -200709.51 0"/>
<path id="N" d="M 22135432.47 32799999.47 m -100354.75 0 a 100354.75 100354.75 0 1 1 200709.51 0a 100354.75 100354.75 0 1 1 -200709.51 0"/>
<path id="N" d="M 39566928.47 15944880.47 m -100354.75 0 a 100354.75 100354.75 0 1 1 200709.51 0a 100354.75 100354.75 0 1 1 -200709.51 0"/>
<path id="N" d="M 21653542.47 32677164.47 m -100354.75 0 a 100354.75 100354.75 0 1 1 200709.51 0a 100354.75 100354.75 0 1 1 -200709.51 0"/>
<path id="N" d="M 29527557.47 16141730.47 m -100354.75 0 a 100354.75 100354.75 0 1 1 200709.51 0a 100354.75 100354.75 0 1 1 -200709.51 0"/>
<path id="N" d="M 28740155.47 15748029.47 m -100354.75 0 a 100354.75 100354.75 0 1 1 200709.51 0a 100354.75 100354.75 0 1 1 -200709.51 0"/>
<path id="N" d="M 21653542.47 16535431.47 m -100354.75 0 a 100354.75 100354.75 0 1 1 200709.51 0a 100354.75 100354.75 0 1 1 -200709.51 0"/>
<path id="N" d="M 20472439.47 16535431.47 m -100354.75 0 a 100354.75 100354.75 0 1 1 200709.51 0a 100354.75 100354.75 0 1 1 -200709.51 0"/>
<path id="N" d="M 20866140.47 16535431.47 m -100354.75 0 a 100354.75 100354.75 0 1 1 200709.51 0a 100354.75 100354.75 0 1 1 -200709.51 0"/>
<path id="N" d="M 39566928.47 15551179.47 m -100354.75 0 a 100354.75 100354.75 0 1 1 200709.51 0a 100354.75 100354.75 0 1 1 -200709.51 0"/>
<path id="N" d="M 39960628.47 15551179.47 m -100354.75 0 a 100354.75 100354.75 0 1 1 200709.51 0a 100354.75 100354.75 0 1 1 -200709.51 0"/>
<path id="N" d="M 39173227.47 15551179.47 m -100354.75 0 a 100354.75 100354.75 0 1 1 200709.51 0a 100354.75 100354.75 0 1 1 -200709.51 0"/>
<path id="N" d="M 29133856.47 15748029.47 m -100354.75 0 a 100354.75 100354.75 0 1 1 200709.51 0a 100354.75 100354.75 0 1 1 -200709.51 0"/>
<path id="N" d="M 33858265.47 15748029.47 m -100354.75 0 a 100354.75 100354.75 0 1 1 200709.51 0a 100354.75 100354.75 0 1 1 -200709.51 0"/>
<path id="N" d="M 20866140.47 32677164.47 m -100354.75 0 a 100354.75 100354.75 0 1 1 200709.51 0a 100354.75 100354.75 0 1 1 -200709.51 0"/>
<path id="N" d="M 30708660.47 29921258.47 m -100354.75 0 a 100354.75 100354.75 0 1 1 200709.51 0a 100354.75 100354.75 0 1 1 -200709.51 0"/>
<path id="N" d="M 20866140.47 32283463.47 m -100354.75 0 a 100354.75 100354.75 0 1 1 200709.51 0a 100354.75 100354.75 0 1 1 -200709.51 0"/>
<path id="N" d="M 29921258.47 29921258.47 m -100354.75 0 a 100354.75 100354.75 0 1 1 200709.51 0a 100354.75 100354.75 0 1 1 -200709.51 0"/>
<path id="N" d="M 20866140.47 31889762.47 m -100354.75 0 a 100354.75 100354.75 0 1 1 200709.51 0a 100354.75 100354.75 0 1 1 -200709.51 0"/>
<path id="N" d="M 28346455.47 29921258.47 m -100354.75 0 a 100354.75 100354.75 0 1 1 200709.51 0a 100354.75 100354.75 0 1 1 -200709.51 0"/>
<path id="N" d="M 20078739.47 32283463.47 m -100354.75 0 a 100354.75 100354.75 0 1 1 200709.51 0a 100354.75 100354.75 0 1 1 -200709.51 0"/>
<path id="N" d="M 20472439.47 32283463.47 m -100354.75 0 a 100354.75 100354.75 0 1 1 200709.51 0a 100354.75 100354.75 0 1 1 -200709.51 0"/>
<path id="N" d="M 21653542.47 31889762.47 m -100354.75 0 a 100354.75 100354.75 0 1 1 200709.51 0a 100354.75 100354.75 0 1 1 -200709.51 0"/>
<path id="N" d="M 21259841.47 32283463.47 m -100354.75 0 a 100354.75 100354.75 0 1 1 200709.51 0a 100354.75 100354.75 0 1 1 -200709.51 0"/>
<path id="N" d="M 21653542.47 32283463.47 m -100354.75 0 a 100354.75 100354.75 0 1 1 200709.51 0a 100354.75 100354.75 0 1 1 -200709.51 0"/>
<path id="N" d="M 20472439.47 37401573.47 m -100354.75 0 a 100354.75 100354.75 0 1 1 200709.51 0a 100354.75 100354.75 0 1 1 -200709.51 0"/>
<path id="N" d="M 20078738.47 37007872.47 m -100354.75 0 a 100354.75 100354.75 0 1 1 200709.51 0a 100354.75 100354.75 0 1 1 -200709.51 0"/>
<path id="N" d="M 20078739.47 37401573.47 m -100354.75 0 a 100354.75 100354.75 0 1 1 200709.51 0a 100354.75 100354.75 0 1 1 -200709.51 0"/>
<path id="N" d="M 21259841.47 32677164.47 m -100354.75 0 a 100354.75 100354.75 0 1 1 200709.51 0a 100354.75 100354.75 0 1 1 -200709.51 0"/>
<path id="N" d="M 21653542.47 37007872.47 m -100354.75 0 a 100354.75 100354.75 0 1 1 200709.51 0a 100354.75 100354.75 0 1 1 -200709.51 0"/>
<path id="N" d="M 20078738.47 31889762.47 m -100354.75 0 a 100354.75 100354.75 0 1 1 200709.51 0a 100354.75 100354.75 0 1 1 -200709.51 0"/>
<path id="N" d="M 20472439.47 31889762.47 m -100354.75 0 a 100354.75 100354.75 0 1 1 200709.51 0a 100354.75 100354.75 0 1 1 -200709.51 0"/>
<path id="N" d="M 20078739.47 32677164.47 m -100354.75 0 a 100354.75 100354.75 0 1 1 200709.51 0a 100354.75 100354.75 0 1 1 -200709.51 0"/>
<path id="N" d="M 20472439.47 37007872.47 m -100354.75 0 a 100354.75 100354.75 0 1 1 200709.51 0a 100354.75 100354.75 0 1 1 -200709.51 0"/>
<path id="N" d="M 20866140.47 37007872.47 m -100354.75 0 a 100354.75 100354.75 0 1 1 200709.51 0a 100354.75 100354.75 0 1 1 -200709.51 0"/>
<path id="N" d="M 30708660.47 25196848.47 m -100354.75 0 a 100354.75 100354.75 0 1 1 200709.51 0a 100354.75 100354.75 0 1 1 -200709.51 0"/>
<path id="N" d="M 28346455.47 28346454.47 m -100354.75 0 a 100354.75 100354.75 0 1 1 200709.51 0a 100354.75 100354.75 0 1 1 -200709.51 0"/>
<path id="N" d="M 29921258.47 28346454.47 m -100354.75 0 a 100354.75 100354.75 0 1 1 200709.51 0a 100354.75 100354.75 0 1 1 -200709.51 0"/>
<path id="N" d="M 29921258.47 24409447.47 m -100354.75 0 a 100354.75 100354.75 0 1 1 200709.51 0a 100354.75 100354.75 0 1 1 -200709.51 0"/>
<path id="N" d="M 30708660.47 24409447.47 m -100354.75 0 a 100354.75 100354.75 0 1 1 200709.51 0a 100354.75 100354.75 0 1 1 -200709.51 0"/>
<path id="N" d="M 30708660.47 28346454.47 m -100354.75 0 a 100354.75 100354.75 0 1 1 200709.51 0a 100354.75 100354.75 0 1 1 -200709.51 0"/>
<path id="N" d="M 27559447.47 28346454.47 m -100354.75 0 a 100354.75 100354.75 0 1 1 200709.51 0a 100354.75 100354.75 0 1 1 -200709.51 0"/>
<path id="N" d="M 30708660.47 29133856.47 m -100354.75 0 a 100354.75 100354.75 0 1 1 200709.51 0a 100354.75 100354.75 0 1 1 -200709.51 0"/>
<path id="N" d="M 30708660.47 27559053.47 m -100354.75 0 a 100354.75 100354.75 0 1 1 200709.51 0a 100354.75 100354.75 0 1 1 -200709.51 0"/>
<path id="N" d="M 22135432.47 27681889.47 m -100354.75 0 a 100354.75 100354.75 0 1 1 200709.51 0a 100354.75 100354.75 0 1 1 -200709.51 0"/>
<path id="N" d="M 28346455.47 24409447.47 m -100354.75 0 a 100354.75 100354.75 0 1 1 200709.51 0a 100354.75 100354.75 0 1 1 -200709.51 0"/>
<path id="N" d="M 27559447.47 24409447.47 m -100354.75 0 a 100354.75 100354.75 0 1 1 200709.51 0a 100354.75 100354.75 0 1 1 -200709.51 0"/>
<path id="N" d="M 20866140.47 22440943.47 m -100354.75 0 a 100354.75 100354.75 0 1 1 200709.51 0a 100354.75 100354.75 0 1 1 -200709.51 0"/>
<path id="N" d="M 22135432.47 22563778.47 m -100354.75 0 a 100354.75 100354.75 0 1 1 200709.51 0a 100354.75 100354.75 0 1 1 -200709.51 0"/>
<path id="N" d="M 23633343.47 24183074.47 m -100354.75 0 a 100354.75 100354.75 0 1 1 200709.51 0a 100354.75 100354.75 0 1 1 -200709.51 0"/>
<path id="N" d="M 21259841.47 22440943.47 m -100354.75 0 a 100354.75 100354.75 0 1 1 200709.51 0a 100354.75 100354.75 0 1 1 -200709.51 0"/>
<path id="N" d="M 28346455.47 25196848.47 m -100354.75 0 a 100354.75 100354.75 0 1 1 200709.51 0a 100354.75 100354.75 0 1 1 -200709.51 0"/>
<path id="N" d="M 29921258.47 25196848.47 m -100354.75 0 a 100354.75 100354.75 0 1 1 200709.51 0a 100354.75 100354.75 0 1 1 -200709.51 0"/>
<path id="N" d="M 21653542.47 22440943.47 m -100354.75 0 a 100354.75 100354.75 0 1 1 200709.51 0a 100354.75 100354.75 0 1 1 -200709.51 0"/>
<path id="N" d="M 27559447.47 25196848.47 m -100354.75 0 a 100354.75 100354.75 0 1 1 200709.51 0a 100354.75 100354.75 0 1 1 -200709.51 0"/>
<path id="N" d="M 23635432.47 29299999.47 m -100354.75 0 a 100354.75 100354.75 0 1 1 200709.51 0a 100354.75 100354.75 0 1 1 -200709.51 0"/>
<path id="N" d="M 27559447.47 27559053.47 m -100354.75 0 a 100354.75 100354.75 0 1 1 200709.51 0a 100354.75 100354.75 0 1 1 -200709.51 0"/>
<path id="N" d="M 28346455.47 27559053.47 m -100354.75 0 a 100354.75 100354.75 0 1 1 200709.51 0a 100354.75 100354.75 0 1 1 -200709.51 0"/>
<path id="N" d="M 20866140.47 27165352.47 m -100354.75 0 a 100354.75 100354.75 0 1 1 200709.51 0a 100354.75 100354.75 0 1 1 -200709.51 0"/>
<path id="N" d="M 21653542.47 27559053.47 m -100354.75 0 a 100354.75 100354.75 0 1 1 200709.51 0a 100354.75 100354.75 0 1 1 -200709.51 0"/>
<path id="N" d="M 20472439.47 27559053.47 m -100354.75 0 a 100354.75 100354.75 0 1 1 200709.51 0a 100354.75 100354.75 0 1 1 -200709.51 0"/>
<path id="N" d="M 20866140.47 27559053.47 m -100354.75 0 a 100354.75 100354.75 0 1 1 200709.51 0a 100354.75 100354.75 0 1 1 -200709.51 0"/>
<path id="N" d="M 21259841.47 27559053.47 m -100354.75 0 a 100354.75 100354.75 0 1 1 200709.51 0a 100354.75 100354.75 0 1 1 -200709.51 0"/>
<path id="N" d="M 20472439.47 27165352.47 m -100354.75 0 a 100354.75 100354.75 0 1 1 200709.51 0a 100354.75 100354.75 0 1 1 -200709.51 0"/>
<path id="N" d="M 28346455.47 29133856.47 m -100354.75 0 a 100354.75 100354.75 0 1 1 200709.51 0a 100354.75 100354.75 0 1 1 -200709.51 0"/>
<path id="N" d="M 29921258.47 29133856.47 m -100354.75 0 a 100354.75 100354.75 0 1 1 200709.51 0a 100354.75 100354.75 0 1 1 -200709.51 0"/>
<path id="N" d="M 27559447.47 29921258.47 m -100354.75 0 a 100354.75 100354.75 0 1 1 200709.51 0a 100354.75 100354.75 0 1 1 -200709.51 0"/>
<path id="N" d="M 27559447.47 29133856.47 m -100354.75 0 a 100354.75 100354.75 0 1 1 200709.51 0a 100354.75 100354.75 0 1 1 -200709.51 0"/>
<path id="N" d="M 29921258.47 27559053.47 m -100354.75 0 a 100354.75 100354.75 0 1 1 200709.51 0a 100354.75 100354.75 0 1 1 -200709.51 0"/>
<path id="N" d="M 20078739.47 27559053.47 m -100354.75 0 a 100354.75 100354.75 0 1 1 200709.51 0a 100354.75 100354.75 0 1 1 -200709.51 0"/>
<path id="N" d="M 20078739.47 27165352.47 m -100354.75 0 a 100354.75 100354.75 0 1 1 200709.51 0a 100354.75 100354.75 0 1 1 -200709.51 0"/>
<path id="N" d="M 21259841.47 27165352.47 m -100354.75 0 a 100354.75 100354.75 0 1 1 200709.51 0a 100354.75 100354.75 0 1 1 -200709.51 0"/>
<path id="N" d="M 21653542.47 27165352.47 m -100354.75 0 a 100354.75 100354.75 0 1 1 200709.51 0a 100354.75 100354.75 0 1 1 -200709.51 0"/>
<path id="N" d="M 39960628.47 17913384.47 m -100354.75 0 a 100354.75 100354.75 0 1 1 200709.51 0a 100354.75 100354.75 0 1 1 -200709.51 0"/>
<path id="N" d="M 22135431.47 17445667.47 m -100354.75 0 a 100354.75 100354.75 0 1 1 200709.51 0a 100354.75 100354.75 0 1 1 -200709.51 0"/>
<path id="N" d="M 39566928.47 17913384.47 m -100354.75 0 a 100354.75 100354.75 0 1 1 200709.51 0a 100354.75 100354.75 0 1 1 -200709.51 0"/>
<path id="N" d="M 39173227.47 17913384.47 m -100354.75 0 a 100354.75 100354.75 0 1 1 200709.51 0a 100354.75 100354.75 0 1 1 -200709.51 0"/>
<path id="N" d="M 34251966.47 15354328.47 m -100354.75 0 a 100354.75 100354.75 0 1 1 200709.51 0a 100354.75 100354.75 0 1 1 -200709.51 0"/>
<path id="N" d="M 34645667.47 15354328.47 m -100354.75 0 a 100354.75 100354.75 0 1 1 200709.51 0a 100354.75 100354.75 0 1 1 -200709.51 0"/>
<path id="N" d="M 33858265.47 15354328.47 m -100354.75 0 a 100354.75 100354.75 0 1 1 200709.51 0a 100354.75 100354.75 0 1 1 -200709.51 0"/>
<path id="N" d="M 34251966.47 14960627.47 m -100354.75 0 a 100354.75 100354.75 0 1 1 200709.51 0a 100354.75 100354.75 0 1 1 -200709.51 0"/>
<path id="N" d="M 34645667.47 14960627.47 m -100354.75 0 a 100354.75 100354.75 0 1 1 200709.51 0a 100354.75 100354.75 0 1 1 -200709.51 0"/>
<path id="N" d="M 29527557.47 14960627.47 m -100354.75 0 a 100354.75 100354.75 0 1 1 200709.51 0a 100354.75 100354.75 0 1 1 -200709.51 0"/>
<path id="N" d="M 28740155.47 14566927.47 m -100354.75 0 a 100354.75 100354.75 0 1 1 200709.51 0a 100354.75 100354.75 0 1 1 -200709.51 0"/>
<path id="N" d="M 29527557.47 15354328.47 m -100354.75 0 a 100354.75 100354.75 0 1 1 200709.51 0a 100354.75 100354.75 0 1 1 -200709.51 0"/>
<path id="N" d="M 28740155.47 15354328.47 m -100354.75 0 a 100354.75 100354.75 0 1 1 200709.51 0a 100354.75 100354.75 0 1 1 -200709.51 0"/>
<path id="N" d="M 29133856.47 15354328.47 m -100354.75 0 a 100354.75 100354.75 0 1 1 200709.51 0a 100354.75 100354.75 0 1 1 -200709.51 0"/>
<path id="N" d="M 39173227.47 19094486.47 m -100354.75 0 a 100354.75 100354.75 0 1 1 200709.51 0a 100354.75 100354.75 0 1 1 -200709.51 0"/>
<path id="N" d="M 39566928.47 19094486.47 m -100354.75 0 a 100354.75 100354.75 0 1 1 200709.51 0a 100354.75 100354.75 0 1 1 -200709.51 0"/>
<path id="N" d="M 39566928.47 19488187.47 m -100354.75 0 a 100354.75 100354.75 0 1 1 200709.51 0a 100354.75 100354.75 0 1 1 -200709.51 0"/>
<path id="N" d="M 40354329.47 19094486.47 m -100354.75 0 a 100354.75 100354.75 0 1 1 200709.51 0a 100354.75 100354.75 0 1 1 -200709.51 0"/>
<path id="N" d="M 39173227.47 19488187.47 m -100354.75 0 a 100354.75 100354.75 0 1 1 200709.51 0a 100354.75 100354.75 0 1 1 -200709.51 0"/>
<path id="N" d="M 39960628.47 15157479.47 m -100354.75 0 a 100354.75 100354.75 0 1 1 200709.51 0a 100354.75 100354.75 0 1 1 -200709.51 0"/>
<path id="N" d="M 33858265.47 14960627.47 m -100354.75 0 a 100354.75 100354.75 0 1 1 200709.51 0a 100354.75 100354.75 0 1 1 -200709.51 0"/>
<path id="N" d="M 39566928.47 15157479.47 m -100354.75 0 a 100354.75 100354.75 0 1 1 200709.51 0a 100354.75 100354.75 0 1 1 -200709.51 0"/>
<path id="N" d="M 39960628.47 19094486.47 m -100354.75 0 a 100354.75 100354.75 0 1 1 200709.51 0a 100354.75 100354.75 0 1 1 -200709.51 0"/>
<path id="N" d="M 39173227.47 15157479.47 m -100354.75 0 a 100354.75 100354.75 0 1 1 200709.51 0a 100354.75 100354.75 0 1 1 -200709.51 0"/>
<path id="N" d="M 20078738.47 16535431.47 m -100354.75 0 a 100354.75 100354.75 0 1 1 200709.51 0a 100354.75 100354.75 0 1 1 -200709.51 0"/>
<path id="N" d="M 33858265.47 16141730.47 m -100354.75 0 a 100354.75 100354.75 0 1 1 200709.51 0a 100354.75 100354.75 0 1 1 -200709.51 0"/>
<path id="N" d="M 39566928.47 16338581.47 m -100354.75 0 a 100354.75 100354.75 0 1 1 200709.51 0a 100354.75 100354.75 0 1 1 -200709.51 0"/>
<path id="N" d="M 39566928.47 14763778.47 m -100354.75 0 a 100354.75 100354.75 0 1 1 200709.51 0a 100354.75 100354.75 0 1 1 -200709.51 0"/>
<path id="N" d="M 39173227.47 16338581.47 m -100354.75 0 a 100354.75 100354.75 0 1 1 200709.51 0a 100354.75 100354.75 0 1 1 -200709.51 0"/>
<path id="N" d="M 33735432.47 16623620.47 m -100354.75 0 a 100354.75 100354.75 0 1 1 200709.51 0a 100354.75 100354.75 0 1 1 -200709.51 0"/>
<path id="N" d="M 39173227.47 16732282.47 m -100354.75 0 a 100354.75 100354.75 0 1 1 200709.51 0a 100354.75 100354.75 0 1 1 -200709.51 0"/>
<path id="N" d="M 28617322.47 16604722.47 m -100354.75 0 a 100354.75 100354.75 0 1 1 200709.51 0a 100354.75 100354.75 0 1 1 -200709.51 0"/>
<path id="N" d="M 34251966.47 16141730.47 m -100354.75 0 a 100354.75 100354.75 0 1 1 200709.51 0a 100354.75 100354.75 0 1 1 -200709.51 0"/>
<path id="N" d="M 34645667.47 16141730.47 m -100354.75 0 a 100354.75 100354.75 0 1 1 200709.51 0a 100354.75 100354.75 0 1 1 -200709.51 0"/>
<path id="N" d="M 29527557.47 14566926.47 m -100354.75 0 a 100354.75 100354.75 0 1 1 200709.51 0a 100354.75 100354.75 0 1 1 -200709.51 0"/>
<path id="N" d="M 34645667.47 14566926.47 m -100354.75 0 a 100354.75 100354.75 0 1 1 200709.51 0a 100354.75 100354.75 0 1 1 -200709.51 0"/>
<path id="N" d="M 23635431.47 13945667.47 m -100354.75 0 a 100354.75 100354.75 0 1 1 200709.51 0a 100354.75 100354.75 0 1 1 -200709.51 0"/>
<path id="N" d="M 29133856.47 14566927.47 m -100354.75 0 a 100354.75 100354.75 0 1 1 200709.51 0a 100354.75 100354.75 0 1 1 -200709.51 0"/>
<path id="N" d="M 33858265.47 14566927.47 m -100354.75 0 a 100354.75 100354.75 0 1 1 200709.51 0a 100354.75 100354.75 0 1 1 -200709.51 0"/>
<path id="N" d="M 34251966.47 14566927.47 m -100354.75 0 a 100354.75 100354.75 0 1 1 200709.51 0a 100354.75 100354.75 0 1 1 -200709.51 0"/>
<path id="N" d="M 39173227.47 14763778.47 m -100354.75 0 a 100354.75 100354.75 0 1 1 200709.51 0a 100354.75 100354.75 0 1 1 -200709.51 0"/>
<path id="N" d="M 29133856.47 14960627.47 m -100354.75 0 a 100354.75 100354.75 0 1 1 200709.51 0a 100354.75 100354.75 0 1 1 -200709.51 0"/>
<path id="N" d="M 39960628.47 14763778.47 m -100354.75 0 a 100354.75 100354.75 0 1 1 200709.51 0a 100354.75 100354.75 0 1 1 -200709.51 0"/>
<path id="N" d="M 28740155.47 14960627.47 m -100354.75 0 a 100354.75 100354.75 0 1 1 200709.51 0a 100354.75 100354.75 0 1 1 -200709.51 0"/>
<path id="N" d="M 20078739.47 16929132.47 m -100354.75 0 a 100354.75 100354.75 0 1 1 200709.51 0a 100354.75 100354.75 0 1 1 -200709.51 0"/>
<path id="N" d="M 20472439.47 16929132.47 m -100354.75 0 a 100354.75 100354.75 0 1 1 200709.51 0a 100354.75 100354.75 0 1 1 -200709.51 0"/>
<path id="N" d="M 39566928.47 16732282.47 m -100354.75 0 a 100354.75 100354.75 0 1 1 200709.51 0a 100354.75 100354.75 0 1 1 -200709.51 0"/>
<path id="N" d="M 21259841.47 16929132.47 m -100354.75 0 a 100354.75 100354.75 0 1 1 200709.51 0a 100354.75 100354.75 0 1 1 -200709.51 0"/>
<path id="N" d="M 21653542.47 16929132.47 m -100354.75 0 a 100354.75 100354.75 0 1 1 200709.51 0a 100354.75 100354.75 0 1 1 -200709.51 0"/>
<path id="N" d="M 39173227.47 17125982.47 m -100354.75 0 a 100354.75 100354.75 0 1 1 200709.51 0a 100354.75 100354.75 0 1 1 -200709.51 0"/>
<path id="N" d="M 39566928.47 17125982.47 m -100354.75 0 a 100354.75 100354.75 0 1 1 200709.51 0a 100354.75 100354.75 0 1 1 -200709.51 0"/>
<path id="N" d="M 21259841.47 17322833.47 m -100354.75 0 a 100354.75 100354.75 0 1 1 200709.51 0a 100354.75 100354.75 0 1 1 -200709.51 0"/>
<path id="N" d="M 20472439.47 17322833.47 m -100354.75 0 a 100354.75 100354.75 0 1 1 200709.51 0a 100354.75 100354.75 0 1 1 -200709.51 0"/>
<path id="N" d="M 20866140.47 17322833.47 m -100354.75 0 a 100354.75 100354.75 0 1 1 200709.51 0a 100354.75 100354.75 0 1 1 -200709.51 0"/>
<path id="N" d="M 39566928.47 18307084.47 m -100354.75 0 a 100354.75 100354.75 0 1 1 200709.51 0a 100354.75 100354.75 0 1 1 -200709.51 0"/>
<path id="N" d="M 39960628.47 18307084.47 m -100354.75 0 a 100354.75 100354.75 0 1 1 200709.51 0a 100354.75 100354.75 0 1 1 -200709.51 0"/>
<path id="N" d="M 39173227.47 18307084.47 m -100354.75 0 a 100354.75 100354.75 0 1 1 200709.51 0a 100354.75 100354.75 0 1 1 -200709.51 0"/>
<path id="N" d="M 39173227.47 17519683.47 m -100354.75 0 a 100354.75 100354.75 0 1 1 200709.51 0a 100354.75 100354.75 0 1 1 -200709.51 0"/>
<path id="N" d="M 39566928.47 17519683.47 m -100354.75 0 a 100354.75 100354.75 0 1 1 200709.51 0a 100354.75 100354.75 0 1 1 -200709.51 0"/>
<path id="N" d="M 21653542.47 17322833.47 m -100354.75 0 a 100354.75 100354.75 0 1 1 200709.51 0a 100354.75 100354.75 0 1 1 -200709.51 0"/>
<path id="N" d="M 20866140.47 16929132.47 m -100354.75 0 a 100354.75 100354.75 0 1 1 200709.51 0a 100354.75 100354.75 0 1 1 -200709.51 0"/>
<path id="N" d="M 37235432.47 18123620.47 m -100354.75 0 a 100354.75 100354.75 0 1 1 200709.51 0a 100354.75 100354.75 0 1 1 -200709.51 0"/>
<path id="N" d="M 40354329.47 17913384.47 m -100354.75 0 a 100354.75 100354.75 0 1 1 200709.51 0a 100354.75 100354.75 0 1 1 -200709.51 0"/>
<path id="N" d="M 32117322.47 18104722.47 m -100354.75 0 a 100354.75 100354.75 0 1 1 200709.51 0a 100354.75 100354.75 0 1 1 -200709.51 0"/>
<path id="N" d="M 39960628.47 19488187.47 m -100354.75 0 a 100354.75 100354.75 0 1 1 200709.51 0a 100354.75 100354.75 0 1 1 -200709.51 0"/>
<path id="N" d="M 39960628.47 18700785.47 m -100354.75 0 a 100354.75 100354.75 0 1 1 200709.51 0a 100354.75 100354.75 0 1 1 -200709.51 0"/>
<path id="N" d="M 21259841.47 22047242.47 m -100354.75 0 a 100354.75 100354.75 0 1 1 200709.51 0a 100354.75 100354.75 0 1 1 -200709.51 0"/>
<path id="N" d="M 20472439.47 22047242.47 m -100354.75 0 a 100354.75 100354.75 0 1 1 200709.51 0a 100354.75 100354.75 0 1 1 -200709.51 0"/>
<path id="N" d="M 20866140.47 22047242.47 m -100354.75 0 a 100354.75 100354.75 0 1 1 200709.51 0a 100354.75 100354.75 0 1 1 -200709.51 0"/>
<path id="N" d="M 39173227.47 18700785.47 m -100354.75 0 a 100354.75 100354.75 0 1 1 200709.51 0a 100354.75 100354.75 0 1 1 -200709.51 0"/>
<path id="N" d="M 39566928.47 18700785.47 m -100354.75 0 a 100354.75 100354.75 0 1 1 200709.51 0a 100354.75 100354.75 0 1 1 -200709.51 0"/>
<path id="N" d="M 40354329.47 18307084.47 m -100354.75 0 a 100354.75 100354.75 0 1 1 200709.51 0a 100354.75 100354.75 0 1 1 -200709.51 0"/>
<path id="N" d="M 40354329.47 18700785.47 m -100354.75 0 a 100354.75 100354.75 0 1 1 200709.51 0a 100354.75 100354.75 0 1 1 -200709.51 0"/>
<path id="N" d="M 23635432.47 19063778.47 m -100354.75 0 a 100354.75 100354.75 0 1 1 200709.51 0a 100354.75 100354.75 0 1 1 -200709.51 0"/>
<path id="N" d="M 20078739.47 22047242.47 m -100354.75 0 a 100354.75 100354.75 0 1 1 200709.51 0a 100354.75 100354.75 0 1 1 -200709.51 0"/>
<path id="N" d="M 40354329.47 19488187.47 m -100354.75 0 a 100354.75 100354.75 0 1 1 200709.51 0a 100354.75 100354.75 0 1 1 -200709.51 0"/>
<path id="N" d="M 21653542.47 21653541.47 m -100354.75 0 a 100354.75 100354.75 0 1 1 200709.51 0a 100354.75 100354.75 0 1 1 -200709.51 0"/>
<path id="N" d="M 20078739.47 17322833.47 m -100354.75 0 a 100354.75 100354.75 0 1 1 200709.51 0a 100354.75 100354.75 0 1 1 -200709.51 0"/>
<path id="N" d="M 20866140.47 21653541.47 m -100354.75 0 a 100354.75 100354.75 0 1 1 200709.51 0a 100354.75 100354.75 0 1 1 -200709.51 0"/>
<path id="N" d="M 20078739.47 22440943.47 m -100354.75 0 a 100354.75 100354.75 0 1 1 200709.51 0a 100354.75 100354.75 0 1 1 -200709.51 0"/>
<path id="N" d="M 20472439.47 22440943.47 m -100354.75 0 a 100354.75 100354.75 0 1 1 200709.51 0a 100354.75 100354.75 0 1 1 -200709.51 0"/>
<path id="N" d="M 21653542.47 22047242.47 m -100354.75 0 a 100354.75 100354.75 0 1 1 200709.51 0a 100354.75 100354.75 0 1 1 -200709.51 0"/>
<path id="N" d="M 20078738.47 21653541.47 m -100354.75 0 a 100354.75 100354.75 0 1 1 200709.51 0a 100354.75 100354.75 0 1 1 -200709.51 0"/>
<path id="N" d="M 20472439.47 21653541.47 m -100354.75 0 a 100354.75 100354.75 0 1 1 200709.51 0a 100354.75 100354.75 0 1 1 -200709.51 0"/>
<path id="N" d="M 18135432.47 42036219.47 m -100354.75 0 a 100354.75 100354.75 0 1 1 200709.51 0a 100354.75 100354.75 0 1 1 -200709.51 0"/>
<path id="N" d="M 24735432.47 42436219.47 m -100354.75 0 a 100354.75 100354.75 0 1 1 200709.51 0a 100354.75 100354.75 0 1 1 -200709.51 0"/>
<path id="N" d="M 18135432.47 34418109.47 m -100354.75 0 a 100354.75 100354.75 0 1 1 200709.51 0a 100354.75 100354.75 0 1 1 -200709.51 0"/>
<path id="N" d="M 23635432.47 37218109.47 m -100354.75 0 a 100354.75 100354.75 0 1 1 200709.51 0a 100354.75 100354.75 0 1 1 -200709.51 0"/>
<path id="N" d="M 44291339.01 41535433.52 m -302589.01 0 a 302589.01 302589.01 0 1 1 605178.01 0a 302589.01 302589.01 0 1 1 -605178.01 0M 44291337.90 41535434.70 m -203916.30 0 a 203916.30 203916.30 0 1 1 407832.60 0a 203916.30 203916.30 0 1 1 -407832.60 0"/>
<path id="N" d="M 37795274.47 39173226.47 m -100354.75 0 a 100354.75 100354.75 0 1 1 200709.51 0a 100354.75 100354.75 0 1 1 -200709.51 0"/>
<path id="N" d="M 29511022.47 32729919.47 m -100354.75 0 a 100354.75 100354.75 0 1 1 200709.51 0a 100354.75 100354.75 0 1 1 -200709.51 0"/>
<path id="N" d="M 30708660.47 39960628.47 m -100354.75 0 a 100354.75 100354.75 0 1 1 200709.51 0a 100354.75 100354.75 0 1 1 -200709.51 0"/>
<path id="N" d="M 18135432.47 24181889.47 m -100354.75 0 a 100354.75 100354.75 0 1 1 200709.51 0a 100354.75 100354.75 0 1 1 -200709.51 0"/>
<path id="N" d="M 23635432.47 26981889.47 m -100354.75 0 a 100354.75 100354.75 0 1 1 200709.51 0a 100354.75 100354.75 0 1 1 -200709.51 0"/>
<path id="N" d="M 34055116.47 32677163.47 m -100354.75 0 a 100354.75 100354.75 0 1 1 200709.51 0a 100354.75 100354.75 0 1 1 -200709.51 0"/>
<path id="N" d="M 34055116.47 32283462.47 m -100354.75 0 a 100354.75 100354.75 0 1 1 200709.51 0a 100354.75 100354.75 0 1 1 -200709.51 0"/>
<path id="N" d="M 34448817.47 33070864.47 m -100354.75 0 a 100354.75 100354.75 0 1 1 200709.51 0a 100354.75 100354.75 0 1 1 -200709.51 0"/>
<path id="N" d="M 34055116.47 33070864.47 m -100354.75 0 a 100354.75 100354.75 0 1 1 200709.51 0a 100354.75 100354.75 0 1 1 -200709.51 0"/>
<path id="N" d="M 38582502.47 27165178.47 m -100354.75 0 a 100354.75 100354.75 0 1 1 200709.51 0a 100354.75 100354.75 0 1 1 -200709.51 0"/>
<path id="N" d="M 34842518.47 32283462.47 m -100354.75 0 a 100354.75 100354.75 0 1 1 200709.51 0a 100354.75 100354.75 0 1 1 -200709.51 0"/>
<path id="N" d="M 34842518.47 33070864.47 m -100354.75 0 a 100354.75 100354.75 0 1 1 200709.51 0a 100354.75 100354.75 0 1 1 -200709.51 0"/>
<path id="N" d="M 34448817.47 32283462.47 m -100354.75 0 a 100354.75 100354.75 0 1 1 200709.51 0a 100354.75 100354.75 0 1 1 -200709.51 0"/>
<path id="N" d="M 35236219.47 32283462.47 m -100354.75 0 a 100354.75 100354.75 0 1 1 200709.51 0a 100354.75 100354.75 0 1 1 -200709.51 0"/>
<path id="N" d="M 35236219.47 32677163.47 m -100354.75 0 a 100354.75 100354.75 0 1 1 200709.51 0a 100354.75 100354.75 0 1 1 -200709.51 0"/>
<path id="N" d="M 34842518.47 32677163.47 m -100354.75 0 a 100354.75 100354.75 0 1 1 200709.51 0a 100354.75 100354.75 0 1 1 -200709.51 0"/>
<path id="N" d="M 34448817.47 32677163.47 m -100354.75 0 a 100354.75 100354.75 0 1 1 200709.51 0a 100354.75 100354.75 0 1 1 -200709.51 0"/>
<path id="N" d="M 29724408.47 40354328.47 m -100354.75 0 a 100354.75 100354.75 0 1 1 200709.51 0a 100354.75 100354.75 0 1 1 -200709.51 0"/>
<path id="N" d="M 40354329.47 34645667.47 m -100354.75 0 a 100354.75 100354.75 0 1 1 200709.51 0a 100354.75 100354.75 0 1 1 -200709.51 0"/>
<path id="N" d="M 40911022.47 41229919.47 m -100354.75 0 a 100354.75 100354.75 0 1 1 200709.51 0a 100354.75 100354.75 0 1 1 -200709.51 0"/>
<path id="N" d="M 30511809.47 40354328.47 m -100354.75 0 a 100354.75 100354.75 0 1 1 200709.51 0a 100354.75 100354.75 0 1 1 -200709.51 0"/>
<path id="N" d="M 29330707.47 40354328.47 m -100354.75 0 a 100354.75 100354.75 0 1 1 200709.51 0a 100354.75 100354.75 0 1 1 -200709.51 0"/>
<path id="N" d="M 30118109.47 40354328.47 m -100354.75 0 a 100354.75 100354.75 0 1 1 200709.51 0a 100354.75 100354.75 0 1 1 -200709.51 0"/>
<path id="N" d="M 29066613.47 40354328.47 m -100354.75 0 a 100354.75 100354.75 0 1 1 200709.51 0a 100354.75 100354.75 0 1 1 -200709.51 0"/>
<path id="N" d="M 39460707.47 33904872.47 m -100354.75 0 a 100354.75 100354.75 0 1 1 200709.51 0a 100354.75 100354.75 0 1 1 -200709.51 0"/>
<path id="N" d="M 14960628.47 35039368.47 m -100354.75 0 a 100354.75 100354.75 0 1 1 200709.51 0a 100354.75 100354.75 0 1 1 -200709.51 0"/>
<path id="N" d="M 29811022.47 33829919.47 m -100354.75 0 a 100354.75 100354.75 0 1 1 200709.51 0a 100354.75 100354.75 0 1 1 -200709.51 0"/>
<path id="N" d="M 39914803.47 33812440.47 m -100354.75 0 a 100354.75 100354.75 0 1 1 200709.51 0a 100354.75 100354.75 0 1 1 -200709.51 0"/>
<path id="N" d="M 27362203.47 40748029.47 m -100354.75 0 a 100354.75 100354.75 0 1 1 200709.51 0a 100354.75 100354.75 0 1 1 -200709.51 0"/>
<path id="N" d="M 40944880.47 24015746.47 m -100354.75 0 a 100354.75 100354.75 0 1 1 200709.51 0a 100354.75 100354.75 0 1 1 -200709.51 0"/>
<path id="N" d="M 14960628.47 35826769.47 m -100354.75 0 a 100354.75 100354.75 0 1 1 200709.51 0a 100354.75 100354.75 0 1 1 -200709.51 0"/>
<path id="N" d="M 34735432.47 12623620.47 m -100354.75 0 a 100354.75 100354.75 0 1 1 200709.51 0a 100354.75 100354.75 0 1 1 -200709.51 0"/>
<path id="N" d="M 34335432.47 19223620.47 m -100354.75 0 a 100354.75 100354.75 0 1 1 200709.51 0a 100354.75 100354.75 0 1 1 -200709.51 0"/>
<path id="N" d="M 32811022.47 22329919.47 m -100354.75 0 a 100354.75 100354.75 0 1 1 200709.51 0a 100354.75 100354.75 0 1 1 -200709.51 0"/>
<path id="N" d="M 32011022.47 34079919.47 m -100354.75 0 a 100354.75 100354.75 0 1 1 200709.51 0a 100354.75 100354.75 0 1 1 -200709.51 0"/>
<path id="N" d="M 18135432.47 26681889.47 m -100354.75 0 a 100354.75 100354.75 0 1 1 200709.51 0a 100354.75 100354.75 0 1 1 -200709.51 0"/>
<path id="N" d="M 24735432.47 27081889.47 m -100354.75 0 a 100354.75 100354.75 0 1 1 200709.51 0a 100354.75 100354.75 0 1 1 -200709.51 0"/>
<path id="N" d="M 42901572.67 17007079.71 m -311728.46 0 a 311728.46 311728.46 0 1 1 623456.93 0a 311728.46 311728.46 0 1 1 -623456.93 0M 42901574.24 17007085.93 m -204721.07 0 a 204721.07 204721.07 0 1 1 409442.13 0a 204721.07 204721.07 0 1 1 -409442.13 0"/>
<path id="N" d="M 43210630.00 15516929.00 L 42592520.00 15516929.00 L 42592520.00 16135039.00 L 43210630.00 16135039.00 L 43210630.00 15516929.00  zM 42901574.24 15825983.93 m -204721.07 0 a 204721.07 204721.07 0 1 1 409442.13 0a 204721.07 204721.07 0 1 1 -409442.13 0"/>
</g>
</svg>
