<svg width="85.00000018mm" height="85.00000018mm" viewBox="0 0 33464567 33464567"  version="1.1" xmlns="http://www.w3.org/2000/svg" xmlns:xlink="http://www.w3.org/1999/xlink">
<desc>
Origin 11811024 10629921 Bound 11811024 10629921 33464567 33464567
</desc>
<g fill-rule="evenodd" fill="rgb(128, 128, 0)" stroke="black" stroke-width="1" transform="translate(0, 33464567) scale(1, -1) translate(-11811024, -10629921)">
<path id="N" d="M 15184341.04 27802213.99 L 15216739.04 27798334.00 L 15249331.04 27789022.00 L 15275521.04 27775636.00 L 15292011.04 27758176.00 L 15302293.04 27738194.00 L 15309859.04 27708124.00 L 15310635.05 27686396.00 L 15305397.05 27659236.00 L 15295309.05 27637508.00 L 15277267.05 27616168.00 L 15255733.05 27602006.00 L 15228185.05 27590948.00 L 15186669.05 27584545.99 L 15145347.05 27584933.99 L 15106741.05 27592305.99 L 15074149.05 27605691.99 L 15056689.05 27619077.99 L 15041751.05 27641581.99 L 15033021.05 27667577.99 A 108400.93 108400.93 0 0 0 15046019.04 27748863.99 L 15064061.04 27770203.99 L 15085595.04 27784365.99 L 15113143.04 27795617.99 L 15154659.04 27801825.99 L 15184341.04 27802213.99  zM 15141079.04 27746923.99 L 15112755.04 27740909.99 L 15096265.04 27732761.99 L 15083655.04 27720151.99 A 54383.80 54383.80 0 0 1 15081715.05 27670293.99 L 15094519.05 27654773.99 L 15109845.05 27646625.99 L 15144765.05 27639447.99 L 15187639.05 27638283.99 L 15218097.05 27642358.00 L 15240989.05 27650894.00 L 15256509.05 27664280.00 L 15262523.05 27676308.00 L 15264851.05 27698424.00 L 15261359.04 27712198.00 L 15251077.04 27727718.00 L 15236721.04 27737806.00 L 15214217.04 27744208.00 L 15141079.04 27746923.99  z"/>
<path id="N" d="M 15184341.01 28504687.99 L 15216739.01 28500808.00 L 15249331.01 28491496.00 L 15275521.01 28478110.00 L 15292011.01 28460650.00 L 15302293.01 28440668.00 L 15309859.01 28410598.00 L 15310635.01 28388870.00 L 15305397.02 28361710.00 L 15295309.02 28339982.00 L 15277267.02 28318642.00 L 15255733.02 28304480.00 L 15228185.02 28293422.00 L 15186669.02 28287019.99 L 15145347.02 28287407.99 L 15106741.02 28294779.99 L 15074149.02 28308165.99 L 15056689.02 28321551.99 L 15041751.02 28344055.99 L 15033021.02 28370051.99 A 108400.93 108400.93 0 0 0 15046019.01 28451337.99 L 15064061.01 28472677.99 L 15085595.01 28486839.99 L 15113143.01 28498091.99 L 15154659.01 28504299.99 L 15184341.01 28504687.99  zM 15141079.01 28449397.99 L 15112755.01 28443383.99 L 15096265.01 28435235.99 L 15083655.01 28422625.99 A 54383.80 54383.80 0 0 1 15081715.02 28372767.99 L 15094519.02 28357247.99 L 15109845.02 28349099.99 L 15144765.02 28341921.99 L 15187639.02 28340757.99 L 15218097.02 28344832.00 L 15240989.02 28353368.00 L 15256509.02 28366754.00 L 15262523.02 28378782.00 L 15264851.01 28400898.00 L 15261359.01 28414672.00 L 15251077.01 28430192.00 L 15236721.01 28440280.00 L 15214217.01 28446682.00 L 15141079.01 28449397.99  z"/>
<path id="N" d="M 15184341.09 26631423.99 L 15216739.09 26627544.00 L 15249331.09 26618232.00 L 15275521.09 26604846.00 L 15292011.09 26587386.00 L 15302293.09 26567404.00 L 15309859.10 26537334.00 L 15310635.10 26515606.00 L 15305397.10 26488446.00 L 15295309.10 26466718.00 L 15277267.10 26445378.00 L 15255733.10 26431216.00 L 15228185.10 26420158.00 L 15186669.10 26413755.99 L 15145347.10 26414143.99 L 15106741.10 26421515.99 L 15074149.10 26434901.99 L 15056689.10 26448287.99 L 15041751.10 26470791.99 L 15033021.10 26496787.99 A 108400.93 108400.93 0 0 0 15046019.09 26578073.99 L 15064061.09 26599413.99 L 15085595.09 26613575.99 L 15113143.09 26624827.99 L 15154659.09 26631035.99 L 15184341.09 26631423.99  zM 15141079.09 26576133.99 L 15112755.09 26570119.99 L 15096265.09 26561971.99 L 15083655.10 26549361.99 A 54383.80 54383.80 0 0 1 15081715.10 26499503.99 L 15094519.10 26483983.99 L 15109845.10 26475835.99 L 15144765.10 26468657.99 L 15187639.10 26467493.99 L 15218097.10 26471568.00 L 15240989.10 26480104.00 L 15256509.10 26493490.00 L 15262523.10 26505518.00 L 15264851.10 26527634.00 L 15261359.10 26541408.00 L 15251077.09 26556928.00 L 15236721.09 26567016.00 L 15214217.09 26573418.00 L 15141079.09 26576133.99  z"/>
<path id="N" d="M 15208203.00 28727400.00 L 15238273.00 28720416.00 L 15266791.00 28705284.00 L 15284639.00 28688988.00 L 15298995.00 28665902.00 L 15306367.00 28642622.00 L 15309859.01 28613328.00 L 15307143.01 28576080.00 L 15295891.01 28538056.00 L 15247973.01 28538056.00 L 15257867.01 28564052.00 L 15264075.01 28595868.00 L 15262329.00 28619148.00 L 15255345.00 28638354.00 L 15243705.00 28652710.00 L 15224887.00 28664350.00 L 15203353.00 28670752.00 L 15170761.00 28673661.99 L 15132543.00 28669587.99 L 15106159.00 28658723.99 A 62323.79 62323.79 0 0 1 15076283.01 28605761.99 L 15079193.01 28573557.99 L 15091415.01 28538055.99 L 15040781.01 28538055.99 L 15038841.01 28544457.99 L 15032245.01 28576855.99 L 15031275.01 28615073.99 L 15038259.00 28650575.99 L 15049123.00 28672691.99 L 15068717.00 28696165.99 L 15091027.00 28711297.99 L 15118963.00 28722743.99 L 15154271.00 28728757.99 L 15208203.00 28727400.00  z"/>
<path id="N" d="M 15305979.11 26305310.00 L 15299771.11 26266704.00 L 15290459.11 26243036.00 L 15272999.11 26218980.00 L 15253987.11 26203654.00 L 15227021.11 26190850.00 L 15195011.11 26184060.00 L 15160673.11 26182119.99 L 15120709.11 26186775.99 L 15094713.11 26195117.99 L 15069493.11 26211025.99 L 15053779.11 26229455.99 L 15042527.11 26252541.99 L 15035737.11 26288431.99 L 15034767.10 26387371.99 L 15306367.10 26387372.00 L 15305979.11 26305310.00  zM 15263687.10 26336350.00 L 15077447.10 26336349.99 L 15077447.11 26310353.99 L 15079387.11 26289983.99 L 15086371.11 26270195.99 L 15100921.11 26253511.99 L 15121097.11 26243423.99 L 15151167.11 26237991.99 L 15187445.11 26237797.99 L 15214023.11 26243230.00 L 15236915.11 26253512.00 L 15248555.11 26264764.00 L 15258255.11 26283388.00 L 15263687.11 26312100.00 L 15263687.10 26336350.00  z"/>
<path id="N" d="M 12140960.00 22939636.01 L 12164726.00 22934044.01 L 12186861.00 22922394.01 L 12204569.00 22905385.01 L 12217850.00 22881153.01 L 12224607.01 22850863.02 L 12225306.03 22611339.02 L 12056148.03 22611339.00 L 12056148.03 22649784.00 L 12180104.03 22649784.01 L 12179405.01 22848999.01 L 12172881.01 22873697.01 L 12162629.00 22888609.01 L 12149115.00 22896997.01 L 12127912.00 22902123.01 L 12103680.00 22900259.00 L 12079215.00 22893502.00 L 12051954.01 22878124.00 L 12051954.00 22922860.00 L 12075254.00 22933578.00 L 12110437.00 22940335.01 L 12140960.00 22939636.01  z"/>
<path id="N" d="M 14996061.47 24507872.47 m -100354.75 0 a 100354.75 100354.75 0 1 1 200709.51 0a 100354.75 100354.75 0 1 1 -200709.51 0"/>
<path id="N" d="M 12500013.01 22865542.04 L 12555700.01 22865542.04 L 12555700.01 22827330.04 L 12500013.01 22827330.04 L 12500013.03 22611339.04 L 12437569.03 22611339.03 L 12298468.01 22827330.02 L 12298468.01 22865542.02 L 12455510.01 22865542.04 L 12455510.00 22937539.04 L 12500013.00 22937539.04 L 12500013.01 22865542.04  zM 12455510.01 22827330.04 L 12341806.01 22827330.03 L 12455510.02 22653279.04 L 12455510.01 22827330.04  z"/>
<path id="N" d="M 15306367.02 28225716.00 L 15091415.02 28219701.99 L 15225663.02 28181096.00 L 15225663.03 28149086.00 L 15091415.03 28105823.99 L 15306367.03 28098840.00 L 15306367.03 28053832.00 L 15034767.03 28067411.99 L 15034767.03 28126193.99 L 15155241.02 28162859.99 L 15111785.02 28174111.99 L 15034767.02 28198167.99 L 15034767.02 28255979.99 L 15306367.02 28269172.00 L 15306367.02 28225716.00  z"/>
<path id="N" d="M 15306367.03 27991558.00 L 15091415.03 27985543.99 L 15225663.03 27946938.00 L 15225663.04 27914928.00 L 15091415.04 27871665.99 L 15306367.04 27864682.00 L 15306367.04 27819674.00 L 15034767.04 27833253.99 L 15034767.04 27892035.99 L 15155241.04 27928701.99 L 15111785.03 27939953.99 L 15034767.03 27964009.99 L 15034767.03 28021821.99 L 15306367.03 28035014.00 L 15306367.03 27991558.00  z"/>
<path id="N" d="M 14656117.00 30925802.00 L 14668598.00 30895669.00 L 14668598.00 30088582.00 L 14656117.00 30058449.00 L 14625984.00 30045968.00 L 14595851.00 30058449.00 L 14583370.00 30088582.00 L 14583370.00 30853055.00 L 13041339.00 30853055.00 L 13011206.00 30865536.00 L 12998725.00 30895669.00 L 13011206.00 30925802.00 L 13041339.00 30938283.00 L 14625984.00 30938283.00 L 14656117.00 30925802.00  z"/>
<path id="N" d="M 14656117.00 24272259.00 L 14668598.00 24242126.00 L 14668598.00 23435039.00 L 14656117.00 23404906.00 L 14625984.00 23392425.00 L 13041339.00 23392425.00 L 13011206.00 23404906.00 L 12998725.00 23435039.00 L 13011206.00 23465172.00 L 13041339.00 23477653.00 L 14583370.00 23477653.00 L 14583370.00 24242126.00 L 14595851.00 24272259.00 L 14625984.00 24284740.00 L 14656117.00 24272259.00  z"/>
<path id="N" d="M 15306367.12 25969302.00 L 15263299.12 25969302.00 L 15263299.12 26080852.00 L 15187833.12 26080851.99 L 15187833.12 25974539.99 L 15145541.12 25974539.99 L 15145541.12 26080851.99 L 15078029.12 26080851.99 L 15078029.12 25969301.99 L 15034767.12 25969301.99 L 15034767.11 26132843.99 L 15306367.11 26132844.00 L 15306367.12 25969302.00  z"/>
<path id="N" d="M 15306367.07 27056284.00 L 15252823.07 27040764.00 L 15252823.08 26946092.00 L 15306367.08 26930960.00 L 15306367.08 26874506.00 L 15034767.08 26955015.99 L 15034767.07 27026407.99 L 15306367.07 27106918.00 L 15306367.07 27056284.00  zM 15211113.07 27028542.00 L 15084625.08 26992845.99 L 15211113.08 26957538.00 L 15211113.07 27028542.00  z"/>
<path id="N" d="M 15306367.08 26807576.00 L 15109263.08 26807575.99 L 15306367.09 26719694.00 L 15306367.09 26657420.00 L 15034767.09 26657419.99 L 15034767.09 26703979.99 L 15229737.09 26703980.00 L 15197921.09 26716978.00 L 15034767.08 26791279.99 L 15034767.08 26854135.99 L 15306367.08 26854136.00 L 15306367.08 26807576.00  z"/>
<path id="N" d="M 15306367.05 27510050.00 L 15109263.05 27510049.99 L 15306367.06 27422168.00 L 15306367.06 27359894.00 L 15034767.06 27359893.99 L 15034767.06 27406453.99 L 15229737.06 27406454.00 L 15197921.06 27419452.00 L 15034767.05 27493753.99 L 15034767.05 27556609.99 L 15306367.05 27556610.00 L 15306367.05 27510050.00  z"/>
<path id="N" d="M 12175803.00 30484857.00 L 12188284.00 30454724.00 L 12188284.00 23875984.00 L 12175803.00 23845851.00 L 12145670.00 23833370.00 L 12115537.00 23845851.00 L 12103056.00 23875984.00 L 12103056.00 30454724.00 L 12115537.00 30484857.00 L 12145670.00 30497338.00 L 12175803.00 30484857.00  z"/>
</g>
</svg>
