<svg width="85.00000018mm" height="85.00000018mm" viewBox="0 0 33464567 33464567"  version="1.1" xmlns="http://www.w3.org/2000/svg" xmlns:xlink="http://www.w3.org/1999/xlink">
<desc>
Origin 11811024 10629921 Bound 11811024 10629921 33464567 33464567
</desc>
<g fill-rule="evenodd" fill="rgb(0, 0, 255)" stroke="black" stroke-width="1" transform="translate(0, 33464567) scale(1, -1) translate(-11811024, -10629921)">
<path id="N" d="M 35954320.00 34790476.41 L 35954320.00 29732855.00 L 37891639.00 27795536.00 L 37904320.00 27764921.00 L 37904320.00 26178470.00 L 37940064.00 26142726.00 L 37952745.00 26112111.00 L 37952745.00 25947731.00 L 37940064.00 25917116.00 L 37904320.00 25881372.00 L 37904320.00 24600099.00 L 37891639.00 24569484.00 L 37874321.00 24552166.00 L 37874321.00 24007676.00 L 37891639.00 23990358.00 L 37904320.00 23959743.00 L 37904320.00 23729921.00 L 37891639.00 23699306.00 L 37354320.00 23161987.00 L 37354320.00 22578940.46 L 37361024.00 22580274.00 A 100353.26 100353.26 0 1 0 37268310.00 22518324.00 L 37270916.07 22522224.24 L 37267728.00 22529921.00 L 37267728.00 23179921.00 L 37280409.00 23210536.00 L 37817728.00 23747855.00 L 37817728.00 23941809.00 L 37800410.00 23959127.00 L 37787729.00 23989742.00 L 37787729.00 24570100.00 L 37800410.00 24600715.00 L 37817728.00 24618033.00 L 37817728.00 25899306.00 L 37830409.00 25929921.00 L 37866153.00 25965665.00 L 37866153.00 26094177.00 L 37830409.00 26129921.00 L 37817728.00 26160536.00 L 37817728.00 27746987.00 L 35880409.00 29684306.00 L 35867728.00 29714921.00 L 35867728.00 34790476.41 L 35840064.00 34808961.00 A 100353.26 100353.26 0 1 0 35954320.00 34790476.41  z"/>
<path id="N" d="M 36551171.01 26803129.86 m -297844.08 0 a 297844.08 297844.08 0 1 1 595688.15 0a 297844.08 297844.08 0 1 1 -595688.15 0M 36551180.24 26803148.93 m -204721.07 0 a 204721.07 204721.07 0 1 1 409442.13 0a 204721.07 204721.07 0 1 1 -409442.13 0"/>
<path id="N" d="M 23635432.47 42336219.47 m -100354.75 0 a 100354.75 100354.75 0 1 1 200709.51 0a 100354.75 100354.75 0 1 1 -200709.51 0"/>
<path id="N" d="M 18135432.47 39536219.47 m -100354.75 0 a 100354.75 100354.75 0 1 1 200709.51 0a 100354.75 100354.75 0 1 1 -200709.51 0"/>
<path id="N" d="M 37703738.00 41068324.00 L 37707212.08 41050859.00 L 37732594.00 41050859.00 L 37763209.00 41038178.00 L 38943746.04 39857640.96 L 38976378.00 39864132.00 A 100353.26 100353.26 0 1 0 38882516.04 39796410.96 L 37714660.00 40964267.00 L 37685529.37 40964267.00 L 37681984.00 40958961.00 A 100353.26 100353.26 0 1 0 37703738.00 41068324.00  z"/>
<path id="N" d="M 26771654.00 42546495.00 L 26771654.00 41732283.00 L 27260246.00 41732283.00 L 27260246.00 40870119.00 L 27227899.00 40837772.00 A 161528.77 161528.77 0 1 1 27520630.00 40716518.00 L 27520630.00 40762264.00 L 28388690.00 41630324.00 L 28870451.00 41630324.00 L 29322950.00 41177825.00 L 29356028.00 41155723.00 L 29395046.00 41147962.00 L 29868744.00 41147962.00 L 30458754.46 40557951.54 L 30447022.74 40498971.84 L 30422070.00 40488636.00 A 161528.81 161528.81 0 1 1 30646117.00 40264589.00 L 30656452.84 40289541.74 L 30715432.54 40301273.46 L 31096657.79 39920048.21 L 31068334.88 39877660.09 L 31042537.00 39888346.00 L 30979511.00 39888346.00 L 30921283.00 39864227.00 L 30893182.82 39836126.82 L 30838859.88 39848975.98 L 30835500.47 39863421.47 L 30842968.00 39870889.00 A 161528.77 161528.77 0 1 1 30574356.00 39870889.00 L 30596507.00 39848738.00 L 30596507.00 34812421.13 L 30377784.00 34593699.00 L 30353472.00 34557313.00 L 30344935.00 34514387.97 L 30344935.00 34227687.00 L 30010422.00 33893174.00 L 29951442.30 33904905.72 L 29945330.00 33919662.00 A 161528.81 161528.81 0 1 1 29721283.00 33695615.00 L 29736039.28 33689502.70 L 29747771.00 33630523.00 L 29297025.00 33179777.00 L 29272713.00 33143391.00 L 29264176.00 33100465.97 L 29264175.00 32890821.00 L 29272713.00 32847901.00 L 29297025.00 32811515.00 L 29352599.00 32755941.41 L 29352599.00 32698408.85 L 29334873.04 32671880.00 L 28247741.28 32671880.00 L 28227030.43 32721880.43 L 28245330.00 32740180.00 A 161528.77 161528.77 0 0 1 28079511.00 32988346.00 L 28064642.04 32982187.03 L 28023068.00 33009965.84 L 28023068.00 33319836.00 L 28015307.00 33358854.00 L 27993205.00 33391932.00 L 27569449.00 33815688.00 L 27569449.00 33861434.00 A 161528.81 161528.81 0 1 1 27379511.00 33671496.00 L 27425257.00 33671496.00 L 27562595.75 33534157.25 L 27548033.14 33500899.64 L 27537695.77 33488346.00 L 27479511.00 33488346.00 A 161528.81 161528.81 0 0 1 27479511.00 33171496.00 L 27525257.00 33171496.00 L 27679150.00 33017603.00 L 27679150.00 33010238.96 L 27670640.00 32970100.00 L 27670640.00 32689742.00 L 27678401.00 32650724.00 L 27700503.00 32617646.00 L 27960325.00 32357824.00 L 27993403.00 32335722.00 L 28032421.00 32327961.00 L 29290187.00 32327962.00 L 29313155.00 32304994.00 L 29346233.00 32282892.00 L 29385251.00 32275131.00 L 29981010.00 32275131.00 L 30020028.00 32282892.00 L 30053106.00 32304994.00 L 30979186.00 33231074.00 L 31001288.00 33264152.00 L 31009049.00 33303170.00 L 31009049.00 33871622.00 L 31233120.00 34095693.00 L 31255222.00 34128771.00 L 31262983.00 34167789.00 L 31262983.00 34537688.00 L 33483120.00 36757825.00 L 33505222.00 36790903.00 L 33512983.00 36829921.00 L 33512983.00 37007833.00 L 33545330.00 37040180.00 L 33564581.56 37086657.05 L 33615643.42 37106306.58 L 35327328.35 35394621.65 L 35321282.40 35364226.40 A 161527.72 161527.72 0 0 1 35276718.00 35140180.00 L 35309065.00 35107833.00 L 35309065.00 32863206.98 L 35267733.15 32835590.00 A 161527.68 161527.68 0 1 1 35267733.22 32518740.00 L 35304464.44 32481382.78 L 35304464.44 32479246.22 L 35288274.37 32462780.23 L 35257925.90 32441889.00 L 35204708.00 32441889.00 A 161528.81 161528.81 0 1 1 35267734.00 32125039.00 L 35282686.48 32131232.56 L 35332687.00 32097823.37 L 35332687.00 29906299.00 L 35340448.00 29867281.00 L 35362550.00 29834203.00 L 37007874.00 28188879.00 L 37007874.00 22440945.00 L 37205690.30 22440945.00 L 37226718.00 22390180.00 A 161528.81 161528.81 0 0 1 37495330.00 22390180.00 L 37516357.70 22440945.00 L 37926718.00 22440180.00 A 161528.81 161528.81 0 0 1 38195646.88 22440945.00 L 45071678.00 22440945.00 L 45071678.00 14960630.00 L 44685040.00 14960630.00 L 44685040.00 11032448.79 L 44638554.82 10996778.81 A 979317.46 979317.46 0 0 0 44158534.69 10833834.00 L 22047244.00 10833834.00 L 22047244.00 11650458.00 A 160563.52 160563.52 0 0 1 22207809.00 11811023.00 L 22207809.00 15193765.00 L 27398490.00 15193765.00 L 27398490.00 13129921.00 A 160563.52 160563.52 0 0 1 27559055.00 12969356.00 L 34300134.00 12969355.00 L 34346398.46 12978558.20 L 34343148.00 12994899.00 A 100353.26 100353.26 0 0 0 34543854.00 12994899.00 L 34540603.54 12978558.20 L 34586873.03 12969356.00 L 40157481.00 12969356.00 A 160563.52 160563.52 0 0 1 40318046.00 13129921.00 L 40318046.00 17158969.72 L 40368046.43 17179680.57 L 40379243.00 17168484.00 A 263025.74 263025.74 0 0 1 40782385.00 17477825.00 L 40766135.43 17505969.50 L 40795002.93 17555970.00 L 42211024.00 17555970.00 A 160563.52 160563.52 0 0 1 42371589.00 17716535.00 L 42371589.00 20866141.00 A 160563.52 160563.52 0 0 1 42211024.00 21026706.00 L 37401575.00 21026706.00 A 160563.52 160563.52 0 0 1 37241010.00 20866141.00 L 37007874.00 20866141.00 L 37007874.00 17716535.00 L 30314961.00 17716535.00 L 30314961.00 22280380.00 L 31102363.00 22280380.00 A 160563.52 160563.52 0 0 1 31262928.00 22440945.00 L 31262928.00 30708661.00 A 160563.52 160563.52 0 0 1 31102363.00 30869226.00 L 30314961.00 30869226.00 L 30314961.00 31102362.00 L 26377953.00 31102362.00 L 26377953.00 19291338.00 L 23228347.00 19291338.00 L 23228347.00 43205127.00 L 26113022.00 43205127.00 L 26771654.00 42546495.00  zM 23635433.00 13945664.03 m -200711.42 0 a 200711.42 200711.42 0 1 1 401422.84 0a 200711.42 200711.42 0 1 1 -401422.84 0M 24668337.00 13910723.02 m -161528.77 0 a 161528.77 161528.77 0 1 1 323057.53 0a 161528.77 161528.77 0 1 1 -323057.53 0M 29617324.00 12604724.02 m -161528.77 0 a 161528.77 161528.77 0 1 1 323057.53 0a 161528.77 161528.77 0 1 1 -323057.53 0M 32117324.00 12604724.02 m -161528.77 0 a 161528.77 161528.77 0 1 1 323057.53 0a 161528.77 161528.77 0 1 1 -323057.53 0M 32117324.00 18104719.03 m -200711.42 0 a 200711.42 200711.42 0 1 1 401422.84 0a 200711.42 200711.42 0 1 1 -401422.84 0M 34735434.00 12623622.02 m -161528.77 0 a 161528.77 161528.77 0 1 1 323057.53 0a 161528.77 161528.77 0 1 1 -323057.53 0M 34435434.00 18123622.02 m -161528.77 0 a 161528.77 161528.77 0 1 1 323057.53 0a 161528.77 161528.77 0 1 1 -323057.53 0M 32153401.00 19122703.02 m -161528.77 0 a 161528.77 161528.77 0 1 1 323057.53 0a 161528.77 161528.77 0 1 1 -323057.53 0M 34335434.00 19223622.02 m -161528.77 0 a 161528.77 161528.77 0 1 1 323057.53 0a 161528.77 161528.77 0 1 1 -323057.53 0M 23635434.00 21863780.02 m -161528.77 0 a 161528.77 161528.77 0 1 1 323057.53 0a 161528.77 161528.77 0 1 1 -323057.53 0M 24735434.00 21963780.02 m -161528.77 0 a 161528.77 161528.77 0 1 1 323057.53 0a 161528.77 161528.77 0 1 1 -323057.53 0M 23633345.00 24183071.03 m -200711.42 0 a 200711.42 200711.42 0 1 1 401422.84 0a 200711.42 200711.42 0 1 1 -401422.84 0M 24653413.00 24145813.02 m -161528.77 0 a 161528.77 161528.77 0 1 1 323057.53 0a 161528.77 161528.77 0 1 1 -323057.53 0M 36551181.00 23803143.96 m -358345.67 0 a 358345.67 358345.67 0 1 1 716691.35 0a 358345.67 358345.67 0 1 1 -716691.35 0M 36551181.00 24803143.96 m -358345.67 0 a 358345.67 358345.67 0 1 1 716691.35 0a 358345.67 358345.67 0 1 1 -716691.35 0M 36551181.00 25803143.96 m -358345.67 0 a 358345.67 358345.67 0 1 1 716691.35 0a 358345.67 358345.67 0 1 1 -716691.35 0M 36551181.00 26803143.96 m -358345.67 0 a 358345.67 358345.67 0 1 1 716691.35 0a 358345.67 358345.67 0 1 1 -716691.35 0M 37235434.00 12623622.02 m -161528.77 0 a 161528.77 161528.77 0 1 1 323057.53 0a 161528.77 161528.77 0 1 1 -323057.53 0M 38811024.00 11329921.02 m -161528.77 0 a 161528.77 161528.77 0 1 1 323057.53 0a 161528.77 161528.77 0 1 1 -323057.53 0M 41495473.00 15600984.00 L 41378040.19 15600984.00 L 41393147.00 15574818.00 L 41469307.00 15498658.00 L 41495473.00 15483551.19 L 41495473.00 15600984.00  zM 41720472.24 15825983.93 m -204721.07 0 a 204721.07 204721.07 0 1 1 409442.13 0a 204721.07 204721.07 0 1 1 -409442.13 0M 41495473.00 16168416.81 L 41469307.00 16153310.00 L 41393147.00 16077150.00 L 41378040.19 16050984.00 L 41495473.00 16050984.00 L 41495473.00 16168416.81  zM 41495473.00 16782086.00 L 41378040.19 16782086.00 L 41393147.00 16755920.00 L 41469307.00 16679760.00 L 41495473.00 16664653.19 L 41495473.00 16782086.00  zM 41495473.00 17349518.81 L 41469307.00 17334412.00 L 41393147.00 17258252.00 L 41378040.19 17232086.00 L 41495473.00 17232086.00 L 41495473.00 17349518.81  zM 41720472.24 17007085.93 m -204721.07 0 a 204721.07 204721.07 0 1 1 409442.13 0a 204721.07 204721.07 0 1 1 -409442.13 0M 42618111.00 13287395.52 m -772385.62 0 a 772385.62 772385.62 0 1 1 1544771.25 0a 772385.62 772385.62 0 1 1 -1544771.25 0M 42062905.81 15600984.00 L 41945473.00 15600984.00 L 41945473.00 15483551.19 L 41971639.00 15498658.00 L 42047799.00 15574818.00 L 42062905.81 15600984.00  zM 41945473.00 16168416.81 L 41945473.00 16050984.00 L 42062905.81 16050984.00 L 42047799.00 16077150.00 L 41971639.00 16153310.00 L 41945473.00 16168416.81  zM 43309055.00 16233464.00 L 42494095.00 16233464.00 L 42494095.00 15418504.00 L 43309055.00 15418504.00 L 43309055.00 16233464.00  zM 42062905.81 16782086.00 L 41945473.00 16782086.00 L 41945473.00 16664653.19 L 41971639.00 16679760.00 L 42047799.00 16755920.00 L 42062905.81 16782086.00  zM 41945473.00 17349518.81 L 41945473.00 17232086.00 L 42062905.81 17232086.00 L 42047799.00 17258252.00 L 41971639.00 17334412.00 L 41945473.00 17349518.81  zM 42901575.00 17007087.57 m -410994.60 0 a 410994.60 410994.60 0 1 1 821989.21 0a 410994.60 410994.60 0 1 1 -821989.21 0M 44082678.00 17377161.86 m -263040.40 0 a 263040.40 263040.40 0 1 1 526080.80 0a 263040.40 263040.40 0 1 1 -526080.80 0M 23635434.00 26981891.02 m -161528.77 0 a 161528.77 161528.77 0 1 1 323057.53 0a 161528.77 161528.77 0 1 1 -323057.53 0M 24735434.00 27081891.02 m -161528.77 0 a 161528.77 161528.77 0 1 1 323057.53 0a 161528.77 161528.77 0 1 1 -323057.53 0M 23635434.00 29299996.03 m -200711.42 0 a 200711.42 200711.42 0 1 1 401422.84 0a 200711.42 200711.42 0 1 1 -401422.84 0M 24653413.00 29263923.02 m -161528.77 0 a 161528.77 161528.77 0 1 1 323057.53 0a 161528.77 161528.77 0 1 1 -323057.53 0M 23635434.00 32100001.02 m -161528.77 0 a 161528.77 161528.77 0 1 1 323057.53 0a 161528.77 161528.77 0 1 1 -323057.53 0M 23635434.00 34418106.03 m -200711.42 0 a 200711.42 200711.42 0 1 1 401422.84 0a 200711.42 200711.42 0 1 1 -401422.84 0M 24735434.00 32200001.02 m -161528.77 0 a 161528.77 161528.77 0 1 1 323057.53 0a 161528.77 161528.77 0 1 1 -323057.53 0M 24519107.00 34292292.00 L 24551454.00 34259945.00 L 24551454.00 33987532.00 L 24559215.00 33948514.00 L 24581317.00 33915436.00 L 25852599.00 32644154.00 L 25852599.00 32598408.00 A 161528.81 161528.81 0 1 1 26042537.00 32788346.00 L 25996791.00 32788346.00 L 24755372.00 34029765.00 L 24755372.00 34259945.00 L 24787719.00 34292292.00 A 161528.77 161528.77 0 1 1 24519107.00 34292292.00  zM 23635434.00 37218111.02 m -161528.77 0 a 161528.77 161528.77 0 1 1 323057.53 0a 161528.77 161528.77 0 1 1 -323057.53 0M 24735434.00 37318111.02 m -161528.77 0 a 161528.77 161528.77 0 1 1 323057.53 0a 161528.77 161528.77 0 1 1 -323057.53 0M 28311024.00 34529921.02 m -161528.77 0 a 161528.77 161528.77 0 1 1 323057.53 0a 161528.77 161528.77 0 1 1 -323057.53 0M 26611024.00 37629921.02 m -161528.77 0 a 161528.77 161528.77 0 1 1 323057.53 0a 161528.77 161528.77 0 1 1 -323057.53 0M 23635434.00 39536216.03 m -200711.42 0 a 200711.42 200711.42 0 1 1 401422.84 0a 200711.42 200711.42 0 1 1 -401422.84 0M 24653413.00 39500143.02 m -161528.77 0 a 161528.77 161528.77 0 1 1 323057.53 0a 161528.77 161528.77 0 1 1 -323057.53 0M 23635434.00 42336221.02 m -161528.77 0 a 161528.77 161528.77 0 1 1 323057.53 0a 161528.77 161528.77 0 1 1 -323057.53 0M 24735434.00 42436221.02 m -161528.77 0 a 161528.77 161528.77 0 1 1 323057.53 0a 161528.77 161528.77 0 1 1 -323057.53 0M 34602599.00 34111434.00 L 34602599.00 34065688.00 L 33519177.40 32982266.40 L 33472983.00 33001400.75 L 33472983.00 33497688.00 L 33696791.00 33721496.00 L 33742537.00 33721496.00 A 161528.81 161528.81 0 1 1 33552599.00 33911434.00 L 33552599.00 33865688.00 L 33298928.00 33612017.00 L 33276826.00 33578939.00 L 33269065.14 33539921.71 L 33219449.00 33540848.76 L 33219449.00 33561434.00 A 161528.81 161528.81 0 1 1 33029511.00 33371496.00 L 33075257.00 33371496.00 L 33129065.00 33317688.00 L 33129065.00 32989389.75 L 33082870.60 32970255.40 L 32112983.00 33940143.00 L 32112983.00 33957833.00 L 32145330.00 33990180.00 A 161528.77 161528.77 0 1 1 31876718.00 33990180.00 L 31909065.00 33957833.00 L 31909065.00 33897910.00 L 31916826.00 33858892.00 L 31938928.00 33825814.00 L 32989065.00 32775677.00 L 32989065.00 24152154.00 L 32738928.00 23902017.00 L 32716826.00 23868939.00 L 32709065.00 23829921.00 L 32709065.00 22452009.00 L 32676718.00 22419662.00 A 161528.77 161528.77 0 0 1 32900765.00 22195615.00 L 32921032.56 22215882.56 L 32963420.67 22187559.65 L 32952599.00 22161434.00 A 161528.77 161528.77 0 0 1 33200764.22 21995614.68 L 33218742.83 21992038.53 L 33236066.00 21950217.00 A 161528.81 161528.81 0 0 1 33460113.00 21905652.00 L 33479054.15 21924593.15 L 33521641.16 21938519.15 L 33543343.94 21923554.06 L 33571283.00 21895615.00 A 161528.77 161528.77 0 1 1 33692537.00 22188346.00 L 33646791.00 22188346.00 L 33612983.00 22222154.00 L 33612983.00 32787688.00 L 33850498.66 33025203.66 L 33908018.19 33012011.77 L 33920812.00 32981125.00 A 161528.81 161528.81 0 1 1 34144859.00 33205172.00 L 34113972.23 33217965.81 L 34100780.34 33275485.34 L 34746791.00 33921496.00 L 34792537.00 33921496.00 A 161528.81 161528.81 0 1 1 34602599.00 34111434.00  zM 34842520.00 32283464.02 m -161528.77 0 a 161528.77 161528.77 0 1 1 323057.53 0a 161528.77 161528.77 0 1 1 -323057.53 0M 34055118.00 32283464.02 m -161528.77 0 a 161528.77 161528.77 0 1 1 323057.53 0a 161528.77 161528.77 0 1 1 -323057.53 0M 34448819.00 32283464.02 m -161528.77 0 a 161528.77 161528.77 0 1 1 323057.53 0a 161528.77 161528.77 0 1 1 -323057.53 0M 34055118.00 32677165.02 m -161528.77 0 a 161528.77 161528.77 0 1 1 323057.53 0a 161528.77 161528.77 0 1 1 -323057.53 0M 34448819.00 32677165.02 m -161528.77 0 a 161528.77 161528.77 0 1 1 323057.53 0a 161528.77 161528.77 0 1 1 -323057.53 0M 34842520.00 32677165.02 m -161528.77 0 a 161528.77 161528.77 0 1 1 323057.53 0a 161528.77 161528.77 0 1 1 -323057.53 0M 34842520.00 33070866.02 m -161528.77 0 a 161528.77 161528.77 0 1 1 323057.53 0a 161528.77 161528.77 0 1 1 -323057.53 0M 34448819.00 33070866.02 m -161528.77 0 a 161528.77 161528.77 0 1 1 323057.53 0a 161528.77 161528.77 0 1 1 -323057.53 0M 29198662.00 40446330.00 A 157437.01 157437.01 0 0 1 28908190.00 40322817.00 A 161528.81 161528.81 0 0 1 29198662.00 40262330.00 A 157437.01 157437.01 0 0 1 29489134.00 40385843.00 A 161528.81 161528.81 0 0 1 29198662.00 40446330.00  zM 29724410.00 40354330.02 m -161528.77 0 a 161528.77 161528.77 0 1 1 323057.53 0a 161528.77 161528.77 0 1 1 -323057.53 0M 30118111.00 40354330.02 m -161528.77 0 a 161528.77 161528.77 0 1 1 323057.53 0a 161528.77 161528.77 0 1 1 -323057.53 0"/>
<path id="N" d="M 37007874.00 40464907.75 L 36961679.60 40445773.40 L 36905436.00 40502017.00 L 36872358.00 40524119.00 L 36833340.00 40531880.00 L 32333112.00 40531880.00 L 32300765.00 40564227.00 A 161528.77 161528.77 0 1 1 32300765.00 40295615.00 L 32333112.00 40327962.00 L 36791107.00 40327962.00 L 37007874.00 40111195.00 L 37007874.00 37431880.00 L 36522611.00 37431880.00 L 36483593.00 37424119.00 L 36450515.00 37402017.00 L 36432277.00 37383779.00 L 36385810.00 37383779.00 A 161528.81 161528.81 0 0 1 36283017.00 37135613.00 L 36321701.00 37096929.00 L 36283017.00 37058245.00 A 161528.77 161528.77 0 0 1 36385810.00 36810079.00 L 36431556.00 36810079.00 L 36583810.00 36657825.00 L 36616888.00 36635723.00 L 36655906.00 36627962.00 L 37007874.00 36627962.00 L 37007874.00 35731880.00 L 35490586.00 35731880.00 L 33644504.43 37577961.57 L 33665215.28 37627962.00 L 35611024.00 37627962.00 L 35650042.00 37635723.00 L 35683120.00 37657825.00 L 36696791.00 38671496.00 L 36742537.00 38671496.00 A 161528.81 161528.81 0 1 1 36552599.00 38861434.00 L 36552599.00 38815688.00 L 35568791.00 37831880.00 L 33653257.00 37831880.00 L 32412983.00 39072154.00 L 32412983.00 39529921.00 L 32405222.00 39568939.00 L 32383120.00 39602017.00 L 30383120.00 41602017.00 L 30350042.00 41624119.00 L 30311024.00 41631880.00 L 29553257.00 41631880.00 L 29499048.40 41686088.60 L 29518182.75 41732283.00 L 37007874.00 41732283.00 L 37007874.00 40464907.75  z"/>
<path id="N" d="M 37007874.00 29025580.75 L 36961679.60 29006446.40 L 36212983.00 29755143.00 L 36212983.00 34018298.05 L 36210671.00 34029921.00 L 36212983.00 34041543.95 L 36212983.00 34387688.00 L 36596791.00 34771496.00 L 36642537.00 34771496.00 A 161528.81 161528.81 0 1 1 36452599.00 34961434.00 L 36452599.00 34915688.00 L 36062983.43 34526072.43 L 36012983.00 34546783.28 L 36012983.00 34757833.00 L 36045330.00 34790180.00 A 161528.77 161528.77 0 1 1 35776718.00 34790180.00 L 35809065.00 34757833.00 L 35809065.00 29746783.28 L 35759064.57 29726072.43 L 35536605.00 29948532.00 L 35536605.00 32759355.00 L 35528844.00 32798373.00 L 35512983.00 32822110.68 L 35512983.00 33618298.05 L 35510671.00 33629921.00 L 35512983.00 33641543.95 L 35512983.00 34018298.05 L 35510671.00 34029921.00 L 35512983.00 34041543.95 L 35512983.00 35107833.00 L 35545330.00 35140180.00 L 35569449.00 35198408.00 L 35569449.00 35261434.00 L 35561298.26 35281111.48 L 35594707.45 35331112.00 L 37007874.00 35331112.00 L 37007874.00 29025580.75  z"/>
<path id="N" d="M 44888189.00 38850072.00 L 44533859.00 38850072.00 A 180637.35 180637.35 0 1 0 44533859.00 39211344.00 L 44888189.00 39211344.00 A 180634.12 180634.12 0 0 0 44888189.00 38850072.00  zM 44868504.00 39151132.00 L 44553544.00 39151132.00 A 120431.73 120431.73 0 0 1 44553544.00 38910284.00 L 44868504.00 38910284.00 A 120431.73 120431.73 0 1 1 44868504.00 39151132.00  z"/>
<path id="N" d="M 44888189.00 35448498.00 L 44533859.00 35448498.00 A 180637.35 180637.35 0 1 0 44533859.00 35809770.00 L 44888189.00 35809770.00 A 180634.12 180634.12 0 1 0 44888189.00 35448498.00  zM 44868504.00 35749558.00 L 44553544.00 35749558.00 A 120431.73 120431.73 0 0 1 44553544.00 35508710.00 L 44868504.00 35508710.00 A 120431.73 120431.73 0 1 1 44868504.00 35749558.00  z"/>
<path id="N" d="M 43272048.00 35418392.00 L 42858662.00 35418392.00 A 210745.76 210745.76 0 0 0 42858662.00 35839876.00 L 43272048.00 35839876.00 A 210738.62 210738.62 0 0 0 43272048.00 35418392.00  zM 43281890.00 35749558.00 L 42848820.00 35749558.00 A 120431.73 120431.73 0 0 1 42848820.00 35508710.00 L 43281890.00 35508710.00 A 120431.73 120431.73 0 1 1 43281890.00 35749558.00  z"/>
<path id="N" d="M 43272048.00 38819966.00 L 42858662.00 38819966.00 A 210745.76 210745.76 0 0 0 42858662.00 39241450.00 L 43272048.00 39241450.00 A 210738.62 210738.62 0 0 0 43272048.00 38819966.00  zM 43281890.00 39151132.00 L 42848820.00 39151132.00 A 120431.73 120431.73 0 0 1 42848820.00 38910284.00 L 43281890.00 38910284.00 A 120431.73 120431.73 0 1 1 43281890.00 39151132.00  z"/>
<path id="N" d="M 18012798.61 37329921.00 A 98035.69 98035.69 0 1 0 17972621.00 37322635.00 L 18009249.39 37329921.00 A 98035.69 98035.69 0 1 0 18012798.61 37329921.00  z"/>
<path id="N" d="M 31787805.00 39228901.00 L 31787805.00 38976378.00 L 31795566.00 38937360.00 L 31817668.00 38904282.00 L 33387409.58 37334540.42 L 33367760.05 37283478.56 L 33321283.00 37264227.00 L 33276718.00 37219662.00 L 33252599.00 37161434.00 L 33252599.00 37134540.45 L 33244336.15 37096608.85 L 33206404.55 37088346.00 L 33179511.00 37088346.00 A 161528.81 161528.81 0 0 1 33052599.00 36961434.00 L 33052599.00 36915688.00 L 32338928.00 36202017.00 L 32316826.00 36168939.00 L 32309065.00 36129921.00 L 32309065.00 36072154.00 L 31169373.40 34932462.40 L 31123179.00 34951596.75 L 31123179.00 39618029.00 L 31145330.00 39640180.00 L 31169449.00 39698408.00 L 31169449.00 39761434.00 L 31158763.09 39787231.88 L 31201151.21 39815554.79 L 31787805.00 39228901.00  z"/>
<path id="N" d="M 18435787.00 37718111.00 L 18431088.19 37694489.00 L 18435787.00 37670867.00 A 100353.26 100353.26 0 0 0 18235081.00 37670867.00 L 18239779.81 37694489.00 L 18235081.00 37718111.00 A 100353.26 100353.26 0 1 0 18435787.00 37718111.00  z"/>
<path id="N" d="M 18335431.47 17245667.47 m -100354.75 0 a 100354.75 100354.75 0 1 1 200709.51 0a 100354.75 100354.75 0 1 1 -200709.51 0"/>
<path id="N" d="M 26035432.47 18863778.47 m -100354.75 0 a 100354.75 100354.75 0 1 1 200709.51 0a 100354.75 100354.75 0 1 1 -200709.51 0"/>
<path id="N" d="M 18335431.47 16645667.47 m -100354.75 0 a 100354.75 100354.75 0 1 1 200709.51 0a 100354.75 100354.75 0 1 1 -200709.51 0"/>
<path id="N" d="M 18035431.47 16945667.47 m -100354.75 0 a 100354.75 100354.75 0 1 1 200709.51 0a 100354.75 100354.75 0 1 1 -200709.51 0"/>
<path id="N" d="M 25756062.47 16045667.47 m -100354.75 0 a 100354.75 100354.75 0 1 1 200709.51 0a 100354.75 100354.75 0 1 1 -200709.51 0"/>
<path id="N" d="M 37635432.47 20223620.47 m -100354.75 0 a 100354.75 100354.75 0 1 1 200709.51 0a 100354.75 100354.75 0 1 1 -200709.51 0"/>
<path id="N" d="M 40551179.47 24606297.47 m -100354.75 0 a 100354.75 100354.75 0 1 1 200709.51 0a 100354.75 100354.75 0 1 1 -200709.51 0"/>
<path id="N" d="M 18335432.47 27181889.47 m -100354.75 0 a 100354.75 100354.75 0 1 1 200709.51 0a 100354.75 100354.75 0 1 1 -200709.51 0"/>
<path id="N" d="M 38135432.47 18223620.47 m -100354.75 0 a 100354.75 100354.75 0 1 1 200709.51 0a 100354.75 100354.75 0 1 1 -200709.51 0"/>
<path id="N" d="M 25735432.47 18663778.47 m -100354.75 0 a 100354.75 100354.75 0 1 1 200709.51 0a 100354.75 100354.75 0 1 1 -200709.51 0"/>
<path id="N" d="M 23735432.47 18163778.47 m -100354.75 0 a 100354.75 100354.75 0 1 1 200709.51 0a 100354.75 100354.75 0 1 1 -200709.51 0"/>
<path id="N" d="M 18035431.47 17245667.47 m -100354.75 0 a 100354.75 100354.75 0 1 1 200709.51 0a 100354.75 100354.75 0 1 1 -200709.51 0"/>
<path id="N" d="M 37435432.47 20523620.47 m -100354.75 0 a 100354.75 100354.75 0 1 1 200709.51 0a 100354.75 100354.75 0 1 1 -200709.51 0"/>
<path id="N" d="M 18035432.47 22363778.47 m -100354.75 0 a 100354.75 100354.75 0 1 1 200709.51 0a 100354.75 100354.75 0 1 1 -200709.51 0"/>
<path id="N" d="M 30017322.47 20225353.47 m -100354.75 0 a 100354.75 100354.75 0 1 1 200709.51 0a 100354.75 100354.75 0 1 1 -200709.51 0"/>
<path id="N" d="M 18335432.47 22063778.47 m -100354.75 0 a 100354.75 100354.75 0 1 1 200709.51 0a 100354.75 100354.75 0 1 1 -200709.51 0"/>
<path id="N" d="M 18335432.47 21763778.47 m -100354.75 0 a 100354.75 100354.75 0 1 1 200709.51 0a 100354.75 100354.75 0 1 1 -200709.51 0"/>
<path id="N" d="M 44488187.47 24212596.47 m -100354.75 0 a 100354.75 100354.75 0 1 1 200709.51 0a 100354.75 100354.75 0 1 1 -200709.51 0"/>
<path id="N" d="M 39766792.47 24013949.47 m -100354.75 0 a 100354.75 100354.75 0 1 1 200709.51 0a 100354.75 100354.75 0 1 1 -200709.51 0"/>
<path id="N" d="M 18335431.47 16945667.47 m -100354.75 0 a 100354.75 100354.75 0 1 1 200709.51 0a 100354.75 100354.75 0 1 1 -200709.51 0"/>
<path id="N" d="M 18335432.47 22363778.47 m -100354.75 0 a 100354.75 100354.75 0 1 1 200709.51 0a 100354.75 100354.75 0 1 1 -200709.51 0"/>
<path id="N" d="M 44881888.47 24212596.47 m -100354.75 0 a 100354.75 100354.75 0 1 1 200709.51 0a 100354.75 100354.75 0 1 1 -200709.51 0"/>
<path id="N" d="M 44094487.47 24212596.47 m -100354.75 0 a 100354.75 100354.75 0 1 1 200709.51 0a 100354.75 100354.75 0 1 1 -200709.51 0"/>
<path id="N" d="M 44881888.47 24999998.47 m -100354.75 0 a 100354.75 100354.75 0 1 1 200709.51 0a 100354.75 100354.75 0 1 1 -200709.51 0"/>
<path id="N" d="M 44094487.47 25787399.47 m -100354.75 0 a 100354.75 100354.75 0 1 1 200709.51 0a 100354.75 100354.75 0 1 1 -200709.51 0"/>
<path id="N" d="M 44488187.47 24606297.47 m -100354.75 0 a 100354.75 100354.75 0 1 1 200709.51 0a 100354.75 100354.75 0 1 1 -200709.51 0"/>
<path id="N" d="M 44881888.47 24606297.47 m -100354.75 0 a 100354.75 100354.75 0 1 1 200709.51 0a 100354.75 100354.75 0 1 1 -200709.51 0"/>
<path id="N" d="M 44094487.47 24606297.47 m -100354.75 0 a 100354.75 100354.75 0 1 1 200709.51 0a 100354.75 100354.75 0 1 1 -200709.51 0"/>
<path id="N" d="M 44488187.47 25787399.47 m -100354.75 0 a 100354.75 100354.75 0 1 1 200709.51 0a 100354.75 100354.75 0 1 1 -200709.51 0"/>
<path id="N" d="M 44488187.47 25393699.47 m -100354.75 0 a 100354.75 100354.75 0 1 1 200709.51 0a 100354.75 100354.75 0 1 1 -200709.51 0"/>
<path id="N" d="M 44881888.47 25393699.47 m -100354.75 0 a 100354.75 100354.75 0 1 1 200709.51 0a 100354.75 100354.75 0 1 1 -200709.51 0"/>
<path id="N" d="M 44094487.47 25393699.47 m -100354.75 0 a 100354.75 100354.75 0 1 1 200709.51 0a 100354.75 100354.75 0 1 1 -200709.51 0"/>
<path id="N" d="M 44488187.47 24999998.47 m -100354.75 0 a 100354.75 100354.75 0 1 1 200709.51 0a 100354.75 100354.75 0 1 1 -200709.51 0"/>
<path id="N" d="M 18335432.47 26881889.47 m -100354.75 0 a 100354.75 100354.75 0 1 1 200709.51 0a 100354.75 100354.75 0 1 1 -200709.51 0"/>
<path id="N" d="M 18035432.47 27481889.47 m -100354.75 0 a 100354.75 100354.75 0 1 1 200709.51 0a 100354.75 100354.75 0 1 1 -200709.51 0"/>
<path id="N" d="M 44881888.47 25787399.47 m -100354.75 0 a 100354.75 100354.75 0 1 1 200709.51 0a 100354.75 100354.75 0 1 1 -200709.51 0"/>
<path id="N" d="M 38976376.47 27362202.47 m -100354.75 0 a 100354.75 100354.75 0 1 1 200709.51 0a 100354.75 100354.75 0 1 1 -200709.51 0"/>
<path id="N" d="M 18035432.47 27181889.47 m -100354.75 0 a 100354.75 100354.75 0 1 1 200709.51 0a 100354.75 100354.75 0 1 1 -200709.51 0"/>
<path id="N" d="M 18335432.47 32299999.47 m -100354.75 0 a 100354.75 100354.75 0 1 1 200709.51 0a 100354.75 100354.75 0 1 1 -200709.51 0"/>
<path id="N" d="M 18335432.47 31999999.47 m -100354.75 0 a 100354.75 100354.75 0 1 1 200709.51 0a 100354.75 100354.75 0 1 1 -200709.51 0"/>
<path id="N" d="M 44094487.47 24999998.47 m -100354.75 0 a 100354.75 100354.75 0 1 1 200709.51 0a 100354.75 100354.75 0 1 1 -200709.51 0"/>
<path id="N" d="M 18335432.47 27481889.47 m -100354.75 0 a 100354.75 100354.75 0 1 1 200709.51 0a 100354.75 100354.75 0 1 1 -200709.51 0"/>
<path id="N" d="M 18035432.47 32599999.47 m -100354.75 0 a 100354.75 100354.75 0 1 1 200709.51 0a 100354.75 100354.75 0 1 1 -200709.51 0"/>
<path id="N" d="M 18035432.47 32299999.47 m -100354.75 0 a 100354.75 100354.75 0 1 1 200709.51 0a 100354.75 100354.75 0 1 1 -200709.51 0"/>
<path id="N" d="M 14960628.47 34448817.47 m -100354.75 0 a 100354.75 100354.75 0 1 1 200709.51 0a 100354.75 100354.75 0 1 1 -200709.51 0"/>
<path id="N" d="M 39777430.47 34940942.47 m -100354.75 0 a 100354.75 100354.75 0 1 1 200709.51 0a 100354.75 100354.75 0 1 1 -200709.51 0"/>
<path id="N" d="M 41411022.47 35329919.47 m -100354.75 0 a 100354.75 100354.75 0 1 1 200709.51 0a 100354.75 100354.75 0 1 1 -200709.51 0"/>
<path id="N" d="M 18335432.47 37070865.47 m -100354.75 0 a 100354.75 100354.75 0 1 1 200709.51 0a 100354.75 100354.75 0 1 1 -200709.51 0"/>
<path id="N" d="M 37311022.47 35929919.47 m -100354.75 0 a 100354.75 100354.75 0 1 1 200709.51 0a 100354.75 100354.75 0 1 1 -200709.51 0"/>
<path id="N" d="M 37920715.47 35139612.47 m -100354.75 0 a 100354.75 100354.75 0 1 1 200709.51 0a 100354.75 100354.75 0 1 1 -200709.51 0"/>
<path id="N" d="M 41929132.47 34251966.47 m -100354.75 0 a 100354.75 100354.75 0 1 1 200709.51 0a 100354.75 100354.75 0 1 1 -200709.51 0"/>
<path id="N" d="M 30708660.47 41929132.47 m -100354.75 0 a 100354.75 100354.75 0 1 1 200709.51 0a 100354.75 100354.75 0 1 1 -200709.51 0"/>
<path id="N" d="M 40611022.47 34229919.47 m -100354.75 0 a 100354.75 100354.75 0 1 1 200709.51 0a 100354.75 100354.75 0 1 1 -200709.51 0"/>
<path id="N" d="M 37452912.47 33267714.47 m -100354.75 0 a 100354.75 100354.75 0 1 1 200709.51 0a 100354.75 100354.75 0 1 1 -200709.51 0"/>
<path id="N" d="M 42311022.47 35829919.47 m -100354.75 0 a 100354.75 100354.75 0 1 1 200709.51 0a 100354.75 100354.75 0 1 1 -200709.51 0"/>
<path id="N" d="M 18335432.47 37418109.47 m -100354.75 0 a 100354.75 100354.75 0 1 1 200709.51 0a 100354.75 100354.75 0 1 1 -200709.51 0"/>
<path id="N" d="M 41141731.47 34251966.47 m -100354.75 0 a 100354.75 100354.75 0 1 1 200709.51 0a 100354.75 100354.75 0 1 1 -200709.51 0"/>
<path id="N" d="M 39960628.47 36220470.47 m -100354.75 0 a 100354.75 100354.75 0 1 1 200709.51 0a 100354.75 100354.75 0 1 1 -200709.51 0"/>
<path id="N" d="M 41411022.47 36229919.47 m -100354.75 0 a 100354.75 100354.75 0 1 1 200709.51 0a 100354.75 100354.75 0 1 1 -200709.51 0"/>
<path id="N" d="M 41535431.47 34251966.47 m -100354.75 0 a 100354.75 100354.75 0 1 1 200709.51 0a 100354.75 100354.75 0 1 1 -200709.51 0"/>
<path id="N" d="M 41211022.47 37729919.47 m -100354.75 0 a 100354.75 100354.75 0 1 1 200709.51 0a 100354.75 100354.75 0 1 1 -200709.51 0"/>
<path id="N" d="M 37611022.47 40429919.47 m -100354.75 0 a 100354.75 100354.75 0 1 1 200709.51 0a 100354.75 100354.75 0 1 1 -200709.51 0"/>
<path id="N" d="M 18035432.47 37718109.47 m -100354.75 0 a 100354.75 100354.75 0 1 1 200709.51 0a 100354.75 100354.75 0 1 1 -200709.51 0"/>
<path id="N" d="M 42411022.47 38929919.47 m -100354.75 0 a 100354.75 100354.75 0 1 1 200709.51 0a 100354.75 100354.75 0 1 1 -200709.51 0"/>
<path id="N" d="M 39911022.47 38729919.47 m -100354.75 0 a 100354.75 100354.75 0 1 1 200709.51 0a 100354.75 100354.75 0 1 1 -200709.51 0"/>
<path id="N" d="M 37611022.47 40729919.47 m -100354.75 0 a 100354.75 100354.75 0 1 1 200709.51 0a 100354.75 100354.75 0 1 1 -200709.51 0"/>
<path id="N" d="M 18335432.47 32599999.47 m -100354.75 0 a 100354.75 100354.75 0 1 1 200709.51 0a 100354.75 100354.75 0 1 1 -200709.51 0"/>
<path id="N" d="M 18035432.47 22063778.47 m -100354.75 0 a 100354.75 100354.75 0 1 1 200709.51 0a 100354.75 100354.75 0 1 1 -200709.51 0"/>
<path id="N" d="M 40911022.47 39729919.47 m -100354.75 0 a 100354.75 100354.75 0 1 1 200709.51 0a 100354.75 100354.75 0 1 1 -200709.51 0"/>
<path id="N" d="M 43503935.47 39763777.47 m -100354.75 0 a 100354.75 100354.75 0 1 1 200709.51 0a 100354.75 100354.75 0 1 1 -200709.51 0"/>
<path id="N" d="M 39911022.47 39329919.47 m -100354.75 0 a 100354.75 100354.75 0 1 1 200709.51 0a 100354.75 100354.75 0 1 1 -200709.51 0"/>
<path id="N" d="M 29921258.47 41929132.47 m -100354.75 0 a 100354.75 100354.75 0 1 1 200709.51 0a 100354.75 100354.75 0 1 1 -200709.51 0"/>
<path id="N" d="M 18035432.47 42836219.47 m -100354.75 0 a 100354.75 100354.75 0 1 1 200709.51 0a 100354.75 100354.75 0 1 1 -200709.51 0"/>
<path id="N" d="M 18335432.47 42836219.47 m -100354.75 0 a 100354.75 100354.75 0 1 1 200709.51 0a 100354.75 100354.75 0 1 1 -200709.51 0"/>
<path id="N" d="M 31102361.47 41929132.47 m -100354.75 0 a 100354.75 100354.75 0 1 1 200709.51 0a 100354.75 100354.75 0 1 1 -200709.51 0"/>
<path id="N" d="M 30314959.47 41929132.47 m -100354.75 0 a 100354.75 100354.75 0 1 1 200709.51 0a 100354.75 100354.75 0 1 1 -200709.51 0"/>
<path id="N" d="M 38976376.47 41732281.47 m -100354.75 0 a 100354.75 100354.75 0 1 1 200709.51 0a 100354.75 100354.75 0 1 1 -200709.51 0"/>
<path id="N" d="M 18335432.47 42536219.47 m -100354.75 0 a 100354.75 100354.75 0 1 1 200709.51 0a 100354.75 100354.75 0 1 1 -200709.51 0"/>
<path id="N" d="M 18035432.47 42536219.47 m -100354.75 0 a 100354.75 100354.75 0 1 1 200709.51 0a 100354.75 100354.75 0 1 1 -200709.51 0"/>
<path id="N" d="M 37598424.47 41732281.47 m -100354.75 0 a 100354.75 100354.75 0 1 1 200709.51 0a 100354.75 100354.75 0 1 1 -200709.51 0"/>
<path id="N" d="M 41411022.47 38929919.47 m -100354.75 0 a 100354.75 100354.75 0 1 1 200709.51 0a 100354.75 100354.75 0 1 1 -200709.51 0"/>
<path id="N" d="M 18335432.47 42236219.47 m -100354.75 0 a 100354.75 100354.75 0 1 1 200709.51 0a 100354.75 100354.75 0 1 1 -200709.51 0"/>
<path id="N" d="M 26187008.00 43534552.00 L 27749130.00 41972430.00 L 27863311.41 41972430.00 L 27881796.00 42000094.00 A 100353.26 100353.26 0 0 0 28045470.00 41967537.00 L 28047445.64 41957605.00 L 28928647.00 41957605.00 L 28959262.00 41944924.00 L 29470969.00 41433217.00 L 30066772.00 41433217.00 L 30097387.00 41420536.00 L 32117230.00 39400693.00 L 32129911.00 39370078.00 L 32129911.00 39009593.00 L 35466287.00 35673217.00 L 37909014.00 35673217.00 L 37939629.00 35660536.00 L 39292899.00 34307266.00 L 39305580.00 34276651.00 L 39305580.00 33796596.00 L 41509198.00 31592978.00 L 41521879.00 31562363.00 L 41521879.00 24184647.00 L 41509198.00 24154032.00 L 41422493.02 24067327.02 L 41431297.00 24054151.00 A 100349.83 100349.83 0 1 0 41338583.00 24116101.00 L 41347110.70 24114404.70 L 41435287.00 24202581.00 L 41435287.00 31544429.00 L 39231669.00 33748047.00 L 39218988.00 33778662.00 L 39218988.00 34258717.00 L 37891080.00 35586625.00 L 35448353.00 35586625.00 L 35417738.00 35599306.00 L 32056000.00 38961044.00 L 32043319.00 38991659.00 L 32043319.00 39352144.00 L 30048838.00 41346625.00 L 29453035.00 41346625.00 L 29422420.00 41359306.00 L 28910713.00 41871013.00 L 28032294.79 41871013.00 L 28023716.00 41858174.00 A 100353.26 100353.26 0 0 0 27863311.41 41885838.00 L 27731196.00 41885838.00 L 27700581.00 41898519.00 L 26138459.00 43460641.00 L 16947068.00 43460641.00 L 16578729.00 43092302.00 L 16578729.00 37795275.00 L 16566048.00 37764660.00 L 15054491.96 36253103.96 L 15060983.00 36220472.00 A 100353.26 100353.26 0 1 0 14993261.96 36314333.96 L 16492137.00 37813209.00 L 16492137.00 43110236.00 L 16504818.00 43140851.00 L 16898519.00 43534552.00 L 16929134.00 43547233.00 L 26156393.00 43547233.00 L 26187008.00 43534552.00  z"/>
<path id="N" d="M 33454320.00 37040476.41 L 33454320.00 36829921.00 L 33441639.00 36799306.00 L 31204320.00 34561987.00 L 31204320.00 34167789.00 L 31191639.00 34137174.00 L 30950386.00 33895921.00 L 30950386.00 33303170.00 L 30937705.00 33272555.00 L 30011625.00 32346475.00 L 29981010.00 32333794.00 L 29385251.00 32333794.00 L 29354636.00 32346475.00 L 29314486.00 32386625.00 L 28032421.00 32386624.00 L 28001806.00 32399305.00 L 27741984.00 32659127.00 L 27729303.00 32689742.00 L 27729303.00 32970100.00 L 27737813.00 32990645.20 L 27737813.00 33041902.00 L 27543655.96 33236059.04 L 27511024.00 33229568.00 A 100353.26 100353.26 0 1 0 27604885.96 33297289.04 L 27811724.00 33090451.00 L 27824405.00 33059836.00 L 27824405.00 32978610.00 L 27815895.00 32958064.80 L 27815895.00 32707676.00 L 28050355.00 32473216.00 L 29332420.00 32473217.00 L 29363035.00 32460536.00 L 29403185.00 32420386.00 L 29963076.00 32420386.00 L 30863794.00 33321104.00 L 30863794.00 33913855.00 L 30876475.00 33944470.00 L 31117728.00 34185723.00 L 31117728.00 34579921.00 L 31130409.00 34610536.00 L 33367728.00 36847855.00 L 33367728.00 37040476.41 L 33340064.00 37058961.00 A 100353.26 100353.26 0 1 0 33454320.00 37040476.41  z"/>
<path id="N" d="M 34435432.47 18123620.47 m -100354.75 0 a 100354.75 100354.75 0 1 1 200709.51 0a 100354.75 100354.75 0 1 1 -200709.51 0"/>
<path id="N" d="M 37235432.47 12623620.47 m -100354.75 0 a 100354.75 100354.75 0 1 1 200709.51 0a 100354.75 100354.75 0 1 1 -200709.51 0"/>
<path id="N" d="M 36578392.04 34836059.04 L 36154320.00 34411987.00 L 36154320.00 29730844.00 L 38043214.00 27841950.00 L 38055895.00 27811335.00 L 38055895.00 26224884.00 L 38080064.00 26200715.00 L 38092745.00 26170100.00 L 38092745.00 25889742.00 L 38080064.00 25859127.00 L 38055895.00 25834958.00 L 38055895.00 24553685.00 L 38043214.00 24523070.00 L 38014321.00 24494177.00 L 38014321.00 24365665.00 L 38043214.00 24336772.00 L 38055895.00 24306157.00 L 38055895.00 24253685.00 L 38043214.00 24223070.00 L 38014321.00 24194177.00 L 38014321.00 24065665.00 L 38043214.00 24036772.00 L 38055895.00 24006157.00 L 38055895.00 23764948.00 L 38091639.00 23729204.00 L 38104320.00 23698589.00 L 38104320.00 22619365.59 L 38131984.00 22600881.00 A 100353.26 100353.26 0 1 0 37990064.00 22600881.00 L 38017728.00 22619365.59 L 38017728.00 23680655.00 L 37981984.00 23716399.00 L 37969303.00 23747014.00 L 37969303.00 23988223.00 L 37940410.00 24017116.00 L 37927729.00 24047731.00 L 37927729.00 24212111.00 L 37940410.00 24242726.00 L 37969303.00 24271619.00 L 37969303.00 24288223.00 L 37940410.00 24317116.00 L 37927729.00 24347731.00 L 37927729.00 24512111.00 L 37940410.00 24542726.00 L 37969303.00 24571619.00 L 37969303.00 25852892.00 L 37981984.00 25883507.00 L 38006153.00 25907676.00 L 38006153.00 26152166.00 L 37981984.00 26176335.00 L 37969303.00 26206950.00 L 37969303.00 27793401.00 L 36080409.00 29682295.00 L 36067728.00 29712910.00 L 36067728.00 34429921.00 L 36080409.00 34460536.00 L 36517162.04 34897289.04 L 36510671.00 34929921.00 A 100353.26 100353.26 0 1 0 36578392.04 34836059.04  z"/>
<path id="N" d="M 37691140.00 37065332.00 L 37693957.06 37051170.00 L 39733071.00 37051170.00 L 39763686.00 37038489.00 L 40540064.00 36262111.00 L 40552745.00 36231496.00 L 40552745.00 35671953.00 L 40540064.00 35641338.00 L 40199202.00 35300476.00 L 40199202.00 34308297.00 L 41949198.00 32558301.00 L 41961879.00 32527686.00 L 41961879.00 23793065.00 L 41949198.00 23762450.00 L 41431330.00 23244582.00 L 41400715.00 23231901.00 L 39520078.00 23231901.00 L 39489463.00 23244582.00 L 38945763.00 23788282.00 L 38933082.00 23818897.00 L 38933082.00 25501106.41 L 38905418.00 25519591.00 A 100353.26 100353.26 0 1 0 39047338.00 25519591.00 L 39019674.00 25501106.41 L 39019674.00 23836831.00 L 39538012.00 23318493.00 L 41382781.00 23318493.00 L 41875287.00 23810999.00 L 41875287.00 32509752.00 L 40125291.00 34259748.00 L 40112610.00 34290363.00 L 40112610.00 35318410.00 L 40125291.00 35349025.00 L 40466153.00 35689887.00 L 40466153.00 36213562.00 L 39715137.00 36964578.00 L 37675138.38 36964578.00 L 37669386.00 36955969.00 A 100353.26 100353.26 0 1 0 37691140.00 37065332.00  z"/>
<path id="N" d="M 32281984.00 40500881.00 L 32300468.59 40473217.00 L 36833340.00 40473217.00 L 36863955.00 40460536.00 L 38394274.69 38930216.31 L 38415111.00 38934361.00 A 100353.26 100353.26 0 1 0 38322397.00 38872411.00 L 38325290.14 38876740.86 L 36815406.00 40386625.00 L 32300468.59 40386625.00 L 32281984.00 40358961.00 A 100353.26 100353.26 0 1 0 32281984.00 40500881.00  z"/>
<path id="N" d="M 29217322.47 19204722.47 m -100354.75 0 a 100354.75 100354.75 0 1 1 200709.51 0a 100354.75 100354.75 0 1 1 -200709.51 0"/>
<path id="N" d="M 29617322.47 12604722.47 m -100354.75 0 a 100354.75 100354.75 0 1 1 200709.51 0a 100354.75 100354.75 0 1 1 -200709.51 0"/>
<path id="N" d="M 18135432.47 31799999.47 m -100354.75 0 a 100354.75 100354.75 0 1 1 200709.51 0a 100354.75 100354.75 0 1 1 -200709.51 0"/>
<path id="N" d="M 24735432.47 32199999.47 m -100354.75 0 a 100354.75 100354.75 0 1 1 200709.51 0a 100354.75 100354.75 0 1 1 -200709.51 0"/>
<path id="N" d="M 29317322.47 18104722.47 m -100354.75 0 a 100354.75 100354.75 0 1 1 200709.51 0a 100354.75 100354.75 0 1 1 -200709.51 0"/>
<path id="N" d="M 32117322.47 12604722.47 m -100354.75 0 a 100354.75 100354.75 0 1 1 200709.51 0a 100354.75 100354.75 0 1 1 -200709.51 0"/>
<path id="N" d="M 18135432.47 19063778.47 m -100354.75 0 a 100354.75 100354.75 0 1 1 200709.51 0a 100354.75 100354.75 0 1 1 -200709.51 0"/>
<path id="N" d="M 23635432.47 21863778.47 m -100354.75 0 a 100354.75 100354.75 0 1 1 200709.51 0a 100354.75 100354.75 0 1 1 -200709.51 0"/>
<path id="N" d="M 24735432.47 21963778.47 m -100354.75 0 a 100354.75 100354.75 0 1 1 200709.51 0a 100354.75 100354.75 0 1 1 -200709.51 0"/>
<path id="N" d="M 18135432.47 21563778.47 m -100354.75 0 a 100354.75 100354.75 0 1 1 200709.51 0a 100354.75 100354.75 0 1 1 -200709.51 0"/>
<path id="N" d="M 27481984.00 42600881.00 L 27500468.59 42573217.00 L 28511024.00 42573217.00 L 28541639.00 42560536.00 L 29528958.00 41573217.00 L 30311024.00 41573217.00 L 30341639.00 41560536.00 L 32341639.00 39560536.00 L 32354320.00 39529921.00 L 32354320.00 39047855.00 L 33628958.00 37773217.00 L 35593090.00 37773217.00 L 36617162.04 38797289.04 L 36610671.00 38829921.00 A 100353.26 100353.26 0 1 0 36678392.04 38736059.04 L 35641639.00 37699306.00 L 35611024.00 37686625.00 L 33611024.00 37686625.00 L 33580409.00 37699306.00 L 32280409.00 38999306.00 L 32267728.00 39029921.00 L 32267728.00 39511987.00 L 30293090.00 41486625.00 L 29511024.00 41486625.00 L 29480409.00 41499306.00 L 28493090.00 42486625.00 L 27500468.59 42486625.00 L 27481984.00 42458961.00 A 100353.26 100353.26 0 1 0 27481984.00 42600881.00  z"/>
<path id="N" d="M 34728392.04 33986059.04 L 33554320.00 32811987.00 L 33554320.00 22197855.00 L 33628392.04 22123782.96 L 33661024.00 22130274.00 A 100353.26 100353.26 0 1 0 33567162.04 22062552.96 L 33480409.00 22149306.00 L 33467728.00 22179921.00 L 33467728.00 32829921.00 L 33480409.00 32860536.00 L 34667162.04 34047289.04 L 34660671.00 34079921.00 A 100353.26 100353.26 0 1 0 34728392.04 33986059.04  z"/>
<path id="N" d="M 12893700.00 23236220.00 L 12185040.00 23236220.00 L 12185040.00 23728346.00 L 12893700.00 23728346.00 L 12893700.00 23236220.00  z"/>
<path id="N" d="M 12893700.00 30602362.00 L 12185040.00 30602362.00 L 12185040.00 31094488.00 L 12893700.00 31094488.00 L 12893700.00 30602362.00  z"/>
<path id="N" d="M 24735431.47 16845667.47 m -100354.75 0 a 100354.75 100354.75 0 1 1 200709.51 0a 100354.75 100354.75 0 1 1 -200709.51 0"/>
<path id="N" d="M 18135431.47 16445667.47 m -100354.75 0 a 100354.75 100354.75 0 1 1 200709.51 0a 100354.75 100354.75 0 1 1 -200709.51 0"/>
<path id="N" d="M 18111022.47 36829919.47 m -100354.75 0 a 100354.75 100354.75 0 1 1 200709.51 0a 100354.75 100354.75 0 1 1 -200709.51 0"/>
<path id="N" d="M 24735432.47 37318109.47 m -100354.75 0 a 100354.75 100354.75 0 1 1 200709.51 0a 100354.75 100354.75 0 1 1 -200709.51 0"/>
<path id="N" d="M 24696709.00 34292588.41 L 24696709.00 34005466.00 L 25978392.04 32723782.96 L 26011024.00 32730274.00 A 100353.26 100353.26 0 1 0 25917162.04 32662552.96 L 24622798.00 33956917.00 L 24610117.00 33987532.00 L 24610117.00 34292588.41 L 24582453.00 34311073.00 A 100353.26 100353.26 0 1 0 24696709.00 34292588.41  z"/>
<path id="N" d="M 24653411.47 29263921.47 m -100354.75 0 a 100354.75 100354.75 0 1 1 200709.51 0a 100354.75 100354.75 0 1 1 -200709.51 0"/>
<path id="N" d="M 28311022.47 34529919.47 m -100354.75 0 a 100354.75 100354.75 0 1 1 200709.51 0a 100354.75 100354.75 0 1 1 -200709.51 0"/>
<path id="N" d="M 24653411.47 24145811.47 m -100354.75 0 a 100354.75 100354.75 0 1 1 200709.51 0a 100354.75 100354.75 0 1 1 -200709.51 0"/>
<path id="N" d="M 26611022.47 37629919.47 m -100354.75 0 a 100354.75 100354.75 0 1 1 200709.51 0a 100354.75 100354.75 0 1 1 -200709.51 0"/>
<path id="N" d="M 24653411.47 39500141.47 m -100354.75 0 a 100354.75 100354.75 0 1 1 200709.51 0a 100354.75 100354.75 0 1 1 -200709.51 0"/>
<path id="N" d="M 39266595.00 34684072.00 L 39270069.08 34666607.00 L 39384552.00 34666607.00 L 39415167.00 34653926.00 L 41649198.00 32419895.00 L 41661879.00 32389280.00 L 41661879.00 23931471.00 L 41649198.00 23900856.00 L 41302924.00 23554582.00 L 41272309.00 23541901.00 L 39830054.00 23541901.00 L 39799439.00 23554582.00 L 39470732.00 23883289.00 L 39458051.00 23913904.00 L 39458051.00 25777610.00 L 39154705.00 26080956.00 L 38866256.00 26080956.00 L 38495974.00 25710674.00 L 38495974.00 24671575.00 L 38483293.00 24640960.00 L 38403586.00 24561253.00 L 38372971.00 24548572.00 L 38349331.00 24548572.00 L 38263311.96 24462552.96 L 38269803.00 24429921.00 A 100353.26 100353.26 0 1 0 38202081.96 24523782.96 L 38300782.00 24622483.00 L 38331397.00 24635164.00 L 38355037.00 24635164.00 L 38409382.00 24689509.00 L 38409382.00 25728608.00 L 38422063.00 25759223.00 L 38817707.00 26154867.00 L 38848322.00 26167548.00 L 39172639.00 26167548.00 L 39203254.00 26154867.00 L 39531962.00 25826159.00 L 39544643.00 25795544.00 L 39544643.00 23931838.00 L 39847988.00 23628493.00 L 41254375.00 23628493.00 L 41575287.00 23949405.00 L 41575287.00 32371346.00 L 39366618.00 34580015.00 L 39248386.37 34580015.00 L 39244841.00 34574709.00 A 100353.26 100353.26 0 1 0 39266595.00 34684072.00  z"/>
<path id="N" d="M 36551171.01 24803129.86 m -297844.08 0 a 297844.08 297844.08 0 1 1 595688.15 0a 297844.08 297844.08 0 1 1 -595688.15 0M 36551180.24 24803148.93 m -204721.07 0 a 204721.07 204721.07 0 1 1 409442.13 0a 204721.07 204721.07 0 1 1 -409442.13 0"/>
<path id="N" d="M 31081984.00 39658961.00 L 31065144.00 39647708.82 L 31065145.00 34842053.00 L 31049291.29 34803783.29 L 30671210.00 34425701.04 L 30671210.00 33835987.00 L 30655359.00 33797718.00 L 29965144.00 33107503.00 L 29965144.00 32746939.00 L 29949293.00 32708670.00 L 29938972.06 32704395.07 L 29933545.00 32677112.00 A 100354.75 100354.75 0 1 0 29840831.00 32815868.00 L 29856904.00 32812670.81 L 29856903.00 33129921.00 L 29872755.00 33168190.00 L 30562970.00 33858405.00 L 30562969.00 34448119.00 L 30578821.00 34486388.00 L 30956904.00 34864470.04 L 30956904.00 39647708.82 L 30940064.00 39658961.00 A 100353.26 100353.26 0 1 0 31081984.00 39658961.00  z"/>
<path id="N" d="M 44140044.00 40273383.00 L 44112021.49 40294885.49 L 43804001.00 39986865.00 L 43773386.00 39974184.00 L 42201908.00 39974184.00 L 40588605.00 38360881.00 L 40557990.00 38348200.00 L 38296393.00 38348200.00 L 38265778.00 38360881.00 L 37566236.00 39060423.00 L 37553555.00 39091038.00 L 37553555.00 39281685.80 L 37527466.00 39299118.00 A 100353.26 100353.26 0 1 0 37640147.00 39279581.03 L 37640147.00 39108972.00 L 38314327.00 38434792.00 L 40540056.00 38434792.00 L 42153359.00 40048095.00 L 42183974.00 40060776.00 L 43755452.00 40060776.00 L 44050791.49 40356115.49 L 44029289.00 40384138.00 A 302581.34 302581.34 0 1 0 44140044.00 40273383.00  zM 44291337.90 40535434.70 m -203916.30 0 a 203916.30 203916.30 0 1 1 407832.60 0a 203916.30 203916.30 0 1 1 -407832.60 0"/>
<path id="N" d="M 37271509.47 19141599.47 m -100354.75 0 a 100354.75 100354.75 0 1 1 200709.51 0a 100354.75 100354.75 0 1 1 -200709.51 0"/>
<path id="N" d="M 28111022.47 32829919.47 m -100354.75 0 a 100354.75 100354.75 0 1 1 200709.51 0a 100354.75 100354.75 0 1 1 -200709.51 0"/>
<path id="N" d="M 24653411.47 19027700.47 m -100354.75 0 a 100354.75 100354.75 0 1 1 200709.51 0a 100354.75 100354.75 0 1 1 -200709.51 0"/>
<path id="N" d="M 32153399.47 19122701.47 m -100354.75 0 a 100354.75 100354.75 0 1 1 200709.51 0a 100354.75 100354.75 0 1 1 -200709.51 0"/>
<path id="N" d="M 24668335.47 13910721.47 m -100354.75 0 a 100354.75 100354.75 0 1 1 200709.51 0a 100354.75 100354.75 0 1 1 -200709.51 0"/>
<path id="N" d="M 40259749.00 37360536.00 L 40321699.04 37298585.96 L 40354331.00 37305077.00 A 100353.26 100353.26 0 1 0 40260469.04 37237355.96 L 40211200.00 37286625.00 L 36540545.00 37286625.00 L 36511304.58 37257384.58 L 36517676.00 37225354.00 A 100353.26 100353.26 0 1 0 36450556.33 37319096.33 L 36491996.00 37360536.00 L 36522611.00 37373217.00 L 40229134.00 37373217.00 L 40259749.00 37360536.00  z"/>
<path id="N" d="M 40354329.47 35236218.47 m -100354.75 0 a 100354.75 100354.75 0 1 1 200709.51 0a 100354.75 100354.75 0 1 1 -200709.51 0"/>
<path id="N" d="M 18135432.47 29299999.47 m -100354.75 0 a 100354.75 100354.75 0 1 1 200709.51 0a 100354.75 100354.75 0 1 1 -200709.51 0"/>
<path id="N" d="M 23635432.47 32099999.47 m -100354.75 0 a 100354.75 100354.75 0 1 1 200709.51 0a 100354.75 100354.75 0 1 1 -200709.51 0"/>
<path id="N" d="M 40278392.04 35736059.04 L 40054320.00 35511987.00 L 40054320.00 34241047.00 L 41799198.00 32496169.00 L 41811879.00 32465554.00 L 41811879.00 23855197.00 L 41799198.00 23824582.00 L 41369198.00 23394582.00 L 41338583.00 23381901.00 L 39763780.00 23381901.00 L 39733165.00 23394582.00 L 39154188.00 23973559.00 L 39141507.00 24004174.00 L 39141507.00 25896165.00 L 39096716.00 25940956.00 L 38924245.00 25940956.00 L 38635974.00 25652685.00 L 38635974.00 24025748.00 L 38623293.00 23995133.00 L 38517690.00 23889530.00 L 38487075.00 23876849.00 L 38420800.00 23876849.00 L 38390185.00 23889530.00 L 38355037.00 23924678.00 L 38331397.00 23924678.00 L 38300782.00 23937359.00 L 38202081.96 24036059.04 L 38169450.00 24029568.00 A 100353.26 100353.26 0 1 0 38263311.96 24097289.04 L 38349331.00 24011270.00 L 38372971.00 24011270.00 L 38403586.00 23998589.00 L 38438734.00 23963441.00 L 38469141.00 23963441.00 L 38549382.00 24043682.00 L 38549382.00 25670619.00 L 38562063.00 25701234.00 L 38875696.00 26014867.00 L 38906311.00 26027548.00 L 39114650.00 26027548.00 L 39145265.00 26014867.00 L 39215418.00 25944714.00 L 39228099.00 25914099.00 L 39228099.00 24022108.00 L 39781714.00 23468493.00 L 41320649.00 23468493.00 L 41725287.00 23873131.00 L 41725287.00 32447620.00 L 39980409.00 34192498.00 L 39967728.00 34223113.00 L 39967728.00 35529921.00 L 39980409.00 35560536.00 L 40217162.04 35797289.04 L 40210671.00 35829921.00 A 100353.26 100353.26 0 1 0 40278392.04 35736059.04  z"/>
<path id="N" d="M 36551171.01 23803129.86 m -297844.08 0 a 297844.08 297844.08 0 1 1 595688.15 0a 297844.08 297844.08 0 1 1 -595688.15 0M 36551180.24 23803148.93 m -204721.07 0 a 204721.07 204721.07 0 1 1 409442.13 0a 204721.07 204721.07 0 1 1 -409442.13 0"/>
<path id="N" d="M 36551171.01 25803129.86 m -297844.08 0 a 297844.08 297844.08 0 1 1 595688.15 0a 297844.08 297844.08 0 1 1 -595688.15 0M 36551180.24 25803148.93 m -204721.07 0 a 204721.07 204721.07 0 1 1 409442.13 0a 204721.07 204721.07 0 1 1 -409442.13 0"/>
<path id="N" d="M 33154885.96 33497289.04 L 33261639.00 33390536.00 L 33274320.00 33359921.00 L 33274320.00 24051932.00 L 33261639.00 24021317.00 L 33154320.00 23913998.00 L 33154320.00 22219365.59 L 33181984.00 22200881.00 A 100353.26 100353.26 0 1 0 33040064.00 22200881.00 L 33067728.00 22219365.59 L 33067728.00 23931932.00 L 33080409.00 23962547.00 L 33187728.00 24069866.00 L 33187728.00 33341987.00 L 33093655.96 33436059.04 L 33061024.00 33429568.00 A 100353.26 100353.26 0 1 0 33154885.96 33497289.04  z"/>
<path id="N" d="M 36511184.96 36935872.04 L 36673840.00 36773217.00 L 39191792.00 36773217.00 L 39222407.00 36760536.00 L 39259349.27 36723593.73 A 99471.64 99471.64 0 1 0 39196727.00 36630746.00 L 39202203.81 36658279.19 L 39173858.00 36686625.00 L 36655906.00 36686625.00 L 36625291.00 36699306.00 L 36449954.96 36874642.04 L 36417323.00 36868151.00 A 100353.26 100353.26 0 1 0 36511184.96 36935872.04  z"/>
<path id="N" d="M 43278392.04 37836059.04 L 43041639.00 37599306.00 L 43011024.00 37586625.00 L 42300468.59 37586625.00 L 42281984.00 37558961.00 A 100353.26 100353.26 0 1 0 42281984.00 37700881.00 L 42300468.59 37673217.00 L 42993090.00 37673217.00 L 43217162.04 37897289.04 L 43210671.00 37929921.00 A 100353.26 100353.26 0 1 0 43278392.04 37836059.04  z"/>
<path id="N" d="M 33178392.04 36836059.04 L 32454320.00 36111987.00 L 32454320.00 36029921.00 L 32441639.00 35999306.00 L 30810386.00 34368053.00 L 30810386.00 33361159.00 L 30797705.00 33330544.00 L 29953636.00 32486475.00 L 29923021.00 32473794.00 L 29443240.00 32473794.00 L 29412625.00 32486475.00 L 29372475.00 32526625.00 L 28090409.00 32526625.00 L 28059794.00 32539306.00 L 27881984.00 32717116.00 L 27869303.00 32747731.00 L 27869303.00 32912111.00 L 27877813.00 32932656.20 L 27877813.00 33301902.00 L 27443655.96 33736059.04 L 27411024.00 33729568.00 A 100353.26 100353.26 0 1 0 27504885.96 33797289.04 L 27951724.00 33350451.00 L 27964405.00 33319836.00 L 27964405.00 32920621.00 L 27955895.00 32900075.80 L 27955895.00 32765665.00 L 28108343.00 32613217.00 L 29390409.00 32613217.00 L 29421024.00 32600536.00 L 29461174.00 32560386.00 L 29905087.00 32560386.00 L 30723794.00 33379093.00 L 30723794.00 34385987.00 L 30736475.00 34416602.00 L 32367728.00 36047855.00 L 32367728.00 36129921.00 L 32380409.00 36160536.00 L 33117162.04 36897289.04 L 33110671.00 36929921.00 A 100353.26 100353.26 0 1 0 33178392.04 36836059.04  z"/>
<path id="N" d="M 23635431.47 16745667.47 m -100354.75 0 a 100354.75 100354.75 0 1 1 200709.51 0a 100354.75 100354.75 0 1 1 -200709.51 0"/>
<path id="N" d="M 18135431.47 13945667.47 m -100354.75 0 a 100354.75 100354.75 0 1 1 200709.51 0a 100354.75 100354.75 0 1 1 -200709.51 0"/>
<path id="N" d="M 33678392.04 33786059.04 L 33414320.00 33521987.00 L 33414320.00 22128966.93 L 33441332.00 22110918.00 A 100353.26 100353.26 0 1 0 33299412.00 22110918.00 L 33327728.00 22129838.24 L 33327728.00 33539921.00 L 33340409.00 33570536.00 L 33617162.04 33847289.04 L 33610671.00 33879921.00 A 100353.26 100353.26 0 1 0 33678392.04 33786059.04  z"/>
<path id="N" d="M 35454320.00 35140476.41 L 35454320.00 32800911.00 L 35465261.00 32789970.00 L 35477942.00 32759355.00 L 35477942.00 29924233.00 L 37741639.00 27660536.00 L 37754320.00 27629921.00 L 37754320.00 26119365.59 L 37781984.00 26100881.00 A 100353.26 100353.26 0 1 0 37640064.00 26100881.00 L 37667728.00 26119365.59 L 37667728.00 27611987.00 L 35404031.00 29875684.00 L 35391350.00 29906299.00 L 35391350.00 32741421.00 L 35380409.00 32752362.00 L 35367728.00 32782977.00 L 35367728.00 35140476.41 L 35340064.00 35158961.00 A 100353.26 100353.26 0 1 0 35454320.00 35140476.41  z"/>
<path id="N" d="M 38811022.47 11329919.47 m -100354.75 0 a 100354.75 100354.75 0 1 1 200709.51 0a 100354.75 100354.75 0 1 1 -200709.51 0"/>
<path id="N" d="M 22834646.00 18897638.00 L 24505088.00 18897638.00 L 24541906.00 18860820.00 A 200711.42 200711.42 0 0 1 24764920.00 18860820.00 L 24801738.00 18897638.00 L 25654965.71 18897638.00 L 25664911.14 18847637.75 L 25623927.00 18830662.00 A 200702.40 200702.40 0 1 1 25932284.00 18624624.00 L 25932284.00 18648437.43 L 25973857.88 18676216.48 L 25996278.00 18666930.00 A 200711.42 200711.42 0 0 1 26232284.00 18897638.00 L 26771654.00 18897638.00 L 26771654.00 30708661.00 L 31102363.00 30708661.00 L 31102363.00 22440945.00 L 29921261.00 22440945.00 L 28740158.00 21259842.00 L 28740158.00 17322834.00 L 37401575.00 17322834.00 L 37401575.00 18993276.00 L 37438393.00 19030094.00 A 200711.42 200711.42 0 0 1 37438393.00 19253108.00 L 37401575.00 19289926.00 L 37401575.00 20143156.12 L 37451575.25 20153101.55 L 37468552.00 20112115.00 A 200702.40 200702.40 0 1 1 37674590.00 20420472.00 L 37650776.57 20420472.00 L 37622997.52 20462045.88 L 37632284.00 20484466.00 A 200711.42 200711.42 0 0 1 37401575.00 20720472.00 L 37401575.00 20866141.00 L 42211024.00 20866141.00 L 42211024.00 17716535.00 L 40157481.00 17716535.00 L 40157481.00 13129921.00 L 34586868.00 13129921.00 L 34555008.00 13161781.00 A 200711.42 200711.42 0 0 1 34331994.00 13161781.00 L 34300134.00 13129921.00 L 27559055.00 13129921.00 L 27559055.00 15354330.00 L 22047244.00 15354330.00 L 22047244.00 11811023.00 L 13385827.00 11811023.00 L 13385827.00 31889764.00 L 17716535.00 31889764.00 L 17716535.03 43165949.00 L 22834646.00 43165949.00 L 22834646.00 18897638.00  zM 14468504.00 13287406.66 m -810985.51 0 a 810985.51 810985.51 0 1 1 1621971.02 0a 810985.51 810985.51 0 1 1 -1621971.02 0M 18135433.00 13945664.03 m -200711.42 0 a 200711.42 200711.42 0 1 1 401422.84 0a 200711.42 200711.42 0 1 1 -401422.84 0M 18135434.00 19063775.03 m -200711.42 0 a 200711.42 200711.42 0 1 1 401422.84 0a 200711.42 200711.42 0 1 1 -401422.84 0M 18223926.00 17412551.00 L 18185433.00 17374058.00 L 18146940.00 17412551.00 A 200711.42 200711.42 0 0 1 17868551.00 17134162.00 L 17907044.00 17095669.00 L 17868551.00 17057176.00 A 200711.42 200711.42 0 0 1 18074589.00 16748819.00 L 18118503.85 16767008.66 L 18156772.66 16728739.85 L 18138583.00 16684825.00 L 18138583.00 16642519.00 L 18096277.00 16642519.00 A 200702.40 200702.40 0 1 1 18332283.00 16406513.00 L 18332283.00 16448819.00 L 18374589.00 16448819.00 A 200702.40 200702.40 0 0 1 18502315.00 16757176.00 L 18463822.00 16795669.00 L 18502315.00 16834162.00 A 200711.42 200711.42 0 0 1 18502315.00 17057176.00 L 18463822.00 17095669.00 L 18502315.00 17134162.00 A 200711.42 200711.42 0 0 1 18223926.00 17412551.00  zM 23635433.00 16745664.03 m -200711.42 0 a 200711.42 200711.42 0 1 1 401422.84 0a 200711.42 200711.42 0 1 1 -401422.84 0M 24735433.00 16845664.03 m -200711.42 0 a 200711.42 200711.42 0 1 1 401422.84 0a 200711.42 200711.42 0 1 1 -401422.84 0M 23735434.00 18163775.03 m -200711.42 0 a 200711.42 200711.42 0 1 1 401422.84 0a 200711.42 200711.42 0 1 1 -401422.84 0M 25756064.00 16045664.03 m -200711.42 0 a 200711.42 200711.42 0 1 1 401422.84 0a 200711.42 200711.42 0 1 1 -401422.84 0M 38135434.00 18223617.03 m -200711.42 0 a 200711.42 200711.42 0 1 1 401422.84 0a 200711.42 200711.42 0 1 1 -401422.84 0M 18223927.00 22530662.00 L 18185434.00 22492169.00 L 18146941.00 22530662.00 A 200711.42 200711.42 0 0 1 17868552.00 22252273.00 L 17907045.00 22213780.00 L 17868552.00 22175287.00 A 200711.42 200711.42 0 0 1 18074590.00 21866930.00 L 18118504.85 21885119.66 L 18156773.66 21846850.85 L 18138584.00 21802936.00 L 18138584.00 21760630.00 L 18096278.00 21760630.00 A 200702.40 200702.40 0 1 1 18332284.00 21524624.00 L 18332284.00 21566930.00 L 18374590.00 21566930.00 A 200702.40 200702.40 0 0 1 18502316.00 21875287.00 L 18463823.00 21913780.00 L 18502316.00 21952273.00 A 200711.42 200711.42 0 0 1 18502316.00 22175287.00 L 18463823.00 22213780.00 L 18502316.00 22252273.00 A 200711.42 200711.42 0 0 1 18223927.00 22530662.00  zM 18135434.00 24181886.03 m -200711.42 0 a 200711.42 200711.42 0 1 1 401422.84 0a 200711.42 200711.42 0 1 1 -401422.84 0M 18223927.00 27648773.00 L 18185434.00 27610280.00 L 18146941.00 27648773.00 A 200711.42 200711.42 0 0 1 17868552.00 27370384.00 L 17907045.00 27331891.00 L 17868552.00 27293398.00 A 200711.42 200711.42 0 0 1 18074590.00 26985041.00 L 18118504.85 27003230.66 L 18156773.66 26964961.85 L 18138584.00 26921047.00 L 18138584.00 26878741.00 L 18096278.00 26878741.00 A 200702.40 200702.40 0 1 1 18332284.00 26642735.00 L 18332284.00 26685041.00 L 18374590.00 26685041.00 A 200702.40 200702.40 0 0 1 18502316.00 26993398.00 L 18463823.00 27031891.00 L 18502316.00 27070384.00 A 200711.42 200711.42 0 0 1 18502316.00 27293398.00 L 18463823.00 27331891.00 L 18502316.00 27370384.00 A 200711.42 200711.42 0 0 1 18223927.00 27648773.00  zM 18135434.00 29299996.03 m -200711.42 0 a 200711.42 200711.42 0 1 1 401422.84 0a 200711.42 200711.42 0 1 1 -401422.84 0M 18223927.00 32766883.00 L 18185434.00 32728390.00 L 18146941.00 32766883.00 A 200711.42 200711.42 0 0 1 17868552.00 32488494.00 L 17907045.00 32450001.00 L 17868552.00 32411508.00 A 200711.42 200711.42 0 0 1 18074590.00 32103151.00 L 18118504.85 32121340.66 L 18156773.66 32083071.85 L 18138584.00 32039157.00 L 18138584.00 31996851.00 L 18096278.00 31996851.00 A 200702.40 200702.40 0 1 1 18332284.00 31760845.00 L 18332284.00 31803151.00 L 18374590.00 31803151.00 A 200702.40 200702.40 0 0 1 18502316.00 32111508.00 L 18463823.00 32150001.00 L 18502316.00 32188494.00 A 200711.42 200711.42 0 0 1 18502316.00 32411508.00 L 18463823.00 32450001.00 L 18502316.00 32488494.00 A 200711.42 200711.42 0 0 1 18223927.00 32766883.00  zM 18135434.00 34418106.03 m -200711.42 0 a 200711.42 200711.42 0 1 1 401422.84 0a 200711.42 200711.42 0 1 1 -401422.84 0M 18223927.00 37884993.00 L 18185434.00 37846500.00 L 18146941.00 37884993.00 A 200711.42 200711.42 0 0 1 17868552.00 37606604.00 L 17888935.00 37586221.00 L 17844142.00 37541428.00 L 17814174.00 37469077.00 L 17814174.00 37390765.00 L 17839375.77 37329921.00 L 17814174.00 37269077.00 A 200711.42 200711.42 0 0 1 17969115.98 37034210.90 L 17975943.38 37018427.13 L 17985784.59 36983070.59 L 17944142.00 36941428.00 A 200711.42 200711.42 0 1 1 18307874.00 36869076.15 L 18311175.40 36874017.00 L 18374590.00 36874017.00 A 200702.40 200702.40 0 0 1 18502316.00 37182374.00 L 18472865.37 37211824.63 L 18451376.05 37244489.00 L 18472865.37 37277153.37 L 18502316.00 37306604.00 A 200711.42 200711.42 0 0 1 18502316.00 37529618.00 L 18487445.00 37544489.00 L 18502316.00 37559360.00 L 18532284.00 37631711.00 L 18532284.00 37757267.00 A 200702.40 200702.40 0 0 1 18223927.00 37884993.00  zM 18135434.00 39536216.03 m -200711.42 0 a 200711.42 200711.42 0 1 1 401422.84 0a 200711.42 200711.42 0 1 1 -401422.84 0M 18223927.00 43003103.00 L 18185434.00 42964610.00 L 18146941.00 43003103.00 A 200711.42 200711.42 0 0 1 17868552.00 42724714.00 L 17907045.00 42686221.00 L 17868552.00 42647728.00 A 200711.42 200711.42 0 0 1 18074590.00 42339371.00 L 18118504.85 42357560.66 L 18156773.66 42319291.85 L 18138584.00 42275377.00 L 18138584.00 42233071.00 L 18096278.00 42233071.00 A 200702.40 200702.40 0 1 1 18332284.00 41997065.00 L 18332284.00 42039371.00 L 18374590.00 42039371.00 A 200702.40 200702.40 0 0 1 18502316.00 42347728.00 L 18463823.00 42386221.00 L 18502316.00 42424714.00 A 200711.42 200711.42 0 0 1 18502316.00 42647728.00 L 18463823.00 42686221.00 L 18502316.00 42724714.00 A 200711.42 200711.42 0 0 1 18223927.00 43003103.00  z"/>
<path id="N" d="M 23635432.47 19063778.47 m -100354.75 0 a 100354.75 100354.75 0 1 1 200709.51 0a 100354.75 100354.75 0 1 1 -200709.51 0"/>
<path id="N" d="M 37235432.47 18123620.47 m -100354.75 0 a 100354.75 100354.75 0 1 1 200709.51 0a 100354.75 100354.75 0 1 1 -200709.51 0"/>
<path id="N" d="M 32117322.47 18104722.47 m -100354.75 0 a 100354.75 100354.75 0 1 1 200709.51 0a 100354.75 100354.75 0 1 1 -200709.51 0"/>
<path id="N" d="M 23635431.47 13945667.47 m -100354.75 0 a 100354.75 100354.75 0 1 1 200709.51 0a 100354.75 100354.75 0 1 1 -200709.51 0"/>
<path id="N" d="M 23635432.47 34418109.47 m -100354.75 0 a 100354.75 100354.75 0 1 1 200709.51 0a 100354.75 100354.75 0 1 1 -200709.51 0"/>
<path id="N" d="M 23633343.47 24183074.47 m -100354.75 0 a 100354.75 100354.75 0 1 1 200709.51 0a 100354.75 100354.75 0 1 1 -200709.51 0"/>
<path id="N" d="M 23635432.47 39536219.47 m -100354.75 0 a 100354.75 100354.75 0 1 1 200709.51 0a 100354.75 100354.75 0 1 1 -200709.51 0"/>
<path id="N" d="M 23635432.47 29299999.47 m -100354.75 0 a 100354.75 100354.75 0 1 1 200709.51 0a 100354.75 100354.75 0 1 1 -200709.51 0"/>
<path id="N" d="M 24735432.47 42436219.47 m -100354.75 0 a 100354.75 100354.75 0 1 1 200709.51 0a 100354.75 100354.75 0 1 1 -200709.51 0"/>
<path id="N" d="M 18135432.47 42036219.47 m -100354.75 0 a 100354.75 100354.75 0 1 1 200709.51 0a 100354.75 100354.75 0 1 1 -200709.51 0"/>
<path id="N" d="M 23635432.47 37218109.47 m -100354.75 0 a 100354.75 100354.75 0 1 1 200709.51 0a 100354.75 100354.75 0 1 1 -200709.51 0"/>
<path id="N" d="M 18135432.47 34418109.47 m -100354.75 0 a 100354.75 100354.75 0 1 1 200709.51 0a 100354.75 100354.75 0 1 1 -200709.51 0"/>
<path id="N" d="M 44140044.00 41273383.00 L 44112021.49 41294885.49 L 42944001.00 40126865.00 L 42913386.00 40114184.00 L 42143919.00 40114184.00 L 40530616.00 38500881.00 L 40500001.00 38488200.00 L 38437008.00 38488200.00 L 38406393.00 38500881.00 L 37827907.96 39079366.04 L 37795276.00 39072875.00 A 100353.26 100353.26 0 1 0 37889137.96 39140596.04 L 38454942.00 38574792.00 L 40482067.00 38574792.00 L 42095370.00 40188095.00 L 42125985.00 40200776.00 L 42895452.00 40200776.00 L 44050791.49 41356115.49 L 44029289.00 41384138.00 A 302581.34 302581.34 0 1 0 44140044.00 41273383.00  zM 44291337.90 41535434.70 m -203916.30 0 a 203916.30 203916.30 0 1 1 407832.60 0a 203916.30 203916.30 0 1 1 -407832.60 0"/>
<path id="N" d="M 30779622.00 39889670.00 L 30762782.00 39878417.82 L 30762783.00 34765965.00 L 30746929.29 34727695.29 L 30511210.00 34491975.06 L 30511211.00 34181230.00 L 30495359.00 34142961.00 L 29430451.00 33078053.00 L 29430451.00 32913238.88 L 29514009.04 32829680.23 A 96456.22 96456.22 0 1 0 29418310.00 32768324.00 L 29419904.41 32770710.20 L 29338062.00 32852552.00 L 29322211.00 32890823.41 L 29322210.00 33100471.00 L 29338062.00 33138740.00 L 30402970.00 34203648.00 L 30402969.00 34514393.00 L 30418821.00 34552662.00 L 30654542.00 34788382.06 L 30654542.00 39878417.82 L 30637702.00 39889670.00 A 100353.26 100353.26 0 1 0 30779622.00 39889670.00  z"/>
<path id="N" d="M 23635432.47 26981889.47 m -100354.75 0 a 100354.75 100354.75 0 1 1 200709.51 0a 100354.75 100354.75 0 1 1 -200709.51 0"/>
<path id="N" d="M 18135432.47 24181889.47 m -100354.75 0 a 100354.75 100354.75 0 1 1 200709.51 0a 100354.75 100354.75 0 1 1 -200709.51 0"/>
<path id="N" d="M 30118109.47 40354328.47 m -100354.75 0 a 100354.75 100354.75 0 1 1 200709.51 0a 100354.75 100354.75 0 1 1 -200709.51 0"/>
<path id="N" d="M 29724408.47 40354328.47 m -100354.75 0 a 100354.75 100354.75 0 1 1 200709.51 0a 100354.75 100354.75 0 1 1 -200709.51 0"/>
<path id="N" d="M 29330707.47 40354328.47 m -100354.75 0 a 100354.75 100354.75 0 1 1 200709.51 0a 100354.75 100354.75 0 1 1 -200709.51 0"/>
<path id="N" d="M 34842518.47 32283462.47 m -100354.75 0 a 100354.75 100354.75 0 1 1 200709.51 0a 100354.75 100354.75 0 1 1 -200709.51 0"/>
<path id="N" d="M 34842518.47 33070864.47 m -100354.75 0 a 100354.75 100354.75 0 1 1 200709.51 0a 100354.75 100354.75 0 1 1 -200709.51 0"/>
<path id="N" d="M 40911022.47 41229919.47 m -100354.75 0 a 100354.75 100354.75 0 1 1 200709.51 0a 100354.75 100354.75 0 1 1 -200709.51 0"/>
<path id="N" d="M 29811022.47 33829919.47 m -100354.75 0 a 100354.75 100354.75 0 1 1 200709.51 0a 100354.75 100354.75 0 1 1 -200709.51 0"/>
<path id="N" d="M 39914803.47 33812440.47 m -100354.75 0 a 100354.75 100354.75 0 1 1 200709.51 0a 100354.75 100354.75 0 1 1 -200709.51 0"/>
<path id="N" d="M 30511809.47 40354328.47 m -100354.75 0 a 100354.75 100354.75 0 1 1 200709.51 0a 100354.75 100354.75 0 1 1 -200709.51 0"/>
<path id="N" d="M 29066613.47 40354328.47 m -100354.75 0 a 100354.75 100354.75 0 1 1 200709.51 0a 100354.75 100354.75 0 1 1 -200709.51 0"/>
<path id="N" d="M 40354329.47 34645667.47 m -100354.75 0 a 100354.75 100354.75 0 1 1 200709.51 0a 100354.75 100354.75 0 1 1 -200709.51 0"/>
<path id="N" d="M 39460707.47 33904872.47 m -100354.75 0 a 100354.75 100354.75 0 1 1 200709.51 0a 100354.75 100354.75 0 1 1 -200709.51 0"/>
<path id="N" d="M 14960628.47 35039368.47 m -100354.75 0 a 100354.75 100354.75 0 1 1 200709.51 0a 100354.75 100354.75 0 1 1 -200709.51 0"/>
<path id="N" d="M 34842518.47 32677163.47 m -100354.75 0 a 100354.75 100354.75 0 1 1 200709.51 0a 100354.75 100354.75 0 1 1 -200709.51 0"/>
<path id="N" d="M 34448817.47 32283462.47 m -100354.75 0 a 100354.75 100354.75 0 1 1 200709.51 0a 100354.75 100354.75 0 1 1 -200709.51 0"/>
<path id="N" d="M 35236219.47 32283462.47 m -100354.75 0 a 100354.75 100354.75 0 1 1 200709.51 0a 100354.75 100354.75 0 1 1 -200709.51 0"/>
<path id="N" d="M 34448817.47 33070864.47 m -100354.75 0 a 100354.75 100354.75 0 1 1 200709.51 0a 100354.75 100354.75 0 1 1 -200709.51 0"/>
<path id="N" d="M 34055116.47 33070864.47 m -100354.75 0 a 100354.75 100354.75 0 1 1 200709.51 0a 100354.75 100354.75 0 1 1 -200709.51 0"/>
<path id="N" d="M 34448817.47 32677163.47 m -100354.75 0 a 100354.75 100354.75 0 1 1 200709.51 0a 100354.75 100354.75 0 1 1 -200709.51 0"/>
<path id="N" d="M 35236219.47 32677163.47 m -100354.75 0 a 100354.75 100354.75 0 1 1 200709.51 0a 100354.75 100354.75 0 1 1 -200709.51 0"/>
<path id="N" d="M 38582502.47 27165178.47 m -100354.75 0 a 100354.75 100354.75 0 1 1 200709.51 0a 100354.75 100354.75 0 1 1 -200709.51 0"/>
<path id="N" d="M 34055116.47 32677163.47 m -100354.75 0 a 100354.75 100354.75 0 1 1 200709.51 0a 100354.75 100354.75 0 1 1 -200709.51 0"/>
<path id="N" d="M 34055116.47 32283462.47 m -100354.75 0 a 100354.75 100354.75 0 1 1 200709.51 0a 100354.75 100354.75 0 1 1 -200709.51 0"/>
<path id="N" d="M 26185870.00 43337701.00 L 27392820.00 42130751.00 L 27405501.00 42100136.00 L 27405501.00 40852557.00 L 28315842.00 41762898.00 L 28346457.00 41775579.00 L 28912684.00 41775579.00 L 28943299.00 41762898.00 L 29412980.00 41293217.00 L 29910977.00 41293217.00 L 29941592.00 41280536.00 L 31920379.00 39301749.00 L 31933060.00 39271134.00 L 31933060.00 38994312.00 L 35451005.00 35476367.00 L 37907875.00 35476367.00 L 37938490.00 35463686.00 L 39152899.00 34249277.00 L 39165580.00 34218662.00 L 39165580.00 33336595.00 L 41369198.00 31132977.00 L 41381879.00 31102362.00 L 41381879.00 24409449.00 L 41369198.00 24378834.00 L 41038743.96 24048379.96 L 41045235.00 24015748.00 A 100353.26 100353.26 0 1 0 40977513.96 24109609.96 L 41295287.00 24427383.00 L 41295287.00 31084428.00 L 39091669.00 33288046.00 L 39078988.00 33318661.00 L 39078988.00 34200728.00 L 37889941.00 35389775.00 L 35433071.00 35389775.00 L 35402456.00 35402456.00 L 31859149.00 38945763.00 L 31846468.00 38976378.00 L 31846468.00 39253200.00 L 29893043.00 41206625.00 L 29395046.00 41206625.00 L 29364431.00 41219306.00 L 28894750.00 41688987.00 L 28364391.00 41688987.00 L 27456066.96 40780662.96 L 27462558.00 40748031.00 A 100353.26 100353.26 0 1 0 27318909.00 40837475.59 L 27318909.00 42082202.00 L 26137321.00 43263790.00 L 16994500.00 43263790.00 L 16972999.00 43242289.00 L 16972999.00 37402143.00 L 16960318.00 37371528.00 L 15384946.00 35796156.00 L 15354331.00 35783475.00 L 15050074.59 35783475.00 L 15031590.00 35755811.00 A 100353.26 100353.26 0 1 0 15031590.00 35897731.00 L 15050074.59 35870067.00 L 15336397.00 35870067.00 L 16886407.00 37420077.00 L 16886407.00 43260223.00 L 16899088.00 43290838.00 L 16945951.00 43337701.00 L 16976566.00 43350382.00 L 26155255.00 43350382.00 L 26185870.00 43337701.00  z"/>
<path id="N" d="M 34335432.47 19223620.47 m -100354.75 0 a 100354.75 100354.75 0 1 1 200709.51 0a 100354.75 100354.75 0 1 1 -200709.51 0"/>
<path id="N" d="M 34735432.47 12623620.47 m -100354.75 0 a 100354.75 100354.75 0 1 1 200709.51 0a 100354.75 100354.75 0 1 1 -200709.51 0"/>
<path id="N" d="M 32054320.00 33990476.41 L 32054320.00 33915844.00 L 33121639.00 32848525.00 L 33134320.00 32817910.00 L 33134320.00 24109921.00 L 33121639.00 24079306.00 L 32854320.00 23811987.00 L 32854320.00 22419365.59 L 32881984.00 22400881.00 A 100353.26 100353.26 0 1 0 32740064.00 22400881.00 L 32767728.00 22419365.59 L 32767728.00 23829921.00 L 32780409.00 23860536.00 L 33047728.00 24127855.00 L 33047728.00 32799976.00 L 31980409.00 33867295.00 L 31967728.00 33897910.00 L 31967728.00 33990476.41 L 31940064.00 34008961.00 A 100353.26 100353.26 0 1 0 32054320.00 33990476.41  z"/>
<path id="N" d="M 18135432.47 26681889.47 m -100354.75 0 a 100354.75 100354.75 0 1 1 200709.51 0a 100354.75 100354.75 0 1 1 -200709.51 0"/>
<path id="N" d="M 24735432.47 27081889.47 m -100354.75 0 a 100354.75 100354.75 0 1 1 200709.51 0a 100354.75 100354.75 0 1 1 -200709.51 0"/>
<path id="N" d="M 42901572.67 17007079.71 m -311728.46 0 a 311728.46 311728.46 0 1 1 623456.93 0a 311728.46 311728.46 0 1 1 -623456.93 0M 42901574.24 17007085.93 m -204721.07 0 a 204721.07 204721.07 0 1 1 409442.13 0a 204721.07 204721.07 0 1 1 -409442.13 0"/>
<path id="N" d="M 43210630.00 15516929.00 L 42592520.00 15516929.00 L 42592520.00 16135039.00 L 43210630.00 16135039.00 L 43210630.00 15516929.00  zM 42901574.24 15825983.93 m -204721.07 0 a 204721.07 204721.07 0 1 1 409442.13 0a 204721.07 204721.07 0 1 1 -409442.13 0"/>
</g>
</svg>
