<svg width="85.00000018mm" height="85.00000018mm" viewBox="0 0 33464567 33464567"  version="1.1" xmlns="http://www.w3.org/2000/svg" xmlns:xlink="http://www.w3.org/1999/xlink">
<desc>
Origin 11811024 10629921 Bound 11811024 10629921 33464567 33464567
</desc>
<g fill-rule="evenodd" fill="rgb(255, 0, 255)" stroke="black" stroke-width="1" transform="translate(0, 33464567) scale(1, -1) translate(-11811024, -10629921)">
<path id="N" d="M 45275591.00 42990799.00 L 45275591.00 11733609.00 A 1183604.65 1183604.65 0 0 0 44171902.00 10629921.00 L 12914712.00 10629921.00 A 1183546.33 1183546.33 0 0 0 11811024.00 11733609.00 L 11811024.00 42990799.00 A 1183546.33 1183546.33 0 0 0 12914712.00 44094488.00 L 44171902.00 44094488.00 A 1183701.70 1183701.70 0 0 0 45275591.00 42990799.00  zM 14468506.69 13287392.28 m -712098.72 0 a 712098.72 712098.72 0 1 1 1424197.44 0a 712098.72 712098.72 0 1 1 -1424197.44 0M 12893700.00 23728346.00 L 12185040.00 23728346.00 L 12185040.00 23236220.00 L 12893700.00 23236220.00 L 12893700.00 23728346.00  zM 14779527.00 24625984.00 L 14385827.00 24625984.00 L 14385827.00 24389764.00 L 14779527.00 24389764.00 L 14779527.00 24625984.00  zM 14779527.00 25216535.00 L 14385827.00 25216535.00 L 14385827.00 24980315.00 L 14779527.00 24980315.00 L 14779527.00 25216535.00  zM 14779527.00 26397637.00 L 14385827.00 26397637.00 L 14385827.00 26161417.00 L 14779527.00 26161417.00 L 14779527.00 26397637.00  zM 14779527.00 25807086.00 L 14385827.00 25807086.00 L 14385827.00 25570866.00 L 14779527.00 25570866.00 L 14779527.00 25807086.00  zM 36551183.00 23803142.05 m -338174.95 0 a 338174.95 338174.95 0 1 1 676349.89 0a 338174.95 338174.95 0 1 1 -676349.89 0M 36551183.00 24803142.05 m -338174.95 0 a 338174.95 338174.95 0 1 1 676349.89 0a 338174.95 338174.95 0 1 1 -676349.89 0M 36551183.00 25803142.05 m -338174.95 0 a 338174.95 338174.95 0 1 1 676349.89 0a 338174.95 338174.95 0 1 1 -676349.89 0M 14779527.00 26988188.00 L 14385827.00 26988188.00 L 14385827.00 26751968.00 L 14779527.00 26751968.00 L 14779527.00 26988188.00  zM 14779527.00 27578740.00 L 14385827.00 27578740.00 L 14385827.00 27342520.00 L 14779527.00 27342520.00 L 14779527.00 27578740.00  zM 14779527.00 28169291.00 L 14385827.00 28169291.00 L 14385827.00 27933071.00 L 14779527.00 27933071.00 L 14779527.00 28169291.00  zM 12893700.00 31094488.00 L 12185040.00 31094488.00 L 12185040.00 30602362.00 L 12893700.00 30602362.00 L 12893700.00 31094488.00  zM 14468506.69 41436999.28 m -712098.72 0 a 712098.72 712098.72 0 1 1 1424197.44 0a 712098.72 712098.72 0 1 1 -1424197.44 0M 14779527.00 28759842.00 L 14385827.00 28759842.00 L 14385827.00 28523622.00 L 14779527.00 28523622.00 L 14779527.00 28759842.00  zM 14779527.00 29940944.00 L 14385827.00 29940944.00 L 14385827.00 29704724.00 L 14779527.00 29704724.00 L 14779527.00 29940944.00  zM 14779527.00 29350393.00 L 14385827.00 29350393.00 L 14385827.00 29114173.00 L 14779527.00 29114173.00 L 14779527.00 29350393.00  zM 36551183.00 26803142.05 m -338174.95 0 a 338174.95 338174.95 0 1 1 676349.89 0a 338174.95 338174.95 0 1 1 -676349.89 0M 42618113.69 13287392.28 m -712098.72 0 a 712098.72 712098.72 0 1 1 1424197.44 0a 712098.72 712098.72 0 1 1 -1424197.44 0M 43210630.00 16135039.00 L 42592520.00 16135039.00 L 42592520.00 15516929.00 L 43210630.00 15516929.00 L 43210630.00 16135039.00  zM 41720474.33 15825980.13 m -311725.87 0 a 311725.87 311725.87 0 1 1 623451.74 0a 311725.87 311725.87 0 1 1 -623451.74 0M 41720474.33 17007082.13 m -311725.87 0 a 311725.87 311725.87 0 1 1 623451.74 0a 311725.87 311725.87 0 1 1 -623451.74 0M 42901576.33 17007082.13 m -311725.87 0 a 311725.87 311725.87 0 1 1 623451.74 0a 311725.87 311725.87 0 1 1 -623451.74 0M 40539369.24 17377164.93 m -204721.07 0 a 204721.07 204721.07 0 1 1 409442.13 0a 204721.07 204721.07 0 1 1 -409442.13 0M 44082677.24 17377164.93 m -204721.07 0 a 204721.07 204721.07 0 1 1 409442.13 0a 204721.07 204721.07 0 1 1 -409442.13 0M 37401573.81 24803150.80 m -250882.20 0 a 250882.20 250882.20 0 1 1 501764.39 0a 250882.20 250882.20 0 1 1 -501764.39 0M 43272048.00 35880660.00 L 42858662.00 35880660.00 A 251524.53 251524.53 0 0 1 42858662.00 35377608.00 L 43272048.00 35377608.00 A 251524.53 251524.53 0 0 1 43272048.00 35880660.00  zM 43262204.12 36192128.55 m -171240.45 0 a 171240.45 171240.45 0 1 1 342480.90 0a 171240.45 171240.45 0 1 1 -342480.90 0M 44888189.00 35850554.00 L 44533859.00 35850554.00 A 221427.33 221427.33 0 1 1 44533859.00 35407714.00 L 44888189.00 35407714.00 A 221427.33 221427.33 0 0 1 44888189.00 35850554.00  zM 43262204.12 38467718.55 m -171240.45 0 a 171240.45 171240.45 0 1 1 342480.90 0a 171240.45 171240.45 0 1 1 -342480.90 0M 43272048.00 39282234.00 L 42858662.00 39282234.00 A 251524.53 251524.53 0 0 1 42858662.00 38779182.00 L 43272048.00 38779182.00 A 251524.53 251524.53 0 0 1 43272048.00 39282234.00  zM 44888189.00 39252128.00 L 44533859.00 39252128.00 A 221427.33 221427.33 0 1 1 44533859.00 38809288.00 L 44888189.00 38809288.00 A 221427.33 221427.33 0 0 1 44888189.00 39252128.00  zM 44291338.04 40535433.73 m -342933.27 0 a 342933.27 342933.27 0 1 1 685866.54 0a 342933.27 342933.27 0 1 1 -685866.54 0M 42618113.69 41436999.28 m -712098.72 0 a 712098.72 712098.72 0 1 1 1424197.44 0a 712098.72 712098.72 0 1 1 -1424197.44 0M 44291338.04 41535433.73 m -342933.27 0 a 342933.27 342933.27 0 1 1 685866.54 0a 342933.27 342933.27 0 1 1 -685866.54 0"/>
</g>
</svg>
