G04*
G04 #@! TF.GenerationSoftware,Altium Limited,Altium Designer,24.9.1 (31)*
G04*
G04 Layer_Color=16711935*
%FSLAX44Y44*%
%MOMM*%
G71*
G04*
G04 #@! TF.SameCoordinates,E8F54852-4FAE-476C-9330-F2E97CA3312C*
G04*
G04*
G04 #@! TF.FilePolarity,Negative*
G04*
G01*
G75*
%ADD38R,1.0000X0.6000*%
%ADD39R,1.8000X1.2500*%
%ADD112C,1.7272*%
%ADD113C,1.7032*%
%ADD114C,0.2032*%
%ADD115C,1.0200*%
%ADD116C,1.5700*%
%ADD117R,1.5700X1.5700*%
%ADD118O,2.3032X1.2532*%
%ADD119O,2.0032X1.1032*%
%ADD120C,0.8532*%
D38*
X70400Y487500D02*
D03*
Y472500D02*
D03*
Y457500D02*
D03*
Y442500D02*
D03*
Y427500D02*
D03*
Y412500D02*
D03*
Y397500D02*
D03*
Y382500D02*
D03*
Y367500D02*
D03*
Y352500D02*
D03*
D39*
X18500Y326450D02*
D03*
Y513550D02*
D03*
D112*
X825000Y785000D02*
D03*
Y759600D02*
D03*
D113*
X628400Y410800D02*
D03*
Y385400D02*
D03*
Y360000D02*
D03*
Y334600D02*
D03*
D114*
X650000Y360000D02*
D03*
X782500Y782500D02*
D03*
Y67500D02*
D03*
X67500Y782500D02*
D03*
Y67500D02*
D03*
D115*
X819700Y171380D02*
D03*
X729700D02*
D03*
D116*
X759700Y161980D02*
D03*
X789700D02*
D03*
X759700Y131980D02*
D03*
D117*
X789700D02*
D03*
D118*
X793860Y634980D02*
D03*
Y721380D02*
D03*
D119*
X835660Y634980D02*
D03*
Y721380D02*
D03*
D120*
X798860Y707080D02*
D03*
Y649280D02*
D03*
M02*
