G04*
G04 #@! TF.GenerationSoftware,Altium Limited,Altium Designer,24.9.1 (31)*
G04*
G04 Layer_Physical_Order=2*
G04 Layer_Color=36540*
%FSLAX44Y44*%
%MOMM*%
G71*
G04*
G04 #@! TF.SameCoordinates,E8F54852-4FAE-476C-9330-F2E97CA3312C*
G04*
G04*
G04 #@! TF.FilePolarity,Positive*
G04*
G01*
G75*
%ADD115C,1.0200*%
%ADD116C,1.5700*%
%ADD117R,1.5700X1.5700*%
%ADD127C,1.5240*%
%ADD128C,1.5000*%
%ADD129O,2.1000X1.0500*%
%ADD130O,1.8000X0.9000*%
%ADD131C,0.6500*%
%ADD132C,0.5000*%
G36*
X824853Y844396D02*
X827996Y843554D01*
X831001Y842309D01*
X833819Y840682D01*
X836401Y838701D01*
X838701Y836401D01*
X840682Y833819D01*
X842309Y831001D01*
X843554Y827996D01*
X844396Y824853D01*
X844821Y821627D01*
Y820000D01*
Y728079D01*
X843551Y727596D01*
X841998Y728239D01*
X841375Y728321D01*
Y721380D01*
Y714439D01*
X841998Y714521D01*
X843551Y715164D01*
X844821Y714681D01*
Y641678D01*
X843551Y641196D01*
X841998Y641839D01*
X841375Y641921D01*
Y634980D01*
Y628039D01*
X841998Y628121D01*
X843551Y628764D01*
X844821Y628282D01*
Y30000D01*
Y28373D01*
X844396Y25147D01*
X843554Y22004D01*
X842309Y18999D01*
X840682Y16181D01*
X838701Y13599D01*
X836401Y11299D01*
X833819Y9318D01*
X831001Y7691D01*
X827996Y6446D01*
X824853Y5604D01*
X821627Y5179D01*
X28373D01*
X25147Y5604D01*
X22004Y6446D01*
X18999Y7691D01*
X16181Y9318D01*
X13599Y11299D01*
X11299Y13599D01*
X9318Y16181D01*
X7691Y18999D01*
X6446Y22004D01*
X5604Y25147D01*
X5179Y28373D01*
Y30000D01*
Y820000D01*
Y821627D01*
X5604Y824853D01*
X6446Y827996D01*
X7691Y831001D01*
X9318Y833819D01*
X11299Y836401D01*
X13599Y838701D01*
X16181Y840682D01*
X18999Y842309D01*
X22004Y843554D01*
X25147Y844396D01*
X28373Y844821D01*
X496650D01*
Y799870D01*
X497134Y798704D01*
X498300Y798220D01*
X652300D01*
X653466Y798704D01*
X653950Y799870D01*
Y844821D01*
X821627D01*
X824853Y844396D01*
D02*
G37*
%LPC*%
G36*
X250995Y825000D02*
X249005D01*
X247168Y824239D01*
X245761Y822832D01*
X245687Y822654D01*
X244313D01*
X244239Y822832D01*
X242832Y824239D01*
X240995Y825000D01*
X239005D01*
X237168Y824239D01*
X235761Y822832D01*
X235687Y822654D01*
X234313D01*
X234239Y822832D01*
X232832Y824239D01*
X230995Y825000D01*
X229005D01*
X227168Y824239D01*
X225761Y822832D01*
X225687Y822654D01*
X224313D01*
X224239Y822832D01*
X222832Y824239D01*
X220995Y825000D01*
X219005D01*
X217168Y824239D01*
X215761Y822832D01*
X215635Y822528D01*
X214365D01*
X214239Y822832D01*
X212832Y824239D01*
X210995Y825000D01*
X209005D01*
X207168Y824239D01*
X205761Y822832D01*
X205000Y820995D01*
Y819005D01*
X205761Y817168D01*
X207168Y815761D01*
X207346Y815687D01*
Y814313D01*
X207168Y814239D01*
X205761Y812832D01*
X205000Y810995D01*
Y809005D01*
X205761Y807168D01*
X207168Y805761D01*
X207346Y805687D01*
Y804313D01*
X207168Y804239D01*
X205761Y802832D01*
X205000Y800995D01*
Y799005D01*
X205761Y797168D01*
X207168Y795761D01*
X209005Y795000D01*
X210994D01*
X212832Y795761D01*
X214239Y797168D01*
X214313Y797346D01*
X215687D01*
X215761Y797168D01*
X217168Y795761D01*
X219005Y795000D01*
X220995D01*
X222832Y795761D01*
X224239Y797168D01*
X224313Y797346D01*
X225687D01*
X225761Y797168D01*
X227168Y795761D01*
X229005Y795000D01*
X230995D01*
X232832Y795761D01*
X234239Y797168D01*
X235000Y799005D01*
Y800995D01*
X234239Y802832D01*
X232832Y804239D01*
X232654Y804313D01*
Y805687D01*
X232832Y805761D01*
X234239Y807168D01*
X234313Y807346D01*
X235687D01*
X235761Y807168D01*
X237168Y805761D01*
X239005Y805000D01*
X240995D01*
X242832Y805761D01*
X244239Y807168D01*
X244313Y807346D01*
X245687D01*
X245761Y807168D01*
X247168Y805761D01*
X247346Y805687D01*
Y804313D01*
X247168Y804239D01*
X245761Y802832D01*
X245000Y800995D01*
Y799005D01*
X245761Y797168D01*
X247168Y795761D01*
X249005Y795000D01*
X250995D01*
X252832Y795761D01*
X254239Y797168D01*
X255000Y799005D01*
Y800995D01*
X254239Y802832D01*
X252832Y804239D01*
X252654Y804313D01*
Y805687D01*
X252832Y805761D01*
X254239Y807168D01*
X255000Y809005D01*
Y810995D01*
X254239Y812832D01*
X252832Y814239D01*
X252654Y814313D01*
Y815687D01*
X252832Y815761D01*
X254239Y817168D01*
X255000Y819005D01*
Y820995D01*
X254239Y822832D01*
X252832Y824239D01*
X250995Y825000D01*
D02*
G37*
G36*
X263235Y828120D02*
X261245D01*
X259408Y827359D01*
X258001Y825952D01*
X257240Y824115D01*
Y822125D01*
X258001Y820288D01*
X259408Y818881D01*
X261245Y818120D01*
X263235D01*
X265072Y818881D01*
X266479Y820288D01*
X267240Y822125D01*
Y824115D01*
X266479Y825952D01*
X265072Y827359D01*
X263235Y828120D01*
D02*
G37*
G36*
X397040Y814284D02*
X395440D01*
X393961Y813671D01*
X392829Y812539D01*
X392216Y811060D01*
Y809460D01*
X392829Y807981D01*
X393961Y806849D01*
X395440Y806236D01*
X397040D01*
X398519Y806849D01*
X399651Y807981D01*
X400264Y809460D01*
Y811060D01*
X399651Y812539D01*
X398519Y813671D01*
X397040Y814284D01*
D02*
G37*
G36*
X329080Y811904D02*
X327480D01*
X326001Y811291D01*
X324869Y810159D01*
X324256Y808680D01*
Y807080D01*
X324869Y805601D01*
X326001Y804469D01*
X327480Y803856D01*
X329080D01*
X330559Y804469D01*
X331691Y805601D01*
X332304Y807080D01*
Y808680D01*
X331691Y810159D01*
X330559Y811291D01*
X329080Y811904D01*
D02*
G37*
G36*
X301140Y809364D02*
X299540D01*
X298061Y808751D01*
X296929Y807619D01*
X296316Y806141D01*
Y804540D01*
X296929Y803061D01*
X298061Y801929D01*
X299540Y801316D01*
X301140D01*
X302619Y801929D01*
X303751Y803061D01*
X304364Y804540D01*
Y806141D01*
X303751Y807619D01*
X302619Y808751D01*
X301140Y809364D01*
D02*
G37*
G36*
X161440Y801744D02*
X159840D01*
X158361Y801131D01*
X157229Y799999D01*
X156616Y798521D01*
Y796920D01*
X157229Y795441D01*
X158361Y794309D01*
X159840Y793696D01*
X161440D01*
X162919Y794309D01*
X164051Y795441D01*
X164664Y796920D01*
Y798521D01*
X164051Y799999D01*
X162919Y801131D01*
X161440Y801744D01*
D02*
G37*
G36*
X410800Y799024D02*
X409200D01*
X407721Y798411D01*
X406589Y797279D01*
X405976Y795800D01*
Y794200D01*
X406589Y792721D01*
X407721Y791589D01*
X409200Y790976D01*
X410800D01*
X412279Y791589D01*
X413411Y792721D01*
X414024Y794200D01*
Y795800D01*
X413411Y797279D01*
X412279Y798411D01*
X410800Y799024D01*
D02*
G37*
G36*
X826204Y794144D02*
X823796D01*
X821470Y793521D01*
X819386Y792317D01*
X817683Y790614D01*
X816479Y788530D01*
X815856Y786204D01*
Y783796D01*
X816479Y781470D01*
X817683Y779386D01*
X819386Y777683D01*
X821470Y776479D01*
X823796Y775856D01*
X826204D01*
X828530Y776479D01*
X830614Y777683D01*
X832317Y779386D01*
X833521Y781470D01*
X834144Y783796D01*
Y786204D01*
X833521Y788530D01*
X832317Y790614D01*
X830614Y792317D01*
X828530Y793521D01*
X826204Y794144D01*
D02*
G37*
G36*
X739940Y781264D02*
X738340D01*
X736861Y780651D01*
X735729Y779519D01*
X735116Y778040D01*
Y776440D01*
X735729Y774961D01*
X736861Y773829D01*
X738340Y773216D01*
X739940D01*
X741419Y773829D01*
X742551Y774961D01*
X743164Y776440D01*
Y778040D01*
X742551Y779519D01*
X741419Y780651D01*
X739940Y781264D01*
D02*
G37*
G36*
X656120Y776184D02*
X654520D01*
X653041Y775571D01*
X651909Y774439D01*
X651296Y772960D01*
Y771360D01*
X651909Y769881D01*
X653041Y768749D01*
X654520Y768136D01*
X656120D01*
X657599Y768749D01*
X658731Y769881D01*
X659344Y771360D01*
Y772960D01*
X658731Y774439D01*
X657599Y775571D01*
X656120Y776184D01*
D02*
G37*
G36*
X784423Y802024D02*
X780577D01*
X776805Y801274D01*
X773252Y799802D01*
X770054Y797665D01*
X767335Y794946D01*
X765198Y791748D01*
X763726Y788195D01*
X762976Y784423D01*
Y780577D01*
X763726Y776805D01*
X765198Y773252D01*
X767335Y770054D01*
X770054Y767335D01*
X773252Y765198D01*
X776805Y763726D01*
X780577Y762976D01*
X784423D01*
X788195Y763726D01*
X791748Y765198D01*
X794946Y767335D01*
X797665Y770054D01*
X799802Y773252D01*
X801274Y776805D01*
X802024Y780577D01*
Y784423D01*
X801274Y788195D01*
X799802Y791748D01*
X797665Y794946D01*
X794946Y797665D01*
X791748Y799802D01*
X788195Y801274D01*
X784423Y802024D01*
D02*
G37*
G36*
X69423D02*
X65577D01*
X61805Y801274D01*
X58252Y799802D01*
X55054Y797665D01*
X52335Y794946D01*
X50198Y791748D01*
X48726Y788195D01*
X47976Y784423D01*
Y780577D01*
X48726Y776805D01*
X50198Y773252D01*
X52335Y770054D01*
X55054Y767335D01*
X58252Y765198D01*
X61805Y763726D01*
X65577Y762976D01*
X69423D01*
X73195Y763726D01*
X76748Y765198D01*
X79946Y767335D01*
X82665Y770054D01*
X84802Y773252D01*
X86274Y776805D01*
X87024Y780577D01*
Y784423D01*
X86274Y788195D01*
X84802Y791748D01*
X82665Y794946D01*
X79946Y797665D01*
X76748Y799802D01*
X73195Y801274D01*
X69423Y802024D01*
D02*
G37*
G36*
X395800Y769024D02*
X394200D01*
X392721Y768411D01*
X391589Y767279D01*
X390976Y765800D01*
Y764200D01*
X391589Y762721D01*
X392721Y761589D01*
X394200Y760976D01*
X395800D01*
X397279Y761589D01*
X398411Y762721D01*
X399024Y764200D01*
Y765800D01*
X398411Y767279D01*
X397279Y768411D01*
X395800Y769024D01*
D02*
G37*
G36*
X445800Y759024D02*
X444200D01*
X442721Y758411D01*
X441646Y757337D01*
X440571Y758411D01*
X439092Y759024D01*
X437492D01*
X436013Y758411D01*
X434881Y757279D01*
X434268Y755800D01*
Y754200D01*
X434881Y752721D01*
X436013Y751589D01*
X437492Y750976D01*
X439092D01*
X440571Y751589D01*
X441646Y752663D01*
X442721Y751589D01*
X444200Y750976D01*
X445800D01*
X447279Y751589D01*
X448411Y752721D01*
X449024Y754200D01*
Y755800D01*
X448411Y757279D01*
X447279Y758411D01*
X445800Y759024D01*
D02*
G37*
G36*
X518960Y760944D02*
X517360D01*
X515881Y760331D01*
X514749Y759199D01*
X514136Y757720D01*
Y756120D01*
X514749Y754641D01*
X515881Y753509D01*
X517360Y752896D01*
X518960D01*
X520439Y753509D01*
X521571Y754641D01*
X522184Y756120D01*
Y757720D01*
X521571Y759199D01*
X520439Y760331D01*
X518960Y760944D01*
D02*
G37*
G36*
X475800Y759024D02*
X474200D01*
X472721Y758411D01*
X471589Y757279D01*
X470976Y755800D01*
Y754200D01*
X471589Y752721D01*
X472721Y751589D01*
X474200Y750976D01*
X475800D01*
X477279Y751589D01*
X478411Y752721D01*
X479024Y754200D01*
Y755800D01*
X478411Y757279D01*
X477279Y758411D01*
X475800Y759024D01*
D02*
G37*
G36*
X465800D02*
X464200D01*
X462721Y758411D01*
X461589Y757279D01*
X460976Y755800D01*
Y754200D01*
X461589Y752721D01*
X462721Y751589D01*
X464200Y750976D01*
X465800D01*
X467279Y751589D01*
X468411Y752721D01*
X469024Y754200D01*
Y755800D01*
X468411Y757279D01*
X467279Y758411D01*
X465800Y759024D01*
D02*
G37*
G36*
X455800D02*
X454200D01*
X452721Y758411D01*
X451589Y757279D01*
X450976Y755800D01*
Y754200D01*
X451589Y752721D01*
X452721Y751589D01*
X454200Y750976D01*
X455800D01*
X457279Y751589D01*
X458411Y752721D01*
X459024Y754200D01*
Y755800D01*
X458411Y757279D01*
X457279Y758411D01*
X455800Y759024D01*
D02*
G37*
G36*
X826204Y768744D02*
X823796D01*
X821470Y768121D01*
X819386Y766917D01*
X817683Y765214D01*
X816479Y763130D01*
X815856Y760804D01*
Y758396D01*
X816479Y756070D01*
X817683Y753986D01*
X819386Y752283D01*
X821470Y751079D01*
X823796Y750456D01*
X826204D01*
X828530Y751079D01*
X830614Y752283D01*
X832317Y753986D01*
X833521Y756070D01*
X834144Y758396D01*
Y760804D01*
X833521Y763130D01*
X832317Y765214D01*
X830614Y766917D01*
X828530Y768121D01*
X826204Y768744D01*
D02*
G37*
G36*
X480800Y749024D02*
X479200D01*
X477721Y748411D01*
X476589Y747279D01*
X475976Y745800D01*
Y744200D01*
X476589Y742721D01*
X477721Y741589D01*
X479200Y740976D01*
X480800D01*
X482279Y741589D01*
X483411Y742721D01*
X484024Y744200D01*
Y745800D01*
X483411Y747279D01*
X482279Y748411D01*
X480800Y749024D01*
D02*
G37*
G36*
X690800Y744024D02*
X689200D01*
X687721Y743411D01*
X686589Y742279D01*
X685976Y740800D01*
Y739200D01*
X686589Y737721D01*
X687721Y736589D01*
X689200Y735976D01*
X690800D01*
X692279Y736589D01*
X693411Y737721D01*
X694024Y739200D01*
Y740800D01*
X693411Y742279D01*
X692279Y743411D01*
X690800Y744024D01*
D02*
G37*
G36*
X488480Y743164D02*
X486880D01*
X485401Y742551D01*
X484269Y741419D01*
X483656Y739940D01*
Y738340D01*
X484269Y736861D01*
X485401Y735729D01*
X486880Y735116D01*
X488480D01*
X489959Y735729D01*
X491091Y736861D01*
X491704Y738340D01*
Y739940D01*
X491091Y741419D01*
X489959Y742551D01*
X488480Y743164D01*
D02*
G37*
G36*
X161440Y738244D02*
X159840D01*
X158361Y737631D01*
X157229Y736499D01*
X156616Y735021D01*
Y733420D01*
X157229Y731941D01*
X158361Y730809D01*
X159840Y730196D01*
X161440D01*
X162919Y730809D01*
X164051Y731941D01*
X164664Y733420D01*
Y735021D01*
X164051Y736499D01*
X162919Y737631D01*
X161440Y738244D01*
D02*
G37*
G36*
X326997Y737328D02*
X325396D01*
X323917Y736715D01*
X322785Y735583D01*
X322173Y734104D01*
Y732503D01*
X322785Y731024D01*
X323917Y729892D01*
X325396Y729280D01*
X326997D01*
X328476Y729892D01*
X329608Y731024D01*
X330221Y732503D01*
Y734104D01*
X329608Y735583D01*
X328476Y736715D01*
X326997Y737328D01*
D02*
G37*
G36*
X301335Y739220D02*
X299345D01*
X297508Y738459D01*
X296101Y737052D01*
X295340Y735215D01*
Y733225D01*
X296101Y731388D01*
X297508Y729981D01*
X299345Y729220D01*
X301335D01*
X303172Y729981D01*
X304579Y731388D01*
X305340Y733225D01*
Y735215D01*
X304579Y737052D01*
X303172Y738459D01*
X301335Y739220D01*
D02*
G37*
G36*
X799575Y729176D02*
Y727095D01*
X804458D01*
X803039Y728185D01*
X801144Y728969D01*
X799575Y729176D01*
D02*
G37*
G36*
X829945Y728321D02*
X829322Y728239D01*
X827610Y727529D01*
X827044Y727095D01*
X829945D01*
Y728321D01*
D02*
G37*
G36*
X788145Y729176D02*
X786576Y728969D01*
X784681Y728185D01*
X783261Y727095D01*
X788145D01*
Y729176D01*
D02*
G37*
G36*
X655800Y734024D02*
X654200D01*
X652721Y733411D01*
X651589Y732279D01*
X650976Y730800D01*
Y729200D01*
X651589Y727721D01*
X652721Y726589D01*
X654200Y725976D01*
X654803D01*
X655823Y725823D01*
X655976Y724803D01*
Y724200D01*
X656589Y722721D01*
X657721Y721589D01*
X659200Y720976D01*
X660800D01*
X662279Y721589D01*
X663411Y722721D01*
X664024Y724200D01*
Y725800D01*
X663411Y727279D01*
X662279Y728411D01*
X660800Y729024D01*
X660197D01*
X659177Y729177D01*
X659024Y730197D01*
Y730800D01*
X658411Y732279D01*
X657279Y733411D01*
X655800Y734024D01*
D02*
G37*
G36*
X829945Y715665D02*
X827044D01*
X827610Y715231D01*
X829322Y714521D01*
X829945Y714439D01*
Y715665D01*
D02*
G37*
G36*
X804459D02*
X799575D01*
Y713584D01*
X801144Y713791D01*
X803039Y714576D01*
X804459Y715665D01*
D02*
G37*
G36*
X788145D02*
X783261D01*
X784681Y714576D01*
X786576Y713791D01*
X788145Y713584D01*
Y715665D01*
D02*
G37*
G36*
X676544Y720408D02*
X674943D01*
X673464Y719795D01*
X672332Y718663D01*
X671720Y717184D01*
Y715583D01*
X672332Y714104D01*
X673464Y712972D01*
X674943Y712360D01*
X676544D01*
X678023Y712972D01*
X679155Y714104D01*
X679768Y715583D01*
Y717184D01*
X679155Y718663D01*
X678023Y719795D01*
X676544Y720408D01*
D02*
G37*
G36*
X633260Y720304D02*
X631660D01*
X630181Y719691D01*
X629049Y718559D01*
X628436Y717080D01*
Y715480D01*
X629049Y714001D01*
X630181Y712869D01*
X631660Y712256D01*
X633260D01*
X634739Y712869D01*
X635871Y714001D01*
X636484Y715480D01*
Y717080D01*
X635871Y718559D01*
X634739Y719691D01*
X633260Y720304D01*
D02*
G37*
G36*
X799810Y711854D02*
X797910D01*
X796156Y711127D01*
X794813Y709784D01*
X794086Y708030D01*
Y706130D01*
X794813Y704376D01*
X796156Y703033D01*
X797910Y702306D01*
X799810D01*
X801564Y703033D01*
X802907Y704376D01*
X803634Y706130D01*
Y708030D01*
X802907Y709784D01*
X801564Y711127D01*
X799810Y711854D01*
D02*
G37*
G36*
X250995Y695000D02*
X249005D01*
X247168Y694239D01*
X245761Y692832D01*
X245687Y692654D01*
X244313D01*
X244239Y692832D01*
X242832Y694239D01*
X240995Y695000D01*
X239005D01*
X237168Y694239D01*
X235761Y692832D01*
X235687Y692654D01*
X234313D01*
X234239Y692832D01*
X232832Y694239D01*
X230995Y695000D01*
X229005D01*
X227168Y694239D01*
X225761Y692832D01*
X225687Y692654D01*
X224313D01*
X224239Y692832D01*
X222832Y694239D01*
X220995Y695000D01*
X219005D01*
X217168Y694239D01*
X215761Y692832D01*
X215635Y692528D01*
X214365D01*
X214239Y692832D01*
X212832Y694239D01*
X210995Y695000D01*
X209005D01*
X207168Y694239D01*
X205761Y692832D01*
X205000Y690995D01*
Y689006D01*
X205761Y687168D01*
X207168Y685761D01*
X207346Y685687D01*
Y684313D01*
X207168Y684239D01*
X205761Y682832D01*
X205000Y680995D01*
Y679005D01*
X205761Y677168D01*
X207168Y675761D01*
X207346Y675687D01*
Y674313D01*
X207168Y674239D01*
X205761Y672832D01*
X205000Y670995D01*
Y669005D01*
X205761Y667168D01*
X207168Y665761D01*
X209005Y665000D01*
X210994D01*
X212832Y665761D01*
X214239Y667168D01*
X214313Y667346D01*
X215687D01*
X215761Y667168D01*
X217168Y665761D01*
X219005Y665000D01*
X220995D01*
X222832Y665761D01*
X224239Y667168D01*
X224313Y667346D01*
X225687D01*
X225761Y667168D01*
X227168Y665761D01*
X229005Y665000D01*
X230995D01*
X232832Y665761D01*
X234239Y667168D01*
X235000Y669005D01*
Y670995D01*
X234239Y672832D01*
X232832Y674239D01*
X232654Y674313D01*
Y675687D01*
X232832Y675761D01*
X234239Y677168D01*
X234313Y677346D01*
X235687D01*
X235761Y677168D01*
X237168Y675761D01*
X239005Y675000D01*
X240995D01*
X242832Y675761D01*
X244239Y677168D01*
X244313Y677346D01*
X245687D01*
X245761Y677168D01*
X247168Y675761D01*
X247346Y675687D01*
Y674313D01*
X247168Y674239D01*
X245761Y672832D01*
X245000Y670995D01*
Y669005D01*
X245761Y667168D01*
X247168Y665761D01*
X249005Y665000D01*
X250995D01*
X252832Y665761D01*
X254239Y667168D01*
X255000Y669005D01*
Y670995D01*
X254239Y672832D01*
X252832Y674239D01*
X252654Y674313D01*
Y675687D01*
X252832Y675761D01*
X254239Y677168D01*
X255000Y679005D01*
Y680995D01*
X254239Y682832D01*
X252832Y684239D01*
X252654Y684313D01*
Y685687D01*
X252832Y685761D01*
X254239Y687168D01*
X255000Y689006D01*
Y690995D01*
X254239Y692832D01*
X252832Y694239D01*
X250995Y695000D01*
D02*
G37*
G36*
X800900Y697444D02*
X799300D01*
X797821Y696831D01*
X796689Y695699D01*
X796076Y694220D01*
Y692620D01*
X796689Y691141D01*
X797821Y690009D01*
X799300Y689396D01*
X800900D01*
X802379Y690009D01*
X803511Y691141D01*
X804124Y692620D01*
Y694220D01*
X803511Y695699D01*
X802379Y696831D01*
X800900Y697444D01*
D02*
G37*
G36*
X263235Y698120D02*
X261245D01*
X259408Y697359D01*
X258001Y695952D01*
X257240Y694115D01*
Y692125D01*
X258001Y690288D01*
X259408Y688881D01*
X261245Y688120D01*
X263235D01*
X265072Y688881D01*
X266479Y690288D01*
X267240Y692125D01*
Y694115D01*
X266479Y695952D01*
X265072Y697359D01*
X263235Y698120D01*
D02*
G37*
G36*
X772960Y689824D02*
X771360D01*
X769881Y689211D01*
X768749Y688079D01*
X768136Y686600D01*
Y685000D01*
X768749Y683521D01*
X769881Y682389D01*
X771360Y681776D01*
X772960D01*
X774439Y682389D01*
X775571Y683521D01*
X776184Y685000D01*
Y686600D01*
X775571Y688079D01*
X774439Y689211D01*
X772960Y689824D01*
D02*
G37*
G36*
X376720D02*
X375120D01*
X373641Y689211D01*
X372509Y688079D01*
X371896Y686600D01*
Y685000D01*
X372509Y683521D01*
X373641Y682389D01*
X375120Y681776D01*
X376720D01*
X378199Y682389D01*
X379331Y683521D01*
X379944Y685000D01*
Y686600D01*
X379331Y688079D01*
X378199Y689211D01*
X376720Y689824D01*
D02*
G37*
G36*
X329080Y681904D02*
X327480D01*
X326001Y681291D01*
X324869Y680159D01*
X324256Y678680D01*
Y677080D01*
X324869Y675601D01*
X326001Y674469D01*
X327480Y673856D01*
X329080D01*
X330559Y674469D01*
X331691Y675601D01*
X332304Y677080D01*
Y678680D01*
X331691Y680159D01*
X330559Y681291D01*
X329080Y681904D01*
D02*
G37*
G36*
X301140Y679364D02*
X299540D01*
X298061Y678751D01*
X296929Y677619D01*
X296316Y676141D01*
Y674540D01*
X296929Y673061D01*
X298061Y671929D01*
X299540Y671316D01*
X301140D01*
X302619Y671929D01*
X303751Y673061D01*
X304364Y674540D01*
Y676141D01*
X303751Y677619D01*
X302619Y678751D01*
X301140Y679364D01*
D02*
G37*
G36*
X725800Y679024D02*
X724200D01*
X722721Y678411D01*
X721589Y677279D01*
X720976Y675800D01*
Y674200D01*
X721589Y672721D01*
X722721Y671589D01*
X724200Y670976D01*
X725800D01*
X727279Y671589D01*
X728411Y672721D01*
X729024Y674200D01*
Y675800D01*
X728411Y677279D01*
X727279Y678411D01*
X725800Y679024D01*
D02*
G37*
G36*
X655800Y674508D02*
X654200D01*
X652721Y673895D01*
X651589Y672763D01*
X650976Y671284D01*
Y669684D01*
X651589Y668205D01*
X652721Y667073D01*
X654200Y666460D01*
X655800D01*
X657279Y667073D01*
X658411Y668205D01*
X659024Y669684D01*
Y671284D01*
X658411Y672763D01*
X657279Y673895D01*
X655800Y674508D01*
D02*
G37*
G36*
X625800Y679548D02*
X624200D01*
X622721Y678935D01*
X621589Y677803D01*
X620976Y676324D01*
Y674724D01*
X621589Y673245D01*
X622571Y672262D01*
X621589Y671279D01*
X620976Y669800D01*
Y668200D01*
X621589Y666721D01*
X622721Y665589D01*
X624200Y664976D01*
X625800D01*
X627279Y665589D01*
X628411Y666721D01*
X629024Y668200D01*
Y669800D01*
X628411Y671279D01*
X627429Y672262D01*
X628411Y673245D01*
X629024Y674724D01*
Y676324D01*
X628411Y677803D01*
X627279Y678935D01*
X625800Y679548D01*
D02*
G37*
G36*
X549440Y677124D02*
X547840D01*
X546361Y676511D01*
X545229Y675379D01*
X544616Y673900D01*
Y673217D01*
X544406Y672254D01*
X543443Y672044D01*
X542760D01*
X541281Y671431D01*
X540149Y670299D01*
X539536Y668820D01*
Y667220D01*
X540149Y665741D01*
X541281Y664609D01*
X542760Y663996D01*
X544360D01*
X545839Y664609D01*
X546971Y665741D01*
X547584Y667220D01*
Y667903D01*
X547794Y668866D01*
X548757Y669076D01*
X549440D01*
X550919Y669689D01*
X552051Y670821D01*
X552664Y672300D01*
Y673900D01*
X552051Y675379D01*
X550919Y676511D01*
X549440Y677124D01*
D02*
G37*
G36*
X160820Y669504D02*
X159220D01*
X157741Y668891D01*
X156609Y667759D01*
X155996Y666280D01*
Y664680D01*
X156609Y663201D01*
X157741Y662069D01*
X159220Y661456D01*
X160820D01*
X162299Y662069D01*
X163431Y663201D01*
X164044Y664680D01*
Y666280D01*
X163431Y667759D01*
X162299Y668891D01*
X160820Y669504D01*
D02*
G37*
G36*
X698946Y664445D02*
X697345D01*
X695866Y663832D01*
X694734Y662700D01*
X694122Y661221D01*
Y659621D01*
X694734Y658141D01*
X695866Y657010D01*
X697345Y656397D01*
X698946D01*
X700425Y657010D01*
X701557Y658141D01*
X702170Y659621D01*
Y661221D01*
X701557Y662700D01*
X700425Y663832D01*
X698946Y664445D01*
D02*
G37*
G36*
X80800Y654024D02*
X79200D01*
X77721Y653411D01*
X76589Y652279D01*
X75976Y650800D01*
Y649200D01*
X76589Y647721D01*
X77721Y646589D01*
X79200Y645976D01*
X80800D01*
X82279Y646589D01*
X83411Y647721D01*
X84024Y649200D01*
Y650800D01*
X83411Y652279D01*
X82279Y653411D01*
X80800Y654024D01*
D02*
G37*
G36*
X799810Y654054D02*
X797910D01*
X796156Y653327D01*
X794813Y651984D01*
X794086Y650230D01*
Y648330D01*
X794813Y646576D01*
X796156Y645233D01*
X797910Y644506D01*
X799810D01*
X801564Y645233D01*
X802907Y646576D01*
X803634Y648330D01*
Y650230D01*
X802907Y651984D01*
X801564Y653327D01*
X799810Y654054D01*
D02*
G37*
G36*
X799575Y642776D02*
Y640695D01*
X804458D01*
X803039Y641785D01*
X801144Y642570D01*
X799575Y642776D01*
D02*
G37*
G36*
X829945Y641921D02*
X829322Y641839D01*
X827610Y641129D01*
X827044Y640695D01*
X829945D01*
Y641921D01*
D02*
G37*
G36*
X788145Y642776D02*
X786576Y642570D01*
X784681Y641785D01*
X783262Y640695D01*
X788145D01*
Y642776D01*
D02*
G37*
G36*
X724700Y644104D02*
X723100D01*
X721621Y643491D01*
X720489Y642359D01*
X719876Y640880D01*
Y639280D01*
X720489Y637801D01*
X721621Y636669D01*
X723100Y636056D01*
X724700D01*
X726179Y636669D01*
X727311Y637801D01*
X727924Y639280D01*
Y640880D01*
X727311Y642359D01*
X726179Y643491D01*
X724700Y644104D01*
D02*
G37*
G36*
X80800Y644024D02*
X79200D01*
X77721Y643411D01*
X76589Y642279D01*
X75976Y640800D01*
Y639200D01*
X76589Y637721D01*
X77721Y636589D01*
X79200Y635976D01*
X80800D01*
X82279Y636589D01*
X83411Y637721D01*
X84024Y639200D01*
Y640800D01*
X83411Y642279D01*
X82279Y643411D01*
X80800Y644024D01*
D02*
G37*
G36*
X793860Y634980D02*
D01*
D01*
D01*
D01*
D02*
G37*
G36*
X829945Y629265D02*
X827043D01*
X827610Y628831D01*
X829322Y628121D01*
X829945Y628039D01*
Y629265D01*
D02*
G37*
G36*
X804459D02*
X799575D01*
Y627184D01*
X801144Y627391D01*
X803039Y628176D01*
X804459Y629265D01*
D02*
G37*
G36*
X788145D02*
X783261D01*
X784681Y628176D01*
X786576Y627391D01*
X788145Y627184D01*
Y629265D01*
D02*
G37*
G36*
X725800Y629024D02*
X724200D01*
X722721Y628411D01*
X721589Y627279D01*
X720976Y625800D01*
Y624200D01*
X721589Y622721D01*
X722721Y621589D01*
X724200Y620976D01*
X725800D01*
X727279Y621589D01*
X728411Y622721D01*
X729024Y624200D01*
Y625800D01*
X728411Y627279D01*
X727279Y628411D01*
X725800Y629024D01*
D02*
G37*
G36*
X600240Y628864D02*
X598640D01*
X597161Y628251D01*
X596029Y627119D01*
X595416Y625640D01*
Y624040D01*
X596029Y622561D01*
X597161Y621429D01*
X598640Y620816D01*
X600240D01*
X601719Y621429D01*
X602851Y622561D01*
X603464Y624040D01*
Y625640D01*
X602851Y627119D01*
X601719Y628251D01*
X600240Y628864D01*
D02*
G37*
G36*
X80800Y624024D02*
X79200D01*
X77721Y623411D01*
X76589Y622279D01*
X75976Y620800D01*
Y619200D01*
X76589Y617721D01*
X77721Y616589D01*
X79200Y615976D01*
X80800D01*
X82279Y616589D01*
X83411Y617721D01*
X84024Y619200D01*
Y620800D01*
X83411Y622279D01*
X82279Y623411D01*
X80800Y624024D01*
D02*
G37*
G36*
X630720Y621244D02*
X629120D01*
X627641Y620631D01*
X626509Y619499D01*
X625896Y618020D01*
Y616420D01*
X626509Y614941D01*
X627641Y613809D01*
X629120Y613196D01*
X630720D01*
X632199Y613809D01*
X633331Y614941D01*
X633944Y616420D01*
Y618020D01*
X633331Y619499D01*
X632199Y620631D01*
X630720Y621244D01*
D02*
G37*
G36*
X612940Y619974D02*
X611340D01*
X609861Y619361D01*
X608729Y618229D01*
X608116Y616750D01*
Y615150D01*
X608729Y613671D01*
X609861Y612539D01*
X611340Y611926D01*
X612940D01*
X614419Y612539D01*
X615551Y613671D01*
X616164Y615150D01*
Y616750D01*
X615551Y618229D01*
X614419Y619361D01*
X612940Y619974D01*
D02*
G37*
G36*
X725800Y614024D02*
X724200D01*
X722721Y613411D01*
X721589Y612279D01*
X720976Y610800D01*
Y609200D01*
X721589Y607721D01*
X722721Y606589D01*
X724200Y605976D01*
X725800D01*
X727279Y606589D01*
X728411Y607721D01*
X729024Y609200D01*
Y610800D01*
X728411Y612279D01*
X727279Y613411D01*
X725800Y614024D01*
D02*
G37*
G36*
X695817D02*
X694216D01*
X692737Y613411D01*
X691605Y612279D01*
X690993Y610800D01*
Y609200D01*
X691605Y607721D01*
X692737Y606589D01*
X694216Y605976D01*
X695817D01*
X697296Y606589D01*
X698428Y607721D01*
X699041Y609200D01*
Y610800D01*
X698428Y612279D01*
X697296Y613411D01*
X695817Y614024D01*
D02*
G37*
G36*
X419900Y611084D02*
X418300D01*
X416821Y610471D01*
X415689Y609339D01*
X415076Y607860D01*
Y606260D01*
X415689Y604781D01*
X416821Y603649D01*
X418300Y603036D01*
X419900D01*
X421379Y603649D01*
X422511Y604781D01*
X423124Y606260D01*
Y607860D01*
X422511Y609339D01*
X421379Y610471D01*
X419900Y611084D01*
D02*
G37*
G36*
X161440Y608244D02*
X159840D01*
X158361Y607631D01*
X157229Y606499D01*
X156616Y605020D01*
Y603420D01*
X157229Y601941D01*
X158361Y600809D01*
X159840Y600196D01*
X161440D01*
X162919Y600809D01*
X164051Y601941D01*
X164664Y603420D01*
Y605020D01*
X164051Y606499D01*
X162919Y607631D01*
X161440Y608244D01*
D02*
G37*
G36*
X326997Y607328D02*
X325396D01*
X323917Y606715D01*
X322785Y605583D01*
X322173Y604104D01*
Y602503D01*
X322785Y601024D01*
X323917Y599892D01*
X325396Y599280D01*
X326997D01*
X328476Y599892D01*
X329608Y601024D01*
X330221Y602503D01*
Y604104D01*
X329608Y605583D01*
X328476Y606715D01*
X326997Y607328D01*
D02*
G37*
G36*
X301335Y609220D02*
X299345D01*
X297508Y608459D01*
X296101Y607052D01*
X295340Y605215D01*
Y603226D01*
X296101Y601388D01*
X297508Y599981D01*
X299345Y599220D01*
X301335D01*
X303172Y599981D01*
X304579Y601388D01*
X305340Y603226D01*
Y605215D01*
X304579Y607052D01*
X303172Y608459D01*
X301335Y609220D01*
D02*
G37*
G36*
X583730Y599654D02*
X582130D01*
X580651Y599041D01*
X579519Y597909D01*
X578906Y596430D01*
Y594830D01*
X579519Y593351D01*
X580651Y592219D01*
X582130Y591606D01*
X583730D01*
X585209Y592219D01*
X586341Y593351D01*
X586954Y594830D01*
Y596430D01*
X586341Y597909D01*
X585209Y599041D01*
X583730Y599654D01*
D02*
G37*
G36*
X513880D02*
X512280D01*
X510801Y599041D01*
X509669Y597909D01*
X509056Y596430D01*
Y594830D01*
X509669Y593351D01*
X510801Y592219D01*
X512280Y591606D01*
X513880D01*
X515359Y592219D01*
X516491Y593351D01*
X517104Y594830D01*
Y596430D01*
X516491Y597909D01*
X515359Y599041D01*
X513880Y599654D01*
D02*
G37*
G36*
X703102Y595208D02*
X701502D01*
X700023Y594595D01*
X698891Y593463D01*
X698278Y591984D01*
Y590383D01*
X698891Y588904D01*
X700023Y587772D01*
X701502Y587160D01*
X703102D01*
X704581Y587772D01*
X705713Y588904D01*
X706326Y590383D01*
Y591984D01*
X705713Y593463D01*
X704581Y594595D01*
X703102Y595208D01*
D02*
G37*
G36*
X557060Y594574D02*
X555460D01*
X553981Y593961D01*
X552849Y592829D01*
X552236Y591350D01*
Y589750D01*
X552849Y588271D01*
X553981Y587139D01*
X555460Y586526D01*
X557060D01*
X558539Y587139D01*
X559671Y588271D01*
X560284Y589750D01*
Y591350D01*
X559671Y592829D01*
X558539Y593961D01*
X557060Y594574D01*
D02*
G37*
G36*
X458000Y593304D02*
X456400D01*
X454921Y592691D01*
X453789Y591559D01*
X453176Y590080D01*
Y588480D01*
X453789Y587001D01*
X454921Y585869D01*
X456400Y585256D01*
X458000D01*
X459479Y585869D01*
X460611Y587001D01*
X461224Y588480D01*
Y590080D01*
X460611Y591559D01*
X459479Y592691D01*
X458000Y593304D01*
D02*
G37*
G36*
X397040D02*
X395440D01*
X393961Y592691D01*
X392829Y591559D01*
X392216Y590080D01*
Y588480D01*
X392829Y587001D01*
X393961Y585869D01*
X395440Y585256D01*
X397040D01*
X398519Y585869D01*
X399651Y587001D01*
X400264Y588480D01*
Y590080D01*
X399651Y591559D01*
X398519Y592691D01*
X397040Y593304D01*
D02*
G37*
G36*
X714637Y592860D02*
X713036D01*
X711557Y592247D01*
X710425Y591115D01*
X709812Y589636D01*
Y588036D01*
X710425Y586557D01*
X711557Y585425D01*
X713036Y584812D01*
X714637D01*
X716115Y585425D01*
X717247Y586557D01*
X717860Y588036D01*
Y589636D01*
X717247Y591115D01*
X716115Y592247D01*
X714637Y592860D01*
D02*
G37*
G36*
X540550Y585684D02*
X538950D01*
X537471Y585071D01*
X536339Y583939D01*
X535726Y582460D01*
Y580860D01*
X536339Y579381D01*
X537471Y578249D01*
X538950Y577636D01*
X540550D01*
X542029Y578249D01*
X543161Y579381D01*
X543774Y580860D01*
Y582460D01*
X543161Y583939D01*
X542029Y585071D01*
X540550Y585684D01*
D02*
G37*
G36*
X399580Y580604D02*
X397980D01*
X396501Y579991D01*
X395369Y578859D01*
X394756Y577380D01*
Y575780D01*
X395369Y574301D01*
X396501Y573169D01*
X397980Y572556D01*
X399580D01*
X401059Y573169D01*
X402191Y574301D01*
X402804Y575780D01*
Y577380D01*
X402191Y578859D01*
X401059Y579991D01*
X399580Y580604D01*
D02*
G37*
G36*
X585800Y574024D02*
X584200D01*
X582721Y573411D01*
X581589Y572279D01*
X580976Y570800D01*
Y569200D01*
X581589Y567721D01*
X582721Y566589D01*
X584200Y565976D01*
X585800D01*
X587279Y566589D01*
X588411Y567721D01*
X589024Y569200D01*
Y570800D01*
X588411Y572279D01*
X587279Y573411D01*
X585800Y574024D01*
D02*
G37*
G36*
X575800D02*
X574200D01*
X572721Y573411D01*
X571589Y572279D01*
X570976Y570800D01*
Y569200D01*
X571589Y567721D01*
X572721Y566589D01*
X574200Y565976D01*
X575800D01*
X577279Y566589D01*
X578411Y567721D01*
X579024Y569200D01*
Y570800D01*
X578411Y572279D01*
X577279Y573411D01*
X575800Y574024D01*
D02*
G37*
G36*
X565800D02*
X564200D01*
X562721Y573411D01*
X561589Y572279D01*
X560976Y570800D01*
Y569200D01*
X561589Y567721D01*
X562721Y566589D01*
X564200Y565976D01*
X565800D01*
X567279Y566589D01*
X568411Y567721D01*
X569024Y569200D01*
Y570800D01*
X568411Y572279D01*
X567279Y573411D01*
X565800Y574024D01*
D02*
G37*
G36*
X250995Y565000D02*
X249005D01*
X247168Y564239D01*
X245761Y562832D01*
X245687Y562654D01*
X244313D01*
X244239Y562832D01*
X242832Y564239D01*
X240995Y565000D01*
X239005D01*
X237168Y564239D01*
X235761Y562832D01*
X235687Y562654D01*
X234313D01*
X234239Y562832D01*
X232832Y564239D01*
X230995Y565000D01*
X229005D01*
X227168Y564239D01*
X225761Y562832D01*
X225687Y562654D01*
X224313D01*
X224239Y562832D01*
X222832Y564239D01*
X220995Y565000D01*
X219005D01*
X217168Y564239D01*
X215761Y562832D01*
X215635Y562528D01*
X214365D01*
X214239Y562832D01*
X212832Y564239D01*
X210995Y565000D01*
X209005D01*
X207168Y564239D01*
X205761Y562832D01*
X205000Y560995D01*
Y559006D01*
X205761Y557168D01*
X207168Y555761D01*
X207346Y555687D01*
Y554313D01*
X207168Y554239D01*
X205761Y552832D01*
X205000Y550995D01*
Y549006D01*
X205761Y547168D01*
X207168Y545761D01*
X207346Y545687D01*
Y544313D01*
X207168Y544239D01*
X205761Y542832D01*
X205000Y540995D01*
Y539005D01*
X205761Y537168D01*
X207168Y535761D01*
X209005Y535000D01*
X210994D01*
X212832Y535761D01*
X214239Y537168D01*
X214313Y537346D01*
X215687D01*
X215761Y537168D01*
X217168Y535761D01*
X219005Y535000D01*
X220995D01*
X222832Y535761D01*
X224239Y537168D01*
X224313Y537346D01*
X225687D01*
X225761Y537168D01*
X227168Y535761D01*
X229005Y535000D01*
X230995D01*
X232832Y535761D01*
X234239Y537168D01*
X235000Y539005D01*
Y540995D01*
X234239Y542832D01*
X232832Y544239D01*
X232654Y544313D01*
Y545687D01*
X232832Y545761D01*
X234239Y547168D01*
X234313Y547346D01*
X235687D01*
X235761Y547168D01*
X237168Y545761D01*
X239005Y545000D01*
X240995D01*
X242832Y545761D01*
X244239Y547168D01*
X244313Y547346D01*
X245687D01*
X245761Y547168D01*
X247168Y545761D01*
X247346Y545687D01*
Y544313D01*
X247168Y544239D01*
X245761Y542832D01*
X245000Y540995D01*
Y539005D01*
X245761Y537168D01*
X247168Y535761D01*
X249005Y535000D01*
X250995D01*
X252832Y535761D01*
X254239Y537168D01*
X255000Y539005D01*
Y540995D01*
X254239Y542832D01*
X252832Y544239D01*
X252654Y544313D01*
Y545687D01*
X252832Y545761D01*
X254239Y547168D01*
X255000Y549006D01*
Y550995D01*
X254239Y552832D01*
X252832Y554239D01*
X252654Y554313D01*
Y555687D01*
X252832Y555761D01*
X254239Y557168D01*
X255000Y559006D01*
Y560995D01*
X254239Y562832D01*
X252832Y564239D01*
X250995Y565000D01*
D02*
G37*
G36*
X414820Y567904D02*
X413220D01*
X411741Y567291D01*
X410609Y566159D01*
X409996Y564680D01*
Y563080D01*
X410609Y561601D01*
X411741Y560469D01*
X413220Y559856D01*
X414820D01*
X416299Y560469D01*
X417431Y561601D01*
X418044Y563080D01*
Y564680D01*
X417431Y566159D01*
X416299Y567291D01*
X414820Y567904D01*
D02*
G37*
G36*
X263235Y568120D02*
X261245D01*
X259408Y567359D01*
X258001Y565952D01*
X257240Y564115D01*
Y562126D01*
X258001Y560288D01*
X259408Y558881D01*
X261245Y558120D01*
X263235D01*
X265072Y558881D01*
X266479Y560288D01*
X267240Y562126D01*
Y564115D01*
X266479Y565952D01*
X265072Y567359D01*
X263235Y568120D01*
D02*
G37*
G36*
X450380Y565364D02*
X448780D01*
X447301Y564751D01*
X446169Y563619D01*
X445556Y562140D01*
Y560540D01*
X446169Y559061D01*
X447301Y557929D01*
X448780Y557316D01*
X450380D01*
X451859Y557929D01*
X452991Y559061D01*
X453005Y559095D01*
X454380D01*
X454546Y558695D01*
X455678Y557563D01*
X457157Y556950D01*
X458758D01*
X460237Y557563D01*
X461368Y558695D01*
X461981Y560174D01*
Y561774D01*
X461368Y563254D01*
X460237Y564385D01*
X458758Y564998D01*
X457157D01*
X455678Y564385D01*
X454546Y563254D01*
X454532Y563219D01*
X453157D01*
X452991Y563619D01*
X451859Y564751D01*
X450380Y565364D01*
D02*
G37*
G36*
X595800Y564024D02*
X594200D01*
X592721Y563411D01*
X591589Y562279D01*
X590976Y560800D01*
Y559200D01*
X591589Y557721D01*
X592721Y556589D01*
X594200Y555976D01*
X595800D01*
X597279Y556589D01*
X598411Y557721D01*
X599024Y559200D01*
Y560800D01*
X598411Y562279D01*
X597279Y563411D01*
X595800Y564024D01*
D02*
G37*
G36*
X585800D02*
X584200D01*
X582721Y563411D01*
X581589Y562279D01*
X580976Y560800D01*
Y559200D01*
X581589Y557721D01*
X582721Y556589D01*
X584200Y555976D01*
X585800D01*
X587279Y556589D01*
X588411Y557721D01*
X589024Y559200D01*
Y560800D01*
X588411Y562279D01*
X587279Y563411D01*
X585800Y564024D01*
D02*
G37*
G36*
X575800D02*
X574200D01*
X572721Y563411D01*
X571589Y562279D01*
X570976Y560800D01*
Y559200D01*
X571589Y557721D01*
X572721Y556589D01*
X574200Y555976D01*
X575800D01*
X577279Y556589D01*
X578411Y557721D01*
X579024Y559200D01*
Y560800D01*
X578411Y562279D01*
X577279Y563411D01*
X575800Y564024D01*
D02*
G37*
G36*
X565800D02*
X564200D01*
X562721Y563411D01*
X561589Y562279D01*
X560976Y560800D01*
Y559200D01*
X561589Y557721D01*
X562721Y556589D01*
X564200Y555976D01*
X565800D01*
X567279Y556589D01*
X568411Y557721D01*
X569024Y559200D01*
Y560800D01*
X568411Y562279D01*
X567279Y563411D01*
X565800Y564024D01*
D02*
G37*
G36*
X361480Y562824D02*
X359880D01*
X358401Y562211D01*
X357269Y561079D01*
X356656Y559600D01*
Y558000D01*
X357269Y556521D01*
X358401Y555389D01*
X359880Y554776D01*
X361480D01*
X362959Y555389D01*
X364091Y556521D01*
X364704Y558000D01*
Y559600D01*
X364091Y561079D01*
X362959Y562211D01*
X361480Y562824D01*
D02*
G37*
G36*
X595800Y554024D02*
X594200D01*
X592721Y553411D01*
X591589Y552279D01*
X590976Y550800D01*
Y549200D01*
X591589Y547721D01*
X592721Y546589D01*
X594200Y545976D01*
X595800D01*
X597279Y546589D01*
X598411Y547721D01*
X599024Y549200D01*
Y550800D01*
X598411Y552279D01*
X597279Y553411D01*
X595800Y554024D01*
D02*
G37*
G36*
X585800D02*
X584200D01*
X582721Y553411D01*
X581589Y552279D01*
X580976Y550800D01*
Y549200D01*
X581589Y547721D01*
X582721Y546589D01*
X584200Y545976D01*
X585800D01*
X587279Y546589D01*
X588411Y547721D01*
X589024Y549200D01*
Y550800D01*
X588411Y552279D01*
X587279Y553411D01*
X585800Y554024D01*
D02*
G37*
G36*
X575800D02*
X574200D01*
X572721Y553411D01*
X571589Y552279D01*
X570976Y550800D01*
Y549200D01*
X571589Y547721D01*
X572721Y546589D01*
X574200Y545976D01*
X575800D01*
X577279Y546589D01*
X578411Y547721D01*
X579024Y549200D01*
Y550800D01*
X578411Y552279D01*
X577279Y553411D01*
X575800Y554024D01*
D02*
G37*
G36*
X565800D02*
X564200D01*
X562721Y553411D01*
X561589Y552279D01*
X560976Y550800D01*
Y549200D01*
X561589Y547721D01*
X562721Y546589D01*
X564200Y545976D01*
X565800D01*
X567279Y546589D01*
X568411Y547721D01*
X569024Y549200D01*
Y550800D01*
X568411Y552279D01*
X567279Y553411D01*
X565800Y554024D01*
D02*
G37*
G36*
X329080Y551904D02*
X327480D01*
X326001Y551291D01*
X324869Y550159D01*
X324256Y548680D01*
Y547080D01*
X324869Y545601D01*
X326001Y544469D01*
X327480Y543856D01*
X329080D01*
X330559Y544469D01*
X331691Y545601D01*
X332304Y547080D01*
Y548680D01*
X331691Y550159D01*
X330559Y551291D01*
X329080Y551904D01*
D02*
G37*
G36*
X301140Y549364D02*
X299540D01*
X298061Y548751D01*
X296929Y547620D01*
X296316Y546141D01*
Y544540D01*
X296929Y543061D01*
X298061Y541929D01*
X299540Y541316D01*
X301140D01*
X302619Y541929D01*
X303751Y543061D01*
X304364Y544540D01*
Y546141D01*
X303751Y547620D01*
X302619Y548751D01*
X301140Y549364D01*
D02*
G37*
G36*
X161440Y541744D02*
X159840D01*
X158361Y541131D01*
X157229Y540000D01*
X156616Y538521D01*
Y536920D01*
X157229Y535441D01*
X158361Y534309D01*
X159840Y533696D01*
X161440D01*
X162919Y534309D01*
X164051Y535441D01*
X164664Y536920D01*
Y538521D01*
X164051Y540000D01*
X162919Y541131D01*
X161440Y541744D01*
D02*
G37*
G36*
X480995Y495000D02*
X479005D01*
X477168Y494239D01*
X475761Y492832D01*
X475000Y490995D01*
Y489005D01*
X475761Y487168D01*
X477168Y485761D01*
X479005Y485000D01*
X480995D01*
X482832Y485761D01*
X484239Y487168D01*
X485000Y489005D01*
Y490995D01*
X484239Y492832D01*
X482832Y494239D01*
X480995Y495000D01*
D02*
G37*
G36*
X460995D02*
X459005D01*
X457168Y494239D01*
X455761Y492832D01*
X455000Y490995D01*
Y489005D01*
X455761Y487168D01*
X457168Y485761D01*
X459005Y485000D01*
X460995D01*
X462832Y485761D01*
X464239Y487168D01*
X465000Y489005D01*
Y490995D01*
X464239Y492832D01*
X462832Y494239D01*
X460995Y495000D01*
D02*
G37*
G36*
X420995D02*
X419005D01*
X417168Y494239D01*
X415761Y492832D01*
X415000Y490995D01*
Y489005D01*
X415761Y487168D01*
X417168Y485761D01*
X419005Y485000D01*
X420995D01*
X422832Y485761D01*
X424239Y487168D01*
X425000Y489005D01*
Y490995D01*
X424239Y492832D01*
X422832Y494239D01*
X420995Y495000D01*
D02*
G37*
G36*
X401005D02*
X399015D01*
X397178Y494239D01*
X395771Y492832D01*
X395010Y490995D01*
Y489005D01*
X395771Y487168D01*
X397178Y485761D01*
X399015Y485000D01*
X401005D01*
X402842Y485761D01*
X404249Y487168D01*
X405010Y489005D01*
Y490995D01*
X404249Y492832D01*
X402842Y494239D01*
X401005Y495000D01*
D02*
G37*
G36*
X161440Y478244D02*
X159840D01*
X158361Y477631D01*
X157229Y476499D01*
X156616Y475020D01*
Y473420D01*
X157229Y471941D01*
X158361Y470809D01*
X159840Y470196D01*
X161440D01*
X162919Y470809D01*
X164051Y471941D01*
X164664Y473420D01*
Y475020D01*
X164051Y476499D01*
X162919Y477631D01*
X161440Y478244D01*
D02*
G37*
G36*
X326997Y477328D02*
X325396D01*
X323917Y476715D01*
X322785Y475583D01*
X322173Y474104D01*
Y472503D01*
X322785Y471024D01*
X323917Y469892D01*
X325396Y469280D01*
X326997D01*
X328476Y469892D01*
X329608Y471024D01*
X330221Y472503D01*
Y474104D01*
X329608Y475583D01*
X328476Y476715D01*
X326997Y477328D01*
D02*
G37*
G36*
X301335Y479220D02*
X299345D01*
X297508Y478459D01*
X296101Y477052D01*
X295340Y475215D01*
Y473226D01*
X296101Y471388D01*
X297508Y469981D01*
X299345Y469220D01*
X301335D01*
X303172Y469981D01*
X304579Y471388D01*
X305340Y473226D01*
Y475215D01*
X304579Y477052D01*
X303172Y478459D01*
X301335Y479220D01*
D02*
G37*
G36*
X480995Y475000D02*
X479005D01*
X477168Y474239D01*
X475761Y472832D01*
X475000Y470995D01*
Y469005D01*
X475761Y467168D01*
X477168Y465761D01*
X479005Y465000D01*
X480995D01*
X482832Y465761D01*
X484239Y467168D01*
X485000Y469005D01*
Y470995D01*
X484239Y472832D01*
X482832Y474239D01*
X480995Y475000D01*
D02*
G37*
G36*
X460995D02*
X459005D01*
X457168Y474239D01*
X455761Y472832D01*
X455000Y470995D01*
Y469005D01*
X455761Y467168D01*
X457168Y465761D01*
X459005Y465000D01*
X460995D01*
X462832Y465761D01*
X464239Y467168D01*
X465000Y469005D01*
Y470995D01*
X464239Y472832D01*
X462832Y474239D01*
X460995Y475000D01*
D02*
G37*
G36*
X420995D02*
X419005D01*
X417168Y474239D01*
X415761Y472832D01*
X415000Y470995D01*
Y469005D01*
X415761Y467168D01*
X417168Y465761D01*
X419005Y465000D01*
X420995D01*
X422832Y465761D01*
X424239Y467168D01*
X425000Y469005D01*
Y470995D01*
X424239Y472832D01*
X422832Y474239D01*
X420995Y475000D01*
D02*
G37*
G36*
X401005D02*
X399015D01*
X397178Y474239D01*
X395771Y472832D01*
X395010Y470995D01*
Y469005D01*
X395771Y467168D01*
X397178Y465761D01*
X399015Y465000D01*
X401005D01*
X402842Y465761D01*
X404249Y467168D01*
X405010Y469005D01*
Y470995D01*
X404249Y472832D01*
X402842Y474239D01*
X401005Y475000D01*
D02*
G37*
G36*
X480995Y455000D02*
X479005D01*
X477168Y454239D01*
X475761Y452832D01*
X475000Y450995D01*
Y449005D01*
X475761Y447168D01*
X477168Y445761D01*
X479005Y445000D01*
X480995D01*
X482832Y445761D01*
X484239Y447168D01*
X485000Y449005D01*
Y450995D01*
X484239Y452832D01*
X482832Y454239D01*
X480995Y455000D01*
D02*
G37*
G36*
X460995D02*
X459005D01*
X457168Y454239D01*
X455761Y452832D01*
X455000Y450995D01*
Y449005D01*
X455761Y447168D01*
X457168Y445761D01*
X459005Y445000D01*
X460995D01*
X462832Y445761D01*
X464239Y447168D01*
X465000Y449005D01*
Y450995D01*
X464239Y452832D01*
X462832Y454239D01*
X460995Y455000D01*
D02*
G37*
G36*
X420995D02*
X419005D01*
X417168Y454239D01*
X415761Y452832D01*
X415000Y450995D01*
Y449005D01*
X415761Y447168D01*
X417168Y445761D01*
X419005Y445000D01*
X420995D01*
X422832Y445761D01*
X424239Y447168D01*
X425000Y449005D01*
Y450995D01*
X424239Y452832D01*
X422832Y454239D01*
X420995Y455000D01*
D02*
G37*
G36*
X401005D02*
X399015D01*
X397178Y454239D01*
X395771Y452832D01*
X395010Y450995D01*
Y449005D01*
X395771Y447168D01*
X397178Y445761D01*
X399015Y445000D01*
X401005D01*
X402842Y445761D01*
X404249Y447168D01*
X405010Y449005D01*
Y450995D01*
X404249Y452832D01*
X402842Y454239D01*
X401005Y455000D01*
D02*
G37*
G36*
X250995Y435000D02*
X249005D01*
X247168Y434239D01*
X245761Y432832D01*
X245687Y432654D01*
X244313D01*
X244239Y432832D01*
X242832Y434239D01*
X240995Y435000D01*
X239005D01*
X237168Y434239D01*
X235761Y432832D01*
X235687Y432654D01*
X234313D01*
X234239Y432832D01*
X232832Y434239D01*
X230995Y435000D01*
X229005D01*
X227168Y434239D01*
X225761Y432832D01*
X225687Y432654D01*
X224313D01*
X224239Y432832D01*
X222832Y434239D01*
X220995Y435000D01*
X219005D01*
X217168Y434239D01*
X215761Y432832D01*
X215635Y432528D01*
X214365D01*
X214239Y432832D01*
X212832Y434239D01*
X210995Y435000D01*
X209005D01*
X207168Y434239D01*
X205761Y432832D01*
X205000Y430995D01*
Y429005D01*
X205761Y427168D01*
X207168Y425761D01*
X207346Y425687D01*
Y424313D01*
X207168Y424239D01*
X205761Y422832D01*
X205000Y420995D01*
Y419005D01*
X205761Y417168D01*
X207168Y415761D01*
X207346Y415687D01*
Y414313D01*
X207168Y414239D01*
X205761Y412832D01*
X205000Y410995D01*
Y409005D01*
X205761Y407168D01*
X207168Y405761D01*
X209005Y405000D01*
X210994D01*
X212832Y405761D01*
X214239Y407168D01*
X214313Y407346D01*
X215687D01*
X215761Y407168D01*
X217168Y405761D01*
X219005Y405000D01*
X220995D01*
X222832Y405761D01*
X224239Y407168D01*
X224313Y407346D01*
X225687D01*
X225761Y407168D01*
X227168Y405761D01*
X229005Y405000D01*
X230995D01*
X232832Y405761D01*
X234239Y407168D01*
X235000Y409005D01*
Y410995D01*
X234239Y412832D01*
X232832Y414239D01*
X232654Y414313D01*
Y415687D01*
X232832Y415761D01*
X234239Y417168D01*
X234313Y417346D01*
X235687D01*
X235761Y417168D01*
X237168Y415761D01*
X239005Y415000D01*
X240995D01*
X242832Y415761D01*
X244239Y417168D01*
X244313Y417346D01*
X245687D01*
X245761Y417168D01*
X247168Y415761D01*
X247346Y415687D01*
Y414313D01*
X247168Y414239D01*
X245761Y412832D01*
X245000Y410995D01*
Y409005D01*
X245761Y407168D01*
X247168Y405761D01*
X249005Y405000D01*
X250995D01*
X252832Y405761D01*
X254239Y407168D01*
X255000Y409005D01*
Y410995D01*
X254239Y412832D01*
X252832Y414239D01*
X252654Y414313D01*
Y415687D01*
X252832Y415761D01*
X254239Y417168D01*
X255000Y419005D01*
Y420995D01*
X254239Y422832D01*
X252832Y424239D01*
X252654Y424313D01*
Y425687D01*
X252832Y425761D01*
X254239Y427168D01*
X255000Y429005D01*
Y430995D01*
X254239Y432832D01*
X252832Y434239D01*
X250995Y435000D01*
D02*
G37*
G36*
X263235Y438120D02*
X261245D01*
X259408Y437359D01*
X258001Y435952D01*
X257240Y434115D01*
Y432126D01*
X258001Y430288D01*
X259408Y428881D01*
X261245Y428120D01*
X263235D01*
X265072Y428881D01*
X266479Y430288D01*
X267240Y432126D01*
Y434115D01*
X266479Y435952D01*
X265072Y437359D01*
X263235Y438120D01*
D02*
G37*
G36*
X480995Y435000D02*
X479005D01*
X477168Y434239D01*
X475761Y432832D01*
X475000Y430995D01*
Y429005D01*
X475761Y427168D01*
X477168Y425761D01*
X479005Y425000D01*
X480995D01*
X482832Y425761D01*
X484239Y427168D01*
X485000Y429005D01*
Y430995D01*
X484239Y432832D01*
X482832Y434239D01*
X480995Y435000D01*
D02*
G37*
G36*
X460995D02*
X459005D01*
X457168Y434239D01*
X455761Y432832D01*
X455000Y430995D01*
Y429005D01*
X455761Y427168D01*
X457168Y425761D01*
X459005Y425000D01*
X460995D01*
X462832Y425761D01*
X464239Y427168D01*
X465000Y429005D01*
Y430995D01*
X464239Y432832D01*
X462832Y434239D01*
X460995Y435000D01*
D02*
G37*
G36*
X420995D02*
X419005D01*
X417168Y434239D01*
X415761Y432832D01*
X415000Y430995D01*
Y429005D01*
X415761Y427168D01*
X417168Y425761D01*
X419005Y425000D01*
X420995D01*
X422832Y425761D01*
X424239Y427168D01*
X425000Y429005D01*
Y430995D01*
X424239Y432832D01*
X422832Y434239D01*
X420995Y435000D01*
D02*
G37*
G36*
X401005D02*
X399015D01*
X397178Y434239D01*
X395771Y432832D01*
X395010Y430995D01*
Y429005D01*
X395771Y427168D01*
X397178Y425761D01*
X399015Y425000D01*
X401005D01*
X402842Y425761D01*
X404249Y427168D01*
X405010Y429005D01*
Y430995D01*
X404249Y432832D01*
X402842Y434239D01*
X401005Y435000D01*
D02*
G37*
G36*
X680796Y424020D02*
X679195D01*
X677716Y423407D01*
X676584Y422275D01*
X675972Y420796D01*
Y419195D01*
X676584Y417716D01*
X677716Y416584D01*
X679195Y415972D01*
X680796D01*
X682275Y416584D01*
X683407Y417716D01*
X684020Y419195D01*
Y420796D01*
X683407Y422275D01*
X682275Y423407D01*
X680796Y424020D01*
D02*
G37*
G36*
X329080Y421904D02*
X327480D01*
X326001Y421291D01*
X324869Y420159D01*
X324256Y418680D01*
Y417080D01*
X324869Y415601D01*
X326001Y414469D01*
X327480Y413856D01*
X329080D01*
X330559Y414469D01*
X331691Y415601D01*
X332304Y417080D01*
Y418680D01*
X331691Y420159D01*
X330559Y421291D01*
X329080Y421904D01*
D02*
G37*
G36*
X301140Y419364D02*
X299540D01*
X298061Y418751D01*
X296929Y417620D01*
X296316Y416141D01*
Y414540D01*
X296929Y413061D01*
X298061Y411929D01*
X299540Y411316D01*
X301140D01*
X302619Y411929D01*
X303751Y413061D01*
X304364Y414540D01*
Y416141D01*
X303751Y417620D01*
X302619Y418751D01*
X301140Y419364D01*
D02*
G37*
G36*
X480995Y415000D02*
X479005D01*
X477168Y414239D01*
X475761Y412832D01*
X475000Y410995D01*
Y409005D01*
X475761Y407168D01*
X477168Y405761D01*
X479005Y405000D01*
X480995D01*
X482832Y405761D01*
X484239Y407168D01*
X485000Y409005D01*
Y410995D01*
X484239Y412832D01*
X482832Y414239D01*
X480995Y415000D01*
D02*
G37*
G36*
X460995D02*
X459005D01*
X457168Y414239D01*
X455761Y412832D01*
X455000Y410995D01*
Y409005D01*
X455761Y407168D01*
X457168Y405761D01*
X459005Y405000D01*
X460995D01*
X462832Y405761D01*
X464239Y407168D01*
X465000Y409005D01*
Y410995D01*
X464239Y412832D01*
X462832Y414239D01*
X460995Y415000D01*
D02*
G37*
G36*
X420995D02*
X419005D01*
X417168Y414239D01*
X415761Y412832D01*
X415000Y410995D01*
Y409005D01*
X415761Y407168D01*
X417168Y405761D01*
X419005Y405000D01*
X420995D01*
X422832Y405761D01*
X424239Y407168D01*
X425000Y409005D01*
Y410995D01*
X424239Y412832D01*
X422832Y414239D01*
X420995Y415000D01*
D02*
G37*
G36*
X401005D02*
X399015D01*
X397178Y414239D01*
X395771Y412832D01*
X395010Y410995D01*
Y409005D01*
X395771Y407168D01*
X397178Y405761D01*
X399015Y405000D01*
X401005D01*
X402842Y405761D01*
X404249Y407168D01*
X405010Y409005D01*
Y410995D01*
X404249Y412832D01*
X402842Y414239D01*
X401005Y415000D01*
D02*
G37*
G36*
X161440Y411744D02*
X159840D01*
X158361Y411131D01*
X157229Y410000D01*
X156616Y408521D01*
Y406920D01*
X157229Y405441D01*
X158361Y404309D01*
X159840Y403696D01*
X161440D01*
X162919Y404309D01*
X164051Y405441D01*
X164664Y406920D01*
Y408521D01*
X164051Y410000D01*
X162919Y411131D01*
X161440Y411744D01*
D02*
G37*
G36*
X629588Y419824D02*
X627212D01*
X624917Y419209D01*
X622859Y418021D01*
X621179Y416341D01*
X619991Y414283D01*
X619376Y411988D01*
Y409612D01*
X619991Y407317D01*
X621179Y405259D01*
X622859Y403579D01*
X624917Y402391D01*
X627212Y401776D01*
X629588D01*
X631883Y402391D01*
X633941Y403579D01*
X635621Y405259D01*
X636809Y407317D01*
X637424Y409612D01*
Y411988D01*
X636809Y414283D01*
X635621Y416341D01*
X633941Y418021D01*
X631883Y419209D01*
X629588Y419824D01*
D02*
G37*
G36*
X658660Y395184D02*
X657060D01*
X655581Y394571D01*
X654449Y393439D01*
X653836Y391960D01*
Y390360D01*
X654449Y388881D01*
X655581Y387749D01*
X657060Y387136D01*
X658660D01*
X660139Y387749D01*
X661271Y388881D01*
X661884Y390360D01*
Y391960D01*
X661271Y393439D01*
X660139Y394571D01*
X658660Y395184D01*
D02*
G37*
G36*
X480995Y395000D02*
X479005D01*
X477168Y394239D01*
X475761Y392832D01*
X475000Y390995D01*
Y389005D01*
X475761Y387168D01*
X477168Y385761D01*
X479005Y385000D01*
X480995D01*
X482832Y385761D01*
X484239Y387168D01*
X485000Y389005D01*
Y390995D01*
X484239Y392832D01*
X482832Y394239D01*
X480995Y395000D01*
D02*
G37*
G36*
X460995D02*
X459005D01*
X457168Y394239D01*
X455761Y392832D01*
X455000Y390995D01*
Y389005D01*
X455761Y387168D01*
X457168Y385761D01*
X459005Y385000D01*
X460995D01*
X462832Y385761D01*
X464239Y387168D01*
X465000Y389005D01*
Y390995D01*
X464239Y392832D01*
X462832Y394239D01*
X460995Y395000D01*
D02*
G37*
G36*
X420995D02*
X419005D01*
X417168Y394239D01*
X415761Y392832D01*
X415000Y390995D01*
Y389005D01*
X415761Y387168D01*
X417168Y385761D01*
X419005Y385000D01*
X420995D01*
X422832Y385761D01*
X424239Y387168D01*
X425000Y389005D01*
Y390995D01*
X424239Y392832D01*
X422832Y394239D01*
X420995Y395000D01*
D02*
G37*
G36*
X401005D02*
X399015D01*
X397178Y394239D01*
X395771Y392832D01*
X395010Y390995D01*
Y389005D01*
X395771Y387168D01*
X397178Y385761D01*
X399015Y385000D01*
X401005D01*
X402842Y385761D01*
X404249Y387168D01*
X405010Y389005D01*
Y390995D01*
X404249Y392832D01*
X402842Y394239D01*
X401005Y395000D01*
D02*
G37*
G36*
X629588Y394424D02*
X627212D01*
X624917Y393809D01*
X622859Y392621D01*
X621179Y390941D01*
X619991Y388883D01*
X619376Y386588D01*
Y384212D01*
X619991Y381917D01*
X621179Y379859D01*
X622859Y378179D01*
X624917Y376991D01*
X627212Y376376D01*
X629588D01*
X631883Y376991D01*
X633941Y378179D01*
X635621Y379859D01*
X636809Y381917D01*
X637424Y384212D01*
Y386588D01*
X636809Y388883D01*
X635621Y390941D01*
X633941Y392621D01*
X631883Y393809D01*
X629588Y394424D01*
D02*
G37*
G36*
X690800Y384024D02*
X689200D01*
X687721Y383411D01*
X686589Y382279D01*
X685976Y380800D01*
Y379200D01*
X686589Y377721D01*
X687721Y376589D01*
X689200Y375976D01*
X690800D01*
X692279Y376589D01*
X693411Y377721D01*
X694024Y379200D01*
Y380800D01*
X693411Y382279D01*
X692279Y383411D01*
X690800Y384024D01*
D02*
G37*
G36*
X480995Y375000D02*
X479005D01*
X477168Y374239D01*
X475761Y372832D01*
X475000Y370995D01*
Y369005D01*
X475761Y367168D01*
X477168Y365761D01*
X479005Y365000D01*
X480995D01*
X482832Y365761D01*
X484239Y367168D01*
X485000Y369005D01*
Y370995D01*
X484239Y372832D01*
X482832Y374239D01*
X480995Y375000D01*
D02*
G37*
G36*
X460995D02*
X459005D01*
X457168Y374239D01*
X455761Y372832D01*
X455000Y370995D01*
Y369005D01*
X455761Y367168D01*
X457168Y365761D01*
X459005Y365000D01*
X460995D01*
X462832Y365761D01*
X464239Y367168D01*
X465000Y369005D01*
Y370995D01*
X464239Y372832D01*
X462832Y374239D01*
X460995Y375000D01*
D02*
G37*
G36*
X420995D02*
X419005D01*
X417168Y374239D01*
X415761Y372832D01*
X415000Y370995D01*
Y369005D01*
X415761Y367168D01*
X417168Y365761D01*
X419005Y365000D01*
X420995D01*
X422832Y365761D01*
X424239Y367168D01*
X425000Y369005D01*
Y370995D01*
X424239Y372832D01*
X422832Y374239D01*
X420995Y375000D01*
D02*
G37*
G36*
X401005D02*
X399015D01*
X397178Y374239D01*
X395771Y372832D01*
X395010Y370995D01*
Y369005D01*
X395771Y367168D01*
X397178Y365761D01*
X399015Y365000D01*
X401005D01*
X402842Y365761D01*
X404249Y367168D01*
X405010Y369005D01*
Y370995D01*
X404249Y372832D01*
X402842Y374239D01*
X401005Y375000D01*
D02*
G37*
G36*
X651023Y367774D02*
X648977D01*
X646999Y367244D01*
X645227Y366221D01*
X643779Y364773D01*
X642756Y363001D01*
X642226Y361023D01*
Y358977D01*
X642756Y356999D01*
X643779Y355227D01*
X645227Y353779D01*
X646999Y352756D01*
X648977Y352226D01*
X651023D01*
X653001Y352756D01*
X654773Y353779D01*
X656221Y355227D01*
X657244Y356999D01*
X657774Y358977D01*
Y361023D01*
X657244Y363001D01*
X656221Y364773D01*
X654773Y366221D01*
X653001Y367244D01*
X651023Y367774D01*
D02*
G37*
G36*
X629588Y369024D02*
X627212D01*
X624917Y368409D01*
X622859Y367221D01*
X621179Y365541D01*
X619991Y363483D01*
X619376Y361188D01*
Y358812D01*
X619991Y356517D01*
X621179Y354459D01*
X622859Y352779D01*
X624917Y351591D01*
X627212Y350976D01*
X629588D01*
X631883Y351591D01*
X633941Y352779D01*
X635621Y354459D01*
X636809Y356517D01*
X637424Y358812D01*
Y361188D01*
X636809Y363483D01*
X635621Y365541D01*
X633941Y367221D01*
X631883Y368409D01*
X629588Y369024D01*
D02*
G37*
G36*
X480995Y355000D02*
X479005D01*
X477168Y354239D01*
X475761Y352832D01*
X475000Y350995D01*
Y349005D01*
X475761Y347168D01*
X477168Y345761D01*
X479005Y345000D01*
X480995D01*
X482832Y345761D01*
X484239Y347168D01*
X485000Y349005D01*
Y350995D01*
X484239Y352832D01*
X482832Y354239D01*
X480995Y355000D01*
D02*
G37*
G36*
X460995D02*
X459005D01*
X457168Y354239D01*
X455761Y352832D01*
X455000Y350995D01*
Y349005D01*
X455761Y347168D01*
X457168Y345761D01*
X459005Y345000D01*
X460995D01*
X462832Y345761D01*
X464239Y347168D01*
X465000Y349005D01*
Y350995D01*
X464239Y352832D01*
X462832Y354239D01*
X460995Y355000D01*
D02*
G37*
G36*
X420995D02*
X419005D01*
X417168Y354239D01*
X415761Y352832D01*
X415000Y350995D01*
Y349005D01*
X415761Y347168D01*
X417168Y345761D01*
X419005Y345000D01*
X420995D01*
X422832Y345761D01*
X424239Y347168D01*
X425000Y349005D01*
Y350995D01*
X424239Y352832D01*
X422832Y354239D01*
X420995Y355000D01*
D02*
G37*
G36*
X401005D02*
X399015D01*
X397178Y354239D01*
X395771Y352832D01*
X395010Y350995D01*
Y349005D01*
X395771Y347168D01*
X397178Y345761D01*
X399015Y345000D01*
X401005D01*
X402842Y345761D01*
X404249Y347168D01*
X405010Y349005D01*
Y350995D01*
X404249Y352832D01*
X402842Y354239D01*
X401005Y355000D01*
D02*
G37*
G36*
X161440Y348244D02*
X159840D01*
X158361Y347631D01*
X157229Y346499D01*
X156616Y345020D01*
Y343420D01*
X157229Y341941D01*
X158361Y340809D01*
X159840Y340196D01*
X161440D01*
X162919Y340809D01*
X164051Y341941D01*
X164664Y343420D01*
Y345020D01*
X164051Y346499D01*
X162919Y347631D01*
X161440Y348244D01*
D02*
G37*
G36*
X326997Y347328D02*
X325396D01*
X323917Y346715D01*
X322785Y345583D01*
X322173Y344104D01*
Y342503D01*
X322785Y341024D01*
X323917Y339892D01*
X325396Y339280D01*
X326997D01*
X328476Y339892D01*
X329608Y341024D01*
X330221Y342503D01*
Y344104D01*
X329608Y345583D01*
X328476Y346715D01*
X326997Y347328D01*
D02*
G37*
G36*
X301282Y349250D02*
X299292D01*
X297455Y348489D01*
X296048Y347082D01*
X295287Y345245D01*
Y343256D01*
X296048Y341418D01*
X297455Y340011D01*
X299292Y339250D01*
X301282D01*
X303119Y340011D01*
X304526Y341418D01*
X305287Y343256D01*
Y345245D01*
X304526Y347082D01*
X303119Y348489D01*
X301282Y349250D01*
D02*
G37*
G36*
X670304Y354544D02*
X668704D01*
X667225Y353931D01*
X666093Y352799D01*
X665480Y351320D01*
Y349720D01*
X666093Y348241D01*
X666816Y347517D01*
X667090Y346710D01*
X666816Y345903D01*
X666093Y345179D01*
X665480Y343700D01*
Y342100D01*
X666093Y340621D01*
X667225Y339489D01*
X668704Y338876D01*
X670304D01*
X671783Y339489D01*
X672915Y340621D01*
X673528Y342100D01*
Y343700D01*
X672915Y345179D01*
X672192Y345903D01*
X671918Y346710D01*
X672192Y347517D01*
X672915Y348241D01*
X673528Y349720D01*
Y351320D01*
X672915Y352799D01*
X671783Y353931D01*
X670304Y354544D01*
D02*
G37*
G36*
X750800Y344024D02*
X749200D01*
X747721Y343411D01*
X746589Y342279D01*
X745976Y340800D01*
Y339200D01*
X746589Y337721D01*
X747721Y336589D01*
X749200Y335976D01*
X750800D01*
X752279Y336589D01*
X753411Y337721D01*
X754024Y339200D01*
Y340800D01*
X753411Y342279D01*
X752279Y343411D01*
X750800Y344024D01*
D02*
G37*
G36*
X740800D02*
X739200D01*
X737721Y343411D01*
X736589Y342279D01*
X735976Y340800D01*
Y339200D01*
X736589Y337721D01*
X737721Y336589D01*
X739200Y335976D01*
X740800D01*
X742279Y336589D01*
X743411Y337721D01*
X744024Y339200D01*
Y340800D01*
X743411Y342279D01*
X742279Y343411D01*
X740800Y344024D01*
D02*
G37*
G36*
X629588Y343624D02*
X627212D01*
X624917Y343009D01*
X622859Y341821D01*
X621179Y340141D01*
X619991Y338083D01*
X619376Y335788D01*
Y333412D01*
X619991Y331117D01*
X621179Y329059D01*
X622859Y327379D01*
X624917Y326191D01*
X627212Y325576D01*
X629588D01*
X631883Y326191D01*
X633941Y327379D01*
X635621Y329059D01*
X636809Y331117D01*
X637424Y333412D01*
Y335788D01*
X636809Y338083D01*
X635621Y340141D01*
X633941Y341821D01*
X631883Y343009D01*
X629588Y343624D01*
D02*
G37*
G36*
X250995Y305000D02*
X249005D01*
X247168Y304239D01*
X245761Y302832D01*
X245687Y302654D01*
X244313D01*
X244239Y302832D01*
X242832Y304239D01*
X240995Y305000D01*
X239005D01*
X237168Y304239D01*
X235761Y302832D01*
X235687Y302654D01*
X234313D01*
X234239Y302832D01*
X232832Y304239D01*
X230995Y305000D01*
X229005D01*
X227168Y304239D01*
X225761Y302832D01*
X225687Y302654D01*
X224313D01*
X224239Y302832D01*
X222832Y304239D01*
X220995Y305000D01*
X219005D01*
X217168Y304239D01*
X215761Y302832D01*
X215635Y302528D01*
X214365D01*
X214239Y302832D01*
X212832Y304239D01*
X210995Y305000D01*
X209005D01*
X207168Y304239D01*
X205761Y302832D01*
X205000Y300995D01*
Y299005D01*
X205761Y297168D01*
X207168Y295761D01*
X207346Y295687D01*
Y294313D01*
X207168Y294239D01*
X205761Y292832D01*
X205000Y290995D01*
Y289005D01*
X205761Y287168D01*
X207168Y285761D01*
X207346Y285687D01*
Y284313D01*
X207168Y284239D01*
X205761Y282832D01*
X205000Y280995D01*
Y279005D01*
X205761Y277168D01*
X207168Y275761D01*
X209005Y275000D01*
X210994D01*
X212832Y275761D01*
X214239Y277168D01*
X214313Y277346D01*
X215687D01*
X215761Y277168D01*
X217168Y275761D01*
X219005Y275000D01*
X220995D01*
X222832Y275761D01*
X224239Y277168D01*
X224313Y277346D01*
X225687D01*
X225761Y277168D01*
X227168Y275761D01*
X229005Y275000D01*
X230995D01*
X232832Y275761D01*
X234239Y277168D01*
X235000Y279005D01*
Y280995D01*
X234239Y282832D01*
X232832Y284239D01*
X232654Y284313D01*
Y285687D01*
X232832Y285761D01*
X234239Y287168D01*
X234313Y287346D01*
X235687D01*
X235761Y287168D01*
X237168Y285761D01*
X239005Y285000D01*
X240995D01*
X242832Y285761D01*
X244239Y287168D01*
X244313Y287346D01*
X245687D01*
X245761Y287168D01*
X247168Y285761D01*
X247346Y285687D01*
Y284313D01*
X247168Y284239D01*
X245761Y282832D01*
X245000Y280995D01*
Y279005D01*
X245761Y277168D01*
X247168Y275761D01*
X249005Y275000D01*
X250995D01*
X252832Y275761D01*
X254239Y277168D01*
X255000Y279005D01*
Y280995D01*
X254239Y282832D01*
X252832Y284239D01*
X252654Y284313D01*
Y285687D01*
X252832Y285761D01*
X254239Y287168D01*
X255000Y289005D01*
Y290995D01*
X254239Y292832D01*
X252832Y294239D01*
X252654Y294313D01*
Y295687D01*
X252832Y295761D01*
X254239Y297168D01*
X255000Y299005D01*
Y300995D01*
X254239Y302832D01*
X252832Y304239D01*
X250995Y305000D01*
D02*
G37*
G36*
X667550Y306284D02*
X665950D01*
X664471Y305671D01*
X663339Y304539D01*
X662726Y303060D01*
Y301460D01*
X663339Y299981D01*
X664471Y298849D01*
X665950Y298236D01*
X667550D01*
X669029Y298849D01*
X670161Y299981D01*
X670774Y301460D01*
Y303060D01*
X670161Y304539D01*
X669029Y305671D01*
X667550Y306284D01*
D02*
G37*
G36*
X263235Y308120D02*
X261245D01*
X259408Y307359D01*
X258001Y305952D01*
X257240Y304115D01*
Y302125D01*
X258001Y300288D01*
X259408Y298881D01*
X261245Y298120D01*
X263235D01*
X265072Y298881D01*
X266479Y300288D01*
X267240Y302125D01*
Y304115D01*
X266479Y305952D01*
X265072Y307359D01*
X263235Y308120D01*
D02*
G37*
G36*
X649770Y305014D02*
X648170D01*
X646691Y304401D01*
X645559Y303269D01*
X644946Y301790D01*
Y300190D01*
X645559Y298711D01*
X646691Y297579D01*
X648170Y296966D01*
X649770D01*
X651249Y297579D01*
X652381Y298711D01*
X652994Y300190D01*
Y301790D01*
X652381Y303269D01*
X651249Y304401D01*
X649770Y305014D01*
D02*
G37*
G36*
X534200Y301204D02*
X532600D01*
X531121Y300591D01*
X529989Y299459D01*
X529376Y297980D01*
Y296380D01*
X529989Y294901D01*
X531121Y293769D01*
X532600Y293156D01*
X534200D01*
X535679Y293769D01*
X536194Y294283D01*
X537271Y293564D01*
X536996Y292900D01*
Y291300D01*
X537609Y289821D01*
X538741Y288689D01*
X540220Y288076D01*
X541820D01*
X543299Y288689D01*
X543756Y288598D01*
X544196Y287535D01*
X545328Y286404D01*
X546807Y285791D01*
X548408D01*
X549887Y286404D01*
X550368Y286885D01*
X551450Y287238D01*
X552001Y286858D01*
X552711Y286149D01*
X554190Y285536D01*
X555790D01*
X557269Y286149D01*
X558401Y287281D01*
X559014Y288760D01*
Y290360D01*
X558401Y291839D01*
X557269Y292971D01*
X555790Y293584D01*
X554190D01*
X552711Y292971D01*
X552229Y292490D01*
X551148Y292137D01*
X550597Y292517D01*
X549887Y293226D01*
X548408Y293839D01*
X546807D01*
X545328Y293226D01*
X544871Y293317D01*
X544431Y294379D01*
X543299Y295511D01*
X541820Y296124D01*
X540220D01*
X538741Y295511D01*
X538226Y294997D01*
X537149Y295716D01*
X537424Y296380D01*
Y297980D01*
X536811Y299459D01*
X535679Y300591D01*
X534200Y301204D01*
D02*
G37*
G36*
X329080Y291904D02*
X327480D01*
X326001Y291291D01*
X324869Y290159D01*
X324256Y288680D01*
Y287080D01*
X324869Y285601D01*
X326001Y284469D01*
X327480Y283856D01*
X329080D01*
X330559Y284469D01*
X331691Y285601D01*
X332304Y287080D01*
Y288680D01*
X331691Y290159D01*
X330559Y291291D01*
X329080Y291904D01*
D02*
G37*
G36*
X301140Y289364D02*
X299540D01*
X298061Y288751D01*
X296929Y287619D01*
X296316Y286140D01*
Y284540D01*
X296929Y283061D01*
X298061Y281929D01*
X299540Y281316D01*
X301140D01*
X302619Y281929D01*
X303751Y283061D01*
X304364Y284540D01*
Y286140D01*
X303751Y287619D01*
X302619Y288751D01*
X301140Y289364D01*
D02*
G37*
G36*
X161440Y281744D02*
X159840D01*
X158361Y281131D01*
X157229Y279999D01*
X156616Y278520D01*
Y276920D01*
X157229Y275441D01*
X158361Y274309D01*
X159840Y273696D01*
X161440D01*
X162919Y274309D01*
X164051Y275441D01*
X164664Y276920D01*
Y278520D01*
X164051Y279999D01*
X162919Y281131D01*
X161440Y281744D01*
D02*
G37*
G36*
X725995Y230000D02*
X724005D01*
X722168Y229239D01*
X720761Y227832D01*
X720687Y227654D01*
X719313D01*
X719239Y227832D01*
X717832Y229239D01*
X715995Y230000D01*
X714005D01*
X712168Y229239D01*
X710761Y227832D01*
X710635Y227528D01*
X709365D01*
X709239Y227832D01*
X707832Y229239D01*
X705995Y230000D01*
X704005D01*
X702168Y229239D01*
X700761Y227832D01*
X700687Y227654D01*
X699313D01*
X699239Y227832D01*
X697832Y229239D01*
X695995Y230000D01*
X694005D01*
X692168Y229239D01*
X690761Y227832D01*
X690000Y225995D01*
Y224005D01*
X690761Y222168D01*
X692168Y220761D01*
X692346Y220687D01*
Y219313D01*
X692168Y219239D01*
X690761Y217832D01*
X690000Y215995D01*
Y214005D01*
X690761Y212168D01*
X692168Y210761D01*
X692346Y210687D01*
Y209313D01*
X692168Y209239D01*
X690761Y207832D01*
X690000Y205995D01*
Y204005D01*
X690761Y202168D01*
X692168Y200761D01*
X692346Y200687D01*
Y199313D01*
X692168Y199239D01*
X690761Y197832D01*
X690000Y195995D01*
Y194005D01*
X690761Y192168D01*
X692168Y190761D01*
X692472Y190635D01*
Y189365D01*
X692168Y189239D01*
X690761Y187832D01*
X690000Y185995D01*
Y184005D01*
X690761Y182168D01*
X692168Y180761D01*
X692346Y180687D01*
Y179313D01*
X692168Y179239D01*
X690761Y177832D01*
X690000Y175995D01*
Y174005D01*
X690761Y172168D01*
X692168Y170761D01*
X692346Y170687D01*
Y169313D01*
X692168Y169239D01*
X690761Y167832D01*
X690000Y165995D01*
Y164005D01*
X690761Y162168D01*
X692168Y160761D01*
X692472Y160635D01*
Y159365D01*
X692168Y159239D01*
X690761Y157832D01*
X690000Y155995D01*
Y154005D01*
X690761Y152168D01*
X692168Y150761D01*
X692346Y150687D01*
Y149313D01*
X692168Y149239D01*
X690761Y147832D01*
X690000Y145995D01*
Y144005D01*
X690761Y142168D01*
X692168Y140761D01*
X692346Y140687D01*
Y139313D01*
X692168Y139239D01*
X690761Y137832D01*
X690000Y135995D01*
Y134005D01*
X690761Y132168D01*
X692168Y130761D01*
X692346Y130687D01*
Y129313D01*
X692168Y129239D01*
X690761Y127832D01*
X690000Y125995D01*
Y124005D01*
X690761Y122168D01*
X692168Y120761D01*
X692472Y120635D01*
Y119365D01*
X692168Y119239D01*
X690761Y117832D01*
X690000Y115995D01*
Y114005D01*
X690761Y112168D01*
X692168Y110761D01*
X692346Y110687D01*
Y109313D01*
X692168Y109239D01*
X690761Y107832D01*
X690000Y105995D01*
Y104005D01*
X690761Y102168D01*
X692168Y100761D01*
X694005Y100000D01*
X695995D01*
X697832Y100761D01*
X699239Y102168D01*
X699313Y102346D01*
X700687D01*
X700761Y102168D01*
X702168Y100761D01*
X704005Y100000D01*
X705995D01*
X707832Y100761D01*
X709239Y102168D01*
X709365Y102472D01*
X710635D01*
X710761Y102168D01*
X712168Y100761D01*
X714005Y100000D01*
X715995D01*
X717832Y100761D01*
X719239Y102168D01*
X720000Y104005D01*
Y105995D01*
X719239Y107832D01*
X717832Y109239D01*
X717654Y109313D01*
Y110687D01*
X717832Y110761D01*
X719239Y112168D01*
X720000Y114005D01*
Y115995D01*
X719239Y117832D01*
X717832Y119239D01*
X717528Y119365D01*
Y120635D01*
X717832Y120761D01*
X719239Y122168D01*
X720000Y124005D01*
Y125995D01*
X719239Y127832D01*
X717832Y129239D01*
X717654Y129313D01*
Y130687D01*
X717832Y130761D01*
X719239Y132168D01*
X720000Y134005D01*
Y135995D01*
X719239Y137832D01*
X717832Y139239D01*
X715995Y140000D01*
X714005D01*
X712168Y139239D01*
X710761Y137832D01*
X710635Y137528D01*
X709365D01*
X709239Y137832D01*
X707832Y139239D01*
X707654Y139313D01*
Y140687D01*
X707832Y140761D01*
X709239Y142168D01*
X710000Y144005D01*
Y145995D01*
X709239Y147832D01*
X707832Y149239D01*
X707654Y149313D01*
Y150687D01*
X707832Y150761D01*
X709239Y152168D01*
X710000Y154005D01*
Y155995D01*
X709239Y157832D01*
X707832Y159239D01*
X707528Y159365D01*
Y160635D01*
X707832Y160761D01*
X709239Y162168D01*
X710000Y164005D01*
Y165995D01*
X709239Y167832D01*
X707832Y169239D01*
X707654Y169313D01*
Y170687D01*
X707832Y170761D01*
X709239Y172168D01*
X710000Y174005D01*
Y175995D01*
X709239Y177832D01*
X707832Y179239D01*
X707654Y179313D01*
Y180687D01*
X707832Y180761D01*
X709239Y182168D01*
X709365Y182472D01*
X710635D01*
X710761Y182168D01*
X712168Y180761D01*
X714005Y180000D01*
X715995D01*
X717832Y180761D01*
X719239Y182168D01*
X719313Y182346D01*
X720687D01*
X720761Y182168D01*
X722168Y180761D01*
X724005Y180000D01*
X725995D01*
X727832Y180761D01*
X729239Y182168D01*
X730000Y184005D01*
Y185995D01*
X729239Y187832D01*
X727832Y189239D01*
X727528Y189365D01*
Y190635D01*
X727832Y190761D01*
X729239Y192168D01*
X730000Y194005D01*
Y195995D01*
X729239Y197832D01*
X727832Y199239D01*
X727654Y199313D01*
Y200687D01*
X727832Y200761D01*
X729239Y202168D01*
X730000Y204005D01*
Y205995D01*
X729239Y207832D01*
X727832Y209239D01*
X727654Y209313D01*
Y210687D01*
X727832Y210761D01*
X729239Y212168D01*
X730000Y214005D01*
Y215995D01*
X729239Y217832D01*
X727832Y219239D01*
X727654Y219313D01*
Y220687D01*
X727832Y220761D01*
X729239Y222168D01*
X730000Y224005D01*
Y225995D01*
X729239Y227832D01*
X727832Y229239D01*
X725995Y230000D01*
D02*
G37*
G36*
X572920Y222304D02*
X571320D01*
X569841Y221691D01*
X568709Y220559D01*
X568096Y219080D01*
Y217480D01*
X568709Y216001D01*
X569841Y214869D01*
X571320Y214256D01*
X572920D01*
X574399Y214869D01*
X575531Y216001D01*
X576144Y217480D01*
Y219080D01*
X575531Y220559D01*
X574399Y221691D01*
X572920Y222304D01*
D02*
G37*
G36*
X442920Y221824D02*
X441320D01*
X439841Y221211D01*
X438709Y220079D01*
X438096Y218600D01*
Y217000D01*
X438709Y215521D01*
X439841Y214389D01*
X441320Y213776D01*
X442920D01*
X444399Y214389D01*
X445531Y215521D01*
X446144Y217000D01*
Y218600D01*
X445531Y220079D01*
X444399Y221211D01*
X442920Y221824D01*
D02*
G37*
G36*
X647497Y220221D02*
X645896D01*
X644417Y219608D01*
X643285Y218476D01*
X642672Y216997D01*
Y215396D01*
X643285Y213917D01*
X644417Y212785D01*
X645896Y212173D01*
X647497D01*
X648976Y212785D01*
X650108Y213917D01*
X650720Y215396D01*
Y216997D01*
X650108Y218476D01*
X648976Y219608D01*
X647497Y220221D01*
D02*
G37*
G36*
X517497Y219741D02*
X515896D01*
X514417Y219128D01*
X513285Y217996D01*
X512672Y216517D01*
Y214916D01*
X513285Y213437D01*
X514417Y212305D01*
X515896Y211693D01*
X517497D01*
X518976Y212305D01*
X520108Y213437D01*
X520720Y214916D01*
Y216517D01*
X520108Y217996D01*
X518976Y219128D01*
X517497Y219741D01*
D02*
G37*
G36*
X161440Y218244D02*
X159840D01*
X158361Y217631D01*
X157229Y216499D01*
X156616Y215020D01*
Y213420D01*
X157229Y211941D01*
X158361Y210809D01*
X159840Y210196D01*
X161440D01*
X162919Y210809D01*
X164051Y211941D01*
X164664Y213420D01*
Y215020D01*
X164051Y216499D01*
X162919Y217631D01*
X161440Y218244D01*
D02*
G37*
G36*
X326997Y217328D02*
X325396D01*
X323917Y216715D01*
X322785Y215583D01*
X322173Y214104D01*
Y212503D01*
X322785Y211024D01*
X323917Y209892D01*
X325396Y209280D01*
X326997D01*
X328476Y209892D01*
X329608Y211024D01*
X330221Y212503D01*
Y214104D01*
X329608Y215583D01*
X328476Y216715D01*
X326997Y217328D01*
D02*
G37*
G36*
X301335Y219220D02*
X299345D01*
X297508Y218459D01*
X296101Y217052D01*
X295340Y215215D01*
Y213225D01*
X296101Y211388D01*
X297508Y209981D01*
X299345Y209220D01*
X301335D01*
X303172Y209981D01*
X304579Y211388D01*
X305340Y213225D01*
Y215215D01*
X304579Y217052D01*
X303172Y218459D01*
X301335Y219220D01*
D02*
G37*
G36*
X575460Y194364D02*
X573860D01*
X572381Y193751D01*
X571249Y192619D01*
X570636Y191140D01*
Y189540D01*
X571249Y188061D01*
X572381Y186929D01*
X573860Y186316D01*
X575460D01*
X576939Y186929D01*
X578071Y188061D01*
X578684Y189540D01*
Y191140D01*
X578071Y192619D01*
X576939Y193751D01*
X575460Y194364D01*
D02*
G37*
G36*
X445461Y193884D02*
X443860D01*
X442381Y193271D01*
X441249Y192139D01*
X440636Y190660D01*
Y189060D01*
X441249Y187581D01*
X442381Y186449D01*
X443860Y185836D01*
X445461D01*
X446939Y186449D01*
X448071Y187581D01*
X448684Y189060D01*
Y190660D01*
X448071Y192139D01*
X446939Y193271D01*
X445461Y193884D01*
D02*
G37*
G36*
X646775Y195340D02*
X644786D01*
X642948Y194579D01*
X641541Y193172D01*
X640780Y191335D01*
Y189345D01*
X641541Y187508D01*
X642948Y186101D01*
X644786Y185340D01*
X646775D01*
X648612Y186101D01*
X650019Y187508D01*
X650780Y189345D01*
Y191335D01*
X650019Y193172D01*
X648612Y194579D01*
X646775Y195340D01*
D02*
G37*
G36*
X516775Y194860D02*
X514785D01*
X512948Y194099D01*
X511541Y192692D01*
X510780Y190855D01*
Y188865D01*
X511541Y187028D01*
X512948Y185621D01*
X514785Y184860D01*
X516775D01*
X518612Y185621D01*
X520019Y187028D01*
X520780Y188865D01*
Y190855D01*
X520019Y192692D01*
X518612Y194099D01*
X516775Y194860D01*
D02*
G37*
G36*
X250995Y175000D02*
X249005D01*
X247168Y174239D01*
X245761Y172832D01*
X245687Y172654D01*
X244313D01*
X244239Y172832D01*
X242832Y174239D01*
X240995Y175000D01*
X239005D01*
X237168Y174239D01*
X235761Y172832D01*
X235687Y172654D01*
X234313D01*
X234239Y172832D01*
X232832Y174239D01*
X230995Y175000D01*
X229005D01*
X227168Y174239D01*
X225761Y172832D01*
X225687Y172654D01*
X224313D01*
X224239Y172832D01*
X222832Y174239D01*
X220995Y175000D01*
X219005D01*
X217168Y174239D01*
X215761Y172832D01*
X215635Y172528D01*
X214365D01*
X214239Y172832D01*
X212832Y174239D01*
X210995Y175000D01*
X209005D01*
X207168Y174239D01*
X205761Y172832D01*
X205000Y170995D01*
Y169006D01*
X205761Y167168D01*
X207168Y165761D01*
X207346Y165687D01*
Y164313D01*
X207168Y164239D01*
X205761Y162832D01*
X205000Y160995D01*
Y159005D01*
X205761Y157168D01*
X207168Y155761D01*
X207346Y155687D01*
Y154313D01*
X207168Y154239D01*
X205761Y152832D01*
X205000Y150995D01*
Y149005D01*
X205761Y147168D01*
X207168Y145761D01*
X209005Y145000D01*
X210994D01*
X212832Y145761D01*
X214239Y147168D01*
X214313Y147346D01*
X215687D01*
X215761Y147168D01*
X217168Y145761D01*
X219005Y145000D01*
X220995D01*
X222832Y145761D01*
X224239Y147168D01*
X224313Y147346D01*
X225687D01*
X225761Y147168D01*
X227168Y145761D01*
X229005Y145000D01*
X230995D01*
X232832Y145761D01*
X234239Y147168D01*
X235000Y149005D01*
Y150995D01*
X234239Y152832D01*
X232832Y154239D01*
X232654Y154313D01*
Y155687D01*
X232832Y155761D01*
X234239Y157168D01*
X234313Y157346D01*
X235687D01*
X235761Y157168D01*
X237168Y155761D01*
X239005Y155000D01*
X240995D01*
X242832Y155761D01*
X244239Y157168D01*
X244313Y157346D01*
X245687D01*
X245761Y157168D01*
X247168Y155761D01*
X247346Y155687D01*
Y154313D01*
X247168Y154239D01*
X245761Y152832D01*
X245000Y150995D01*
Y149005D01*
X245761Y147168D01*
X247168Y145761D01*
X249005Y145000D01*
X250995D01*
X252832Y145761D01*
X254239Y147168D01*
X255000Y149005D01*
Y150995D01*
X254239Y152832D01*
X252832Y154239D01*
X252654Y154313D01*
Y155687D01*
X252832Y155761D01*
X254239Y157168D01*
X255000Y159005D01*
Y160995D01*
X254239Y162832D01*
X252832Y164239D01*
X252654Y164313D01*
Y165687D01*
X252832Y165761D01*
X254239Y167168D01*
X255000Y169006D01*
Y170995D01*
X254239Y172832D01*
X252832Y174239D01*
X250995Y175000D01*
D02*
G37*
G36*
X263235Y178120D02*
X261245D01*
X259408Y177359D01*
X258001Y175952D01*
X257240Y174115D01*
Y172125D01*
X258001Y170288D01*
X259408Y168881D01*
X261245Y168120D01*
X263235D01*
X265072Y168881D01*
X266479Y170288D01*
X267240Y172125D01*
Y174115D01*
X266479Y175952D01*
X265072Y177359D01*
X263235Y178120D01*
D02*
G37*
G36*
X765415Y170678D02*
Y167695D01*
X768398D01*
X768014Y168360D01*
X766080Y170294D01*
X765415Y170678D01*
D02*
G37*
G36*
X753985D02*
X753320Y170294D01*
X751386Y168360D01*
X751002Y167695D01*
X753985D01*
Y170678D01*
D02*
G37*
G36*
X820572Y178004D02*
X818828D01*
X817143Y177553D01*
X815633Y176681D01*
X814399Y175447D01*
X813527Y173937D01*
X813076Y172252D01*
Y170508D01*
X813527Y168823D01*
X814399Y167313D01*
X815633Y166080D01*
X817143Y165207D01*
X818828Y164756D01*
X820572D01*
X822257Y165207D01*
X823767Y166080D01*
X825001Y167313D01*
X825873Y168823D01*
X826324Y170508D01*
Y172252D01*
X825873Y173937D01*
X825001Y175447D01*
X823767Y176681D01*
X822257Y177553D01*
X820572Y178004D01*
D02*
G37*
G36*
X730572D02*
X728828D01*
X727143Y177553D01*
X725633Y176681D01*
X724399Y175447D01*
X723527Y173937D01*
X723076Y172252D01*
Y170508D01*
X723527Y168823D01*
X724399Y167313D01*
X725633Y166080D01*
X727143Y165207D01*
X728828Y164756D01*
X730572D01*
X732257Y165207D01*
X733767Y166080D01*
X735001Y167313D01*
X735873Y168823D01*
X736324Y170508D01*
Y172252D01*
X735873Y173937D01*
X735001Y175447D01*
X733767Y176681D01*
X732257Y177553D01*
X730572Y178004D01*
D02*
G37*
G36*
X329080Y161904D02*
X327480D01*
X326001Y161291D01*
X324869Y160159D01*
X324256Y158680D01*
Y157080D01*
X324869Y155601D01*
X326001Y154469D01*
X327480Y153856D01*
X329080D01*
X330559Y154469D01*
X331691Y155601D01*
X332304Y157080D01*
Y158680D01*
X331691Y160159D01*
X330559Y161291D01*
X329080Y161904D01*
D02*
G37*
G36*
X768398Y156265D02*
X765415D01*
Y153282D01*
X766080Y153666D01*
X768014Y155600D01*
X768398Y156265D01*
D02*
G37*
G36*
X753985D02*
X751002D01*
X751386Y155600D01*
X753320Y153666D01*
X753985Y153282D01*
Y156265D01*
D02*
G37*
G36*
X791063Y172330D02*
X788337D01*
X785705Y171625D01*
X783345Y170262D01*
X781418Y168335D01*
X780055Y165975D01*
X779350Y163343D01*
Y160617D01*
X780055Y157985D01*
X781418Y155625D01*
X783345Y153698D01*
X785705Y152335D01*
X788337Y151630D01*
X791063D01*
X793695Y152335D01*
X796055Y153698D01*
X797982Y155625D01*
X799345Y157985D01*
X800050Y160617D01*
Y163343D01*
X799345Y165975D01*
X797982Y168335D01*
X796055Y170262D01*
X793695Y171625D01*
X791063Y172330D01*
D02*
G37*
G36*
X301140Y159364D02*
X299540D01*
X298061Y158751D01*
X296929Y157619D01*
X296316Y156140D01*
Y154540D01*
X296929Y153061D01*
X298061Y151929D01*
X299540Y151316D01*
X301140D01*
X302619Y151929D01*
X303751Y153061D01*
X304364Y154540D01*
Y156140D01*
X303751Y157619D01*
X302619Y158751D01*
X301140Y159364D01*
D02*
G37*
G36*
X557875Y157240D02*
X555886D01*
X554048Y156479D01*
X552641Y155072D01*
X551880Y153235D01*
Y151245D01*
X552641Y149408D01*
X554048Y148001D01*
X555886Y147240D01*
X557875D01*
X559712Y148001D01*
X561119Y149408D01*
X561880Y151245D01*
Y153235D01*
X561119Y155072D01*
X559712Y156479D01*
X557875Y157240D01*
D02*
G37*
G36*
X427875Y156760D02*
X425886D01*
X424048Y155999D01*
X422641Y154592D01*
X421880Y152755D01*
Y150765D01*
X422641Y148928D01*
X424048Y147521D01*
X425886Y146760D01*
X427875D01*
X429712Y147521D01*
X431119Y148928D01*
X431880Y150765D01*
Y152755D01*
X431119Y154592D01*
X429712Y155999D01*
X427875Y156760D01*
D02*
G37*
G36*
X161440Y151744D02*
X159840D01*
X158361Y151131D01*
X157229Y149999D01*
X156616Y148520D01*
Y146920D01*
X157229Y145441D01*
X158361Y144309D01*
X159840Y143696D01*
X161440D01*
X162919Y144309D01*
X164051Y145441D01*
X164664Y146920D01*
Y148520D01*
X164051Y149999D01*
X162919Y151131D01*
X161440Y151744D01*
D02*
G37*
G36*
X450995Y145000D02*
X449005D01*
X447168Y144239D01*
X445761Y142832D01*
X445687Y142654D01*
X444313D01*
X444239Y142832D01*
X442832Y144239D01*
X440994Y145000D01*
X439005D01*
X437168Y144239D01*
X435761Y142832D01*
X435687Y142654D01*
X434313D01*
X434239Y142832D01*
X432832Y144239D01*
X430994Y145000D01*
X429005D01*
X427168Y144239D01*
X425761Y142832D01*
X425000Y140995D01*
Y139005D01*
X425761Y137168D01*
X427168Y135761D01*
X427346Y135687D01*
Y134313D01*
X427168Y134239D01*
X425761Y132832D01*
X425000Y130995D01*
Y129005D01*
X425761Y127168D01*
X427168Y125761D01*
X427346Y125687D01*
Y124313D01*
X427168Y124239D01*
X425761Y122832D01*
X425000Y120995D01*
Y119005D01*
X425761Y117168D01*
X427168Y115761D01*
X427346Y115687D01*
Y114313D01*
X427168Y114239D01*
X425761Y112832D01*
X425000Y110995D01*
Y109005D01*
X425761Y107168D01*
X427168Y105761D01*
X427472Y105635D01*
Y104365D01*
X427168Y104239D01*
X425761Y102832D01*
X425000Y100995D01*
Y99005D01*
X425761Y97168D01*
X427168Y95761D01*
X429005Y95000D01*
X430994D01*
X432832Y95761D01*
X434239Y97168D01*
X434313Y97346D01*
X435687D01*
X435761Y97168D01*
X437168Y95761D01*
X439005Y95000D01*
X440994D01*
X442832Y95761D01*
X444239Y97168D01*
X444313Y97346D01*
X445687D01*
X445761Y97168D01*
X447168Y95761D01*
X449005Y95000D01*
X450995D01*
X452832Y95761D01*
X454239Y97168D01*
X455000Y99005D01*
Y100995D01*
X454239Y102832D01*
X452832Y104239D01*
X452654Y104313D01*
Y105687D01*
X452832Y105761D01*
X454239Y107168D01*
X455000Y109005D01*
Y110995D01*
X454239Y112832D01*
X452832Y114239D01*
X452654Y114313D01*
Y115687D01*
X452832Y115761D01*
X454239Y117168D01*
X455000Y119005D01*
Y120995D01*
X454239Y122832D01*
X452832Y124239D01*
X450995Y125000D01*
X449005D01*
X447168Y124239D01*
X445761Y122832D01*
X445687Y122654D01*
X444313D01*
X444239Y122832D01*
X442832Y124239D01*
X442654Y124313D01*
Y125687D01*
X442832Y125761D01*
X444239Y127168D01*
X445000Y129005D01*
Y130995D01*
X444239Y132832D01*
X442832Y134239D01*
X442654Y134313D01*
Y135687D01*
X442832Y135761D01*
X444239Y137168D01*
X444313Y137346D01*
X445687D01*
X445761Y137168D01*
X447168Y135761D01*
X449005Y135000D01*
X450995D01*
X452832Y135761D01*
X454239Y137168D01*
X455000Y139005D01*
Y140995D01*
X454239Y142832D01*
X452832Y144239D01*
X450995Y145000D01*
D02*
G37*
G36*
X580994D02*
X579005D01*
X577168Y144239D01*
X575761Y142832D01*
X575687Y142654D01*
X574313D01*
X574239Y142832D01*
X572832Y144239D01*
X570994Y145000D01*
X569005D01*
X567168Y144239D01*
X565761Y142832D01*
X565687Y142654D01*
X564313D01*
X564239Y142832D01*
X562832Y144239D01*
X560994Y145000D01*
X559005D01*
X557168Y144239D01*
X555761Y142832D01*
X555000Y140995D01*
Y139005D01*
X555761Y137168D01*
X557168Y135761D01*
X557346Y135687D01*
Y134313D01*
X557168Y134239D01*
X555761Y132832D01*
X555000Y130995D01*
Y129005D01*
X555761Y127168D01*
X557168Y125761D01*
X557346Y125687D01*
Y124313D01*
X557168Y124239D01*
X555761Y122832D01*
X555000Y120995D01*
Y119005D01*
X555761Y117168D01*
X557168Y115761D01*
X557346Y115687D01*
Y114313D01*
X557168Y114239D01*
X555761Y112832D01*
X555000Y110995D01*
Y109005D01*
X555761Y107168D01*
X557168Y105761D01*
X557472Y105635D01*
Y104365D01*
X557168Y104239D01*
X555761Y102832D01*
X555000Y100995D01*
Y99005D01*
X555761Y97168D01*
X557168Y95761D01*
X559005Y95000D01*
X560994D01*
X562832Y95761D01*
X564239Y97168D01*
X564313Y97346D01*
X565687D01*
X565761Y97168D01*
X567168Y95761D01*
X569005Y95000D01*
X570994D01*
X572832Y95761D01*
X574239Y97168D01*
X574313Y97346D01*
X575687D01*
X575761Y97168D01*
X577168Y95761D01*
X579005Y95000D01*
X580994D01*
X582832Y95761D01*
X584239Y97168D01*
X585000Y99005D01*
Y100995D01*
X584239Y102832D01*
X582832Y104239D01*
X582654Y104313D01*
Y105687D01*
X582832Y105761D01*
X584239Y107168D01*
X585000Y109005D01*
Y110995D01*
X584239Y112832D01*
X582832Y114239D01*
X582654Y114313D01*
Y115687D01*
X582832Y115761D01*
X584239Y117168D01*
X585000Y119005D01*
Y120995D01*
X584239Y122832D01*
X582832Y124239D01*
X580994Y125000D01*
X579005D01*
X577168Y124239D01*
X575761Y122832D01*
X575687Y122654D01*
X574313D01*
X574239Y122832D01*
X572832Y124239D01*
X572654Y124313D01*
Y125687D01*
X572832Y125761D01*
X574239Y127168D01*
X575000Y129005D01*
Y130995D01*
X574239Y132832D01*
X572832Y134239D01*
X572654Y134313D01*
Y135687D01*
X572832Y135761D01*
X574239Y137168D01*
X574313Y137346D01*
X575687D01*
X575761Y137168D01*
X577168Y135761D01*
X579005Y135000D01*
X580994D01*
X582832Y135761D01*
X584239Y137168D01*
X585000Y139005D01*
Y140995D01*
X584239Y142832D01*
X582832Y144239D01*
X580994Y145000D01*
D02*
G37*
G36*
X765415Y140678D02*
Y137695D01*
X768398D01*
X768014Y138360D01*
X766080Y140294D01*
X765415Y140678D01*
D02*
G37*
G36*
X753985D02*
X753320Y140294D01*
X751386Y138360D01*
X751002Y137695D01*
X753985D01*
Y140678D01*
D02*
G37*
G36*
X768398Y126265D02*
X765415D01*
Y123282D01*
X766080Y123666D01*
X768014Y125600D01*
X768398Y126265D01*
D02*
G37*
G36*
X753985D02*
X751002D01*
X751386Y125600D01*
X753320Y123666D01*
X753985Y123282D01*
Y126265D01*
D02*
G37*
G36*
X800050Y142330D02*
X779350D01*
Y121630D01*
X800050D01*
Y142330D01*
D02*
G37*
G36*
X161440Y88244D02*
X159840D01*
X158361Y87631D01*
X157229Y86499D01*
X156616Y85020D01*
Y83420D01*
X157229Y81941D01*
X158361Y80809D01*
X159840Y80196D01*
X161440D01*
X162919Y80809D01*
X164051Y81941D01*
X164664Y83420D01*
Y85020D01*
X164051Y86499D01*
X162919Y87631D01*
X161440Y88244D01*
D02*
G37*
G36*
X327376Y87356D02*
X325775D01*
X324296Y86744D01*
X323164Y85612D01*
X322552Y84133D01*
Y82532D01*
X323164Y81053D01*
X324296Y79921D01*
X325775Y79308D01*
X327376D01*
X328855Y79921D01*
X329987Y81053D01*
X330600Y82532D01*
Y84133D01*
X329987Y85612D01*
X328855Y86744D01*
X327376Y87356D01*
D02*
G37*
G36*
X301335Y89220D02*
X299345D01*
X297508Y88459D01*
X296101Y87052D01*
X295340Y85215D01*
Y83225D01*
X296101Y81388D01*
X297508Y79981D01*
X299345Y79220D01*
X301335D01*
X303172Y79981D01*
X304579Y81388D01*
X305340Y83225D01*
Y85215D01*
X304579Y87052D01*
X303172Y88459D01*
X301335Y89220D01*
D02*
G37*
G36*
X784423Y87024D02*
X780577D01*
X776805Y86274D01*
X773252Y84802D01*
X770054Y82665D01*
X767335Y79946D01*
X765198Y76748D01*
X763726Y73195D01*
X762976Y69423D01*
Y65577D01*
X763726Y61805D01*
X765198Y58252D01*
X767335Y55054D01*
X770054Y52335D01*
X773252Y50198D01*
X776805Y48726D01*
X780577Y47976D01*
X784423D01*
X788195Y48726D01*
X791748Y50198D01*
X794946Y52335D01*
X797665Y55054D01*
X799802Y58252D01*
X801274Y61805D01*
X802024Y65577D01*
Y69423D01*
X801274Y73195D01*
X799802Y76748D01*
X797665Y79946D01*
X794946Y82665D01*
X791748Y84802D01*
X788195Y86274D01*
X784423Y87024D01*
D02*
G37*
G36*
X69423D02*
X65577D01*
X61805Y86274D01*
X58252Y84802D01*
X55054Y82665D01*
X52335Y79946D01*
X50198Y76748D01*
X48726Y73195D01*
X47976Y69423D01*
Y65577D01*
X48726Y61805D01*
X50198Y58252D01*
X52335Y55054D01*
X55054Y52335D01*
X58252Y50198D01*
X61805Y48726D01*
X65577Y47976D01*
X69423D01*
X73195Y48726D01*
X76748Y50198D01*
X79946Y52335D01*
X82665Y55054D01*
X84802Y58252D01*
X86274Y61805D01*
X87024Y65577D01*
Y69423D01*
X86274Y73195D01*
X84802Y76748D01*
X82665Y79946D01*
X79946Y82665D01*
X76748Y84802D01*
X73195Y86274D01*
X69423Y87024D01*
D02*
G37*
G36*
X646580Y54664D02*
X644980D01*
X643501Y54051D01*
X642369Y52919D01*
X641756Y51440D01*
Y49840D01*
X642369Y48361D01*
X643501Y47229D01*
X644980Y46616D01*
X646580D01*
X648059Y47229D01*
X649191Y48361D01*
X649804Y49840D01*
Y51440D01*
X649191Y52919D01*
X648059Y54051D01*
X646580Y54664D01*
D02*
G37*
G36*
X583080D02*
X581480D01*
X580001Y54051D01*
X578869Y52919D01*
X578256Y51440D01*
Y49840D01*
X578869Y48361D01*
X580001Y47229D01*
X581480Y46616D01*
X583080D01*
X584559Y47229D01*
X585691Y48361D01*
X586304Y49840D01*
Y51440D01*
X585691Y52919D01*
X584559Y54051D01*
X583080Y54664D01*
D02*
G37*
G36*
X516581Y54184D02*
X514980D01*
X513501Y53571D01*
X512369Y52439D01*
X511756Y50960D01*
Y49360D01*
X512369Y47881D01*
X513501Y46749D01*
X514980Y46136D01*
X516581D01*
X518059Y46749D01*
X519191Y47881D01*
X519804Y49360D01*
Y50960D01*
X519191Y52439D01*
X518059Y53571D01*
X516581Y54184D01*
D02*
G37*
G36*
X453080D02*
X451480D01*
X450001Y53571D01*
X448869Y52439D01*
X448256Y50960D01*
Y49360D01*
X448869Y47881D01*
X450001Y46749D01*
X451480Y46136D01*
X453080D01*
X454559Y46749D01*
X455691Y47881D01*
X456304Y49360D01*
Y50960D01*
X455691Y52439D01*
X454559Y53571D01*
X453080Y54184D01*
D02*
G37*
G36*
X686600Y21804D02*
X685000D01*
X683521Y21191D01*
X682389Y20059D01*
X681776Y18580D01*
Y16980D01*
X682389Y15501D01*
X683521Y14369D01*
X685000Y13756D01*
X686600D01*
X688079Y14369D01*
X689211Y15501D01*
X689824Y16980D01*
Y18580D01*
X689211Y20059D01*
X688079Y21191D01*
X686600Y21804D01*
D02*
G37*
%LPD*%
D115*
X819700Y171380D02*
D03*
X729700D02*
D03*
D116*
X759700Y161980D02*
D03*
X789700D02*
D03*
X759700Y131980D02*
D03*
D117*
X789700D02*
D03*
D127*
X825000Y785000D02*
D03*
Y759600D02*
D03*
D128*
X628400Y410800D02*
D03*
Y385400D02*
D03*
Y360000D02*
D03*
Y334600D02*
D03*
D129*
X793860Y634980D02*
D03*
Y721380D02*
D03*
D130*
X835660Y634980D02*
D03*
Y721380D02*
D03*
D131*
X798860Y707080D02*
D03*
Y649280D02*
D03*
D132*
X599440Y624840D02*
D03*
X657860Y391160D02*
D03*
X669504Y342900D02*
D03*
Y350520D02*
D03*
X590000Y410000D02*
D03*
X685800Y17780D02*
D03*
X645160D02*
D03*
X679996Y419996D02*
D03*
X751840Y627380D02*
D03*
X715000Y650000D02*
D03*
X695017Y610000D02*
D03*
X663186Y622546D02*
D03*
X702302Y591184D02*
D03*
X710347Y617500D02*
D03*
X723900Y640080D02*
D03*
X698146Y660421D02*
D03*
X632460Y716280D02*
D03*
X625000Y669000D02*
D03*
X655000Y670484D02*
D03*
X396240Y810260D02*
D03*
X299720Y593939D02*
D03*
X326197Y733304D02*
D03*
X548640Y673100D02*
D03*
X543560Y668020D02*
D03*
X457957Y560974D02*
D03*
X414020Y563880D02*
D03*
X622300Y594360D02*
D03*
X480000Y745000D02*
D03*
X449580Y561340D02*
D03*
X396240Y589280D02*
D03*
X398780Y576580D02*
D03*
X515780Y189860D02*
D03*
X160640Y84220D02*
D03*
X561855Y48474D02*
D03*
X646696Y216197D02*
D03*
X516696Y215717D02*
D03*
X326197Y213304D02*
D03*
Y343304D02*
D03*
Y473304D02*
D03*
Y603304D02*
D03*
X326576Y83332D02*
D03*
X262240Y563120D02*
D03*
X353680Y464060D02*
D03*
X400010Y450000D02*
D03*
X158100Y420420D02*
D03*
X160640Y407720D02*
D03*
X165720Y420420D02*
D03*
Y412800D02*
D03*
X302880Y191360D02*
D03*
X354204Y397560D02*
D03*
X300287Y344250D02*
D03*
X360680Y558800D02*
D03*
X419100Y607060D02*
D03*
X495000Y590000D02*
D03*
X457200Y589280D02*
D03*
X375920Y685800D02*
D03*
X80000Y640000D02*
D03*
X547607Y289815D02*
D03*
X690000Y380000D02*
D03*
X710077Y339954D02*
D03*
X750000Y340000D02*
D03*
X740000D02*
D03*
X660000Y725000D02*
D03*
X675744Y716384D02*
D03*
X751840Y718820D02*
D03*
X655000Y730000D02*
D03*
X690000Y740000D02*
D03*
X805000D02*
D03*
X558800Y739120D02*
D03*
X575300Y706120D02*
D03*
X713836Y588836D02*
D03*
X554990Y289560D02*
D03*
X690000Y425000D02*
D03*
X725000Y610000D02*
D03*
X731520Y599440D02*
D03*
X755000Y600000D02*
D03*
X745000D02*
D03*
X759460Y297180D02*
D03*
X725000Y625000D02*
D03*
X80000Y605000D02*
D03*
Y620000D02*
D03*
Y650000D02*
D03*
X210000Y800000D02*
D03*
X220000D02*
D03*
X210000Y810000D02*
D03*
X230000Y820000D02*
D03*
X220000Y810000D02*
D03*
X210000Y820000D02*
D03*
X220000D02*
D03*
X165720Y818040D02*
D03*
X158100D02*
D03*
X165720Y810420D02*
D03*
X158100D02*
D03*
X513080Y595630D02*
D03*
X582930D02*
D03*
X475000Y755000D02*
D03*
X395000Y765000D02*
D03*
X410000Y795000D02*
D03*
X460000D02*
D03*
X465000Y755000D02*
D03*
X438292D02*
D03*
X445000D02*
D03*
X455000D02*
D03*
X470000Y795000D02*
D03*
X604520Y594360D02*
D03*
Y584200D02*
D03*
X625000Y675524D02*
D03*
X725000Y675000D02*
D03*
X765000Y600000D02*
D03*
X772160Y685800D02*
D03*
X777240Y718820D02*
D03*
X774700Y640080D02*
D03*
X800100Y693420D02*
D03*
X751840Y650240D02*
D03*
X746760Y688340D02*
D03*
X647700Y642620D02*
D03*
X713740Y713740D02*
D03*
Y728980D02*
D03*
X739140Y739140D02*
D03*
Y777240D02*
D03*
X518160Y756920D02*
D03*
X469900Y627380D02*
D03*
X487680Y739140D02*
D03*
X460000Y470000D02*
D03*
X595000Y550000D02*
D03*
Y560000D02*
D03*
X585000Y550000D02*
D03*
X575000D02*
D03*
X565000D02*
D03*
X585000Y560000D02*
D03*
X575000D02*
D03*
X565000D02*
D03*
X585000Y570000D02*
D03*
X575000D02*
D03*
X565000D02*
D03*
X655320Y756920D02*
D03*
Y764540D02*
D03*
Y772160D02*
D03*
X690000Y790000D02*
D03*
X655000D02*
D03*
X558800Y706120D02*
D03*
Y722620D02*
D03*
X575300Y739120D02*
D03*
Y722620D02*
D03*
X591800Y706120D02*
D03*
Y739120D02*
D03*
Y722620D02*
D03*
X730000Y355000D02*
D03*
X570000Y350000D02*
D03*
X590000D02*
D03*
X570000Y450000D02*
D03*
X590000D02*
D03*
Y370000D02*
D03*
X570000D02*
D03*
X590000Y430000D02*
D03*
X570000Y390000D02*
D03*
X590000D02*
D03*
X570000Y430000D02*
D03*
Y410000D02*
D03*
X400010Y470000D02*
D03*
Y490000D02*
D03*
X420000Y470000D02*
D03*
Y490000D02*
D03*
X460000D02*
D03*
X480000Y470000D02*
D03*
Y490000D02*
D03*
X510000Y470000D02*
D03*
Y490000D02*
D03*
X530000Y470000D02*
D03*
Y490000D02*
D03*
X570000Y470000D02*
D03*
Y490000D02*
D03*
X590000Y470000D02*
D03*
Y490000D02*
D03*
X539750Y581660D02*
D03*
X556260Y590550D02*
D03*
X651304Y575000D02*
D03*
X571500Y629920D02*
D03*
X629920Y617220D02*
D03*
X612140Y615950D02*
D03*
X533400Y614680D02*
D03*
X497840Y645160D02*
D03*
X467360Y665480D02*
D03*
X459740Y695960D02*
D03*
X480000Y795000D02*
D03*
X490000D02*
D03*
X436840Y731520D02*
D03*
X400010Y350000D02*
D03*
X420000D02*
D03*
X400010Y370000D02*
D03*
X420000D02*
D03*
X460000Y350000D02*
D03*
X480000D02*
D03*
X510000D02*
D03*
X530000D02*
D03*
X460000Y370000D02*
D03*
X480000D02*
D03*
X510000D02*
D03*
X530000D02*
D03*
X460000Y390000D02*
D03*
X480000D02*
D03*
X510000D02*
D03*
X530000D02*
D03*
X460000Y410000D02*
D03*
X480000D02*
D03*
X510000D02*
D03*
X530000D02*
D03*
X460000Y430000D02*
D03*
X480000D02*
D03*
X510000D02*
D03*
X530000D02*
D03*
X460000Y450000D02*
D03*
X480000D02*
D03*
X510000D02*
D03*
X530000D02*
D03*
X400010Y390000D02*
D03*
X420000D02*
D03*
Y450000D02*
D03*
X400010Y410000D02*
D03*
X420000D02*
D03*
X400010Y430000D02*
D03*
X420000D02*
D03*
X840000Y345000D02*
D03*
Y355000D02*
D03*
Y365000D02*
D03*
Y375000D02*
D03*
Y385000D02*
D03*
X830000D02*
D03*
Y375000D02*
D03*
Y365000D02*
D03*
Y355000D02*
D03*
Y345000D02*
D03*
X820000D02*
D03*
Y355000D02*
D03*
Y365000D02*
D03*
Y375000D02*
D03*
Y385000D02*
D03*
X749300Y297180D02*
D03*
X715000Y105000D02*
D03*
Y115000D02*
D03*
Y125000D02*
D03*
Y135000D02*
D03*
X705000Y105000D02*
D03*
Y115000D02*
D03*
Y125000D02*
D03*
Y135000D02*
D03*
X695000Y105000D02*
D03*
Y115000D02*
D03*
Y125000D02*
D03*
Y135000D02*
D03*
X705000Y145000D02*
D03*
Y155000D02*
D03*
Y165000D02*
D03*
Y175000D02*
D03*
X695000Y145000D02*
D03*
Y155000D02*
D03*
Y165000D02*
D03*
Y175000D02*
D03*
Y185000D02*
D03*
X705000D02*
D03*
X715000D02*
D03*
X725000D02*
D03*
X695000Y195000D02*
D03*
X705000D02*
D03*
X715000D02*
D03*
X725000D02*
D03*
X695000Y205000D02*
D03*
X705000D02*
D03*
X715000D02*
D03*
X725000D02*
D03*
X695000Y215000D02*
D03*
X705000D02*
D03*
X715000D02*
D03*
X725000D02*
D03*
Y225000D02*
D03*
X715000D02*
D03*
X705000D02*
D03*
X695000D02*
D03*
X648970Y300990D02*
D03*
X666750Y302260D02*
D03*
X541020Y292100D02*
D03*
X533400Y297180D02*
D03*
X560000Y110000D02*
D03*
Y120000D02*
D03*
Y130000D02*
D03*
Y140000D02*
D03*
X570000Y120000D02*
D03*
X580000D02*
D03*
X570000Y140000D02*
D03*
X580000D02*
D03*
X570000Y130000D02*
D03*
Y110000D02*
D03*
X580000D02*
D03*
X560000Y100000D02*
D03*
X570000D02*
D03*
X580000Y100000D02*
D03*
X430000Y110000D02*
D03*
Y120000D02*
D03*
Y130000D02*
D03*
Y140000D02*
D03*
X440000Y120000D02*
D03*
X450000D02*
D03*
X440000Y140000D02*
D03*
X450000D02*
D03*
X440000Y130000D02*
D03*
Y110000D02*
D03*
X450000D02*
D03*
X430000Y100000D02*
D03*
X440000D02*
D03*
X450000Y100000D02*
D03*
X220000Y170000D02*
D03*
X230000D02*
D03*
X240000D02*
D03*
X250000D02*
D03*
X230000Y160000D02*
D03*
Y150000D02*
D03*
X250000Y160000D02*
D03*
Y150000D02*
D03*
X240000Y160000D02*
D03*
X220000D02*
D03*
Y150000D02*
D03*
X210000Y170000D02*
D03*
Y160000D02*
D03*
X210000Y150000D02*
D03*
X220000Y300000D02*
D03*
X230000D02*
D03*
X240000D02*
D03*
X250000D02*
D03*
X230000Y290000D02*
D03*
Y280000D02*
D03*
X250000Y290000D02*
D03*
Y280000D02*
D03*
X240000Y290000D02*
D03*
X220000D02*
D03*
Y280000D02*
D03*
X210000Y300000D02*
D03*
Y290000D02*
D03*
X210000Y280000D02*
D03*
X220000Y430000D02*
D03*
X230000D02*
D03*
X240000D02*
D03*
X250000D02*
D03*
X230000Y420000D02*
D03*
Y410000D02*
D03*
X250000Y420000D02*
D03*
Y410000D02*
D03*
X240000Y420000D02*
D03*
X220000D02*
D03*
Y410000D02*
D03*
X210000Y430000D02*
D03*
Y420000D02*
D03*
X210000Y410000D02*
D03*
X220000Y560000D02*
D03*
X230000D02*
D03*
X240000D02*
D03*
X250000D02*
D03*
X230000Y550000D02*
D03*
Y540000D02*
D03*
X250000Y550000D02*
D03*
Y540000D02*
D03*
X240000Y550000D02*
D03*
X220000D02*
D03*
Y540000D02*
D03*
X210000Y560000D02*
D03*
Y550000D02*
D03*
X210000Y540000D02*
D03*
X220000Y690000D02*
D03*
X230000D02*
D03*
X240000D02*
D03*
X250000D02*
D03*
X230000Y680000D02*
D03*
Y670000D02*
D03*
X250000Y680000D02*
D03*
Y670000D02*
D03*
X240000Y680000D02*
D03*
X220000D02*
D03*
Y670000D02*
D03*
X210000Y690000D02*
D03*
Y680000D02*
D03*
X210000Y670000D02*
D03*
X240000Y810000D02*
D03*
X250000Y800000D02*
D03*
Y810000D02*
D03*
X230000Y800000D02*
D03*
Y810000D02*
D03*
X250000Y820000D02*
D03*
X240000D02*
D03*
X565664Y52016D02*
D03*
X574865Y60070D02*
D03*
X431960Y47620D02*
D03*
X439580D02*
D03*
X158100Y160420D02*
D03*
X165720Y152800D02*
D03*
Y160420D02*
D03*
X158100Y168040D02*
D03*
X165720Y428040D02*
D03*
X491650Y216530D02*
D03*
X499270D02*
D03*
X491650Y207640D02*
D03*
X499270D02*
D03*
X491650Y198750D02*
D03*
X499270D02*
D03*
X621650Y217010D02*
D03*
X629270D02*
D03*
X621650Y208120D02*
D03*
X629270D02*
D03*
X621650Y199230D02*
D03*
X629270D02*
D03*
X262240Y693120D02*
D03*
X300340Y604220D02*
D03*
X354204Y657560D02*
D03*
X353680Y594060D02*
D03*
X361300Y599140D02*
D03*
X340980Y619460D02*
D03*
X160640Y604220D02*
D03*
X300340Y675340D02*
D03*
X160020Y665480D02*
D03*
X328280Y677880D02*
D03*
X340980Y632160D02*
D03*
X165720Y680420D02*
D03*
X300340Y474220D02*
D03*
X354204Y527560D02*
D03*
X361300Y469140D02*
D03*
X340980Y489460D02*
D03*
X160640Y474220D02*
D03*
X300340Y545340D02*
D03*
X160640Y537720D02*
D03*
X328280Y547880D02*
D03*
X340980Y502160D02*
D03*
X165720Y550420D02*
D03*
X302880Y451360D02*
D03*
X262240Y433120D02*
D03*
X353680Y334060D02*
D03*
X361300Y339140D02*
D03*
X340980Y359460D02*
D03*
X160640Y344220D02*
D03*
X300340Y415340D02*
D03*
X328280Y417880D02*
D03*
X340980Y372160D02*
D03*
X302880Y321360D02*
D03*
X262240Y303120D02*
D03*
X300340Y214220D02*
D03*
X354204Y267560D02*
D03*
X353680Y204060D02*
D03*
X361300Y209140D02*
D03*
X340980Y229460D02*
D03*
X160640Y214220D02*
D03*
X300340Y285340D02*
D03*
X160640Y277720D02*
D03*
X328280Y287880D02*
D03*
X340980Y242160D02*
D03*
X165720Y290420D02*
D03*
X262240Y173120D02*
D03*
X300340Y84220D02*
D03*
X354204Y137560D02*
D03*
X353680Y74060D02*
D03*
X361300Y79140D02*
D03*
X340980Y99460D02*
D03*
X300340Y155340D02*
D03*
X160640Y147720D02*
D03*
X328280Y157880D02*
D03*
X340980Y112160D02*
D03*
X302880Y61360D02*
D03*
X426880Y151760D02*
D03*
X462440Y243724D02*
D03*
X525940Y243200D02*
D03*
X520860Y250820D02*
D03*
X500540Y230500D02*
D03*
X444660Y189860D02*
D03*
X515780Y50160D02*
D03*
X442120Y217800D02*
D03*
X452280Y50160D02*
D03*
X487840Y230500D02*
D03*
X439580Y55240D02*
D03*
X538640Y192400D02*
D03*
X556880Y152240D02*
D03*
X645780Y190340D02*
D03*
X592440Y244204D02*
D03*
X655940Y243680D02*
D03*
X650860Y251300D02*
D03*
X630540Y230980D02*
D03*
X574660Y190340D02*
D03*
X645780Y50640D02*
D03*
X572120Y218280D02*
D03*
X582280Y50640D02*
D03*
X617840Y230980D02*
D03*
X569580Y55720D02*
D03*
X668640Y192880D02*
D03*
X165720Y671600D02*
D03*
X157480Y680720D02*
D03*
Y675640D02*
D03*
X561960Y55720D02*
D03*
X431960Y55240D02*
D03*
X447200D02*
D03*
X165720Y168040D02*
D03*
X158100Y298040D02*
D03*
X165720D02*
D03*
Y282800D02*
D03*
X158100Y290420D02*
D03*
Y428040D02*
D03*
Y558040D02*
D03*
X165720D02*
D03*
Y542800D02*
D03*
X158100Y550420D02*
D03*
Y688040D02*
D03*
X165720D02*
D03*
X327010Y238350D02*
D03*
Y230730D02*
D03*
X318120Y238350D02*
D03*
Y230730D02*
D03*
X309230Y238350D02*
D03*
Y230730D02*
D03*
X327010Y368350D02*
D03*
Y360730D02*
D03*
X318120Y368350D02*
D03*
Y360730D02*
D03*
X309230Y368350D02*
D03*
Y360730D02*
D03*
X165720Y686840D02*
D03*
Y802800D02*
D03*
X302880Y711360D02*
D03*
X340980Y762160D02*
D03*
X328280Y807880D02*
D03*
X160640Y797720D02*
D03*
X300340Y805340D02*
D03*
X160640Y734220D02*
D03*
X340980Y749460D02*
D03*
X361300Y729140D02*
D03*
X353680Y724060D02*
D03*
X354204Y787560D02*
D03*
X262240Y823120D02*
D03*
X300340Y734220D02*
D03*
X327010Y758350D02*
D03*
Y750730D02*
D03*
X318120Y758350D02*
D03*
Y750730D02*
D03*
X309230Y758350D02*
D03*
Y750730D02*
D03*
X327010Y628350D02*
D03*
Y620730D02*
D03*
X318120Y628350D02*
D03*
Y620730D02*
D03*
X309230Y628350D02*
D03*
Y620730D02*
D03*
X327010Y498350D02*
D03*
Y490730D02*
D03*
X318120Y498350D02*
D03*
Y490730D02*
D03*
X309230Y498350D02*
D03*
Y490730D02*
D03*
X327010Y108350D02*
D03*
Y100730D02*
D03*
X318120Y108350D02*
D03*
Y100730D02*
D03*
X309230Y108350D02*
D03*
Y100730D02*
D03*
M02*
