G04*
G04 #@! TF.GenerationSoftware,Altium Limited,Altium Designer,24.9.1 (31)*
G04*
G04 Layer_Color=8421504*
%FSLAX44Y44*%
%MOMM*%
G71*
G04*
G04 #@! TF.SameCoordinates,E8F54852-4FAE-476C-9330-F2E97CA3312C*
G04*
G04*
G04 #@! TF.FilePolarity,Positive*
G04*
G01*
G75*
%ADD16R,0.7000X0.9000*%
%ADD17R,0.7000X0.7000*%
%ADD18R,1.5500X1.5500*%
%ADD19R,0.8000X1.0000*%
%ADD20R,0.9652X1.0668*%
%ADD21R,0.8000X0.6000*%
%ADD22R,1.0668X0.9652*%
%ADD23R,0.8128X0.8128*%
%ADD24R,0.9000X0.7000*%
%ADD25R,1.2000X1.2000*%
%ADD26R,0.4000X0.8000*%
%ADD27R,0.8000X0.4000*%
%ADD28R,0.8000X0.8000*%
%ADD29R,0.7000X1.0000*%
%ADD30R,0.9581X0.9121*%
%ADD31R,0.9121X0.9581*%
%ADD32R,2.7000X1.3000*%
%ADD33R,0.9582X1.0065*%
%ADD34R,0.9000X0.8000*%
G04:AMPARAMS|DCode=35|XSize=1.2565mm|YSize=0.3125mm|CornerRadius=0.1562mm|HoleSize=0mm|Usage=FLASHONLY|Rotation=270.000|XOffset=0mm|YOffset=0mm|HoleType=Round|Shape=RoundedRectangle|*
%AMROUNDEDRECTD35*
21,1,1.2565,0.0000,0,0,270.0*
21,1,0.9440,0.3125,0,0,270.0*
1,1,0.3125,0.0000,-0.4720*
1,1,0.3125,0.0000,0.4720*
1,1,0.3125,0.0000,0.4720*
1,1,0.3125,0.0000,-0.4720*
%
%ADD35ROUNDEDRECTD35*%
%ADD36R,0.3125X1.2565*%
%ADD37R,1.7000X4.6500*%
%ADD38R,1.0000X0.6000*%
%ADD39R,1.8000X1.2500*%
%ADD40R,4.4000X1.9000*%
%ADD41R,1.0000X0.9000*%
%ADD42R,4.5000X3.0000*%
%ADD43R,1.3000X2.7000*%
%ADD44R,1.2500X2.5000*%
%ADD45R,1.2000X0.6000*%
%ADD46R,1.1400X0.6000*%
%ADD47R,1.1400X0.3000*%
%ADD48R,0.7154X0.6725*%
%ADD49R,1.5240X1.6764*%
%ADD50R,1.5000X3.6000*%
G04:AMPARAMS|DCode=51|XSize=1.2544mm|YSize=0.5321mm|CornerRadius=0.2661mm|HoleSize=0mm|Usage=FLASHONLY|Rotation=0.000|XOffset=0mm|YOffset=0mm|HoleType=Round|Shape=RoundedRectangle|*
%AMROUNDEDRECTD51*
21,1,1.2544,0.0000,0,0,0.0*
21,1,0.7223,0.5321,0,0,0.0*
1,1,0.5321,0.3611,0.0000*
1,1,0.5321,-0.3611,0.0000*
1,1,0.5321,-0.3611,0.0000*
1,1,0.5321,0.3611,0.0000*
%
%ADD51ROUNDEDRECTD51*%
%ADD52R,1.2544X0.5321*%
%ADD53R,1.1000X2.0500*%
%ADD54R,1.3500X2.8000*%
%ADD55R,0.9000X1.0500*%
%ADD56R,1.3500X1.4500*%
G04:AMPARAMS|DCode=57|XSize=0.25mm|YSize=0.9mm|CornerRadius=0.0625mm|HoleSize=0mm|Usage=FLASHONLY|Rotation=270.000|XOffset=0mm|YOffset=0mm|HoleType=Round|Shape=RoundedRectangle|*
%AMROUNDEDRECTD57*
21,1,0.2500,0.7750,0,0,270.0*
21,1,0.1250,0.9000,0,0,270.0*
1,1,0.1250,-0.3875,-0.0625*
1,1,0.1250,-0.3875,0.0625*
1,1,0.1250,0.3875,0.0625*
1,1,0.1250,0.3875,-0.0625*
%
%ADD57ROUNDEDRECTD57*%
%ADD58R,1.4900X2.5000*%
%ADD59R,1.0500X0.9000*%
%ADD60R,0.9621X0.9350*%
%ADD61R,2.1000X4.0000*%
%ADD62R,3.4290X2.4130*%
%ADD63R,3.5000X4.8000*%
%ADD64R,1.3500X1.3000*%
%ADD65R,0.9682X1.0065*%
%ADD66R,1.4500X1.3500*%
G04:AMPARAMS|DCode=67|XSize=0.25mm|YSize=0.9mm|CornerRadius=0.0625mm|HoleSize=0mm|Usage=FLASHONLY|Rotation=180.000|XOffset=0mm|YOffset=0mm|HoleType=Round|Shape=RoundedRectangle|*
%AMROUNDEDRECTD67*
21,1,0.2500,0.7750,0,0,180.0*
21,1,0.1250,0.9000,0,0,180.0*
1,1,0.1250,-0.0625,0.3875*
1,1,0.1250,0.0625,0.3875*
1,1,0.1250,0.0625,-0.3875*
1,1,0.1250,-0.0625,-0.3875*
%
%ADD67ROUNDEDRECTD67*%
%ADD68R,2.5000X1.4900*%
%ADD69R,0.9350X0.9621*%
%ADD70R,4.0000X2.1000*%
%ADD71R,2.4130X3.4290*%
%ADD72R,4.8000X3.5000*%
%ADD73R,1.3000X1.3500*%
%ADD74R,1.0065X0.9682*%
G36*
X564800Y733120D02*
X552800D01*
Y739120D01*
X558800Y745120D01*
X564800D01*
Y733120D01*
D02*
G37*
D16*
X346680Y657560D02*
D03*
X360680D02*
D03*
X407020Y596900D02*
D03*
X421020D02*
D03*
X407020Y584200D02*
D03*
X421020D02*
D03*
X797000Y740000D02*
D03*
X783000D02*
D03*
X673720Y609600D02*
D03*
X687720D02*
D03*
X556880Y607060D02*
D03*
X570880D02*
D03*
X586120Y619760D02*
D03*
X572120D02*
D03*
X513700Y607060D02*
D03*
X527700D02*
D03*
X540400Y594360D02*
D03*
X526400D02*
D03*
X473060Y584200D02*
D03*
X487060D02*
D03*
X502300Y596900D02*
D03*
X488300D02*
D03*
X339740Y58420D02*
D03*
X325740D02*
D03*
X367680D02*
D03*
X353680D02*
D03*
X337200Y189230D02*
D03*
X323200D02*
D03*
X367680D02*
D03*
X353680D02*
D03*
X337200Y318770D02*
D03*
X323200D02*
D03*
X370220D02*
D03*
X356220D02*
D03*
X339740Y448310D02*
D03*
X325740D02*
D03*
X370220D02*
D03*
X356220D02*
D03*
X339740Y577850D02*
D03*
X325740D02*
D03*
X367680D02*
D03*
X353680D02*
D03*
X337200Y708660D02*
D03*
X323200D02*
D03*
X367680D02*
D03*
X353680D02*
D03*
X360680Y267560D02*
D03*
X346680D02*
D03*
X346680Y280260D02*
D03*
X360680D02*
D03*
X349220Y229460D02*
D03*
X363220D02*
D03*
X346680Y254860D02*
D03*
X360680D02*
D03*
X360680Y397560D02*
D03*
X346680D02*
D03*
X346680Y410260D02*
D03*
X360680D02*
D03*
X349220Y359460D02*
D03*
X363220D02*
D03*
X346680Y384860D02*
D03*
X360680D02*
D03*
X349220Y619460D02*
D03*
X363220D02*
D03*
X346680Y644860D02*
D03*
X360680D02*
D03*
X349220Y489460D02*
D03*
X363220D02*
D03*
X346680Y514860D02*
D03*
X360680D02*
D03*
X349220Y749460D02*
D03*
X363220D02*
D03*
X346680Y774860D02*
D03*
X360680D02*
D03*
X360680Y787560D02*
D03*
X346680D02*
D03*
X346680Y670260D02*
D03*
X360680D02*
D03*
X360680Y527560D02*
D03*
X346680D02*
D03*
X346680Y540260D02*
D03*
X360680D02*
D03*
X346680Y800260D02*
D03*
X360680D02*
D03*
X346680Y150260D02*
D03*
X360680D02*
D03*
X360680Y137560D02*
D03*
X346680D02*
D03*
X349220Y99460D02*
D03*
X363220D02*
D03*
X346680Y124860D02*
D03*
X360680D02*
D03*
D17*
X658870Y28360D02*
D03*
X677170D02*
D03*
X658870Y17360D02*
D03*
X677170D02*
D03*
D18*
X780690Y383540D02*
D03*
X799190D02*
D03*
D19*
X685680Y320040D02*
D03*
X670680D02*
D03*
X688220Y624840D02*
D03*
X673220D02*
D03*
X449460Y584200D02*
D03*
X434460D02*
D03*
X449460Y596900D02*
D03*
X434460D02*
D03*
X717500Y625000D02*
D03*
X702500D02*
D03*
X717500Y610000D02*
D03*
X702500D02*
D03*
X478910Y539750D02*
D03*
X493910D02*
D03*
X478910Y554990D02*
D03*
X493910D02*
D03*
X724020Y767080D02*
D03*
X739020D02*
D03*
X406520Y784860D02*
D03*
X421520D02*
D03*
X406520Y769620D02*
D03*
X421520D02*
D03*
D20*
X739800Y617380D02*
D03*
X758952D02*
D03*
X749300Y638556D02*
D03*
D21*
X88900Y554840D02*
D03*
Y567840D02*
D03*
X700000Y576500D02*
D03*
Y563500D02*
D03*
X730000Y576500D02*
D03*
Y563500D02*
D03*
X701040Y359260D02*
D03*
Y372260D02*
D03*
D22*
X690000Y395500D02*
D03*
Y414652D02*
D03*
X668824Y405000D02*
D03*
D23*
X465970Y539750D02*
D03*
X450850D02*
D03*
X465970Y553720D02*
D03*
X450850D02*
D03*
D24*
X604520Y616600D02*
D03*
Y602600D02*
D03*
X622300Y616600D02*
D03*
Y602600D02*
D03*
X459740Y642000D02*
D03*
Y628000D02*
D03*
X447040Y615300D02*
D03*
Y629300D02*
D03*
Y677560D02*
D03*
Y663560D02*
D03*
X459740Y650860D02*
D03*
Y664860D02*
D03*
X460000Y717000D02*
D03*
Y703000D02*
D03*
X447040Y688960D02*
D03*
Y702960D02*
D03*
X414020Y748680D02*
D03*
Y734680D02*
D03*
X434340Y719440D02*
D03*
Y733440D02*
D03*
X671830Y227980D02*
D03*
Y213980D02*
D03*
X542290Y227980D02*
D03*
Y213980D02*
D03*
X671830Y262270D02*
D03*
Y248270D02*
D03*
X542290Y258460D02*
D03*
Y244460D02*
D03*
X462440Y250200D02*
D03*
Y236200D02*
D03*
X449740Y236200D02*
D03*
Y250200D02*
D03*
X500540Y238740D02*
D03*
Y252740D02*
D03*
X475140Y236200D02*
D03*
Y250200D02*
D03*
X592440Y250680D02*
D03*
Y236680D02*
D03*
X579740Y236680D02*
D03*
Y250680D02*
D03*
X630540Y239220D02*
D03*
Y253220D02*
D03*
X605140Y236680D02*
D03*
Y250680D02*
D03*
D25*
X558800Y722620D02*
D03*
Y706120D02*
D03*
X575300D02*
D03*
X591800D02*
D03*
Y722620D02*
D03*
Y739120D02*
D03*
X575300D02*
D03*
Y722620D02*
D03*
D26*
X515800Y792620D02*
D03*
X524300D02*
D03*
X532800D02*
D03*
X541300D02*
D03*
X549800D02*
D03*
X558300D02*
D03*
X566800D02*
D03*
X575300D02*
D03*
X583800D02*
D03*
X592300D02*
D03*
X600800D02*
D03*
X609300D02*
D03*
X617800D02*
D03*
X626300D02*
D03*
X634800D02*
D03*
Y652620D02*
D03*
X626300D02*
D03*
X617800D02*
D03*
X609300D02*
D03*
X600800D02*
D03*
X592300D02*
D03*
X583800D02*
D03*
X575300D02*
D03*
X566800D02*
D03*
X558300D02*
D03*
X549800D02*
D03*
X541300D02*
D03*
X532800D02*
D03*
X524300D02*
D03*
X515800D02*
D03*
D27*
X645300Y782120D02*
D03*
Y773620D02*
D03*
Y765120D02*
D03*
Y756620D02*
D03*
Y748120D02*
D03*
Y739620D02*
D03*
Y731120D02*
D03*
Y722620D02*
D03*
Y714120D02*
D03*
Y705620D02*
D03*
Y697120D02*
D03*
Y688620D02*
D03*
Y680120D02*
D03*
Y671620D02*
D03*
Y663120D02*
D03*
X505300D02*
D03*
Y671620D02*
D03*
Y680120D02*
D03*
Y688620D02*
D03*
Y697120D02*
D03*
Y705620D02*
D03*
Y714120D02*
D03*
Y722620D02*
D03*
Y731120D02*
D03*
Y739620D02*
D03*
Y748120D02*
D03*
Y756620D02*
D03*
Y765120D02*
D03*
Y773620D02*
D03*
Y782120D02*
D03*
D28*
X645300Y652620D02*
D03*
Y792620D02*
D03*
X505300Y652620D02*
D03*
Y792620D02*
D03*
D29*
X705570Y789460D02*
D03*
Y729460D02*
D03*
X668570Y789460D02*
D03*
Y729460D02*
D03*
X705570Y714530D02*
D03*
Y654530D02*
D03*
X668570Y714530D02*
D03*
Y654530D02*
D03*
D30*
X725520Y748030D02*
D03*
X740060D02*
D03*
X762350Y261620D02*
D03*
X776890D02*
D03*
X736250Y386080D02*
D03*
X721710D02*
D03*
X667730Y590000D02*
D03*
X682270D02*
D03*
X523750Y200020D02*
D03*
X538290D02*
D03*
X653750Y200500D02*
D03*
X668290D02*
D03*
D31*
X469900Y767430D02*
D03*
Y781970D02*
D03*
X594360Y569310D02*
D03*
Y583850D02*
D03*
X485140Y767430D02*
D03*
Y781970D02*
D03*
X310500Y321710D02*
D03*
Y336250D02*
D03*
X736600Y294290D02*
D03*
Y279750D02*
D03*
X310500Y206250D02*
D03*
Y191710D02*
D03*
Y726250D02*
D03*
Y711710D02*
D03*
Y596250D02*
D03*
Y581710D02*
D03*
Y466250D02*
D03*
Y451710D02*
D03*
X310500Y76250D02*
D03*
Y61710D02*
D03*
D32*
X449580Y788700D02*
D03*
Y760700D02*
D03*
X755000Y579000D02*
D03*
Y551000D02*
D03*
X580000Y534000D02*
D03*
Y506000D02*
D03*
D33*
X715000Y577259D02*
D03*
Y562741D02*
D03*
D34*
X755260Y246380D02*
D03*
X738260D02*
D03*
X783980D02*
D03*
X800980D02*
D03*
D35*
X774540Y281751D02*
D03*
X769540D02*
D03*
X764540D02*
D03*
X759540D02*
D03*
X754540D02*
D03*
Y322769D02*
D03*
X759540D02*
D03*
X764540D02*
D03*
X769540D02*
D03*
D36*
X774540D02*
D03*
D37*
X800750Y210000D02*
D03*
X739250D02*
D03*
D38*
X69340Y589880D02*
D03*
Y604880D02*
D03*
Y619880D02*
D03*
Y634880D02*
D03*
Y649880D02*
D03*
Y664880D02*
D03*
X745270Y367640D02*
D03*
Y358140D02*
D03*
Y348640D02*
D03*
X717770D02*
D03*
Y358140D02*
D03*
Y367640D02*
D03*
X70400Y352500D02*
D03*
Y367500D02*
D03*
Y382500D02*
D03*
Y397500D02*
D03*
Y412500D02*
D03*
Y427500D02*
D03*
Y442500D02*
D03*
Y457500D02*
D03*
Y472500D02*
D03*
Y487500D02*
D03*
D39*
X17440Y690930D02*
D03*
Y563830D02*
D03*
X18500Y513550D02*
D03*
Y326450D02*
D03*
D40*
X449260Y360680D02*
D03*
X536260D02*
D03*
X449260Y472440D02*
D03*
X536260D02*
D03*
D41*
X701040Y333860D02*
D03*
Y346860D02*
D03*
D42*
X769620Y414820D02*
D03*
Y514820D02*
D03*
D43*
X773400Y353060D02*
D03*
X801400D02*
D03*
D44*
X663720Y485140D02*
D03*
X697720D02*
D03*
X515620Y551180D02*
D03*
X549620D02*
D03*
D45*
X760800Y697840D02*
D03*
Y688340D02*
D03*
Y678840D02*
D03*
X737800D02*
D03*
Y688340D02*
D03*
Y697840D02*
D03*
D46*
X788160Y646180D02*
D03*
Y654180D02*
D03*
Y702180D02*
D03*
Y710180D02*
D03*
D47*
Y660680D02*
D03*
Y665680D02*
D03*
Y670680D02*
D03*
Y675680D02*
D03*
Y680680D02*
D03*
Y685680D02*
D03*
Y690680D02*
D03*
Y695680D02*
D03*
D48*
X761706Y711200D02*
D03*
X752134D02*
D03*
X761706Y657860D02*
D03*
X752134D02*
D03*
D49*
X826516Y600710D02*
D03*
X788924D02*
D03*
X787654Y566420D02*
D03*
X825246D02*
D03*
D50*
X642630Y552450D02*
D03*
X612130D02*
D03*
D51*
X685503Y574500D02*
D03*
Y565000D02*
D03*
Y555500D02*
D03*
X664497D02*
D03*
Y565000D02*
D03*
D52*
Y574500D02*
D03*
D53*
X664220Y452120D02*
D03*
X697220D02*
D03*
D54*
X664720Y518160D02*
D03*
X696720D02*
D03*
D55*
X345690Y594060D02*
D03*
X331190D02*
D03*
X345690Y464060D02*
D03*
X331190D02*
D03*
X345690Y334060D02*
D03*
X331190D02*
D03*
X345690Y204060D02*
D03*
X331190D02*
D03*
X345690Y74060D02*
D03*
X331190D02*
D03*
X345690Y724060D02*
D03*
X331190D02*
D03*
D56*
X309870Y665180D02*
D03*
X326370D02*
D03*
X309870Y535180D02*
D03*
X326370D02*
D03*
X309870Y405180D02*
D03*
X326370D02*
D03*
X309870Y275180D02*
D03*
X326370D02*
D03*
X309870Y145180D02*
D03*
X326370D02*
D03*
X191750Y290420D02*
D03*
X175250D02*
D03*
X191750Y420420D02*
D03*
X175250D02*
D03*
X191750Y810420D02*
D03*
X175250D02*
D03*
X309870Y795180D02*
D03*
X326370D02*
D03*
X191750Y680420D02*
D03*
X175250D02*
D03*
X191750Y550420D02*
D03*
X175250D02*
D03*
X191750Y160420D02*
D03*
X175250D02*
D03*
D57*
X509410Y195140D02*
D03*
Y200140D02*
D03*
Y205140D02*
D03*
Y210140D02*
D03*
Y215140D02*
D03*
Y220140D02*
D03*
X481510Y195140D02*
D03*
Y200140D02*
D03*
Y205140D02*
D03*
Y210140D02*
D03*
Y215140D02*
D03*
Y220140D02*
D03*
X639410Y195620D02*
D03*
Y200620D02*
D03*
Y205620D02*
D03*
Y210620D02*
D03*
Y215620D02*
D03*
Y220620D02*
D03*
X611510Y195620D02*
D03*
Y200620D02*
D03*
Y205620D02*
D03*
Y210620D02*
D03*
Y215620D02*
D03*
Y220620D02*
D03*
D58*
X495460Y207640D02*
D03*
X625460Y208120D02*
D03*
D59*
X525940Y235210D02*
D03*
Y220710D02*
D03*
X655940Y235690D02*
D03*
Y221190D02*
D03*
D60*
X513240Y252894D02*
D03*
Y238586D02*
D03*
X643240Y253374D02*
D03*
Y239066D02*
D03*
D61*
X464460Y73020D02*
D03*
X526460D02*
D03*
X594460Y73500D02*
D03*
X656460D02*
D03*
D62*
X510700Y112390D02*
D03*
Y170810D02*
D03*
X640700Y112870D02*
D03*
Y171290D02*
D03*
D63*
X449250Y131500D02*
D03*
X579250Y131980D02*
D03*
D64*
X459900Y167000D02*
D03*
X438600D02*
D03*
X589900Y167480D02*
D03*
X568600D02*
D03*
D65*
X487840Y252999D02*
D03*
Y238481D02*
D03*
X617840Y253479D02*
D03*
Y238961D02*
D03*
D66*
X439580Y81270D02*
D03*
Y64770D02*
D03*
X454820Y199390D02*
D03*
Y215890D02*
D03*
X584820Y199870D02*
D03*
Y216370D02*
D03*
X569580Y81750D02*
D03*
Y65250D02*
D03*
D67*
X305620Y220590D02*
D03*
X310620D02*
D03*
X315620D02*
D03*
X320620D02*
D03*
X325620D02*
D03*
X330620D02*
D03*
X305620Y248490D02*
D03*
X310620D02*
D03*
X315620D02*
D03*
X320620D02*
D03*
X325620D02*
D03*
X330620D02*
D03*
X305620Y350590D02*
D03*
X310620D02*
D03*
X315620D02*
D03*
X320620D02*
D03*
X325620D02*
D03*
X330620D02*
D03*
X305620Y378490D02*
D03*
X310620D02*
D03*
X315620D02*
D03*
X320620D02*
D03*
X325620D02*
D03*
X330620D02*
D03*
X305620Y740590D02*
D03*
X310620D02*
D03*
X315620D02*
D03*
X320620D02*
D03*
X325620D02*
D03*
X330620D02*
D03*
X305620Y768490D02*
D03*
X310620D02*
D03*
X315620D02*
D03*
X320620D02*
D03*
X325620D02*
D03*
X330620D02*
D03*
X305620Y610590D02*
D03*
X310620D02*
D03*
X315620D02*
D03*
X320620D02*
D03*
X325620D02*
D03*
X330620D02*
D03*
X305620Y638490D02*
D03*
X310620D02*
D03*
X315620D02*
D03*
X320620D02*
D03*
X325620D02*
D03*
X330620D02*
D03*
X305620Y480590D02*
D03*
X310620D02*
D03*
X315620D02*
D03*
X320620D02*
D03*
X325620D02*
D03*
X330620D02*
D03*
X305620Y508490D02*
D03*
X310620D02*
D03*
X315620D02*
D03*
X320620D02*
D03*
X325620D02*
D03*
X330620D02*
D03*
X305620Y90590D02*
D03*
X310620D02*
D03*
X315620D02*
D03*
X320620D02*
D03*
X325620D02*
D03*
X330620D02*
D03*
X305620Y118490D02*
D03*
X310620D02*
D03*
X315620D02*
D03*
X320620D02*
D03*
X325620D02*
D03*
X330620D02*
D03*
D68*
X318120Y234540D02*
D03*
Y364540D02*
D03*
Y754540D02*
D03*
Y624540D02*
D03*
Y494540D02*
D03*
X318120Y104540D02*
D03*
D69*
X363374Y216760D02*
D03*
X349066D02*
D03*
X363374Y346760D02*
D03*
X349066D02*
D03*
X363374Y606760D02*
D03*
X349066D02*
D03*
X363374Y476760D02*
D03*
X349066D02*
D03*
X363374Y736760D02*
D03*
X349066D02*
D03*
X363374Y86760D02*
D03*
X349066D02*
D03*
D70*
X183500Y265540D02*
D03*
Y203540D02*
D03*
Y395540D02*
D03*
Y333540D02*
D03*
Y655540D02*
D03*
Y593540D02*
D03*
Y525540D02*
D03*
Y463540D02*
D03*
Y785540D02*
D03*
Y723540D02*
D03*
X183500Y135540D02*
D03*
Y73540D02*
D03*
D71*
X222870Y219300D02*
D03*
X281290D02*
D03*
X222870Y349300D02*
D03*
X281290D02*
D03*
X222870Y609300D02*
D03*
X281290D02*
D03*
X222870Y739300D02*
D03*
X281290D02*
D03*
X222870Y479300D02*
D03*
X281290D02*
D03*
X222870Y89300D02*
D03*
X281290D02*
D03*
D72*
X241980Y280750D02*
D03*
Y410750D02*
D03*
Y670750D02*
D03*
Y540750D02*
D03*
Y800750D02*
D03*
X241980Y150750D02*
D03*
D73*
X277480Y270100D02*
D03*
Y291400D02*
D03*
Y400100D02*
D03*
Y421400D02*
D03*
Y660100D02*
D03*
Y681400D02*
D03*
Y530100D02*
D03*
Y551400D02*
D03*
Y790100D02*
D03*
Y811400D02*
D03*
X277480Y140100D02*
D03*
Y161400D02*
D03*
D74*
X363479Y242160D02*
D03*
X348961D02*
D03*
X363479Y372160D02*
D03*
X348961D02*
D03*
X363479Y762160D02*
D03*
X348961D02*
D03*
X363479Y632160D02*
D03*
X348961D02*
D03*
X363479Y502160D02*
D03*
X348961D02*
D03*
X363479Y112160D02*
D03*
X348961D02*
D03*
M02*
