**ABCDEFGHIJKLMNOPQRSTUVWXYZabcdefghijklmnopqrstuvwxyz**************************
**PARASOLID !"#$%&'()*+,-./:;<=>?@[\]^_`{|}~0123456789**************************
**PART1;
MC=AMD64;
MC_MODEL=Intel64 Family 6 Model 170 Stepping 4, GenuineIntel;
MC_ID=unknown;
OS=Windows_NT;
OS_RELEASE=unknown;
FRU=CAD Exchanger 3.23.0 (cadexchanger.com);
APPL=unknown;
SITE=unknown;
USER=unknown;
FORMAT=text;
GUISE=transmit;
KEY=L1RX-RYL1000000000-Footprint-1_CMP-007-00052-3;
FILE=L1RX-RYL1000000000-Footprint-1_CMP-007-00052-3.x_t;
DATE=Tue Oct 14 16:46:34 2025;
**PART2;
SCH=SCH_1200000_12103;
USFLD_SIZE=0;
**PART3;
**END_OF_HEADER*****************************************************************
T51 : TRANSMIT FILE created by modeller version 120000017 SCH_1200000_121030 12
 1 391 0 2 0 0 0 0 1000.0 1.0e-08 0 0 0 1 0 1 1 11 13 19 17 8 18 16 70 2 0 1 0 0
 4 1 20 0 3 3 1 T74 20 3 1 0 4 0 0 0 0 0 0 0 0 0 0 0 0 0 0 0 0 0 0 0 81 1 4 7 5
 12 0 0 66 0 7 80 1 5 0 6 8001 0 0 0 0 3 5 0 0 0 FFFFTFTFFFFFFF2 79 15 6 SDL/TYS
A_COLOUR83 3 7 1.0 1.0 1.0 19 8 1 0 1 10 0 9 V13 9 2 0 1 0 0 0 0 8 12 19 10 3 0
 1 0 8 11 S13 11 4 0 1 0 12 0 0 10 0 14 12 5 4 1.0e-08 64 0 14 11 13 -0 0 64 0 9
 50 13 6 0 12 65 0 0 +8.128000001024571e-08 8.127999999967473e-08 8.0069944e-04
 0.0 0.0 -1.0 2.449293598294707e-16 1.0 0.0 15 14 8 0 15 12 39 17 15 0 14 23 35
 16 20 18 0 28 -18 16 9 0 15 0 21 17 ?1 29 17 10 0 16 22 0 7.000812799999997e-04
 7.000812799999997e-04 8.0069944e-04 16 18 11 0 ?20 0 26 19 0 0 1 30 19 12 0 18
 27 0 0 +7.000812799999993e-04 -6.999187200000002e-04 8.0069944e-04 -2.449293598
294707e-16 -1.0 0.0 17 20 0 109 110 100 21 15 18 0 35 +18 21 13 0 20 16 24 22 ?1
 29 22 14 0 21 25 17 7.000812799999993e-04 -6.999187200000002e-04 8.0069944e-04
 17 23 0 14 29 15 24 28 26 0 34 -18 24 15 0 23 21 30 25 ?1 29 25 16 0 24 31 22 -
6.999187200000002e-04 7.000812800000001e-04 8.0069944e-04 16 26 17 0 ?28 18 32 2
7 0 0 1 30 27 18 0 26 33 19 0 +7.000812799999997e-04 7.000812799999997e-04 8.006
9944e-04 1.0 -2.449293598294707e-16 0.0 17 28 0 94 95 85 16 23 26 0 100 +17 29 0
 14 35 23 30 34 32 0 38 -18 30 19 0 29 24 41 31 ?1 29 31 20 0 30 42 25 -6.999187
200000007e-04 -6.999187199999997e-04 8.0069944e-04 16 32 21 0 ?34 26 36 33 0 0 1
 30 33 22 0 32 37 27 0 +-6.999187200000002e-04 7.000812800000001e-04 8.0069944e-
04 2.449293598294707e-16 1.0 0.0 17 34 0 73 80 74 24 29 32 0 85 +17 35 0 14 15 2
9 21 38 36 0 115 -16 36 23 0 ?38 32 43 37 0 0 1 30 37 24 0 36 44 33 0 +-6.999187
200000007e-04 -6.999187199999997e-04 8.0069944e-04 -1.0 2.449293598294707e-16 0.
0 17 38 0 124 77 115 30 35 36 0 74 +15 39 25 0 40 12 0 17 40 0 39 48 60 41 45 43
 0 53 -18 41 26 0 40 30 46 42 ?1 29 42 27 0 41 47 31 5.300812800000101e-04 -5.29
9187200000051e-04 8.0069944e-04 16 43 28 0 ?45 36 51 44 0 0 1 30 44 29 0 43 52 3
7 0 +5.300812800000102e-04 8.127999999954493e-08 8.0069944e-04 2.449293598294707
e-16 1.0 0.0 17 45 0 68 63 53 46 40 43 0 60 +18 46 30 0 45 41 49 47 ?1 29 47 31
 0 46 50 42 5.300812800000103e-04 5.300812799999996e-04 8.0069944e-04 17 48 0 39
 54 40 49 53 51 0 59 -18 49 32 0 48 46 55 50 ?1 29 50 33 0 49 56 47 -5.299187199
999898e-04 -5.299187200000002e-04 8.0069944e-04 16 51 34 0 ?53 43 57 52 0 0 1 30
 52 35 0 51 58 44 0 +8.128000000778487e-08 -5.299187200000026e-04 8.0069944e-04
 1.0 -4.64310798406312e-15 0.0 17 53 0 68 45 59 41 48 51 0 0 +17 54 0 39 60 48 5
5 59 57 0 63 -18 55 36 0 54 49 78 56 ?1 29 56 37 0 55 79 50 -5.299187199999897e-
04 5.300812799999998e-04 8.0069944e-04 16 57 38 0 ?59 51 61 58 0 0 1 30 58 39 0
 57 62 52 0 +-5.299187199999897e-04 8.127999999980455e-08 8.0069944e-04 -2.44929
3598294707e-16 -1.0 0.0 17 59 0 68 53 63 49 54 57 0 0 +17 60 0 39 40 54 46 63 61
 0 0 -16 61 40 0 ?63 57 75 62 0 0 1 30 62 41 0 61 76 58 0 +8.128000001037552e-08
 5.300812799999997e-04 8.0069944e-04 -1.0 2.449293598294707e-16 0.0 17 63 0 68 5
9 45 55 60 61 0 0 +14 64 42 66 1.0e-08 69 12 68 11 65 -0 0 69 12 9 50 65 43 0 64
 70 13 0 +8.128000001024571e-08 8.127999999967473e-08 8.0069944e-04 0.0 0.0 -1.0
 2.449293598294707e-16 1.0 0.0 81 1 66 44 5 64 0 0 71 4 67 83 3 67 1.0 1.0 1.0 1
5 68 45 0 53 64 0 14 69 46 71 1.0e-08 90 64 73 11 70 -0 0 90 64 9 50 70 47 0 69
 91 65 0 +-6.999187200000002e-04 7.000812800000001e-04 0.002780598427322 1.0 -2.
449293598294707e-16 0.0 0.0 0.0 -1.0 81 1 71 48 5 69 0 0 92 66 72 83 3 72 1.0 1.
0 1.0 15 73 49 0 74 69 0 17 74 0 73 34 86 30 77 75 0 0 -16 75 50 0 ?77 61 83 76
 0 0 1 30 76 51 0 75 84 62 0 +-6.999187200000007e-04 -6.999187199999997e-04 0.00
2780598427322 0.0 0.0 -1.0 17 77 0 124 125 38 78 74 75 0 128 +18 78 52 0 295 55
 81 79 ?1 29 79 53 0 78 82 56 -6.999187200000007e-04 -6.999187199999997e-04 4.56
1994399999999e-04 17 80 0 73 86 34 81 85 83 0 89 +18 81 54 0 286 78 96 82 ?1 29
 82 55 0 81 97 79 -6.999187200000002e-04 7.000812800000001e-04 4.561994399999999
e-04 16 83 56 0 ?80 75 87 84 0 0 1 30 84 57 0 83 88 76 0 +-6.999187200000002e-04
 7.000812800000001e-04 0.002780598427322 0.0 0.0 -1.0 17 85 0 94 28 101 24 80 83
 0 0 -17 86 0 73 74 80 78 89 87 0 77 +16 87 58 0 ?86 83 98 88 0 0 1 30 88 59 0 8
7 99 84 0 +-6.999187200000007e-04 -6.999187199999997e-04 4.561994399999999e-04 -
2.449293598294707e-16 -1.0 0.0 17 89 0 294 289 295 81 86 87 0 101 -14 90 60 92 1
.0e-08 105 69 94 11 91 -0 0 105 69 9 50 91 61 0 90 106 70 0 +7.000812799999997e-
04 7.000812799999997e-04 0.002780598427322 -2.449293598294707e-16 -1.0 0.0 0.0 0
.0 -1.0 81 1 92 62 5 90 0 0 107 71 93 83 3 93 1.0 1.0 1.0 15 94 63 0 85 90 0 17
 95 0 94 101 28 96 100 98 0 104 +18 96 64 0 116 81 111 97 ?1 29 97 65 0 96 112 8
2 7.000812799999997e-04 7.000812799999997e-04 4.561994399999999e-04 16 98 66 0 ?
95 87 102 99 0 0 1 30 99 67 0 98 103 88 0 +7.000812799999997e-04 7.0008127999999
97e-04 0.002780598427322 0.0 0.0 -1.0 17 100 0 109 20 116 16 95 98 0 0 -17 101 0
 94 85 95 81 104 102 0 0 +16 102 68 0 ?101 98 113 103 0 0 1 30 103 69 0 102 114
 99 0 +-6.999187200000002e-04 7.000812800000001e-04 4.561994399999999e-04 -1.0 2
.449293598294707e-16 0.0 17 104 0 285 276 286 96 101 102 0 273 -14 105 70 107 1.
0e-08 120 90 109 11 106 -0 0 120 90 9 50 106 71 0 105 121 91 0 +7.00081279999999
3e-04 -6.999187200000002e-04 0.002780598427322 -1.0 2.449293598294707e-16 0.0 0.
0 0.0 1.0 81 1 107 72 5 105 0 0 122 92 108 83 3 108 1.0 1.0 1.0 15 109 73 0 100
 105 0 17 110 0 109 116 20 111 115 113 0 0 +18 111 74 0 280 96 135 112 ?1 29 112
 75 0 111 136 97 7.000812799999993e-04 -6.999187200000002e-04 4.561994399999999e
-04 16 113 76 0 ?110 102 117 114 0 0 1 30 114 77 0 113 118 103 0 +7.000812799999
993e-04 -6.999187200000002e-04 0.002780598427322 0.0 0.0 -1.0 17 115 0 124 38 12
5 21 110 113 0 0 -17 116 0 109 100 110 96 119 117 0 95 +16 117 78 0 ?116 113 126
 118 0 0 1 30 118 79 0 117 127 114 0 +7.000812799999993e-04 -6.999187200000002e-
04 4.561994399999999e-04 2.449293598294707e-16 1.0 0.0 17 119 0 272 277 273 111
 116 117 0 125 -14 120 80 122 1.0e-08 129 105 124 11 121 -0 0 129 105 9 50 121 8
1 0 120 130 106 0 +-6.999187200000007e-04 -6.999187199999998e-04 0.0027805984273
22 2.449293598294707e-16 1.0 0.0 0.0 0.0 1.0 81 1 122 82 5 120 0 0 131 107 123 8
3 3 123 1.0 1.0 1.0 15 124 83 0 115 120 0 17 125 0 124 115 77 111 128 126 0 110
 +16 126 84 0 ?125 117 137 127 0 0 1 30 127 85 0 126 138 118 0 +-6.9991872000000
07e-04 -6.999187199999997e-04 4.561994399999999e-04 1.0 -2.449293598294707e-16 0
.0 17 128 0 303 298 280 78 125 126 0 0 -14 129 86 131 1.0e-08 268 120 133 11 130
 +0 0 268 120 9 50 130 87 0 129 269 121 0 +8.128e-08 8.128e-08 7.519943999999989
e-05 0.0 0.0 -1.0 -1.0 2.449293598294707e-16 0.0 81 1 131 88 5 129 0 0 270 122 1
32 83 3 132 1.0 1.0 1.0 15 133 89 0 134 129 194 17 134 0 133 142 190 135 139 137
 0 147 -18 135 90 0 450 111 140 136 ?1 29 136 91 0 135 141 112 -1.24918719999999
5e-04 5.500812800000001e-04 7.519943999999989e-05 16 137 92 0 ?139 126 145 138 0
 0 1 30 138 93 0 137 146 127 0 +-1.249187200000054e-04 7.508127999998878e-05 7.5
19943999999989e-05 -1.25135328905862e-14 -1.0 0.0 17 139 0 449 444 450 140 134 1
37 0 0 +18 140 94 0 441 135 143 141 ?1 29 141 95 0 140 144 136 -1.24918720000005
4e-04 7.508127999998878e-05 7.519943999999989e-05 17 142 0 133 148 134 143 147 1
45 0 0 -18 143 96 0 377 140 149 144 ?1 29 144 97 0 143 150 141 -1.74918719999999
5e-04 6.000812800000001e-04 7.519943999999989e-05 16 145 98 0 ?147 137 151 146 0
 0 1 31 146 99 0 145 152 138 0 +-1.749187199999995e-04 5.500812800000001e-04 7.5
19943999999989e-05 0.0 0.0 -1.0 1.0 -2.449293598294707e-16 0.0 4.999999999999997
e-05 17 147 0 458 453 377 135 142 145 0 0 +17 148 0 133 154 142 149 153 151 0 0
 -18 149 100 0 159 143 155 150 ?1 29 150 101 0 149 156 144 -5.52221759929153e-04
 6.000812800000002e-04 7.519943999999989e-05 16 151 102 0 ?153 145 157 152 0 0 1
 30 152 103 0 151 158 146 0 +-1.749187199999995e-04 6.000812800000001e-04 7.5199
43999999989e-05 1.0 -2.449293598294707e-16 0.0 17 153 0 373 374 378 143 148 151
 0 142 +17 154 0 133 160 148 155 159 157 0 165 -18 155 104 0 154 149 161 156 ?1
 29 156 105 0 155 162 150 -5.999187200000003e-04 5.650812799999998e-04 7.5199439
99999989e-05 16 157 106 0 ?159 151 163 158 0 0 1 31 158 107 0 157 164 152 0 +-5.
52221759929153e-04 5.500812800000002e-04 7.519943999999989e-05 0.0 0.0 -1.0 1.0
 -2.449293598294707e-16 0.0 4.999999999999991e-05 17 159 0 386 381 387 149 154 1
57 0 378 +17 160 0 133 166 154 161 165 163 0 396 -18 161 108 0 160 155 167 162 ?
1 29 162 109 0 161 168 156 -5.999187200000009e-04 -5.649187199999995e-04 7.51994
3999999989e-05 16 163 110 0 ?165 157 169 164 0 0 1 30 164 111 0 163 170 158 0 +-
5.999187200000008e-04 -5.649187199999995e-04 7.519943999999989e-05 4.36823549649
914e-16 1.0 0.0 17 165 0 395 390 396 155 160 163 0 387 +17 166 0 133 172 160 167
 171 169 0 177 -18 167 112 0 405 161 173 168 ?1 29 168 113 0 167 174 162 -5.5222
17599291534e-04 -5.999187199999997e-04 7.519943999999989e-05 16 169 114 0 ?171 1
63 175 170 0 0 1 31 170 115 0 169 176 164 0 +-5.522217599291534e-04 -5.499187199
999995e-04 7.519943999999989e-05 0.0 0.0 -1.0 1.0 -2.449293598294707e-16 0.0 5.0
00000000000003e-05 17 171 0 404 399 405 161 166 169 0 0 +17 172 0 133 178 166 17
3 177 175 0 183 -18 173 116 0 414 167 179 174 ?1 29 174 117 0 173 180 168 -1.749
187199999998e-04 -5.999187199999998e-04 7.519943999999989e-05 16 175 118 0 ?177
 169 181 176 0 0 1 30 176 119 0 175 182 170 0 +-1.749187199999998e-04 -5.9991871
99999998e-04 7.519943999999989e-05 -1.0 2.449293598294707e-16 0.0 17 177 0 413 4
08 414 167 172 175 0 0 +17 178 0 133 184 172 179 183 181 0 0 -18 179 120 0 423 1
73 185 180 ?1 29 180 121 0 179 186 174 -1.249187199999997e-04 -5.499187199999998
e-04 7.519943999999989e-05 16 181 122 0 ?183 175 187 182 0 0 1 31 182 123 0 181
 188 176 0 +-1.749187199999998e-04 -5.499187199999998e-04 7.519943999999989e-05
 0.0 0.0 -1.0 -1.0 2.449293598294707e-16 0.0 5.000000000000003e-05 17 183 0 422
 417 423 173 178 181 0 0 +17 184 0 133 190 178 185 189 187 0 193 -18 185 124 0 4
32 179 196 186 ?1 29 186 125 0 185 197 180 -1.249187200000041e-04 -7.49187200000
1126e-05 7.519943999999989e-05 16 187 126 0 ?189 181 191 188 0 0 1 30 188 127 0
 187 192 182 0 +-1.249187199999997e-04 -5.499187199999998e-04 7.519943999999989e
-05 9.056384014651664e-15 -1.0 0.0 17 189 0 431 426 432 179 184 187 0 178 +17 19
0 0 133 134 184 140 193 191 0 139 -16 191 128 0 ?193 187 198 192 0 0 1 31 192 12
9 0 191 199 188 0 +-1.249187200000049e-04 8.12799999887549e-08 7.519943999999989
e-05 0.0 0.0 1.0 1.0 -2.449293598294707e-16 0.0 7.500000000000002e-05 17 193 0 4
40 435 441 185 190 191 0 0 +15 194 130 0 195 129 219 17 195 0 194 203 215 196 20
0 198 0 0 -18 196 131 0 277 185 201 197 ?1 29 197 132 0 196 202 186 7.0008127999
99993e-04 -6.999187200000002e-04 7.519943999999989e-05 16 198 133 0 ?200 191 206
 199 0 0 1 30 199 134 0 198 207 192 0 +7.000812799999993e-04 -6.999187200000002e
-04 7.519943999999989e-05 2.449293598294707e-16 1.0 0.0 17 200 0 272 273 277 201
 195 198 0 276 +18 201 135 0 215 196 204 202 ?1 29 202 136 0 201 205 197 7.00081
2799999997e-04 7.000812799999997e-04 7.519943999999989e-05 17 203 0 194 209 195
 204 208 206 0 214 -18 204 137 0 298 201 210 205 ?1 29 205 138 0 204 211 202 -6.
999187200000007e-04 -6.999187199999997e-04 7.519943999999989e-05 16 206 139 0 ?2
08 198 212 207 0 0 1 30 207 140 0 206 213 199 0 +-6.999187200000007e-04 -6.99918
7199999997e-04 7.519943999999989e-05 1.0 -2.449293598294707e-16 0.0 17 208 0 303
 280 298 196 203 206 0 195 +17 209 0 194 215 203 210 214 212 0 0 -18 210 141 0 2
89 204 221 211 ?1 29 211 142 0 210 222 205 -6.999187200000002e-04 7.000812800000
001e-04 7.519943999999989e-05 16 212 143 0 ?214 206 216 213 0 0 1 30 213 144 0 2
12 217 207 0 +-6.999187200000007e-04 -6.999187199999997e-04 7.519943999999989e-0
5 -2.449293598294707e-16 -1.0 0.0 17 214 0 294 295 289 204 209 212 0 0 +17 215 0
 194 195 209 201 218 216 0 200 -16 216 145 0 ?218 212 223 217 0 0 1 30 217 146 0
 216 224 213 0 +-6.999187200000002e-04 7.000812800000001e-04 7.519943999999989e-
05 -1.0 2.449293598294707e-16 0.0 17 218 0 285 286 276 210 215 216 0 209 +15 219
 147 0 220 129 0 17 220 0 219 228 264 221 225 223 0 233 -18 221 148 0 575 210 22
6 222 ?1 29 222 149 0 221 227 211 5.523843199291528e-04 -5.9991872e-04 7.5199439
99999989e-05 16 223 150 0 ?225 216 231 224 0 0 1 30 224 151 0 223 232 217 0 +5.5
23843199291528e-04 -5.9991872e-04 7.519943999999989e-05 -1.0 2.449293598294707e-
16 0.0 17 225 0 574 569 575 226 220 223 0 264 +18 226 152 0 566 221 229 227 ?1 2
9 227 153 0 226 230 222 1.750812800000003e-04 -5.999187199999999e-04 7.519943999
999989e-05 17 228 0 219 234 220 229 233 231 0 0 -18 229 154 0 520 226 235 230 ?1
 29 230 155 0 229 236 227 6.000812800000003e-04 -5.649187199999998e-04 7.5199439
99999989e-05 16 231 156 0 ?233 223 237 232 0 0 1 31 232 157 0 231 238 224 0 +5.5
2384319929153e-04 -5.499187199999999e-04 7.519943999999989e-05 0.0 0.0 -1.0 -1.0
 2.449293598294707e-16 0.0 5.000000000000003e-05 17 233 0 583 578 520 221 228 23
1 0 0 +17 234 0 219 240 228 235 239 237 0 245 -18 235 158 0 521 229 241 236 ?1 2
9 236 159 0 235 242 230 6.000812800000006e-04 5.650812799999994e-04 7.5199439999
99989e-05 16 237 160 0 ?239 231 243 238 0 0 1 30 238 161 0 237 244 232 0 +6.0008
12800000003e-04 -5.649187199999998e-04 7.519943999999989e-05 -2.449293598294707e
-16 -1.0 0.0 17 239 0 516 517 521 229 234 237 0 228 +17 240 0 219 246 234 241 24
5 243 0 0 -18 241 162 0 530 235 247 242 ?1 29 242 163 0 241 248 236 5.5238431992
91531e-04 6.000812799999998e-04 7.519943999999989e-05 16 243 164 0 ?245 237 249
 244 0 0 1 31 244 165 0 243 250 238 0 +5.523843199291532e-04 5.500812799999999e-
04 7.519943999999989e-05 0.0 0.0 -1.0 -1.0 2.449293598294707e-16 0.0 4.999999999
999991e-05 17 245 0 529 524 530 235 240 243 0 0 +17 246 0 219 252 240 247 251 24
9 0 257 -18 247 166 0 539 241 253 248 ?1 29 248 167 0 247 254 242 1.750812800000
005e-04 6.000812800000001e-04 7.519943999999989e-05 16 249 168 0 ?251 243 255 25
0 0 0 1 30 250 169 0 249 256 244 0 +5.523843199291531e-04 6.000812799999998e-04
 7.519943999999989e-05 1.0 -5.322851608028973e-16 0.0 17 251 0 538 533 539 241 2
46 249 0 240 +17 252 0 219 258 246 253 257 255 0 263 -18 253 170 0 548 247 259 2
54 ?1 29 254 171 0 253 260 248 1.250812800000005e-04 5.500812799999999e-04 7.519
943999999989e-05 16 255 172 0 ?257 249 261 256 0 0 1 31 256 173 0 255 262 250 0
 +1.750812800000005e-04 5.500812799999999e-04 7.519943999999989e-05 0.0 0.0 -1.0
 -1.0 2.449293598294707e-16 0.0 5.000000000000003e-05 17 257 0 547 542 548 247 2
52 255 0 0 +17 258 0 219 264 252 259 263 261 0 267 -18 259 174 0 557 253 310 260
 ?1 29 260 175 0 259 311 254 1.250812800000003e-04 -5.499187199999999e-04 7.5199
43999999989e-05 16 261 176 0 ?263 255 265 262 0 0 1 30 262 177 0 261 266 256 0 +
1.250812800000003e-04 -5.499187199999999e-04 7.519943999999989e-05 2.20288401363
891e-16 1.0 0.0 17 263 0 556 551 557 253 258 261 0 0 +17 264 0 219 220 258 226 2
67 265 0 0 -16 265 178 0 ?267 261 274 266 0 0 1 31 266 179 0 265 275 262 0 +1.75
0812800000003e-04 -5.499187199999999e-04 7.519943999999989e-05 0.0 0.0 -1.0 -1.0
 2.449293598294707e-16 0.0 5.000000000000003e-05 17 267 0 565 560 566 259 264 26
5 0 0 +14 268 180 270 1.0e-08 281 129 272 11 269 -0 0 281 129 9 50 269 181 0 268
 282 130 0 +7.000812799999993e-04 -6.999187200000002e-04 4.5619944e-04 -1.0 2.44
9293598294707e-16 0.0 0.0 0.0 1.0 81 1 270 182 5 268 0 0 283 131 271 83 3 271 1.
0 1.0 1.0 15 272 183 0 200 268 0 17 273 0 272 119 200 96 276 274 0 0 -16 274 184
 0 ?276 265 278 275 0 0 1 30 275 185 0 274 279 266 0 +7.000812799999997e-04 7.00
0812799999997e-04 4.561994399999999e-04 0.0 0.0 -1.0 17 276 0 285 218 104 201 27
3 274 0 0 +17 277 0 272 200 119 196 280 278 0 208 +16 278 186 0 ?277 274 287 279
 0 0 1 30 279 187 0 278 288 275 0 +7.000812799999993e-04 -6.999187200000002e-04
 4.561994399999999e-04 0.0 0.0 -1.0 17 280 0 303 128 208 111 277 278 0 119 -14 2
81 188 283 1.0e-08 290 268 285 11 282 -0 0 290 268 9 50 282 189 0 281 291 269 0
 +-6.999187200000002e-04 7.000812800000001e-04 4.5619944e-04 -2.449293598294707e
-16 -1.0 0.0 0.0 0.0 -1.0 81 1 283 190 5 281 0 0 292 270 284 83 3 284 1.0 1.0 1.
0 15 285 191 0 218 281 0 17 286 0 285 104 218 81 289 287 0 80 -16 287 192 0 ?289
 278 296 288 0 0 1 30 288 193 0 287 297 279 0 +-6.999187200000002e-04 7.00081280
0000001e-04 4.561994399999999e-04 0.0 0.0 -1.0 17 289 0 294 214 89 210 286 287 0
 218 +14 290 194 292 1.0e-08 299 281 294 11 291 -0 0 299 281 9 50 291 195 0 290
 300 282 0 +-6.999187200000007e-04 -6.999187199999998e-04 4.5619944e-04 1.0 -2.4
49293598294707e-16 0.0 0.0 0.0 -1.0 81 1 292 196 5 290 0 0 301 283 293 83 3 293
 1.0 1.0 1.0 15 294 197 0 214 290 0 17 295 0 294 89 214 78 298 296 0 86 -16 296
 198 0 ?298 287 312 297 0 0 1 30 297 199 0 296 313 288 0 +-6.999187200000007e-04
 -6.999187199999997e-04 4.561994399999999e-04 0.0 0.0 -1.0 17 298 0 303 208 128
 204 295 296 0 203 +14 299 200 301 1.0e-08 304 290 303 11 300 -0 0 304 290 9 50
 300 201 0 299 305 291 0 +-6.999187200000007e-04 -6.999187199999998e-04 4.561994
4e-04 2.449293598294707e-16 1.0 0.0 0.0 0.0 1.0 81 1 301 202 5 299 0 0 306 292 3
02 83 3 302 1.0 1.0 1.0 15 303 203 0 208 299 0 14 304 204 306 1.0e-08 369 299 30
8 11 305 -0 0 369 299 9 50 305 205 0 304 370 300 0 +-1.749187199999995e-04 5.500
812800000001e-04 1.26994399999999e-05 0.0 0.0 1.0 1.0 -2.449293598294707e-16 0.0
 81 1 306 206 5 304 0 0 371 301 307 83 3 307 1.0 1.0 1.0 15 308 207 0 309 304 0
 17 309 0 308 317 365 310 314 312 0 453 +18 310 208 0 309 259 315 311 ?1 29 311
 209 0 310 316 260 -1.249187199999995e-04 5.500812800000001e-04 1.26994399999999
e-05 16 312 210 0 ?309 296 320 313 0 0 1 31 313 211 0 312 321 297 0 +-1.74918719
9999995e-04 5.500812800000001e-04 1.26994399999999e-05 0.0 0.0 -1.0 1.0 -2.44929
3598294707e-16 0.0 4.999999999999997e-05 17 314 0 458 377 453 315 309 312 0 365
 -18 315 212 0 314 310 318 316 ?1 29 316 213 0 315 319 311 -1.749187199999995e-0
4 6.000812800000001e-04 1.26994399999999e-05 17 317 0 308 323 309 318 322 320 0
 328 +18 318 214 0 444 315 324 319 ?1 29 319 215 0 318 325 316 -1.24918720000005
4e-04 7.508127999998878e-05 1.26994399999999e-05 16 320 216 0 ?317 312 326 321 0
 0 1 30 321 217 0 320 327 313 0 +-1.249187200000054e-04 7.508127999998878e-05 1.
26994399999999e-05 -1.25135328905862e-14 -1.0 0.0 17 322 0 449 450 444 310 317 3
20 0 0 -17 323 0 308 329 317 324 328 326 0 334 +18 324 218 0 435 318 330 325 ?1
 29 325 219 0 324 331 319 -1.249187200000041e-04 -7.491872000001126e-05 1.269943
99999999e-05 16 326 220 0 ?323 320 332 327 0 0 1 31 327 221 0 326 333 321 0 +-1.
249187200000049e-04 8.12799999887549e-08 1.26994399999999e-05 0.0 0.0 1.0 1.0 -2
.449293598294707e-16 0.0 7.500000000000002e-05 17 328 0 440 441 435 318 323 326
 0 0 -17 329 0 308 335 323 330 334 332 0 340 +18 330 222 0 426 324 336 331 ?1 29
 331 223 0 330 337 325 -1.249187199999997e-04 -5.499187199999998e-04 1.269943999
99999e-05 16 332 224 0 ?329 326 338 333 0 0 1 30 333 225 0 332 339 327 0 +-1.249
187199999997e-04 -5.499187199999998e-04 1.26994399999999e-05 9.056384014651664e-
15 -1.0 0.0 17 334 0 431 432 426 324 329 332 0 0 -17 335 0 308 341 329 336 340 3
38 0 346 +18 336 226 0 417 330 342 337 ?1 29 337 227 0 336 343 331 -1.7491871999
99998e-04 -5.999187199999998e-04 1.26994399999999e-05 16 338 228 0 ?335 332 344
 339 0 0 1 31 339 229 0 338 345 333 0 +-1.749187199999998e-04 -5.499187199999998
e-04 1.26994399999999e-05 0.0 0.0 -1.0 -1.0 2.449293598294707e-16 0.0 5.00000000
0000003e-05 17 340 0 422 423 417 330 335 338 0 0 -17 341 0 308 347 335 342 346 3
44 0 0 +18 342 230 0 352 336 348 343 ?1 29 343 231 0 342 349 337 -5.522217599291
534e-04 -5.999187199999997e-04 1.26994399999999e-05 16 344 232 0 ?341 338 350 34
5 0 0 1 30 345 233 0 344 351 339 0 +-1.749187199999998e-04 -5.999187199999998e-0
4 1.26994399999999e-05 -1.0 2.449293598294707e-16 0.0 17 346 0 413 414 408 336 3
41 344 0 0 -17 347 0 308 353 341 348 352 350 0 358 +18 348 234 0 347 342 354 349
 ?1 29 349 235 0 348 355 343 -5.999187200000009e-04 -5.649187199999995e-04 1.269
94399999999e-05 16 350 236 0 ?347 344 356 351 0 0 1 31 351 237 0 350 357 345 0 +
-5.522217599291534e-04 -5.499187199999995e-04 1.26994399999999e-05 0.0 0.0 -1.0
 1.0 -2.449293598294707e-16 0.0 5.000000000000003e-05 17 352 0 404 405 399 342 3
47 350 0 408 -17 353 0 308 359 347 354 358 356 0 364 +18 354 238 0 353 348 360 3
55 ?1 29 355 239 0 354 361 349 -5.999187200000003e-04 5.650812799999998e-04 1.26
994399999999e-05 16 356 240 0 ?353 350 362 357 0 0 1 30 357 241 0 356 363 351 0
 +-5.999187200000008e-04 -5.649187199999995e-04 1.26994399999999e-05 4.368235496
49914e-16 1.0 0.0 17 358 0 395 396 390 348 353 356 0 399 -17 359 0 308 365 353 3
60 364 362 0 381 +18 360 242 0 359 354 465 361 ?1 29 361 243 0 360 466 355 -5.52
221759929153e-04 6.000812800000002e-04 1.26994399999999e-05 16 362 244 0 ?359 35
6 366 363 0 0 1 31 363 245 0 362 367 357 0 +-5.52221759929153e-04 5.500812800000
002e-04 1.26994399999999e-05 0.0 0.0 -1.0 1.0 -2.449293598294707e-16 0.0 4.99999
9999999991e-05 17 364 0 386 387 381 354 359 362 0 390 -17 365 0 308 309 359 315
 368 366 0 374 +16 366 246 0 ?365 362 375 367 0 0 1 30 367 247 0 366 376 363 0 +
-1.749187199999995e-04 6.000812800000001e-04 1.26994399999999e-05 1.0 -2.4492935
98294707e-16 0.0 17 368 0 373 378 374 360 365 366 0 0 -14 369 248 371 1.0e-08 38
2 304 373 11 370 -0 0 382 304 9 50 370 249 0 369 383 305 0 +-1.749187199999995e-
04 6.000812800000001e-04 1.26994399999999e-05 -2.449293598294707e-16 -1.0 0.0 0.
0 0.0 -1.0 81 1 371 250 5 369 0 0 384 306 372 83 3 372 1.0 1.0 1.0 15 373 251 0
 153 369 0 17 374 0 373 368 153 315 377 375 0 0 -16 375 252 0 ?377 366 379 376 0
 0 1 30 376 253 0 375 380 367 0 +-1.749187199999995e-04 6.000812800000001e-04 1.
26994399999999e-05 0.0 0.0 1.0 17 377 0 458 147 314 143 374 375 0 153 +17 378 0
 373 153 368 149 381 379 0 148 +16 379 254 0 ?378 375 388 380 0 0 1 30 380 255 0
 379 389 376 0 +-5.52221759929153e-04 6.000812800000002e-04 1.26994399999999e-05
 0.0 0.0 1.0 17 381 0 386 364 159 360 378 379 0 368 -14 382 256 384 1.0e-08 391
 369 386 11 383 +0 0 391 369 9 51 383 257 0 382 392 370 0 +-5.52221759929153e-04
 5.500812800000002e-04 1.26994399999999e-05 0.0 0.0 1.0 4.999999999999991e-05 1.
0 -2.449293598294707e-16 0.0 81 1 384 258 5 382 0 0 393 371 385 83 3 385 1.0 1.0
 1.0 15 386 259 0 159 382 0 17 387 0 386 159 364 155 390 388 0 0 +16 388 260 0 ?
387 379 397 389 0 0 1 30 389 261 0 388 398 380 0 +-5.999187200000003e-04 5.65081
2799999998e-04 1.26994399999999e-05 0.0 0.0 1.0 17 390 0 395 358 165 354 387 388
 0 0 -14 391 262 393 1.0e-08 400 382 395 11 392 -0 0 400 382 9 50 392 263 0 391
 401 383 0 +-5.999187200000008e-04 -5.649187199999995e-04 1.26994399999999e-05 1
.0 -4.36823549649914e-16 0.0 4.36823549649914e-16 1.0 0.0 81 1 393 264 5 391 0 0
 402 384 394 83 3 394 1.0 1.0 1.0 15 395 265 0 165 391 0 17 396 0 395 165 358 16
1 399 397 0 171 +16 397 266 0 ?396 388 406 398 0 0 1 30 398 267 0 397 407 389 0
 +-5.999187200000009e-04 -5.649187199999995e-04 1.26994399999999e-05 0.0 0.0 1.0
 17 399 0 404 352 171 348 396 397 0 0 -14 400 268 402 1.0e-08 409 391 404 11 401
 +0 0 409 391 9 51 401 269 0 400 410 392 0 +-5.522217599291534e-04 -5.4991871999
99995e-04 1.26994399999999e-05 0.0 0.0 1.0 5.000000000000003e-05 1.0 -2.44929359
8294707e-16 0.0 81 1 402 270 5 400 0 0 411 393 403 83 3 403 1.0 1.0 1.0 15 404 2
71 0 171 400 0 17 405 0 404 171 352 167 408 406 0 166 +16 406 272 0 ?405 397 415
 407 0 0 1 30 407 273 0 406 416 398 0 +-5.522217599291534e-04 -5.999187199999997
e-04 1.26994399999999e-05 0.0 0.0 1.0 17 408 0 413 346 177 342 405 406 0 341 -14
 409 274 411 1.0e-08 418 400 413 11 410 -0 0 418 400 9 50 410 275 0 409 419 401
 0 +-1.749187199999998e-04 -5.999187199999998e-04 1.26994399999999e-05 2.4492935
98294707e-16 1.0 0.0 0.0 0.0 1.0 81 1 411 276 5 409 0 0 420 402 412 83 3 412 1.0
 1.0 1.0 15 413 277 0 177 409 0 17 414 0 413 177 346 173 417 415 0 172 +16 415 2
78 0 ?414 406 424 416 0 0 1 30 416 279 0 415 425 407 0 +-1.749187199999998e-04 -
5.999187199999998e-04 1.26994399999999e-05 0.0 0.0 1.0 17 417 0 422 340 183 336
 414 415 0 335 -14 418 280 420 1.0e-08 427 409 422 11 419 +0 0 427 409 9 51 419
 281 0 418 428 410 0 +-1.749187199999998e-04 -5.499187199999998e-04 1.2699439999
9999e-05 0.0 0.0 1.0 5.000000000000003e-05 1.0 -2.449293598294707e-16 0.0 81 1 4
20 282 5 418 0 0 429 411 421 83 3 421 1.0 1.0 1.0 15 422 283 0 183 418 0 17 423
 0 422 183 340 179 426 424 0 189 +16 424 284 0 ?423 415 433 425 0 0 1 30 425 285
 0 424 434 416 0 +-1.249187199999997e-04 -5.499187199999998e-04 1.26994399999999
e-05 0.0 0.0 1.0 17 426 0 431 334 189 330 423 424 0 329 -14 427 286 429 1.0e-08
 436 418 431 11 428 -0 0 436 418 9 50 428 287 0 427 437 419 0 +-1.24918719999999
7e-04 -5.499187199999998e-04 1.26994399999999e-05 -1.0 -9.056384014651666e-15 0.
0 9.056384014651666e-15 -1.0 0.0 81 1 429 288 5 427 0 0 438 420 430 83 3 430 1.0
 1.0 1.0 15 431 289 0 189 427 0 17 432 0 431 189 334 185 435 433 0 184 +16 433 2
90 0 ?432 424 442 434 0 0 1 30 434 291 0 433 443 425 0 +-1.249187200000041e-04 -
7.491872000001126e-05 1.26994399999999e-05 0.0 0.0 1.0 17 435 0 440 328 193 324
 432 433 0 323 -14 436 292 438 1.0e-08 445 427 440 11 437 -0 0 445 427 9 51 437
 293 0 436 446 428 0 +-1.249187200000049e-04 8.12799999887549e-08 1.269943999999
99e-05 0.0 0.0 1.0 7.500000000000002e-05 1.0 -2.449293598294707e-16 0.0 81 1 438
 294 5 436 0 0 447 429 439 83 3 439 1.0 1.0 1.0 15 440 295 0 193 436 0 17 441 0
 440 193 328 140 444 442 0 190 +16 442 296 0 ?441 433 451 443 0 0 1 30 443 297 0
 442 452 434 0 +-1.249187200000054e-04 7.508127999998878e-05 1.26994399999999e-0
5 0.0 0.0 1.0 17 444 0 449 322 139 318 441 442 0 317 -14 445 298 447 1.0e-08 454
 436 449 11 446 -0 0 454 436 9 50 446 299 0 445 455 437 0 +-1.249187200000054e-0
4 7.508127999998878e-05 1.26994399999999e-05 -1.0 1.25135328905862e-14 0.0 -1.25
135328905862e-14 -1.0 0.0 81 1 447 300 5 445 0 0 456 438 448 83 3 448 1.0 1.0 1.
0 15 449 301 0 139 445 0 17 450 0 449 139 322 135 453 451 0 134 +16 451 302 0 ?4
50 442 467 452 0 0 1 30 452 303 0 451 468 443 0 +-1.249187199999995e-04 5.500812
800000001e-04 1.26994399999999e-05 0.0 0.0 1.0 17 453 0 458 314 147 310 450 451
 0 322 -14 454 304 456 1.0e-08 459 445 458 11 455 +0 0 459 445 9 51 455 305 0 45
4 460 446 0 +-1.749187199999995e-04 5.500812800000001e-04 1.26994399999999e-05 0
.0 0.0 1.0 4.999999999999997e-05 1.0 -2.449293598294707e-16 0.0 81 1 456 306 5 4
54 0 0 461 447 457 83 3 457 1.0 1.0 1.0 15 458 307 0 147 454 0 14 459 308 461 1.
0e-08 512 454 463 11 460 +0 0 512 454 9 50 460 309 0 459 513 455 0 +5.5238431992
9153e-04 -5.499187199999999e-04 1.26994399999999e-05 0.0 0.0 -1.0 -1.0 2.4492935
98294707e-16 0.0 81 1 461 310 5 459 0 0 514 456 462 83 3 462 1.0 1.0 1.0 15 463
 311 0 464 459 0 17 464 0 463 472 508 465 469 467 0 0 +18 465 312 0 477 360 470
 466 ?1 29 466 313 0 465 471 361 5.523843199291528e-04 -5.9991872e-04 1.26994399
999999e-05 16 467 314 0 ?464 451 475 468 0 0 1 31 468 315 0 467 476 452 0 +5.523
84319929153e-04 -5.499187199999999e-04 1.26994399999999e-05 0.0 0.0 -1.0 -1.0 2.
449293598294707e-16 0.0 5.000000000000003e-05 17 469 0 583 520 578 470 464 467 0
 0 -18 470 316 0 508 465 473 471 ?1 29 471 317 0 470 474 466 6.000812800000003e-
04 -5.649187199999998e-04 1.26994399999999e-05 17 472 0 463 478 464 473 477 475
 0 569 +18 473 318 0 472 470 479 474 ?1 29 474 319 0 473 480 471 1.7508128000000
03e-04 -5.999187199999999e-04 1.26994399999999e-05 16 475 320 0 ?472 467 481 476
 0 0 1 30 476 321 0 475 482 468 0 +5.523843199291528e-04 -5.9991872e-04 1.269943
99999999e-05 -1.0 2.449293598294707e-16 0.0 17 477 0 574 575 569 465 472 475 0 5
78 -17 478 0 463 484 472 479 483 481 0 0 +18 479 322 0 560 473 485 480 ?1 29 480
 323 0 479 486 474 1.250812800000003e-04 -5.499187199999999e-04 1.26994399999999
e-05 16 481 324 0 ?478 475 487 482 0 0 1 31 482 325 0 481 488 476 0 +1.750812800
000003e-04 -5.499187199999999e-04 1.26994399999999e-05 0.0 0.0 -1.0 -1.0 2.44929
3598294707e-16 0.0 5.000000000000003e-05 17 483 0 565 566 560 473 478 481 0 0 -1
7 484 0 463 490 478 485 489 487 0 495 +18 485 326 0 551 479 491 486 ?1 29 486 32
7 0 485 492 480 1.250812800000005e-04 5.500812799999999e-04 1.26994399999999e-05
 16 487 328 0 ?484 481 493 488 0 0 1 30 488 329 0 487 494 482 0 +1.2508128000000
03e-04 -5.499187199999999e-04 1.26994399999999e-05 2.20288401363891e-16 1.0 0.0
 17 489 0 556 557 551 479 484 487 0 478 -17 490 0 463 496 484 491 495 493 0 501
 +18 491 330 0 542 485 497 492 ?1 29 492 331 0 491 498 486 1.750812800000005e-04
 6.000812800000001e-04 1.26994399999999e-05 16 493 332 0 ?490 487 499 494 0 0 1
 31 494 333 0 493 500 488 0 +1.750812800000005e-04 5.500812799999999e-04 1.26994
399999999e-05 0.0 0.0 -1.0 -1.0 2.449293598294707e-16 0.0 5.000000000000003e-05
 17 495 0 547 548 542 485 490 493 0 0 -17 496 0 463 502 490 497 501 499 0 0 +18
 497 334 0 507 491 503 498 ?1 29 498 335 0 497 504 492 5.523843199291531e-04 6.0
00812799999998e-04 1.26994399999999e-05 16 499 336 0 ?496 493 505 500 0 0 1 30 5
00 337 0 499 506 494 0 +5.523843199291531e-04 6.000812799999998e-04 1.2699439999
9999e-05 1.0 -5.322851608028973e-16 0.0 17 501 0 538 539 533 491 496 499 0 0 -17
 502 0 463 508 496 503 507 505 0 511 +18 503 338 0 502 497 0 504 ?1 29 504 339 0
 503 0 498 6.000812800000006e-04 5.650812799999994e-04 1.26994399999999e-05 16 5
05 340 0 ?502 499 509 506 0 0 1 31 506 341 0 505 510 500 0 +5.523843199291532e-0
4 5.500812799999999e-04 1.26994399999999e-05 0.0 0.0 -1.0 -1.0 2.449293598294707
e-16 0.0 4.999999999999991e-05 17 507 0 529 530 524 497 502 505 0 533 -17 508 0
 463 464 502 470 511 509 0 517 +16 509 342 0 ?508 505 518 510 0 0 1 30 510 343 0
 509 519 506 0 +6.000812800000003e-04 -5.649187199999998e-04 1.26994399999999e-0
5 -2.449293598294707e-16 -1.0 0.0 17 511 0 516 521 517 503 508 509 0 524 -14 512
 344 514 1.0e-08 525 459 516 11 513 -0 0 525 459 9 50 513 345 0 512 526 460 0 +6
.000812800000003e-04 -5.649187199999998e-04 1.26994399999999e-05 -1.0 2.44929359
8294707e-16 0.0 0.0 0.0 1.0 81 1 514 346 5 512 0 0 527 461 515 83 3 515 1.0 1.0
 1.0 15 516 347 0 239 512 0 17 517 0 516 511 239 470 520 518 0 469 -16 518 348 0
 ?520 509 522 519 0 0 1 30 519 349 0 518 523 510 0 +6.000812800000003e-04 -5.649
187199999998e-04 1.26994399999999e-05 0.0 0.0 1.0 17 520 0 583 233 469 229 517 5
18 0 239 +17 521 0 516 239 511 235 524 522 0 234 +16 522 350 0 ?521 518 531 523
 0 0 1 30 523 351 0 522 532 519 0 +6.000812800000006e-04 5.650812799999994e-04 1
.26994399999999e-05 0.0 0.0 1.0 17 524 0 529 507 245 503 521 522 0 0 -14 525 352
 527 1.0e-08 534 512 529 11 526 +0 0 534 512 9 51 526 353 0 525 535 513 0 +5.523
843199291532e-04 5.500812799999999e-04 1.26994399999999e-05 0.0 0.0 1.0 4.999999
999999991e-05 1.0 -2.449293598294707e-16 0.0 81 1 527 354 5 525 0 0 536 514 528
 83 3 528 1.0 1.0 1.0 15 529 355 0 245 525 0 17 530 0 529 245 507 241 533 531 0
 251 +16 531 356 0 ?530 522 540 532 0 0 1 30 532 357 0 531 541 523 0 +5.52384319
9291531e-04 6.000812799999998e-04 1.26994399999999e-05 0.0 0.0 1.0 17 533 0 538
 501 251 497 530 531 0 496 -14 534 358 536 1.0e-08 543 525 538 11 535 -0 0 543 5
25 9 50 535 359 0 534 544 526 0 +5.523843199291532e-04 6.000812799999999e-04 1.2
6994399999999e-05 -5.322851608028973e-16 -1.0 0.0 1.0 -5.322851608028973e-16 0.0
 81 1 536 360 5 534 0 0 545 527 537 83 3 537 1.0 1.0 1.0 15 538 361 0 251 534 0
 17 539 0 538 251 501 247 542 540 0 246 +16 540 362 0 ?539 531 549 541 0 0 1 30
 541 363 0 540 550 532 0 +1.750812800000005e-04 6.000812800000001e-04 1.26994399
999999e-05 0.0 0.0 1.0 17 542 0 547 495 257 491 539 540 0 490 -14 543 364 545 1.
0e-08 552 534 547 11 544 +0 0 552 534 9 51 544 365 0 543 553 535 0 +1.7508128000
00005e-04 5.500812799999999e-04 1.26994399999999e-05 0.0 0.0 1.0 5.0000000000000
03e-05 1.0 -2.449293598294707e-16 0.0 81 1 545 366 5 543 0 0 554 536 546 83 3 54
6 1.0 1.0 1.0 15 547 367 0 257 543 0 17 548 0 547 257 495 253 551 549 0 252 +16
 549 368 0 ?548 540 558 550 0 0 1 30 550 369 0 549 559 541 0 +1.250812800000005e
-04 5.500812799999999e-04 1.26994399999999e-05 0.0 0.0 1.0 17 551 0 556 489 263
 485 548 549 0 484 -14 552 370 554 1.0e-08 561 543 556 11 553 -0 0 561 543 9 50
 553 371 0 552 562 544 0 +1.250812800000003e-04 -5.499187199999999e-04 1.2699439
9999999e-05 1.0 -2.20288401363891e-16 0.0 2.20288401363891e-16 1.0 0.0 81 1 554
 372 5 552 0 0 563 545 555 83 3 555 1.0 1.0 1.0 15 556 373 0 263 552 0 17 557 0
 556 263 489 259 560 558 0 258 +16 558 374 0 ?557 549 567 559 0 0 1 30 559 375 0
 558 568 550 0 +1.250812800000003e-04 -5.499187199999999e-04 1.26994399999999e-0
5 0.0 0.0 1.0 17 560 0 565 483 267 479 557 558 0 489 -14 561 376 563 1.0e-08 570
 552 565 11 562 +0 0 570 552 9 51 562 377 0 561 571 553 0 +1.750812800000003e-04
 -5.499187199999999e-04 1.26994399999999e-05 0.0 0.0 1.0 5.000000000000003e-05 1
.0 -2.449293598294707e-16 0.0 81 1 563 378 5 561 0 0 572 554 564 83 3 564 1.0 1.
0 1.0 15 565 379 0 267 561 0 17 566 0 565 267 483 226 569 567 0 225 +16 567 380
 0 ?566 558 576 568 0 0 1 30 568 381 0 567 577 559 0 +1.750812800000003e-04 -5.9
99187199999999e-04 1.26994399999999e-05 0.0 0.0 1.0 17 569 0 574 477 225 473 566
 567 0 483 -14 570 382 572 1.0e-08 579 561 574 11 571 -0 0 579 561 9 50 571 383
 0 570 580 562 0 +5.52384319929153e-04 -5.9991872e-04 1.26994399999999e-05 2.449
293598294707e-16 1.0 0.0 0.0 0.0 1.0 81 1 572 384 5 570 0 0 581 563 573 83 3 573
 1.0 1.0 1.0 15 574 385 0 225 570 0 17 575 0 574 225 477 221 578 576 0 220 +16 5
76 386 0 ?575 567 0 577 0 0 1 30 577 387 0 576 0 568 0 +5.523843199291528e-04 -5
.9991872e-04 1.26994399999999e-05 0.0 0.0 1.0 17 578 0 583 469 233 465 575 576 0
 464 -14 579 388 581 1.0e-08 0 570 583 11 580 +0 0 0 570 9 51 580 389 0 579 0 57
1 0 +5.52384319929153e-04 -5.499187199999999e-04 1.26994399999999e-05 0.0 0.0 1.
0 5.000000000000003e-05 1.0 -2.449293598294707e-16 0.0 81 1 581 390 5 579 0 0 0
 572 582 83 3 582 1.0 1.0 1.0 15 583 391 0 233 579 0 1 0 
