**ABCDEFGHIJKLMNOPQRSTUVWXYZabcdefghijklmnopqrstuvwxyz**************************
**PARASOLID !"#$%&'()*+,-./:;<=>?@[\]^_`{|}~0123456789**************************
**PART1;
MC=AMD64;
MC_MODEL=Intel64 Family 6 Model 170 Stepping 4, GenuineIntel;
MC_ID=unknown;
OS=Windows_NT;
OS_RELEASE=unknown;
FRU=CAD Exchanger 3.23.0 (cadexchanger.com);
APPL=unknown;
SITE=unknown;
USER=unknown;
FORMAT=text;
GUISE=transmit;
KEY=MCHP-MSOP-MS8_M_CMP-114-0012-2;
FILE=MCHP-MSOP-MS8_M_CMP-114-0012-2.x_t;
DATE=Tue Oct 14 16:46:33 2025;
**PART2;
SCH=SCH_1200000_12103;
USFLD_SIZE=0;
**PART3;
**END_OF_HEADER*****************************************************************
T51 : TRANSMIT FILE created by modeller version 120000017 SCH_1200000_121030 12
 1 68 0 2 0 0 0 0 1000.0 1.0e-08 0 0 0 1 0 1 1 11 13 19 17 8 18 16 70 2 0 1 0 0
 4 1 20 0 3 3 1 T74 20 3 1 0 4 0 0 0 0 0 0 0 0 0 0 0 0 0 0 0 0 0 0 0 81 1 4 7 5
 12 0 0 41 0 7 80 1 5 0 6 8001 0 0 0 0 3 5 0 0 0 FFFFTFTFFFFFFF2 79 15 6 SDL/TYS
A_COLOUR83 3 7 0.501960813999176 0.501960813999176 0.501960813999176 19 8 1 0 1
 10 0 9 V13 9 2 0 1 0 0 0 0 8 12 19 10 3 0 1 0 8 11 S13 11 4 0 1 0 12 0 0 10 0 1
4 12 5 4 1.0e-08 39 0 14 11 13 -0 0 39 0 9 50 13 6 0 12 40 0 0 +0.00149999954 0.
00149999954 0.0 -1.83697019872103e-16 -1.0 0.0 -1.0 1.83697019872103e-16 0.0 15
 14 8 0 15 12 0 17 15 0 14 23 35 16 20 18 0 49 +18 16 9 0 28 0 21 17 ?1 29 17 10
 0 16 22 0 -0.00149999954 0.00149999954 0.0 16 18 11 0 ?15 0 26 19 0 0 1 30 19 1
2 0 18 27 0 0 +0.00149999954 0.00149999954 0.0 -1.0 1.83697019872103e-16 0.0 17
 20 0 98 89 49 21 15 18 0 0 -18 21 13 0 35 16 24 22 ?1 29 22 14 0 21 25 17 0.001
49999954 0.00149999954 0.0 17 23 0 14 29 15 24 28 26 0 34 +18 24 15 0 23 21 30 2
5 ?1 29 25 16 0 24 31 22 -0.00149999954 0.00149999954 0.00110000034 16 26 17 0 ?
23 18 32 27 0 0 1 30 27 18 0 26 33 19 0 +-0.00149999954 0.00149999954 0.0 0.0 0.
0 1.0 17 28 0 43 44 56 16 23 26 0 15 -17 29 0 14 35 23 30 34 32 0 93 -18 30 19 0
 38 24 45 31 ?1 29 31 20 0 30 46 25 0.00149999954 0.00149999954 0.00110000034 16
 32 21 0 ?34 26 36 33 0 0 1 30 33 22 0 32 37 27 0 +0.00149999954 0.00149999954 0
.00110000034 -1.0 1.83697019872103e-16 0.0 17 34 0 103 59 93 24 29 32 0 56 +17 3
5 0 14 15 29 21 38 36 0 86 -16 36 23 0 ?38 32 47 37 0 0 1 30 37 24 0 36 48 33 0
 +0.00149999954 0.00149999954 0.0 0.0 0.0 1.0 17 38 0 85 90 86 30 35 36 0 29 +14
 39 25 41 1.0e-08 60 12 43 11 40 -0 0 60 12 9 50 40 26 0 39 61 13 0 +-0.00149999
954 0.00149999954 0.0 1.0 -1.83697019872103e-16 0.0 -1.83697019872103e-16 -1.0 0
.0 81 1 41 27 5 39 0 0 62 4 42 83 3 42 0.501960813999176 0.501960813999176 0.501
960813999176 15 43 28 0 44 39 0 17 44 0 43 50 28 45 49 47 0 0 +18 45 29 0 55 30
 51 46 ?1 29 46 30 0 45 52 31 -0.00149999954 -0.00149999954 0.0 16 47 31 0 ?44 3
6 53 48 0 0 1 30 48 32 0 47 54 37 0 +-0.00149999954 0.00149999954 0.0 -1.8369701
9872103e-16 -1.0 0.0 17 49 0 98 20 70 16 44 47 0 0 -17 50 0 43 56 44 51 55 53 0
 59 +18 51 33 0 50 45 66 52 ?1 29 52 34 0 51 67 46 -0.00149999954 -0.00149999954
 0.00110000034 16 53 35 0 ?50 47 57 54 0 0 1 30 54 36 0 53 58 48 0 +-0.001499999
54 -0.00149999954 0.0 0.0 0.0 1.0 17 55 0 64 65 77 45 50 53 0 70 -17 56 0 43 28
 50 24 59 57 0 0 -16 57 37 0 ?59 53 68 58 0 0 1 30 58 38 0 57 69 54 0 +-0.001499
99954 0.00149999954 0.00110000034 -1.83697019872103e-16 -1.0 0.0 17 59 0 103 80
 34 51 56 57 0 77 +14 60 39 62 1.0e-08 81 39 64 11 61 -0 0 81 39 9 50 61 40 0 60
 82 40 0 +-0.00149999954 -0.00149999954 0.0 1.83697019872103e-16 1.0 0.0 1.0 -1.
83697019872103e-16 0.0 81 1 62 41 5 60 0 0 83 41 63 83 3 63 0.501960813999176 0.
501960813999176 0.501960813999176 15 64 42 0 65 60 0 17 65 0 64 71 55 66 70 68 0
 0 +18 66 43 0 76 51 72 67 ?1 29 67 44 0 66 73 52 0.00149999954 -0.00149999954 0
.0 16 68 45 0 ?65 57 74 69 0 0 1 30 69 46 0 68 75 58 0 +-0.00149999954 -0.001499
99954 0.0 1.0 -1.83697019872103e-16 0.0 17 70 0 98 49 89 45 65 68 0 44 -17 71 0
 64 77 65 72 76 74 0 90 +18 72 47 0 71 66 0 73 ?1 29 73 48 0 72 0 67 0.001499999
54 -0.00149999954 0.00110000034 16 74 49 0 ?71 68 78 75 0 0 1 30 75 50 0 74 79 6
9 0 +0.00149999954 -0.00149999954 0.0 0.0 0.0 1.0 17 76 0 85 86 90 66 71 74 0 89
 -17 77 0 64 55 71 51 80 78 0 0 -16 78 51 0 ?80 74 87 79 0 0 1 30 79 52 0 78 88
 75 0 +-0.00149999954 -0.00149999954 0.00110000034 1.0 -1.83697019872103e-16 0.0
 17 80 0 103 93 59 72 77 78 0 0 +14 81 53 83 1.0e-08 94 60 85 11 82 -0 0 94 60 9
 50 82 54 0 81 95 61 0 +0.00149999954 -0.00149999954 0.0 -1.0 1.83697019872103e-
16 0.0 1.83697019872103e-16 1.0 0.0 81 1 83 55 5 81 0 0 96 62 84 83 3 84 0.50196
0813999176 0.501960813999176 0.501960813999176 15 85 56 0 86 81 0 17 86 0 85 38
 76 21 89 87 0 20 +16 87 57 0 ?86 78 91 88 0 0 1 30 88 58 0 87 92 79 0 +0.001499
99954 -0.00149999954 0.0 1.83697019872103e-16 1.0 0.0 17 89 0 98 70 20 66 86 87
 0 65 -17 90 0 85 76 38 72 93 91 0 80 -16 91 59 0 ?93 87 0 92 0 0 1 30 92 60 0 9
1 0 88 0 +0.00149999954 -0.00149999954 0.00110000034 1.83697019872103e-16 1.0 0.
0 17 93 0 103 34 80 30 90 91 0 0 +14 94 61 96 1.0e-08 99 81 98 11 95 -0 0 99 81
 9 50 95 62 0 94 100 82 0 +-7.401489100623999e-20 7.401489100624001e-20 0.0 0.0
 0.0 1.0 -1.83697019872103e-16 -1.0 0.0 81 1 96 63 5 94 0 0 101 83 97 83 3 97 0.
501960813999176 0.501960813999176 0.501960813999176 15 98 64 0 89 94 0 14 99 65
 101 1.0e-08 0 94 103 11 100 +0 0 0 94 9 50 100 66 0 99 0 95 0 +-7.4014891006239
99e-20 7.401489100624001e-20 0.00110000034 0.0 0.0 1.0 -1.83697019872103e-16 -1.
0 0.0 81 1 101 67 5 99 0 0 0 96 102 83 3 102 0.501960813999176 0.501960813999176
 0.501960813999176 15 103 68 0 34 99 0 1 0 
