%FSLAX25Y25*%
%MOIN*%
G70*
G01*
G75*
G04 Layer_Physical_Order=1*
G04 Layer_Color=255*
%ADD10R,0.03000X0.09400*%
%ADD11R,0.06300X0.10700*%
%ADD12R,0.09500X0.10300*%
%ADD13O,0.00787X0.02559*%
%ADD14O,0.02559X0.00787*%
%ADD15R,0.18504X0.18504*%
%ADD16R,0.01575X0.06000*%
%ADD17O,0.01575X0.06000*%
%ADD18R,0.07087X0.03937*%
%ADD19R,0.04331X0.04724*%
%ADD20R,0.14200X0.08700*%
%ADD21R,0.04800X0.08800*%
%ADD22R,0.04800X0.01600*%
%ADD23R,0.06693X0.03150*%
%ADD24R,0.03150X0.06693*%
%ADD25R,0.04400X0.04000*%
%ADD26R,0.04000X0.04400*%
%ADD27R,0.03200X0.03600*%
%ADD28R,0.02800X0.04800*%
%ADD29R,0.05512X0.11811*%
%ADD30R,0.02559X0.01969*%
%ADD31R,0.02953X0.03150*%
%ADD32R,0.01969X0.02284*%
%ADD33R,0.02362X0.03937*%
%ADD34R,0.04921X0.07087*%
%ADD35R,0.02362X0.01969*%
%ADD36R,0.10700X0.06300*%
%ADD37R,0.01969X0.02362*%
%ADD38C,0.00600*%
%ADD39C,0.02500*%
%ADD40C,0.01200*%
%ADD41C,0.00800*%
%ADD42C,0.05000*%
%ADD43C,0.01000*%
%ADD44C,0.02000*%
%ADD45C,0.04500*%
%ADD46C,0.03700*%
%ADD47C,0.05906*%
G04:AMPARAMS|DCode=48|XSize=60mil|YSize=60mil|CornerRadius=0mil|HoleSize=0mil|Usage=FLASHONLY|Rotation=270.000|XOffset=0mil|YOffset=0mil|HoleType=Round|Shape=Octagon|*
%AMOCTAGOND48*
4,1,8,-0.01500,-0.03000,0.01500,-0.03000,0.03000,-0.01500,0.03000,0.01500,0.01500,0.03000,-0.01500,0.03000,-0.03000,0.01500,-0.03000,-0.01500,-0.01500,-0.03000,0.0*
%
%ADD48OCTAGOND48*%

%ADD49R,0.06000X0.06000*%
%ADD50C,0.02400*%
%ADD51C,0.02598*%
G36*
X492912Y229971D02*
X491743D01*
Y224771D01*
X492912D01*
Y215638D01*
X493036Y215014D01*
X493390Y214485D01*
X498318Y209556D01*
X498127Y209095D01*
X496244D01*
Y203095D01*
X498109D01*
X498179Y202743D01*
X498378Y202446D01*
X498393Y202431D01*
X498308Y201808D01*
X498000Y201602D01*
X497602Y201007D01*
X497462Y200304D01*
X497602Y199602D01*
X497993Y199018D01*
X497980Y198948D01*
X497832Y198518D01*
X495780D01*
X485614Y208683D01*
Y224345D01*
X485897Y224753D01*
X487082D01*
Y222052D01*
X486702Y221798D01*
X486304Y221202D01*
X486165Y220500D01*
X486304Y219798D01*
X486702Y219202D01*
X487298Y218804D01*
X488000Y218665D01*
X488702Y218804D01*
X489298Y219202D01*
X489696Y219798D01*
X489835Y220500D01*
X489696Y221202D01*
X489298Y221798D01*
X488918Y222052D01*
Y224771D01*
X490597D01*
Y229971D01*
X488714D01*
Y230682D01*
X490226D01*
X490578Y230752D01*
X490875Y230951D01*
X491402Y231478D01*
X491601Y231776D01*
X491626Y231900D01*
X492912D01*
Y229971D01*
D02*
G37*
G36*
X541082Y225297D02*
Y213380D01*
X537948Y210246D01*
X537500Y210335D01*
X536798Y210196D01*
X536202Y209798D01*
X536130Y209689D01*
X535529D01*
X535430Y209836D01*
X525500Y219767D01*
Y222684D01*
X527053D01*
X527677Y222809D01*
X528206Y223162D01*
X528938Y223894D01*
X529400Y223702D01*
Y220800D01*
X531500D01*
Y223600D01*
X532000D01*
Y224100D01*
X534600D01*
Y226400D01*
X532098D01*
X531906Y226862D01*
X533694Y228649D01*
X534047Y229179D01*
X534119Y229537D01*
X536842D01*
X541082Y225297D01*
D02*
G37*
G36*
X625000Y225000D02*
X605000D01*
Y222500D01*
X600000Y217500D01*
X587500D01*
Y232500D01*
X597500Y242500D01*
X625000D01*
Y225000D01*
D02*
G37*
G36*
X625266Y249767D02*
X625695Y249481D01*
X626236Y249373D01*
X626778Y249481D01*
X627174Y249745D01*
X627439Y249674D01*
X627674Y249542D01*
Y245528D01*
X627674Y245528D01*
X627759Y245099D01*
X628002Y244735D01*
X634501Y238236D01*
X634356Y237758D01*
X634278Y237743D01*
X633666Y237334D01*
X633266Y236934D01*
X632857Y236322D01*
X632714Y235600D01*
Y233500D01*
Y230500D01*
Y214207D01*
X632252Y214016D01*
X631134Y215134D01*
X630522Y215543D01*
X629800Y215686D01*
X628100D01*
Y218800D01*
X622100D01*
Y208886D01*
X619000D01*
Y212942D01*
X619020Y212991D01*
X619127Y213800D01*
Y224351D01*
X625000D01*
X625459Y224541D01*
X625649Y225000D01*
Y242500D01*
X625459Y242959D01*
X625000Y243149D01*
X623700D01*
Y243250D01*
X617631D01*
Y249183D01*
X618131Y249458D01*
X618559Y249373D01*
X619100Y249481D01*
X619530Y249767D01*
X619672Y249831D01*
X620005D01*
X620148Y249767D01*
X620577Y249481D01*
X621118Y249373D01*
X621660Y249481D01*
X622089Y249767D01*
X622232Y249831D01*
X622564D01*
X622707Y249767D01*
X623136Y249481D01*
X623677Y249373D01*
X624219Y249481D01*
X624648Y249767D01*
X624791Y249831D01*
X625123D01*
X625266Y249767D01*
D02*
G37*
G36*
X511400Y199702D02*
Y195600D01*
X515982D01*
Y194454D01*
X511400D01*
Y188854D01*
X515502D01*
X521663Y182693D01*
X521455Y182193D01*
X507632D01*
X503587Y186238D01*
X503778Y186700D01*
X506100D01*
Y197300D01*
X505631D01*
Y200657D01*
X506131Y200808D01*
X506202Y200702D01*
X506798Y200304D01*
X507500Y200165D01*
X508202Y200304D01*
X508798Y200702D01*
X509052Y201082D01*
X510020D01*
X511400Y199702D01*
D02*
G37*
G36*
X581242Y255030D02*
X581050Y254569D01*
X578172D01*
Y249431D01*
X579678D01*
Y242453D01*
X579267Y242195D01*
X579178Y242200D01*
X578500Y242335D01*
X577798Y242196D01*
X577627Y242081D01*
X577095D01*
X577007Y242524D01*
X576653Y243054D01*
X574882Y244826D01*
X574840Y245354D01*
X575083Y245718D01*
X575169Y246147D01*
Y249431D01*
X575828D01*
Y254569D01*
X573808D01*
X573617Y255030D01*
X574465Y255878D01*
X580394D01*
X581242Y255030D01*
D02*
G37*
G36*
X557040Y240938D02*
X555851Y239749D01*
X555652Y239451D01*
X555582Y239100D01*
Y231742D01*
X544522Y220681D01*
X544323Y220384D01*
X544253Y220032D01*
Y196170D01*
X543753Y195840D01*
X543596Y195871D01*
X543208Y195794D01*
X543197Y195787D01*
X542808Y195607D01*
X542420Y195787D01*
X542409Y195794D01*
X542021Y195871D01*
X541633Y195794D01*
X541305Y195575D01*
X541163D01*
X540834Y195794D01*
X540446Y195871D01*
X540059Y195794D01*
X540047Y195787D01*
X539659Y195607D01*
X539270Y195787D01*
X539259Y195794D01*
X538871Y195871D01*
X538484Y195794D01*
X538473Y195787D01*
X538084Y195607D01*
X537696Y195787D01*
X537684Y195794D01*
X537297Y195871D01*
X536909Y195794D01*
X536580Y195575D01*
X536438D01*
X536110Y195794D01*
X535722Y195871D01*
X535565Y195840D01*
X535065Y196170D01*
Y197979D01*
X536058D01*
Y201147D01*
X535908D01*
Y206811D01*
X536408Y207065D01*
X536798Y206804D01*
X537500Y206665D01*
X538202Y206804D01*
X538798Y207202D01*
X539196Y207798D01*
X539335Y208500D01*
X539246Y208948D01*
X542649Y212351D01*
X542848Y212649D01*
X542918Y213000D01*
Y225677D01*
X542848Y226028D01*
X542649Y226326D01*
X540075Y228900D01*
X540282Y229400D01*
X545454D01*
Y233969D01*
X546600D01*
Y229400D01*
X552200D01*
Y234600D01*
X551031D01*
Y235600D01*
Y236671D01*
X555761Y241400D01*
X556849D01*
X557040Y240938D01*
D02*
G37*
G36*
X569100Y245707D02*
Y241400D01*
X573693D01*
X573869Y241224D01*
Y240450D01*
Y239676D01*
X573793Y239600D01*
X569600D01*
Y234533D01*
X568454D01*
Y239600D01*
X563047D01*
X562830Y240090D01*
X564140Y241400D01*
X567953D01*
Y245214D01*
X568638Y245898D01*
X569100Y245707D01*
D02*
G37*
G36*
X560930Y201670D02*
X561059Y201579D01*
Y200553D01*
X560665D01*
Y195416D01*
X561718D01*
Y194595D01*
X561804Y194165D01*
X561922Y193988D01*
Y193975D01*
X557090Y189142D01*
X557075Y189142D01*
X556579Y189339D01*
X556540Y189537D01*
X556532Y189548D01*
X556353Y189937D01*
X556532Y190326D01*
X556540Y190337D01*
X556617Y190724D01*
X556540Y191112D01*
X556320Y191441D01*
X555991Y191660D01*
X555604Y191738D01*
X553832D01*
X553560Y191683D01*
X553193Y191886D01*
X553060Y192005D01*
Y192315D01*
X552751D01*
X552632Y192447D01*
X552429Y192815D01*
X552483Y193087D01*
Y193688D01*
X556149Y197354D01*
X556348Y197651D01*
X556350Y197660D01*
X556653Y197863D01*
X557040Y198250D01*
X557084D01*
Y198294D01*
X560559Y201769D01*
X560930Y201670D01*
D02*
G37*
G36*
X522237Y224456D02*
Y219091D01*
X522362Y218467D01*
X522715Y217938D01*
X529840Y210813D01*
X529675Y210271D01*
X529298Y210196D01*
X528702Y209798D01*
X528304Y209202D01*
X528165Y208500D01*
X528254Y208052D01*
X519480Y199277D01*
X519018Y199469D01*
Y204854D01*
X521600D01*
Y210454D01*
X516400D01*
Y204854D01*
X517182D01*
Y202643D01*
X516748Y202363D01*
X516682Y202356D01*
X516373Y202418D01*
X514204D01*
X512918Y203704D01*
Y204854D01*
X514600D01*
Y210454D01*
X509400D01*
Y204854D01*
X511082D01*
Y203324D01*
X511104Y203213D01*
X510942Y203046D01*
X510670Y202864D01*
X510400Y202918D01*
X509052D01*
X508798Y203298D01*
X508202Y203696D01*
X507500Y203835D01*
X506798Y203696D01*
X506300Y203363D01*
X505949Y203478D01*
X505800Y203585D01*
Y209095D01*
X503614D01*
X501460Y211248D01*
X500931Y211602D01*
X500876Y211613D01*
X497950Y214538D01*
X498142Y215000D01*
X499946D01*
X501195Y213751D01*
X501493Y213552D01*
X501844Y213482D01*
X509400D01*
Y211600D01*
X514600D01*
Y216889D01*
X515100Y217002D01*
X516400Y215702D01*
Y211600D01*
X521600D01*
Y217200D01*
X517498D01*
X516049Y218649D01*
X515751Y218848D01*
X515400Y218918D01*
X505800D01*
Y221000D01*
X501800D01*
Y216395D01*
X501338Y216204D01*
X500244Y217298D01*
Y221000D01*
X496244D01*
X496174Y221471D01*
Y224771D01*
X497343D01*
Y225740D01*
X520953D01*
X522237Y224456D01*
D02*
G37*
G36*
X603121Y264912D02*
X596330Y258121D01*
X580858D01*
X580858Y258122D01*
X580858Y258121D01*
X574000D01*
X574000Y258122D01*
X573571Y258036D01*
X573207Y257793D01*
X570679Y255265D01*
X570323Y254969D01*
Y254969D01*
X570323Y254969D01*
X568642D01*
Y252000D01*
X568142D01*
Y251500D01*
X565961D01*
Y249031D01*
X567946D01*
X568137Y248570D01*
X566167Y246600D01*
X562354D01*
Y245621D01*
X561854Y245414D01*
X561073Y246195D01*
Y249431D01*
X564017D01*
Y254569D01*
X561073D01*
Y257275D01*
X569172Y265374D01*
X602929D01*
X603121Y264912D01*
D02*
G37*
G36*
X521020Y170620D02*
X517717Y167318D01*
X506100D01*
Y171082D01*
X520828D01*
X521020Y170620D01*
D02*
G37*
G36*
X608369Y266281D02*
Y260200D01*
X607400D01*
Y254600D01*
X612009D01*
X612214Y254342D01*
X611997Y253854D01*
X610500D01*
Y251153D01*
X613000D01*
Y253040D01*
X613462Y253231D01*
X614369Y252324D01*
Y243250D01*
X608300D01*
Y243149D01*
X597500D01*
X597041Y242959D01*
X587041Y232959D01*
X586851Y232500D01*
Y223143D01*
X572810D01*
X572714Y223207D01*
X572012Y223347D01*
X571310Y223207D01*
X570714Y222810D01*
X570316Y222214D01*
X570177Y221512D01*
X570316Y220810D01*
X570714Y220214D01*
X571310Y219816D01*
X571373Y219804D01*
X571518Y219325D01*
X568347Y216154D01*
X558347Y206153D01*
X557993Y205624D01*
X557984Y205581D01*
X557484Y205630D01*
Y206150D01*
X556000D01*
Y203969D01*
X555500D01*
Y203468D01*
X553516D01*
Y201787D01*
X553916D01*
Y199254D01*
X553869Y199017D01*
X553916Y198780D01*
Y198250D01*
X553916D01*
X553950Y197750D01*
X551939Y195740D01*
X551858Y195794D01*
X551470Y195871D01*
X551082Y195794D01*
X551071Y195787D01*
X550682Y195607D01*
X550294Y195787D01*
X550283Y195794D01*
X549895Y195871D01*
X549738Y195840D01*
X549238Y196170D01*
Y218289D01*
X549293Y218326D01*
X560293Y229326D01*
X560536Y229690D01*
X560622Y230119D01*
X560622Y230119D01*
Y233617D01*
X561883Y234878D01*
X562853D01*
Y234400D01*
X564667D01*
X566449Y232619D01*
X566449Y232619D01*
X566813Y232376D01*
X567242Y232290D01*
X574664D01*
X574664Y232290D01*
X575094Y232376D01*
X575458Y232619D01*
X581593Y238754D01*
X581593Y238754D01*
X581836Y239118D01*
X581922Y239547D01*
X581922Y239547D01*
Y247766D01*
X582422Y248009D01*
X582592Y247895D01*
X583021Y247810D01*
X583021Y247810D01*
X593400D01*
X593400Y247810D01*
X593830Y247895D01*
X594194Y248138D01*
X597793Y251738D01*
X597793Y251738D01*
X597947Y251968D01*
X598298Y252202D01*
X598696Y252798D01*
X598835Y253500D01*
X598696Y254202D01*
X598298Y254798D01*
X597702Y255196D01*
X597000Y255335D01*
X596298Y255196D01*
X595702Y254798D01*
X595304Y254202D01*
X595165Y253500D01*
X595304Y252798D01*
X595455Y252572D01*
X594007Y251124D01*
X593545Y251315D01*
Y254569D01*
X589983D01*
Y250053D01*
X587639D01*
Y254569D01*
X584876D01*
X584028Y255416D01*
X584219Y255878D01*
X596795D01*
X596795Y255878D01*
X597224Y255964D01*
X597588Y256207D01*
X607869Y266488D01*
X608369Y266281D01*
D02*
G37*
G36*
X532646Y208007D02*
Y201996D01*
X532521Y201547D01*
X530840D01*
Y199563D01*
Y197579D01*
X532521D01*
Y197979D01*
X533229D01*
Y195274D01*
X533211Y195246D01*
X533134Y194858D01*
Y193087D01*
X533188Y192815D01*
X532995Y192465D01*
X532556Y192315D01*
Y192315D01*
D01*
X532057Y192091D01*
X531785Y192145D01*
X531399D01*
Y190724D01*
X530899D01*
Y190224D01*
X528347D01*
X528221Y190067D01*
X527231D01*
X523117Y194181D01*
X523196Y194298D01*
X523335Y195000D01*
X523196Y195702D01*
X522798Y196298D01*
X522202Y196696D01*
X521500Y196835D01*
X520818Y196700D01*
X520729Y196691D01*
X520318Y196954D01*
Y197520D01*
X529552Y206754D01*
X530000Y206665D01*
X530702Y206804D01*
X531298Y207202D01*
X531696Y207798D01*
X531771Y208175D01*
X532313Y208340D01*
X532646Y208007D01*
D02*
G37*
G36*
X680000Y139000D02*
X660443D01*
X660207Y139500D01*
X661117Y140609D01*
X661958Y142184D01*
X662477Y143892D01*
X662652Y145669D01*
X662477Y147446D01*
X661958Y149155D01*
X661117Y150730D01*
X659984Y152110D01*
X658604Y153243D01*
X657029Y154084D01*
X655320Y154603D01*
X653543Y154778D01*
X651766Y154603D01*
X650058Y154084D01*
X648483Y153243D01*
X647103Y152110D01*
X645970Y150730D01*
X645128Y149155D01*
X644610Y147446D01*
X644435Y145669D01*
X644610Y143892D01*
X645128Y142184D01*
X645970Y140609D01*
X646880Y139500D01*
X646643Y139000D01*
X570150D01*
Y139500D01*
X567969D01*
Y140000D01*
X567469D01*
Y141984D01*
X566002D01*
X565715Y142679D01*
X565688Y142714D01*
X565559Y143185D01*
X565559D01*
X565559Y143185D01*
X565559Y146335D01*
X560441D01*
X560441Y143185D01*
X560441Y143185D01*
X560441D01*
X560326Y142714D01*
X560299Y142679D01*
X559986Y141925D01*
X559880Y141115D01*
Y139000D01*
X480000D01*
Y278000D01*
X506679D01*
X506871Y277538D01*
X504666Y275334D01*
X504257Y274722D01*
X504114Y274000D01*
Y271031D01*
X503466Y270534D01*
X502897Y269792D01*
X502539Y268927D01*
X502417Y268000D01*
X502539Y267073D01*
X502897Y266208D01*
X503466Y265466D01*
X504208Y264897D01*
X505072Y264539D01*
X506000Y264417D01*
X506927Y264539D01*
X507792Y264897D01*
X508534Y265466D01*
X509103Y266208D01*
X509461Y267073D01*
X509583Y268000D01*
X509461Y268927D01*
X509103Y269792D01*
X508534Y270534D01*
X507886Y271031D01*
Y273219D01*
X510281Y275614D01*
X528650D01*
Y269850D01*
X539350D01*
Y275614D01*
X542245D01*
X542778Y275257D01*
X543500Y275114D01*
X544222Y275257D01*
X544834Y275666D01*
X545243Y276278D01*
X545386Y277000D01*
Y277500D01*
X545364Y277613D01*
X545681Y278000D01*
X612502D01*
X612694Y277538D01*
X612064Y276908D01*
X611865Y276610D01*
X611795Y276259D01*
Y275278D01*
X606034Y269517D01*
X605572Y269708D01*
Y276616D01*
X599451D01*
Y268329D01*
X604193D01*
X604384Y267867D01*
X603727Y267209D01*
X568792D01*
X568440Y267140D01*
X568143Y266941D01*
X559506Y258304D01*
X559307Y258006D01*
X559237Y257655D01*
Y245815D01*
X559307Y245464D01*
X559232Y245282D01*
X558798Y245196D01*
X558702Y245131D01*
X558200D01*
Y246600D01*
X552600D01*
Y242938D01*
X552342Y242733D01*
X551854Y242950D01*
Y243500D01*
X549154D01*
Y241000D01*
X550093D01*
X550284Y240538D01*
X548246Y238500D01*
X547893Y237971D01*
X547769Y237347D01*
Y237231D01*
X533740D01*
X533116Y237107D01*
X532587Y236754D01*
X531387Y235553D01*
X531033Y235024D01*
X530909Y234400D01*
Y230954D01*
X530900Y230948D01*
X530400Y231215D01*
Y234337D01*
X528468D01*
X517886Y244918D01*
Y264969D01*
X518534Y265466D01*
X519103Y266208D01*
X519461Y267073D01*
X519583Y268000D01*
X519461Y268927D01*
X519103Y269792D01*
X518534Y270534D01*
X517792Y271103D01*
X516927Y271461D01*
X516000Y271583D01*
X515072Y271461D01*
X514208Y271103D01*
X513466Y270534D01*
X512897Y269792D01*
X512539Y268927D01*
X512417Y268000D01*
X512539Y267073D01*
X512897Y266208D01*
X513466Y265466D01*
X514114Y264969D01*
Y244137D01*
X514257Y243415D01*
X514666Y242803D01*
X526000Y231469D01*
Y229537D01*
X529314D01*
X529505Y229075D01*
X526377Y225947D01*
X525248D01*
X525022Y226285D01*
X522782Y228525D01*
X522253Y228878D01*
X521629Y229002D01*
X497343D01*
Y229971D01*
X496174D01*
Y231900D01*
X497200D01*
Y237100D01*
X491671D01*
Y262373D01*
X494200Y264903D01*
X494208Y264897D01*
X495073Y264539D01*
X496000Y264417D01*
X496927Y264539D01*
X497792Y264897D01*
X498534Y265466D01*
X499103Y266208D01*
X499461Y267073D01*
X499583Y268000D01*
X499461Y268927D01*
X499103Y269792D01*
X498534Y270534D01*
X497792Y271103D01*
X496927Y271461D01*
X496000Y271583D01*
X495073Y271461D01*
X494208Y271103D01*
X493466Y270534D01*
X492897Y269792D01*
X492539Y268927D01*
X492417Y268000D01*
X492539Y267073D01*
X492897Y266208D01*
X492903Y266200D01*
X490105Y263402D01*
X489906Y263105D01*
X489836Y262754D01*
Y237100D01*
X488571D01*
Y265515D01*
X489103Y266208D01*
X489461Y267073D01*
X489583Y268000D01*
X489461Y268927D01*
X489103Y269792D01*
X488534Y270534D01*
X487792Y271103D01*
X486928Y271461D01*
X486000Y271583D01*
X485073Y271461D01*
X484208Y271103D01*
X483466Y270534D01*
X482897Y269792D01*
X482539Y268927D01*
X482417Y268000D01*
X482539Y267073D01*
X482897Y266208D01*
X483466Y265466D01*
X484208Y264897D01*
X485073Y264539D01*
X486000Y264417D01*
X486360Y264464D01*
X486736Y264134D01*
Y237100D01*
X484854D01*
Y232998D01*
X484048Y232192D01*
X483849Y231894D01*
X483779Y231543D01*
Y208303D01*
X483849Y207952D01*
X484048Y207655D01*
X493540Y198162D01*
X493349Y197700D01*
X491500D01*
Y197541D01*
X491100Y197300D01*
X491000Y197300D01*
X487000D01*
X486900Y197300D01*
X486500Y197541D01*
Y197700D01*
X484500D01*
Y192000D01*
Y186300D01*
X486500D01*
Y186459D01*
X486500Y186459D01*
X486900Y186700D01*
X487000Y186700D01*
X491000D01*
X491100Y186700D01*
X491500Y186459D01*
Y186300D01*
X493500D01*
Y192000D01*
X494500D01*
Y186300D01*
X500929D01*
X502231Y184999D01*
X501997Y184525D01*
X501500Y184591D01*
X500830Y184502D01*
X500205Y184244D01*
X499668Y183832D01*
X499256Y183295D01*
X498998Y182670D01*
X498909Y182000D01*
X498998Y181330D01*
X499256Y180705D01*
X499668Y180168D01*
X500205Y179756D01*
X500830Y179498D01*
X501500Y179409D01*
X502171Y179498D01*
X502795Y179756D01*
X503332Y180168D01*
X503744Y180705D01*
X504002Y181330D01*
X504091Y182000D01*
X504025Y182497D01*
X504499Y182731D01*
X506603Y180627D01*
X506901Y180428D01*
X507252Y180358D01*
X528702D01*
X529031Y179858D01*
X529000Y179701D01*
X529077Y179313D01*
X529084Y179302D01*
X529264Y178913D01*
X529084Y178525D01*
X529077Y178514D01*
X529000Y178126D01*
X529077Y177738D01*
X529084Y177727D01*
X529264Y177339D01*
X529084Y176950D01*
X529077Y176939D01*
X529000Y176551D01*
X529031Y176394D01*
X528702Y175894D01*
X524976D01*
X524684Y175836D01*
X524625Y175824D01*
X524328Y175625D01*
X521620Y172918D01*
X506100D01*
Y177300D01*
X501900D01*
Y167318D01*
X501100D01*
Y177300D01*
X496900D01*
Y166700D01*
X498082D01*
Y166500D01*
X498152Y166149D01*
X498351Y165851D01*
X498451Y165751D01*
X498749Y165552D01*
X499100Y165482D01*
X516931D01*
X517123Y165020D01*
X516420Y164318D01*
X496589D01*
X496238Y164248D01*
X495940Y164049D01*
X490377Y158486D01*
X485554D01*
Y154136D01*
X493446D01*
Y158486D01*
X493446Y158486D01*
X493446D01*
X493448Y158961D01*
X496969Y162482D01*
X516800D01*
X517151Y162552D01*
X517449Y162751D01*
X522780Y168082D01*
X523464D01*
X523656Y167620D01*
X520737Y164702D01*
X520538Y164404D01*
X520468Y164053D01*
Y161446D01*
X519211D01*
Y153553D01*
X523482D01*
Y151946D01*
X519211D01*
Y144053D01*
X523561D01*
Y148877D01*
X525049Y150365D01*
X525248Y150663D01*
X525318Y151014D01*
Y164990D01*
X526010Y165682D01*
X526990D01*
X527272Y165400D01*
X527570Y165201D01*
X527921Y165131D01*
X528350D01*
Y164500D01*
X530532D01*
Y163500D01*
X528350D01*
Y162016D01*
Y161000D01*
X530532D01*
Y160500D01*
X531032D01*
Y158516D01*
X532713D01*
Y158562D01*
X533066Y158916D01*
X535843D01*
X536250Y158916D01*
X536250D01*
X536750Y159000D01*
X552516Y159000D01*
Y158531D01*
X556484D01*
Y158646D01*
X556838Y159000D01*
X559000D01*
Y163416D01*
X560076D01*
Y155701D01*
X560174Y154957D01*
X560440Y154315D01*
X560441Y153815D01*
X560441Y153815D01*
X560441Y153815D01*
X560441Y150665D01*
X565559D01*
X565559Y153815D01*
X565559Y153815D01*
X565461Y154315D01*
X565727Y154957D01*
X565825Y155701D01*
Y162924D01*
X566287Y163016D01*
X566287Y163016D01*
X566287Y163016D01*
X567969D01*
Y165000D01*
Y166984D01*
X566287D01*
Y166584D01*
X564768D01*
X564532Y166631D01*
X561370D01*
X561133Y166584D01*
X559354D01*
X559000Y166938D01*
Y168003D01*
X559033Y168273D01*
X559407Y168479D01*
X562596D01*
Y168079D01*
X564277D01*
Y170063D01*
X564777D01*
Y170563D01*
X566958D01*
Y171582D01*
X569281D01*
X571097Y169767D01*
X571395Y169568D01*
X571746Y169498D01*
X572079D01*
Y163791D01*
X574744D01*
Y167154D01*
X575744D01*
Y163791D01*
X578059D01*
Y160979D01*
X581596D01*
Y160579D01*
X583277D01*
Y162563D01*
X583777D01*
Y163063D01*
X585958D01*
Y164547D01*
X583875D01*
X583521Y164901D01*
Y170116D01*
X583839Y170484D01*
X583921D01*
Y173346D01*
X580756D01*
Y174346D01*
X583921D01*
Y177209D01*
X580958D01*
Y178063D01*
X578777D01*
Y178563D01*
X578277D01*
Y180547D01*
X576596D01*
Y180147D01*
X573059D01*
Y176979D01*
X572629Y176809D01*
X572479D01*
Y174827D01*
X567137D01*
X564958Y177007D01*
X564896Y177567D01*
X565245Y177916D01*
X567287D01*
Y177516D01*
X568968D01*
Y179500D01*
Y181484D01*
X567287D01*
Y181084D01*
X563750D01*
Y179418D01*
X560136D01*
X559785Y179348D01*
X559487Y179149D01*
X557807Y177469D01*
X556915D01*
X556586Y177969D01*
X556617Y178126D01*
X556540Y178514D01*
X556320Y178842D01*
Y178984D01*
X556540Y179313D01*
X556617Y179701D01*
X556540Y180088D01*
X556532Y180100D01*
X556353Y180488D01*
X556532Y180877D01*
X556540Y180888D01*
X556617Y181276D01*
X556540Y181663D01*
X556320Y181992D01*
Y182134D01*
X556540Y182463D01*
X556617Y182850D01*
X556540Y183238D01*
X556532Y183249D01*
X556353Y183638D01*
X556532Y184026D01*
X556540Y184037D01*
X556617Y184425D01*
X556586Y184582D01*
X556915Y185082D01*
X561059D01*
Y182479D01*
X564596D01*
Y182079D01*
X566277D01*
Y184063D01*
X566777D01*
Y184563D01*
X568958D01*
Y186047D01*
X568952D01*
Y190710D01*
X561907D01*
X561715Y191172D01*
X563489Y192946D01*
X563688Y193243D01*
X563699Y193302D01*
X563758Y193595D01*
Y193988D01*
X563876Y194165D01*
X563962Y194595D01*
Y195416D01*
X568952D01*
Y200079D01*
X568958D01*
Y201563D01*
X566777D01*
Y202063D01*
X566277D01*
Y204047D01*
X564596D01*
Y203647D01*
X561131D01*
Y204324D01*
X570005Y213198D01*
X581082Y202120D01*
Y190552D01*
X580702Y190298D01*
X580304Y189702D01*
X580165Y189000D01*
X580304Y188298D01*
X580702Y187702D01*
X581298Y187304D01*
X582000Y187165D01*
X582702Y187304D01*
X583298Y187702D01*
X583696Y188298D01*
X583835Y189000D01*
X583696Y189702D01*
X583298Y190298D01*
X582918Y190552D01*
Y202500D01*
X582848Y202851D01*
X582649Y203149D01*
X571302Y214495D01*
X576687Y219881D01*
X586851D01*
Y217500D01*
X587041Y217041D01*
X587500Y216851D01*
X600000D01*
X600459Y217041D01*
X605459Y222041D01*
X605649Y222500D01*
Y224351D01*
X612873D01*
Y213800D01*
X612980Y212991D01*
X613000Y212942D01*
Y208800D01*
X615948D01*
X616103Y208443D01*
X616116Y208300D01*
X612766Y204950D01*
X605738D01*
Y193050D01*
X606361D01*
Y190950D01*
X605738D01*
Y185672D01*
X602789Y182723D01*
X602292Y182075D01*
X601980Y181321D01*
X601873Y180512D01*
X601873Y180512D01*
Y178006D01*
X601644D01*
Y164995D01*
X603777D01*
Y158000D01*
X603870Y157532D01*
X604135Y157135D01*
X610135Y151135D01*
X610532Y150870D01*
X611000Y150777D01*
X612300D01*
Y149400D01*
X617900D01*
Y154600D01*
X612300D01*
Y153224D01*
X611507D01*
X606223Y158507D01*
Y164995D01*
X608356D01*
Y178006D01*
X608127D01*
Y179050D01*
X613238D01*
Y190950D01*
X612615D01*
Y193050D01*
X613238D01*
Y200087D01*
X615988Y202837D01*
X616450Y202645D01*
Y199500D01*
X624750D01*
Y205164D01*
X632062D01*
X632313Y205114D01*
X632600D01*
X633322Y205257D01*
X633934Y205666D01*
X634667Y206400D01*
X637400D01*
Y211600D01*
X636486D01*
Y230500D01*
Y233500D01*
Y234894D01*
X636743Y235278D01*
X636758Y235356D01*
X637236Y235501D01*
X654878Y217859D01*
Y207000D01*
X654878Y207000D01*
X654964Y206571D01*
X655207Y206207D01*
X657400Y204014D01*
Y203800D01*
Y200200D01*
X659200Y198400D01*
X662800D01*
X664600Y200200D01*
Y203800D01*
X662800Y205600D01*
X659200D01*
X658986D01*
X657122Y207465D01*
Y209771D01*
X657622Y209979D01*
X659200Y208400D01*
X662800D01*
X664600Y210200D01*
Y213800D01*
X662800Y215600D01*
X662447D01*
X662122Y215944D01*
X662036Y216374D01*
X661793Y216737D01*
X661793Y216737D01*
X660592Y217938D01*
X660784Y218400D01*
X662800D01*
X664600Y220200D01*
Y223800D01*
X662800Y225600D01*
X659200D01*
X657843Y224243D01*
X657343D01*
X651208Y230379D01*
X651415Y230878D01*
X657400D01*
Y230200D01*
X659200Y228400D01*
X662800D01*
X664600Y230200D01*
Y233800D01*
X662800Y235600D01*
X659200D01*
X657400Y233800D01*
Y233121D01*
X651465D01*
X644147Y240439D01*
X644394Y240900D01*
X644500Y240878D01*
X644500Y240879D01*
X657400D01*
Y240200D01*
X659200Y238400D01*
X662800D01*
X664600Y240200D01*
Y243800D01*
X662800Y245600D01*
X659200D01*
X657400Y243800D01*
Y243122D01*
X654361D01*
X654170Y243583D01*
X658986Y248400D01*
X659200D01*
X662800D01*
X664600Y250200D01*
Y253800D01*
X662800Y255600D01*
X659200D01*
X657400Y253800D01*
Y250200D01*
Y250082D01*
X657089Y249837D01*
X656622Y250043D01*
Y256035D01*
X658986Y258400D01*
X659200D01*
X662800D01*
X664600Y260200D01*
Y263800D01*
X662800Y265600D01*
X659200D01*
X657400Y263800D01*
Y260200D01*
Y259986D01*
X655122Y257708D01*
X654622Y257915D01*
Y264035D01*
X658986Y268400D01*
X664600D01*
Y275600D01*
X657400D01*
Y269986D01*
X652707Y265293D01*
X652464Y264929D01*
X652378Y264500D01*
X652378Y264500D01*
Y250965D01*
X651451Y250037D01*
X650990Y250283D01*
X651090Y250787D01*
Y252500D01*
X649268D01*
Y253000D01*
X648768D01*
Y256936D01*
X648570Y256896D01*
X647979Y256501D01*
X647347Y256455D01*
X647250Y256520D01*
X646709Y256627D01*
X646167Y256520D01*
X645738Y256233D01*
X645595Y256169D01*
X645263D01*
X645120Y256233D01*
X644691Y256520D01*
X644150Y256627D01*
X643608Y256520D01*
X643179Y256233D01*
X643036Y256169D01*
X642704D01*
X642561Y256233D01*
X642132Y256520D01*
X641591Y256627D01*
X641049Y256520D01*
X640620Y256233D01*
X640477Y256169D01*
X640145D01*
X640002Y256233D01*
X639573Y256520D01*
X639032Y256627D01*
X638490Y256520D01*
X638061Y256233D01*
X637918Y256169D01*
X637586D01*
X637443Y256233D01*
X637014Y256520D01*
X636473Y256627D01*
X635931Y256520D01*
X635502Y256233D01*
X635359Y256169D01*
X635027D01*
X634884Y256233D01*
X634455Y256520D01*
X633913Y256627D01*
X633372Y256520D01*
X632943Y256233D01*
X632800Y256169D01*
X632468D01*
X632325Y256233D01*
X631896Y256520D01*
X631354Y256627D01*
X630813Y256520D01*
X630384Y256233D01*
X630241Y256169D01*
X629909D01*
X629766Y256233D01*
X629337Y256520D01*
X628795Y256627D01*
X628254Y256520D01*
X627825Y256233D01*
X627682Y256169D01*
X627350D01*
X627207Y256233D01*
X626778Y256520D01*
X626236Y256627D01*
X625695Y256520D01*
X625266Y256233D01*
X625123Y256169D01*
X624791D01*
X624648Y256233D01*
X624219Y256520D01*
X623677Y256627D01*
X623136Y256520D01*
X622707Y256233D01*
X622564Y256169D01*
X622232D01*
X622089Y256233D01*
X621660Y256520D01*
X621118Y256627D01*
X620577Y256520D01*
X620148Y256233D01*
X620005Y256169D01*
X619672D01*
X619530Y256233D01*
X619100Y256520D01*
X618559Y256627D01*
X618018Y256520D01*
X617887Y256432D01*
X617387Y256600D01*
Y256600D01*
X617387Y256600D01*
X614707D01*
X612753Y258554D01*
X612600Y258656D01*
Y260200D01*
X611631D01*
Y266009D01*
X613469Y267846D01*
X613704Y268082D01*
X615650D01*
X618981Y264751D01*
X619279Y264552D01*
X619630Y264482D01*
X622400D01*
X622751Y264552D01*
X623049Y264751D01*
X626649Y268351D01*
X626885Y268587D01*
X627084Y268885D01*
X627096Y268943D01*
X627154Y269236D01*
Y269417D01*
X627207Y269452D01*
X627350Y269516D01*
X627682D01*
X627825Y269452D01*
X628254Y269165D01*
X628795Y269058D01*
X629337Y269165D01*
X629766Y269452D01*
X629909Y269516D01*
X630241D01*
X630384Y269452D01*
X630813Y269165D01*
X631354Y269058D01*
X631896Y269165D01*
X632325Y269452D01*
X632468Y269516D01*
X632800D01*
X632943Y269452D01*
X633372Y269165D01*
X633913Y269058D01*
X634455Y269165D01*
X634884Y269452D01*
X635027Y269516D01*
X635359D01*
X635502Y269452D01*
X635931Y269165D01*
X636473Y269058D01*
X637014Y269165D01*
X637443Y269452D01*
X637586Y269516D01*
X637918D01*
X638061Y269452D01*
X638490Y269165D01*
X639032Y269058D01*
X639573Y269165D01*
X640002Y269452D01*
X640145Y269516D01*
X640477D01*
X640620Y269452D01*
X641049Y269165D01*
X641591Y269058D01*
X642132Y269165D01*
X642561Y269452D01*
X642704Y269516D01*
X643036D01*
X643179Y269452D01*
X643608Y269165D01*
X644150Y269058D01*
X644691Y269165D01*
X645120Y269452D01*
X645263Y269516D01*
X645595D01*
X645738Y269452D01*
X646167Y269165D01*
X646709Y269058D01*
X647250Y269165D01*
X647679Y269452D01*
X647822Y269516D01*
X648154D01*
X648297Y269452D01*
X648726Y269165D01*
X649268Y269058D01*
X649809Y269165D01*
X650268Y269472D01*
X650575Y269931D01*
X650682Y270472D01*
Y274898D01*
X650575Y275439D01*
X650268Y275898D01*
X649809Y276204D01*
X649268Y276312D01*
X648726Y276204D01*
X648297Y275918D01*
X648154Y275854D01*
X647822D01*
X647679Y275918D01*
X647250Y276204D01*
X646709Y276312D01*
X646167Y276204D01*
X645738Y275918D01*
X645595Y275854D01*
X645263D01*
X645120Y275918D01*
X644691Y276204D01*
X644150Y276312D01*
X643608Y276204D01*
X643179Y275918D01*
X643036Y275854D01*
X642704D01*
X642561Y275918D01*
X642132Y276204D01*
X641591Y276312D01*
X641049Y276204D01*
X640620Y275918D01*
X640477Y275854D01*
X640145D01*
X640002Y275918D01*
X639573Y276204D01*
X639032Y276312D01*
X638490Y276204D01*
X638061Y275918D01*
X637918Y275854D01*
X637586D01*
X637443Y275918D01*
X637014Y276204D01*
X636473Y276312D01*
X635931Y276204D01*
X635502Y275918D01*
X635359Y275854D01*
X635027D01*
X634884Y275918D01*
X634455Y276204D01*
X633913Y276312D01*
X633372Y276204D01*
X632943Y275918D01*
X632800Y275854D01*
X632468D01*
X632325Y275918D01*
X631896Y276204D01*
X631354Y276312D01*
X630813Y276204D01*
X630384Y275918D01*
X630241Y275854D01*
X629825D01*
X629796Y275898D01*
X629658Y275990D01*
X629655Y276006D01*
X629643Y276065D01*
X629444Y276362D01*
X628573Y277234D01*
X628275Y277433D01*
X627924Y277503D01*
X627930Y278000D01*
X680000D01*
Y139000D01*
D02*
G37*
%LPC*%
G36*
X624300Y177200D02*
X621400D01*
Y175900D01*
X624300D01*
Y177200D01*
D02*
G37*
G36*
X496100Y177300D02*
X491900D01*
Y166700D01*
X496100D01*
Y177300D01*
D02*
G37*
G36*
X491100D02*
X486900D01*
Y166700D01*
X491100D01*
Y177300D01*
D02*
G37*
G36*
X655000Y170500D02*
X652300D01*
Y168000D01*
X655000D01*
Y170500D01*
D02*
G37*
G36*
X651300D02*
X648600D01*
Y168000D01*
X651300D01*
Y170500D01*
D02*
G37*
G36*
X620400Y177200D02*
X617500D01*
Y175900D01*
X620400D01*
Y177200D01*
D02*
G37*
G36*
X566958Y169563D02*
X565277D01*
Y168079D01*
X566958D01*
Y169563D01*
D02*
G37*
G36*
X670500Y186000D02*
X669000D01*
X667000Y184000D01*
Y182500D01*
X670500D01*
Y186000D01*
D02*
G37*
G36*
X568958Y183563D02*
X567277D01*
Y182079D01*
X568958D01*
Y183563D01*
D02*
G37*
G36*
X571650Y181484D02*
X569969D01*
Y180000D01*
X571650D01*
Y181484D01*
D02*
G37*
G36*
X673000Y186000D02*
X671500D01*
Y182500D01*
X675000D01*
Y184000D01*
X673000Y186000D01*
D02*
G37*
G36*
X620100Y191350D02*
X616450D01*
Y185500D01*
X620100D01*
Y191350D01*
D02*
G37*
G36*
X653350Y186550D02*
X647500D01*
Y182900D01*
X653350D01*
Y186550D01*
D02*
G37*
G36*
X646500D02*
X640650D01*
Y182900D01*
X646500D01*
Y186550D01*
D02*
G37*
G36*
X486500Y184591D02*
X485829Y184502D01*
X485205Y184244D01*
X484668Y183832D01*
X484256Y183295D01*
X483998Y182670D01*
X483909Y182000D01*
X483998Y181330D01*
X484256Y180705D01*
X484668Y180168D01*
X485205Y179756D01*
X485829Y179498D01*
X486500Y179409D01*
X487171Y179498D01*
X487795Y179756D01*
X488332Y180168D01*
X488744Y180705D01*
X489002Y181330D01*
X489091Y182000D01*
X489002Y182670D01*
X488744Y183295D01*
X488332Y183832D01*
X487795Y184244D01*
X487171Y184502D01*
X486500Y184591D01*
D02*
G37*
G36*
X675000Y181500D02*
X671500D01*
Y178000D01*
X673000D01*
X675000Y180000D01*
Y181500D01*
D02*
G37*
G36*
X670500D02*
X667000D01*
Y180000D01*
X669000Y178000D01*
X670500D01*
Y181500D01*
D02*
G37*
G36*
X571650Y179000D02*
X569969D01*
Y177516D01*
X571650D01*
Y179000D01*
D02*
G37*
G36*
X620100Y184500D02*
X616450D01*
Y178650D01*
X620100D01*
Y184500D01*
D02*
G37*
G36*
X580958Y180547D02*
X579277D01*
Y179063D01*
X580958D01*
Y180547D01*
D02*
G37*
G36*
X662800Y195600D02*
X659200D01*
X657400Y193800D01*
Y190200D01*
X658502Y189098D01*
Y184902D01*
X657400Y183800D01*
Y181068D01*
X655219Y178886D01*
X652950D01*
Y179688D01*
X641050D01*
Y177286D01*
X637071D01*
X636349Y177143D01*
X635836Y176800D01*
X634071D01*
Y174000D01*
Y171400D01*
Y168821D01*
Y166261D01*
X636051D01*
Y159893D01*
X633858Y157700D01*
X629900D01*
Y153742D01*
X629178Y153020D01*
X624647D01*
Y154600D01*
X619046D01*
Y149400D01*
X624647D01*
Y150980D01*
X629500D01*
Y148653D01*
X632000D01*
Y151354D01*
X631238D01*
X631021Y151842D01*
X631226Y152100D01*
X635100D01*
Y156058D01*
X637792Y158750D01*
X638013Y159081D01*
X638091Y159471D01*
Y166261D01*
X640071D01*
Y168821D01*
Y168997D01*
X641826D01*
X642253Y168570D01*
Y164900D01*
X647854D01*
Y170100D01*
X644184D01*
X643198Y171086D01*
X642801Y171351D01*
X642333Y171444D01*
X640071D01*
Y173514D01*
X641050D01*
Y172188D01*
X652950D01*
Y175114D01*
X656000D01*
X656722Y175257D01*
X657334Y175666D01*
X660068Y178400D01*
X662800D01*
X664600Y180200D01*
Y183800D01*
X663498Y184902D01*
Y189098D01*
X664600Y190200D01*
Y193800D01*
X662800Y195600D01*
D02*
G37*
G36*
X624750Y184500D02*
X621100D01*
Y178650D01*
X624750D01*
Y184500D01*
D02*
G37*
G36*
X486100Y177300D02*
X481900D01*
Y166700D01*
X486100D01*
Y177300D01*
D02*
G37*
G36*
X507500Y152347D02*
X505425D01*
Y148500D01*
X507500D01*
Y152347D01*
D02*
G37*
G36*
X635500Y147653D02*
X633000D01*
Y144954D01*
X635500D01*
Y147653D01*
D02*
G37*
G36*
X632000D02*
X629500D01*
Y144954D01*
X632000D01*
Y147653D01*
D02*
G37*
G36*
X507500Y157000D02*
X505425D01*
Y153154D01*
X507500D01*
Y157000D01*
D02*
G37*
G36*
X635500Y151354D02*
X633000D01*
Y148653D01*
X635500D01*
Y151354D01*
D02*
G37*
G36*
X510575Y152347D02*
X508500D01*
Y148500D01*
X510575D01*
Y152347D01*
D02*
G37*
G36*
Y147500D02*
X508500D01*
Y143654D01*
X510575D01*
Y147500D01*
D02*
G37*
G36*
X570150Y141984D02*
X568469D01*
Y140500D01*
X570150D01*
Y141984D01*
D02*
G37*
G36*
X493847Y142425D02*
X490000D01*
Y140350D01*
X493847D01*
Y142425D01*
D02*
G37*
G36*
X489000D02*
X485153D01*
Y140350D01*
X489000D01*
Y142425D01*
D02*
G37*
G36*
X507500Y147500D02*
X505425D01*
Y143654D01*
X507500D01*
Y147500D01*
D02*
G37*
G36*
X493847Y145500D02*
X490000D01*
Y143425D01*
X493847D01*
Y145500D01*
D02*
G37*
G36*
X489000D02*
X485153D01*
Y143425D01*
X489000D01*
Y145500D01*
D02*
G37*
G36*
X651300Y167000D02*
X648600D01*
Y164500D01*
X651300D01*
Y167000D01*
D02*
G37*
G36*
X570650Y164500D02*
X568968D01*
Y163016D01*
X570650D01*
Y164500D01*
D02*
G37*
G36*
X585958Y162063D02*
X584277D01*
Y160579D01*
X585958D01*
Y162063D01*
D02*
G37*
G36*
X624300Y167161D02*
X621400D01*
Y165861D01*
X624300D01*
Y167161D01*
D02*
G37*
G36*
X570650Y166984D02*
X568968D01*
Y165500D01*
X570650D01*
Y166984D01*
D02*
G37*
G36*
X655000Y167000D02*
X652300D01*
Y164500D01*
X655000D01*
Y167000D01*
D02*
G37*
G36*
X530031Y160000D02*
X528350D01*
Y158516D01*
X530031D01*
Y160000D01*
D02*
G37*
G36*
X554000Y157531D02*
X552516D01*
Y155850D01*
X554000D01*
Y157531D01*
D02*
G37*
G36*
X616230Y178006D02*
X609518D01*
Y164995D01*
X613980D01*
Y157500D01*
X614058Y157110D01*
X614279Y156779D01*
X615279Y155779D01*
X615610Y155558D01*
X616000Y155480D01*
X620900D01*
X621290Y155558D01*
X621621Y155779D01*
X624742Y158900D01*
X628700D01*
Y164100D01*
X623100D01*
Y160142D01*
X622415Y159457D01*
X621953Y159649D01*
Y164100D01*
X618020D01*
Y165861D01*
X620400D01*
Y167661D01*
X620900D01*
Y168161D01*
X624300D01*
Y169461D01*
X623900D01*
Y171400D01*
Y173600D01*
X624300D01*
Y174900D01*
X617500D01*
Y174431D01*
X616230D01*
Y178006D01*
D02*
G37*
G36*
X510575Y157000D02*
X508500D01*
Y153154D01*
X510575D01*
Y157000D01*
D02*
G37*
G36*
Y161846D02*
X508500D01*
Y158000D01*
X510575D01*
Y161846D01*
D02*
G37*
G36*
X507500D02*
X505425D01*
Y158000D01*
X507500D01*
Y161846D01*
D02*
G37*
G36*
X556484Y157531D02*
X555000D01*
Y155850D01*
X556484D01*
Y157531D01*
D02*
G37*
G36*
X624750Y191350D02*
X621100D01*
Y185500D01*
X624750D01*
Y191350D01*
D02*
G37*
G36*
X548153Y243500D02*
X545454D01*
Y241000D01*
X548153D01*
Y243500D01*
D02*
G37*
G36*
X672800Y245600D02*
X669200D01*
X667400Y243800D01*
Y240200D01*
X669200Y238400D01*
X672800D01*
X674600Y240200D01*
Y243800D01*
X672800Y245600D01*
D02*
G37*
G36*
Y235600D02*
X669200D01*
X667400Y233800D01*
Y230200D01*
X669200Y228400D01*
X672800D01*
X674600Y230200D01*
Y233800D01*
X672800Y235600D01*
D02*
G37*
G36*
X548153Y247000D02*
X545454D01*
Y244500D01*
X548153D01*
Y247000D01*
D02*
G37*
G36*
X539750Y249902D02*
X534500D01*
Y244252D01*
X539750D01*
Y249902D01*
D02*
G37*
G36*
X533500D02*
X528250D01*
Y244252D01*
X533500D01*
Y249902D01*
D02*
G37*
G36*
X606400Y219200D02*
X603500D01*
Y214300D01*
X606400D01*
Y219200D01*
D02*
G37*
G36*
X600350Y214550D02*
X594500D01*
Y210900D01*
X600350D01*
Y214550D01*
D02*
G37*
G36*
X593500D02*
X587650D01*
Y210900D01*
X593500D01*
Y214550D01*
D02*
G37*
G36*
X534600Y223100D02*
X532500D01*
Y220800D01*
X534600D01*
Y223100D01*
D02*
G37*
G36*
X672800Y225600D02*
X669200D01*
X667400Y223800D01*
Y220200D01*
X669200Y218400D01*
X672800D01*
X674600Y220200D01*
Y223800D01*
X672800Y225600D01*
D02*
G37*
G36*
X610300Y219200D02*
X607400D01*
Y214300D01*
X610300D01*
Y219200D01*
D02*
G37*
G36*
X551854Y247000D02*
X549154D01*
Y244500D01*
X551854D01*
Y247000D01*
D02*
G37*
G36*
X496000Y262583D02*
X495201Y262478D01*
X494456Y262170D01*
X493817Y261679D01*
X493327Y261040D01*
X493018Y260295D01*
X492913Y259496D01*
X493018Y258697D01*
X493327Y257952D01*
X493817Y257313D01*
X494456Y256823D01*
X495201Y256514D01*
X496000Y256409D01*
X496799Y256514D01*
X497543Y256823D01*
X498183Y257313D01*
X498673Y257952D01*
X498982Y258697D01*
X499087Y259496D01*
X498982Y260295D01*
X498673Y261040D01*
X498183Y261679D01*
X497543Y262170D01*
X496799Y262478D01*
X496000Y262583D01*
D02*
G37*
G36*
X649768Y256936D02*
Y253500D01*
X651090D01*
Y255213D01*
X650951Y255910D01*
X650556Y256501D01*
X649965Y256896D01*
X649768Y256936D01*
D02*
G37*
G36*
X567642Y254969D02*
X565961D01*
Y252500D01*
X567642D01*
Y254969D01*
D02*
G37*
G36*
X672800Y275600D02*
X669200D01*
X667400Y273800D01*
Y270200D01*
X669200Y268400D01*
X672800D01*
X674600Y270200D01*
Y273800D01*
X672800Y275600D01*
D02*
G37*
G36*
X554549Y276616D02*
X548428D01*
Y268329D01*
X554549D01*
Y276616D01*
D02*
G37*
G36*
X672800Y265600D02*
X669200D01*
X667400Y263800D01*
Y260200D01*
X669200Y258400D01*
X672800D01*
X674600Y260200D01*
Y263800D01*
X672800Y265600D01*
D02*
G37*
G36*
Y255600D02*
X669200D01*
X667400Y253800D01*
Y250200D01*
X669200Y248400D01*
X672800D01*
X674600Y250200D01*
Y253800D01*
X672800Y255600D01*
D02*
G37*
G36*
X613000Y250153D02*
X610500D01*
Y247453D01*
X613000D01*
Y250153D01*
D02*
G37*
G36*
X609500D02*
X607000D01*
Y247453D01*
X609500D01*
Y250153D01*
D02*
G37*
G36*
Y253854D02*
X607000D01*
Y251153D01*
X609500D01*
Y253854D01*
D02*
G37*
G36*
X539750Y256552D02*
X534500D01*
Y250902D01*
X539750D01*
Y256552D01*
D02*
G37*
G36*
X533500D02*
X528250D01*
Y250902D01*
X533500D01*
Y256552D01*
D02*
G37*
G36*
X673000Y196000D02*
X671500D01*
Y192500D01*
X675000D01*
Y194000D01*
X673000Y196000D01*
D02*
G37*
G36*
X670500D02*
X669000D01*
X667000Y194000D01*
Y192500D01*
X670500D01*
Y196000D01*
D02*
G37*
G36*
X483500Y197700D02*
X481500D01*
Y192500D01*
X483500D01*
Y197700D01*
D02*
G37*
G36*
X529840Y199063D02*
X528159D01*
Y197579D01*
X529840D01*
Y199063D01*
D02*
G37*
G36*
X624750Y198500D02*
X621100D01*
Y192650D01*
X624750D01*
Y198500D01*
D02*
G37*
G36*
X620100D02*
X616450D01*
Y192650D01*
X620100D01*
Y198500D01*
D02*
G37*
G36*
X653350Y191200D02*
X647500D01*
Y187550D01*
X653350D01*
Y191200D01*
D02*
G37*
G36*
X646500D02*
X640650D01*
Y187550D01*
X646500D01*
Y191200D01*
D02*
G37*
G36*
X483500Y191500D02*
X481500D01*
Y186300D01*
X483500D01*
Y191500D01*
D02*
G37*
G36*
X530399Y192145D02*
X530013D01*
X529469Y192037D01*
X529008Y191729D01*
X528700Y191268D01*
X528692Y191224D01*
X530399D01*
Y192145D01*
D02*
G37*
G36*
X675000Y191500D02*
X671500D01*
Y188000D01*
X673000D01*
X675000Y190000D01*
Y191500D01*
D02*
G37*
G36*
X670500D02*
X667000D01*
Y190000D01*
X669000Y188000D01*
X670500D01*
Y191500D01*
D02*
G37*
G36*
X672800Y205600D02*
X669200D01*
X667400Y203800D01*
Y200200D01*
X669200Y198400D01*
X672800D01*
X674600Y200200D01*
Y203800D01*
X672800Y205600D01*
D02*
G37*
G36*
X610300Y213300D02*
X607400D01*
Y208400D01*
X610300D01*
Y213300D01*
D02*
G37*
G36*
X606400D02*
X603500D01*
Y208400D01*
X606400D01*
Y213300D01*
D02*
G37*
G36*
X600350Y209900D02*
X594500D01*
Y206250D01*
X600350D01*
Y209900D01*
D02*
G37*
G36*
X644547Y212000D02*
X641847D01*
Y209500D01*
X644547D01*
Y212000D01*
D02*
G37*
G36*
X640846D02*
X638146D01*
Y209500D01*
X640846D01*
Y212000D01*
D02*
G37*
G36*
X672800Y215600D02*
X669200D01*
X667400Y213800D01*
Y210200D01*
X669200Y208400D01*
X672800D01*
X674600Y210200D01*
Y213800D01*
X672800Y215600D01*
D02*
G37*
G36*
X555000Y206150D02*
X553516D01*
Y204468D01*
X555000D01*
Y206150D01*
D02*
G37*
G36*
X568958Y204047D02*
X567277D01*
Y202563D01*
X568958D01*
Y204047D01*
D02*
G37*
G36*
X529840Y201547D02*
X528159D01*
Y200063D01*
X529840D01*
Y201547D01*
D02*
G37*
G36*
X593500Y209900D02*
X587650D01*
Y206250D01*
X593500D01*
Y209900D01*
D02*
G37*
G36*
X644547Y208500D02*
X641847D01*
Y206000D01*
X644547D01*
Y208500D01*
D02*
G37*
G36*
X640846D02*
X638146D01*
Y206000D01*
X640846D01*
Y208500D01*
D02*
G37*
%LPD*%
D10*
X504000Y192000D02*
D03*
X499000D02*
D03*
X494000D02*
D03*
X489000D02*
D03*
X484000D02*
D03*
X504000Y172000D02*
D03*
X499000D02*
D03*
X494000D02*
D03*
X489000D02*
D03*
X484000D02*
D03*
D11*
X620600Y185000D02*
D03*
X609488D02*
D03*
X620600Y199000D02*
D03*
X609488D02*
D03*
D12*
X534000Y250402D02*
D03*
Y275600D02*
D03*
D13*
X551470Y193972D02*
D03*
X549895D02*
D03*
X548320D02*
D03*
X546745D02*
D03*
X545171D02*
D03*
X543596D02*
D03*
X542021D02*
D03*
X540446D02*
D03*
X538871D02*
D03*
X537297D02*
D03*
X535722D02*
D03*
X534147D02*
D03*
Y170153D02*
D03*
X535722D02*
D03*
X537297D02*
D03*
X538871D02*
D03*
X540446D02*
D03*
X542021D02*
D03*
X543596D02*
D03*
X545171D02*
D03*
X546745D02*
D03*
X548320D02*
D03*
X549895D02*
D03*
X551470D02*
D03*
D14*
X530899Y190724D02*
D03*
Y189150D02*
D03*
Y187575D02*
D03*
Y186000D02*
D03*
Y184425D02*
D03*
Y182850D02*
D03*
Y181276D02*
D03*
Y179701D02*
D03*
Y178126D02*
D03*
Y176551D02*
D03*
Y174976D02*
D03*
Y173402D02*
D03*
X554718D02*
D03*
Y174976D02*
D03*
Y176551D02*
D03*
Y178126D02*
D03*
Y179701D02*
D03*
Y181276D02*
D03*
Y182850D02*
D03*
Y184425D02*
D03*
Y186000D02*
D03*
Y187575D02*
D03*
Y189150D02*
D03*
Y190724D02*
D03*
D15*
X542808Y182063D02*
D03*
D16*
X616000Y253000D02*
D03*
D17*
X618559D02*
D03*
X621118D02*
D03*
X623677D02*
D03*
X626236D02*
D03*
X628795D02*
D03*
X631354D02*
D03*
X633913D02*
D03*
X636473D02*
D03*
X639032D02*
D03*
X641591D02*
D03*
X644150D02*
D03*
X646709D02*
D03*
X649268D02*
D03*
X616000Y272685D02*
D03*
X618559D02*
D03*
X621118D02*
D03*
X623677D02*
D03*
X626236D02*
D03*
X628795D02*
D03*
X631354D02*
D03*
X633913D02*
D03*
X636473D02*
D03*
X639032D02*
D03*
X641591D02*
D03*
X644150D02*
D03*
X646709D02*
D03*
X649268D02*
D03*
D18*
X564808Y188142D02*
D03*
Y197984D02*
D03*
D19*
X580756Y173846D02*
D03*
X575244Y173846D02*
D03*
X580756Y167154D02*
D03*
X575244D02*
D03*
D20*
X616000Y238300D02*
D03*
D21*
X625100Y213800D02*
D03*
X616000D02*
D03*
X606900D02*
D03*
D22*
X637071Y167661D02*
D03*
Y170220D02*
D03*
Y172800D02*
D03*
Y175400D02*
D03*
X620900D02*
D03*
Y172800D02*
D03*
Y170220D02*
D03*
Y167661D02*
D03*
D23*
X489500Y142925D02*
D03*
Y156311D02*
D03*
D24*
X508000Y157500D02*
D03*
X521386D02*
D03*
X508000Y148000D02*
D03*
X521386D02*
D03*
D25*
X487653Y234500D02*
D03*
X494400D02*
D03*
X565654Y237000D02*
D03*
X572400D02*
D03*
X565154Y244000D02*
D03*
X571900D02*
D03*
X542654Y232000D02*
D03*
X549400D02*
D03*
X487797Y227371D02*
D03*
X494543D02*
D03*
X621846Y152000D02*
D03*
X615100D02*
D03*
X641347Y209000D02*
D03*
X634600D02*
D03*
X645053Y167500D02*
D03*
X651800D02*
D03*
X619153Y161500D02*
D03*
X625900D02*
D03*
X548654Y244000D02*
D03*
X555400D02*
D03*
D26*
X512000Y207653D02*
D03*
Y214400D02*
D03*
X519000Y207653D02*
D03*
Y214400D02*
D03*
X514000Y191654D02*
D03*
Y198400D02*
D03*
X632500Y148153D02*
D03*
Y154900D02*
D03*
X610000Y250654D02*
D03*
Y257400D02*
D03*
D27*
X535740Y231937D02*
D03*
X528200D02*
D03*
X532000Y223600D02*
D03*
D28*
X503800Y206095D02*
D03*
X498244D02*
D03*
X503800Y218000D02*
D03*
X498244D02*
D03*
D29*
X605000Y171500D02*
D03*
X612874D02*
D03*
D30*
X557630Y165000D02*
D03*
X561370D02*
D03*
X538130Y162000D02*
D03*
X541870D02*
D03*
X542630Y165000D02*
D03*
X546370D02*
D03*
D31*
X567035Y144760D02*
D03*
X558965D02*
D03*
X567035Y152240D02*
D03*
X558965D02*
D03*
D32*
X563000Y143933D02*
D03*
Y153067D02*
D03*
D33*
X562236Y252000D02*
D03*
X568142D02*
D03*
X574047D02*
D03*
X579953D02*
D03*
X585858D02*
D03*
X591764D02*
D03*
D34*
X551488Y272472D02*
D03*
X602512D02*
D03*
D35*
X564032Y140000D02*
D03*
X567969D02*
D03*
X566777Y202063D02*
D03*
X562840D02*
D03*
X566777Y184063D02*
D03*
X562840D02*
D03*
X534277Y199563D02*
D03*
X530340D02*
D03*
X534469Y164000D02*
D03*
X530532D02*
D03*
X560840Y170063D02*
D03*
X564777D02*
D03*
X565531Y179500D02*
D03*
X569468D02*
D03*
X564532Y165000D02*
D03*
X568469D02*
D03*
X550032D02*
D03*
X553968D02*
D03*
X534469Y160500D02*
D03*
X530532D02*
D03*
X574840Y178563D02*
D03*
X578777D02*
D03*
X579840Y162563D02*
D03*
X583777D02*
D03*
D36*
X594000Y210400D02*
D03*
Y221512D02*
D03*
X647000Y187050D02*
D03*
Y175938D02*
D03*
D37*
X555500Y200031D02*
D03*
Y203969D02*
D03*
X554500Y161969D02*
D03*
Y158031D02*
D03*
D38*
X490754Y262754D02*
X496000Y268000D01*
X490754Y232127D02*
Y262754D01*
X486000Y268000D02*
X487653Y266347D01*
Y234500D02*
Y266347D01*
X537500Y208500D02*
X542000Y213000D01*
X535740Y231937D02*
X542000Y225677D01*
Y213000D02*
Y225677D01*
X519400Y197900D02*
X530000Y208500D01*
X519400Y194130D02*
Y197900D01*
X548320Y193972D02*
Y218939D01*
X545171Y193972D02*
Y220032D01*
X546745Y193972D02*
Y219627D01*
X545171Y220032D02*
X556500Y231362D01*
Y239100D01*
X558800Y241400D01*
X560370D01*
X561600Y242630D01*
Y244370D01*
X560155Y245815D02*
X561600Y244370D01*
X560155Y245815D02*
Y257655D01*
X568792Y266292D01*
X604107D01*
X612713Y274898D01*
Y276259D01*
X614638Y278185D01*
X617362D01*
X627924Y276585D02*
X628795Y275713D01*
Y272685D02*
Y275713D01*
X617362Y278185D02*
X618962Y276585D01*
X627924D01*
X626236Y269236D02*
Y272685D01*
X626000Y269000D02*
X626236Y269236D01*
X622400Y265400D02*
X626000Y269000D01*
X619630Y265400D02*
X622400D01*
X616030Y269000D02*
X619630Y265400D01*
X612315Y269000D02*
X616030D01*
X564247Y178216D02*
X565531Y179500D01*
X564148Y178216D02*
X564247D01*
X563864Y178500D02*
X564148Y178216D01*
X560136Y178500D02*
X563864D01*
X558187Y176551D02*
X560136Y178500D01*
X558310Y174976D02*
X560633Y177300D01*
X558432Y173402D02*
X561130Y176100D01*
X554718Y173402D02*
X558432D01*
X562870Y176100D02*
X566470Y172500D01*
X563367Y177300D02*
X566757Y173909D01*
X560633Y177300D02*
X563367D01*
X561130Y176100D02*
X562870D01*
X522000Y172000D02*
X524976Y174976D01*
X530899D01*
X504000Y172000D02*
X522000D01*
X518097Y166400D02*
X523697Y172000D01*
X499100Y166400D02*
X518097D01*
X499000Y166500D02*
X499100Y166400D01*
X523697Y172000D02*
X529497D01*
X530899Y173402D01*
X499000Y166500D02*
Y172000D01*
X637071Y170220D02*
X639356D01*
X579564Y162839D02*
X579840Y162563D01*
X551582Y170041D02*
X559256D01*
X551470Y170153D02*
X551582Y170041D01*
X566757Y173909D02*
X574052D01*
X554718Y176551D02*
X558187D01*
X559368Y170153D02*
X560749D01*
X559256Y170041D02*
X559368Y170153D01*
X579564Y162839D02*
Y167936D01*
X574052Y173909D02*
X574840Y174697D01*
Y178563D01*
X569500Y215000D02*
X582000Y202500D01*
Y189000D02*
Y202500D01*
X560840Y172840D02*
X562000Y174000D01*
X560840Y170063D02*
Y172840D01*
X560749Y170153D02*
X560840Y170063D01*
X516900Y193236D02*
Y200973D01*
X518100Y193733D02*
Y206753D01*
X519400Y194130D02*
X525955Y187575D01*
X521500Y194500D02*
Y195000D01*
X487500Y227075D02*
X487797Y227371D01*
X516373Y201500D02*
X516900Y200973D01*
X521500Y194500D02*
X526850Y189150D01*
X525955Y187575D02*
X530899D01*
X518100Y206753D02*
X519000Y207653D01*
X526850Y189150D02*
X530899D01*
X498244Y206095D02*
X499026Y205312D01*
X530805Y184519D02*
X530899Y184425D01*
X512000Y203324D02*
Y207653D01*
Y203324D02*
X513824Y201500D01*
X516373D01*
X555500Y199017D02*
Y200031D01*
Y198003D02*
Y199017D01*
X534277Y199563D02*
X534428Y199412D01*
X661000Y270000D02*
Y272000D01*
X659721Y222000D02*
X660500D01*
X551470Y193972D02*
X555500Y198003D01*
X556820Y187575D02*
X562840Y193595D01*
X554718Y187575D02*
X556820D01*
X562667Y184236D02*
Y186000D01*
X554718D02*
X562667D01*
X562840Y193595D02*
Y194595D01*
X548320Y170153D02*
Y173402D01*
X549895Y174976D01*
X545171D02*
X546745Y176551D01*
X542808Y177339D02*
X545171Y174976D01*
X546745Y170153D02*
Y176551D01*
X549895Y170153D02*
X551470D01*
X566470Y172500D02*
X569662D01*
X578309Y169191D02*
X579564Y167936D01*
X578309Y169191D02*
Y169889D01*
X577782Y170416D02*
X578309Y169889D01*
X534500Y160500D02*
X535000Y161000D01*
X521386Y148000D02*
X524400Y151014D01*
X521386Y157500D02*
Y164053D01*
X538871Y168738D02*
Y170153D01*
X537297Y168860D02*
Y170153D01*
X524400Y151014D02*
Y165370D01*
X536182Y166049D02*
X538871Y168738D01*
X535685Y167249D02*
X537297Y168860D01*
X528418Y167249D02*
X535685D01*
X527921Y166049D02*
X536182D01*
X496589Y163400D02*
X516800D01*
X489500Y156311D02*
X496589Y163400D01*
X525630Y166600D02*
X527370D01*
X525133Y167800D02*
X527867D01*
X524400Y165370D02*
X525630Y166600D01*
X527370D02*
X527921Y166049D01*
X521386Y164053D02*
X525133Y167800D01*
X527867D02*
X528418Y167249D01*
X532994Y169000D02*
X534147Y170153D01*
X516800Y163400D02*
X522400Y169000D01*
X532994D01*
X534147Y193972D02*
Y199433D01*
X514000Y191654D02*
X522803Y182850D01*
X530899D01*
X516900Y193236D02*
X525617Y184519D01*
X525833Y186000D02*
X530899D01*
X518100Y193733D02*
X525833Y186000D01*
X507252Y181276D02*
X530899D01*
X515400Y218000D02*
X519000Y214400D01*
X503800Y218000D02*
X515400D01*
X510400Y202000D02*
X514000Y198400D01*
X507500Y202000D02*
X510400D01*
X499298Y200304D02*
X499944Y200951D01*
Y202177D01*
X499026Y203095D02*
X499944Y202177D01*
X499026Y203095D02*
Y205312D01*
X498244Y218000D02*
X501844Y214400D01*
X512000D01*
X485897Y225671D02*
Y229071D01*
Y225671D02*
X487500D01*
Y227075D01*
X501400Y187127D02*
X507252Y181276D01*
X501400Y187127D02*
Y197073D01*
X500873Y197600D02*
X501400Y197073D01*
X495400Y197600D02*
X500873D01*
X484697Y208303D02*
Y231543D01*
Y208303D02*
X495400Y197600D01*
X488000Y220500D02*
Y226574D01*
X487797Y231600D02*
X490226D01*
X490754Y232127D01*
X487797Y227371D02*
Y229071D01*
Y231600D01*
X485897Y229071D02*
X487797D01*
X488151D01*
X487500Y227075D02*
X488000Y226574D01*
X484697Y231543D02*
X487653Y234500D01*
X623677Y253000D02*
X626236D01*
X525711Y184425D02*
X530899D01*
X554718Y174976D02*
X558310D01*
X569662Y172500D02*
X571746Y170416D01*
X577782D01*
D39*
X516000Y244137D02*
Y268000D01*
Y244137D02*
X528200Y231937D01*
X506000Y268000D02*
Y274000D01*
X509500Y277500D01*
X541000D01*
X656000Y177000D02*
X661000Y182000D01*
X648062Y177000D02*
X656000D01*
X647000Y175938D02*
X648062Y177000D01*
X646462Y175400D02*
X647000Y175938D01*
X637071Y175400D02*
X646462D01*
X632600Y207000D02*
X634600Y209000D01*
X632313Y207000D02*
X632600D01*
X632263Y207050D02*
X632313Y207000D01*
X624050Y207050D02*
X632263D01*
X624000Y207000D02*
X624050Y207050D01*
X617484Y207000D02*
X624000D01*
X609488Y199004D02*
X617484Y207000D01*
X609488Y199000D02*
Y199004D01*
X634600Y233500D02*
Y235600D01*
Y230500D02*
Y233500D01*
Y209000D02*
Y230500D01*
X543500Y277000D02*
Y277500D01*
X541000D02*
X543500D01*
X634600Y235600D02*
X635000Y236000D01*
X625100Y213800D02*
X629800D01*
X634600Y209000D01*
D40*
X639356Y170220D02*
X642333D01*
X645053Y167500D01*
X611000Y152000D02*
X615100D01*
X605000Y158000D02*
X611000Y152000D01*
X605000Y158000D02*
Y171500D01*
X637071Y172800D02*
Y175400D01*
X536630Y160500D02*
X538130Y162000D01*
X534469Y160500D02*
X534500D01*
X536630D01*
D41*
X637071Y159471D02*
Y167661D01*
X632500Y154900D02*
X637071Y159471D01*
X629600Y152000D02*
X632500Y154900D01*
X621846Y152000D02*
X629600D01*
X616000Y156500D02*
X620900D01*
X625900Y161500D01*
X615000Y157500D02*
X616000Y156500D01*
X615000Y157500D02*
Y169374D01*
X617000Y163654D02*
X619153Y161500D01*
X617000Y163654D02*
Y170000D01*
X612874Y171500D02*
X615000Y169374D01*
X617000Y170000D02*
X617220Y170220D01*
X620900D01*
X545171Y166199D02*
Y170153D01*
Y166199D02*
X546370Y165000D01*
X543596Y165966D02*
Y170153D01*
X542630Y165000D02*
X543596Y165966D01*
X546370Y165000D02*
X550032D01*
X553968D02*
X557630D01*
X553968Y162500D02*
Y165000D01*
X542630Y162760D02*
Y165000D01*
X542021Y168069D02*
Y170153D01*
X538130Y162000D02*
Y164178D01*
X542021Y168069D01*
X534469Y164000D02*
X535972D01*
X540446Y168474D01*
Y170153D01*
D42*
X609488Y185000D02*
Y199000D01*
X605000Y180512D02*
X609488Y185000D01*
X605000Y171500D02*
Y180512D01*
X563007Y122655D02*
Y141115D01*
X556867Y116516D02*
X563007Y122655D01*
X494500Y116516D02*
X556867D01*
X616000Y213800D02*
Y238300D01*
D43*
X546745Y219627D02*
X557900Y230782D01*
X548500Y219119D02*
X559500Y230119D01*
X557900Y236747D02*
X565154Y244000D01*
X557900Y230782D02*
Y236747D01*
X559500Y234082D02*
X561418Y236000D01*
X559500Y230119D02*
Y234082D01*
X561418Y236000D02*
X564653D01*
X580858Y257000D02*
X596795D01*
X614113Y274318D01*
Y275679D01*
X615218Y276785D02*
X616782D01*
X614113Y275679D02*
X615218Y276785D01*
X617887Y274632D02*
Y275679D01*
Y274632D02*
X618100D01*
X616782Y276785D02*
X617887Y275679D01*
X621118Y267882D02*
Y272685D01*
X562840Y194595D02*
Y202063D01*
X564653Y236000D02*
X567242Y233412D01*
X574664D01*
X580800Y239547D01*
X616000Y238300D02*
X624300D01*
X580800Y239547D02*
Y251153D01*
X574000Y257000D02*
X580858D01*
X571000Y254000D02*
X574000Y257000D01*
X571000Y249847D02*
Y254000D01*
X565154Y244000D02*
X571000Y249847D01*
X574047Y246147D02*
Y252000D01*
X580858Y257000D02*
X585858Y252000D01*
X579953D02*
X580800Y251153D01*
X621118Y267882D02*
X621500Y267500D01*
X653500Y264500D02*
X661000Y272000D01*
X655500Y256500D02*
X661000Y262000D01*
X653500Y250500D02*
Y264500D01*
X652600Y243600D02*
X661000Y252000D01*
X650500Y247500D02*
X653500Y250500D01*
X648000Y247500D02*
X650500D01*
X646709Y248791D02*
X648000Y247500D01*
X646709Y248791D02*
Y253000D01*
X655500Y249500D02*
Y256500D01*
X651500Y245500D02*
X655500Y249500D01*
X644150Y248350D02*
Y253000D01*
Y248350D02*
X647000Y245500D01*
X651500D01*
X645400Y243600D02*
X652600D01*
X641591Y247409D02*
X645400Y243600D01*
X641591Y247409D02*
Y253000D01*
X639032Y247468D02*
Y253000D01*
X659721Y222000D02*
X661000D01*
X656000Y207000D02*
X661000Y202000D01*
X628795Y245528D02*
Y253000D01*
Y245528D02*
X656000Y218323D01*
Y207000D02*
Y218323D01*
X661000Y212000D02*
Y215944D01*
X631354Y245590D02*
Y253000D01*
Y245590D02*
X661000Y215944D01*
X633913Y246087D02*
Y253000D01*
Y246087D02*
X658000Y222000D01*
X659721D01*
X636473Y246528D02*
Y253000D01*
Y246528D02*
X651000Y232000D01*
X661000D01*
X639032Y247468D02*
X644500Y242000D01*
X661000D01*
X597000Y252531D02*
Y253500D01*
X580800Y251153D02*
X583021Y248932D01*
X593400D01*
X597000Y252531D01*
D44*
X523869Y219091D02*
X534277Y208683D01*
Y199563D02*
Y208683D01*
X549400Y237347D02*
X555047Y242994D01*
X549400Y235600D02*
Y237347D01*
X533740Y235600D02*
X549400D01*
X532540Y234400D02*
X533740Y235600D01*
X532540Y229803D02*
Y234400D01*
X527053Y224316D02*
X532540Y229803D01*
X535740Y231937D02*
X542591D01*
X494543Y227371D02*
X521629D01*
X523869Y225131D01*
Y219091D02*
Y225131D01*
X610000Y266685D02*
X612315Y269000D01*
X610000Y257400D02*
Y266685D01*
X542591Y231937D02*
X542654Y232000D01*
X561370Y165000D02*
X564532D01*
X569500Y215000D02*
X576012Y221512D01*
X524684Y224316D02*
X527053D01*
X555500Y199017D02*
X559500Y203017D01*
X549400Y232000D02*
Y235600D01*
X556000Y244000D02*
X556500Y243500D01*
X576012Y221512D02*
X594000D01*
X614174Y172800D02*
X620900D01*
X573500Y237000D02*
X575500Y239000D01*
Y240450D01*
X559500Y203017D02*
Y205000D01*
X569500Y215000D01*
X572012Y221512D02*
X576012D01*
X556500Y243500D02*
X559500D01*
X575500Y240450D02*
X578450D01*
X578500Y240500D01*
X575500Y240450D02*
Y241900D01*
X573400Y244000D02*
X575500Y241900D01*
X504000Y192000D02*
Y206401D01*
X500307Y210094D02*
X504000Y206401D01*
X500087Y210094D02*
X500307D01*
X494543Y215638D02*
X500087Y210094D01*
X494543Y215638D02*
Y227371D01*
Y234357D01*
X494400Y234500D02*
X494543Y234357D01*
X494000Y192000D02*
X499000D01*
X621118Y253000D02*
X623677D01*
X616000D02*
X618559D01*
X621118D01*
X612315Y269000D02*
X616000Y272685D01*
Y238300D02*
Y253000D01*
X610000Y257400D02*
X611600D01*
X616000Y253000D01*
D45*
X562951Y155701D02*
Y163500D01*
D46*
X661000Y182000D02*
Y192000D01*
D47*
X516000Y268000D02*
D03*
X506000D02*
D03*
X496000D02*
D03*
X486000D02*
D03*
D48*
X671000Y182000D02*
D03*
X661000D02*
D03*
X671000Y192000D02*
D03*
X661000D02*
D03*
X671000Y202000D02*
D03*
X661000D02*
D03*
X671000Y212000D02*
D03*
X661000D02*
D03*
X671000Y222000D02*
D03*
X661000D02*
D03*
X671000Y232000D02*
D03*
X661000D02*
D03*
X671000Y242000D02*
D03*
X661000D02*
D03*
X671000Y252000D02*
D03*
X661000D02*
D03*
X671000Y262000D02*
D03*
X661000D02*
D03*
X671000Y272000D02*
D03*
D49*
X661000D02*
D03*
D50*
X594000Y203500D02*
D03*
X602000Y209500D02*
D03*
Y212500D02*
D03*
X602500Y202000D02*
D03*
X596000Y182500D02*
D03*
Y174500D02*
D03*
X651500Y194000D02*
D03*
X642500D02*
D03*
X656000Y187000D02*
D03*
Y163500D02*
D03*
Y172000D02*
D03*
X647000Y194000D02*
D03*
X634600Y230500D02*
D03*
X631000Y204000D02*
D03*
X627000D02*
D03*
X631000Y189000D02*
D03*
X627000D02*
D03*
X631000Y192500D02*
D03*
X627000D02*
D03*
X631000Y181500D02*
D03*
Y196500D02*
D03*
X536000Y228000D02*
D03*
Y225000D02*
D03*
Y222000D02*
D03*
X535500Y219000D02*
D03*
X532500D02*
D03*
X530000Y208500D02*
D03*
X537500D02*
D03*
X543000Y250500D02*
D03*
X525000D02*
D03*
X540500Y259500D02*
D03*
X537500D02*
D03*
X534500D02*
D03*
X531500D02*
D03*
X528500D02*
D03*
X634600Y233500D02*
D03*
X541000Y277500D02*
D03*
X543500D02*
D03*
X596000Y156500D02*
D03*
X595500Y148000D02*
D03*
X595000Y140000D02*
D03*
X585000D02*
D03*
X575000D02*
D03*
X555000D02*
D03*
X481000Y155000D02*
D03*
Y145000D02*
D03*
X485000Y140000D02*
D03*
X495000D02*
D03*
X505000D02*
D03*
X515000D02*
D03*
X525000D02*
D03*
X535000D02*
D03*
X545000D02*
D03*
X568000Y157000D02*
D03*
Y161000D02*
D03*
X569000Y169000D02*
D03*
X571000Y154000D02*
D03*
X555000D02*
D03*
X529500Y219000D02*
D03*
X582000Y189000D02*
D03*
X562000Y174000D02*
D03*
X521500Y195000D02*
D03*
X527500Y221000D02*
D03*
X481500Y182500D02*
D03*
X497000D02*
D03*
X635000Y236000D02*
D03*
X530308Y203563D02*
D03*
X596000Y165000D02*
D03*
X568000Y258000D02*
D03*
X543000Y244000D02*
D03*
X641000Y215000D02*
D03*
Y204000D02*
D03*
X585000Y211000D02*
D03*
X583308Y178563D02*
D03*
X579000Y182500D02*
D03*
X585308Y174563D02*
D03*
X529500Y194500D02*
D03*
X571308Y201563D02*
D03*
Y183563D02*
D03*
X581500Y158500D02*
D03*
X555500Y208000D02*
D03*
X547500Y157500D02*
D03*
X542500D02*
D03*
X550500D02*
D03*
X588308Y162563D02*
D03*
X584308Y158563D02*
D03*
X627000Y172000D02*
D03*
Y168000D02*
D03*
Y176000D02*
D03*
Y181500D02*
D03*
X637000D02*
D03*
Y187500D02*
D03*
X602500Y205500D02*
D03*
X627000Y200500D02*
D03*
X631000Y185000D02*
D03*
X607000Y222000D02*
D03*
X631000Y200500D02*
D03*
X572012Y221512D02*
D03*
X559500Y243500D02*
D03*
X550500Y154000D02*
D03*
X537500Y157500D02*
D03*
X532500D02*
D03*
X555000Y144000D02*
D03*
X571000D02*
D03*
X576000Y161000D02*
D03*
X527500Y156100D02*
D03*
X526500Y160300D02*
D03*
Y164500D02*
D03*
X605000Y140000D02*
D03*
X615000D02*
D03*
X625000D02*
D03*
X635000D02*
D03*
X492000Y182500D02*
D03*
X632000Y176000D02*
D03*
Y172000D02*
D03*
Y168000D02*
D03*
X627000Y196500D02*
D03*
Y185000D02*
D03*
X578500Y240500D02*
D03*
X648000Y258500D02*
D03*
X651000D02*
D03*
X604500Y250500D02*
D03*
X507500Y202000D02*
D03*
X499298Y200304D02*
D03*
X488000Y220500D02*
D03*
X621500Y267500D02*
D03*
X597000Y253500D02*
D03*
D51*
X549895Y189150D02*
D03*
Y184425D02*
D03*
Y179701D02*
D03*
Y174976D02*
D03*
X545171Y189150D02*
D03*
Y184425D02*
D03*
Y179701D02*
D03*
Y174976D02*
D03*
X540446Y189150D02*
D03*
Y184425D02*
D03*
Y179701D02*
D03*
Y174976D02*
D03*
X535722Y189150D02*
D03*
Y184425D02*
D03*
Y179701D02*
D03*
Y174976D02*
D03*
M02*
