%FSLAX25Y25*%
%MOIN*%
G70*
G01*
G75*
G04 Layer_Physical_Order=2*
G04 Layer_Color=16711680*
%ADD10R,0.03000X0.09400*%
%ADD11R,0.06300X0.10700*%
%ADD12R,0.09500X0.10300*%
%ADD13O,0.00787X0.02559*%
%ADD14O,0.02559X0.00787*%
%ADD15R,0.18504X0.18504*%
%ADD16R,0.01575X0.06000*%
%ADD17O,0.01575X0.06000*%
%ADD18R,0.07087X0.03937*%
%ADD19R,0.04331X0.04724*%
%ADD20R,0.14200X0.08700*%
%ADD21R,0.04800X0.08800*%
%ADD22R,0.04800X0.01600*%
%ADD23R,0.06693X0.03150*%
%ADD24R,0.03150X0.06693*%
%ADD25R,0.04400X0.04000*%
%ADD26R,0.04000X0.04400*%
%ADD27R,0.03200X0.03600*%
%ADD28R,0.02800X0.04800*%
%ADD29R,0.05512X0.11811*%
%ADD30R,0.02559X0.01969*%
%ADD31R,0.02953X0.03150*%
%ADD32R,0.01969X0.02284*%
%ADD33R,0.02362X0.03937*%
%ADD34R,0.04921X0.07087*%
%ADD35R,0.02362X0.01969*%
%ADD36R,0.10700X0.06300*%
%ADD37R,0.01969X0.02362*%
%ADD38C,0.00600*%
%ADD39C,0.02500*%
%ADD40C,0.01200*%
%ADD41C,0.00800*%
%ADD42C,0.05000*%
%ADD43C,0.01000*%
%ADD44C,0.02000*%
%ADD45C,0.04500*%
%ADD46C,0.03700*%
%ADD47C,0.05906*%
G04:AMPARAMS|DCode=48|XSize=60mil|YSize=60mil|CornerRadius=0mil|HoleSize=0mil|Usage=FLASHONLY|Rotation=270.000|XOffset=0mil|YOffset=0mil|HoleType=Round|Shape=Octagon|*
%AMOCTAGOND48*
4,1,8,-0.01500,-0.03000,0.01500,-0.03000,0.03000,-0.01500,0.03000,0.01500,0.01500,0.03000,-0.01500,0.03000,-0.03000,0.01500,-0.03000,-0.01500,-0.01500,-0.03000,0.0*
%
%ADD48OCTAGOND48*%

%ADD49R,0.06000X0.06000*%
%ADD50C,0.02400*%
%ADD51C,0.02598*%
G36*
X680200Y278146D02*
Y139100D01*
X660525D01*
X660289Y139600D01*
X661117Y140609D01*
X661958Y142184D01*
X662477Y143892D01*
X662652Y145669D01*
X662477Y147446D01*
X661958Y149155D01*
X661117Y150730D01*
X659984Y152110D01*
X658604Y153243D01*
X657029Y154084D01*
X655320Y154603D01*
X653543Y154778D01*
X651766Y154603D01*
X650058Y154084D01*
X648483Y153243D01*
X647103Y152110D01*
X645970Y150730D01*
X645128Y149155D01*
X644610Y147446D01*
X644435Y145669D01*
X644610Y143892D01*
X645128Y142184D01*
X645970Y140609D01*
X646798Y139600D01*
X646561Y139100D01*
X480353Y139100D01*
X480000Y139453D01*
X480000Y278500D01*
X538888D01*
X539213Y278000D01*
X539114Y277500D01*
X539257Y276778D01*
X539666Y276166D01*
X540278Y275757D01*
X541000Y275614D01*
X622219D01*
X625114Y272719D01*
Y244000D01*
X625257Y243278D01*
X625666Y242666D01*
X633114Y235219D01*
Y234516D01*
X632904Y234202D01*
X632765Y233500D01*
X632904Y232798D01*
X633114Y232484D01*
Y231516D01*
X632904Y231202D01*
X632765Y230500D01*
X632904Y229798D01*
X633302Y229202D01*
X633898Y228804D01*
X634600Y228665D01*
X635302Y228804D01*
X635898Y229202D01*
X635985Y229333D01*
X636334Y229566D01*
X636743Y230178D01*
X636886Y230900D01*
Y236000D01*
X636743Y236722D01*
X636334Y237334D01*
X628886Y244781D01*
Y273500D01*
X628743Y274222D01*
X628607Y274425D01*
X628334Y274834D01*
X625130Y278038D01*
X625321Y278500D01*
X679846D01*
X680200Y278146D01*
D02*
G37*
%LPC*%
G36*
X488000Y222335D02*
X487298Y222196D01*
X486702Y221798D01*
X486304Y221202D01*
X486165Y220500D01*
X486304Y219798D01*
X486702Y219202D01*
X487082Y218948D01*
Y202000D01*
X487152Y201649D01*
X487351Y201351D01*
X494351Y194351D01*
X494649Y194152D01*
X494707Y194141D01*
X495000Y194082D01*
X519948D01*
X520202Y193702D01*
X520798Y193304D01*
X521500Y193165D01*
X522202Y193304D01*
X522798Y193702D01*
X523196Y194298D01*
X523335Y195000D01*
X523196Y195702D01*
X522798Y196298D01*
X522202Y196696D01*
X521500Y196835D01*
X520798Y196696D01*
X520202Y196298D01*
X519948Y195918D01*
X495380D01*
X488918Y202380D01*
Y218948D01*
X489298Y219202D01*
X489696Y219798D01*
X489835Y220500D01*
X489696Y221202D01*
X489298Y221798D01*
X488702Y222196D01*
X488000Y222335D01*
D02*
G37*
G36*
X673000Y196000D02*
X671500D01*
Y192500D01*
X675000D01*
Y194000D01*
X673000Y196000D01*
D02*
G37*
G36*
X662800Y195600D02*
X659200D01*
X657400Y193800D01*
Y190200D01*
X659200Y188400D01*
X662800D01*
X664600Y190200D01*
Y193800D01*
X662800Y195600D01*
D02*
G37*
G36*
X670500Y196000D02*
X669000D01*
X667000Y194000D01*
Y192500D01*
X670500D01*
Y196000D01*
D02*
G37*
G36*
X662800Y215600D02*
X659200D01*
X657400Y213800D01*
Y210200D01*
X659200Y208400D01*
X662800D01*
X664600Y210200D01*
Y213800D01*
X662800Y215600D01*
D02*
G37*
G36*
X672800D02*
X669200D01*
X667400Y213800D01*
Y210200D01*
X669200Y208400D01*
X672800D01*
X674600Y210200D01*
Y213800D01*
X672800Y215600D01*
D02*
G37*
G36*
X507500Y203835D02*
X506798Y203696D01*
X506202Y203298D01*
X505804Y202702D01*
X505665Y202000D01*
X505747Y201589D01*
X505419Y201222D01*
X500849D01*
X500595Y201602D01*
X500000Y202000D01*
X499298Y202140D01*
X498595Y202000D01*
X498000Y201602D01*
X497602Y201007D01*
X497462Y200304D01*
X497602Y199602D01*
X498000Y199007D01*
X498595Y198609D01*
X499298Y198469D01*
X500000Y198609D01*
X500595Y199007D01*
X500849Y199387D01*
X505804D01*
X506156Y199457D01*
X506453Y199656D01*
X507052Y200254D01*
X507500Y200165D01*
X508202Y200304D01*
X508798Y200702D01*
X509196Y201298D01*
X509335Y202000D01*
X509196Y202702D01*
X508798Y203298D01*
X508202Y203696D01*
X507500Y203835D01*
D02*
G37*
G36*
X662800Y205600D02*
X659200D01*
X657400Y203800D01*
Y200200D01*
X659200Y198400D01*
X662800D01*
X664600Y200200D01*
Y203800D01*
X662800Y205600D01*
D02*
G37*
G36*
X672800D02*
X669200D01*
X667400Y203800D01*
Y200200D01*
X669200Y198400D01*
X672800D01*
X674600Y200200D01*
Y203800D01*
X672800Y205600D01*
D02*
G37*
G36*
X486500Y184591D02*
X485829Y184502D01*
X485205Y184244D01*
X484668Y183832D01*
X484256Y183295D01*
X483998Y182670D01*
X483909Y182000D01*
X483998Y181330D01*
X484256Y180705D01*
X484668Y180168D01*
X485205Y179756D01*
X485829Y179498D01*
X486500Y179409D01*
X487171Y179498D01*
X487795Y179756D01*
X488332Y180168D01*
X488744Y180705D01*
X489002Y181330D01*
X489091Y182000D01*
X489002Y182670D01*
X488744Y183295D01*
X488332Y183832D01*
X487795Y184244D01*
X487171Y184502D01*
X486500Y184591D01*
D02*
G37*
G36*
X501500D02*
X500830Y184502D01*
X500205Y184244D01*
X499668Y183832D01*
X499256Y183295D01*
X498998Y182670D01*
X498909Y182000D01*
X498998Y181330D01*
X499256Y180705D01*
X499668Y180168D01*
X500205Y179756D01*
X500830Y179498D01*
X501500Y179409D01*
X502171Y179498D01*
X502795Y179756D01*
X503332Y180168D01*
X503744Y180705D01*
X504002Y181330D01*
X504091Y182000D01*
X504002Y182670D01*
X503744Y183295D01*
X503332Y183832D01*
X502795Y184244D01*
X502171Y184502D01*
X501500Y184591D01*
D02*
G37*
G36*
X662800Y185600D02*
X659200D01*
X657400Y183800D01*
Y180200D01*
X659200Y178400D01*
X662800D01*
X664600Y180200D01*
Y183800D01*
X662800Y185600D01*
D02*
G37*
G36*
X670500Y181500D02*
X667000D01*
Y180000D01*
X669000Y178000D01*
X670500D01*
Y181500D01*
D02*
G37*
G36*
X675000D02*
X671500D01*
Y178000D01*
X673000D01*
X675000Y180000D01*
Y181500D01*
D02*
G37*
G36*
X670500Y191500D02*
X667000D01*
Y190000D01*
X669000Y188000D01*
X670500D01*
Y191500D01*
D02*
G37*
G36*
X675000D02*
X671500D01*
Y188000D01*
X673000D01*
X675000Y190000D01*
Y191500D01*
D02*
G37*
G36*
X582000Y190835D02*
X581298Y190696D01*
X580702Y190298D01*
X580304Y189702D01*
X580280Y189577D01*
X565620Y174918D01*
X563552D01*
X563298Y175298D01*
X562702Y175696D01*
X562000Y175835D01*
X561298Y175696D01*
X560702Y175298D01*
X560304Y174702D01*
X560165Y174000D01*
X560304Y173298D01*
X560702Y172702D01*
X561298Y172304D01*
X562000Y172165D01*
X562702Y172304D01*
X563298Y172702D01*
X563552Y173082D01*
X566000D01*
X566351Y173152D01*
X566649Y173351D01*
X580881Y187583D01*
X581298Y187304D01*
X582000Y187165D01*
X582702Y187304D01*
X583298Y187702D01*
X583696Y188298D01*
X583835Y189000D01*
X583696Y189702D01*
X583298Y190298D01*
X582702Y190696D01*
X582000Y190835D01*
D02*
G37*
G36*
X670500Y186000D02*
X669000D01*
X667000Y184000D01*
Y182500D01*
X670500D01*
Y186000D01*
D02*
G37*
G36*
X673000D02*
X671500D01*
Y182500D01*
X675000D01*
Y184000D01*
X673000Y186000D01*
D02*
G37*
G36*
X537500Y210335D02*
X536798Y210196D01*
X536202Y209798D01*
X535948Y209418D01*
X531552D01*
X531298Y209798D01*
X530702Y210196D01*
X530000Y210335D01*
X529298Y210196D01*
X528702Y209798D01*
X528304Y209202D01*
X528165Y208500D01*
X528304Y207798D01*
X528702Y207202D01*
X529298Y206804D01*
X530000Y206665D01*
X530702Y206804D01*
X531298Y207202D01*
X531552Y207582D01*
X535948D01*
X536202Y207202D01*
X536798Y206804D01*
X537500Y206665D01*
X538202Y206804D01*
X538798Y207202D01*
X539196Y207798D01*
X539335Y208500D01*
X539196Y209202D01*
X538798Y209798D01*
X538202Y210196D01*
X537500Y210335D01*
D02*
G37*
G36*
X486000Y271583D02*
X485073Y271461D01*
X484208Y271103D01*
X483466Y270534D01*
X482897Y269792D01*
X482539Y268927D01*
X482417Y268000D01*
X482539Y267073D01*
X482897Y266208D01*
X483466Y265466D01*
X484208Y264897D01*
X485073Y264539D01*
X486000Y264417D01*
X486928Y264539D01*
X487792Y264897D01*
X488534Y265466D01*
X489103Y266208D01*
X489461Y267073D01*
X489583Y268000D01*
X489461Y268927D01*
X489103Y269792D01*
X488534Y270534D01*
X487792Y271103D01*
X486928Y271461D01*
X486000Y271583D01*
D02*
G37*
G36*
X496000D02*
X495073Y271461D01*
X494208Y271103D01*
X493466Y270534D01*
X492897Y269792D01*
X492539Y268927D01*
X492417Y268000D01*
X492539Y267073D01*
X492897Y266208D01*
X493466Y265466D01*
X494208Y264897D01*
X495073Y264539D01*
X496000Y264417D01*
X496927Y264539D01*
X497792Y264897D01*
X498534Y265466D01*
X499103Y266208D01*
X499461Y267073D01*
X499583Y268000D01*
X499461Y268927D01*
X499103Y269792D01*
X498534Y270534D01*
X497792Y271103D01*
X496927Y271461D01*
X496000Y271583D01*
D02*
G37*
G36*
X662800Y265600D02*
X659200D01*
X657400Y263800D01*
Y260200D01*
X659200Y258400D01*
X662800D01*
X664600Y260200D01*
Y263800D01*
X662800Y265600D01*
D02*
G37*
G36*
X672800D02*
X669200D01*
X667400Y263800D01*
Y260200D01*
X669200Y258400D01*
X672800D01*
X674600Y260200D01*
Y263800D01*
X672800Y265600D01*
D02*
G37*
G36*
X506000Y271583D02*
X505072Y271461D01*
X504208Y271103D01*
X503466Y270534D01*
X502897Y269792D01*
X502539Y268927D01*
X502417Y268000D01*
X502539Y267073D01*
X502897Y266208D01*
X503466Y265466D01*
X504208Y264897D01*
X505072Y264539D01*
X506000Y264417D01*
X506927Y264539D01*
X507792Y264897D01*
X508534Y265466D01*
X509103Y266208D01*
X509461Y267073D01*
X509583Y268000D01*
X509461Y268927D01*
X509103Y269792D01*
X508534Y270534D01*
X507792Y271103D01*
X506927Y271461D01*
X506000Y271583D01*
D02*
G37*
G36*
X672800Y275600D02*
X669200D01*
X667400Y273800D01*
Y270200D01*
X669200Y268400D01*
X672800D01*
X674600Y270200D01*
Y273800D01*
X672800Y275600D01*
D02*
G37*
G36*
X621500Y269335D02*
X620798Y269196D01*
X620202Y268798D01*
X620085Y268621D01*
X611500D01*
X611500Y268622D01*
X611071Y268536D01*
X610707Y268293D01*
X597625Y255211D01*
X597000Y255335D01*
X596298Y255196D01*
X595702Y254798D01*
X595304Y254202D01*
X595165Y253500D01*
X595304Y252798D01*
X595702Y252202D01*
X596298Y251804D01*
X597000Y251665D01*
X597702Y251804D01*
X598298Y252202D01*
X598696Y252798D01*
X598773Y253187D01*
X611965Y266378D01*
X620085D01*
X620202Y266202D01*
X620798Y265804D01*
X621500Y265665D01*
X622202Y265804D01*
X622798Y266202D01*
X623196Y266798D01*
X623335Y267500D01*
X623196Y268202D01*
X622798Y268798D01*
X622202Y269196D01*
X621500Y269335D01*
D02*
G37*
G36*
X516000Y271583D02*
X515072Y271461D01*
X514208Y271103D01*
X513466Y270534D01*
X512897Y269792D01*
X512539Y268927D01*
X512417Y268000D01*
X512539Y267073D01*
X512897Y266208D01*
X513466Y265466D01*
X514208Y264897D01*
X515072Y264539D01*
X516000Y264417D01*
X516927Y264539D01*
X517792Y264897D01*
X518534Y265466D01*
X519103Y266208D01*
X519461Y267073D01*
X519583Y268000D01*
X519461Y268927D01*
X519103Y269792D01*
X518534Y270534D01*
X517792Y271103D01*
X516927Y271461D01*
X516000Y271583D01*
D02*
G37*
G36*
X664600Y275600D02*
X657400D01*
Y268400D01*
X664600D01*
Y275600D01*
D02*
G37*
G36*
X496000Y262583D02*
X495201Y262478D01*
X494456Y262170D01*
X493817Y261679D01*
X493327Y261040D01*
X493018Y260295D01*
X492913Y259496D01*
X493018Y258697D01*
X493327Y257952D01*
X493817Y257313D01*
X494456Y256823D01*
X495201Y256514D01*
X496000Y256409D01*
X496799Y256514D01*
X497543Y256823D01*
X498183Y257313D01*
X498673Y257952D01*
X498982Y258697D01*
X499087Y259496D01*
X498982Y260295D01*
X498673Y261040D01*
X498183Y261679D01*
X497543Y262170D01*
X496799Y262478D01*
X496000Y262583D01*
D02*
G37*
G36*
X559500Y245335D02*
X558798Y245196D01*
X558202Y244798D01*
X557804Y244202D01*
X557665Y243500D01*
X557804Y242798D01*
X558202Y242202D01*
X558798Y241804D01*
X558911Y241782D01*
X562847Y237846D01*
X563376Y237493D01*
X564000Y237369D01*
X576869D01*
Y234176D01*
X570858Y228165D01*
X570505Y227636D01*
X570380Y227012D01*
Y222310D01*
X570316Y222214D01*
X570177Y221512D01*
X570316Y220810D01*
X570714Y220214D01*
X571310Y219816D01*
X572012Y219676D01*
X572714Y219816D01*
X573310Y220214D01*
X573707Y220810D01*
X573847Y221512D01*
X573707Y222214D01*
X573643Y222310D01*
Y226336D01*
X579654Y232347D01*
X580007Y232876D01*
X580131Y233500D01*
Y239702D01*
X580196Y239798D01*
X580335Y240500D01*
X580196Y241202D01*
X579798Y241798D01*
X579202Y242196D01*
X578500Y242335D01*
X577798Y242196D01*
X577202Y241798D01*
X576804Y241202D01*
X576782Y241089D01*
X576324Y240631D01*
X564676D01*
X561218Y244089D01*
X561196Y244202D01*
X560798Y244798D01*
X560202Y245196D01*
X559500Y245335D01*
D02*
G37*
G36*
X662800Y235600D02*
X659200D01*
X657400Y233800D01*
Y230200D01*
X659200Y228400D01*
X662800D01*
X664600Y230200D01*
Y233800D01*
X662800Y235600D01*
D02*
G37*
G36*
Y225600D02*
X659200D01*
X657400Y223800D01*
Y220200D01*
X659200Y218400D01*
X662800D01*
X664600Y220200D01*
Y223800D01*
X662800Y225600D01*
D02*
G37*
G36*
X672800D02*
X669200D01*
X667400Y223800D01*
Y220200D01*
X669200Y218400D01*
X672800D01*
X674600Y220200D01*
Y223800D01*
X672800Y225600D01*
D02*
G37*
G36*
Y235600D02*
X669200D01*
X667400Y233800D01*
Y230200D01*
X669200Y228400D01*
X672800D01*
X674600Y230200D01*
Y233800D01*
X672800Y235600D01*
D02*
G37*
G36*
X662800Y255600D02*
X659200D01*
X657400Y253800D01*
Y250200D01*
X659200Y248400D01*
X662800D01*
X664600Y250200D01*
Y253800D01*
X662800Y255600D01*
D02*
G37*
G36*
X672800D02*
X669200D01*
X667400Y253800D01*
Y250200D01*
X669200Y248400D01*
X672800D01*
X674600Y250200D01*
Y253800D01*
X672800Y255600D01*
D02*
G37*
G36*
X662800Y245600D02*
X659200D01*
X657400Y243800D01*
Y240200D01*
X659200Y238400D01*
X662800D01*
X664600Y240200D01*
Y243800D01*
X662800Y245600D01*
D02*
G37*
G36*
X672800D02*
X669200D01*
X667400Y243800D01*
Y240200D01*
X669200Y238400D01*
X672800D01*
X674600Y240200D01*
Y243800D01*
X672800Y245600D01*
D02*
G37*
%LPD*%
D38*
X530000Y208500D02*
X537500D01*
X581000Y189000D02*
X582000D01*
X566000Y174000D02*
X581000Y189000D01*
X562000Y174000D02*
X566000D01*
X505804Y200304D02*
X507500Y202000D01*
X499298Y200304D02*
X505804D01*
X495000Y195000D02*
X521500D01*
X488000Y202000D02*
X495000Y195000D01*
X488000Y202000D02*
Y220500D01*
D39*
X635000Y230900D02*
Y236000D01*
X541000Y277500D02*
X543500D01*
X623000D02*
X627000Y273500D01*
X543500Y277500D02*
X623000D01*
X627000Y244000D02*
Y273500D01*
Y244000D02*
X635000Y236000D01*
D43*
X611500Y267500D02*
X621500D01*
X597500Y253500D02*
X611500Y267500D01*
X597000Y253500D02*
X597500D01*
D44*
X559500Y243500D02*
X564000Y239000D01*
X572012Y221512D02*
Y227012D01*
X578500Y233500D01*
X564000Y239000D02*
X577000D01*
X578500Y240500D01*
Y233500D02*
Y240500D01*
D47*
X516000Y268000D02*
D03*
X506000D02*
D03*
X496000D02*
D03*
X486000D02*
D03*
D48*
X671000Y182000D02*
D03*
X661000D02*
D03*
X671000Y192000D02*
D03*
X661000D02*
D03*
X671000Y202000D02*
D03*
X661000D02*
D03*
X671000Y212000D02*
D03*
X661000D02*
D03*
X671000Y222000D02*
D03*
X661000D02*
D03*
X671000Y232000D02*
D03*
X661000D02*
D03*
X671000Y242000D02*
D03*
X661000D02*
D03*
X671000Y252000D02*
D03*
X661000D02*
D03*
X671000Y262000D02*
D03*
X661000D02*
D03*
X671000Y272000D02*
D03*
D49*
X661000D02*
D03*
D50*
X594000Y203500D02*
D03*
X602000Y209500D02*
D03*
Y212500D02*
D03*
X602500Y202000D02*
D03*
X596000Y182500D02*
D03*
Y174500D02*
D03*
X651500Y194000D02*
D03*
X642500D02*
D03*
X656000Y187000D02*
D03*
Y163500D02*
D03*
Y172000D02*
D03*
X647000Y194000D02*
D03*
X634600Y230500D02*
D03*
X631000Y204000D02*
D03*
X627000D02*
D03*
X631000Y189000D02*
D03*
X627000D02*
D03*
X631000Y192500D02*
D03*
X627000D02*
D03*
X631000Y181500D02*
D03*
Y196500D02*
D03*
X536000Y228000D02*
D03*
Y225000D02*
D03*
Y222000D02*
D03*
X535500Y219000D02*
D03*
X532500D02*
D03*
X530000Y208500D02*
D03*
X537500D02*
D03*
X543000Y250500D02*
D03*
X525000D02*
D03*
X540500Y259500D02*
D03*
X537500D02*
D03*
X534500D02*
D03*
X531500D02*
D03*
X528500D02*
D03*
X634600Y233500D02*
D03*
X541000Y277500D02*
D03*
X543500D02*
D03*
X596000Y156500D02*
D03*
X595500Y148000D02*
D03*
X595000Y140000D02*
D03*
X585000D02*
D03*
X575000D02*
D03*
X555000D02*
D03*
X481000Y155000D02*
D03*
Y145000D02*
D03*
X485000Y140000D02*
D03*
X495000D02*
D03*
X505000D02*
D03*
X515000D02*
D03*
X525000D02*
D03*
X535000D02*
D03*
X545000D02*
D03*
X568000Y157000D02*
D03*
Y161000D02*
D03*
X569000Y169000D02*
D03*
X571000Y154000D02*
D03*
X555000D02*
D03*
X529500Y219000D02*
D03*
X582000Y189000D02*
D03*
X562000Y174000D02*
D03*
X521500Y195000D02*
D03*
X527500Y221000D02*
D03*
X481500Y182500D02*
D03*
X497000D02*
D03*
X635000Y236000D02*
D03*
X530308Y203563D02*
D03*
X596000Y165000D02*
D03*
X568000Y258000D02*
D03*
X543000Y244000D02*
D03*
X641000Y215000D02*
D03*
Y204000D02*
D03*
X585000Y211000D02*
D03*
X583308Y178563D02*
D03*
X579000Y182500D02*
D03*
X585308Y174563D02*
D03*
X529500Y194500D02*
D03*
X571308Y201563D02*
D03*
Y183563D02*
D03*
X581500Y158500D02*
D03*
X555500Y208000D02*
D03*
X547500Y157500D02*
D03*
X542500D02*
D03*
X550500D02*
D03*
X588308Y162563D02*
D03*
X584308Y158563D02*
D03*
X627000Y172000D02*
D03*
Y168000D02*
D03*
Y176000D02*
D03*
Y181500D02*
D03*
X637000D02*
D03*
Y187500D02*
D03*
X602500Y205500D02*
D03*
X627000Y200500D02*
D03*
X631000Y185000D02*
D03*
X607000Y222000D02*
D03*
X631000Y200500D02*
D03*
X572012Y221512D02*
D03*
X559500Y243500D02*
D03*
X550500Y154000D02*
D03*
X537500Y157500D02*
D03*
X532500D02*
D03*
X555000Y144000D02*
D03*
X571000D02*
D03*
X576000Y161000D02*
D03*
X527500Y156100D02*
D03*
X526500Y160300D02*
D03*
Y164500D02*
D03*
X605000Y140000D02*
D03*
X615000D02*
D03*
X625000D02*
D03*
X635000D02*
D03*
X492000Y182500D02*
D03*
X632000Y176000D02*
D03*
Y172000D02*
D03*
Y168000D02*
D03*
X627000Y196500D02*
D03*
Y185000D02*
D03*
X578500Y240500D02*
D03*
X648000Y258500D02*
D03*
X651000D02*
D03*
X604500Y250500D02*
D03*
X507500Y202000D02*
D03*
X499298Y200304D02*
D03*
X488000Y220500D02*
D03*
X621500Y267500D02*
D03*
X597000Y253500D02*
D03*
D51*
X549895Y189150D02*
D03*
Y184425D02*
D03*
Y179701D02*
D03*
Y174976D02*
D03*
X545171Y189150D02*
D03*
Y184425D02*
D03*
Y179701D02*
D03*
Y174976D02*
D03*
X540446Y189150D02*
D03*
Y184425D02*
D03*
Y179701D02*
D03*
Y174976D02*
D03*
X535722Y189150D02*
D03*
Y184425D02*
D03*
Y179701D02*
D03*
Y174976D02*
D03*
M02*
