G04*
G04 #@! TF.GenerationSoftware,Altium Limited,Altium Designer,24.9.1 (31)*
G04*
G04 Layer_Physical_Order=4*
G04 Layer_Color=16711680*
%FSLAX44Y44*%
%MOMM*%
G71*
G04*
G04 #@! TF.SameCoordinates,E8F54852-4FAE-476C-9330-F2E97CA3312C*
G04*
G04*
G04 #@! TF.FilePolarity,Positive*
G04*
G01*
G75*
%ADD14C,0.2540*%
%ADD15C,0.2032*%
%ADD38R,1.0000X0.6000*%
%ADD39R,1.8000X1.2500*%
%ADD115C,1.0200*%
%ADD116C,1.5700*%
%ADD117R,1.5700X1.5700*%
%ADD127C,1.5240*%
%ADD128C,1.5000*%
%ADD129O,2.1000X1.0500*%
%ADD130O,1.8000X0.9000*%
%ADD131C,0.6500*%
%ADD132C,0.5000*%
G36*
X640000Y757809D02*
X638827Y757323D01*
X637398Y758751D01*
X636558Y759313D01*
X635567Y759510D01*
X521261D01*
X520439Y760331D01*
X518960Y760944D01*
X517360D01*
X515881Y760331D01*
X514749Y759199D01*
X514136Y757720D01*
Y756120D01*
X514749Y754641D01*
X515881Y753509D01*
X517360Y752896D01*
X518960D01*
X520439Y753509D01*
X521261Y754330D01*
X634494D01*
X640000Y748824D01*
Y680770D01*
X627674D01*
X626683Y680573D01*
X625843Y680011D01*
X625380Y679548D01*
X624200D01*
X622721Y678935D01*
X621589Y677803D01*
X620976Y676324D01*
Y674724D01*
X621589Y673245D01*
X622571Y672262D01*
X621589Y671279D01*
X620976Y669800D01*
Y668200D01*
X621589Y666721D01*
X622721Y665589D01*
X624200Y664976D01*
X625362D01*
X629229Y661109D01*
X630069Y660547D01*
X631060Y660350D01*
X640000D01*
Y637590D01*
X601461D01*
X554570Y684480D01*
X555097Y685750D01*
X604520D01*
X605511Y685947D01*
X606351Y686509D01*
X632099Y712256D01*
X633260D01*
X634739Y712869D01*
X635871Y714001D01*
X636484Y715480D01*
Y717080D01*
X635871Y718559D01*
X634739Y719691D01*
X633260Y720304D01*
X631660D01*
X630181Y719691D01*
X629049Y718559D01*
X628436Y717080D01*
Y715919D01*
X603447Y690930D01*
X554793D01*
X523290Y722433D01*
Y734060D01*
X523093Y735051D01*
X522531Y735891D01*
X471731Y786691D01*
X470891Y787253D01*
X469900Y787450D01*
X450653D01*
X449276Y788827D01*
X449762Y790000D01*
X640000D01*
Y757809D01*
D02*
G37*
G36*
X380000Y810681D02*
Y790000D01*
X392410D01*
Y768101D01*
X391589Y767279D01*
X390976Y765800D01*
Y764200D01*
X391589Y762721D01*
X392721Y761589D01*
X394200Y760976D01*
X395800D01*
X397279Y761589D01*
X398411Y762721D01*
X399024Y764200D01*
Y765361D01*
X421073Y787410D01*
X433309D01*
X444803Y775917D01*
X445643Y775355D01*
X446634Y775158D01*
X458666D01*
X473652Y760172D01*
X473354Y758674D01*
X472721Y758411D01*
X471589Y757279D01*
X470976Y755800D01*
Y754200D01*
X471589Y752721D01*
X472721Y751589D01*
X474200Y750976D01*
X475800D01*
X477279Y751589D01*
X478411Y752721D01*
X478674Y753354D01*
X480172Y753652D01*
X489855Y743969D01*
X489136Y742893D01*
X488480Y743164D01*
X486880D01*
X485401Y742551D01*
X484687Y741838D01*
X483307Y742164D01*
X483222Y742531D01*
X483411Y742721D01*
X484024Y744200D01*
Y745800D01*
X483411Y747279D01*
X482279Y748411D01*
X480800Y749024D01*
X479200D01*
X477721Y748411D01*
X476589Y747279D01*
X475976Y745800D01*
Y744200D01*
X476589Y742721D01*
X477151Y742158D01*
Y614235D01*
X471596Y608680D01*
X470978Y607756D01*
X470761Y606666D01*
X470761Y606665D01*
Y599383D01*
X462265Y590887D01*
X460767Y591185D01*
X460611Y591559D01*
X459479Y592691D01*
X458000Y593304D01*
X456400D01*
X454921Y592691D01*
X453789Y591559D01*
X453176Y590080D01*
Y588480D01*
X453789Y587001D01*
X454921Y585869D01*
X455295Y585713D01*
X455593Y584215D01*
X444144Y572766D01*
X443527Y571842D01*
X443310Y570752D01*
X443310Y570752D01*
Y565427D01*
X443310Y565427D01*
X443527Y564337D01*
X444144Y563413D01*
X445556Y562001D01*
Y560540D01*
X445106Y559866D01*
X417493D01*
X416967Y561136D01*
X417431Y561601D01*
X418044Y563080D01*
Y564680D01*
X417431Y566159D01*
X416299Y567291D01*
X414820Y567904D01*
X413220D01*
X412842Y567748D01*
X411786Y568453D01*
Y576324D01*
X411589Y577315D01*
X411027Y578155D01*
X400264Y588918D01*
Y590080D01*
X399651Y591559D01*
X398519Y592691D01*
X397040Y593304D01*
X395440D01*
X393961Y592691D01*
X392829Y591559D01*
X392216Y590080D01*
Y588480D01*
X392829Y587001D01*
X393961Y585869D01*
X395440Y585256D01*
X396601D01*
X400090Y581768D01*
X399720Y580923D01*
X399458Y580604D01*
X397980D01*
X396501Y579991D01*
X395369Y578859D01*
X394756Y577380D01*
Y575780D01*
X395369Y574301D01*
X396501Y573169D01*
X397980Y572556D01*
X399142D01*
X403050Y568647D01*
Y568460D01*
X403031Y568432D01*
X402834Y567440D01*
Y560320D01*
X403031Y559328D01*
X403593Y558488D01*
X410192Y551889D01*
X411032Y551327D01*
X412024Y551130D01*
X417052D01*
X417052Y551130D01*
X443971D01*
X444554Y550547D01*
X445394Y549986D01*
X446385Y549788D01*
X461518D01*
X462509Y549986D01*
X463349Y550547D01*
X486871Y574069D01*
X487433Y574910D01*
X487630Y575900D01*
Y590339D01*
X493321Y596031D01*
X493883Y596871D01*
X494080Y597862D01*
Y607257D01*
X550471Y663649D01*
X551033Y664489D01*
X551230Y665480D01*
Y669999D01*
X552051Y670821D01*
X552540Y672001D01*
X553837Y672500D01*
X597314Y629023D01*
X597161Y628251D01*
X596029Y627119D01*
X595416Y625640D01*
Y624040D01*
X596029Y622561D01*
X596850Y621739D01*
Y564725D01*
X595800Y564024D01*
X594200D01*
X592721Y563411D01*
X591589Y562279D01*
X590976Y560800D01*
Y559200D01*
X591589Y557721D01*
X592721Y556589D01*
X594200Y555976D01*
X595800D01*
X596733Y555027D01*
Y554973D01*
X596322Y554555D01*
X595551Y554024D01*
X594200D01*
X592721Y553411D01*
X591589Y552279D01*
X590976Y550800D01*
Y549200D01*
X591589Y547721D01*
X592721Y546589D01*
X594200Y545976D01*
X595800D01*
X596180Y546133D01*
X597450Y545285D01*
Y489620D01*
X597647Y488629D01*
X598209Y487789D01*
X640000Y445998D01*
Y300000D01*
X645024D01*
X645559Y298711D01*
X646691Y297579D01*
X648170Y296966D01*
X649770D01*
X651249Y297579D01*
X652381Y298711D01*
X652915Y300000D01*
X663331D01*
X663339Y299981D01*
X664471Y298849D01*
X665950Y298236D01*
X667550D01*
X669029Y298849D01*
X670161Y299981D01*
X670169Y300000D01*
X844821D01*
Y110000D01*
X835000D01*
Y10224D01*
X833819Y9318D01*
X831001Y7691D01*
X827996Y6446D01*
X824853Y5604D01*
X821627Y5179D01*
X260000D01*
Y25922D01*
X261561Y26232D01*
X262884Y27116D01*
X263768Y28439D01*
X264078Y30000D01*
Y115922D01*
X395922D01*
Y63500D01*
X396232Y61939D01*
X397116Y60616D01*
X398439Y59732D01*
X400000Y59422D01*
X571223D01*
X571223Y59422D01*
X572525Y59681D01*
X572784Y59732D01*
X574107Y60616D01*
X574107Y60616D01*
X574343Y60852D01*
X574682Y60992D01*
X575048D01*
X575387Y60852D01*
X575623Y60616D01*
X576946Y59732D01*
X577205Y59681D01*
X578506Y59422D01*
X578507Y59422D01*
X720000D01*
X721561Y59732D01*
X722884Y60616D01*
X723768Y61939D01*
X724078Y63500D01*
Y110000D01*
Y165838D01*
X725348Y166364D01*
X725633Y166080D01*
X727143Y165207D01*
X728828Y164756D01*
X730572D01*
X732257Y165207D01*
X733767Y166080D01*
X735001Y167313D01*
X735873Y168823D01*
X736324Y170508D01*
Y172252D01*
X735873Y173937D01*
X735460Y174652D01*
X736193Y175922D01*
X772160D01*
X773721Y176232D01*
X775044Y177116D01*
X775928Y178439D01*
X776238Y180000D01*
Y260000D01*
X775928Y261561D01*
X775044Y262884D01*
X773721Y263768D01*
X772160Y264078D01*
X650000D01*
X648439Y263768D01*
X647116Y262884D01*
X646232Y261561D01*
X645922Y260000D01*
X640000D01*
Y180000D01*
X470000D01*
Y295922D01*
X490000D01*
X491561Y296232D01*
X492884Y297116D01*
X493768Y298439D01*
X494078Y300000D01*
Y510000D01*
X493768Y511561D01*
X492884Y512884D01*
X491561Y513768D01*
X490000Y514078D01*
X470000D01*
Y520000D01*
X370000D01*
Y220000D01*
X290000D01*
Y827410D01*
X363271D01*
X380000Y810681D01*
D02*
G37*
G36*
X507410Y726414D02*
Y720000D01*
X507607Y719009D01*
X508169Y718169D01*
X548040Y678297D01*
X547541Y677000D01*
X546361Y676511D01*
X545229Y675379D01*
X544616Y673900D01*
Y673217D01*
X544406Y672254D01*
X543443Y672044D01*
X542760D01*
X541281Y671431D01*
X540149Y670299D01*
X539536Y668820D01*
Y667658D01*
X521409Y649531D01*
X520847Y648691D01*
X520650Y647700D01*
Y646233D01*
X491702Y617285D01*
X490529Y617771D01*
Y736298D01*
X491091Y736861D01*
X491704Y738340D01*
Y739940D01*
X491433Y740596D01*
X492509Y741315D01*
X507410Y726414D01*
D02*
G37*
G36*
X640000Y467250D02*
X638827Y466764D01*
X619810Y485781D01*
Y603447D01*
X629558Y613196D01*
X630720D01*
X632199Y613809D01*
X633331Y614941D01*
X633944Y616420D01*
Y618020D01*
X633331Y619499D01*
X632199Y620631D01*
X630720Y621244D01*
X629120D01*
X627641Y620631D01*
X626509Y619499D01*
X625896Y618020D01*
Y616858D01*
X616000Y606962D01*
X614730Y607488D01*
Y612849D01*
X615551Y613671D01*
X616164Y615150D01*
Y616750D01*
X615551Y618229D01*
X614419Y619361D01*
X612940Y619974D01*
X611340D01*
X609861Y619361D01*
X608729Y618229D01*
X608116Y616750D01*
Y615150D01*
X608729Y613671D01*
X609550Y612849D01*
Y485568D01*
X608280Y485042D01*
X602630Y490693D01*
Y562088D01*
X602433Y563079D01*
X602030Y563682D01*
Y621739D01*
X602851Y622561D01*
X603464Y624040D01*
Y625640D01*
X603257Y626140D01*
X604105Y627410D01*
X640000D01*
Y467250D01*
D02*
G37*
G36*
X280000Y210000D02*
X322429D01*
X323364Y209065D01*
X325202Y208304D01*
X327191D01*
X329029Y209065D01*
X329964Y210000D01*
X351636D01*
X351889Y208730D01*
X350848Y208299D01*
X349441Y206892D01*
X348680Y205055D01*
Y203065D01*
X349441Y201228D01*
X350848Y199821D01*
X352686Y199060D01*
X354675D01*
X356512Y199821D01*
X357919Y201228D01*
X358680Y203065D01*
Y203670D01*
X359736Y204376D01*
X360305Y204140D01*
X362295D01*
X364132Y204901D01*
X365539Y206308D01*
X366300Y208146D01*
Y210000D01*
X380000D01*
Y510000D01*
X490000D01*
Y300000D01*
X460000D01*
X430000Y270000D01*
Y170000D01*
X650000D01*
Y212429D01*
X650935Y213364D01*
X651696Y215202D01*
Y217191D01*
X650935Y219029D01*
X650000Y219964D01*
Y241636D01*
X651270Y241889D01*
X651701Y240848D01*
X653108Y239441D01*
X654946Y238680D01*
X656935D01*
X658772Y239441D01*
X660179Y240848D01*
X660940Y242685D01*
Y244675D01*
X660179Y246512D01*
X658772Y247919D01*
X656935Y248680D01*
X656330D01*
X655624Y249736D01*
X655860Y250305D01*
Y252295D01*
X655099Y254132D01*
X653692Y255539D01*
X651855Y256300D01*
X650000D01*
Y260000D01*
X772160D01*
Y180000D01*
X720000D01*
Y63500D01*
X578506D01*
X577697Y64309D01*
X575859Y65070D01*
X573870D01*
X572033Y64309D01*
X571223Y63500D01*
X400000D01*
Y120000D01*
X260000D01*
Y30000D01*
X40000D01*
Y540000D01*
X150000D01*
X150000Y140000D01*
X150000Y826415D01*
X280000D01*
Y210000D01*
D02*
G37*
%LPC*%
G36*
X329080Y811904D02*
X327480D01*
X326001Y811291D01*
X324869Y810159D01*
X324256Y808680D01*
Y807080D01*
X324869Y805601D01*
X326001Y804469D01*
X327480Y803856D01*
X329080D01*
X330559Y804469D01*
X331691Y805601D01*
X332304Y807080D01*
Y808680D01*
X331691Y810159D01*
X330559Y811291D01*
X329080Y811904D01*
D02*
G37*
G36*
X301140Y809364D02*
X299540D01*
X298061Y808751D01*
X296929Y807619D01*
X296316Y806141D01*
Y804540D01*
X296929Y803061D01*
X298061Y801929D01*
X299540Y801316D01*
X301140D01*
X302619Y801929D01*
X303751Y803061D01*
X304364Y804540D01*
Y806141D01*
X303751Y807619D01*
X302619Y808751D01*
X301140Y809364D01*
D02*
G37*
G36*
X445800Y759024D02*
X444200D01*
X442721Y758411D01*
X441646Y757337D01*
X440571Y758411D01*
X439092Y759024D01*
X437492D01*
X436013Y758411D01*
X434881Y757279D01*
X434268Y755800D01*
Y754200D01*
X434881Y752721D01*
X436013Y751589D01*
X437492Y750976D01*
X439092D01*
X440571Y751589D01*
X441646Y752663D01*
X442721Y751589D01*
X444200Y750976D01*
X445800D01*
X447279Y751589D01*
X448411Y752721D01*
X449024Y754200D01*
Y755800D01*
X448411Y757279D01*
X447279Y758411D01*
X445800Y759024D01*
D02*
G37*
G36*
X465800D02*
X464200D01*
X462721Y758411D01*
X461589Y757279D01*
X460976Y755800D01*
Y754200D01*
X461589Y752721D01*
X462721Y751589D01*
X464200Y750976D01*
X465800D01*
X467279Y751589D01*
X468411Y752721D01*
X469024Y754200D01*
Y755800D01*
X468411Y757279D01*
X467279Y758411D01*
X465800Y759024D01*
D02*
G37*
G36*
X455800D02*
X454200D01*
X452721Y758411D01*
X451589Y757279D01*
X450976Y755800D01*
Y754200D01*
X451589Y752721D01*
X452721Y751589D01*
X454200Y750976D01*
X455800D01*
X457279Y751589D01*
X458411Y752721D01*
X459024Y754200D01*
Y755800D01*
X458411Y757279D01*
X457279Y758411D01*
X455800Y759024D01*
D02*
G37*
G36*
X326997Y737328D02*
X325396D01*
X323917Y736715D01*
X322785Y735583D01*
X322173Y734104D01*
Y732503D01*
X322785Y731024D01*
X323917Y729892D01*
X325396Y729280D01*
X326997D01*
X328476Y729892D01*
X329608Y731024D01*
X330221Y732503D01*
Y734104D01*
X329608Y735583D01*
X328476Y736715D01*
X326997Y737328D01*
D02*
G37*
G36*
X301335Y739220D02*
X299345D01*
X297508Y738459D01*
X296101Y737052D01*
X295340Y735215D01*
Y733225D01*
X296101Y731388D01*
X297508Y729981D01*
X299345Y729220D01*
X301335D01*
X303172Y729981D01*
X304579Y731388D01*
X305340Y733225D01*
Y735215D01*
X304579Y737052D01*
X303172Y738459D01*
X301335Y739220D01*
D02*
G37*
G36*
X376720Y689824D02*
X375120D01*
X373641Y689211D01*
X372509Y688079D01*
X371896Y686600D01*
Y685000D01*
X372509Y683521D01*
X373641Y682389D01*
X375120Y681776D01*
X376720D01*
X378199Y682389D01*
X379331Y683521D01*
X379944Y685000D01*
Y686600D01*
X379331Y688079D01*
X378199Y689211D01*
X376720Y689824D01*
D02*
G37*
G36*
X329080Y681904D02*
X327480D01*
X326001Y681291D01*
X324869Y680159D01*
X324256Y678680D01*
Y677080D01*
X324869Y675601D01*
X326001Y674469D01*
X327480Y673856D01*
X329080D01*
X330559Y674469D01*
X331691Y675601D01*
X332304Y677080D01*
Y678680D01*
X331691Y680159D01*
X330559Y681291D01*
X329080Y681904D01*
D02*
G37*
G36*
X301140Y679364D02*
X299540D01*
X298061Y678751D01*
X296929Y677619D01*
X296316Y676141D01*
Y674540D01*
X296929Y673061D01*
X298061Y671929D01*
X299540Y671316D01*
X301140D01*
X302619Y671929D01*
X303751Y673061D01*
X304364Y674540D01*
Y676141D01*
X303751Y677619D01*
X302619Y678751D01*
X301140Y679364D01*
D02*
G37*
G36*
X419900Y611084D02*
X418300D01*
X416821Y610471D01*
X415689Y609339D01*
X415076Y607860D01*
Y606260D01*
X415689Y604781D01*
X416821Y603649D01*
X418300Y603036D01*
X419900D01*
X421379Y603649D01*
X422511Y604781D01*
X423124Y606260D01*
Y607860D01*
X422511Y609339D01*
X421379Y610471D01*
X419900Y611084D01*
D02*
G37*
G36*
X301335Y609220D02*
X299345D01*
X297508Y608459D01*
X296101Y607052D01*
X295340Y605215D01*
Y603226D01*
X296101Y601388D01*
X297508Y599981D01*
X299345Y599220D01*
X301335D01*
X303172Y599981D01*
X304579Y601388D01*
X305340Y603226D01*
Y605215D01*
X304579Y607052D01*
X303172Y608459D01*
X301335Y609220D01*
D02*
G37*
G36*
X583730Y599654D02*
X582130D01*
X580651Y599041D01*
X579519Y597909D01*
X578906Y596430D01*
Y595269D01*
X551387Y567750D01*
X550214Y568236D01*
Y580841D01*
X555899Y586526D01*
X557060D01*
X558539Y587139D01*
X559671Y588271D01*
X560284Y589750D01*
Y591350D01*
X559671Y592829D01*
X558539Y593961D01*
X557060Y594574D01*
X555460D01*
X553981Y593961D01*
X552849Y592829D01*
X552236Y591350D01*
Y590188D01*
X545793Y583745D01*
X545231Y582905D01*
X545034Y581914D01*
X543774Y581938D01*
Y582460D01*
X543161Y583939D01*
X542029Y585071D01*
X540550Y585684D01*
X538950D01*
X537471Y585071D01*
X536339Y583939D01*
X535726Y582460D01*
Y580860D01*
X536339Y579381D01*
X537471Y578249D01*
X538950Y577636D01*
X540112D01*
X541478Y576269D01*
Y567930D01*
X540305Y567444D01*
X515670Y592080D01*
Y592529D01*
X516491Y593351D01*
X517104Y594830D01*
Y596430D01*
X516491Y597909D01*
X515359Y599041D01*
X513880Y599654D01*
X512280D01*
X510801Y599041D01*
X509669Y597909D01*
X509056Y596430D01*
Y594830D01*
X509669Y593351D01*
X510490Y592529D01*
Y591007D01*
X510687Y590016D01*
X511249Y589176D01*
X537922Y562502D01*
Y343465D01*
X531569Y337111D01*
X531007Y336271D01*
X530810Y335280D01*
Y300281D01*
X529989Y299459D01*
X529376Y297980D01*
Y296380D01*
X529989Y294901D01*
X531121Y293769D01*
X532600Y293156D01*
X534200D01*
X535679Y293769D01*
X536194Y294283D01*
X537271Y293564D01*
X536996Y292900D01*
Y291300D01*
X537609Y289821D01*
X538741Y288689D01*
X540220Y288076D01*
X541820D01*
X543299Y288689D01*
X543756Y288598D01*
X544196Y287535D01*
X545328Y286404D01*
X546807Y285791D01*
X548408D01*
X549887Y286404D01*
X550368Y286885D01*
X551450Y287238D01*
X552001Y286858D01*
X552711Y286149D01*
X554190Y285536D01*
X555790D01*
X557269Y286149D01*
X558401Y287281D01*
X559014Y288760D01*
Y290360D01*
X558401Y291839D01*
X557269Y292971D01*
X555790Y293584D01*
X554628D01*
X553770Y294443D01*
Y562807D01*
X559803Y568840D01*
X561264Y568505D01*
X561589Y567721D01*
X562721Y566589D01*
X564200Y565976D01*
X565800D01*
X567279Y566589D01*
X568411Y567721D01*
X569024Y569200D01*
Y570800D01*
X568411Y572279D01*
X567279Y573411D01*
X566495Y573736D01*
X566160Y575197D01*
X582569Y591606D01*
X583730D01*
X585209Y592219D01*
X586341Y593351D01*
X586954Y594830D01*
Y596430D01*
X586341Y597909D01*
X585209Y599041D01*
X583730Y599654D01*
D02*
G37*
G36*
X585800Y574024D02*
X584200D01*
X582721Y573411D01*
X581589Y572279D01*
X580976Y570800D01*
Y569200D01*
X581589Y567721D01*
X582721Y566589D01*
X584200Y565976D01*
X585800D01*
X587279Y566589D01*
X588411Y567721D01*
X589024Y569200D01*
Y570800D01*
X588411Y572279D01*
X587279Y573411D01*
X585800Y574024D01*
D02*
G37*
G36*
X575800D02*
X574200D01*
X572721Y573411D01*
X571589Y572279D01*
X570976Y570800D01*
Y569200D01*
X571589Y567721D01*
X572721Y566589D01*
X574200Y565976D01*
X575800D01*
X577279Y566589D01*
X578411Y567721D01*
X579024Y569200D01*
Y570800D01*
X578411Y572279D01*
X577279Y573411D01*
X575800Y574024D01*
D02*
G37*
G36*
X585800Y564024D02*
X584200D01*
X582721Y563411D01*
X581589Y562279D01*
X580976Y560800D01*
Y559200D01*
X581589Y557721D01*
X582721Y556589D01*
X584200Y555976D01*
X585800D01*
X587279Y556589D01*
X588411Y557721D01*
X589024Y559200D01*
Y560800D01*
X588411Y562279D01*
X587279Y563411D01*
X585800Y564024D01*
D02*
G37*
G36*
X575800D02*
X574200D01*
X572721Y563411D01*
X571589Y562279D01*
X570976Y560800D01*
Y559200D01*
X571589Y557721D01*
X572721Y556589D01*
X574200Y555976D01*
X575800D01*
X577279Y556589D01*
X578411Y557721D01*
X579024Y559200D01*
Y560800D01*
X578411Y562279D01*
X577279Y563411D01*
X575800Y564024D01*
D02*
G37*
G36*
X565800D02*
X564200D01*
X562721Y563411D01*
X561589Y562279D01*
X560976Y560800D01*
Y559200D01*
X561589Y557721D01*
X562721Y556589D01*
X564200Y555976D01*
X565800D01*
X567279Y556589D01*
X568411Y557721D01*
X569024Y559200D01*
Y560800D01*
X568411Y562279D01*
X567279Y563411D01*
X565800Y564024D01*
D02*
G37*
G36*
X326997Y607328D02*
X325396D01*
X323917Y606715D01*
X322785Y605583D01*
X322173Y604104D01*
Y602503D01*
X322785Y601024D01*
X323607Y600203D01*
Y593283D01*
X323804Y592292D01*
X324365Y591452D01*
X356656Y559161D01*
Y558000D01*
X357269Y556521D01*
X358401Y555389D01*
X359880Y554776D01*
X361480D01*
X362959Y555389D01*
X364091Y556521D01*
X364704Y558000D01*
Y559600D01*
X364091Y561079D01*
X362959Y562211D01*
X361480Y562824D01*
X360318D01*
X328786Y594356D01*
Y600203D01*
X329608Y601024D01*
X330221Y602503D01*
Y604104D01*
X329608Y605583D01*
X328476Y606715D01*
X326997Y607328D01*
D02*
G37*
G36*
X585800Y554024D02*
X584200D01*
X582721Y553411D01*
X581589Y552279D01*
X580976Y550800D01*
Y549200D01*
X581589Y547721D01*
X582721Y546589D01*
X584200Y545976D01*
X585800D01*
X587279Y546589D01*
X588411Y547721D01*
X589024Y549200D01*
Y550800D01*
X588411Y552279D01*
X587279Y553411D01*
X585800Y554024D01*
D02*
G37*
G36*
X575800D02*
X574200D01*
X572721Y553411D01*
X571589Y552279D01*
X570976Y550800D01*
Y549200D01*
X571589Y547721D01*
X572721Y546589D01*
X574200Y545976D01*
X575800D01*
X577279Y546589D01*
X578411Y547721D01*
X579024Y549200D01*
Y550800D01*
X578411Y552279D01*
X577279Y553411D01*
X575800Y554024D01*
D02*
G37*
G36*
X565800D02*
X564200D01*
X562721Y553411D01*
X561589Y552279D01*
X560976Y550800D01*
Y549200D01*
X561589Y547721D01*
X562721Y546589D01*
X564200Y545976D01*
X565800D01*
X567279Y546589D01*
X568411Y547721D01*
X569024Y549200D01*
Y550800D01*
X568411Y552279D01*
X567279Y553411D01*
X565800Y554024D01*
D02*
G37*
G36*
X329080Y551904D02*
X327480D01*
X326001Y551291D01*
X324869Y550159D01*
X324256Y548680D01*
Y547080D01*
X324869Y545601D01*
X326001Y544469D01*
X327480Y543856D01*
X329080D01*
X330559Y544469D01*
X331691Y545601D01*
X332304Y547080D01*
Y548680D01*
X331691Y550159D01*
X330559Y551291D01*
X329080Y551904D01*
D02*
G37*
G36*
X301140Y549364D02*
X299540D01*
X298061Y548751D01*
X296929Y547620D01*
X296316Y546141D01*
Y544540D01*
X296929Y543061D01*
X298061Y541929D01*
X299540Y541316D01*
X301140D01*
X302619Y541929D01*
X303751Y543061D01*
X304364Y544540D01*
Y546141D01*
X303751Y547620D01*
X302619Y548751D01*
X301140Y549364D01*
D02*
G37*
G36*
X326997Y477328D02*
X325396D01*
X323917Y476715D01*
X322785Y475583D01*
X322173Y474104D01*
Y472503D01*
X322785Y471024D01*
X323917Y469892D01*
X325396Y469280D01*
X326997D01*
X328476Y469892D01*
X329608Y471024D01*
X330221Y472503D01*
Y474104D01*
X329608Y475583D01*
X328476Y476715D01*
X326997Y477328D01*
D02*
G37*
G36*
X301335Y479220D02*
X299345D01*
X297508Y478459D01*
X296101Y477052D01*
X295340Y475215D01*
Y473226D01*
X296101Y471388D01*
X297508Y469981D01*
X299345Y469220D01*
X301335D01*
X303172Y469981D01*
X304579Y471388D01*
X305340Y473226D01*
Y475215D01*
X304579Y477052D01*
X303172Y478459D01*
X301335Y479220D01*
D02*
G37*
G36*
X329080Y421904D02*
X327480D01*
X326001Y421291D01*
X324869Y420159D01*
X324256Y418680D01*
Y417080D01*
X324869Y415601D01*
X326001Y414469D01*
X327480Y413856D01*
X329080D01*
X330559Y414469D01*
X331691Y415601D01*
X332304Y417080D01*
Y418680D01*
X331691Y420159D01*
X330559Y421291D01*
X329080Y421904D01*
D02*
G37*
G36*
X301140Y419364D02*
X299540D01*
X298061Y418751D01*
X296929Y417620D01*
X296316Y416141D01*
Y414540D01*
X296929Y413061D01*
X298061Y411929D01*
X299540Y411316D01*
X301140D01*
X302619Y411929D01*
X303751Y413061D01*
X304364Y414540D01*
Y416141D01*
X303751Y417620D01*
X302619Y418751D01*
X301140Y419364D01*
D02*
G37*
G36*
X629588Y419824D02*
X627212D01*
X624917Y419209D01*
X622859Y418021D01*
X621179Y416341D01*
X619991Y414283D01*
X619376Y411988D01*
Y409612D01*
X619991Y407317D01*
X621179Y405259D01*
X622859Y403579D01*
X624917Y402391D01*
X627212Y401776D01*
X629588D01*
X631883Y402391D01*
X633941Y403579D01*
X635621Y405259D01*
X636809Y407317D01*
X637424Y409612D01*
Y411988D01*
X636809Y414283D01*
X635621Y416341D01*
X633941Y418021D01*
X631883Y419209D01*
X629588Y419824D01*
D02*
G37*
G36*
Y394424D02*
X627212D01*
X624917Y393809D01*
X622859Y392621D01*
X621179Y390941D01*
X619991Y388883D01*
X619376Y386588D01*
Y384212D01*
X619991Y381917D01*
X621179Y379859D01*
X622859Y378179D01*
X624917Y376991D01*
X627212Y376376D01*
X629588D01*
X631883Y376991D01*
X633941Y378179D01*
X635621Y379859D01*
X636809Y381917D01*
X637424Y384212D01*
Y386588D01*
X636809Y388883D01*
X635621Y390941D01*
X633941Y392621D01*
X631883Y393809D01*
X629588Y394424D01*
D02*
G37*
G36*
Y369024D02*
X627212D01*
X624917Y368409D01*
X622859Y367221D01*
X621179Y365541D01*
X619991Y363483D01*
X619376Y361188D01*
Y358812D01*
X619991Y356517D01*
X621179Y354459D01*
X622859Y352779D01*
X624917Y351591D01*
X627212Y350976D01*
X629588D01*
X631883Y351591D01*
X633941Y352779D01*
X635621Y354459D01*
X636809Y356517D01*
X637424Y358812D01*
Y361188D01*
X636809Y363483D01*
X635621Y365541D01*
X633941Y367221D01*
X631883Y368409D01*
X629588Y369024D01*
D02*
G37*
G36*
X326997Y347328D02*
X325396D01*
X323917Y346715D01*
X322785Y345583D01*
X322173Y344104D01*
Y342503D01*
X322785Y341024D01*
X323917Y339892D01*
X325396Y339280D01*
X326997D01*
X328476Y339892D01*
X329608Y341024D01*
X330221Y342503D01*
Y344104D01*
X329608Y345583D01*
X328476Y346715D01*
X326997Y347328D01*
D02*
G37*
G36*
X301282Y349250D02*
X299292D01*
X297455Y348489D01*
X296048Y347082D01*
X295287Y345245D01*
Y343256D01*
X296048Y341418D01*
X297455Y340011D01*
X299292Y339250D01*
X301282D01*
X303119Y340011D01*
X304526Y341418D01*
X305287Y343256D01*
Y345245D01*
X304526Y347082D01*
X303119Y348489D01*
X301282Y349250D01*
D02*
G37*
G36*
X629588Y343624D02*
X627212D01*
X624917Y343009D01*
X622859Y341821D01*
X621179Y340141D01*
X619991Y338083D01*
X619376Y335788D01*
Y333412D01*
X619991Y331117D01*
X621179Y329059D01*
X622859Y327379D01*
X624917Y326191D01*
X627212Y325576D01*
X629588D01*
X631883Y326191D01*
X633941Y327379D01*
X635621Y329059D01*
X636809Y331117D01*
X637424Y333412D01*
Y335788D01*
X636809Y338083D01*
X635621Y340141D01*
X633941Y341821D01*
X631883Y343009D01*
X629588Y343624D01*
D02*
G37*
G36*
X329080Y291904D02*
X327480D01*
X326001Y291291D01*
X324869Y290159D01*
X324256Y288680D01*
Y287080D01*
X324869Y285601D01*
X326001Y284469D01*
X327480Y283856D01*
X329080D01*
X330559Y284469D01*
X331691Y285601D01*
X332304Y287080D01*
Y288680D01*
X331691Y290159D01*
X330559Y291291D01*
X329080Y291904D01*
D02*
G37*
G36*
X301140Y289364D02*
X299540D01*
X298061Y288751D01*
X296929Y287619D01*
X296316Y286140D01*
Y284540D01*
X296929Y283061D01*
X298061Y281929D01*
X299540Y281316D01*
X301140D01*
X302619Y281929D01*
X303751Y283061D01*
X304364Y284540D01*
Y286140D01*
X303751Y287619D01*
X302619Y288751D01*
X301140Y289364D01*
D02*
G37*
G36*
X572920Y222304D02*
X571320D01*
X569841Y221691D01*
X568709Y220559D01*
X568096Y219080D01*
Y217480D01*
X568709Y216001D01*
X569841Y214869D01*
X571320Y214256D01*
X572920D01*
X574399Y214869D01*
X575531Y216001D01*
X576144Y217480D01*
Y219080D01*
X575531Y220559D01*
X574399Y221691D01*
X572920Y222304D01*
D02*
G37*
G36*
X517497Y219741D02*
X515896D01*
X514417Y219128D01*
X513285Y217996D01*
X512672Y216517D01*
Y214916D01*
X513285Y213437D01*
X514417Y212305D01*
X515896Y211693D01*
X517497D01*
X518976Y212305D01*
X520108Y213437D01*
X520720Y214916D01*
Y216517D01*
X520108Y217996D01*
X518976Y219128D01*
X517497Y219741D01*
D02*
G37*
G36*
X575460Y194364D02*
X573860D01*
X572381Y193751D01*
X571249Y192619D01*
X570636Y191140D01*
Y189540D01*
X571249Y188061D01*
X572381Y186929D01*
X573860Y186316D01*
X575460D01*
X576939Y186929D01*
X578071Y188061D01*
X578684Y189540D01*
Y191140D01*
X578071Y192619D01*
X576939Y193751D01*
X575460Y194364D01*
D02*
G37*
G36*
X516775Y194860D02*
X514785D01*
X512948Y194099D01*
X511541Y192692D01*
X510780Y190855D01*
Y188865D01*
X511541Y187028D01*
X512948Y185621D01*
X514785Y184860D01*
X516775D01*
X518612Y185621D01*
X520019Y187028D01*
X520780Y188865D01*
Y190855D01*
X520019Y192692D01*
X518612Y194099D01*
X516775Y194860D01*
D02*
G37*
G36*
X765415Y170678D02*
Y167695D01*
X768398D01*
X768014Y168360D01*
X766080Y170294D01*
X765415Y170678D01*
D02*
G37*
G36*
X753985D02*
X753320Y170294D01*
X751386Y168360D01*
X751002Y167695D01*
X753985D01*
Y170678D01*
D02*
G37*
G36*
X820572Y178004D02*
X818828D01*
X817143Y177553D01*
X815633Y176681D01*
X814399Y175447D01*
X813527Y173937D01*
X813076Y172252D01*
Y170508D01*
X813527Y168823D01*
X814399Y167313D01*
X815633Y166080D01*
X817143Y165207D01*
X818828Y164756D01*
X820572D01*
X822257Y165207D01*
X823767Y166080D01*
X825001Y167313D01*
X825873Y168823D01*
X826324Y170508D01*
Y172252D01*
X825873Y173937D01*
X825001Y175447D01*
X823767Y176681D01*
X822257Y177553D01*
X820572Y178004D01*
D02*
G37*
G36*
X768398Y156265D02*
X765415D01*
Y153282D01*
X766080Y153666D01*
X768014Y155600D01*
X768398Y156265D01*
D02*
G37*
G36*
X753985D02*
X751002D01*
X751386Y155600D01*
X753320Y153666D01*
X753985Y153282D01*
Y156265D01*
D02*
G37*
G36*
X791063Y172330D02*
X788337D01*
X785705Y171625D01*
X783345Y170262D01*
X781418Y168335D01*
X780055Y165975D01*
X779350Y163343D01*
Y160617D01*
X780055Y157985D01*
X781418Y155625D01*
X783345Y153698D01*
X785705Y152335D01*
X788337Y151630D01*
X791063D01*
X793695Y152335D01*
X796055Y153698D01*
X797982Y155625D01*
X799345Y157985D01*
X800050Y160617D01*
Y163343D01*
X799345Y165975D01*
X797982Y168335D01*
X796055Y170262D01*
X793695Y171625D01*
X791063Y172330D01*
D02*
G37*
G36*
X765415Y140678D02*
Y137695D01*
X768398D01*
X768014Y138360D01*
X766080Y140294D01*
X765415Y140678D01*
D02*
G37*
G36*
X753985D02*
X753320Y140294D01*
X751386Y138360D01*
X751002Y137695D01*
X753985D01*
Y140678D01*
D02*
G37*
G36*
X768398Y126265D02*
X765415D01*
Y123282D01*
X766080Y123666D01*
X768014Y125600D01*
X768398Y126265D01*
D02*
G37*
G36*
X753985D02*
X751002D01*
X751386Y125600D01*
X753320Y123666D01*
X753985Y123282D01*
Y126265D01*
D02*
G37*
G36*
X800050Y142330D02*
X779350D01*
Y121630D01*
X800050D01*
Y142330D01*
D02*
G37*
G36*
X327376Y87356D02*
X325775D01*
X324296Y86744D01*
X323164Y85612D01*
X322552Y84133D01*
Y82532D01*
X323164Y81053D01*
X324296Y79921D01*
X325775Y79308D01*
X327376D01*
X328855Y79921D01*
X329987Y81053D01*
X330600Y82532D01*
Y84133D01*
X329987Y85612D01*
X328855Y86744D01*
X327376Y87356D01*
D02*
G37*
G36*
X301335Y89220D02*
X299345D01*
X297508Y88459D01*
X296101Y87052D01*
X295340Y85215D01*
Y83225D01*
X296101Y81388D01*
X297508Y79981D01*
X299345Y79220D01*
X301335D01*
X303172Y79981D01*
X304579Y81388D01*
X305340Y83225D01*
Y85215D01*
X304579Y87052D01*
X303172Y88459D01*
X301335Y89220D01*
D02*
G37*
G36*
X784423Y87024D02*
X780577D01*
X776805Y86274D01*
X773252Y84802D01*
X770054Y82665D01*
X767335Y79946D01*
X765198Y76748D01*
X763726Y73195D01*
X762976Y69423D01*
Y65577D01*
X763726Y61805D01*
X765198Y58252D01*
X767335Y55054D01*
X770054Y52335D01*
X773252Y50198D01*
X776805Y48726D01*
X780577Y47976D01*
X784423D01*
X788195Y48726D01*
X791748Y50198D01*
X794946Y52335D01*
X797665Y55054D01*
X799802Y58252D01*
X801274Y61805D01*
X802024Y65577D01*
Y69423D01*
X801274Y73195D01*
X799802Y76748D01*
X797665Y79946D01*
X794946Y82665D01*
X791748Y84802D01*
X788195Y86274D01*
X784423Y87024D01*
D02*
G37*
G36*
X646580Y54664D02*
X644980D01*
X643501Y54051D01*
X642369Y52919D01*
X641756Y51440D01*
Y49840D01*
X642369Y48361D01*
X643501Y47229D01*
X644980Y46616D01*
X646580D01*
X648059Y47229D01*
X649191Y48361D01*
X649804Y49840D01*
Y51440D01*
X649191Y52919D01*
X648059Y54051D01*
X646580Y54664D01*
D02*
G37*
G36*
X583080D02*
X581480D01*
X580001Y54051D01*
X578869Y52919D01*
X578256Y51440D01*
Y49840D01*
X578869Y48361D01*
X580001Y47229D01*
X581480Y46616D01*
X583080D01*
X584559Y47229D01*
X585691Y48361D01*
X586304Y49840D01*
Y51440D01*
X585691Y52919D01*
X584559Y54051D01*
X583080Y54664D01*
D02*
G37*
G36*
X516581Y54184D02*
X514980D01*
X513501Y53571D01*
X512369Y52439D01*
X511756Y50960D01*
Y49360D01*
X512369Y47881D01*
X513501Y46749D01*
X514980Y46136D01*
X516581D01*
X518059Y46749D01*
X519191Y47881D01*
X519804Y49360D01*
Y50960D01*
X519191Y52439D01*
X518059Y53571D01*
X516581Y54184D01*
D02*
G37*
G36*
X453080D02*
X451480D01*
X450001Y53571D01*
X448869Y52439D01*
X448256Y50960D01*
Y49360D01*
X448869Y47881D01*
X450001Y46749D01*
X451480Y46136D01*
X453080D01*
X454559Y46749D01*
X455691Y47881D01*
X456304Y49360D01*
Y50960D01*
X455691Y52439D01*
X454559Y53571D01*
X453080Y54184D01*
D02*
G37*
G36*
X686600Y21804D02*
X685000D01*
X683521Y21191D01*
X682389Y20059D01*
X681776Y18580D01*
Y16980D01*
X682389Y15501D01*
X683521Y14369D01*
X685000Y13756D01*
X686600D01*
X688079Y14369D01*
X689211Y15501D01*
X689824Y16980D01*
Y18580D01*
X689211Y20059D01*
X688079Y21191D01*
X686600Y21804D01*
D02*
G37*
G36*
X166715Y823040D02*
X164725D01*
X162888Y822279D01*
X161910Y821301D01*
X160932Y822279D01*
X159095Y823040D01*
X157106D01*
X155268Y822279D01*
X153861Y820872D01*
X153100Y819035D01*
Y817046D01*
X153861Y815208D01*
X154839Y814230D01*
X153861Y813252D01*
X153100Y811415D01*
Y809426D01*
X153861Y807588D01*
X155268Y806181D01*
X157106Y805420D01*
X159095D01*
X160210Y805882D01*
X161182Y804910D01*
X160720Y803795D01*
Y802720D01*
X159646D01*
X157808Y801959D01*
X156401Y800552D01*
X155640Y798715D01*
Y796725D01*
X156401Y794888D01*
X157808Y793481D01*
X159646Y792720D01*
X161635D01*
X163472Y793481D01*
X164879Y794888D01*
X165640Y796725D01*
Y797800D01*
X166715D01*
X168552Y798561D01*
X169959Y799968D01*
X170720Y801805D01*
Y803795D01*
X169959Y805632D01*
X168981Y806610D01*
X169959Y807588D01*
X170720Y809426D01*
Y811415D01*
X169959Y813252D01*
X168981Y814230D01*
X169959Y815208D01*
X170720Y817046D01*
Y819035D01*
X169959Y820872D01*
X168552Y822279D01*
X166715Y823040D01*
D02*
G37*
G36*
X161635Y739220D02*
X159646D01*
X157808Y738459D01*
X156401Y737052D01*
X155640Y735215D01*
Y733225D01*
X156401Y731388D01*
X157808Y729981D01*
X159646Y729220D01*
X161635D01*
X163472Y729981D01*
X164879Y731388D01*
X165640Y733225D01*
Y735215D01*
X164879Y737052D01*
X163472Y738459D01*
X161635Y739220D01*
D02*
G37*
G36*
X166715Y693040D02*
X164725D01*
X162888Y692279D01*
X161910Y691301D01*
X160932Y692279D01*
X159095Y693040D01*
X157106D01*
X155268Y692279D01*
X153861Y690872D01*
X153100Y689035D01*
Y687046D01*
X153861Y685208D01*
X154379Y684690D01*
X153241Y683552D01*
X152480Y681715D01*
Y679725D01*
X153120Y678180D01*
X152480Y676635D01*
Y674645D01*
X153241Y672808D01*
X154648Y671401D01*
X156416Y670669D01*
X156589Y670268D01*
X156839Y669370D01*
X155781Y668312D01*
X155020Y666475D01*
Y664485D01*
X155781Y662648D01*
X157188Y661241D01*
X159025Y660480D01*
X161015D01*
X162852Y661241D01*
X164259Y662648D01*
X165020Y664485D01*
Y666475D01*
X165104Y666600D01*
X166715D01*
X168552Y667361D01*
X169959Y668768D01*
X170720Y670605D01*
Y672595D01*
X169959Y674432D01*
X169211Y675180D01*
X168665Y676010D01*
X169211Y676840D01*
X169959Y677588D01*
X170720Y679426D01*
Y681415D01*
X169959Y683252D01*
X169581Y683630D01*
X169959Y684008D01*
X170720Y685845D01*
Y689035D01*
X169959Y690872D01*
X168552Y692279D01*
X166715Y693040D01*
D02*
G37*
G36*
X161635Y609220D02*
X159646D01*
X157808Y608459D01*
X156401Y607052D01*
X155640Y605215D01*
Y603226D01*
X156401Y601388D01*
X157808Y599981D01*
X159646Y599220D01*
X161635D01*
X163472Y599981D01*
X164879Y601388D01*
X165640Y603226D01*
Y605215D01*
X164879Y607052D01*
X163472Y608459D01*
X161635Y609220D01*
D02*
G37*
G36*
X166715Y563040D02*
X164725D01*
X162888Y562279D01*
X161910Y561301D01*
X160932Y562279D01*
X159095Y563040D01*
X157106D01*
X155268Y562279D01*
X153861Y560872D01*
X153100Y559035D01*
Y557046D01*
X153861Y555208D01*
X154839Y554230D01*
X153861Y553252D01*
X153100Y551415D01*
Y549426D01*
X153861Y547588D01*
X155268Y546181D01*
X157106Y545420D01*
X159095D01*
X160210Y545882D01*
X161182Y544910D01*
X160720Y543795D01*
Y542720D01*
X159646D01*
X157808Y541959D01*
X156401Y540552D01*
X155640Y538715D01*
Y536726D01*
X156401Y534888D01*
X157808Y533481D01*
X159646Y532720D01*
X161635D01*
X163472Y533481D01*
X164879Y534888D01*
X165640Y536726D01*
Y537800D01*
X166715D01*
X168552Y538561D01*
X169959Y539968D01*
X170720Y541805D01*
Y543795D01*
X169959Y545632D01*
X168981Y546610D01*
X169959Y547588D01*
X170720Y549426D01*
Y551415D01*
X169959Y553252D01*
X168981Y554230D01*
X169959Y555208D01*
X170720Y557046D01*
Y559035D01*
X169959Y560872D01*
X168552Y562279D01*
X166715Y563040D01*
D02*
G37*
G36*
X161635Y479220D02*
X159646D01*
X157808Y478459D01*
X156401Y477052D01*
X155640Y475215D01*
Y473226D01*
X156401Y471388D01*
X157808Y469981D01*
X159646Y469220D01*
X161635D01*
X163472Y469981D01*
X164879Y471388D01*
X165640Y473226D01*
Y475215D01*
X164879Y477052D01*
X163472Y478459D01*
X161635Y479220D01*
D02*
G37*
G36*
X166715Y433040D02*
X164725D01*
X162888Y432279D01*
X161910Y431301D01*
X160932Y432279D01*
X159095Y433040D01*
X157106D01*
X155268Y432279D01*
X153861Y430872D01*
X153100Y429035D01*
Y427046D01*
X153861Y425208D01*
X154839Y424230D01*
X153861Y423252D01*
X153100Y421415D01*
Y419426D01*
X153861Y417588D01*
X155268Y416181D01*
X157106Y415420D01*
X159095D01*
X160210Y415882D01*
X161182Y414910D01*
X160720Y413795D01*
Y412720D01*
X159646D01*
X157808Y411959D01*
X156401Y410552D01*
X155640Y408715D01*
Y406726D01*
X156401Y404888D01*
X157808Y403481D01*
X159646Y402720D01*
X161635D01*
X163472Y403481D01*
X164879Y404888D01*
X165640Y406726D01*
Y407800D01*
X166715D01*
X168552Y408561D01*
X169959Y409968D01*
X170720Y411805D01*
Y413795D01*
X169959Y415632D01*
X168981Y416610D01*
X169959Y417588D01*
X170720Y419426D01*
Y421415D01*
X169959Y423252D01*
X168981Y424230D01*
X169959Y425208D01*
X170720Y427046D01*
Y429035D01*
X169959Y430872D01*
X168552Y432279D01*
X166715Y433040D01*
D02*
G37*
G36*
X161635Y349220D02*
X159646D01*
X157808Y348459D01*
X156401Y347052D01*
X155640Y345215D01*
Y343226D01*
X156401Y341388D01*
X157808Y339981D01*
X159646Y339220D01*
X161635D01*
X163472Y339981D01*
X164879Y341388D01*
X165640Y343226D01*
Y345215D01*
X164879Y347052D01*
X163472Y348459D01*
X161635Y349220D01*
D02*
G37*
G36*
X166715Y303040D02*
X164725D01*
X162888Y302279D01*
X161910Y301301D01*
X160932Y302279D01*
X159095Y303040D01*
X157106D01*
X155268Y302279D01*
X153861Y300872D01*
X153100Y299035D01*
Y297045D01*
X153861Y295208D01*
X154839Y294230D01*
X153861Y293252D01*
X153100Y291415D01*
Y289426D01*
X153861Y287588D01*
X155268Y286181D01*
X157106Y285420D01*
X159095D01*
X160210Y285882D01*
X161182Y284910D01*
X160720Y283795D01*
Y282720D01*
X159646D01*
X157808Y281959D01*
X156401Y280552D01*
X155640Y278715D01*
Y276726D01*
X156401Y274888D01*
X157808Y273481D01*
X159646Y272720D01*
X161635D01*
X163472Y273481D01*
X164879Y274888D01*
X165640Y276726D01*
Y277800D01*
X166715D01*
X168552Y278561D01*
X169959Y279968D01*
X170720Y281805D01*
Y283795D01*
X169959Y285632D01*
X168981Y286610D01*
X169959Y287588D01*
X170720Y289426D01*
Y291415D01*
X169959Y293252D01*
X168981Y294230D01*
X169959Y295208D01*
X170720Y297045D01*
Y299035D01*
X169959Y300872D01*
X168552Y302279D01*
X166715Y303040D01*
D02*
G37*
G36*
X161635Y219220D02*
X159646D01*
X157808Y218459D01*
X156401Y217052D01*
X155640Y215215D01*
Y213225D01*
X156401Y211388D01*
X157808Y209981D01*
X159646Y209220D01*
X161635D01*
X163472Y209981D01*
X164879Y211388D01*
X165640Y213225D01*
Y215215D01*
X164879Y217052D01*
X163472Y218459D01*
X161635Y219220D01*
D02*
G37*
G36*
X669635Y197880D02*
X667645D01*
X665808Y197119D01*
X664401Y195712D01*
X663640Y193875D01*
Y191885D01*
X664401Y190048D01*
X665808Y188641D01*
X667645Y187880D01*
X669635D01*
X671472Y188641D01*
X672879Y190048D01*
X673640Y191885D01*
Y193875D01*
X672879Y195712D01*
X671472Y197119D01*
X669635Y197880D01*
D02*
G37*
G36*
X303875Y196360D02*
X301886D01*
X300048Y195599D01*
X298641Y194192D01*
X297880Y192355D01*
Y190366D01*
X298641Y188528D01*
X300048Y187121D01*
X301886Y186360D01*
X303875D01*
X305712Y187121D01*
X307119Y188528D01*
X307880Y190366D01*
Y192355D01*
X307119Y194192D01*
X305712Y195599D01*
X303875Y196360D01*
D02*
G37*
G36*
X166715Y173040D02*
X164725D01*
X162888Y172279D01*
X161910Y171301D01*
X160932Y172279D01*
X159095Y173040D01*
X157105D01*
X155268Y172279D01*
X153861Y170872D01*
X153100Y169035D01*
Y167045D01*
X153861Y165208D01*
X154839Y164230D01*
X153861Y163252D01*
X153100Y161415D01*
Y159425D01*
X153861Y157588D01*
X155268Y156181D01*
X157105Y155420D01*
X159095D01*
X160210Y155882D01*
X161182Y154910D01*
X160720Y153795D01*
Y152720D01*
X159645D01*
X157808Y151959D01*
X156401Y150552D01*
X155640Y148715D01*
Y146725D01*
X156401Y144888D01*
X157808Y143481D01*
X159645Y142720D01*
X161635D01*
X163472Y143481D01*
X164879Y144888D01*
X165640Y146725D01*
Y147800D01*
X166715D01*
X168552Y148561D01*
X169959Y149968D01*
X170720Y151805D01*
Y153795D01*
X169959Y155632D01*
X168981Y156610D01*
X169959Y157588D01*
X170720Y159425D01*
Y161415D01*
X169959Y163252D01*
X168981Y164230D01*
X169959Y165208D01*
X170720Y167045D01*
Y169035D01*
X169959Y170872D01*
X168552Y172279D01*
X166715Y173040D01*
D02*
G37*
G36*
X329275Y162880D02*
X327285D01*
X325448Y162119D01*
X324041Y160712D01*
X323280Y158875D01*
Y156885D01*
X324041Y155048D01*
X325448Y153641D01*
X327285Y152880D01*
X329275D01*
X331112Y153641D01*
X332519Y155048D01*
X333280Y156885D01*
Y158875D01*
X332519Y160712D01*
X331112Y162119D01*
X329275Y162880D01*
D02*
G37*
G36*
X301335Y160340D02*
X299345D01*
X297508Y159579D01*
X296101Y158172D01*
X295340Y156335D01*
Y154345D01*
X296101Y152508D01*
X297508Y151101D01*
X299345Y150340D01*
X301335D01*
X303172Y151101D01*
X304579Y152508D01*
X305340Y154345D01*
Y156335D01*
X304579Y158172D01*
X303172Y159579D01*
X301335Y160340D01*
D02*
G37*
G36*
X355199Y142560D02*
X353209D01*
X351372Y141799D01*
X349965Y140392D01*
X349204Y138555D01*
Y136565D01*
X349965Y134728D01*
X351372Y133321D01*
X353209Y132560D01*
X355199D01*
X357036Y133321D01*
X358443Y134728D01*
X359204Y136565D01*
Y138555D01*
X358443Y140392D01*
X357036Y141799D01*
X355199Y142560D01*
D02*
G37*
G36*
X161635Y89220D02*
X159645D01*
X157808Y88459D01*
X156401Y87052D01*
X155640Y85215D01*
Y83225D01*
X156401Y81388D01*
X157808Y79981D01*
X159645Y79220D01*
X161635D01*
X163472Y79981D01*
X164879Y81388D01*
X165640Y83225D01*
Y85215D01*
X164879Y87052D01*
X163472Y88459D01*
X161635Y89220D01*
D02*
G37*
G36*
X69519Y88000D02*
X65481D01*
X61520Y87212D01*
X57790Y85667D01*
X54432Y83423D01*
X51577Y80568D01*
X49333Y77210D01*
X47788Y73480D01*
X47000Y69519D01*
Y65481D01*
X47788Y61520D01*
X49333Y57790D01*
X51577Y54432D01*
X54432Y51577D01*
X57790Y49333D01*
X61520Y47788D01*
X65481Y47000D01*
X69519D01*
X73480Y47788D01*
X77210Y49333D01*
X80568Y51577D01*
X83423Y54432D01*
X85667Y57790D01*
X87212Y61520D01*
X88000Y65481D01*
Y69519D01*
X87212Y73480D01*
X85667Y77210D01*
X83423Y80568D01*
X80568Y83423D01*
X77210Y85667D01*
X73480Y87212D01*
X69519Y88000D01*
D02*
G37*
%LPD*%
D14*
X446159Y570752D02*
X473610Y598203D01*
X477674Y589434D02*
Y604982D01*
X459740Y571500D02*
X477674Y589434D01*
X473610Y606666D02*
X480000Y613055D01*
Y745000D01*
X473610Y598203D02*
Y606666D01*
X477674Y604982D02*
X487680Y614988D01*
Y739140D01*
X459740Y561772D02*
Y571500D01*
X458623Y560974D02*
X459421Y561772D01*
X457957Y560974D02*
X458623D01*
X459421Y561772D02*
X459740D01*
X446159Y565427D02*
X449580Y562006D01*
Y561340D02*
Y562006D01*
X446159Y565427D02*
Y570752D01*
D15*
X599440Y562688D02*
Y624840D01*
Y562688D02*
X600040Y562088D01*
Y489620D02*
Y562088D01*
X600000Y630000D02*
X662860D01*
X510000Y720000D02*
X600000Y630000D01*
X515000Y720388D02*
Y730000D01*
X459739Y777748D02*
X510000Y727487D01*
X515000Y720388D02*
X600388Y635000D01*
X662889D01*
X463696Y781304D02*
X515000Y730000D01*
X510000Y720000D02*
Y727487D01*
X657860Y391160D02*
Y431800D01*
X600040Y489620D02*
X657860Y431800D01*
X665520Y395657D02*
X666456Y394720D01*
X662900Y389072D02*
Y393248D01*
X661670Y394478D02*
X662900Y393248D01*
X665520Y395657D02*
Y436408D01*
Y386664D02*
X666456Y387599D01*
X661670Y354842D02*
Y387842D01*
Y394478D02*
Y435229D01*
Y387842D02*
X662900Y389072D01*
X665520Y353664D02*
Y386664D01*
X666456Y387599D02*
Y394720D01*
X673617Y354633D02*
X674673D01*
X660908Y354081D02*
X661670Y354842D01*
X664464Y348432D02*
Y352608D01*
X661670Y332740D02*
Y338577D01*
X664464Y340812D02*
X665520Y339756D01*
X664464Y352608D02*
X665520Y353664D01*
X674673Y354633D02*
X676698Y356658D01*
X665520Y346044D02*
Y347376D01*
X660908Y339339D02*
Y354081D01*
Y339339D02*
X661670Y338577D01*
X673617Y338787D02*
X674673D01*
X664464Y348432D02*
X665520Y347376D01*
X674673Y338787D02*
X675888Y337572D01*
X665520Y333174D02*
Y339756D01*
X669504Y350520D02*
X673617Y354633D01*
X664464Y344988D02*
X665520Y346044D01*
X669504Y342900D02*
X673617Y338787D01*
X664464Y340812D02*
Y344988D01*
X675888Y337572D02*
X677572D01*
X680254Y340254D01*
X676698Y356658D02*
Y383507D01*
X665520Y333174D02*
X666750Y331944D01*
X703334Y337413D02*
Y385207D01*
X676698Y383507D02*
X686747Y393556D01*
X703334Y337413D02*
X711683Y329064D01*
X686747Y393556D02*
X694985D01*
X617220Y484708D02*
X665520Y436408D01*
X694985Y393556D02*
X703334Y385207D01*
X666750Y302260D02*
Y331944D01*
X709220Y670000D02*
X728940Y650280D01*
X655484Y670000D02*
X709220D01*
X728940Y636068D02*
Y650280D01*
X700368Y609432D02*
X757112Y552688D01*
X695584Y609432D02*
X700368D01*
X695017Y610000D02*
X695584Y609432D01*
X662889Y635000D02*
X697262Y600627D01*
X693706Y576294D02*
Y599154D01*
X662860Y630000D02*
X693706Y599154D01*
X697262Y587978D02*
Y600627D01*
Y587978D02*
X753556Y531684D01*
Y344290D02*
Y531684D01*
X693706Y576294D02*
X750000Y520000D01*
X716280Y599267D02*
X760922Y554625D01*
X716280Y632460D02*
X723900Y640080D01*
X716280Y599267D02*
Y632460D01*
X719960Y627088D02*
X728940Y636068D01*
X719960Y600975D02*
Y627088D01*
Y600975D02*
X764732Y556203D01*
X721820Y678180D02*
X725000Y675000D01*
X625018Y675524D02*
X627674Y678180D01*
X625000Y675524D02*
X625018D01*
X627674Y678180D02*
X721820D01*
X631060Y662940D02*
X695471D01*
X697991Y660421D01*
X625000Y669000D02*
X631060Y662940D01*
X697991Y660421D02*
X698146D01*
X604520Y688340D02*
X632460Y716280D01*
X553720Y688340D02*
X604520D01*
X520700Y721360D02*
X553720Y688340D01*
X520700Y721360D02*
Y734060D01*
X655000Y670484D02*
X655484Y670000D01*
X469900Y784860D02*
X520700Y734060D01*
X449580Y784860D02*
X469900D01*
X434788Y794623D02*
X448107Y781304D01*
X434382Y790000D02*
X446634Y777748D01*
X424180Y810260D02*
X449580Y784860D01*
X448107Y781304D02*
X463696D01*
X410377Y794623D02*
X434788D01*
X420000Y790000D02*
X434382D01*
X446634Y777748D02*
X459739D01*
X396240Y810260D02*
X424180D01*
X404372Y795000D02*
X410000D01*
X364372Y835000D02*
X404372Y795000D01*
X395000Y765000D02*
Y799343D01*
X130000Y835000D02*
X364372D01*
X364343Y830000D02*
X395000Y799343D01*
X131205Y830000D02*
X364343D01*
X548640Y665480D02*
Y673100D01*
X491490Y608330D02*
X548640Y665480D01*
X523240Y645160D02*
Y647700D01*
X543560Y668020D01*
X481484Y603404D02*
X523240Y645160D01*
X485040Y591412D02*
X491490Y597862D01*
Y608330D01*
X481484Y577373D02*
Y603404D01*
X460045Y555934D02*
X481484Y577373D01*
X447858Y555934D02*
X460045D01*
X461518Y552378D02*
X485040Y575900D01*
X446385Y552378D02*
X461518D01*
X485040Y575900D02*
Y591412D01*
X445043Y553720D02*
X446385Y552378D01*
X413496Y557276D02*
X446516D01*
X408980Y561792D02*
X413496Y557276D01*
X446516D02*
X447858Y555934D01*
X417052Y553720D02*
X445043D01*
X408980Y561792D02*
Y565968D01*
X409196Y566184D01*
Y576324D01*
X405424Y560320D02*
Y567440D01*
X405640Y567657D02*
Y569720D01*
X396240Y589280D02*
X409196Y576324D01*
X405424Y567440D02*
X405640Y567657D01*
X412024Y553720D02*
X417052D01*
X405424Y560320D02*
X412024Y553720D01*
X398780Y576580D02*
X405640Y569720D01*
X617220Y484708D02*
Y604520D01*
X629920Y617220D01*
X326197Y593283D02*
X360680Y558800D01*
X326197Y593283D02*
Y603304D01*
X90000Y640000D02*
X130014Y680014D01*
X80000Y640000D02*
X90000D01*
X790000Y750000D02*
X825000Y785000D01*
X770000Y750000D02*
X790000D01*
X551180Y293370D02*
X554990Y289560D01*
X547607Y289815D02*
X547624Y289832D01*
Y581914D01*
X513080Y591007D02*
X540512Y563575D01*
X547624Y581914D02*
X556260Y590550D01*
X541020Y337871D02*
X544068Y340919D01*
X540512Y342392D02*
Y563575D01*
X544068Y340919D02*
Y577342D01*
X551180Y293370D02*
Y563880D01*
X533400Y335280D02*
X540512Y342392D01*
X551180Y563880D02*
X582930Y595630D01*
X541020Y292100D02*
Y337871D01*
X539750Y581660D02*
X544068Y577342D01*
X728700Y708700D02*
X770000Y750000D01*
X676300Y708700D02*
X728700D01*
X748317Y329064D02*
X757112Y337859D01*
X750000Y325000D02*
X760922Y335922D01*
X764732Y334344D02*
Y556203D01*
X740000Y340000D02*
X750000Y350000D01*
Y520000D01*
Y340000D02*
Y340734D01*
X753556Y344290D01*
X760922Y335922D02*
Y554625D01*
X751578Y321190D02*
X764732Y334344D01*
X757112Y337859D02*
Y552688D01*
X690000Y335000D02*
Y380000D01*
X695294Y339706D02*
X710000Y325000D01*
X695294Y339706D02*
Y388218D01*
X693512Y390000D02*
X695294Y388218D01*
X680254Y340254D02*
Y382034D01*
X688220Y390000D02*
X693512D01*
X680254Y382034D02*
X688220Y390000D01*
X711683Y329064D02*
X748317D01*
X675744Y716384D02*
Y716743D01*
X518160Y756920D02*
X635567D01*
X672728Y705144D02*
X730173D01*
X635567Y756920D02*
X675744Y716743D01*
X654960Y722912D02*
X672728Y705144D01*
X654960Y729960D02*
X655000Y730000D01*
X654960Y722912D02*
Y729960D01*
X660000Y725000D02*
X676300Y708700D01*
X730173Y705144D02*
X771473Y746444D01*
X811844D01*
X825000Y759600D01*
X655888Y771592D02*
X658408D01*
X690000Y740000D01*
X655320Y772160D02*
X655888Y771592D01*
X703810Y321190D02*
X751578D01*
X710000Y325000D02*
X750000D01*
X690000Y335000D02*
X703810Y321190D01*
X130014Y828810D02*
X131205Y830000D01*
X130014Y680014D02*
Y828810D01*
X80000Y650000D02*
X120000Y690000D01*
Y825000D01*
X130000Y835000D01*
X513080Y591007D02*
Y595630D01*
X395000Y765000D02*
X420000Y790000D01*
X410000Y795000D02*
X410377Y794623D01*
X772160Y685800D02*
X792480D01*
X800100Y693420D01*
X647700Y318770D02*
X661670Y332740D01*
X612140Y484759D02*
X661670Y435229D01*
X612140Y484759D02*
Y615950D01*
X647700Y302260D02*
X648970Y300990D01*
X647700Y302260D02*
Y318770D01*
X533400Y297180D02*
Y335280D01*
D38*
X70400Y487500D02*
D03*
Y472500D02*
D03*
Y457500D02*
D03*
Y442500D02*
D03*
Y427500D02*
D03*
Y412500D02*
D03*
Y397500D02*
D03*
Y382500D02*
D03*
Y367500D02*
D03*
Y352500D02*
D03*
D39*
X18500Y326450D02*
D03*
Y513550D02*
D03*
D115*
X819700Y171380D02*
D03*
X729700D02*
D03*
D116*
X759700Y161980D02*
D03*
X789700D02*
D03*
X759700Y131980D02*
D03*
D117*
X789700D02*
D03*
D127*
X825000Y785000D02*
D03*
Y759600D02*
D03*
D128*
X628400Y410800D02*
D03*
Y385400D02*
D03*
Y360000D02*
D03*
Y334600D02*
D03*
D129*
X793860Y634980D02*
D03*
Y721380D02*
D03*
D130*
X835660Y634980D02*
D03*
Y721380D02*
D03*
D131*
X798860Y707080D02*
D03*
Y649280D02*
D03*
D132*
X599440Y624840D02*
D03*
X657860Y391160D02*
D03*
X669504Y342900D02*
D03*
Y350520D02*
D03*
X590000Y410000D02*
D03*
X685800Y17780D02*
D03*
X645160D02*
D03*
X679996Y419996D02*
D03*
X751840Y627380D02*
D03*
X715000Y650000D02*
D03*
X695017Y610000D02*
D03*
X663186Y622546D02*
D03*
X702302Y591184D02*
D03*
X710347Y617500D02*
D03*
X723900Y640080D02*
D03*
X698146Y660421D02*
D03*
X632460Y716280D02*
D03*
X625000Y669000D02*
D03*
X655000Y670484D02*
D03*
X396240Y810260D02*
D03*
X299720Y593939D02*
D03*
X326197Y733304D02*
D03*
X548640Y673100D02*
D03*
X543560Y668020D02*
D03*
X457957Y560974D02*
D03*
X414020Y563880D02*
D03*
X622300Y594360D02*
D03*
X480000Y745000D02*
D03*
X449580Y561340D02*
D03*
X396240Y589280D02*
D03*
X398780Y576580D02*
D03*
X515780Y189860D02*
D03*
X160640Y84220D02*
D03*
X561855Y48474D02*
D03*
X646696Y216197D02*
D03*
X516696Y215717D02*
D03*
X326197Y213304D02*
D03*
Y343304D02*
D03*
Y473304D02*
D03*
Y603304D02*
D03*
X326576Y83332D02*
D03*
X262240Y563120D02*
D03*
X353680Y464060D02*
D03*
X400010Y450000D02*
D03*
X158100Y420420D02*
D03*
X160640Y407720D02*
D03*
X165720Y420420D02*
D03*
Y412800D02*
D03*
X302880Y191360D02*
D03*
X354204Y397560D02*
D03*
X300287Y344250D02*
D03*
X360680Y558800D02*
D03*
X419100Y607060D02*
D03*
X495000Y590000D02*
D03*
X457200Y589280D02*
D03*
X375920Y685800D02*
D03*
X80000Y640000D02*
D03*
X547607Y289815D02*
D03*
X690000Y380000D02*
D03*
X710077Y339954D02*
D03*
X750000Y340000D02*
D03*
X740000D02*
D03*
X660000Y725000D02*
D03*
X675744Y716384D02*
D03*
X751840Y718820D02*
D03*
X655000Y730000D02*
D03*
X690000Y740000D02*
D03*
X805000D02*
D03*
X558800Y739120D02*
D03*
X575300Y706120D02*
D03*
X713836Y588836D02*
D03*
X554990Y289560D02*
D03*
X690000Y425000D02*
D03*
X725000Y610000D02*
D03*
X731520Y599440D02*
D03*
X755000Y600000D02*
D03*
X745000D02*
D03*
X759460Y297180D02*
D03*
X725000Y625000D02*
D03*
X80000Y605000D02*
D03*
Y620000D02*
D03*
Y650000D02*
D03*
X210000Y800000D02*
D03*
X220000D02*
D03*
X210000Y810000D02*
D03*
X230000Y820000D02*
D03*
X220000Y810000D02*
D03*
X210000Y820000D02*
D03*
X220000D02*
D03*
X165720Y818040D02*
D03*
X158100D02*
D03*
X165720Y810420D02*
D03*
X158100D02*
D03*
X513080Y595630D02*
D03*
X582930D02*
D03*
X475000Y755000D02*
D03*
X395000Y765000D02*
D03*
X410000Y795000D02*
D03*
X460000D02*
D03*
X465000Y755000D02*
D03*
X438292D02*
D03*
X445000D02*
D03*
X455000D02*
D03*
X470000Y795000D02*
D03*
X604520Y594360D02*
D03*
Y584200D02*
D03*
X625000Y675524D02*
D03*
X725000Y675000D02*
D03*
X765000Y600000D02*
D03*
X772160Y685800D02*
D03*
X777240Y718820D02*
D03*
X774700Y640080D02*
D03*
X800100Y693420D02*
D03*
X751840Y650240D02*
D03*
X746760Y688340D02*
D03*
X647700Y642620D02*
D03*
X713740Y713740D02*
D03*
Y728980D02*
D03*
X739140Y739140D02*
D03*
Y777240D02*
D03*
X518160Y756920D02*
D03*
X469900Y627380D02*
D03*
X487680Y739140D02*
D03*
X460000Y470000D02*
D03*
X595000Y550000D02*
D03*
Y560000D02*
D03*
X585000Y550000D02*
D03*
X575000D02*
D03*
X565000D02*
D03*
X585000Y560000D02*
D03*
X575000D02*
D03*
X565000D02*
D03*
X585000Y570000D02*
D03*
X575000D02*
D03*
X565000D02*
D03*
X655320Y756920D02*
D03*
Y764540D02*
D03*
Y772160D02*
D03*
X690000Y790000D02*
D03*
X655000D02*
D03*
X558800Y706120D02*
D03*
Y722620D02*
D03*
X575300Y739120D02*
D03*
Y722620D02*
D03*
X591800Y706120D02*
D03*
Y739120D02*
D03*
Y722620D02*
D03*
X730000Y355000D02*
D03*
X570000Y350000D02*
D03*
X590000D02*
D03*
X570000Y450000D02*
D03*
X590000D02*
D03*
Y370000D02*
D03*
X570000D02*
D03*
X590000Y430000D02*
D03*
X570000Y390000D02*
D03*
X590000D02*
D03*
X570000Y430000D02*
D03*
Y410000D02*
D03*
X400010Y470000D02*
D03*
Y490000D02*
D03*
X420000Y470000D02*
D03*
Y490000D02*
D03*
X460000D02*
D03*
X480000Y470000D02*
D03*
Y490000D02*
D03*
X510000Y470000D02*
D03*
Y490000D02*
D03*
X530000Y470000D02*
D03*
Y490000D02*
D03*
X570000Y470000D02*
D03*
Y490000D02*
D03*
X590000Y470000D02*
D03*
Y490000D02*
D03*
X539750Y581660D02*
D03*
X556260Y590550D02*
D03*
X651304Y575000D02*
D03*
X571500Y629920D02*
D03*
X629920Y617220D02*
D03*
X612140Y615950D02*
D03*
X533400Y614680D02*
D03*
X497840Y645160D02*
D03*
X467360Y665480D02*
D03*
X459740Y695960D02*
D03*
X480000Y795000D02*
D03*
X490000D02*
D03*
X436840Y731520D02*
D03*
X400010Y350000D02*
D03*
X420000D02*
D03*
X400010Y370000D02*
D03*
X420000D02*
D03*
X460000Y350000D02*
D03*
X480000D02*
D03*
X510000D02*
D03*
X530000D02*
D03*
X460000Y370000D02*
D03*
X480000D02*
D03*
X510000D02*
D03*
X530000D02*
D03*
X460000Y390000D02*
D03*
X480000D02*
D03*
X510000D02*
D03*
X530000D02*
D03*
X460000Y410000D02*
D03*
X480000D02*
D03*
X510000D02*
D03*
X530000D02*
D03*
X460000Y430000D02*
D03*
X480000D02*
D03*
X510000D02*
D03*
X530000D02*
D03*
X460000Y450000D02*
D03*
X480000D02*
D03*
X510000D02*
D03*
X530000D02*
D03*
X400010Y390000D02*
D03*
X420000D02*
D03*
Y450000D02*
D03*
X400010Y410000D02*
D03*
X420000D02*
D03*
X400010Y430000D02*
D03*
X420000D02*
D03*
X840000Y345000D02*
D03*
Y355000D02*
D03*
Y365000D02*
D03*
Y375000D02*
D03*
Y385000D02*
D03*
X830000D02*
D03*
Y375000D02*
D03*
Y365000D02*
D03*
Y355000D02*
D03*
Y345000D02*
D03*
X820000D02*
D03*
Y355000D02*
D03*
Y365000D02*
D03*
Y375000D02*
D03*
Y385000D02*
D03*
X749300Y297180D02*
D03*
X715000Y105000D02*
D03*
Y115000D02*
D03*
Y125000D02*
D03*
Y135000D02*
D03*
X705000Y105000D02*
D03*
Y115000D02*
D03*
Y125000D02*
D03*
Y135000D02*
D03*
X695000Y105000D02*
D03*
Y115000D02*
D03*
Y125000D02*
D03*
Y135000D02*
D03*
X705000Y145000D02*
D03*
Y155000D02*
D03*
Y165000D02*
D03*
Y175000D02*
D03*
X695000Y145000D02*
D03*
Y155000D02*
D03*
Y165000D02*
D03*
Y175000D02*
D03*
Y185000D02*
D03*
X705000D02*
D03*
X715000D02*
D03*
X725000D02*
D03*
X695000Y195000D02*
D03*
X705000D02*
D03*
X715000D02*
D03*
X725000D02*
D03*
X695000Y205000D02*
D03*
X705000D02*
D03*
X715000D02*
D03*
X725000D02*
D03*
X695000Y215000D02*
D03*
X705000D02*
D03*
X715000D02*
D03*
X725000D02*
D03*
Y225000D02*
D03*
X715000D02*
D03*
X705000D02*
D03*
X695000D02*
D03*
X648970Y300990D02*
D03*
X666750Y302260D02*
D03*
X541020Y292100D02*
D03*
X533400Y297180D02*
D03*
X560000Y110000D02*
D03*
Y120000D02*
D03*
Y130000D02*
D03*
Y140000D02*
D03*
X570000Y120000D02*
D03*
X580000D02*
D03*
X570000Y140000D02*
D03*
X580000D02*
D03*
X570000Y130000D02*
D03*
Y110000D02*
D03*
X580000D02*
D03*
X560000Y100000D02*
D03*
X570000D02*
D03*
X580000Y100000D02*
D03*
X430000Y110000D02*
D03*
Y120000D02*
D03*
Y130000D02*
D03*
Y140000D02*
D03*
X440000Y120000D02*
D03*
X450000D02*
D03*
X440000Y140000D02*
D03*
X450000D02*
D03*
X440000Y130000D02*
D03*
Y110000D02*
D03*
X450000D02*
D03*
X430000Y100000D02*
D03*
X440000D02*
D03*
X450000Y100000D02*
D03*
X220000Y170000D02*
D03*
X230000D02*
D03*
X240000D02*
D03*
X250000D02*
D03*
X230000Y160000D02*
D03*
Y150000D02*
D03*
X250000Y160000D02*
D03*
Y150000D02*
D03*
X240000Y160000D02*
D03*
X220000D02*
D03*
Y150000D02*
D03*
X210000Y170000D02*
D03*
Y160000D02*
D03*
X210000Y150000D02*
D03*
X220000Y300000D02*
D03*
X230000D02*
D03*
X240000D02*
D03*
X250000D02*
D03*
X230000Y290000D02*
D03*
Y280000D02*
D03*
X250000Y290000D02*
D03*
Y280000D02*
D03*
X240000Y290000D02*
D03*
X220000D02*
D03*
Y280000D02*
D03*
X210000Y300000D02*
D03*
Y290000D02*
D03*
X210000Y280000D02*
D03*
X220000Y430000D02*
D03*
X230000D02*
D03*
X240000D02*
D03*
X250000D02*
D03*
X230000Y420000D02*
D03*
Y410000D02*
D03*
X250000Y420000D02*
D03*
Y410000D02*
D03*
X240000Y420000D02*
D03*
X220000D02*
D03*
Y410000D02*
D03*
X210000Y430000D02*
D03*
Y420000D02*
D03*
X210000Y410000D02*
D03*
X220000Y560000D02*
D03*
X230000D02*
D03*
X240000D02*
D03*
X250000D02*
D03*
X230000Y550000D02*
D03*
Y540000D02*
D03*
X250000Y550000D02*
D03*
Y540000D02*
D03*
X240000Y550000D02*
D03*
X220000D02*
D03*
Y540000D02*
D03*
X210000Y560000D02*
D03*
Y550000D02*
D03*
X210000Y540000D02*
D03*
X220000Y690000D02*
D03*
X230000D02*
D03*
X240000D02*
D03*
X250000D02*
D03*
X230000Y680000D02*
D03*
Y670000D02*
D03*
X250000Y680000D02*
D03*
Y670000D02*
D03*
X240000Y680000D02*
D03*
X220000D02*
D03*
Y670000D02*
D03*
X210000Y690000D02*
D03*
Y680000D02*
D03*
X210000Y670000D02*
D03*
X240000Y810000D02*
D03*
X250000Y800000D02*
D03*
Y810000D02*
D03*
X230000Y800000D02*
D03*
Y810000D02*
D03*
X250000Y820000D02*
D03*
X240000D02*
D03*
X565664Y52016D02*
D03*
X574865Y60070D02*
D03*
X431960Y47620D02*
D03*
X439580D02*
D03*
X158100Y160420D02*
D03*
X165720Y152800D02*
D03*
Y160420D02*
D03*
X158100Y168040D02*
D03*
X165720Y428040D02*
D03*
X491650Y216530D02*
D03*
X499270D02*
D03*
X491650Y207640D02*
D03*
X499270D02*
D03*
X491650Y198750D02*
D03*
X499270D02*
D03*
X621650Y217010D02*
D03*
X629270D02*
D03*
X621650Y208120D02*
D03*
X629270D02*
D03*
X621650Y199230D02*
D03*
X629270D02*
D03*
X262240Y693120D02*
D03*
X300340Y604220D02*
D03*
X354204Y657560D02*
D03*
X353680Y594060D02*
D03*
X361300Y599140D02*
D03*
X340980Y619460D02*
D03*
X160640Y604220D02*
D03*
X300340Y675340D02*
D03*
X160020Y665480D02*
D03*
X328280Y677880D02*
D03*
X340980Y632160D02*
D03*
X165720Y680420D02*
D03*
X300340Y474220D02*
D03*
X354204Y527560D02*
D03*
X361300Y469140D02*
D03*
X340980Y489460D02*
D03*
X160640Y474220D02*
D03*
X300340Y545340D02*
D03*
X160640Y537720D02*
D03*
X328280Y547880D02*
D03*
X340980Y502160D02*
D03*
X165720Y550420D02*
D03*
X302880Y451360D02*
D03*
X262240Y433120D02*
D03*
X353680Y334060D02*
D03*
X361300Y339140D02*
D03*
X340980Y359460D02*
D03*
X160640Y344220D02*
D03*
X300340Y415340D02*
D03*
X328280Y417880D02*
D03*
X340980Y372160D02*
D03*
X302880Y321360D02*
D03*
X262240Y303120D02*
D03*
X300340Y214220D02*
D03*
X354204Y267560D02*
D03*
X353680Y204060D02*
D03*
X361300Y209140D02*
D03*
X340980Y229460D02*
D03*
X160640Y214220D02*
D03*
X300340Y285340D02*
D03*
X160640Y277720D02*
D03*
X328280Y287880D02*
D03*
X340980Y242160D02*
D03*
X165720Y290420D02*
D03*
X262240Y173120D02*
D03*
X300340Y84220D02*
D03*
X354204Y137560D02*
D03*
X353680Y74060D02*
D03*
X361300Y79140D02*
D03*
X340980Y99460D02*
D03*
X300340Y155340D02*
D03*
X160640Y147720D02*
D03*
X328280Y157880D02*
D03*
X340980Y112160D02*
D03*
X302880Y61360D02*
D03*
X426880Y151760D02*
D03*
X462440Y243724D02*
D03*
X525940Y243200D02*
D03*
X520860Y250820D02*
D03*
X500540Y230500D02*
D03*
X444660Y189860D02*
D03*
X515780Y50160D02*
D03*
X442120Y217800D02*
D03*
X452280Y50160D02*
D03*
X487840Y230500D02*
D03*
X439580Y55240D02*
D03*
X538640Y192400D02*
D03*
X556880Y152240D02*
D03*
X645780Y190340D02*
D03*
X592440Y244204D02*
D03*
X655940Y243680D02*
D03*
X650860Y251300D02*
D03*
X630540Y230980D02*
D03*
X574660Y190340D02*
D03*
X645780Y50640D02*
D03*
X572120Y218280D02*
D03*
X582280Y50640D02*
D03*
X617840Y230980D02*
D03*
X569580Y55720D02*
D03*
X668640Y192880D02*
D03*
X165720Y671600D02*
D03*
X157480Y680720D02*
D03*
Y675640D02*
D03*
X561960Y55720D02*
D03*
X431960Y55240D02*
D03*
X447200D02*
D03*
X165720Y168040D02*
D03*
X158100Y298040D02*
D03*
X165720D02*
D03*
Y282800D02*
D03*
X158100Y290420D02*
D03*
Y428040D02*
D03*
Y558040D02*
D03*
X165720D02*
D03*
Y542800D02*
D03*
X158100Y550420D02*
D03*
Y688040D02*
D03*
X165720D02*
D03*
X327010Y238350D02*
D03*
Y230730D02*
D03*
X318120Y238350D02*
D03*
Y230730D02*
D03*
X309230Y238350D02*
D03*
Y230730D02*
D03*
X327010Y368350D02*
D03*
Y360730D02*
D03*
X318120Y368350D02*
D03*
Y360730D02*
D03*
X309230Y368350D02*
D03*
Y360730D02*
D03*
X165720Y686840D02*
D03*
Y802800D02*
D03*
X302880Y711360D02*
D03*
X340980Y762160D02*
D03*
X328280Y807880D02*
D03*
X160640Y797720D02*
D03*
X300340Y805340D02*
D03*
X160640Y734220D02*
D03*
X340980Y749460D02*
D03*
X361300Y729140D02*
D03*
X353680Y724060D02*
D03*
X354204Y787560D02*
D03*
X262240Y823120D02*
D03*
X300340Y734220D02*
D03*
X327010Y758350D02*
D03*
Y750730D02*
D03*
X318120Y758350D02*
D03*
Y750730D02*
D03*
X309230Y758350D02*
D03*
Y750730D02*
D03*
X327010Y628350D02*
D03*
Y620730D02*
D03*
X318120Y628350D02*
D03*
Y620730D02*
D03*
X309230Y628350D02*
D03*
Y620730D02*
D03*
X327010Y498350D02*
D03*
Y490730D02*
D03*
X318120Y498350D02*
D03*
Y490730D02*
D03*
X309230Y498350D02*
D03*
Y490730D02*
D03*
X327010Y108350D02*
D03*
Y100730D02*
D03*
X318120Y108350D02*
D03*
Y100730D02*
D03*
X309230Y108350D02*
D03*
Y100730D02*
D03*
M02*
