G04*
G04 #@! TF.GenerationSoftware,Altium Limited,Altium Designer,24.9.1 (31)*
G04*
G04 Layer_Physical_Order=3*
G04 Layer_Color=16440176*
%FSLAX44Y44*%
%MOMM*%
G71*
G04*
G04 #@! TF.SameCoordinates,E8F54852-4FAE-476C-9330-F2E97CA3312C*
G04*
G04*
G04 #@! TF.FilePolarity,Positive*
G04*
G01*
G75*
%ADD14C,0.2540*%
%ADD15C,0.2032*%
%ADD115C,1.0200*%
%ADD116C,1.5700*%
%ADD117R,1.5700X1.5700*%
%ADD122C,0.6350*%
%ADD127C,1.5240*%
%ADD128C,1.5000*%
%ADD129O,2.1000X1.0500*%
%ADD130O,1.8000X0.9000*%
%ADD131C,0.6500*%
%ADD132C,0.5000*%
G36*
X844821Y727038D02*
X843551Y726359D01*
X842510Y727055D01*
X840160Y727522D01*
X831160D01*
X828810Y727055D01*
X826817Y725723D01*
X825486Y723730D01*
X825018Y721380D01*
X825486Y719029D01*
X826817Y717037D01*
X828810Y715705D01*
X831160Y715238D01*
X840160D01*
X842510Y715705D01*
X843551Y716401D01*
X844821Y715722D01*
Y640638D01*
X843551Y639959D01*
X842510Y640655D01*
X840160Y641122D01*
X831160D01*
X828810Y640655D01*
X826817Y639323D01*
X825486Y637330D01*
X825018Y634980D01*
X825486Y632630D01*
X826817Y630637D01*
X828810Y629305D01*
X831160Y628838D01*
X840160D01*
X842510Y629305D01*
X843551Y630001D01*
X844821Y629322D01*
Y410000D01*
X637424D01*
Y411988D01*
X636809Y414283D01*
X635621Y416341D01*
X633941Y418021D01*
X631883Y419209D01*
X629588Y419824D01*
X627212D01*
X624917Y419209D01*
X622859Y418021D01*
X621179Y416341D01*
X619991Y414283D01*
X619376Y411988D01*
Y410000D01*
X594024D01*
Y410800D01*
X593411Y412279D01*
X592279Y413411D01*
X590800Y414024D01*
X589200D01*
X587721Y413411D01*
X586589Y412279D01*
X585976Y410800D01*
Y410000D01*
X574024D01*
Y410800D01*
X573411Y412279D01*
X572279Y413411D01*
X570800Y414024D01*
X569199D01*
X567721Y413411D01*
X566589Y412279D01*
X565976Y410800D01*
Y410000D01*
X534024D01*
Y410800D01*
X533411Y412279D01*
X532279Y413411D01*
X530800Y414024D01*
X529200D01*
X527721Y413411D01*
X526589Y412279D01*
X525976Y410800D01*
Y410000D01*
X514024D01*
Y410800D01*
X513411Y412279D01*
X512279Y413411D01*
X510800Y414024D01*
X509200D01*
X507721Y413411D01*
X506589Y412279D01*
X505976Y410800D01*
Y410000D01*
X494078D01*
Y510000D01*
X493768Y511561D01*
X492884Y512884D01*
X491561Y513768D01*
X490000Y514078D01*
X380000D01*
Y558750D01*
X411480D01*
X412471Y558947D01*
X413311Y559509D01*
X413658Y559856D01*
X414820D01*
X416299Y560469D01*
X417431Y561601D01*
X418044Y563080D01*
Y564680D01*
X417431Y566159D01*
X416299Y567291D01*
X414820Y567904D01*
X413220D01*
X411741Y567291D01*
X410609Y566159D01*
X409996Y564680D01*
Y563930D01*
X380000D01*
Y635418D01*
X383540Y638957D01*
X415076Y607421D01*
Y606260D01*
X415689Y604781D01*
X416821Y603649D01*
X418300Y603036D01*
X419900D01*
X421379Y603649D01*
X422511Y604781D01*
X423124Y606260D01*
Y607860D01*
X422511Y609339D01*
X421379Y610471D01*
X419900Y611084D01*
X418739D01*
X385371Y644451D01*
X380000Y649822D01*
Y800000D01*
X408237D01*
X408490Y798730D01*
X407721Y798411D01*
X406589Y797279D01*
X405976Y795800D01*
Y794200D01*
X406589Y792721D01*
X407721Y791589D01*
X409200Y790976D01*
X410800D01*
X412279Y791589D01*
X413411Y792721D01*
X414024Y794200D01*
Y795800D01*
X413411Y797279D01*
X412279Y798411D01*
X411510Y798730D01*
X411763Y800000D01*
X458237D01*
X458490Y798730D01*
X457721Y798411D01*
X456589Y797279D01*
X455976Y795800D01*
Y794200D01*
X456589Y792721D01*
X457721Y791589D01*
X459200Y790976D01*
X460800D01*
X462279Y791589D01*
X463411Y792721D01*
X464024Y794200D01*
Y795800D01*
X463411Y797279D01*
X462279Y798411D01*
X461510Y798730D01*
X461763Y800000D01*
X468237D01*
X468490Y798730D01*
X467721Y798411D01*
X466589Y797279D01*
X465976Y795800D01*
Y794200D01*
X466589Y792721D01*
X467721Y791589D01*
X469200Y790976D01*
X470800D01*
X472279Y791589D01*
X473411Y792721D01*
X474024Y794200D01*
Y795800D01*
X473411Y797279D01*
X472279Y798411D01*
X471510Y798730D01*
X471763Y800000D01*
X478237D01*
X478490Y798730D01*
X477721Y798411D01*
X476589Y797279D01*
X475976Y795800D01*
Y794200D01*
X476589Y792721D01*
X477721Y791589D01*
X479200Y790976D01*
X480800D01*
X482279Y791589D01*
X483411Y792721D01*
X484024Y794200D01*
Y795800D01*
X483411Y797279D01*
X482279Y798411D01*
X481510Y798730D01*
X481763Y800000D01*
X488237D01*
X488490Y798730D01*
X487721Y798411D01*
X486589Y797279D01*
X485976Y795800D01*
Y794200D01*
X486589Y792721D01*
X487721Y791589D01*
X489200Y790976D01*
X490800D01*
X492279Y791589D01*
X493411Y792721D01*
X494024Y794200D01*
Y795800D01*
X493411Y797279D01*
X492279Y798411D01*
X491510Y798730D01*
X491763Y800000D01*
X496650D01*
Y799870D01*
X497134Y798704D01*
X498300Y798220D01*
X652300D01*
X653466Y798704D01*
X653950Y799870D01*
Y800000D01*
X771262D01*
X771648Y798730D01*
X770054Y797665D01*
X767335Y794946D01*
X765198Y791748D01*
X763726Y788195D01*
X762976Y784423D01*
Y780577D01*
X763726Y776805D01*
X765198Y773252D01*
X767335Y770054D01*
X770054Y767335D01*
X773252Y765198D01*
X776805Y763726D01*
X780577Y762976D01*
X784423D01*
X788195Y763726D01*
X791748Y765198D01*
X794946Y767335D01*
X797665Y770054D01*
X799802Y773252D01*
X801274Y776805D01*
X802024Y780577D01*
Y784423D01*
X801274Y788195D01*
X799802Y791748D01*
X797665Y794946D01*
X794946Y797665D01*
X793352Y798730D01*
X793738Y800000D01*
X844821D01*
Y727038D01*
D02*
G37*
G36*
X357095Y491705D02*
X351575Y486185D01*
X346410D01*
X345561Y487455D01*
X345980Y488465D01*
Y490455D01*
X345219Y492292D01*
X343812Y493699D01*
X341975Y494460D01*
X339986D01*
X338148Y493699D01*
X336741Y492292D01*
X335980Y490455D01*
Y488465D01*
X336399Y487455D01*
X335550Y486185D01*
X335493D01*
X334121Y485912D01*
X332958Y485135D01*
X326127Y478304D01*
X325202D01*
X323364Y477542D01*
X321958Y476136D01*
X321197Y474298D01*
Y472309D01*
X321958Y470471D01*
X323364Y469065D01*
X325202Y468304D01*
X326127D01*
X331695Y462735D01*
Y450013D01*
X331333Y449651D01*
X308358D01*
X307880Y450365D01*
Y452355D01*
X307119Y454192D01*
X305712Y455599D01*
X303875Y456360D01*
X301886D01*
X300048Y455599D01*
X298641Y454192D01*
X297880Y452355D01*
Y450365D01*
X297403Y449651D01*
X200000D01*
Y470376D01*
X229220D01*
X229220Y470376D01*
X230691Y470669D01*
X231938Y471502D01*
X270436Y510000D01*
X357095D01*
Y491705D01*
D02*
G37*
G36*
X490000Y330000D02*
X510000Y310000D01*
X740000D01*
X747154Y302846D01*
X746906Y301600D01*
X746468Y301419D01*
X745061Y300012D01*
X744300Y298175D01*
Y296185D01*
X745061Y294348D01*
X746468Y292941D01*
X748305Y292180D01*
X750000D01*
Y165768D01*
X749350Y163343D01*
Y160617D01*
X750000Y158192D01*
Y135768D01*
X749350Y133343D01*
Y130617D01*
X750000Y128192D01*
Y50000D01*
X655635D01*
Y198960D01*
X655362Y200332D01*
X654585Y201495D01*
X650281Y205799D01*
Y212710D01*
X650935Y213364D01*
X651696Y215202D01*
Y217191D01*
X650935Y219029D01*
X649529Y220436D01*
X647691Y221197D01*
X645702D01*
X643864Y220436D01*
X642458Y219029D01*
X641696Y217191D01*
Y215202D01*
X642458Y213364D01*
X643111Y212710D01*
Y204314D01*
X643384Y202942D01*
X644162Y201779D01*
X648465Y197475D01*
Y123630D01*
X647292Y123144D01*
X579660Y190776D01*
Y191335D01*
X578899Y193172D01*
X577492Y194579D01*
X575655Y195340D01*
X573666D01*
X572154Y194714D01*
X570884Y195294D01*
Y211608D01*
X572556Y213280D01*
X573115D01*
X574952Y214041D01*
X576359Y215448D01*
X577120Y217285D01*
Y219275D01*
X576359Y221112D01*
X574952Y222519D01*
X573115Y223280D01*
X571125D01*
X569288Y222519D01*
X567881Y221112D01*
X567120Y219275D01*
Y218716D01*
X564322Y215918D01*
X563489Y214671D01*
X563196Y213200D01*
X563196Y213200D01*
Y182720D01*
X563196Y182720D01*
X563489Y181249D01*
X564322Y180002D01*
X591136Y153188D01*
Y64932D01*
X581844Y55640D01*
X581286D01*
X579448Y54879D01*
X578041Y53472D01*
X577280Y51635D01*
Y50000D01*
X572155D01*
X571902Y51270D01*
X572412Y51481D01*
X573819Y52888D01*
X574580Y54725D01*
Y55071D01*
X575859D01*
X577697Y55832D01*
X579104Y57238D01*
X579865Y59076D01*
Y61065D01*
X579104Y62903D01*
X577697Y64309D01*
X575859Y65070D01*
X573870D01*
X572033Y64309D01*
X570626Y62903D01*
X569865Y61065D01*
Y60720D01*
X568586D01*
X566748Y59959D01*
X565770Y58981D01*
X564792Y59959D01*
X562955Y60720D01*
X560965D01*
X559128Y59959D01*
X557721Y58552D01*
X556960Y56715D01*
Y54725D01*
X557721Y52888D01*
X558459Y52150D01*
X557616Y51306D01*
X557075Y50000D01*
X525635D01*
Y192457D01*
X525362Y193829D01*
X524585Y194992D01*
X520281Y199296D01*
Y212230D01*
X520935Y212884D01*
X521696Y214722D01*
Y216711D01*
X520935Y218549D01*
X519529Y219956D01*
X517691Y220717D01*
X515702D01*
X513864Y219956D01*
X512458Y218549D01*
X511696Y216711D01*
Y214722D01*
X512458Y212884D01*
X513111Y212230D01*
Y197811D01*
X513384Y196439D01*
X514161Y195276D01*
X518465Y190972D01*
Y123150D01*
X517292Y122664D01*
X449660Y190296D01*
Y190855D01*
X448899Y192692D01*
X447492Y194099D01*
X445655Y194860D01*
X443666D01*
X442154Y194234D01*
X440884Y194814D01*
Y211128D01*
X442556Y212800D01*
X443115D01*
X444952Y213561D01*
X446359Y214968D01*
X447120Y216805D01*
Y218795D01*
X446359Y220632D01*
X444952Y222039D01*
X443115Y222800D01*
X441125D01*
X439288Y222039D01*
X437881Y220632D01*
X437120Y218795D01*
Y218236D01*
X434322Y215438D01*
X433489Y214191D01*
X433196Y212720D01*
X433196Y212720D01*
Y182240D01*
X433196Y182240D01*
X433489Y180769D01*
X434322Y179522D01*
X461136Y152708D01*
Y64452D01*
X453373Y56689D01*
X451884Y56996D01*
X451439Y58072D01*
X450032Y59479D01*
X448195Y60240D01*
X446205D01*
X444368Y59479D01*
X443390Y58501D01*
X442412Y59479D01*
X440575Y60240D01*
X438586D01*
X436748Y59479D01*
X435770Y58501D01*
X434792Y59479D01*
X432955Y60240D01*
X430965D01*
X429128Y59479D01*
X427721Y58072D01*
X426960Y56235D01*
Y54245D01*
X427721Y52408D01*
X428699Y51430D01*
X427721Y50452D01*
X427534Y50000D01*
X200000D01*
Y70075D01*
X298647D01*
X300019Y70348D01*
X301182Y71125D01*
X309804Y79748D01*
X323089D01*
X323744Y79094D01*
X325581Y78332D01*
X327570D01*
X329408Y79094D01*
X330815Y80500D01*
X331576Y82338D01*
Y84327D01*
X330815Y86165D01*
X329408Y87571D01*
X327570Y88332D01*
X325581D01*
X323744Y87571D01*
X323089Y86917D01*
X308319D01*
X306948Y86644D01*
X305785Y85867D01*
X297162Y77245D01*
X200000D01*
Y80376D01*
X229220D01*
X229220Y80376D01*
X230691Y80669D01*
X231938Y81502D01*
X300776Y150340D01*
X301335D01*
X303172Y151101D01*
X304579Y152508D01*
X305340Y154345D01*
Y156335D01*
X304714Y157846D01*
X305294Y159116D01*
X321608D01*
X323280Y157444D01*
Y156885D01*
X324041Y155048D01*
X325448Y153641D01*
X327285Y152880D01*
X329275D01*
X331112Y153641D01*
X332519Y155048D01*
X333280Y156885D01*
Y158875D01*
X332519Y160712D01*
X331112Y162119D01*
X329275Y162880D01*
X328716D01*
X325918Y165678D01*
X324671Y166511D01*
X323200Y166804D01*
X323200Y166804D01*
X292720D01*
X292720Y166804D01*
X291249Y166511D01*
X290002Y165678D01*
X263188Y138864D01*
X200000D01*
Y202155D01*
X318633D01*
X320005Y202428D01*
X321168Y203205D01*
X326267Y208304D01*
X327191D01*
X329029Y209065D01*
X330435Y210471D01*
X331197Y212309D01*
Y214298D01*
X330435Y216136D01*
X329029Y217542D01*
X327191Y218304D01*
X325202D01*
X323364Y217542D01*
X321958Y216136D01*
X321197Y214298D01*
Y213373D01*
X317148Y209325D01*
X230445D01*
X230320Y210595D01*
X230691Y210669D01*
X231938Y211502D01*
X300776Y280340D01*
X301335D01*
X303172Y281101D01*
X304579Y282508D01*
X305340Y284345D01*
Y286335D01*
X304714Y287846D01*
X305294Y289116D01*
X321608D01*
X323280Y287444D01*
Y286886D01*
X324041Y285048D01*
X325448Y283641D01*
X327285Y282880D01*
X329275D01*
X331112Y283641D01*
X332519Y285048D01*
X333280Y286886D01*
Y288875D01*
X332519Y290712D01*
X331112Y292119D01*
X329275Y292880D01*
X328716D01*
X325918Y295678D01*
X324671Y296511D01*
X323200Y296804D01*
X323200Y296804D01*
X292720D01*
X292720Y296804D01*
X291249Y296511D01*
X290002Y295678D01*
X263188Y268864D01*
X200000D01*
Y326615D01*
X299405D01*
X299460Y326528D01*
X299794Y325345D01*
X298641Y324192D01*
X297880Y322355D01*
Y320365D01*
X298641Y318528D01*
X300048Y317121D01*
X301886Y316360D01*
X303875D01*
X305712Y317121D01*
X307119Y318528D01*
X307880Y320365D01*
Y322355D01*
X307119Y324192D01*
X305966Y325345D01*
X306300Y326528D01*
X306355Y326615D01*
X313093D01*
X314465Y326888D01*
X315628Y327665D01*
X326267Y338304D01*
X327191D01*
X329029Y339065D01*
X330435Y340471D01*
X331197Y342309D01*
Y344298D01*
X330435Y346136D01*
X329029Y347542D01*
X327191Y348304D01*
X325202D01*
X323364Y347542D01*
X321958Y346136D01*
X321197Y344298D01*
Y343373D01*
X311608Y333785D01*
X200000D01*
Y340376D01*
X229220D01*
X229220Y340376D01*
X230691Y340669D01*
X231938Y341502D01*
X300776Y410340D01*
X301335D01*
X303172Y411101D01*
X304579Y412508D01*
X305340Y414346D01*
Y416335D01*
X304714Y417846D01*
X305294Y419116D01*
X321608D01*
X323280Y417444D01*
Y416885D01*
X324041Y415048D01*
X325448Y413641D01*
X327285Y412880D01*
X329275D01*
X331112Y413641D01*
X332519Y415048D01*
X333280Y416885D01*
Y418875D01*
X332519Y420712D01*
X331112Y422119D01*
X329275Y422880D01*
X328716D01*
X325918Y425678D01*
X324671Y426511D01*
X323200Y426804D01*
X323200Y426804D01*
X292720D01*
X292720Y426804D01*
X291249Y426511D01*
X290002Y425678D01*
X263188Y398864D01*
X200000D01*
Y442481D01*
X332818D01*
X334190Y442754D01*
X335353Y443531D01*
X337815Y445993D01*
X338592Y447156D01*
X338865Y448528D01*
Y464220D01*
X338592Y465592D01*
X337815Y466755D01*
X331267Y473304D01*
X336978Y479015D01*
X353060D01*
X354432Y479288D01*
X355595Y480065D01*
X363215Y487685D01*
X363992Y488848D01*
X364265Y490220D01*
Y510000D01*
X490000D01*
Y330000D01*
D02*
G37*
%LPC*%
G36*
X690800Y794024D02*
X689200D01*
X687721Y793411D01*
X686589Y792279D01*
X685976Y790800D01*
Y789200D01*
X686589Y787721D01*
X687721Y786589D01*
X689200Y785976D01*
X690800D01*
X692279Y786589D01*
X693411Y787721D01*
X694024Y789200D01*
Y790800D01*
X693411Y792279D01*
X692279Y793411D01*
X690800Y794024D01*
D02*
G37*
G36*
X655800D02*
X654200D01*
X652721Y793411D01*
X651589Y792279D01*
X650976Y790800D01*
Y789200D01*
X651589Y787721D01*
X652721Y786589D01*
X654200Y785976D01*
X655800D01*
X657279Y786589D01*
X658411Y787721D01*
X659024Y789200D01*
Y790800D01*
X658411Y792279D01*
X657279Y793411D01*
X655800Y794024D01*
D02*
G37*
G36*
X826204Y794144D02*
X823796D01*
X821470Y793521D01*
X819386Y792317D01*
X817683Y790614D01*
X816479Y788530D01*
X815856Y786204D01*
Y783796D01*
X816479Y781470D01*
X817683Y779386D01*
X819386Y777683D01*
X821470Y776479D01*
X823796Y775856D01*
X826204D01*
X828530Y776479D01*
X830614Y777683D01*
X832317Y779386D01*
X833521Y781470D01*
X834144Y783796D01*
Y786204D01*
X833521Y788530D01*
X832317Y790614D01*
X830614Y792317D01*
X828530Y793521D01*
X826204Y794144D01*
D02*
G37*
G36*
X395800Y769024D02*
X394200D01*
X392721Y768411D01*
X391589Y767279D01*
X390976Y765800D01*
Y764200D01*
X391589Y762721D01*
X392721Y761589D01*
X394200Y760976D01*
X395800D01*
X397279Y761589D01*
X398411Y762721D01*
X399024Y764200D01*
Y765800D01*
X398411Y767279D01*
X397279Y768411D01*
X395800Y769024D01*
D02*
G37*
G36*
X656120Y776184D02*
X654520D01*
X653041Y775571D01*
X651909Y774439D01*
X651296Y772960D01*
Y771360D01*
X651909Y769881D01*
X652632Y769157D01*
X652906Y768350D01*
X652632Y767543D01*
X651909Y766819D01*
X651296Y765340D01*
Y763740D01*
X651909Y762261D01*
X652632Y761537D01*
X652906Y760730D01*
X652632Y759923D01*
X651909Y759199D01*
X651296Y757720D01*
Y756120D01*
X651909Y754641D01*
X653041Y753509D01*
X654520Y752896D01*
X656120D01*
X657599Y753509D01*
X658731Y754641D01*
X659344Y756120D01*
Y757720D01*
X658731Y759199D01*
X658008Y759923D01*
X657734Y760730D01*
X658008Y761537D01*
X658731Y762261D01*
X659344Y763740D01*
Y765340D01*
X658731Y766819D01*
X658008Y767543D01*
X657734Y768350D01*
X658008Y769157D01*
X658731Y769881D01*
X659344Y771360D01*
Y772960D01*
X658731Y774439D01*
X657599Y775571D01*
X656120Y776184D01*
D02*
G37*
G36*
X518960Y760944D02*
X517360D01*
X515881Y760331D01*
X514749Y759199D01*
X514136Y757720D01*
Y756120D01*
X514749Y754641D01*
X515881Y753509D01*
X517360Y752896D01*
X518960D01*
X520439Y753509D01*
X521571Y754641D01*
X522184Y756120D01*
Y757720D01*
X521571Y759199D01*
X520439Y760331D01*
X518960Y760944D01*
D02*
G37*
G36*
X826204Y768744D02*
X823796D01*
X821470Y768121D01*
X819386Y766917D01*
X817683Y765214D01*
X816479Y763130D01*
X815856Y760804D01*
Y758396D01*
X816479Y756070D01*
X817683Y753986D01*
X819386Y752283D01*
X821470Y751079D01*
X823796Y750456D01*
X826204D01*
X828530Y751079D01*
X830614Y752283D01*
X832317Y753986D01*
X833521Y756070D01*
X834144Y758396D01*
Y760804D01*
X833521Y763130D01*
X832317Y765214D01*
X830614Y766917D01*
X828530Y768121D01*
X826204Y768744D01*
D02*
G37*
G36*
X480800Y749024D02*
X479200D01*
X477721Y748411D01*
X476589Y747279D01*
X475976Y745800D01*
Y744200D01*
X476589Y742721D01*
X477721Y741589D01*
X479200Y740976D01*
X480800D01*
X482279Y741589D01*
X483411Y742721D01*
X484024Y744200D01*
Y745800D01*
X483411Y747279D01*
X482279Y748411D01*
X480800Y749024D01*
D02*
G37*
G36*
X805800Y744024D02*
X804200D01*
X802721Y743411D01*
X801589Y742279D01*
X800976Y740800D01*
Y739200D01*
X801589Y737721D01*
X802721Y736589D01*
X804200Y735976D01*
X805800D01*
X807279Y736589D01*
X808411Y737721D01*
X809024Y739200D01*
Y740800D01*
X808411Y742279D01*
X807279Y743411D01*
X805800Y744024D01*
D02*
G37*
G36*
X690800D02*
X689200D01*
X687721Y743411D01*
X686589Y742279D01*
X685976Y740800D01*
Y739200D01*
X686589Y737721D01*
X687721Y736589D01*
X689200Y735976D01*
X690800D01*
X692279Y736589D01*
X693411Y737721D01*
X694024Y739200D01*
Y740800D01*
X693411Y742279D01*
X692279Y743411D01*
X690800Y744024D01*
D02*
G37*
G36*
X739940Y743164D02*
X738340D01*
X736861Y742551D01*
X735729Y741419D01*
X735116Y739940D01*
Y738340D01*
X735729Y736861D01*
X736861Y735729D01*
X738340Y735116D01*
X739940D01*
X741419Y735729D01*
X742551Y736861D01*
X743164Y738340D01*
Y739940D01*
X742551Y741419D01*
X741419Y742551D01*
X739940Y743164D01*
D02*
G37*
G36*
X488480D02*
X486880D01*
X485401Y742551D01*
X484269Y741419D01*
X483656Y739940D01*
Y738340D01*
X484269Y736861D01*
X485401Y735729D01*
X486880Y735116D01*
X488480D01*
X489959Y735729D01*
X491091Y736861D01*
X491704Y738340D01*
Y739940D01*
X491091Y741419D01*
X489959Y742551D01*
X488480Y743164D01*
D02*
G37*
G36*
X592600Y743144D02*
X591000D01*
X589521Y742531D01*
X588389Y741399D01*
X587776Y739920D01*
Y738320D01*
X588389Y736841D01*
X589521Y735709D01*
X591000Y735096D01*
X592600D01*
X594079Y735709D01*
X595211Y736841D01*
X595824Y738320D01*
Y739920D01*
X595211Y741399D01*
X594079Y742531D01*
X592600Y743144D01*
D02*
G37*
G36*
X576100D02*
X574500D01*
X573021Y742531D01*
X571889Y741399D01*
X571276Y739920D01*
Y738320D01*
X571889Y736841D01*
X573021Y735709D01*
X574500Y735096D01*
X576100D01*
X577579Y735709D01*
X578711Y736841D01*
X579324Y738320D01*
Y739920D01*
X578711Y741399D01*
X577579Y742531D01*
X576100Y743144D01*
D02*
G37*
G36*
X559600D02*
X558000D01*
X556521Y742531D01*
X555389Y741399D01*
X554776Y739920D01*
Y738320D01*
X555389Y736841D01*
X556521Y735709D01*
X558000Y735096D01*
X559600D01*
X561079Y735709D01*
X562211Y736841D01*
X562824Y738320D01*
Y739920D01*
X562211Y741399D01*
X561079Y742531D01*
X559600Y743144D01*
D02*
G37*
G36*
X437640Y735544D02*
X436040D01*
X434561Y734931D01*
X433429Y733799D01*
X432816Y732320D01*
Y730720D01*
X433429Y729241D01*
X434561Y728109D01*
X436040Y727496D01*
X437640D01*
X439119Y728109D01*
X440251Y729241D01*
X440864Y730720D01*
Y732320D01*
X440251Y733799D01*
X439119Y734931D01*
X437640Y735544D01*
D02*
G37*
G36*
X714540Y733004D02*
X712940D01*
X711461Y732391D01*
X710329Y731259D01*
X709716Y729780D01*
Y728180D01*
X710329Y726701D01*
X711461Y725569D01*
X712940Y724956D01*
X714540D01*
X716019Y725569D01*
X717151Y726701D01*
X717764Y728180D01*
Y729780D01*
X717151Y731259D01*
X716019Y732391D01*
X714540Y733004D01*
D02*
G37*
G36*
X799110Y728212D02*
X788610D01*
X786842Y727980D01*
X785194Y727297D01*
X783779Y726211D01*
X782693Y724796D01*
X782010Y723148D01*
X781807Y721603D01*
X781110Y721300D01*
X780522Y721229D01*
X779519Y722231D01*
X778040Y722844D01*
X776440D01*
X774961Y722231D01*
X773829Y721099D01*
X773216Y719620D01*
Y718020D01*
X773829Y716541D01*
X774961Y715409D01*
X776440Y714796D01*
X778040D01*
X779519Y715409D01*
X780651Y716541D01*
X781264Y718020D01*
Y718095D01*
X782534Y718347D01*
X782693Y717964D01*
X783779Y716549D01*
X785194Y715463D01*
X786842Y714780D01*
X788610Y714548D01*
X799110D01*
X800878Y714780D01*
X802526Y715463D01*
X803941Y716549D01*
X805027Y717964D01*
X805710Y719612D01*
X805943Y721380D01*
X805710Y723148D01*
X805027Y724796D01*
X803941Y726211D01*
X802526Y727297D01*
X800878Y727980D01*
X799110Y728212D01*
D02*
G37*
G36*
X655800Y734024D02*
X654200D01*
X652721Y733411D01*
X651589Y732279D01*
X650976Y730800D01*
Y729200D01*
X651589Y727721D01*
X652721Y726589D01*
X654200Y725976D01*
X654803D01*
X655823Y725823D01*
X655976Y724803D01*
Y724200D01*
X656589Y722721D01*
X657721Y721589D01*
X659200Y720976D01*
X660800D01*
X662279Y721589D01*
X663411Y722721D01*
X664024Y724200D01*
Y725800D01*
X663411Y727279D01*
X662279Y728411D01*
X660800Y729024D01*
X660197D01*
X659177Y729177D01*
X659024Y730197D01*
Y730800D01*
X658411Y732279D01*
X657279Y733411D01*
X655800Y734024D01*
D02*
G37*
G36*
X592600Y726644D02*
X591000D01*
X589521Y726031D01*
X588389Y724899D01*
X587776Y723420D01*
Y721820D01*
X588389Y720341D01*
X589521Y719209D01*
X591000Y718596D01*
X592600D01*
X594079Y719209D01*
X595211Y720341D01*
X595824Y721820D01*
Y723420D01*
X595211Y724899D01*
X594079Y726031D01*
X592600Y726644D01*
D02*
G37*
G36*
X576100D02*
X574500D01*
X573021Y726031D01*
X571889Y724899D01*
X571276Y723420D01*
Y721820D01*
X571889Y720341D01*
X573021Y719209D01*
X574500Y718596D01*
X576100D01*
X577579Y719209D01*
X578711Y720341D01*
X579324Y721820D01*
Y723420D01*
X578711Y724899D01*
X577579Y726031D01*
X576100Y726644D01*
D02*
G37*
G36*
X559600D02*
X558000D01*
X556521Y726031D01*
X555389Y724899D01*
X554776Y723420D01*
Y721820D01*
X555389Y720341D01*
X556521Y719209D01*
X558000Y718596D01*
X559600D01*
X561079Y719209D01*
X562211Y720341D01*
X562824Y721820D01*
Y723420D01*
X562211Y724899D01*
X561079Y726031D01*
X559600Y726644D01*
D02*
G37*
G36*
X752640Y722844D02*
X751040D01*
X749561Y722231D01*
X748429Y721099D01*
X747816Y719620D01*
Y718020D01*
X748429Y716541D01*
X749561Y715409D01*
X751040Y714796D01*
X752640D01*
X754119Y715409D01*
X755251Y716541D01*
X755864Y718020D01*
Y719620D01*
X755251Y721099D01*
X754119Y722231D01*
X752640Y722844D01*
D02*
G37*
G36*
X676544Y720408D02*
X674943D01*
X673464Y719795D01*
X672332Y718663D01*
X671720Y717184D01*
Y715583D01*
X672332Y714104D01*
X673464Y712972D01*
X674943Y712360D01*
X676544D01*
X678023Y712972D01*
X679155Y714104D01*
X679768Y715583D01*
Y717184D01*
X679155Y718663D01*
X678023Y719795D01*
X676544Y720408D01*
D02*
G37*
G36*
X633260Y720304D02*
X631660D01*
X630181Y719691D01*
X629049Y718559D01*
X628436Y717080D01*
Y715480D01*
X629049Y714001D01*
X630181Y712869D01*
X631660Y712256D01*
X633260D01*
X634739Y712869D01*
X635871Y714001D01*
X636484Y715480D01*
Y717080D01*
X635871Y718559D01*
X634739Y719691D01*
X633260Y720304D01*
D02*
G37*
G36*
X714540Y717764D02*
X712940D01*
X711461Y717151D01*
X710329Y716019D01*
X709716Y714540D01*
Y712940D01*
X710329Y711461D01*
X711461Y710329D01*
X712940Y709716D01*
X714540D01*
X716019Y710329D01*
X717151Y711461D01*
X717764Y712940D01*
Y714540D01*
X717151Y716019D01*
X716019Y717151D01*
X714540Y717764D01*
D02*
G37*
G36*
X799810Y711854D02*
X797910D01*
X796156Y711127D01*
X794813Y709784D01*
X794086Y708030D01*
Y706130D01*
X794813Y704376D01*
X796156Y703033D01*
X797910Y702306D01*
X799810D01*
X801564Y703033D01*
X802907Y704376D01*
X803634Y706130D01*
Y708030D01*
X802907Y709784D01*
X801564Y711127D01*
X799810Y711854D01*
D02*
G37*
G36*
X592600Y710144D02*
X591000D01*
X589521Y709531D01*
X588389Y708399D01*
X587776Y706920D01*
Y705320D01*
X588389Y703841D01*
X589521Y702709D01*
X591000Y702096D01*
X592600D01*
X594079Y702709D01*
X595211Y703841D01*
X595824Y705320D01*
Y706920D01*
X595211Y708399D01*
X594079Y709531D01*
X592600Y710144D01*
D02*
G37*
G36*
X576100D02*
X574500D01*
X573021Y709531D01*
X571889Y708399D01*
X571276Y706920D01*
Y705320D01*
X571889Y703841D01*
X573021Y702709D01*
X574500Y702096D01*
X576100D01*
X577579Y702709D01*
X578711Y703841D01*
X579324Y705320D01*
Y706920D01*
X578711Y708399D01*
X577579Y709531D01*
X576100Y710144D01*
D02*
G37*
G36*
X559600D02*
X558000D01*
X556521Y709531D01*
X555389Y708399D01*
X554776Y706920D01*
Y705320D01*
X555389Y703841D01*
X556521Y702709D01*
X558000Y702096D01*
X559600D01*
X561079Y702709D01*
X562211Y703841D01*
X562824Y705320D01*
Y706920D01*
X562211Y708399D01*
X561079Y709531D01*
X559600Y710144D01*
D02*
G37*
G36*
X460540Y699984D02*
X458940D01*
X457461Y699371D01*
X456329Y698239D01*
X455716Y696760D01*
Y695160D01*
X456329Y693681D01*
X457461Y692549D01*
X458940Y691936D01*
X460540D01*
X462019Y692549D01*
X463151Y693681D01*
X463764Y695160D01*
Y696760D01*
X463151Y698239D01*
X462019Y699371D01*
X460540Y699984D01*
D02*
G37*
G36*
X800900Y697444D02*
X799300D01*
X797821Y696831D01*
X796689Y695699D01*
X796076Y694220D01*
Y692620D01*
X796689Y691141D01*
X797821Y690009D01*
X799300Y689396D01*
X800900D01*
X802379Y690009D01*
X803511Y691141D01*
X804124Y692620D01*
Y694220D01*
X803511Y695699D01*
X802379Y696831D01*
X800900Y697444D01*
D02*
G37*
G36*
X747560Y692364D02*
X745960D01*
X744481Y691751D01*
X743349Y690619D01*
X742736Y689140D01*
Y687540D01*
X743349Y686061D01*
X744481Y684929D01*
X745960Y684316D01*
X747560D01*
X749039Y684929D01*
X750171Y686061D01*
X750784Y687540D01*
Y689140D01*
X750171Y690619D01*
X749039Y691751D01*
X747560Y692364D01*
D02*
G37*
G36*
X772960Y689824D02*
X771360D01*
X769881Y689211D01*
X768749Y688079D01*
X768136Y686600D01*
Y685000D01*
X768749Y683521D01*
X769881Y682389D01*
X771360Y681776D01*
X772960D01*
X774439Y682389D01*
X775571Y683521D01*
X776184Y685000D01*
Y686600D01*
X775571Y688079D01*
X774439Y689211D01*
X772960Y689824D01*
D02*
G37*
G36*
X725800Y679024D02*
X724200D01*
X722721Y678411D01*
X721589Y677279D01*
X720976Y675800D01*
Y674200D01*
X721589Y672721D01*
X722721Y671589D01*
X724200Y670976D01*
X725800D01*
X727279Y671589D01*
X728411Y672721D01*
X729024Y674200D01*
Y675800D01*
X728411Y677279D01*
X727279Y678411D01*
X725800Y679024D01*
D02*
G37*
G36*
X655800Y674508D02*
X654200D01*
X652721Y673895D01*
X651589Y672763D01*
X650976Y671284D01*
Y669684D01*
X651589Y668205D01*
X652721Y667073D01*
X654200Y666460D01*
X655800D01*
X657279Y667073D01*
X658411Y668205D01*
X659024Y669684D01*
Y671284D01*
X658411Y672763D01*
X657279Y673895D01*
X655800Y674508D01*
D02*
G37*
G36*
X625800Y679548D02*
X624200D01*
X622721Y678935D01*
X621589Y677803D01*
X620976Y676324D01*
Y674724D01*
X621589Y673245D01*
X622571Y672262D01*
X621589Y671279D01*
X620976Y669800D01*
Y668200D01*
X621589Y666721D01*
X622721Y665589D01*
X624200Y664976D01*
X625800D01*
X627279Y665589D01*
X628411Y666721D01*
X629024Y668200D01*
Y669800D01*
X628411Y671279D01*
X627429Y672262D01*
X628411Y673245D01*
X629024Y674724D01*
Y676324D01*
X628411Y677803D01*
X627279Y678935D01*
X625800Y679548D01*
D02*
G37*
G36*
X549440Y677124D02*
X547840D01*
X546361Y676511D01*
X545229Y675379D01*
X544616Y673900D01*
Y673217D01*
X544406Y672254D01*
X543443Y672044D01*
X542760D01*
X541281Y671431D01*
X540149Y670299D01*
X539536Y668820D01*
Y667220D01*
X540149Y665741D01*
X541281Y664609D01*
X542760Y663996D01*
X544360D01*
X545839Y664609D01*
X546971Y665741D01*
X547584Y667220D01*
Y667903D01*
X547794Y668866D01*
X548757Y669076D01*
X549440D01*
X550919Y669689D01*
X552051Y670821D01*
X552664Y672300D01*
Y673900D01*
X552051Y675379D01*
X550919Y676511D01*
X549440Y677124D01*
D02*
G37*
G36*
X468160Y669504D02*
X466560D01*
X465081Y668891D01*
X463949Y667759D01*
X463336Y666280D01*
Y664680D01*
X463949Y663201D01*
X465081Y662069D01*
X466560Y661456D01*
X468160D01*
X469639Y662069D01*
X470771Y663201D01*
X471384Y664680D01*
Y666280D01*
X470771Y667759D01*
X469639Y668891D01*
X468160Y669504D01*
D02*
G37*
G36*
X698946Y664445D02*
X697345D01*
X695866Y663832D01*
X694734Y662700D01*
X694122Y661221D01*
Y659621D01*
X694734Y658141D01*
X695866Y657010D01*
X697345Y656397D01*
X698946D01*
X700425Y657010D01*
X701557Y658141D01*
X702170Y659621D01*
Y661221D01*
X701557Y662700D01*
X700425Y663832D01*
X698946Y664445D01*
D02*
G37*
G36*
X752640Y654264D02*
X751040D01*
X749561Y653651D01*
X748429Y652519D01*
X747816Y651040D01*
Y649440D01*
X748429Y647961D01*
X749561Y646829D01*
X751040Y646216D01*
X752640D01*
X754119Y646829D01*
X755251Y647961D01*
X755864Y649440D01*
Y651040D01*
X755251Y652519D01*
X754119Y653651D01*
X752640Y654264D01*
D02*
G37*
G36*
X715800Y654024D02*
X714200D01*
X712721Y653411D01*
X711589Y652279D01*
X710976Y650800D01*
Y649200D01*
X711589Y647721D01*
X712721Y646589D01*
X714200Y645976D01*
X715800D01*
X717279Y646589D01*
X718411Y647721D01*
X719024Y649200D01*
Y650800D01*
X718411Y652279D01*
X717279Y653411D01*
X715800Y654024D01*
D02*
G37*
G36*
X799810Y654054D02*
X797910D01*
X796156Y653327D01*
X794813Y651984D01*
X794086Y650230D01*
Y648330D01*
X794813Y646576D01*
X796156Y645233D01*
X797910Y644506D01*
X799810D01*
X801564Y645233D01*
X802907Y646576D01*
X803634Y648330D01*
Y650230D01*
X802907Y651984D01*
X801564Y653327D01*
X799810Y654054D01*
D02*
G37*
G36*
X498640Y649184D02*
X497040D01*
X495561Y648571D01*
X494429Y647439D01*
X493816Y645960D01*
Y644360D01*
X494429Y642881D01*
X495561Y641749D01*
X497040Y641136D01*
X498640D01*
X500119Y641749D01*
X501251Y642881D01*
X501864Y644360D01*
Y645960D01*
X501251Y647439D01*
X500119Y648571D01*
X498640Y649184D01*
D02*
G37*
G36*
X648500Y646644D02*
X646900D01*
X645421Y646031D01*
X644289Y644899D01*
X643676Y643420D01*
Y641820D01*
X644289Y640341D01*
X645421Y639209D01*
X646900Y638596D01*
X648500D01*
X649979Y639209D01*
X651111Y640341D01*
X651724Y641820D01*
Y643420D01*
X651111Y644899D01*
X649979Y646031D01*
X648500Y646644D01*
D02*
G37*
G36*
X775500Y644104D02*
X773900D01*
X772421Y643491D01*
X771289Y642359D01*
X770676Y640880D01*
Y639280D01*
X771289Y637801D01*
X772421Y636669D01*
X773900Y636056D01*
X775500D01*
X776979Y636669D01*
X778111Y637801D01*
X778724Y639280D01*
Y640880D01*
X778111Y642359D01*
X776979Y643491D01*
X775500Y644104D01*
D02*
G37*
G36*
X724700D02*
X723100D01*
X721621Y643491D01*
X720489Y642359D01*
X719876Y640880D01*
Y639280D01*
X720489Y637801D01*
X721621Y636669D01*
X723100Y636056D01*
X724700D01*
X726179Y636669D01*
X727311Y637801D01*
X727924Y639280D01*
Y640880D01*
X727311Y642359D01*
X726179Y643491D01*
X724700Y644104D01*
D02*
G37*
G36*
X799110Y641813D02*
X788610D01*
X786842Y641580D01*
X785194Y640897D01*
X783779Y639811D01*
X782693Y638396D01*
X782010Y636748D01*
X781778Y634980D01*
X782010Y633212D01*
X782693Y631564D01*
X783779Y630149D01*
X785194Y629063D01*
X786842Y628380D01*
X788610Y628148D01*
X799110D01*
X800878Y628380D01*
X802526Y629063D01*
X803941Y630149D01*
X805027Y631564D01*
X805710Y633212D01*
X805943Y634980D01*
X805710Y636748D01*
X805027Y638396D01*
X803941Y639811D01*
X802526Y640897D01*
X800878Y641580D01*
X799110Y641813D01*
D02*
G37*
G36*
X572300Y633944D02*
X570700D01*
X569221Y633331D01*
X568089Y632199D01*
X567476Y630720D01*
Y629120D01*
X568089Y627641D01*
X569221Y626509D01*
X570700Y625896D01*
X572300D01*
X573779Y626509D01*
X574911Y627641D01*
X575524Y629120D01*
Y630720D01*
X574911Y632199D01*
X573779Y633331D01*
X572300Y633944D01*
D02*
G37*
G36*
X752640Y631404D02*
X751040D01*
X749561Y630791D01*
X748429Y629659D01*
X747816Y628180D01*
Y626580D01*
X748429Y625101D01*
X749561Y623969D01*
X751040Y623356D01*
X752640D01*
X754119Y623969D01*
X755251Y625101D01*
X755864Y626580D01*
Y628180D01*
X755251Y629659D01*
X754119Y630791D01*
X752640Y631404D01*
D02*
G37*
G36*
X470700D02*
X469100D01*
X467621Y630791D01*
X466489Y629659D01*
X465876Y628180D01*
Y626580D01*
X466489Y625101D01*
X467621Y623969D01*
X469100Y623356D01*
X470700D01*
X472179Y623969D01*
X473311Y625101D01*
X473924Y626580D01*
Y628180D01*
X473311Y629659D01*
X472179Y630791D01*
X470700Y631404D01*
D02*
G37*
G36*
X725800Y629024D02*
X724200D01*
X722721Y628411D01*
X721589Y627279D01*
X720976Y625800D01*
Y624200D01*
X721589Y622721D01*
X722721Y621589D01*
X724200Y620976D01*
X725800D01*
X727279Y621589D01*
X728411Y622721D01*
X729024Y624200D01*
Y625800D01*
X728411Y627279D01*
X727279Y628411D01*
X725800Y629024D01*
D02*
G37*
G36*
X600240Y628864D02*
X598640D01*
X597161Y628251D01*
X596029Y627119D01*
X595416Y625640D01*
Y624040D01*
X596029Y622561D01*
X597161Y621429D01*
X598640Y620816D01*
X600240D01*
X601719Y621429D01*
X602851Y622561D01*
X603464Y624040D01*
Y625640D01*
X602851Y627119D01*
X601719Y628251D01*
X600240Y628864D01*
D02*
G37*
G36*
X663987Y626570D02*
X662386D01*
X660907Y625958D01*
X659775Y624826D01*
X659162Y623347D01*
Y621746D01*
X659775Y620267D01*
X660907Y619135D01*
X662386Y618522D01*
X663987D01*
X665466Y619135D01*
X666598Y620267D01*
X667210Y621746D01*
Y623347D01*
X666598Y624826D01*
X665466Y625958D01*
X663987Y626570D01*
D02*
G37*
G36*
X711147Y621524D02*
X709546D01*
X708067Y620911D01*
X706935Y619779D01*
X706323Y618300D01*
Y616700D01*
X706935Y615221D01*
X708067Y614089D01*
X709546Y613476D01*
X711147D01*
X712626Y614089D01*
X713758Y615221D01*
X714371Y616700D01*
Y618300D01*
X713758Y619779D01*
X712626Y620911D01*
X711147Y621524D01*
D02*
G37*
G36*
X630720Y621244D02*
X629120D01*
X627641Y620631D01*
X626509Y619499D01*
X625896Y618020D01*
Y616420D01*
X626509Y614941D01*
X627641Y613809D01*
X629120Y613196D01*
X630720D01*
X632199Y613809D01*
X633331Y614941D01*
X633944Y616420D01*
Y618020D01*
X633331Y619499D01*
X632199Y620631D01*
X630720Y621244D01*
D02*
G37*
G36*
X612940Y619974D02*
X611340D01*
X609861Y619361D01*
X608729Y618229D01*
X608116Y616750D01*
Y615150D01*
X608729Y613671D01*
X609861Y612539D01*
X611340Y611926D01*
X612940D01*
X614419Y612539D01*
X615551Y613671D01*
X616164Y615150D01*
Y616750D01*
X615551Y618229D01*
X614419Y619361D01*
X612940Y619974D01*
D02*
G37*
G36*
X534200Y618704D02*
X532600D01*
X531121Y618091D01*
X529989Y616959D01*
X529376Y615480D01*
Y613880D01*
X529989Y612401D01*
X531121Y611269D01*
X532600Y610656D01*
X534200D01*
X535679Y611269D01*
X536811Y612401D01*
X537424Y613880D01*
Y615480D01*
X536811Y616959D01*
X535679Y618091D01*
X534200Y618704D01*
D02*
G37*
G36*
X695817Y614024D02*
X694216D01*
X692737Y613411D01*
X691605Y612279D01*
X690993Y610800D01*
Y609200D01*
X691605Y607721D01*
X692737Y606589D01*
X694216Y605976D01*
X695817D01*
X697296Y606589D01*
X698428Y607721D01*
X699041Y609200D01*
Y610800D01*
X698428Y612279D01*
X697296Y613411D01*
X695817Y614024D01*
D02*
G37*
G36*
X765800Y604024D02*
X764200D01*
X762721Y603411D01*
X761589Y602279D01*
X760976Y600800D01*
Y599200D01*
X761589Y597721D01*
X762721Y596589D01*
X764200Y595976D01*
X765800D01*
X767279Y596589D01*
X768411Y597721D01*
X769024Y599200D01*
Y600800D01*
X768411Y602279D01*
X767279Y603411D01*
X765800Y604024D01*
D02*
G37*
G36*
X755800D02*
X754200D01*
X752721Y603411D01*
X751589Y602279D01*
X750976Y600800D01*
Y599200D01*
X751589Y597721D01*
X752721Y596589D01*
X754200Y595976D01*
X755800D01*
X757279Y596589D01*
X758411Y597721D01*
X759024Y599200D01*
Y600800D01*
X758411Y602279D01*
X757279Y603411D01*
X755800Y604024D01*
D02*
G37*
G36*
X745800D02*
X744200D01*
X742721Y603411D01*
X741589Y602279D01*
X740976Y600800D01*
Y599200D01*
X741589Y597721D01*
X742721Y596589D01*
X744200Y595976D01*
X745800D01*
X747279Y596589D01*
X748411Y597721D01*
X749024Y599200D01*
Y600800D01*
X748411Y602279D01*
X747279Y603411D01*
X745800Y604024D01*
D02*
G37*
G36*
X732320Y603464D02*
X730720D01*
X729241Y602851D01*
X728109Y601719D01*
X727496Y600240D01*
Y598640D01*
X728109Y597161D01*
X729241Y596029D01*
X730720Y595416D01*
X732320D01*
X733799Y596029D01*
X734931Y597161D01*
X735544Y598640D01*
Y600240D01*
X734931Y601719D01*
X733799Y602851D01*
X732320Y603464D01*
D02*
G37*
G36*
X583730Y599654D02*
X582130D01*
X580651Y599041D01*
X579519Y597909D01*
X578906Y596430D01*
Y594830D01*
X579519Y593351D01*
X580651Y592219D01*
X582130Y591606D01*
X583730D01*
X585209Y592219D01*
X586341Y593351D01*
X586954Y594830D01*
Y596430D01*
X586341Y597909D01*
X585209Y599041D01*
X583730Y599654D01*
D02*
G37*
G36*
X513880D02*
X512280D01*
X510801Y599041D01*
X509669Y597909D01*
X509056Y596430D01*
Y594830D01*
X509669Y593351D01*
X510801Y592219D01*
X512280Y591606D01*
X513880D01*
X515359Y592219D01*
X516491Y593351D01*
X517104Y594830D01*
Y596430D01*
X516491Y597909D01*
X515359Y599041D01*
X513880Y599654D01*
D02*
G37*
G36*
X623100Y598384D02*
X621500D01*
X620021Y597771D01*
X618889Y596639D01*
X618276Y595160D01*
Y593560D01*
X618889Y592081D01*
X620021Y590949D01*
X621500Y590336D01*
X623100D01*
X624579Y590949D01*
X625711Y592081D01*
X626324Y593560D01*
Y595160D01*
X625711Y596639D01*
X624579Y597771D01*
X623100Y598384D01*
D02*
G37*
G36*
X605320D02*
X603720D01*
X602241Y597771D01*
X601109Y596639D01*
X600496Y595160D01*
Y593560D01*
X601109Y592081D01*
X602241Y590949D01*
X603720Y590336D01*
X605320D01*
X606799Y590949D01*
X607931Y592081D01*
X608544Y593560D01*
Y595160D01*
X607931Y596639D01*
X606799Y597771D01*
X605320Y598384D01*
D02*
G37*
G36*
X557060Y594574D02*
X555460D01*
X553981Y593961D01*
X552849Y592829D01*
X552236Y591350D01*
Y589750D01*
X552849Y588271D01*
X553981Y587139D01*
X555460Y586526D01*
X557060D01*
X558539Y587139D01*
X559671Y588271D01*
X560284Y589750D01*
Y591350D01*
X559671Y592829D01*
X558539Y593961D01*
X557060Y594574D01*
D02*
G37*
G36*
X495800Y594024D02*
X494200D01*
X492721Y593411D01*
X491589Y592279D01*
X490976Y590800D01*
Y589200D01*
X491589Y587721D01*
X492721Y586589D01*
X494200Y585976D01*
X495800D01*
X497279Y586589D01*
X498411Y587721D01*
X499024Y589200D01*
Y590800D01*
X498411Y592279D01*
X497279Y593411D01*
X495800Y594024D01*
D02*
G37*
G36*
X397040Y593304D02*
X395440D01*
X393961Y592691D01*
X392829Y591559D01*
X392216Y590080D01*
Y588480D01*
X392829Y587001D01*
X393961Y585869D01*
X395440Y585256D01*
X397040D01*
X398519Y585869D01*
X399651Y587001D01*
X400264Y588480D01*
Y590080D01*
X399651Y591559D01*
X398519Y592691D01*
X397040Y593304D01*
D02*
G37*
G36*
X605320Y588224D02*
X603720D01*
X602241Y587611D01*
X601109Y586479D01*
X600496Y585000D01*
Y583400D01*
X601109Y581921D01*
X602241Y580789D01*
X603720Y580176D01*
X605320D01*
X606799Y580789D01*
X607931Y581921D01*
X608544Y583400D01*
Y585000D01*
X607931Y586479D01*
X606799Y587611D01*
X605320Y588224D01*
D02*
G37*
G36*
X540550Y585684D02*
X538950D01*
X537471Y585071D01*
X536339Y583939D01*
X535726Y582460D01*
Y580860D01*
X536339Y579381D01*
X537471Y578249D01*
X538950Y577636D01*
X540550D01*
X542029Y578249D01*
X543161Y579381D01*
X543774Y580860D01*
Y582460D01*
X543161Y583939D01*
X542029Y585071D01*
X540550Y585684D01*
D02*
G37*
G36*
X399580Y580604D02*
X397980D01*
X396501Y579991D01*
X395369Y578859D01*
X394756Y577380D01*
Y575780D01*
X395369Y574301D01*
X396501Y573169D01*
X397980Y572556D01*
X399580D01*
X401059Y573169D01*
X402191Y574301D01*
X402804Y575780D01*
Y577380D01*
X402191Y578859D01*
X401059Y579991D01*
X399580Y580604D01*
D02*
G37*
G36*
X652104Y579024D02*
X650504D01*
X649025Y578411D01*
X647893Y577279D01*
X647280Y575800D01*
Y574200D01*
X647893Y572721D01*
X649025Y571589D01*
X650504Y570976D01*
X652104D01*
X653583Y571589D01*
X654715Y572721D01*
X655328Y574200D01*
Y575800D01*
X654715Y577279D01*
X653583Y578411D01*
X652104Y579024D01*
D02*
G37*
G36*
X450380Y565364D02*
X448780D01*
X447301Y564751D01*
X446169Y563619D01*
X445556Y562140D01*
Y560540D01*
X446169Y559061D01*
X447301Y557929D01*
X448780Y557316D01*
X450380D01*
X451859Y557929D01*
X452991Y559061D01*
X453005Y559095D01*
X454380D01*
X454546Y558695D01*
X455678Y557563D01*
X457157Y556950D01*
X458758D01*
X460237Y557563D01*
X461368Y558695D01*
X461981Y560174D01*
Y561774D01*
X461368Y563254D01*
X460237Y564385D01*
X458758Y564998D01*
X457157D01*
X455678Y564385D01*
X454546Y563254D01*
X454532Y563219D01*
X453157D01*
X452991Y563619D01*
X451859Y564751D01*
X450380Y565364D01*
D02*
G37*
G36*
X590800Y494024D02*
X589200D01*
X587721Y493411D01*
X586589Y492279D01*
X585976Y490800D01*
Y489200D01*
X586589Y487721D01*
X587721Y486589D01*
X589200Y485976D01*
X590800D01*
X592279Y486589D01*
X593411Y487721D01*
X594024Y489200D01*
Y490800D01*
X593411Y492279D01*
X592279Y493411D01*
X590800Y494024D01*
D02*
G37*
G36*
X570800D02*
X569199D01*
X567721Y493411D01*
X566589Y492279D01*
X565976Y490800D01*
Y489200D01*
X566589Y487721D01*
X567721Y486589D01*
X569199Y485976D01*
X570800D01*
X572279Y486589D01*
X573411Y487721D01*
X574024Y489200D01*
Y490800D01*
X573411Y492279D01*
X572279Y493411D01*
X570800Y494024D01*
D02*
G37*
G36*
X530800D02*
X529200D01*
X527721Y493411D01*
X526589Y492279D01*
X525976Y490800D01*
Y489200D01*
X526589Y487721D01*
X527721Y486589D01*
X529200Y485976D01*
X530800D01*
X532279Y486589D01*
X533411Y487721D01*
X534024Y489200D01*
Y490800D01*
X533411Y492279D01*
X532279Y493411D01*
X530800Y494024D01*
D02*
G37*
G36*
X510800D02*
X509200D01*
X507721Y493411D01*
X506589Y492279D01*
X505976Y490800D01*
Y489200D01*
X506589Y487721D01*
X507721Y486589D01*
X509200Y485976D01*
X510800D01*
X512279Y486589D01*
X513411Y487721D01*
X514024Y489200D01*
Y490800D01*
X513411Y492279D01*
X512279Y493411D01*
X510800Y494024D01*
D02*
G37*
G36*
X590800Y474024D02*
X589200D01*
X587721Y473411D01*
X586589Y472279D01*
X585976Y470800D01*
Y469200D01*
X586589Y467721D01*
X587721Y466589D01*
X589200Y465976D01*
X590800D01*
X592279Y466589D01*
X593411Y467721D01*
X594024Y469200D01*
Y470800D01*
X593411Y472279D01*
X592279Y473411D01*
X590800Y474024D01*
D02*
G37*
G36*
X570800D02*
X569199D01*
X567721Y473411D01*
X566589Y472279D01*
X565976Y470800D01*
Y469200D01*
X566589Y467721D01*
X567721Y466589D01*
X569199Y465976D01*
X570800D01*
X572279Y466589D01*
X573411Y467721D01*
X574024Y469200D01*
Y470800D01*
X573411Y472279D01*
X572279Y473411D01*
X570800Y474024D01*
D02*
G37*
G36*
X530800D02*
X529200D01*
X527721Y473411D01*
X526589Y472279D01*
X525976Y470800D01*
Y469200D01*
X526589Y467721D01*
X527721Y466589D01*
X529200Y465976D01*
X530800D01*
X532279Y466589D01*
X533411Y467721D01*
X534024Y469200D01*
Y470800D01*
X533411Y472279D01*
X532279Y473411D01*
X530800Y474024D01*
D02*
G37*
G36*
X510800D02*
X509200D01*
X507721Y473411D01*
X506589Y472279D01*
X505976Y470800D01*
Y469200D01*
X506589Y467721D01*
X507721Y466589D01*
X509200Y465976D01*
X510800D01*
X512279Y466589D01*
X513411Y467721D01*
X514024Y469200D01*
Y470800D01*
X513411Y472279D01*
X512279Y473411D01*
X510800Y474024D01*
D02*
G37*
G36*
X590800Y454024D02*
X589200D01*
X587721Y453411D01*
X586589Y452279D01*
X585976Y450800D01*
Y449200D01*
X586589Y447721D01*
X587721Y446589D01*
X589200Y445976D01*
X590800D01*
X592279Y446589D01*
X593411Y447721D01*
X594024Y449200D01*
Y450800D01*
X593411Y452279D01*
X592279Y453411D01*
X590800Y454024D01*
D02*
G37*
G36*
X570800D02*
X569199D01*
X567721Y453411D01*
X566589Y452279D01*
X565976Y450800D01*
Y449200D01*
X566589Y447721D01*
X567721Y446589D01*
X569199Y445976D01*
X570800D01*
X572279Y446589D01*
X573411Y447721D01*
X574024Y449200D01*
Y450800D01*
X573411Y452279D01*
X572279Y453411D01*
X570800Y454024D01*
D02*
G37*
G36*
X530800D02*
X529200D01*
X527721Y453411D01*
X526589Y452279D01*
X525976Y450800D01*
Y449200D01*
X526589Y447721D01*
X527721Y446589D01*
X529200Y445976D01*
X530800D01*
X532279Y446589D01*
X533411Y447721D01*
X534024Y449200D01*
Y450800D01*
X533411Y452279D01*
X532279Y453411D01*
X530800Y454024D01*
D02*
G37*
G36*
X510800D02*
X509200D01*
X507721Y453411D01*
X506589Y452279D01*
X505976Y450800D01*
Y449200D01*
X506589Y447721D01*
X507721Y446589D01*
X509200Y445976D01*
X510800D01*
X512279Y446589D01*
X513411Y447721D01*
X514024Y449200D01*
Y450800D01*
X513411Y452279D01*
X512279Y453411D01*
X510800Y454024D01*
D02*
G37*
G36*
X590800Y434024D02*
X589200D01*
X587721Y433411D01*
X586589Y432279D01*
X585976Y430800D01*
Y429200D01*
X586589Y427721D01*
X587721Y426589D01*
X589200Y425976D01*
X590800D01*
X592279Y426589D01*
X593411Y427721D01*
X594024Y429200D01*
Y430800D01*
X593411Y432279D01*
X592279Y433411D01*
X590800Y434024D01*
D02*
G37*
G36*
X570800D02*
X569199D01*
X567721Y433411D01*
X566589Y432279D01*
X565976Y430800D01*
Y429200D01*
X566589Y427721D01*
X567721Y426589D01*
X569199Y425976D01*
X570800D01*
X572279Y426589D01*
X573411Y427721D01*
X574024Y429200D01*
Y430800D01*
X573411Y432279D01*
X572279Y433411D01*
X570800Y434024D01*
D02*
G37*
G36*
X530800D02*
X529200D01*
X527721Y433411D01*
X526589Y432279D01*
X525976Y430800D01*
Y429200D01*
X526589Y427721D01*
X527721Y426589D01*
X529200Y425976D01*
X530800D01*
X532279Y426589D01*
X533411Y427721D01*
X534024Y429200D01*
Y430800D01*
X533411Y432279D01*
X532279Y433411D01*
X530800Y434024D01*
D02*
G37*
G36*
X510800D02*
X509200D01*
X507721Y433411D01*
X506589Y432279D01*
X505976Y430800D01*
Y429200D01*
X506589Y427721D01*
X507721Y426589D01*
X509200Y425976D01*
X510800D01*
X512279Y426589D01*
X513411Y427721D01*
X514024Y429200D01*
Y430800D01*
X513411Y432279D01*
X512279Y433411D01*
X510800Y434024D01*
D02*
G37*
G36*
X690800Y429024D02*
X689200D01*
X687721Y428411D01*
X686589Y427279D01*
X685976Y425800D01*
Y424200D01*
X686589Y422721D01*
X687721Y421589D01*
X689200Y420976D01*
X690800D01*
X692279Y421589D01*
X693411Y422721D01*
X694024Y424200D01*
Y425800D01*
X693411Y427279D01*
X692279Y428411D01*
X690800Y429024D01*
D02*
G37*
G36*
X328005Y503350D02*
X326016D01*
X324178Y502589D01*
X323395Y501806D01*
X322565Y501306D01*
X321735Y501806D01*
X320952Y502589D01*
X319115Y503350D01*
X317125D01*
X315288Y502589D01*
X314505Y501806D01*
X313675Y501306D01*
X312845Y501806D01*
X312062Y502589D01*
X310225Y503350D01*
X308235D01*
X306398Y502589D01*
X304991Y501182D01*
X304230Y499345D01*
Y497355D01*
X304991Y495518D01*
X305969Y494540D01*
X304991Y493562D01*
X304230Y491725D01*
Y489735D01*
X304991Y487898D01*
X306398Y486491D01*
X308235Y485730D01*
X310225D01*
X312062Y486491D01*
X312845Y487274D01*
X313675Y487774D01*
X314505Y487274D01*
X315288Y486491D01*
X317125Y485730D01*
X319115D01*
X320952Y486491D01*
X321735Y487274D01*
X322565Y487774D01*
X323395Y487274D01*
X324178Y486491D01*
X326016Y485730D01*
X328005D01*
X329842Y486491D01*
X331249Y487898D01*
X332010Y489735D01*
Y491725D01*
X331249Y493562D01*
X330271Y494540D01*
X331249Y495518D01*
X332010Y497355D01*
Y499345D01*
X331249Y501182D01*
X329842Y502589D01*
X328005Y503350D01*
D02*
G37*
G36*
X341975Y507160D02*
X339986D01*
X338148Y506399D01*
X336741Y504992D01*
X335980Y503155D01*
Y501166D01*
X336741Y499328D01*
X338148Y497921D01*
X339986Y497160D01*
X341975D01*
X343812Y497921D01*
X345219Y499328D01*
X345980Y501166D01*
Y503155D01*
X345219Y504992D01*
X343812Y506399D01*
X341975Y507160D01*
D02*
G37*
G36*
X362295Y474140D02*
X360305D01*
X358468Y473379D01*
X357061Y471972D01*
X356300Y470135D01*
Y469530D01*
X355244Y468824D01*
X354675Y469060D01*
X352686D01*
X350848Y468299D01*
X349441Y466892D01*
X348680Y465055D01*
Y463065D01*
X349441Y461228D01*
X350848Y459821D01*
X352686Y459060D01*
X354675D01*
X356512Y459821D01*
X357919Y461228D01*
X358680Y463065D01*
Y463670D01*
X359736Y464376D01*
X360305Y464140D01*
X362295D01*
X364132Y464901D01*
X365539Y466308D01*
X366300Y468145D01*
Y470135D01*
X365539Y471972D01*
X364132Y473379D01*
X362295Y474140D01*
D02*
G37*
G36*
X355199Y402560D02*
X353209D01*
X351372Y401799D01*
X349965Y400392D01*
X349204Y398555D01*
Y396566D01*
X349965Y394728D01*
X351372Y393321D01*
X353209Y392560D01*
X355199D01*
X357036Y393321D01*
X358443Y394728D01*
X359204Y396566D01*
Y398555D01*
X358443Y400392D01*
X357036Y401799D01*
X355199Y402560D01*
D02*
G37*
G36*
X328005Y373350D02*
X326016D01*
X324178Y372589D01*
X323395Y371806D01*
X322565Y371306D01*
X321735Y371806D01*
X320952Y372589D01*
X319115Y373350D01*
X317125D01*
X315288Y372589D01*
X314505Y371806D01*
X313675Y371306D01*
X312845Y371806D01*
X312062Y372589D01*
X310225Y373350D01*
X308235D01*
X306398Y372589D01*
X304991Y371182D01*
X304230Y369345D01*
Y367355D01*
X304991Y365518D01*
X305969Y364540D01*
X304991Y363562D01*
X304230Y361725D01*
Y359735D01*
X304991Y357898D01*
X306398Y356491D01*
X308235Y355730D01*
X310225D01*
X312062Y356491D01*
X312845Y357274D01*
X313675Y357774D01*
X314505Y357274D01*
X315288Y356491D01*
X317125Y355730D01*
X319115D01*
X320952Y356491D01*
X321735Y357274D01*
X322565Y357774D01*
X323395Y357274D01*
X324178Y356491D01*
X326016Y355730D01*
X328005D01*
X329842Y356491D01*
X331249Y357898D01*
X332010Y359735D01*
Y361725D01*
X331249Y363562D01*
X330271Y364540D01*
X331249Y365518D01*
X332010Y367355D01*
Y369345D01*
X331249Y371182D01*
X329842Y372589D01*
X328005Y373350D01*
D02*
G37*
G36*
X341975Y377160D02*
X339986D01*
X338148Y376399D01*
X336741Y374992D01*
X335980Y373155D01*
Y371166D01*
X336741Y369328D01*
X338148Y367921D01*
X339986Y367160D01*
X341975D01*
X343812Y367921D01*
X345219Y369328D01*
X345980Y371166D01*
Y373155D01*
X345219Y374992D01*
X343812Y376399D01*
X341975Y377160D01*
D02*
G37*
G36*
Y364460D02*
X339986D01*
X338148Y363699D01*
X336741Y362292D01*
X335980Y360455D01*
Y358465D01*
X336741Y356628D01*
X338148Y355221D01*
X339986Y354460D01*
X341975D01*
X343812Y355221D01*
X345219Y356628D01*
X345980Y358465D01*
Y360455D01*
X345219Y362292D01*
X343812Y363699D01*
X341975Y364460D01*
D02*
G37*
G36*
X362295Y344140D02*
X360305D01*
X358468Y343379D01*
X357061Y341972D01*
X356300Y340135D01*
Y339530D01*
X355244Y338824D01*
X354675Y339060D01*
X352686D01*
X350848Y338299D01*
X349441Y336892D01*
X348680Y335055D01*
Y333065D01*
X349441Y331228D01*
X350848Y329821D01*
X352686Y329060D01*
X354675D01*
X356512Y329821D01*
X357919Y331228D01*
X358680Y333065D01*
Y333670D01*
X359736Y334376D01*
X360305Y334140D01*
X362295D01*
X364132Y334901D01*
X365539Y336308D01*
X366300Y338145D01*
Y340135D01*
X365539Y341972D01*
X364132Y343379D01*
X362295Y344140D01*
D02*
G37*
G36*
X667745Y307260D02*
X665755D01*
X663918Y306499D01*
X662511Y305092D01*
X661750Y303255D01*
Y301265D01*
X662511Y299428D01*
X663918Y298021D01*
X665755Y297260D01*
X667745D01*
X669582Y298021D01*
X670989Y299428D01*
X671750Y301265D01*
Y303255D01*
X670989Y305092D01*
X669582Y306499D01*
X667745Y307260D01*
D02*
G37*
G36*
X649965Y305990D02*
X647975D01*
X646138Y305229D01*
X644731Y303822D01*
X643970Y301985D01*
Y299995D01*
X644731Y298158D01*
X646138Y296751D01*
X647975Y295990D01*
X649965D01*
X651802Y296751D01*
X653209Y298158D01*
X653970Y299995D01*
Y301985D01*
X653209Y303822D01*
X651802Y305229D01*
X649965Y305990D01*
D02*
G37*
G36*
X534395Y302180D02*
X532405D01*
X530568Y301419D01*
X529161Y300012D01*
X528400Y298175D01*
Y296185D01*
X529161Y294348D01*
X530568Y292941D01*
X532405Y292180D01*
X534395D01*
X534964Y292416D01*
X536020Y291710D01*
Y291105D01*
X536781Y289268D01*
X538188Y287861D01*
X540025Y287100D01*
X542015D01*
X543129Y287562D01*
X543369Y286983D01*
X544775Y285576D01*
X546613Y284815D01*
X548602D01*
X550440Y285576D01*
X551171Y286308D01*
X552158Y285321D01*
X553995Y284560D01*
X555985D01*
X557822Y285321D01*
X559229Y286728D01*
X559990Y288565D01*
Y290555D01*
X559229Y292392D01*
X557822Y293799D01*
X555985Y294560D01*
X553995D01*
X552158Y293799D01*
X551426Y293067D01*
X550440Y294054D01*
X548602Y294815D01*
X546613D01*
X545499Y294353D01*
X545259Y294932D01*
X543852Y296339D01*
X542015Y297100D01*
X540025D01*
X539456Y296864D01*
X538400Y297570D01*
Y298175D01*
X537639Y300012D01*
X536232Y301419D01*
X534395Y302180D01*
D02*
G37*
G36*
X355199Y272560D02*
X353209D01*
X351372Y271799D01*
X349965Y270392D01*
X349204Y268555D01*
Y266565D01*
X349965Y264728D01*
X351372Y263321D01*
X353209Y262560D01*
X355199D01*
X357036Y263321D01*
X358443Y264728D01*
X359204Y266565D01*
Y268555D01*
X358443Y270392D01*
X357036Y271799D01*
X355199Y272560D01*
D02*
G37*
G36*
X328005Y243350D02*
X326016D01*
X324178Y242589D01*
X323395Y241806D01*
X322565Y241306D01*
X321735Y241806D01*
X320952Y242589D01*
X319115Y243350D01*
X317125D01*
X315288Y242589D01*
X314505Y241806D01*
X313675Y241306D01*
X312845Y241806D01*
X312062Y242589D01*
X310225Y243350D01*
X308235D01*
X306398Y242589D01*
X304991Y241182D01*
X304230Y239345D01*
Y237355D01*
X304991Y235518D01*
X305969Y234540D01*
X304991Y233562D01*
X304230Y231725D01*
Y229736D01*
X304991Y227898D01*
X306398Y226491D01*
X308235Y225730D01*
X310225D01*
X312062Y226491D01*
X312845Y227274D01*
X313675Y227774D01*
X314505Y227274D01*
X315288Y226491D01*
X317125Y225730D01*
X319115D01*
X320952Y226491D01*
X321735Y227274D01*
X322565Y227774D01*
X323395Y227274D01*
X324178Y226491D01*
X326016Y225730D01*
X328005D01*
X329842Y226491D01*
X331249Y227898D01*
X332010Y229736D01*
Y231725D01*
X331249Y233562D01*
X330271Y234540D01*
X331249Y235518D01*
X332010Y237355D01*
Y239345D01*
X331249Y241182D01*
X329842Y242589D01*
X328005Y243350D01*
D02*
G37*
G36*
X593435Y249204D02*
X591446D01*
X589608Y248443D01*
X588201Y247036D01*
X587440Y245199D01*
Y243209D01*
X588201Y241372D01*
X589608Y239965D01*
X591446Y239204D01*
X593435D01*
X595272Y239965D01*
X596679Y241372D01*
X597440Y243209D01*
Y245199D01*
X596679Y247036D01*
X595272Y248443D01*
X593435Y249204D01*
D02*
G37*
G36*
X463435Y248724D02*
X461446D01*
X459608Y247963D01*
X458201Y246556D01*
X457440Y244719D01*
Y242729D01*
X458201Y240892D01*
X459608Y239485D01*
X461446Y238724D01*
X463435D01*
X465272Y239485D01*
X466679Y240892D01*
X467440Y242729D01*
Y244719D01*
X466679Y246556D01*
X465272Y247963D01*
X463435Y248724D01*
D02*
G37*
G36*
X651855Y256300D02*
X649865D01*
X648028Y255539D01*
X646621Y254132D01*
X645860Y252295D01*
Y250305D01*
X646621Y248468D01*
X648028Y247061D01*
X649865Y246300D01*
X650470D01*
X651176Y245244D01*
X650940Y244675D01*
Y242685D01*
X651701Y240848D01*
X653108Y239441D01*
X654946Y238680D01*
X656935D01*
X658772Y239441D01*
X660179Y240848D01*
X660940Y242685D01*
Y244675D01*
X660179Y246512D01*
X658772Y247919D01*
X656935Y248680D01*
X656330D01*
X655624Y249736D01*
X655860Y250305D01*
Y252295D01*
X655099Y254132D01*
X653692Y255539D01*
X651855Y256300D01*
D02*
G37*
G36*
X521855Y255820D02*
X519865D01*
X518028Y255059D01*
X516621Y253652D01*
X515860Y251815D01*
Y249825D01*
X516621Y247988D01*
X518028Y246581D01*
X519865Y245820D01*
X520470D01*
X521176Y244764D01*
X520940Y244195D01*
Y242205D01*
X521701Y240368D01*
X523108Y238961D01*
X524945Y238200D01*
X526935D01*
X528772Y238961D01*
X530179Y240368D01*
X530940Y242205D01*
Y244195D01*
X530179Y246032D01*
X528772Y247439D01*
X526935Y248200D01*
X526330D01*
X525624Y249256D01*
X525860Y249825D01*
Y251815D01*
X525099Y253652D01*
X523692Y255059D01*
X521855Y255820D01*
D02*
G37*
G36*
X341975Y247160D02*
X339986D01*
X338148Y246399D01*
X336741Y244992D01*
X335980Y243155D01*
Y241166D01*
X336741Y239328D01*
X338148Y237921D01*
X339986Y237160D01*
X341975D01*
X343812Y237921D01*
X345219Y239328D01*
X345980Y241166D01*
Y243155D01*
X345219Y244992D01*
X343812Y246399D01*
X341975Y247160D01*
D02*
G37*
G36*
X631535Y235980D02*
X629546D01*
X627708Y235219D01*
X626301Y233812D01*
X625540Y231975D01*
Y229985D01*
X626301Y228148D01*
X627708Y226741D01*
X629546Y225980D01*
X631535D01*
X633372Y226741D01*
X634779Y228148D01*
X635540Y229985D01*
Y231975D01*
X634779Y233812D01*
X633372Y235219D01*
X631535Y235980D01*
D02*
G37*
G36*
X618835D02*
X616846D01*
X615008Y235219D01*
X613601Y233812D01*
X612840Y231975D01*
Y229985D01*
X613601Y228148D01*
X615008Y226741D01*
X616846Y225980D01*
X618835D01*
X620672Y226741D01*
X622079Y228148D01*
X622840Y229985D01*
Y231975D01*
X622079Y233812D01*
X620672Y235219D01*
X618835Y235980D01*
D02*
G37*
G36*
X501535Y235500D02*
X499546D01*
X497708Y234739D01*
X496301Y233332D01*
X495540Y231495D01*
Y229505D01*
X496301Y227668D01*
X497708Y226261D01*
X499546Y225500D01*
X501535D01*
X503372Y226261D01*
X504779Y227668D01*
X505540Y229505D01*
Y231495D01*
X504779Y233332D01*
X503372Y234739D01*
X501535Y235500D01*
D02*
G37*
G36*
X488835D02*
X486846D01*
X485008Y234739D01*
X483601Y233332D01*
X482840Y231495D01*
Y229505D01*
X483601Y227668D01*
X485008Y226261D01*
X486846Y225500D01*
X488835D01*
X490672Y226261D01*
X492079Y227668D01*
X492840Y229505D01*
Y231495D01*
X492079Y233332D01*
X490672Y234739D01*
X488835Y235500D01*
D02*
G37*
G36*
X341975Y234460D02*
X339986D01*
X338148Y233699D01*
X336741Y232292D01*
X335980Y230455D01*
Y228465D01*
X336741Y226628D01*
X338148Y225221D01*
X339986Y224460D01*
X341975D01*
X343812Y225221D01*
X345219Y226628D01*
X345980Y228465D01*
Y230455D01*
X345219Y232292D01*
X343812Y233699D01*
X341975Y234460D01*
D02*
G37*
G36*
X630265Y222010D02*
X628275D01*
X626438Y221249D01*
X625460Y220271D01*
X624482Y221249D01*
X622645Y222010D01*
X620656D01*
X618818Y221249D01*
X617411Y219842D01*
X616650Y218005D01*
Y216015D01*
X617411Y214178D01*
X618194Y213395D01*
X618694Y212565D01*
X618194Y211735D01*
X617411Y210952D01*
X616650Y209115D01*
Y207125D01*
X617411Y205288D01*
X618194Y204505D01*
X618694Y203675D01*
X618194Y202845D01*
X617411Y202062D01*
X616650Y200225D01*
Y198235D01*
X617411Y196398D01*
X618818Y194991D01*
X620656Y194230D01*
X622645D01*
X624482Y194991D01*
X625460Y195969D01*
X626438Y194991D01*
X628275Y194230D01*
X630265D01*
X632102Y194991D01*
X633509Y196398D01*
X634270Y198235D01*
Y200225D01*
X633509Y202062D01*
X632726Y202845D01*
X632226Y203675D01*
X632726Y204505D01*
X633509Y205288D01*
X634270Y207125D01*
Y209115D01*
X633509Y210952D01*
X632726Y211735D01*
X632226Y212565D01*
X632726Y213395D01*
X633509Y214178D01*
X634270Y216015D01*
Y218005D01*
X633509Y219842D01*
X632102Y221249D01*
X630265Y222010D01*
D02*
G37*
G36*
X500265Y221530D02*
X498275D01*
X496438Y220769D01*
X495460Y219791D01*
X494482Y220769D01*
X492645Y221530D01*
X490656D01*
X488818Y220769D01*
X487411Y219362D01*
X486650Y217525D01*
Y215535D01*
X487411Y213698D01*
X488194Y212915D01*
X488694Y212085D01*
X488194Y211255D01*
X487411Y210472D01*
X486650Y208635D01*
Y206645D01*
X487411Y204808D01*
X488194Y204025D01*
X488694Y203195D01*
X488194Y202365D01*
X487411Y201582D01*
X486650Y199745D01*
Y197755D01*
X487411Y195918D01*
X488818Y194511D01*
X490656Y193750D01*
X492645D01*
X494482Y194511D01*
X495460Y195489D01*
X496438Y194511D01*
X498275Y193750D01*
X500265D01*
X502102Y194511D01*
X503509Y195918D01*
X504270Y197755D01*
Y199745D01*
X503509Y201582D01*
X502726Y202365D01*
X502226Y203195D01*
X502726Y204025D01*
X503509Y204808D01*
X504270Y206645D01*
Y208635D01*
X503509Y210472D01*
X502726Y211255D01*
X502226Y212085D01*
X502726Y212915D01*
X503509Y213698D01*
X504270Y215535D01*
Y217525D01*
X503509Y219362D01*
X502102Y220769D01*
X500265Y221530D01*
D02*
G37*
G36*
X362295Y214140D02*
X360305D01*
X358468Y213379D01*
X357061Y211972D01*
X356300Y210135D01*
Y209530D01*
X355244Y208824D01*
X354675Y209060D01*
X352686D01*
X350848Y208299D01*
X349441Y206892D01*
X348680Y205055D01*
Y203065D01*
X349441Y201228D01*
X350848Y199821D01*
X352686Y199060D01*
X354675D01*
X356512Y199821D01*
X357919Y201228D01*
X358680Y203065D01*
Y203670D01*
X359736Y204376D01*
X360305Y204140D01*
X362295D01*
X364132Y204901D01*
X365539Y206308D01*
X366300Y208146D01*
Y210135D01*
X365539Y211972D01*
X364132Y213379D01*
X362295Y214140D01*
D02*
G37*
G36*
X669635Y197880D02*
X667645D01*
X665808Y197119D01*
X664401Y195712D01*
X663640Y193875D01*
Y191885D01*
X664401Y190048D01*
X665808Y188641D01*
X667645Y187880D01*
X669635D01*
X671472Y188641D01*
X672879Y190048D01*
X673640Y191885D01*
Y193875D01*
X672879Y195712D01*
X671472Y197119D01*
X669635Y197880D01*
D02*
G37*
G36*
X539635Y197400D02*
X537645D01*
X535808Y196639D01*
X534401Y195232D01*
X533640Y193395D01*
Y191405D01*
X534401Y189568D01*
X535808Y188161D01*
X537645Y187400D01*
X539635D01*
X541472Y188161D01*
X542879Y189568D01*
X543640Y191405D01*
Y193395D01*
X542879Y195232D01*
X541472Y196639D01*
X539635Y197400D01*
D02*
G37*
G36*
X303875Y196360D02*
X301886D01*
X300048Y195599D01*
X298641Y194192D01*
X297880Y192355D01*
Y190366D01*
X298641Y188528D01*
X300048Y187121D01*
X301886Y186360D01*
X303875D01*
X305712Y187121D01*
X307119Y188528D01*
X307880Y190366D01*
Y192355D01*
X307119Y194192D01*
X305712Y195599D01*
X303875Y196360D01*
D02*
G37*
G36*
X730701Y178980D02*
X728699D01*
X726767Y178462D01*
X725033Y177461D01*
X723618Y176047D01*
X722618Y174314D01*
X722100Y172381D01*
Y170379D01*
X722618Y168447D01*
X723618Y166714D01*
X725033Y165299D01*
X726767Y164298D01*
X728699Y163780D01*
X730701D01*
X732634Y164298D01*
X734367Y165299D01*
X735781Y166714D01*
X736782Y168447D01*
X737300Y170379D01*
Y172381D01*
X736782Y174314D01*
X735781Y176047D01*
X734367Y177461D01*
X732634Y178462D01*
X730701Y178980D01*
D02*
G37*
G36*
X355199Y142560D02*
X353209D01*
X351372Y141799D01*
X349965Y140392D01*
X349204Y138555D01*
Y136565D01*
X349965Y134728D01*
X351372Y133321D01*
X353209Y132560D01*
X355199D01*
X357036Y133321D01*
X358443Y134728D01*
X359204Y136565D01*
Y138555D01*
X358443Y140392D01*
X357036Y141799D01*
X355199Y142560D01*
D02*
G37*
G36*
X328005Y113350D02*
X326015D01*
X324178Y112589D01*
X323395Y111806D01*
X322565Y111306D01*
X321735Y111806D01*
X320952Y112589D01*
X319115Y113350D01*
X317125D01*
X315288Y112589D01*
X314505Y111806D01*
X313675Y111306D01*
X312845Y111806D01*
X312062Y112589D01*
X310225Y113350D01*
X308235D01*
X306398Y112589D01*
X304991Y111182D01*
X304230Y109345D01*
Y107355D01*
X304991Y105518D01*
X305969Y104540D01*
X304991Y103562D01*
X304230Y101725D01*
Y99735D01*
X304991Y97898D01*
X306398Y96491D01*
X308235Y95730D01*
X310225D01*
X312062Y96491D01*
X312845Y97274D01*
X313675Y97774D01*
X314505Y97274D01*
X315288Y96491D01*
X317125Y95730D01*
X319115D01*
X320952Y96491D01*
X321735Y97274D01*
X322565Y97774D01*
X323395Y97274D01*
X324178Y96491D01*
X326015Y95730D01*
X328005D01*
X329842Y96491D01*
X331249Y97898D01*
X332010Y99735D01*
Y101725D01*
X331249Y103562D01*
X330271Y104540D01*
X331249Y105518D01*
X332010Y107355D01*
Y109345D01*
X331249Y111182D01*
X329842Y112589D01*
X328005Y113350D01*
D02*
G37*
G36*
X341975Y117160D02*
X339985D01*
X338148Y116399D01*
X336741Y114992D01*
X335980Y113155D01*
Y111165D01*
X336741Y109328D01*
X338148Y107921D01*
X339985Y107160D01*
X341975D01*
X343812Y107921D01*
X345219Y109328D01*
X345980Y111165D01*
Y113155D01*
X345219Y114992D01*
X343812Y116399D01*
X341975Y117160D01*
D02*
G37*
G36*
Y104460D02*
X339985D01*
X338148Y103699D01*
X336741Y102292D01*
X335980Y100455D01*
Y98465D01*
X336741Y96628D01*
X338148Y95221D01*
X339985Y94460D01*
X341975D01*
X343812Y95221D01*
X345219Y96628D01*
X345980Y98465D01*
Y100455D01*
X345219Y102292D01*
X343812Y103699D01*
X341975Y104460D01*
D02*
G37*
G36*
X362295Y84140D02*
X360305D01*
X358468Y83379D01*
X357061Y81972D01*
X356300Y80135D01*
Y79530D01*
X355244Y78824D01*
X354675Y79060D01*
X352685D01*
X350848Y78299D01*
X349441Y76892D01*
X348680Y75055D01*
Y73065D01*
X349441Y71228D01*
X350848Y69821D01*
X352685Y69060D01*
X354675D01*
X356512Y69821D01*
X357919Y71228D01*
X358680Y73065D01*
Y73670D01*
X359736Y74376D01*
X360305Y74140D01*
X362295D01*
X364132Y74901D01*
X365539Y76308D01*
X366300Y78145D01*
Y80135D01*
X365539Y81972D01*
X364132Y83379D01*
X362295Y84140D01*
D02*
G37*
G36*
X303875Y66360D02*
X301885D01*
X300048Y65599D01*
X298641Y64192D01*
X297880Y62355D01*
Y60365D01*
X298641Y58528D01*
X300048Y57121D01*
X301885Y56360D01*
X303875D01*
X305712Y57121D01*
X307119Y58528D01*
X307880Y60365D01*
Y62355D01*
X307119Y64192D01*
X305712Y65599D01*
X303875Y66360D01*
D02*
G37*
%LPD*%
D14*
X510700Y184780D02*
X515780Y189860D01*
X160640Y84220D02*
X229220D01*
X300340Y155340D01*
X262240Y563120D02*
X264780Y565660D01*
X335900D02*
X343520Y558040D01*
X264780Y565660D02*
X335900D01*
X160640Y407720D02*
X173340Y395020D01*
X338440Y400100D02*
X343520Y405180D01*
Y428040D01*
X323200Y400100D02*
X338440D01*
X295260Y349300D02*
X300287Y344273D01*
Y344250D02*
Y344273D01*
X160640Y604220D02*
X229220D01*
X300340Y675340D01*
X295260Y349300D02*
Y372160D01*
X173340Y785020D02*
X264780D01*
X292720Y812960D01*
X160640Y797720D02*
X173340Y785020D01*
X295260Y609300D02*
Y632160D01*
X262240Y693120D02*
X264780Y695660D01*
X335900D01*
X295260Y609300D02*
X300340Y604220D01*
X295260Y632160D02*
X323200Y660100D01*
X338440D01*
X335900Y695660D02*
X343520Y688040D01*
X338440Y660100D02*
X343520Y665180D01*
Y688040D01*
X160020Y665480D02*
X170480Y655020D01*
X264780D01*
X292720Y682960D01*
X323200D01*
X328280Y677880D01*
X295260Y479300D02*
Y502160D01*
X323200Y530100D01*
X295260Y479300D02*
X300340Y474220D01*
X323200Y530100D02*
X338440D01*
X343520Y535180D01*
Y558040D01*
X160640Y474220D02*
X229220D01*
X300340Y545340D01*
X160640Y537720D02*
X173340Y525020D01*
X264780D01*
X292720Y552960D01*
X323200D01*
X328280Y547880D01*
X262240Y433120D02*
X264780Y435660D01*
X295260Y372160D02*
X323200Y400100D01*
X264780Y435660D02*
X335900D01*
X343520Y428040D01*
X160640Y344220D02*
X229220D01*
X300340Y415340D01*
X173340Y395020D02*
X264780D01*
X292720Y422960D01*
X323200D01*
X328280Y417880D01*
X262240Y303120D02*
X264780Y305660D01*
X295260Y219300D02*
X300340Y214220D01*
X264780Y305660D02*
X335900D01*
X295260Y219300D02*
Y242160D01*
X323200Y270100D01*
X338440D01*
X343520Y275180D01*
Y298040D01*
X335900Y305660D02*
X343520Y298040D01*
X160640Y214220D02*
X229220D01*
X300340Y285340D01*
X160640Y277720D02*
X173340Y265020D01*
X264780D01*
X292720Y292960D01*
X323200D01*
X328280Y287880D01*
X295260Y89300D02*
Y112160D01*
X262240Y173120D02*
X264780Y175660D01*
X295260Y89300D02*
X300340Y84220D01*
X295260Y112160D02*
X323200Y140100D01*
X264780Y175660D02*
X335900D01*
X323200Y140100D02*
X338440D01*
X343520Y145180D01*
Y168040D01*
X335900Y175660D02*
X343520Y168040D01*
X160640Y147720D02*
X173340Y135020D01*
X264780D01*
X292720Y162960D01*
X323200D01*
X328280Y157880D01*
X424340Y154300D02*
X426880Y151760D01*
X424340Y154300D02*
Y225420D01*
X459900Y212720D02*
Y227960D01*
Y212720D02*
X487840Y184780D01*
X510700D01*
X424340Y225420D02*
X431960Y233040D01*
X454820D02*
X459900Y227960D01*
X431960Y233040D02*
X454820D01*
X444660Y189860D02*
X515780Y118740D01*
Y50160D02*
Y118740D01*
X437040Y212720D02*
X442120Y217800D01*
X437040Y182240D02*
Y212720D01*
Y182240D02*
X464980Y154300D01*
X452280Y50160D02*
X464980Y62860D01*
Y154300D01*
X554340Y154780D02*
X556880Y152240D01*
X617840Y185260D02*
X640700D01*
X645780Y190340D01*
X554340Y154780D02*
Y225900D01*
X589900Y213200D02*
Y228440D01*
X554340Y225900D02*
X561960Y233520D01*
X584820D02*
X589900Y228440D01*
X561960Y233520D02*
X584820D01*
X589900Y213200D02*
X617840Y185260D01*
X574660Y190340D02*
X645780Y119220D01*
Y50640D02*
Y119220D01*
X567040Y182720D02*
Y213200D01*
Y182720D02*
X594980Y154780D01*
X567040Y213200D02*
X572120Y218280D01*
X582280Y50640D02*
X594980Y63340D01*
Y154780D01*
X323200Y812960D02*
X328280Y807880D01*
X292720Y812960D02*
X323200D01*
X229220Y734220D02*
X300340Y805340D01*
X160640Y734220D02*
X229220D01*
X343520Y795180D02*
Y818040D01*
X335900Y825660D02*
X343520Y818040D01*
X264780Y825660D02*
X335900D01*
X262240Y823120D02*
X264780Y825660D01*
X323200Y790100D02*
X338440D01*
X343520Y795180D01*
X295260Y762160D02*
X323200Y790100D01*
X295260Y739300D02*
Y762160D01*
Y739300D02*
X300340Y734220D01*
D15*
X356870Y572770D02*
X368300Y561340D01*
X153670Y572770D02*
X356870D01*
X646846Y42326D02*
X652050Y47530D01*
X520700Y42326D02*
X646846D01*
X326979Y733304D02*
X330511Y729772D01*
X326197Y733304D02*
X326979D01*
X330511Y729772D02*
X331948D01*
X375920Y685800D01*
X411480Y561340D02*
X414020Y563880D01*
X138014Y42326D02*
X520700D01*
X522050Y43676D01*
X516696Y197811D02*
Y215717D01*
Y197811D02*
X522050Y192457D01*
Y43676D02*
Y192457D01*
X134620Y73660D02*
Y220980D01*
Y45720D02*
Y73660D01*
X298647D01*
X308319Y83332D01*
X326576D01*
X137160Y223520D02*
Y439420D01*
Y220980D02*
Y223520D01*
X134620Y220980D02*
X137160Y223520D01*
X134620Y45720D02*
X138014Y42326D01*
X652050Y47530D02*
Y198960D01*
X646696Y204314D02*
X652050Y198960D01*
X646696Y204314D02*
Y216197D01*
X318633Y205740D02*
X326197Y213304D01*
X152400Y205740D02*
X318633D01*
X147320Y330200D02*
X313093D01*
X326197Y343304D01*
X325948Y472440D02*
Y473055D01*
X335493Y482600D01*
X326197Y473304D02*
X335280Y464220D01*
X335493Y482600D02*
X353060D01*
X335280Y448528D02*
Y464220D01*
X344224Y603304D02*
X383540Y642620D01*
X326197Y603304D02*
X344224D01*
X368300Y561340D02*
X411480D01*
X147320Y566420D02*
X153670Y572770D01*
X147320Y515074D02*
X154394Y508000D01*
Y456654D02*
Y508000D01*
X147320Y515074D02*
Y566420D01*
X332818Y446066D02*
X335280Y448528D01*
X142240Y335280D02*
X147320Y330200D01*
X142240Y335280D02*
Y429338D01*
X158968Y446066D01*
X332818D01*
X137160Y220980D02*
X152400Y205740D01*
X137160Y439420D02*
X154394Y456654D01*
X353060Y482600D02*
X360680Y490220D01*
Y558800D01*
X383540Y642620D02*
X419100Y607060D01*
X375920Y650240D02*
X383540Y642620D01*
X375920Y650240D02*
Y685800D01*
D115*
X819700Y171380D02*
D03*
X729700D02*
D03*
D116*
X759700Y161980D02*
D03*
X789700D02*
D03*
X759700Y131980D02*
D03*
D117*
X789700D02*
D03*
D122*
X115000Y620000D02*
X148260Y586740D01*
X373260D02*
X385000Y575000D01*
X148260Y586740D02*
X373260D01*
X80000Y620000D02*
X115000D01*
D127*
X825000Y785000D02*
D03*
Y759600D02*
D03*
D128*
X628400Y410800D02*
D03*
Y385400D02*
D03*
Y360000D02*
D03*
Y334600D02*
D03*
D129*
X793860Y634980D02*
D03*
Y721380D02*
D03*
D130*
X835660Y634980D02*
D03*
Y721380D02*
D03*
D131*
X798860Y707080D02*
D03*
Y649280D02*
D03*
D132*
X599440Y624840D02*
D03*
X657860Y391160D02*
D03*
X669504Y342900D02*
D03*
Y350520D02*
D03*
X590000Y410000D02*
D03*
X685800Y17780D02*
D03*
X645160D02*
D03*
X679996Y419996D02*
D03*
X751840Y627380D02*
D03*
X715000Y650000D02*
D03*
X695017Y610000D02*
D03*
X663186Y622546D02*
D03*
X702302Y591184D02*
D03*
X710347Y617500D02*
D03*
X723900Y640080D02*
D03*
X698146Y660421D02*
D03*
X632460Y716280D02*
D03*
X625000Y669000D02*
D03*
X655000Y670484D02*
D03*
X396240Y810260D02*
D03*
X299720Y593939D02*
D03*
X326197Y733304D02*
D03*
X548640Y673100D02*
D03*
X543560Y668020D02*
D03*
X457957Y560974D02*
D03*
X414020Y563880D02*
D03*
X622300Y594360D02*
D03*
X480000Y745000D02*
D03*
X449580Y561340D02*
D03*
X396240Y589280D02*
D03*
X398780Y576580D02*
D03*
X515780Y189860D02*
D03*
X160640Y84220D02*
D03*
X561855Y48474D02*
D03*
X646696Y216197D02*
D03*
X516696Y215717D02*
D03*
X326197Y213304D02*
D03*
Y343304D02*
D03*
Y473304D02*
D03*
Y603304D02*
D03*
X326576Y83332D02*
D03*
X262240Y563120D02*
D03*
X353680Y464060D02*
D03*
X400010Y450000D02*
D03*
X158100Y420420D02*
D03*
X160640Y407720D02*
D03*
X165720Y420420D02*
D03*
Y412800D02*
D03*
X302880Y191360D02*
D03*
X354204Y397560D02*
D03*
X300287Y344250D02*
D03*
X360680Y558800D02*
D03*
X419100Y607060D02*
D03*
X495000Y590000D02*
D03*
X457200Y589280D02*
D03*
X375920Y685800D02*
D03*
X80000Y640000D02*
D03*
X547607Y289815D02*
D03*
X690000Y380000D02*
D03*
X710077Y339954D02*
D03*
X750000Y340000D02*
D03*
X740000D02*
D03*
X660000Y725000D02*
D03*
X675744Y716384D02*
D03*
X751840Y718820D02*
D03*
X655000Y730000D02*
D03*
X690000Y740000D02*
D03*
X805000D02*
D03*
X558800Y739120D02*
D03*
X575300Y706120D02*
D03*
X713836Y588836D02*
D03*
X554990Y289560D02*
D03*
X690000Y425000D02*
D03*
X725000Y610000D02*
D03*
X731520Y599440D02*
D03*
X755000Y600000D02*
D03*
X745000D02*
D03*
X759460Y297180D02*
D03*
X725000Y625000D02*
D03*
X80000Y605000D02*
D03*
Y620000D02*
D03*
Y650000D02*
D03*
X210000Y800000D02*
D03*
X220000D02*
D03*
X210000Y810000D02*
D03*
X230000Y820000D02*
D03*
X220000Y810000D02*
D03*
X210000Y820000D02*
D03*
X220000D02*
D03*
X165720Y818040D02*
D03*
X158100D02*
D03*
X165720Y810420D02*
D03*
X158100D02*
D03*
X513080Y595630D02*
D03*
X582930D02*
D03*
X475000Y755000D02*
D03*
X395000Y765000D02*
D03*
X410000Y795000D02*
D03*
X460000D02*
D03*
X465000Y755000D02*
D03*
X438292D02*
D03*
X445000D02*
D03*
X455000D02*
D03*
X470000Y795000D02*
D03*
X604520Y594360D02*
D03*
Y584200D02*
D03*
X625000Y675524D02*
D03*
X725000Y675000D02*
D03*
X765000Y600000D02*
D03*
X772160Y685800D02*
D03*
X777240Y718820D02*
D03*
X774700Y640080D02*
D03*
X800100Y693420D02*
D03*
X751840Y650240D02*
D03*
X746760Y688340D02*
D03*
X647700Y642620D02*
D03*
X713740Y713740D02*
D03*
Y728980D02*
D03*
X739140Y739140D02*
D03*
Y777240D02*
D03*
X518160Y756920D02*
D03*
X469900Y627380D02*
D03*
X487680Y739140D02*
D03*
X460000Y470000D02*
D03*
X595000Y550000D02*
D03*
Y560000D02*
D03*
X585000Y550000D02*
D03*
X575000D02*
D03*
X565000D02*
D03*
X585000Y560000D02*
D03*
X575000D02*
D03*
X565000D02*
D03*
X585000Y570000D02*
D03*
X575000D02*
D03*
X565000D02*
D03*
X655320Y756920D02*
D03*
Y764540D02*
D03*
Y772160D02*
D03*
X690000Y790000D02*
D03*
X655000D02*
D03*
X558800Y706120D02*
D03*
Y722620D02*
D03*
X575300Y739120D02*
D03*
Y722620D02*
D03*
X591800Y706120D02*
D03*
Y739120D02*
D03*
Y722620D02*
D03*
X730000Y355000D02*
D03*
X570000Y350000D02*
D03*
X590000D02*
D03*
X570000Y450000D02*
D03*
X590000D02*
D03*
Y370000D02*
D03*
X570000D02*
D03*
X590000Y430000D02*
D03*
X570000Y390000D02*
D03*
X590000D02*
D03*
X570000Y430000D02*
D03*
Y410000D02*
D03*
X400010Y470000D02*
D03*
Y490000D02*
D03*
X420000Y470000D02*
D03*
Y490000D02*
D03*
X460000D02*
D03*
X480000Y470000D02*
D03*
Y490000D02*
D03*
X510000Y470000D02*
D03*
Y490000D02*
D03*
X530000Y470000D02*
D03*
Y490000D02*
D03*
X570000Y470000D02*
D03*
Y490000D02*
D03*
X590000Y470000D02*
D03*
Y490000D02*
D03*
X539750Y581660D02*
D03*
X556260Y590550D02*
D03*
X651304Y575000D02*
D03*
X571500Y629920D02*
D03*
X629920Y617220D02*
D03*
X612140Y615950D02*
D03*
X533400Y614680D02*
D03*
X497840Y645160D02*
D03*
X467360Y665480D02*
D03*
X459740Y695960D02*
D03*
X480000Y795000D02*
D03*
X490000D02*
D03*
X436840Y731520D02*
D03*
X400010Y350000D02*
D03*
X420000D02*
D03*
X400010Y370000D02*
D03*
X420000D02*
D03*
X460000Y350000D02*
D03*
X480000D02*
D03*
X510000D02*
D03*
X530000D02*
D03*
X460000Y370000D02*
D03*
X480000D02*
D03*
X510000D02*
D03*
X530000D02*
D03*
X460000Y390000D02*
D03*
X480000D02*
D03*
X510000D02*
D03*
X530000D02*
D03*
X460000Y410000D02*
D03*
X480000D02*
D03*
X510000D02*
D03*
X530000D02*
D03*
X460000Y430000D02*
D03*
X480000D02*
D03*
X510000D02*
D03*
X530000D02*
D03*
X460000Y450000D02*
D03*
X480000D02*
D03*
X510000D02*
D03*
X530000D02*
D03*
X400010Y390000D02*
D03*
X420000D02*
D03*
Y450000D02*
D03*
X400010Y410000D02*
D03*
X420000D02*
D03*
X400010Y430000D02*
D03*
X420000D02*
D03*
X840000Y345000D02*
D03*
Y355000D02*
D03*
Y365000D02*
D03*
Y375000D02*
D03*
Y385000D02*
D03*
X830000D02*
D03*
Y375000D02*
D03*
Y365000D02*
D03*
Y355000D02*
D03*
Y345000D02*
D03*
X820000D02*
D03*
Y355000D02*
D03*
Y365000D02*
D03*
Y375000D02*
D03*
Y385000D02*
D03*
X749300Y297180D02*
D03*
X715000Y105000D02*
D03*
Y115000D02*
D03*
Y125000D02*
D03*
Y135000D02*
D03*
X705000Y105000D02*
D03*
Y115000D02*
D03*
Y125000D02*
D03*
Y135000D02*
D03*
X695000Y105000D02*
D03*
Y115000D02*
D03*
Y125000D02*
D03*
Y135000D02*
D03*
X705000Y145000D02*
D03*
Y155000D02*
D03*
Y165000D02*
D03*
Y175000D02*
D03*
X695000Y145000D02*
D03*
Y155000D02*
D03*
Y165000D02*
D03*
Y175000D02*
D03*
Y185000D02*
D03*
X705000D02*
D03*
X715000D02*
D03*
X725000D02*
D03*
X695000Y195000D02*
D03*
X705000D02*
D03*
X715000D02*
D03*
X725000D02*
D03*
X695000Y205000D02*
D03*
X705000D02*
D03*
X715000D02*
D03*
X725000D02*
D03*
X695000Y215000D02*
D03*
X705000D02*
D03*
X715000D02*
D03*
X725000D02*
D03*
Y225000D02*
D03*
X715000D02*
D03*
X705000D02*
D03*
X695000D02*
D03*
X648970Y300990D02*
D03*
X666750Y302260D02*
D03*
X541020Y292100D02*
D03*
X533400Y297180D02*
D03*
X560000Y110000D02*
D03*
Y120000D02*
D03*
Y130000D02*
D03*
Y140000D02*
D03*
X570000Y120000D02*
D03*
X580000D02*
D03*
X570000Y140000D02*
D03*
X580000D02*
D03*
X570000Y130000D02*
D03*
Y110000D02*
D03*
X580000D02*
D03*
X560000Y100000D02*
D03*
X570000D02*
D03*
X580000Y100000D02*
D03*
X430000Y110000D02*
D03*
Y120000D02*
D03*
Y130000D02*
D03*
Y140000D02*
D03*
X440000Y120000D02*
D03*
X450000D02*
D03*
X440000Y140000D02*
D03*
X450000D02*
D03*
X440000Y130000D02*
D03*
Y110000D02*
D03*
X450000D02*
D03*
X430000Y100000D02*
D03*
X440000D02*
D03*
X450000Y100000D02*
D03*
X220000Y170000D02*
D03*
X230000D02*
D03*
X240000D02*
D03*
X250000D02*
D03*
X230000Y160000D02*
D03*
Y150000D02*
D03*
X250000Y160000D02*
D03*
Y150000D02*
D03*
X240000Y160000D02*
D03*
X220000D02*
D03*
Y150000D02*
D03*
X210000Y170000D02*
D03*
Y160000D02*
D03*
X210000Y150000D02*
D03*
X220000Y300000D02*
D03*
X230000D02*
D03*
X240000D02*
D03*
X250000D02*
D03*
X230000Y290000D02*
D03*
Y280000D02*
D03*
X250000Y290000D02*
D03*
Y280000D02*
D03*
X240000Y290000D02*
D03*
X220000D02*
D03*
Y280000D02*
D03*
X210000Y300000D02*
D03*
Y290000D02*
D03*
X210000Y280000D02*
D03*
X220000Y430000D02*
D03*
X230000D02*
D03*
X240000D02*
D03*
X250000D02*
D03*
X230000Y420000D02*
D03*
Y410000D02*
D03*
X250000Y420000D02*
D03*
Y410000D02*
D03*
X240000Y420000D02*
D03*
X220000D02*
D03*
Y410000D02*
D03*
X210000Y430000D02*
D03*
Y420000D02*
D03*
X210000Y410000D02*
D03*
X220000Y560000D02*
D03*
X230000D02*
D03*
X240000D02*
D03*
X250000D02*
D03*
X230000Y550000D02*
D03*
Y540000D02*
D03*
X250000Y550000D02*
D03*
Y540000D02*
D03*
X240000Y550000D02*
D03*
X220000D02*
D03*
Y540000D02*
D03*
X210000Y560000D02*
D03*
Y550000D02*
D03*
X210000Y540000D02*
D03*
X220000Y690000D02*
D03*
X230000D02*
D03*
X240000D02*
D03*
X250000D02*
D03*
X230000Y680000D02*
D03*
Y670000D02*
D03*
X250000Y680000D02*
D03*
Y670000D02*
D03*
X240000Y680000D02*
D03*
X220000D02*
D03*
Y670000D02*
D03*
X210000Y690000D02*
D03*
Y680000D02*
D03*
X210000Y670000D02*
D03*
X240000Y810000D02*
D03*
X250000Y800000D02*
D03*
Y810000D02*
D03*
X230000Y800000D02*
D03*
Y810000D02*
D03*
X250000Y820000D02*
D03*
X240000D02*
D03*
X565664Y52016D02*
D03*
X574865Y60070D02*
D03*
X431960Y47620D02*
D03*
X439580D02*
D03*
X158100Y160420D02*
D03*
X165720Y152800D02*
D03*
Y160420D02*
D03*
X158100Y168040D02*
D03*
X165720Y428040D02*
D03*
X491650Y216530D02*
D03*
X499270D02*
D03*
X491650Y207640D02*
D03*
X499270D02*
D03*
X491650Y198750D02*
D03*
X499270D02*
D03*
X621650Y217010D02*
D03*
X629270D02*
D03*
X621650Y208120D02*
D03*
X629270D02*
D03*
X621650Y199230D02*
D03*
X629270D02*
D03*
X262240Y693120D02*
D03*
X300340Y604220D02*
D03*
X354204Y657560D02*
D03*
X353680Y594060D02*
D03*
X361300Y599140D02*
D03*
X340980Y619460D02*
D03*
X160640Y604220D02*
D03*
X300340Y675340D02*
D03*
X160020Y665480D02*
D03*
X328280Y677880D02*
D03*
X340980Y632160D02*
D03*
X165720Y680420D02*
D03*
X300340Y474220D02*
D03*
X354204Y527560D02*
D03*
X361300Y469140D02*
D03*
X340980Y489460D02*
D03*
X160640Y474220D02*
D03*
X300340Y545340D02*
D03*
X160640Y537720D02*
D03*
X328280Y547880D02*
D03*
X340980Y502160D02*
D03*
X165720Y550420D02*
D03*
X302880Y451360D02*
D03*
X262240Y433120D02*
D03*
X353680Y334060D02*
D03*
X361300Y339140D02*
D03*
X340980Y359460D02*
D03*
X160640Y344220D02*
D03*
X300340Y415340D02*
D03*
X328280Y417880D02*
D03*
X340980Y372160D02*
D03*
X302880Y321360D02*
D03*
X262240Y303120D02*
D03*
X300340Y214220D02*
D03*
X354204Y267560D02*
D03*
X353680Y204060D02*
D03*
X361300Y209140D02*
D03*
X340980Y229460D02*
D03*
X160640Y214220D02*
D03*
X300340Y285340D02*
D03*
X160640Y277720D02*
D03*
X328280Y287880D02*
D03*
X340980Y242160D02*
D03*
X165720Y290420D02*
D03*
X262240Y173120D02*
D03*
X300340Y84220D02*
D03*
X354204Y137560D02*
D03*
X353680Y74060D02*
D03*
X361300Y79140D02*
D03*
X340980Y99460D02*
D03*
X300340Y155340D02*
D03*
X160640Y147720D02*
D03*
X328280Y157880D02*
D03*
X340980Y112160D02*
D03*
X302880Y61360D02*
D03*
X426880Y151760D02*
D03*
X462440Y243724D02*
D03*
X525940Y243200D02*
D03*
X520860Y250820D02*
D03*
X500540Y230500D02*
D03*
X444660Y189860D02*
D03*
X515780Y50160D02*
D03*
X442120Y217800D02*
D03*
X452280Y50160D02*
D03*
X487840Y230500D02*
D03*
X439580Y55240D02*
D03*
X538640Y192400D02*
D03*
X556880Y152240D02*
D03*
X645780Y190340D02*
D03*
X592440Y244204D02*
D03*
X655940Y243680D02*
D03*
X650860Y251300D02*
D03*
X630540Y230980D02*
D03*
X574660Y190340D02*
D03*
X645780Y50640D02*
D03*
X572120Y218280D02*
D03*
X582280Y50640D02*
D03*
X617840Y230980D02*
D03*
X569580Y55720D02*
D03*
X668640Y192880D02*
D03*
X165720Y671600D02*
D03*
X157480Y680720D02*
D03*
Y675640D02*
D03*
X561960Y55720D02*
D03*
X431960Y55240D02*
D03*
X447200D02*
D03*
X165720Y168040D02*
D03*
X158100Y298040D02*
D03*
X165720D02*
D03*
Y282800D02*
D03*
X158100Y290420D02*
D03*
Y428040D02*
D03*
Y558040D02*
D03*
X165720D02*
D03*
Y542800D02*
D03*
X158100Y550420D02*
D03*
Y688040D02*
D03*
X165720D02*
D03*
X327010Y238350D02*
D03*
Y230730D02*
D03*
X318120Y238350D02*
D03*
Y230730D02*
D03*
X309230Y238350D02*
D03*
Y230730D02*
D03*
X327010Y368350D02*
D03*
Y360730D02*
D03*
X318120Y368350D02*
D03*
Y360730D02*
D03*
X309230Y368350D02*
D03*
Y360730D02*
D03*
X165720Y686840D02*
D03*
Y802800D02*
D03*
X302880Y711360D02*
D03*
X340980Y762160D02*
D03*
X328280Y807880D02*
D03*
X160640Y797720D02*
D03*
X300340Y805340D02*
D03*
X160640Y734220D02*
D03*
X340980Y749460D02*
D03*
X361300Y729140D02*
D03*
X353680Y724060D02*
D03*
X354204Y787560D02*
D03*
X262240Y823120D02*
D03*
X300340Y734220D02*
D03*
X327010Y758350D02*
D03*
Y750730D02*
D03*
X318120Y758350D02*
D03*
Y750730D02*
D03*
X309230Y758350D02*
D03*
Y750730D02*
D03*
X327010Y628350D02*
D03*
Y620730D02*
D03*
X318120Y628350D02*
D03*
Y620730D02*
D03*
X309230Y628350D02*
D03*
Y620730D02*
D03*
X327010Y498350D02*
D03*
Y490730D02*
D03*
X318120Y498350D02*
D03*
Y490730D02*
D03*
X309230Y498350D02*
D03*
Y490730D02*
D03*
X327010Y108350D02*
D03*
Y100730D02*
D03*
X318120Y108350D02*
D03*
Y100730D02*
D03*
X309230Y108350D02*
D03*
Y100730D02*
D03*
M02*
