G04*
G04 #@! TF.GenerationSoftware,Altium Limited,Altium Designer,24.9.1 (31)*
G04*
G04 Layer_Physical_Order=1*
G04 Layer_Color=255*
%FSLAX44Y44*%
%MOMM*%
G71*
G04*
G04 #@! TF.SameCoordinates,E8F54852-4FAE-476C-9330-F2E97CA3312C*
G04*
G04*
G04 #@! TF.FilePolarity,Positive*
G04*
G01*
G75*
%ADD14C,0.2540*%
%ADD15C,0.2032*%
%ADD16R,0.7000X0.9000*%
%ADD17R,0.7000X0.7000*%
%ADD18R,1.5500X1.5500*%
%ADD19R,0.8000X1.0000*%
%ADD20R,0.9652X1.0668*%
%ADD21R,0.8000X0.6000*%
%ADD22R,1.0668X0.9652*%
%ADD23R,0.8128X0.8128*%
%ADD24R,0.9000X0.7000*%
%ADD25R,1.2000X1.2000*%
%ADD26R,0.4000X0.8000*%
%ADD27R,0.8000X0.4000*%
%ADD28R,0.8000X0.8000*%
%ADD29R,0.7000X1.0000*%
%ADD30R,0.9581X0.9121*%
%ADD31R,0.9121X0.9581*%
%ADD32R,2.7000X1.3000*%
%ADD33R,0.9582X1.0065*%
%ADD34R,0.9000X0.8000*%
G04:AMPARAMS|DCode=35|XSize=1.2565mm|YSize=0.3125mm|CornerRadius=0.1562mm|HoleSize=0mm|Usage=FLASHONLY|Rotation=270.000|XOffset=0mm|YOffset=0mm|HoleType=Round|Shape=RoundedRectangle|*
%AMROUNDEDRECTD35*
21,1,1.2565,0.0000,0,0,270.0*
21,1,0.9440,0.3125,0,0,270.0*
1,1,0.3125,0.0000,-0.4720*
1,1,0.3125,0.0000,0.4720*
1,1,0.3125,0.0000,0.4720*
1,1,0.3125,0.0000,-0.4720*
%
%ADD35ROUNDEDRECTD35*%
%ADD36R,0.3125X1.2565*%
%ADD37R,1.7000X4.6500*%
%ADD38R,1.0000X0.6000*%
%ADD39R,1.8000X1.2500*%
%ADD40R,4.4000X1.9000*%
%ADD41R,1.0000X0.9000*%
%ADD42R,4.5000X3.0000*%
%ADD43R,1.3000X2.7000*%
%ADD44R,1.2500X2.5000*%
%ADD45R,1.2000X0.6000*%
%ADD46R,1.1400X0.6000*%
%ADD47R,1.1400X0.3000*%
%ADD48R,0.7154X0.6725*%
%ADD49R,1.5240X1.6764*%
%ADD50R,1.5000X3.6000*%
G04:AMPARAMS|DCode=51|XSize=1.2544mm|YSize=0.5321mm|CornerRadius=0.2661mm|HoleSize=0mm|Usage=FLASHONLY|Rotation=0.000|XOffset=0mm|YOffset=0mm|HoleType=Round|Shape=RoundedRectangle|*
%AMROUNDEDRECTD51*
21,1,1.2544,0.0000,0,0,0.0*
21,1,0.7223,0.5321,0,0,0.0*
1,1,0.5321,0.3611,0.0000*
1,1,0.5321,-0.3611,0.0000*
1,1,0.5321,-0.3611,0.0000*
1,1,0.5321,0.3611,0.0000*
%
%ADD51ROUNDEDRECTD51*%
%ADD52R,1.2544X0.5321*%
%ADD53R,1.1000X2.0500*%
%ADD54R,1.3500X2.8000*%
%ADD55R,0.9000X1.0500*%
%ADD56R,1.3500X1.4500*%
G04:AMPARAMS|DCode=57|XSize=0.25mm|YSize=0.9mm|CornerRadius=0.0625mm|HoleSize=0mm|Usage=FLASHONLY|Rotation=270.000|XOffset=0mm|YOffset=0mm|HoleType=Round|Shape=RoundedRectangle|*
%AMROUNDEDRECTD57*
21,1,0.2500,0.7750,0,0,270.0*
21,1,0.1250,0.9000,0,0,270.0*
1,1,0.1250,-0.3875,-0.0625*
1,1,0.1250,-0.3875,0.0625*
1,1,0.1250,0.3875,0.0625*
1,1,0.1250,0.3875,-0.0625*
%
%ADD57ROUNDEDRECTD57*%
%ADD58R,1.4900X2.5000*%
%ADD59R,1.0500X0.9000*%
%ADD60R,0.9621X0.9350*%
%ADD61R,2.1000X4.0000*%
%ADD62R,3.4290X2.4130*%
%ADD63R,3.5000X4.8000*%
%ADD64R,1.3500X1.3000*%
%ADD65R,0.9682X1.0065*%
%ADD66R,1.4500X1.3500*%
G04:AMPARAMS|DCode=67|XSize=0.25mm|YSize=0.9mm|CornerRadius=0.0625mm|HoleSize=0mm|Usage=FLASHONLY|Rotation=180.000|XOffset=0mm|YOffset=0mm|HoleType=Round|Shape=RoundedRectangle|*
%AMROUNDEDRECTD67*
21,1,0.2500,0.7750,0,0,180.0*
21,1,0.1250,0.9000,0,0,180.0*
1,1,0.1250,-0.0625,0.3875*
1,1,0.1250,0.0625,0.3875*
1,1,0.1250,0.0625,-0.3875*
1,1,0.1250,-0.0625,-0.3875*
%
%ADD67ROUNDEDRECTD67*%
%ADD68R,2.5000X1.4900*%
%ADD69R,0.9350X0.9621*%
%ADD70R,4.0000X2.1000*%
%ADD71R,2.4130X3.4290*%
%ADD72R,4.8000X3.5000*%
%ADD73R,1.3000X1.3500*%
%ADD74R,1.0065X0.9682*%
%ADD115C,1.0200*%
%ADD116C,1.5700*%
%ADD117R,1.5700X1.5700*%
%ADD121R,0.4000X0.4000*%
%ADD122C,0.6350*%
%ADD123C,2.5400*%
%ADD124C,0.5080*%
%ADD125C,1.2700*%
%ADD126C,0.3810*%
%ADD127C,1.5240*%
%ADD128C,1.5000*%
%ADD129O,2.1000X1.0500*%
%ADD130O,1.8000X0.9000*%
%ADD131C,0.6500*%
%ADD132C,0.5000*%
G36*
X183500Y819194D02*
X183476D01*
Y801646D01*
X183500D01*
Y797720D01*
X165849D01*
X164392Y799176D01*
X164051Y799999D01*
X162919Y801131D01*
X161440Y801744D01*
X159840D01*
X158361Y801131D01*
X157229Y799999D01*
X156616Y798521D01*
Y797720D01*
X153020D01*
Y823120D01*
X183500D01*
Y819194D01*
D02*
G37*
G36*
X718820Y787400D02*
X673594D01*
Y795984D01*
X663546D01*
Y787400D01*
X553720D01*
X543560Y777240D01*
X429260D01*
Y797560D01*
X718820D01*
Y787400D01*
D02*
G37*
G36*
X260000Y824797D02*
X259608Y824210D01*
X259391Y823120D01*
Y818160D01*
X244830Y803599D01*
X241980D01*
X240890Y803382D01*
X239966Y802764D01*
X239348Y801840D01*
X239131Y800750D01*
X239348Y799660D01*
X239966Y798736D01*
X240890Y798118D01*
X241980Y797901D01*
X246010D01*
X246010Y797901D01*
X247100Y798118D01*
X248024Y798736D01*
X258827Y809538D01*
X260000Y809052D01*
Y780000D01*
X207500D01*
Y830000D01*
X260000D01*
Y824797D01*
D02*
G37*
G36*
X497840Y769620D02*
X510540D01*
Y762000D01*
X497840D01*
X486809Y750969D01*
X483120D01*
X483120Y750969D01*
X482030Y750752D01*
X481106Y750134D01*
X481106Y750134D01*
X480271Y749300D01*
X459485D01*
X459417Y749368D01*
X458493Y749986D01*
X457402Y750203D01*
X457402Y750203D01*
X435666D01*
X431800Y754069D01*
Y774700D01*
X492760D01*
X497840Y769620D01*
D02*
G37*
G36*
X564800Y733120D02*
X552800D01*
Y739120D01*
X558800Y745120D01*
X564800D01*
Y733120D01*
D02*
G37*
G36*
X236840Y708820D02*
X163180D01*
Y730098D01*
X164450Y730623D01*
X165670Y729403D01*
Y726600D01*
X165867Y725609D01*
X166429Y724769D01*
X167269Y724207D01*
X168260Y724010D01*
X169251Y724207D01*
X170091Y724769D01*
X170653Y725609D01*
X170850Y726600D01*
Y730476D01*
X170653Y731467D01*
X170091Y732307D01*
X166347Y736051D01*
X165507Y736613D01*
X164516Y736810D01*
X163180D01*
Y767240D01*
X236840D01*
Y708820D01*
D02*
G37*
G36*
X292720Y777400D02*
X308030D01*
Y773293D01*
X307971Y773204D01*
X307804Y772365D01*
Y764615D01*
X306735Y763514D01*
X304096D01*
Y757080D01*
X297800D01*
Y738580D01*
X297508Y738459D01*
X296101Y737052D01*
X295340Y735215D01*
Y733225D01*
X296101Y731388D01*
X297508Y729981D01*
X297800Y729860D01*
Y718980D01*
X295260Y716440D01*
X269860D01*
Y779250D01*
X269980D01*
Y820580D01*
X292720D01*
Y777400D01*
D02*
G37*
G36*
X183500Y689194D02*
X183476D01*
Y671646D01*
X183500D01*
Y667720D01*
X163448D01*
X163431Y667759D01*
X162299Y668891D01*
X160820Y669504D01*
X159220D01*
X157741Y668891D01*
X156609Y667759D01*
X156592Y667720D01*
X153020D01*
Y693120D01*
X183500D01*
Y689194D01*
D02*
G37*
G36*
X260000Y694797D02*
X259608Y694210D01*
X259391Y693120D01*
Y688160D01*
X244830Y673599D01*
X241980D01*
X240890Y673382D01*
X239966Y672764D01*
X239348Y671840D01*
X239131Y670750D01*
X239348Y669660D01*
X239966Y668736D01*
X240890Y668118D01*
X241980Y667901D01*
X246010D01*
X246010Y667901D01*
X247100Y668118D01*
X248024Y668736D01*
X258827Y679538D01*
X260000Y679052D01*
Y650000D01*
X207500D01*
Y700000D01*
X260000D01*
Y694797D01*
D02*
G37*
G36*
X236840Y578820D02*
X163180D01*
Y600098D01*
X164450Y600624D01*
X165670Y599403D01*
Y596600D01*
X165867Y595609D01*
X166429Y594769D01*
X167269Y594207D01*
X168260Y594010D01*
X169251Y594207D01*
X170091Y594769D01*
X170653Y595609D01*
X170850Y596600D01*
Y600476D01*
X170653Y601467D01*
X170091Y602307D01*
X166347Y606051D01*
X165507Y606613D01*
X164516Y606810D01*
X163180D01*
Y637240D01*
X236840D01*
Y578820D01*
D02*
G37*
G36*
X292720Y647400D02*
X308030D01*
Y643293D01*
X307971Y643204D01*
X307804Y642365D01*
Y634615D01*
X306735Y633514D01*
X304096D01*
Y627080D01*
X297800D01*
Y608580D01*
X297508Y608459D01*
X296101Y607052D01*
X295340Y605215D01*
Y603226D01*
X296101Y601388D01*
X297508Y599981D01*
X297800Y599860D01*
Y597499D01*
X297441Y597350D01*
X296309Y596218D01*
X295696Y594739D01*
Y593139D01*
X296309Y591660D01*
X297130Y590838D01*
Y588310D01*
X295260Y586440D01*
X269860D01*
Y649250D01*
X269980D01*
Y690580D01*
X292720D01*
Y647400D01*
D02*
G37*
G36*
X772160Y571500D02*
X726440D01*
Y574040D01*
Y604520D01*
X772160D01*
Y571500D01*
D02*
G37*
G36*
X183500Y559194D02*
X183476D01*
Y541646D01*
X183500D01*
Y537720D01*
X165849D01*
X164392Y539176D01*
X164051Y540000D01*
X162919Y541131D01*
X161440Y541744D01*
X159840D01*
X158361Y541131D01*
X157229Y540000D01*
X156616Y538521D01*
Y537720D01*
X153020D01*
Y563120D01*
X183500D01*
Y559194D01*
D02*
G37*
G36*
X680000Y435860D02*
X679140Y435000D01*
X600000D01*
Y330000D01*
X500000D01*
Y510000D01*
X600000D01*
X625000Y535000D01*
X633606D01*
Y532926D01*
X651654D01*
Y535000D01*
X680000D01*
Y435860D01*
D02*
G37*
G36*
X630000Y536650D02*
X625000D01*
X623834Y536166D01*
X612667Y525000D01*
X525000D01*
Y570000D01*
X530000Y575000D01*
X630000D01*
Y536650D01*
D02*
G37*
G36*
X260000Y564797D02*
X259608Y564210D01*
X259391Y563120D01*
Y558160D01*
X244830Y543599D01*
X241980D01*
X240890Y543382D01*
X239966Y542764D01*
X239348Y541840D01*
X239131Y540750D01*
X239348Y539660D01*
X239966Y538736D01*
X240890Y538118D01*
X241980Y537901D01*
X246010D01*
X246010Y537901D01*
X247100Y538118D01*
X248024Y538736D01*
X258827Y549538D01*
X260000Y549052D01*
Y520000D01*
X207500D01*
Y570000D01*
X260000D01*
Y564797D01*
D02*
G37*
G36*
X236840Y448820D02*
X163180D01*
Y470098D01*
X164450Y470624D01*
X165670Y469403D01*
Y466600D01*
X165867Y465609D01*
X166429Y464769D01*
X167269Y464207D01*
X168260Y464010D01*
X169251Y464207D01*
X170091Y464769D01*
X170653Y465609D01*
X170850Y466600D01*
Y470476D01*
X170653Y471467D01*
X170091Y472307D01*
X166347Y476051D01*
X165507Y476613D01*
X164516Y476810D01*
X163180D01*
Y507240D01*
X236840D01*
Y448820D01*
D02*
G37*
G36*
X292720Y517400D02*
X308030D01*
Y513293D01*
X307971Y513204D01*
X307804Y512365D01*
Y504615D01*
X306735Y503514D01*
X304096D01*
Y497080D01*
X297800D01*
Y478580D01*
X297508Y478459D01*
X296101Y477052D01*
X295340Y475215D01*
Y473226D01*
X296101Y471388D01*
X297508Y469981D01*
X297800Y469860D01*
Y458980D01*
X295260Y456440D01*
X269860D01*
Y519250D01*
X269980D01*
Y560580D01*
X292720D01*
Y517400D01*
D02*
G37*
G36*
X805180Y444500D02*
X800100Y439420D01*
X685800D01*
Y535940D01*
X805180D01*
Y444500D01*
D02*
G37*
G36*
X183500Y429194D02*
X183476D01*
Y411646D01*
X183500D01*
Y407720D01*
X165849D01*
X164392Y409176D01*
X164051Y410000D01*
X162919Y411131D01*
X161440Y411744D01*
X159840D01*
X158361Y411131D01*
X157229Y410000D01*
X156616Y408521D01*
Y407720D01*
X153020D01*
Y433120D01*
X183500D01*
Y429194D01*
D02*
G37*
G36*
X795020Y393700D02*
X792440D01*
Y395290D01*
X768940D01*
Y390480D01*
X762000Y383540D01*
Y363926D01*
X754270D01*
Y365140D01*
X736270D01*
Y363220D01*
X731520D01*
Y436880D01*
X795020D01*
Y393700D01*
D02*
G37*
G36*
X260000Y434797D02*
X259608Y434210D01*
X259391Y433120D01*
Y428160D01*
X244830Y413599D01*
X241980D01*
X240890Y413382D01*
X239966Y412764D01*
X239348Y411840D01*
X239131Y410750D01*
X239348Y409660D01*
X239966Y408736D01*
X240890Y408118D01*
X241980Y407901D01*
X246010D01*
X247100Y408118D01*
X248024Y408736D01*
X248024Y408736D01*
X258827Y419538D01*
X260000Y419052D01*
Y390000D01*
X207500D01*
Y440000D01*
X260000D01*
Y434797D01*
D02*
G37*
G36*
X843280Y335280D02*
X813363D01*
X811811Y336831D01*
X809934Y338086D01*
X807720Y338526D01*
X791657D01*
X789940Y340243D01*
Y371790D01*
X792440D01*
Y391160D01*
X843280D01*
Y335280D01*
D02*
G37*
G36*
X236840Y318820D02*
X163180D01*
Y340098D01*
X164450Y340624D01*
X165670Y339403D01*
Y336600D01*
X165867Y335609D01*
X166429Y334769D01*
X167269Y334207D01*
X168260Y334010D01*
X169251Y334207D01*
X170091Y334769D01*
X170653Y335609D01*
X170850Y336600D01*
Y340476D01*
X170653Y341467D01*
X170091Y342307D01*
X166347Y346051D01*
X165507Y346613D01*
X164516Y346810D01*
X163180D01*
Y377240D01*
X236840D01*
Y318820D01*
D02*
G37*
G36*
X490000Y330000D02*
X393585D01*
Y435178D01*
X393796Y435494D01*
X394069Y436866D01*
Y503350D01*
X400719Y510000D01*
X490000D01*
Y330000D01*
D02*
G37*
G36*
X292720Y387400D02*
X308030D01*
Y383293D01*
X307971Y383204D01*
X307804Y382365D01*
Y374615D01*
X306735Y373514D01*
X304096D01*
Y367080D01*
X297800D01*
Y348632D01*
X297455Y348489D01*
X296048Y347082D01*
X295287Y345245D01*
Y343256D01*
X296048Y341418D01*
X297455Y340011D01*
X297800Y339868D01*
Y328980D01*
X295260Y326440D01*
X269860D01*
Y389250D01*
X269980D01*
Y430580D01*
X292720D01*
Y387400D01*
D02*
G37*
G36*
X183500Y299194D02*
X183476D01*
Y281646D01*
X183500D01*
Y277720D01*
X165849D01*
X164392Y279177D01*
X164051Y279999D01*
X162919Y281131D01*
X161440Y281744D01*
X159840D01*
X158361Y281131D01*
X157229Y279999D01*
X156616Y278520D01*
Y277720D01*
X153020D01*
Y303120D01*
X183500D01*
Y299194D01*
D02*
G37*
G36*
X260000Y304797D02*
X259608Y304210D01*
X259391Y303120D01*
Y298160D01*
X244830Y283599D01*
X241980D01*
X240890Y283382D01*
X239966Y282764D01*
X239348Y281840D01*
X239131Y280750D01*
X239348Y279660D01*
X239966Y278736D01*
X240890Y278118D01*
X241980Y277901D01*
X246010D01*
X246010Y277901D01*
X247100Y278118D01*
X248024Y278736D01*
X258827Y289538D01*
X260000Y289052D01*
Y260000D01*
X207500D01*
Y310000D01*
X260000D01*
Y304797D01*
D02*
G37*
G36*
X236840Y188820D02*
X163180D01*
Y210098D01*
X164450Y210623D01*
X165670Y209403D01*
Y206600D01*
X165867Y205609D01*
X166429Y204769D01*
X167269Y204207D01*
X168260Y204010D01*
X169251Y204207D01*
X170091Y204769D01*
X170653Y205609D01*
X170850Y206600D01*
Y210476D01*
X170653Y211467D01*
X170091Y212307D01*
X166347Y216051D01*
X165507Y216613D01*
X164516Y216810D01*
X163180D01*
Y247240D01*
X236840D01*
Y188820D01*
D02*
G37*
G36*
X292720Y257400D02*
X308030D01*
Y253293D01*
X307971Y253204D01*
X307804Y252365D01*
Y244615D01*
X306735Y243514D01*
X304096D01*
Y237080D01*
X297800D01*
Y218580D01*
X297508Y218459D01*
X296101Y217052D01*
X295340Y215215D01*
Y213225D01*
X296101Y211388D01*
X297508Y209981D01*
X297800Y209860D01*
Y198980D01*
X295260Y196440D01*
X269860D01*
Y259250D01*
X269980D01*
Y300580D01*
X292720D01*
Y257400D01*
D02*
G37*
G36*
X606796Y197971D02*
X607635Y197804D01*
X615385D01*
X616486Y196735D01*
Y194096D01*
X622920D01*
Y187800D01*
X641420D01*
X641541Y187508D01*
X642948Y186101D01*
X644786Y185340D01*
X646775D01*
X648612Y186101D01*
X650019Y187508D01*
X650140Y187800D01*
X661020D01*
X663560Y185260D01*
Y159860D01*
X600750D01*
Y159980D01*
X559420D01*
Y182720D01*
X602600D01*
Y198030D01*
X606707D01*
X606796Y197971D01*
D02*
G37*
G36*
X476796Y197491D02*
X477635Y197324D01*
X485385D01*
X486486Y196255D01*
Y193616D01*
X492920D01*
Y187320D01*
X511420D01*
X511541Y187028D01*
X512948Y185621D01*
X514785Y184860D01*
X516775D01*
X518612Y185621D01*
X520019Y187028D01*
X520140Y187320D01*
X531020D01*
X533560Y184780D01*
Y159380D01*
X470750D01*
Y159500D01*
X429420D01*
Y182240D01*
X472600D01*
Y197550D01*
X476707D01*
X476796Y197491D01*
D02*
G37*
G36*
X183500Y169194D02*
X183476D01*
Y151646D01*
X183500D01*
Y147720D01*
X165849D01*
X164392Y149177D01*
X164051Y149999D01*
X162919Y151131D01*
X161440Y151744D01*
X159840D01*
X158361Y151131D01*
X157229Y149999D01*
X156616Y148520D01*
Y147720D01*
X153020D01*
Y173120D01*
X183500D01*
Y169194D01*
D02*
G37*
G36*
X260000Y174797D02*
X259608Y174210D01*
X259391Y173120D01*
Y168160D01*
X244830Y153599D01*
X241980D01*
X240890Y153382D01*
X239966Y152764D01*
X239348Y151840D01*
X239131Y150750D01*
X239348Y149660D01*
X239966Y148736D01*
X240890Y148118D01*
X241980Y147901D01*
X246010D01*
X246010Y147901D01*
X247100Y148118D01*
X248024Y148736D01*
X258827Y159538D01*
X260000Y159052D01*
Y130000D01*
X207500D01*
Y180000D01*
X260000D01*
Y174797D01*
D02*
G37*
G36*
X600000Y97500D02*
X550000D01*
Y150000D01*
X555203D01*
X555790Y149608D01*
X556880Y149391D01*
X561840D01*
X576401Y134830D01*
Y131980D01*
X576618Y130890D01*
X577236Y129966D01*
X578160Y129348D01*
X579250Y129131D01*
X580340Y129348D01*
X581264Y129966D01*
X581882Y130890D01*
X582099Y131980D01*
Y136010D01*
X582099Y136010D01*
X581882Y137100D01*
X581264Y138024D01*
X570462Y148827D01*
X570948Y150000D01*
X600000D01*
Y97500D01*
D02*
G37*
G36*
X470000D02*
X420000D01*
Y150000D01*
X424696D01*
X424866Y149746D01*
X425790Y149128D01*
X426880Y148911D01*
X431840D01*
X446401Y134350D01*
Y131980D01*
X446401Y131980D01*
Y131500D01*
X446618Y130410D01*
X447236Y129486D01*
X448160Y128868D01*
X449250Y128651D01*
X450340Y128868D01*
X451264Y129486D01*
X451882Y130410D01*
X452099Y131500D01*
Y135530D01*
X452099Y135530D01*
X452099Y135530D01*
Y136010D01*
X451882Y137100D01*
X451264Y138024D01*
X450340Y138642D01*
X450124Y138685D01*
X439982Y148827D01*
X440468Y150000D01*
X470000D01*
Y97500D01*
D02*
G37*
G36*
X236840Y58820D02*
X163180D01*
Y80098D01*
X164450Y80624D01*
X165670Y79403D01*
Y76600D01*
X165867Y75609D01*
X166429Y74769D01*
X167269Y74207D01*
X168260Y74010D01*
X169251Y74207D01*
X170091Y74769D01*
X170653Y75609D01*
X170850Y76600D01*
Y80476D01*
X170653Y81467D01*
X170091Y82307D01*
X166347Y86051D01*
X165507Y86613D01*
X164516Y86810D01*
X163180D01*
Y117240D01*
X236840D01*
Y58820D01*
D02*
G37*
G36*
X582280Y63052D02*
X576074Y56846D01*
X562248Y43020D01*
X556880D01*
Y73500D01*
X560806D01*
Y73476D01*
X578354D01*
Y73500D01*
X582280D01*
Y63052D01*
D02*
G37*
G36*
X452280Y55369D02*
X450824Y53912D01*
X450001Y53571D01*
X448869Y52439D01*
X448256Y50960D01*
Y49360D01*
X448869Y47881D01*
X450001Y46749D01*
X451480Y46136D01*
X452280D01*
Y42540D01*
X426880D01*
Y73020D01*
X430806D01*
Y72996D01*
X448354D01*
Y73020D01*
X452280D01*
Y55369D01*
D02*
G37*
G36*
X292720Y127400D02*
X308030D01*
Y123293D01*
X307971Y123203D01*
X307804Y122365D01*
Y114615D01*
X306735Y113514D01*
X304096D01*
Y107080D01*
X297800D01*
Y88580D01*
X297508Y88459D01*
X296101Y87052D01*
X295340Y85215D01*
Y83225D01*
X296101Y81388D01*
X297508Y79981D01*
X297800Y79860D01*
Y68980D01*
X295260Y66440D01*
X269860D01*
Y129250D01*
X269980D01*
Y170580D01*
X292720D01*
Y127400D01*
D02*
G37*
G36*
X739140Y63500D02*
X690000D01*
Y227730D01*
X695950Y233680D01*
X739140D01*
Y63500D01*
D02*
G37*
G36*
X671180Y53180D02*
X649903D01*
X649377Y54450D01*
X650597Y55670D01*
X653400D01*
X654391Y55867D01*
X655231Y56429D01*
X655793Y57269D01*
X655990Y58260D01*
X655793Y59251D01*
X655231Y60091D01*
X654391Y60653D01*
X653400Y60850D01*
X649524D01*
X648533Y60653D01*
X647693Y60091D01*
X643949Y56347D01*
X643387Y55507D01*
X643190Y54516D01*
Y53180D01*
X612760D01*
Y126840D01*
X671180D01*
Y53180D01*
D02*
G37*
G36*
X541180Y52700D02*
X519903D01*
X519376Y53970D01*
X520597Y55190D01*
X523400D01*
X524391Y55387D01*
X525231Y55949D01*
X525793Y56789D01*
X525990Y57780D01*
X525793Y58771D01*
X525231Y59611D01*
X524391Y60173D01*
X523400Y60370D01*
X519524D01*
X518533Y60173D01*
X517693Y59611D01*
X513949Y55867D01*
X513387Y55027D01*
X513190Y54036D01*
Y52700D01*
X482760D01*
Y126360D01*
X541180D01*
Y52700D01*
D02*
G37*
%LPC*%
G36*
X801400Y364851D02*
X799566Y364486D01*
X798012Y363448D01*
X796974Y361893D01*
X796609Y360060D01*
Y353060D01*
X796974Y351227D01*
X798012Y349672D01*
X799566Y348634D01*
X801400Y348269D01*
X803233Y348634D01*
X804788Y349672D01*
X805826Y351227D01*
X806191Y353060D01*
Y360060D01*
X805826Y361893D01*
X804788Y363448D01*
X803233Y364486D01*
X801400Y364851D01*
D02*
G37*
G36*
X730701Y178980D02*
X728699D01*
X726767Y178462D01*
X725033Y177461D01*
X723618Y176047D01*
X722618Y174314D01*
X722100Y172381D01*
Y170379D01*
X722618Y168447D01*
X723618Y166714D01*
X725033Y165299D01*
X726767Y164298D01*
X728699Y163780D01*
X730701D01*
X732634Y164298D01*
X734367Y165299D01*
X735781Y166714D01*
X736782Y168447D01*
X737300Y170379D01*
Y172381D01*
X736782Y174314D01*
X735781Y176047D01*
X734367Y177461D01*
X732634Y178462D01*
X730701Y178980D01*
D02*
G37*
%LPD*%
D14*
X645370Y17570D02*
X658660D01*
X658870Y17360D01*
X645160Y17780D02*
X645370Y17570D01*
X758952Y617380D02*
Y617888D01*
X752311Y624529D02*
X758952Y617888D01*
X752311Y624529D02*
Y626909D01*
X751840Y627380D02*
X752311Y626909D01*
X711595Y654530D02*
X714529Y651596D01*
X705570Y654530D02*
X711595D01*
X714529Y650471D02*
X715000Y650000D01*
X714529Y650471D02*
Y651596D01*
X700000Y583604D02*
X701831Y585435D01*
X663186Y622546D02*
X663517D01*
X665810Y624840D02*
X673220D01*
X663517Y622546D02*
X665810Y624840D01*
X701831Y590713D02*
X702302Y591184D01*
X701831Y585435D02*
Y590713D01*
X700000Y576500D02*
Y583604D01*
X668029Y642620D02*
X703580D01*
X655000Y669818D02*
X656230Y668588D01*
X652094Y647060D02*
Y658326D01*
X656230Y648671D02*
X666345Y638556D01*
X655000Y669818D02*
Y670484D01*
X666345Y638556D02*
X675504D01*
X660294Y650355D02*
X668029Y642620D01*
X688220Y624840D02*
Y625840D01*
X652094Y647060D02*
X655000Y644154D01*
X646030Y662390D02*
X648030D01*
X652094Y658326D01*
X655000Y620000D02*
Y644154D01*
X675504Y638556D02*
X688220Y625840D01*
X656230Y648671D02*
Y668588D01*
X645300Y663120D02*
X646030Y662390D01*
X660294Y650355D02*
Y674706D01*
X703580Y642620D02*
X718820Y627380D01*
X702500Y624000D02*
Y625000D01*
X708529Y617971D02*
X709876D01*
X702500Y624000D02*
X708529Y617971D01*
X709876D02*
X710347Y617500D01*
X654350Y670484D02*
X655000D01*
X653214Y671620D02*
X654350Y670484D01*
X458410Y547310D02*
Y560521D01*
X457957Y560974D02*
X458410Y560521D01*
X480000Y745000D02*
X483120Y748120D01*
X505300D01*
X449580Y554990D02*
Y561340D01*
Y554990D02*
X450850Y553720D01*
Y539750D02*
X458410Y547310D01*
X262240Y556980D02*
Y563120D01*
X160640Y407720D02*
X160919Y407441D01*
X162099D02*
X174000Y395540D01*
X160919Y407441D02*
X162099D01*
X300317Y344220D02*
X302460D01*
X305620Y347380D01*
X300287Y344250D02*
X300317Y344220D01*
X645300Y671620D02*
X653214D01*
X645300Y680120D02*
X654880D01*
X660294Y674706D01*
X751987Y711347D02*
Y718673D01*
X751840Y718820D02*
X751987Y718673D01*
Y711347D02*
X752134Y711200D01*
X797000Y740000D02*
X805000D01*
X715000Y577259D02*
Y587006D01*
X713836Y588170D02*
Y588836D01*
Y588170D02*
X715000Y587006D01*
X690000Y414652D02*
Y425000D01*
Y414652D02*
X690000Y414652D01*
X665000Y610000D02*
X673000D01*
X655000Y620000D02*
X665000Y610000D01*
X79940Y649940D02*
X80000Y650000D01*
X69340Y649880D02*
X69400Y649940D01*
X79940D01*
X69400Y604940D02*
X79940D01*
X69340Y604880D02*
X69400Y604940D01*
X79940D02*
X80000Y605000D01*
X69340Y649880D02*
X71340D01*
X409250Y787590D02*
Y793855D01*
X410000Y794605D01*
Y795000D01*
X406520Y784860D02*
X409250Y787590D01*
X594710Y584200D02*
X604520D01*
X594360Y583850D02*
X594710Y584200D01*
X777240Y718820D02*
X777519Y718541D01*
Y718121D02*
Y718541D01*
X785460Y710180D02*
X788160D01*
X777519Y718121D02*
X785460Y710180D01*
X774700Y640080D02*
X774979Y640359D01*
X779639D01*
X785460Y646180D01*
X751987Y657713D02*
X752134Y657860D01*
X751987Y650387D02*
Y657713D01*
X751840Y650240D02*
X751987Y650387D01*
X785460Y646180D02*
X788160D01*
X737800Y688340D02*
X746760D01*
X645300Y645020D02*
Y652620D01*
Y645020D02*
X647700Y642620D01*
X713345Y713740D02*
X713740D01*
X705570Y714530D02*
X712555D01*
X713345Y713740D01*
Y728980D02*
X713740D01*
X705570Y729460D02*
X712865D01*
X713345Y728980D01*
X739140Y739140D02*
Y739535D01*
X740060Y740455D02*
Y748030D01*
X739140Y739535D02*
X740060Y740455D01*
X739020Y767080D02*
X739140Y767200D01*
Y777240D01*
X488160Y739620D02*
X505300D01*
X487680Y739140D02*
X488160Y739620D01*
X465970Y553720D02*
X477640D01*
X478910Y554990D01*
X465970Y539750D02*
X478910D01*
X493910Y554990D02*
Y555990D01*
X511960Y574040D01*
X533400D01*
X493910Y539750D02*
Y554990D01*
X645450Y756770D02*
X655170D01*
X655320Y756920D01*
X645300Y756620D02*
X645450Y756770D01*
X654345Y765120D02*
X654925Y764540D01*
X645300Y765120D02*
X654345D01*
X654925Y764540D02*
X655320D01*
X653860Y773620D02*
X655320Y772160D01*
X645300Y773620D02*
X653860D01*
X422802Y759038D02*
X434486Y747354D01*
X419151Y759038D02*
X422802D01*
X685503Y555500D02*
X695500D01*
X702741Y562741D01*
X682270Y575785D02*
Y590000D01*
X683555Y574500D02*
X685503D01*
X682270Y575785D02*
X683555Y574500D01*
X715000Y562741D02*
X715759Y563500D01*
X702741Y562741D02*
X715000D01*
X715759Y563500D02*
X730000D01*
X422500Y770000D02*
Y785000D01*
Y770000D02*
X435000D01*
X416363Y761826D02*
X419151Y759038D01*
X416363Y761826D02*
Y761826D01*
X406520Y783860D02*
Y784860D01*
X414020Y764540D02*
Y776360D01*
X414726Y763463D02*
X416363Y761826D01*
X414726Y763463D02*
Y763834D01*
X414020Y764540D02*
X414726Y763834D01*
X406520Y783860D02*
X414020Y776360D01*
X457402Y747354D02*
X473637Y731120D01*
X434486Y747354D02*
X457402D01*
X473637Y731120D02*
X505300D01*
X645000Y580000D02*
X655000Y590000D01*
X667730D01*
X645000Y566955D02*
X646955Y565000D01*
X645000Y566955D02*
Y580000D01*
X579250Y131980D02*
Y136010D01*
X449250Y131980D02*
Y136010D01*
X241980Y150750D02*
X246010D01*
X241980Y280750D02*
X246010D01*
X241980Y410750D02*
X246010D01*
X241980Y670750D02*
X246010D01*
X262240Y686980D01*
Y693120D01*
X300340Y604220D02*
X302460D01*
X305620Y607380D01*
Y610590D01*
X160686Y665480D02*
X161396Y664770D01*
X160020Y665480D02*
X160686D01*
X164770Y664770D02*
X174000Y655540D01*
X161396Y664770D02*
X164770D01*
X241980Y540750D02*
X246010D01*
X262240Y556980D01*
X300340Y474220D02*
X302460D01*
X305620Y477380D01*
Y480590D01*
X160919Y537441D02*
X162099D01*
X160640Y537720D02*
X160919Y537441D01*
X162099D02*
X174000Y525540D01*
X241980Y410750D02*
X246010D01*
X262240Y426980D01*
Y433120D01*
X305620Y347380D02*
Y350590D01*
X246010Y280750D02*
X262240Y296980D01*
Y303120D01*
X300340Y214220D02*
X302460D01*
X305620Y217380D01*
Y220590D01*
X162099Y277441D02*
X174000Y265540D01*
X160640Y277720D02*
X160919Y277441D01*
X162099D01*
X246010Y150750D02*
X262240Y166980D01*
X241980Y150750D02*
X246010D01*
X262240Y166980D02*
Y173120D01*
X302460Y84220D02*
X305620Y87380D01*
X300340Y84220D02*
X302460D01*
X305620Y87380D02*
Y90590D01*
X162099Y147441D02*
X174000Y135540D01*
X160640Y147720D02*
X160919Y147441D01*
X162099D01*
X433020Y151760D02*
X449250Y135530D01*
Y131500D02*
Y135530D01*
X426880Y151760D02*
X433020D01*
X509410Y195140D02*
X512620D01*
X515780Y191980D01*
Y189860D02*
Y191980D01*
X452280Y50160D02*
X452559Y50439D01*
Y51619D01*
X464460Y63520D01*
X579250Y131980D02*
Y136010D01*
X563020Y152240D02*
X579250Y136010D01*
X556880Y152240D02*
X563020D01*
X645780Y190340D02*
Y192460D01*
X639410Y195620D02*
X642620D01*
X645780Y192460D01*
X160640Y797720D02*
X160919Y797441D01*
X162099D02*
X174000Y785540D01*
X160919Y797441D02*
X162099D01*
X262240Y816980D02*
Y823120D01*
X246010Y800750D02*
X262240Y816980D01*
X241980Y800750D02*
X246010D01*
X305620Y737380D02*
Y740590D01*
X302460Y734220D02*
X305620Y737380D01*
X300340Y734220D02*
X302460D01*
X688340Y30480D02*
Y43176D01*
X694688D01*
X696804Y41060D01*
Y36828D01*
X694688Y34712D01*
X688340D01*
X692572D02*
X696804Y30480D01*
X709500Y43176D02*
X701036D01*
Y30480D01*
X709500D01*
X701036Y36828D02*
X705268D01*
X713732Y43176D02*
Y34712D01*
X717964Y30480D01*
X722196Y34712D01*
Y43176D01*
X739124Y30480D02*
Y38944D01*
X743355Y43176D01*
X747588Y38944D01*
Y30480D01*
Y36828D01*
X739124D01*
D15*
X685800Y211329D02*
Y228600D01*
X682244Y212802D02*
Y235204D01*
X678180Y208738D02*
X682244Y212802D01*
Y235204D02*
X693420Y246380D01*
X685800Y228600D02*
X717130Y259930D01*
Y287870D01*
X683260Y208789D02*
X685800Y211329D01*
X677170Y39167D02*
X683260Y45257D01*
Y208789D01*
X678180Y45206D02*
Y208738D01*
X670560Y37586D02*
X678180Y45206D01*
X670560Y24378D02*
Y37586D01*
X677170Y28360D02*
Y39167D01*
X673315Y21623D02*
X681957D01*
X592300Y631980D02*
Y652620D01*
Y631980D02*
X599440Y624840D01*
X677220Y315908D02*
X693420Y299708D01*
X657860Y369292D02*
X674544Y352608D01*
X693420Y246380D02*
Y299708D01*
X674544Y335373D02*
Y352608D01*
Y335373D02*
X677220Y332697D01*
X637880Y350520D02*
X669504D01*
X677220Y315908D02*
Y332697D01*
X657860Y369292D02*
Y391160D01*
X675314Y233303D02*
X688340Y246329D01*
Y280670D01*
X681957Y21623D02*
X685800Y17780D01*
X670560Y24378D02*
X673315Y21623D01*
X685380Y17360D02*
X685800Y17780D01*
X677170Y17360D02*
X685380D01*
X672830Y227980D02*
X675314Y230464D01*
Y233303D01*
X670560Y320160D02*
Y342900D01*
Y320160D02*
X670680Y320040D01*
X636700Y342900D02*
X670560D01*
X628400Y334600D02*
X636700Y342900D01*
X628400Y360000D02*
X637880Y350520D01*
X698674Y660949D02*
Y663674D01*
X698146Y660421D02*
X698674Y660949D01*
Y663674D02*
X728880Y693880D01*
X732180Y625000D02*
X735482Y621698D01*
X739800Y617380D02*
Y617888D01*
X735990Y621698D02*
X739800Y617888D01*
X735482Y621698D02*
X735990D01*
X725000Y625000D02*
X732180D01*
X747776Y640080D02*
X749300Y638556D01*
X723900Y640080D02*
X747776D01*
X635423Y714120D02*
X645300D01*
X633263Y716280D02*
X635423Y714120D01*
X632460Y716280D02*
X633263D01*
X619436Y669000D02*
X625000D01*
X618436Y670000D02*
X619436Y669000D01*
X599180Y670000D02*
X618436D01*
X378460Y810260D02*
X396240D01*
X350520Y838200D02*
X378460Y810260D01*
X134620Y838200D02*
X350520D01*
X93980Y797560D02*
X134620Y838200D01*
X61800Y683104D02*
X93980Y715284D01*
Y797560D01*
X61800Y600828D02*
Y683104D01*
Y600828D02*
X64250Y598378D01*
X66890D02*
X69340Y595928D01*
Y589880D02*
Y595928D01*
X64250Y598378D02*
X66890D01*
X80000Y620000D02*
X88900Y611100D01*
Y567840D02*
Y611100D01*
X87900Y554840D02*
X88900D01*
X69340Y573400D02*
Y589880D01*
Y573400D02*
X87900Y554840D01*
X299720Y585710D02*
Y593939D01*
Y585710D02*
X304070Y581360D01*
X321157Y730454D02*
X324150Y727461D01*
X315620Y734073D02*
X317601Y732093D01*
X321157Y730454D02*
Y733566D01*
X320620Y734102D02*
X321157Y733566D01*
X317601Y723799D02*
Y732093D01*
X325854Y733646D02*
Y740356D01*
Y733646D02*
X326197Y733304D01*
X601980Y685800D02*
X613300Y697120D01*
X645300D01*
X568960Y685800D02*
X601980D01*
X551180Y668020D02*
X568960Y685800D01*
X543560Y668020D02*
X551180D01*
X575300Y652620D02*
Y664700D01*
X586124Y675524D02*
X625000D01*
X575300Y664700D02*
X586124Y675524D01*
X566420Y690880D02*
X596451D01*
X611191Y705620D01*
X548640Y673100D02*
X566420Y690880D01*
X414020Y563880D02*
X421020Y570880D01*
X611191Y705620D02*
X645300D01*
X622300Y594360D02*
Y602600D01*
X441119Y560499D02*
X447000Y566380D01*
X488910D02*
X500040Y577510D01*
X437563Y561972D02*
X445527Y569936D01*
X450556D01*
X447000Y566380D02*
X488910D01*
X450556Y569936D02*
X464820Y584200D01*
X441119Y555470D02*
Y560499D01*
X437563Y556943D02*
Y561972D01*
X400376Y593416D02*
X404536D01*
X396240Y589280D02*
X400376Y593416D01*
X407020Y595900D02*
Y596900D01*
X404536Y593416D02*
X407020Y595900D01*
X398780Y576580D02*
X399348Y577148D01*
X407020Y583200D02*
Y584200D01*
X400968Y577148D02*
X407020Y583200D01*
X399348Y577148D02*
X400968D01*
X304070Y581360D02*
X310150D01*
X310500Y581710D01*
X168260Y76600D02*
Y80476D01*
X164516Y84220D02*
X168260Y80476D01*
X160640Y84220D02*
X164516D01*
X646354Y215854D02*
X646696Y216197D01*
X639410Y220620D02*
X639644Y220854D01*
Y215854D02*
X646354D01*
X645898Y210620D02*
X646434Y211157D01*
X650895Y207601D02*
X651852Y208558D01*
X644609Y221237D02*
X655893D01*
X651625Y213360D02*
X661452D01*
X644226Y220854D02*
X644609Y221237D01*
X649422Y211157D02*
X651625Y213360D01*
X645927Y205620D02*
X647907Y207601D01*
X639410Y215620D02*
X639644Y215854D01*
X646434Y211157D02*
X649422D01*
X651852Y208558D02*
X661679D01*
X639644Y220854D02*
X644226D01*
X655893Y221237D02*
X655940Y221190D01*
X647907Y207601D02*
X650895D01*
X515927Y205140D02*
X517907Y207121D01*
X530722D01*
X509644Y215374D02*
X516354D01*
X509410Y215140D02*
X509644Y215374D01*
X516354D02*
X516696Y215717D01*
X514226Y220374D02*
X514609Y220757D01*
X509644Y220374D02*
X514226D01*
X509410Y220140D02*
X509644Y220374D01*
X514609Y220757D02*
X525893D01*
X516434Y210677D02*
X519475D01*
X515898Y210140D02*
X516434Y210677D01*
X519475D02*
X521812Y213014D01*
X525893Y220757D02*
X525940Y220710D01*
X521812Y213014D02*
X531586D01*
X509410Y210140D02*
X515898D01*
X531586Y213014D02*
X535196Y216624D01*
X331190Y204060D02*
X331237Y204107D01*
X330620Y217340D02*
X331237Y216723D01*
X325854Y213646D02*
X326197Y213304D01*
X330620Y217340D02*
Y220590D01*
X325854Y213646D02*
Y220356D01*
X325620Y220590D02*
X325854Y220356D01*
X331237Y204107D02*
Y216723D01*
X330620Y347340D02*
Y350590D01*
X331190Y334060D02*
X331237Y334107D01*
X325854Y343646D02*
X326197Y343304D01*
X325620Y350590D02*
X325854Y350356D01*
Y343646D02*
Y350356D01*
X330620Y347340D02*
X331237Y346723D01*
Y334107D02*
Y346723D01*
X330620Y477340D02*
X331237Y476723D01*
Y464107D02*
Y476723D01*
X325620Y480590D02*
X325854Y480356D01*
X331190Y464060D02*
X331237Y464107D01*
X325854Y473646D02*
Y480356D01*
Y473646D02*
X326197Y473304D01*
X330620Y477340D02*
Y480590D01*
Y607340D02*
X331237Y606723D01*
X331190Y594060D02*
X331237Y594107D01*
Y606723D01*
X325854Y603646D02*
X326197Y603304D01*
X325854Y603646D02*
Y610356D01*
X330620Y607340D02*
Y610590D01*
X325620D02*
X325854Y610356D01*
X320620Y734102D02*
Y740590D01*
X317601Y723799D02*
X320040Y721360D01*
Y712820D02*
Y721360D01*
X325620Y740590D02*
X325854Y740356D01*
X330620Y737340D02*
Y740590D01*
Y737340D02*
X331237Y736723D01*
Y724107D02*
Y736723D01*
X331190Y724060D02*
X331237Y724107D01*
X330620Y90590D02*
X330854Y90356D01*
X325620Y84288D02*
X326576Y83332D01*
X331190Y74060D02*
X331616Y74486D01*
X325620Y84288D02*
Y90590D01*
X330854Y87106D02*
X331616Y86344D01*
X330854Y87106D02*
Y90356D01*
X331616Y74486D02*
Y86344D01*
X321538Y79833D02*
Y83184D01*
X320620Y84102D02*
X321538Y83184D01*
X317982Y78360D02*
X319555Y76787D01*
X317982Y78360D02*
Y81712D01*
X323494Y68414D02*
Y77877D01*
X321538Y79833D02*
X323494Y77877D01*
X315854Y83839D02*
X317982Y81712D01*
X319555Y65605D02*
Y76787D01*
X421020Y570880D02*
Y584200D01*
X345690Y464060D02*
X353680D01*
X302880Y191360D02*
X310150D01*
X310500Y191710D01*
X315620Y214073D02*
X317601Y212093D01*
X321157Y200751D02*
X325638Y196270D01*
X320620Y214102D02*
X321157Y213566D01*
Y200751D02*
Y213566D01*
X320620Y214102D02*
Y220590D01*
X317601Y195829D02*
Y212093D01*
X354204Y397560D02*
X360680D01*
X321157Y340443D02*
Y343566D01*
X315620Y344073D02*
X317601Y342093D01*
X321157Y340443D02*
X324150Y337449D01*
X317601Y338970D02*
X320594Y335977D01*
X317601Y338970D02*
Y342093D01*
X324150Y327758D02*
Y337449D01*
X320594Y326285D02*
Y335977D01*
X320854Y343868D02*
X321157Y343566D01*
X320854Y343868D02*
Y350356D01*
X321157Y470080D02*
X324150Y467087D01*
X320854Y473868D02*
Y480356D01*
Y473868D02*
X321157Y473566D01*
X320594Y454456D02*
Y465614D01*
X321157Y470080D02*
Y473566D01*
X324150Y457758D02*
Y467087D01*
X315620Y474073D02*
X317601Y472093D01*
Y468607D02*
X320594Y465614D01*
X317601Y468607D02*
Y472093D01*
X321157Y600710D02*
Y603566D01*
Y600710D02*
X323494Y598373D01*
X315620Y604073D02*
X317601Y602093D01*
Y589278D02*
Y602093D01*
X323494Y588414D02*
Y598373D01*
Y588414D02*
X327018Y584890D01*
X320620Y604102D02*
X321157Y603566D01*
X320620Y604102D02*
Y610590D01*
X419100Y606527D02*
X421020Y604608D01*
X419100Y606527D02*
Y607060D01*
X421020Y596900D02*
Y604608D01*
X500040Y577510D02*
Y593640D01*
X502920Y596520D01*
X494197Y590000D02*
X495000D01*
X494200D02*
X495000D01*
X449460Y595900D02*
X455703Y589657D01*
X456823D02*
X457200Y589280D01*
X455703Y589657D02*
X456823D01*
X324150Y717758D02*
Y727461D01*
X320040Y712820D02*
X322930Y709930D01*
X324150Y717758D02*
X326208Y715700D01*
X421020Y584200D02*
X434460D01*
X421020Y596900D02*
X434460D01*
X449460Y584200D02*
Y595900D01*
Y596900D01*
X386444Y505824D02*
X437563Y556943D01*
X390484Y436866D02*
Y504835D01*
X441119Y555470D01*
X386444Y458765D02*
Y505824D01*
X464820Y584200D02*
X473060D01*
X372220Y472528D02*
Y565769D01*
X380832Y596053D02*
X426720Y641941D01*
X373720Y572298D02*
Y598999D01*
X384388Y567879D02*
Y594580D01*
X377276Y570825D02*
Y597526D01*
X375776Y564296D02*
X380832Y569352D01*
X387944Y566406D02*
Y593107D01*
X382888Y561350D02*
X387944Y566406D01*
X424808Y635000D02*
X431800D01*
X372232Y570810D02*
X373720Y572298D01*
X377276Y597526D02*
X421640Y641890D01*
X414020Y639299D02*
Y674370D01*
X421640Y641890D02*
Y670560D01*
X372220Y565769D02*
X377276Y570825D01*
X410136Y615300D02*
X447040D01*
X384388Y594580D02*
X424808Y635000D01*
X379332Y562823D02*
X384388Y567879D01*
X387944Y593107D02*
X410136Y615300D01*
X382888Y457292D02*
Y561350D01*
X379332Y455819D02*
Y562823D01*
X380832Y569352D02*
Y596053D01*
X426720Y641941D02*
Y648970D01*
X345780Y570810D02*
X372232D01*
X373720Y598999D02*
X414020Y639299D01*
X375776Y454346D02*
Y564296D01*
X431800Y635000D02*
X438800Y642000D01*
X426720Y648970D02*
X428610Y650860D01*
X421640Y670560D02*
X428640Y677560D01*
X447040Y615300D02*
X483220D01*
X71340Y634880D02*
X75892Y639432D01*
X79432D02*
X80000Y640000D01*
X69340Y634880D02*
X71340D01*
X75892Y639432D02*
X79432D01*
X542290Y284480D02*
X547607Y289797D01*
Y289815D01*
X690000Y380000D02*
Y395500D01*
X750548Y339452D02*
X755548D01*
X750000Y340000D02*
X750548Y339452D01*
X755548D02*
X759540Y335460D01*
X746306Y333694D02*
X748335D01*
X740000Y340000D02*
X746306Y333694D01*
X488300Y595900D02*
X494200Y590000D01*
X491881Y587684D02*
X494197Y590000D01*
X489544Y587684D02*
X491881D01*
X487060Y585200D02*
X489544Y587684D01*
X487060Y584200D02*
Y585200D01*
X488300Y595900D02*
Y596900D01*
X651662Y735258D02*
X659742D01*
X662530Y732470D01*
X660000Y725000D02*
Y725144D01*
X662530Y727674D02*
Y732470D01*
X660000Y725144D02*
X662530Y727674D01*
X647300Y739620D02*
X651662Y735258D01*
X645300Y739620D02*
X647300D01*
X668570Y714530D02*
X670424Y716384D01*
X675744D01*
X653880Y731120D02*
X655000Y730000D01*
X645300Y731120D02*
X653880D01*
X690000Y740000D02*
X719967D01*
X725867Y734100D01*
X755834D01*
X761734Y740000D01*
X783000D01*
X592440Y236680D02*
X592440Y236680D01*
X579740Y236680D02*
X592440D01*
X462440Y236200D02*
X462440Y236200D01*
X449740Y236200D02*
X462440D01*
X346680Y137560D02*
Y150260D01*
Y137560D02*
X346680Y137560D01*
Y787560D02*
X346680Y787560D01*
X346680Y787560D02*
Y800260D01*
Y657560D02*
X346680Y657560D01*
X346680Y657560D02*
Y670260D01*
X346680Y527560D02*
Y540260D01*
X346680Y540260D02*
X346680Y540260D01*
X346680Y397560D02*
Y410260D01*
Y397560D02*
X346680Y397560D01*
Y267560D02*
Y280260D01*
X346680Y280260D02*
X346680Y280260D01*
X730840Y693880D02*
X734800Y697840D01*
X737800D01*
X728880Y693880D02*
X730840D01*
X690000Y395500D02*
X690000Y395500D01*
X717500Y610000D02*
X725000D01*
X754183Y323125D02*
Y327846D01*
X748335Y333694D02*
X754183Y327846D01*
Y323125D02*
X754540Y322769D01*
X759500Y281791D02*
Y297140D01*
X759460Y297180D02*
X759500Y297140D01*
X694750Y610000D02*
X702500D01*
X687000D02*
X694750D01*
X717500Y625000D02*
X725000D01*
X79940Y619940D02*
X80000Y620000D01*
X69340Y619880D02*
X69400Y619940D01*
X337860Y807300D02*
X354640D01*
X360680Y801260D01*
X513080Y595630D02*
Y606440D01*
X513700Y607060D01*
X583636Y596869D02*
Y617276D01*
X582930Y595630D02*
Y596162D01*
X583636Y596869D01*
X399620Y769620D02*
X406520D01*
X395000Y765000D02*
X399620Y769620D01*
X417467Y754974D02*
X421119D01*
X432803Y743290D01*
X455719D01*
X604520Y594360D02*
Y602600D01*
X759540Y322769D02*
Y335460D01*
X736350Y280000D02*
X736600Y279750D01*
X788160Y685680D02*
X788644Y685196D01*
X796400Y678128D02*
Y683232D01*
X794436Y676164D02*
X796400Y678128D01*
X788644Y676164D02*
X794436D01*
X788160Y675680D02*
X788644Y676164D01*
Y685196D02*
X794436D01*
X796400Y683232D01*
X771542Y676990D02*
X775232Y680680D01*
X767852Y673300D02*
X771542Y676990D01*
X777852Y670680D02*
X788160D01*
X771542Y676990D02*
X777852Y670680D01*
X583800Y654620D02*
X599180Y670000D01*
X583800Y652620D02*
Y654620D01*
X725000Y675000D02*
X728840Y678840D01*
X737800D01*
X795864Y656164D02*
X800100Y660400D01*
X797489Y700196D02*
X798554Y699131D01*
X790144Y700196D02*
X797489D01*
X779900Y685680D02*
X788160D01*
X748208Y697840D02*
X753748Y703380D01*
X782900Y694720D02*
X787400D01*
X760800Y688340D02*
X769620D01*
X775232Y680680D02*
X788160D01*
X736600Y675640D02*
X738940Y673300D01*
X761706Y711200D02*
X764052Y708854D01*
X769620Y688340D02*
X772160Y685800D01*
X764052Y708854D02*
X768766D01*
X738940Y673300D02*
X767852D01*
X774700Y690880D02*
Y696532D01*
Y690880D02*
X779900Y685680D01*
X788160Y702180D02*
X790144Y700196D01*
X753748Y703380D02*
X767852D01*
X768766Y708854D02*
X782900Y694720D01*
X767852Y703380D02*
X774700Y696532D01*
X788160Y654180D02*
X790144Y656164D01*
X795864D01*
X737800Y697840D02*
X748208D01*
X778023Y665680D02*
X788160D01*
X770203Y657860D02*
X778023Y665680D01*
X761706Y657860D02*
X770203D01*
X668570Y730960D02*
Y787960D01*
X685640Y748030D02*
X725520D01*
X668570Y730960D02*
X685640Y748030D01*
X668570Y729460D02*
Y730960D01*
X724020Y749530D02*
Y767080D01*
Y749530D02*
X725520Y748030D01*
X668570Y654530D02*
Y714530D01*
X517860Y756620D02*
X518160Y756920D01*
X505300Y756620D02*
X517860D01*
X459740Y628000D02*
X460360Y627380D01*
X469900D01*
X458440Y629300D02*
X459740Y628000D01*
X411480Y733440D02*
X434340D01*
X426380Y739480D02*
X440091D01*
X414020Y748680D02*
X416504Y746196D01*
X419664D01*
X407700Y748680D02*
X414020D01*
X419664Y746196D02*
X426380Y739480D01*
X407360Y637668D02*
Y676600D01*
X414020Y674370D02*
X428610Y688960D01*
X407360Y676600D02*
X447760Y717000D01*
X428610Y688960D02*
X447040D01*
X428640Y677560D02*
X447040D01*
X447760Y717000D02*
X460000D01*
X398902Y719440D02*
X434340D01*
X583636Y617276D02*
X586120Y619760D01*
X605170Y615950D02*
X612140D01*
X645300Y782120D02*
X662730D01*
X668570Y787960D01*
Y789460D01*
X438800Y642000D02*
X459740D01*
X428610Y650860D02*
X459740D01*
X556260Y590550D02*
Y606440D01*
X406520Y769620D02*
X409250Y766890D01*
Y763191D02*
X417467Y754974D01*
X409250Y763191D02*
Y766890D01*
X452975Y726596D02*
X467025D01*
X626300Y619600D02*
Y652620D01*
X622300Y616600D02*
X623300D01*
X623920Y617220D01*
X626300Y619600D01*
X617800Y628880D02*
Y652620D01*
X583636Y622244D02*
X586120Y619760D01*
X572120Y608300D02*
Y619760D01*
X570880Y607060D02*
X572120Y608300D01*
X571500Y620380D02*
Y629920D01*
Y620380D02*
X572120Y619760D01*
X583636Y622244D02*
Y628022D01*
X566800Y644858D02*
X583636Y628022D01*
X566800Y644858D02*
Y652620D01*
X516184Y610544D02*
X517905D01*
X526400Y594360D02*
X527700Y595660D01*
X513700Y607060D02*
Y608060D01*
X527700Y595660D02*
Y607060D01*
Y608060D01*
X533023Y613383D01*
X513700Y608060D02*
X516184Y610544D01*
X502920Y596520D02*
Y609600D01*
X556880Y607060D02*
X558300Y608480D01*
X556260Y606440D02*
X556880Y607060D01*
X539750Y594710D02*
X549800Y604760D01*
X539750Y581660D02*
Y594710D01*
X558300Y608480D02*
Y652620D01*
X549800Y604760D02*
Y652620D01*
X541300Y633940D02*
Y652620D01*
X532800Y639480D02*
Y652620D01*
X524300Y644492D02*
Y652620D01*
X623920Y617220D02*
X629920D01*
X605520Y616600D02*
X617800Y628880D01*
X604520Y616600D02*
X605520D01*
X475544Y586684D02*
Y595736D01*
X473060Y584200D02*
X475544Y586684D01*
X478140Y650860D02*
X498900Y671620D01*
X482180Y642000D02*
X503300Y663120D01*
X505300D01*
X498900Y671620D02*
X505300D01*
X503300Y680120D02*
X505300D01*
X500740Y677560D02*
X503300Y680120D01*
X483220Y615300D02*
X515620Y647700D01*
X533023Y614303D02*
X533400Y614680D01*
X533023Y613383D02*
Y614303D01*
X517905Y610544D02*
X541300Y633940D01*
X502920Y609600D02*
X532800Y639480D01*
X475544Y595736D02*
X524300Y644492D01*
X497840Y645160D02*
X505300Y652620D01*
X515620Y647700D02*
Y652440D01*
X515800Y652620D01*
X447040Y629300D02*
X458440D01*
X459740Y642000D02*
X482180D01*
X459740Y650860D02*
X478140D01*
X447040Y663560D02*
X458440D01*
X459740Y664860D01*
X460360Y665480D01*
X467360D01*
X447040Y677560D02*
X500740D01*
X447380Y688620D02*
X505300D01*
X447040Y688960D02*
X447380Y688620D01*
X480880Y697120D02*
X505300D01*
X491438Y705620D02*
X505300D01*
X459740Y695960D02*
Y702740D01*
X487967Y714120D02*
X505300D01*
X447040Y702960D02*
X447080Y703000D01*
X459740Y702740D02*
X460000Y703000D01*
X461000Y717000D02*
X480880Y697120D01*
X460000Y717000D02*
X461000D01*
X447080Y703000D02*
X460000D01*
X474811Y718810D02*
X483277D01*
X465552Y723040D02*
X473338Y715254D01*
X483277Y718810D02*
X487967Y714120D01*
X453332Y721924D02*
X454448Y723040D01*
X481804Y715254D02*
X491438Y705620D01*
X467025Y726596D02*
X474811Y718810D01*
X473338Y715254D02*
X481804D01*
X476389Y722620D02*
X505300D01*
X454448Y723040D02*
X465552D01*
X436824Y721924D02*
X453332D01*
X440091Y739480D02*
X452975Y726596D01*
X455719Y743290D02*
X476389Y722620D01*
X434340Y719440D02*
X436824Y721924D01*
X434340Y733440D02*
X436260Y731520D01*
X436840D01*
X812800Y236800D02*
Y276860D01*
X792480Y297180D02*
X812800Y276860D01*
X769620Y297180D02*
X792480D01*
X745877Y294290D02*
X748767Y297180D01*
X749300D01*
X736600Y294290D02*
X745877D01*
X736600Y279750D02*
X738601Y281751D01*
X759500Y281791D02*
X759540Y281751D01*
X800980Y224980D02*
Y246380D01*
Y224980D02*
X812800Y236800D01*
X800750Y224750D02*
X800980Y224980D01*
X800750Y210000D02*
Y224750D01*
X764540Y292100D02*
X769620Y297180D01*
X764540Y281751D02*
Y292100D01*
X774540Y276736D02*
X776890Y274386D01*
Y261620D02*
Y274386D01*
X774540Y276736D02*
Y281751D01*
X769331Y281542D02*
X769540Y281751D01*
X769331Y275347D02*
Y281542D01*
X766165Y272182D02*
X769331Y275347D01*
X765303Y272182D02*
X766165D01*
X762350Y269229D02*
X765303Y272182D01*
X762350Y261620D02*
Y269229D01*
X755260Y254760D02*
X762120Y261620D01*
X755260Y246380D02*
Y254760D01*
X762120Y261620D02*
X762350D01*
X783980Y246380D02*
Y254760D01*
X777120Y261620D02*
X783980Y254760D01*
X776890Y261620D02*
X777120D01*
X738260Y246380D02*
X739250Y245390D01*
Y210000D02*
Y245390D01*
X390000Y436382D02*
X390484Y436866D01*
X379816Y441285D02*
Y455335D01*
X386444Y437855D02*
X386928Y438339D01*
X379332Y349640D02*
Y440801D01*
X383372Y439812D02*
Y456808D01*
X382888Y439328D02*
X383372Y439812D01*
X379332Y440801D02*
X379816Y441285D01*
X382888Y319846D02*
Y439328D01*
X390000Y199958D02*
Y436382D01*
X367680Y207988D02*
X386444Y226752D01*
Y437855D01*
X370220Y340528D02*
X379332Y349640D01*
Y455819D02*
X379816Y455335D01*
X386444Y458765D02*
X386928Y458281D01*
X382888Y457292D02*
X383372Y456808D01*
X375776Y454346D02*
X376260Y453862D01*
X386928Y438339D02*
Y458281D01*
X374772Y311730D02*
X382888Y319846D01*
X372232Y182190D02*
X390000Y199958D01*
X376260Y442758D02*
Y453862D01*
X370220Y470528D02*
X372220Y472528D01*
X370382Y436880D02*
X376260Y442758D01*
X668346Y264754D02*
X670830Y262270D01*
X648970Y285130D02*
X668346Y265754D01*
X670830Y262270D02*
X671830D01*
X668346Y264754D02*
Y265754D01*
X648970Y285130D02*
Y300990D01*
X666750Y302260D02*
X688340Y280670D01*
X671830Y227980D02*
X672830D01*
X542290Y258460D02*
Y284480D01*
X545404Y236794D02*
X546216D01*
X554990Y245568D01*
Y289560D01*
X542290Y227980D02*
Y233680D01*
X545404Y236794D01*
X374650Y50720D02*
Y79929D01*
X413359Y118639D01*
Y276199D02*
X421031Y283871D01*
X413359Y118639D02*
Y276199D01*
X421031Y283871D02*
X532790D01*
X541020Y292100D01*
X408940Y284480D02*
X420370Y295910D01*
X367680Y77988D02*
X408940Y119248D01*
Y284480D01*
X373460Y49530D02*
X374650Y50720D01*
X347630Y49530D02*
X373460D01*
X339740Y57420D02*
X347630Y49530D01*
X339740Y57420D02*
Y58420D01*
X532210Y295910D02*
X533400Y297100D01*
X420370Y295910D02*
X532210D01*
X533400Y297100D02*
Y297180D01*
X326370Y145810D02*
X337860Y157300D01*
X349128Y182190D02*
X372232D01*
X337860Y157300D02*
X354640D01*
X442700Y227380D02*
Y244160D01*
X448740Y250200D01*
X367680Y58420D02*
Y77988D01*
X346438Y184880D02*
X349128Y182190D01*
X346438Y184880D02*
Y186540D01*
X343748Y189230D02*
X346438Y186540D01*
X337200Y189230D02*
X343748D01*
X367680D02*
Y207988D01*
X351668Y311730D02*
X374772D01*
X344628Y318770D02*
X351668Y311730D01*
X337200Y318770D02*
X344628D01*
X370220D02*
Y340528D01*
X351170Y436880D02*
X370382D01*
X339740Y447310D02*
Y448310D01*
Y447310D02*
X342224Y444826D01*
X343224D01*
X351170Y436880D01*
X370220Y448310D02*
Y470528D01*
X339740Y576850D02*
X345780Y570810D01*
X339740Y576850D02*
Y577850D01*
X367680Y597988D02*
X407360Y637668D01*
X367680Y577850D02*
Y597988D01*
X381082Y701620D02*
X398902Y719440D01*
X349128Y701620D02*
X381082D01*
X346438Y704310D02*
X349128Y701620D01*
X346438Y704310D02*
Y705970D01*
X343748Y708660D02*
X346438Y705970D01*
X337200Y708660D02*
X343748D01*
X370164Y712144D02*
X371164D01*
X367680Y708660D02*
Y709660D01*
X370164Y712144D01*
X371164D02*
X407700Y748680D01*
X326208Y715700D02*
X348910D01*
X353680Y709930D02*
Y710930D01*
X348910Y715700D02*
X353680Y710930D01*
X315620Y734073D02*
Y740590D01*
X317601Y589278D02*
X323256Y583623D01*
X353680Y577850D02*
Y578850D01*
X347640Y584890D02*
X353680Y578850D01*
X323256Y580334D02*
Y583623D01*
X327018Y584890D02*
X347640D01*
X323256Y580334D02*
X325740Y577850D01*
X315620Y604073D02*
Y610590D01*
X356220Y448310D02*
Y449310D01*
X324150Y457758D02*
X326558Y455350D01*
X350180D01*
X356220Y449310D01*
X320620Y480590D02*
X320854Y480356D01*
X320594Y454456D02*
X325740Y449310D01*
Y448310D02*
Y449310D01*
X315620Y474073D02*
Y480590D01*
X356220Y318770D02*
Y319770D01*
X326098Y325810D02*
X350180D01*
X356220Y319770D01*
X324150Y327758D02*
X326098Y325810D01*
X320620Y350590D02*
X320854Y350356D01*
X320716Y321254D02*
Y326163D01*
X320594Y326285D02*
X320716Y326163D01*
Y321254D02*
X323200Y318770D01*
X315620Y344073D02*
Y350590D01*
X347640Y196270D02*
X353680Y190230D01*
X325638Y196270D02*
X347640D01*
X353680Y189230D02*
Y190230D01*
X317601Y195829D02*
X323200Y190230D01*
Y189230D02*
Y190230D01*
X315620Y214073D02*
Y220590D01*
X319555Y65605D02*
X325740Y59420D01*
X347640Y65460D02*
X353680Y59420D01*
Y58420D02*
Y59420D01*
X326448Y65460D02*
X347640D01*
X323494Y68414D02*
X326448Y65460D01*
X320620Y84102D02*
Y90590D01*
X315854Y83839D02*
Y90356D01*
X325740Y58420D02*
Y59420D01*
X315620Y90590D02*
X315854Y90356D01*
X541290Y244460D02*
X542290D01*
X535196Y216624D02*
Y238366D01*
X530722Y207121D02*
X535097Y211496D01*
X535196Y238366D02*
X541290Y244460D01*
X535097Y211496D02*
X539806D01*
X542290Y213980D01*
X509410Y205140D02*
X515927D01*
X661679Y208558D02*
X664617Y211496D01*
X668346D01*
X670830Y213980D01*
X661452Y213360D02*
X664790Y216698D01*
Y241230D01*
X668346Y244786D01*
Y245786D02*
X670830Y248270D01*
X671830D01*
X670830Y213980D02*
X671830D01*
X668346Y244786D02*
Y245786D01*
X639410Y210620D02*
X645898D01*
X639410Y205620D02*
X645927D01*
X585450Y81750D02*
X587360Y83660D01*
X455450Y81270D02*
X457360Y83180D01*
X191750Y144550D02*
X193660Y142640D01*
X191750Y274550D02*
X193660Y272640D01*
X191750Y404550D02*
X193660Y402640D01*
X191750Y664550D02*
X193660Y662640D01*
X191750Y794550D02*
X193660Y792640D01*
X330820Y638690D02*
Y644860D01*
X330620Y638490D02*
X330820Y638690D01*
Y644860D02*
X332344Y646384D01*
X334750D02*
X335940Y645194D01*
X332344Y646384D02*
X334750D01*
X341998Y613964D02*
X349066Y606895D01*
Y606760D02*
Y606895D01*
X335940Y617372D02*
Y645194D01*
X339349Y613964D02*
X341998D01*
X335940Y617372D02*
X339349Y613964D01*
X325620Y638490D02*
X325740Y638610D01*
Y648750D01*
X326930Y649940D02*
X341600D01*
X325740Y648750D02*
X326930Y649940D01*
X346680Y644860D02*
Y645860D01*
X341600Y649940D02*
X343196Y648344D01*
X344196D02*
X346680Y645860D01*
X320620Y638490D02*
X320660Y638530D01*
Y648699D01*
X326981Y655020D02*
X338882D01*
X320660Y648699D02*
X326981Y655020D01*
X338882D02*
X341322Y657460D01*
X346580D02*
X346680Y657560D01*
X341322Y657460D02*
X346580D01*
X315620Y638490D02*
Y649866D01*
X320636Y654882D01*
Y659446D01*
X326370Y665180D01*
X310620Y638490D02*
Y659350D01*
X309870Y660100D02*
X310620Y659350D01*
X307610Y596600D02*
X310500Y599490D01*
Y610470D01*
X310620Y610590D01*
X354204Y657560D02*
X360680D01*
X345690Y594060D02*
X353680D01*
X361300Y599140D02*
Y604686D01*
X363374Y606760D01*
X326370Y665810D02*
X337860Y677300D01*
X354640D02*
X360680Y671260D01*
Y670260D02*
Y671260D01*
X337860Y677300D02*
X354640D01*
X363220Y619460D02*
Y631902D01*
X363479Y632160D01*
X340980Y619460D02*
X349220D01*
X348961Y619719D02*
Y632160D01*
Y619719D02*
X349220Y619460D01*
X360680Y634959D02*
Y644860D01*
Y634959D02*
X363479Y632160D01*
X343196Y648344D02*
X344196D01*
X164516Y604220D02*
X168260Y600476D01*
Y596600D02*
Y600476D01*
X160640Y604220D02*
X164516D01*
X300340Y675340D02*
X305420Y670260D01*
X326370Y665180D02*
Y665810D01*
Y675478D01*
X328280Y677388D02*
Y677880D01*
X326370Y675478D02*
X328280Y677388D01*
X340980Y632160D02*
X348961D01*
X330820Y508690D02*
Y514860D01*
X330620Y508490D02*
X330820Y508690D01*
Y514860D02*
X332344Y516384D01*
X334750D02*
X335940Y515194D01*
X332344Y516384D02*
X334750D01*
X341998Y483964D02*
X349066Y476895D01*
Y476760D02*
Y476895D01*
X335940Y487372D02*
Y515194D01*
X339349Y483964D02*
X341998D01*
X335940Y487372D02*
X339349Y483964D01*
X325620Y508490D02*
X325740Y508610D01*
Y518750D01*
X326930Y519940D02*
X341600D01*
X325740Y518750D02*
X326930Y519940D01*
X346680Y514860D02*
Y515860D01*
X341600Y519940D02*
X343196Y518344D01*
X344196D02*
X346680Y515860D01*
X320620Y508490D02*
X320660Y508530D01*
Y518699D01*
X326981Y525020D02*
X338882D01*
X320660Y518699D02*
X326981Y525020D01*
X338882D02*
X341322Y527460D01*
X346580D02*
X346680Y527560D01*
X341322Y527460D02*
X346580D01*
X315620Y519866D02*
X320636Y524882D01*
X315620Y508490D02*
Y519866D01*
X320636Y524882D02*
Y529446D01*
X326370Y535180D01*
X310620Y508490D02*
Y529350D01*
X309870Y530100D02*
X310620Y529350D01*
X307610Y466600D02*
X310500Y469490D01*
Y480470D01*
X310620Y480590D01*
X354204Y527560D02*
X360680D01*
X361300Y469140D02*
Y474686D01*
X363374Y476760D01*
X360680Y540260D02*
Y541260D01*
X326370Y535810D02*
X337860Y547300D01*
X354640D01*
X360680Y541260D01*
X363220Y489460D02*
Y501902D01*
X363479Y502160D01*
X340980Y489460D02*
X349220D01*
X348961Y489719D02*
Y502160D01*
Y489719D02*
X349220Y489460D01*
X360680Y504959D02*
Y514860D01*
Y504959D02*
X363479Y502160D01*
X343196Y518344D02*
X344196D01*
X164516Y474220D02*
X168260Y470476D01*
Y466600D02*
Y470476D01*
X160640Y474220D02*
X164516D01*
X300340Y545340D02*
X305420Y540260D01*
X191750Y534550D02*
X193660Y532640D01*
X326370Y535180D02*
Y535810D01*
Y545478D01*
X328280Y547388D02*
Y547880D01*
X326370Y545478D02*
X328280Y547388D01*
X340980Y502160D02*
X348961D01*
X302880Y451360D02*
X310150D01*
X310500Y451710D01*
X330820Y378690D02*
Y384860D01*
X330620Y378490D02*
X330820Y378690D01*
Y384860D02*
X332344Y386384D01*
X334750D02*
X335940Y385194D01*
X332344Y386384D02*
X334750D01*
X341998Y353964D02*
X349066Y346895D01*
Y346760D02*
Y346895D01*
X335940Y357372D02*
Y385194D01*
X339349Y353964D02*
X341998D01*
X335940Y357372D02*
X339349Y353964D01*
X325620Y378490D02*
X325740Y378610D01*
Y388750D01*
X326930Y389940D02*
X341600D01*
X325740Y388750D02*
X326930Y389940D01*
X346680Y384860D02*
Y385860D01*
X341600Y389940D02*
X343196Y388344D01*
X344196D02*
X346680Y385860D01*
X320620Y378490D02*
X320660Y378530D01*
Y388699D01*
X326981Y395020D02*
X338882D01*
X320660Y388699D02*
X326981Y395020D01*
X338882D02*
X341322Y397460D01*
X346580D02*
X346680Y397560D01*
X341322Y397460D02*
X346580D01*
X315620Y389866D02*
X320636Y394882D01*
X315620Y378490D02*
Y389866D01*
X320636Y394882D02*
Y399446D01*
X326370Y405180D01*
X310620Y378490D02*
Y399350D01*
X309870Y400100D02*
X310620Y399350D01*
X307610Y336600D02*
X310500Y339490D01*
Y350470D01*
X310620Y350590D01*
X345690Y334060D02*
X353680D01*
X361300Y339140D02*
Y344686D01*
X363374Y346760D01*
X360680Y410260D02*
Y411260D01*
X326370Y405810D02*
X337860Y417300D01*
X354640D01*
X360680Y411260D01*
X363220Y359460D02*
Y371902D01*
X363479Y372160D01*
X340980Y359460D02*
X349220D01*
X348961Y359719D02*
X349220Y359460D01*
X348961Y359719D02*
Y372160D01*
X360680Y374959D02*
Y384860D01*
Y374959D02*
X363479Y372160D01*
X343196Y388344D02*
X344196D01*
X164516Y344220D02*
X168260Y340476D01*
Y336600D02*
Y340476D01*
X160640Y344220D02*
X164516D01*
X300340Y415340D02*
X305420Y410260D01*
X326370Y405180D02*
Y405810D01*
Y415478D01*
X328280Y417388D02*
Y417880D01*
X326370Y415478D02*
X328280Y417388D01*
X340980Y372160D02*
X348961D01*
X302880Y321360D02*
X310150D01*
X310500Y321710D01*
X330820Y248690D02*
Y254860D01*
X330620Y248490D02*
X330820Y248690D01*
Y254860D02*
X332344Y256384D01*
X334750D02*
X335940Y255194D01*
X332344Y256384D02*
X334750D01*
X341998Y223964D02*
X349066Y216896D01*
Y216760D02*
Y216896D01*
X335940Y227372D02*
Y255194D01*
X339349Y223964D02*
X341998D01*
X335940Y227372D02*
X339349Y223964D01*
X325620Y248490D02*
X325740Y248610D01*
Y258750D01*
X326930Y259940D02*
X341600D01*
X325740Y258750D02*
X326930Y259940D01*
X346680Y254860D02*
Y255860D01*
X341600Y259940D02*
X343196Y258344D01*
X344196D02*
X346680Y255860D01*
X320620Y248490D02*
X320660Y248530D01*
Y258699D01*
X326981Y265020D02*
X338882D01*
X320660Y258699D02*
X326981Y265020D01*
X338882D02*
X341322Y267460D01*
X346580D02*
X346680Y267560D01*
X341322Y267460D02*
X346580D01*
X315620Y259866D02*
X320636Y264882D01*
X315620Y248490D02*
Y259866D01*
X320636Y264882D02*
Y269446D01*
X326370Y275180D01*
X310620Y248490D02*
Y269350D01*
X309870Y270100D02*
X310620Y269350D01*
X307610Y206600D02*
X310500Y209490D01*
Y220470D01*
X310620Y220590D01*
X354204Y267560D02*
X360680D01*
X345690Y204060D02*
X353680D01*
X361300Y209140D02*
Y214686D01*
X363374Y216760D01*
X360680Y280260D02*
Y281260D01*
X326370Y275810D02*
X337860Y287300D01*
X354640D01*
X360680Y281260D01*
X363220Y229460D02*
Y241901D01*
X363479Y242160D01*
X340980Y229460D02*
X349220D01*
X348961Y229719D02*
Y242160D01*
Y229719D02*
X349220Y229460D01*
X360680Y244959D02*
Y254860D01*
Y244959D02*
X363479Y242160D01*
X343196Y258344D02*
X344196D01*
X164516Y214220D02*
X168260Y210476D01*
Y206600D02*
Y210476D01*
X160640Y214220D02*
X164516D01*
X300340Y285340D02*
X305420Y280260D01*
X326370Y275180D02*
Y275810D01*
Y285478D01*
X328280Y287388D02*
Y287880D01*
X326370Y285478D02*
X328280Y287388D01*
X340980Y242160D02*
X348961D01*
X326370Y145180D02*
Y145810D01*
X354640Y157300D02*
X360680Y151260D01*
Y150260D02*
Y151260D01*
X330820Y118690D02*
Y124860D01*
X330620Y118490D02*
X330820Y118690D01*
Y124860D02*
X332344Y126384D01*
X334750D02*
X335940Y125194D01*
X332344Y126384D02*
X334750D01*
X341998Y93963D02*
X349066Y86895D01*
Y86760D02*
Y86895D01*
X335940Y97372D02*
Y125194D01*
X339349Y93963D02*
X341998D01*
X335940Y97372D02*
X339349Y93963D01*
X325620Y118490D02*
X325740Y118610D01*
Y128750D01*
X326930Y129940D02*
X341600D01*
X325740Y128750D02*
X326930Y129940D01*
X346680Y124860D02*
Y125860D01*
X341600Y129940D02*
X343196Y128344D01*
X344196D02*
X346680Y125860D01*
X320620Y118490D02*
X320660Y118530D01*
Y128699D01*
X326981Y135020D02*
X338882D01*
X320660Y128699D02*
X326981Y135020D01*
X338882D02*
X341322Y137460D01*
X346580D02*
X346680Y137560D01*
X341322Y137460D02*
X346580D01*
X315620Y118490D02*
Y129866D01*
X320636Y134882D01*
Y139446D01*
X326370Y145180D01*
X310620Y118490D02*
Y139350D01*
X309870Y140100D02*
X310620Y139350D01*
X307610Y76600D02*
X310500Y79490D01*
Y90470D01*
X310620Y90590D01*
X354204Y137560D02*
X360680D01*
X345690Y74060D02*
X353680D01*
X361300Y79140D02*
Y84686D01*
X363374Y86760D01*
X363220Y99460D02*
Y111901D01*
X363479Y112160D01*
X340980Y99460D02*
X349220D01*
X348961Y99719D02*
X349220Y99460D01*
X348961Y99719D02*
Y112160D01*
X360680Y114959D02*
Y124860D01*
Y114959D02*
X363479Y112160D01*
X343196Y128344D02*
X344196D01*
X300340Y155340D02*
X305420Y150260D01*
X326370Y145810D02*
Y155478D01*
X328280Y157388D02*
Y157880D01*
X326370Y155478D02*
X328280Y157388D01*
X340980Y112160D02*
X348961D01*
X302880Y61360D02*
X310150D01*
X310500Y61710D01*
X473616Y221864D02*
X475140Y220340D01*
X481310D01*
X473616Y221864D02*
Y224270D01*
X474806Y225460D02*
X502628D01*
X473616Y224270D02*
X474806Y225460D01*
X481310Y220340D02*
X481510Y220140D01*
X502628Y225460D02*
X506036Y228869D01*
Y231518D01*
X513105Y238586D01*
X513240D01*
X470060Y216450D02*
X471250Y215260D01*
X481390D01*
X470060Y216450D02*
Y231120D01*
X471656Y232716D01*
X481390Y215260D02*
X481510Y215140D01*
X471656Y232716D02*
Y233716D01*
X474140Y236200D02*
X475140D01*
X471656Y233716D02*
X474140Y236200D01*
X462540Y230842D02*
X464980Y228402D01*
X462440Y236200D02*
X462540Y236100D01*
X471301Y210180D02*
X481470D01*
X481510Y210140D01*
X462540Y230842D02*
Y236100D01*
X464980Y216501D02*
X471301Y210180D01*
X464980Y216501D02*
Y228402D01*
X454820Y215890D02*
X460554Y210156D01*
X470134Y205140D02*
X481510D01*
X460554Y210156D02*
X465118D01*
X470134Y205140D01*
X459900Y199390D02*
X460650Y200140D01*
X481510D01*
X509410D02*
X509530Y200020D01*
X520510D01*
X523400Y197130D01*
X462440Y243724D02*
Y250200D01*
X525940Y235210D02*
Y243200D01*
X515314Y250820D02*
X520860D01*
X513240Y252894D02*
X515314Y250820D01*
X442700Y227380D02*
X454190Y215890D01*
X448740Y250200D02*
X449740D01*
X488099Y252740D02*
X500540D01*
Y230500D02*
Y238740D01*
X487840Y238481D02*
X500281D01*
X500540Y238740D01*
X475140Y250200D02*
X485041D01*
X487840Y252999D01*
X444660Y189860D02*
X449740Y194940D01*
X515780Y50160D02*
Y54036D01*
X519524Y57780D01*
X523400D01*
X444522Y215890D02*
X454190D01*
X442120Y217800D02*
X442612D01*
X444522Y215890D01*
X454190D02*
X454820D01*
X487840Y230500D02*
Y238481D01*
Y252999D02*
X488099Y252740D01*
X538290Y200020D02*
X538640Y199670D01*
Y192400D02*
Y199670D01*
X603616Y222344D02*
X605140Y220820D01*
X611310D01*
X603616Y222344D02*
Y224750D01*
X604806Y225940D02*
X632628D01*
X603616Y224750D02*
X604806Y225940D01*
X611310Y220820D02*
X611510Y220620D01*
X632628Y225940D02*
X636036Y229349D01*
Y231998D01*
X643105Y239066D01*
X643240D01*
X600060Y216930D02*
X601250Y215740D01*
X611390D01*
X600060Y216930D02*
Y231600D01*
X601656Y233196D01*
X611390Y215740D02*
X611510Y215620D01*
X601656Y233196D02*
Y234196D01*
X604140Y236680D02*
X605140D01*
X601656Y234196D02*
X604140Y236680D01*
X592540Y231322D02*
X594980Y228882D01*
X592440Y236680D02*
X592540Y236580D01*
X601301Y210660D02*
X611470D01*
X611510Y210620D01*
X592540Y231322D02*
Y236580D01*
X594980Y216981D02*
X601301Y210660D01*
X594980Y216981D02*
Y228882D01*
X584820Y216370D02*
X590554Y210636D01*
X600134Y205620D02*
X611510D01*
X595118Y210636D02*
X600134Y205620D01*
X590554Y210636D02*
X595118D01*
X589900Y199870D02*
X590650Y200620D01*
X611510D01*
X639410D02*
X639530Y200500D01*
X650510D01*
X653400Y197610D01*
X592440Y244204D02*
Y250680D01*
X655940Y235690D02*
Y243680D01*
X643240Y253374D02*
X645314Y251300D01*
X650860D01*
X572700Y227860D02*
Y244640D01*
X578740Y250680D01*
X572700Y227860D02*
X584190Y216370D01*
X578740Y250680D02*
X579740D01*
X618099Y253220D02*
X630540D01*
Y230980D02*
Y239220D01*
X617840Y238961D02*
X630281D01*
X630540Y239220D01*
X605140Y250680D02*
X615041D01*
X617840Y253479D01*
X574660Y190340D02*
X579740Y195420D01*
X645780Y50640D02*
Y54516D01*
X649524Y58260D01*
X653400D01*
X572612Y218280D02*
X574522Y216370D01*
X584190D01*
X572120Y218280D02*
X572612D01*
X584190Y216370D02*
X584820D01*
X617840Y230980D02*
Y238961D01*
Y253479D02*
X618099Y253220D01*
X668640Y192880D02*
Y200150D01*
X668290Y200500D02*
X668640Y200150D01*
X326370Y795180D02*
Y795810D01*
X310150Y711360D02*
X310500Y711710D01*
X302880Y711360D02*
X310150D01*
X340980Y762160D02*
X348961D01*
X328280Y807388D02*
Y807880D01*
X326370Y805478D02*
X328280Y807388D01*
X326370Y795810D02*
Y805478D01*
X300340Y805340D02*
X305420Y800260D01*
X164516Y734220D02*
X168260Y730476D01*
X160640Y734220D02*
X164516D01*
X168260Y726600D02*
Y730476D01*
X343196Y778344D02*
X344196D01*
X360680Y764959D02*
X363479Y762160D01*
X360680Y764959D02*
Y774860D01*
X348961Y749719D02*
Y762160D01*
Y749719D02*
X349220Y749460D01*
X340980D02*
X349220D01*
X363220Y761901D02*
X363479Y762160D01*
X363220Y749460D02*
Y761901D01*
X361300Y734686D02*
X363374Y736760D01*
X361300Y729140D02*
Y734686D01*
X345690Y724060D02*
X353680D01*
X354204Y787560D02*
X360680D01*
X310500Y740470D02*
X310620Y740590D01*
X310500Y729490D02*
Y740470D01*
X307610Y726600D02*
X310500Y729490D01*
X309870Y790100D02*
X310620Y789350D01*
Y768490D02*
Y789350D01*
X320636Y789446D02*
X326370Y795180D01*
X320636Y784882D02*
Y789446D01*
X315620Y779866D02*
X320636Y784882D01*
X315620Y768490D02*
Y779866D01*
X341322Y787460D02*
X346580D01*
X346680Y787560D01*
X338882Y785020D02*
X341322Y787460D01*
X320660Y778699D02*
X326981Y785020D01*
X338882D01*
X320660Y768530D02*
Y778699D01*
X320620Y768490D02*
X320660Y768530D01*
X344196Y778344D02*
X346680Y775860D01*
X341600Y779940D02*
X343196Y778344D01*
X346680Y774860D02*
Y775860D01*
X325740Y778750D02*
X326930Y779940D01*
X341600D01*
X325740Y768610D02*
Y778750D01*
X325620Y768490D02*
X325740Y768610D01*
X335940Y747372D02*
X339349Y743963D01*
X341998D01*
X335940Y747372D02*
Y775194D01*
X349066Y736760D02*
Y736896D01*
X341998Y743963D02*
X349066Y736896D01*
X332344Y776384D02*
X334750D01*
X335940Y775194D01*
X330820Y774860D02*
X332344Y776384D01*
X330620Y768490D02*
X330820Y768690D01*
Y774860D01*
X326370Y795810D02*
X337860Y807300D01*
X360680Y800260D02*
Y801260D01*
D16*
X346680Y657560D02*
D03*
X360680D02*
D03*
X407020Y596900D02*
D03*
X421020D02*
D03*
X407020Y584200D02*
D03*
X421020D02*
D03*
X797000Y740000D02*
D03*
X783000D02*
D03*
X673720Y609600D02*
D03*
X687720D02*
D03*
X556880Y607060D02*
D03*
X570880D02*
D03*
X586120Y619760D02*
D03*
X572120D02*
D03*
X513700Y607060D02*
D03*
X527700D02*
D03*
X540400Y594360D02*
D03*
X526400D02*
D03*
X473060Y584200D02*
D03*
X487060D02*
D03*
X502300Y596900D02*
D03*
X488300D02*
D03*
X339740Y58420D02*
D03*
X325740D02*
D03*
X367680D02*
D03*
X353680D02*
D03*
X337200Y189230D02*
D03*
X323200D02*
D03*
X367680D02*
D03*
X353680D02*
D03*
X337200Y318770D02*
D03*
X323200D02*
D03*
X370220D02*
D03*
X356220D02*
D03*
X339740Y448310D02*
D03*
X325740D02*
D03*
X370220D02*
D03*
X356220D02*
D03*
X339740Y577850D02*
D03*
X325740D02*
D03*
X367680D02*
D03*
X353680D02*
D03*
X337200Y708660D02*
D03*
X323200D02*
D03*
X367680D02*
D03*
X353680D02*
D03*
X360680Y267560D02*
D03*
X346680D02*
D03*
X346680Y280260D02*
D03*
X360680D02*
D03*
X349220Y229460D02*
D03*
X363220D02*
D03*
X346680Y254860D02*
D03*
X360680D02*
D03*
X360680Y397560D02*
D03*
X346680D02*
D03*
X346680Y410260D02*
D03*
X360680D02*
D03*
X349220Y359460D02*
D03*
X363220D02*
D03*
X346680Y384860D02*
D03*
X360680D02*
D03*
X349220Y619460D02*
D03*
X363220D02*
D03*
X346680Y644860D02*
D03*
X360680D02*
D03*
X349220Y489460D02*
D03*
X363220D02*
D03*
X346680Y514860D02*
D03*
X360680D02*
D03*
X349220Y749460D02*
D03*
X363220D02*
D03*
X346680Y774860D02*
D03*
X360680D02*
D03*
X360680Y787560D02*
D03*
X346680D02*
D03*
X346680Y670260D02*
D03*
X360680D02*
D03*
X360680Y527560D02*
D03*
X346680D02*
D03*
X346680Y540260D02*
D03*
X360680D02*
D03*
X346680Y800260D02*
D03*
X360680D02*
D03*
X346680Y150260D02*
D03*
X360680D02*
D03*
X360680Y137560D02*
D03*
X346680D02*
D03*
X349220Y99460D02*
D03*
X363220D02*
D03*
X346680Y124860D02*
D03*
X360680D02*
D03*
D17*
X658870Y28360D02*
D03*
X677170D02*
D03*
X658870Y17360D02*
D03*
X677170D02*
D03*
D18*
X780690Y383540D02*
D03*
X799190D02*
D03*
D19*
X685680Y320040D02*
D03*
X670680D02*
D03*
X688220Y624840D02*
D03*
X673220D02*
D03*
X449460Y584200D02*
D03*
X434460D02*
D03*
X449460Y596900D02*
D03*
X434460D02*
D03*
X717500Y625000D02*
D03*
X702500D02*
D03*
X717500Y610000D02*
D03*
X702500D02*
D03*
X478910Y539750D02*
D03*
X493910D02*
D03*
X478910Y554990D02*
D03*
X493910D02*
D03*
X724020Y767080D02*
D03*
X739020D02*
D03*
X406520Y784860D02*
D03*
X421520D02*
D03*
X406520Y769620D02*
D03*
X421520D02*
D03*
D20*
X739800Y617380D02*
D03*
X758952D02*
D03*
X749300Y638556D02*
D03*
D21*
X88900Y554840D02*
D03*
Y567840D02*
D03*
X700000Y576500D02*
D03*
Y563500D02*
D03*
X730000Y576500D02*
D03*
Y563500D02*
D03*
X701040Y359260D02*
D03*
Y372260D02*
D03*
D22*
X690000Y395500D02*
D03*
Y414652D02*
D03*
X668824Y405000D02*
D03*
D23*
X465970Y539750D02*
D03*
X450850D02*
D03*
X465970Y553720D02*
D03*
X450850D02*
D03*
D24*
X604520Y616600D02*
D03*
Y602600D02*
D03*
X622300Y616600D02*
D03*
Y602600D02*
D03*
X459740Y642000D02*
D03*
Y628000D02*
D03*
X447040Y615300D02*
D03*
Y629300D02*
D03*
Y677560D02*
D03*
Y663560D02*
D03*
X459740Y650860D02*
D03*
Y664860D02*
D03*
X460000Y717000D02*
D03*
Y703000D02*
D03*
X447040Y688960D02*
D03*
Y702960D02*
D03*
X414020Y748680D02*
D03*
Y734680D02*
D03*
X434340Y719440D02*
D03*
Y733440D02*
D03*
X671830Y227980D02*
D03*
Y213980D02*
D03*
X542290Y227980D02*
D03*
Y213980D02*
D03*
X671830Y262270D02*
D03*
Y248270D02*
D03*
X542290Y258460D02*
D03*
Y244460D02*
D03*
X462440Y250200D02*
D03*
Y236200D02*
D03*
X449740Y236200D02*
D03*
Y250200D02*
D03*
X500540Y238740D02*
D03*
Y252740D02*
D03*
X475140Y236200D02*
D03*
Y250200D02*
D03*
X592440Y250680D02*
D03*
Y236680D02*
D03*
X579740Y236680D02*
D03*
Y250680D02*
D03*
X630540Y239220D02*
D03*
Y253220D02*
D03*
X605140Y236680D02*
D03*
Y250680D02*
D03*
D25*
X558800Y722620D02*
D03*
Y706120D02*
D03*
X575300D02*
D03*
X591800D02*
D03*
Y722620D02*
D03*
Y739120D02*
D03*
X575300D02*
D03*
Y722620D02*
D03*
D26*
X515800Y792620D02*
D03*
X524300D02*
D03*
X532800D02*
D03*
X541300D02*
D03*
X549800D02*
D03*
X558300D02*
D03*
X566800D02*
D03*
X575300D02*
D03*
X583800D02*
D03*
X592300D02*
D03*
X600800D02*
D03*
X609300D02*
D03*
X617800D02*
D03*
X626300D02*
D03*
X634800D02*
D03*
Y652620D02*
D03*
X626300D02*
D03*
X617800D02*
D03*
X609300D02*
D03*
X600800D02*
D03*
X592300D02*
D03*
X583800D02*
D03*
X575300D02*
D03*
X566800D02*
D03*
X558300D02*
D03*
X549800D02*
D03*
X541300D02*
D03*
X532800D02*
D03*
X524300D02*
D03*
X515800D02*
D03*
D27*
X645300Y782120D02*
D03*
Y773620D02*
D03*
Y765120D02*
D03*
Y756620D02*
D03*
Y748120D02*
D03*
Y739620D02*
D03*
Y731120D02*
D03*
Y722620D02*
D03*
Y714120D02*
D03*
Y705620D02*
D03*
Y697120D02*
D03*
Y688620D02*
D03*
Y680120D02*
D03*
Y671620D02*
D03*
Y663120D02*
D03*
X505300D02*
D03*
Y671620D02*
D03*
Y680120D02*
D03*
Y688620D02*
D03*
Y697120D02*
D03*
Y705620D02*
D03*
Y714120D02*
D03*
Y722620D02*
D03*
Y731120D02*
D03*
Y739620D02*
D03*
Y748120D02*
D03*
Y756620D02*
D03*
Y765120D02*
D03*
Y773620D02*
D03*
Y782120D02*
D03*
D28*
X645300Y652620D02*
D03*
Y792620D02*
D03*
X505300Y652620D02*
D03*
Y792620D02*
D03*
D29*
X705570Y789460D02*
D03*
Y729460D02*
D03*
X668570Y789460D02*
D03*
Y729460D02*
D03*
X705570Y714530D02*
D03*
Y654530D02*
D03*
X668570Y714530D02*
D03*
Y654530D02*
D03*
D30*
X725520Y748030D02*
D03*
X740060D02*
D03*
X762350Y261620D02*
D03*
X776890D02*
D03*
X736250Y386080D02*
D03*
X721710D02*
D03*
X667730Y590000D02*
D03*
X682270D02*
D03*
X523750Y200020D02*
D03*
X538290D02*
D03*
X653750Y200500D02*
D03*
X668290D02*
D03*
D31*
X469900Y767430D02*
D03*
Y781970D02*
D03*
X594360Y569310D02*
D03*
Y583850D02*
D03*
X485140Y767430D02*
D03*
Y781970D02*
D03*
X310500Y321710D02*
D03*
Y336250D02*
D03*
X736600Y294290D02*
D03*
Y279750D02*
D03*
X310500Y206250D02*
D03*
Y191710D02*
D03*
Y726250D02*
D03*
Y711710D02*
D03*
Y596250D02*
D03*
Y581710D02*
D03*
Y466250D02*
D03*
Y451710D02*
D03*
X310500Y76250D02*
D03*
Y61710D02*
D03*
D32*
X449580Y788700D02*
D03*
Y760700D02*
D03*
X755000Y579000D02*
D03*
Y551000D02*
D03*
X580000Y534000D02*
D03*
Y506000D02*
D03*
D33*
X715000Y577259D02*
D03*
Y562741D02*
D03*
D34*
X755260Y246380D02*
D03*
X738260D02*
D03*
X783980D02*
D03*
X800980D02*
D03*
D35*
X774540Y281751D02*
D03*
X769540D02*
D03*
X764540D02*
D03*
X759540D02*
D03*
X754540D02*
D03*
Y322769D02*
D03*
X759540D02*
D03*
X764540D02*
D03*
X769540D02*
D03*
D36*
X774540D02*
D03*
D37*
X800750Y210000D02*
D03*
X739250D02*
D03*
D38*
X69340Y589880D02*
D03*
Y604880D02*
D03*
Y619880D02*
D03*
Y634880D02*
D03*
Y649880D02*
D03*
Y664880D02*
D03*
X745270Y367640D02*
D03*
Y358140D02*
D03*
Y348640D02*
D03*
X717770D02*
D03*
Y358140D02*
D03*
Y367640D02*
D03*
X70400Y352500D02*
D03*
Y367500D02*
D03*
Y382500D02*
D03*
Y397500D02*
D03*
Y412500D02*
D03*
Y427500D02*
D03*
Y442500D02*
D03*
Y457500D02*
D03*
Y472500D02*
D03*
Y487500D02*
D03*
D39*
X17440Y690930D02*
D03*
Y563830D02*
D03*
X18500Y513550D02*
D03*
Y326450D02*
D03*
D40*
X449260Y360680D02*
D03*
X536260D02*
D03*
X449260Y472440D02*
D03*
X536260D02*
D03*
D41*
X701040Y333860D02*
D03*
Y346860D02*
D03*
D42*
X769620Y414820D02*
D03*
Y514820D02*
D03*
D43*
X773400Y353060D02*
D03*
X801400D02*
D03*
D44*
X663720Y485140D02*
D03*
X697720D02*
D03*
X515620Y551180D02*
D03*
X549620D02*
D03*
D45*
X760800Y697840D02*
D03*
Y688340D02*
D03*
Y678840D02*
D03*
X737800D02*
D03*
Y688340D02*
D03*
Y697840D02*
D03*
D46*
X788160Y646180D02*
D03*
Y654180D02*
D03*
Y702180D02*
D03*
Y710180D02*
D03*
D47*
Y660680D02*
D03*
Y665680D02*
D03*
Y670680D02*
D03*
Y675680D02*
D03*
Y680680D02*
D03*
Y685680D02*
D03*
Y690680D02*
D03*
Y695680D02*
D03*
D48*
X761706Y711200D02*
D03*
X752134D02*
D03*
X761706Y657860D02*
D03*
X752134D02*
D03*
D49*
X826516Y600710D02*
D03*
X788924D02*
D03*
X787654Y566420D02*
D03*
X825246D02*
D03*
D50*
X642630Y552450D02*
D03*
X612130D02*
D03*
D51*
X685503Y574500D02*
D03*
Y565000D02*
D03*
Y555500D02*
D03*
X664497D02*
D03*
Y565000D02*
D03*
D52*
Y574500D02*
D03*
D53*
X664220Y452120D02*
D03*
X697220D02*
D03*
D54*
X664720Y518160D02*
D03*
X696720D02*
D03*
D55*
X345690Y594060D02*
D03*
X331190D02*
D03*
X345690Y464060D02*
D03*
X331190D02*
D03*
X345690Y334060D02*
D03*
X331190D02*
D03*
X345690Y204060D02*
D03*
X331190D02*
D03*
X345690Y74060D02*
D03*
X331190D02*
D03*
X345690Y724060D02*
D03*
X331190D02*
D03*
D56*
X309870Y665180D02*
D03*
X326370D02*
D03*
X309870Y535180D02*
D03*
X326370D02*
D03*
X309870Y405180D02*
D03*
X326370D02*
D03*
X309870Y275180D02*
D03*
X326370D02*
D03*
X309870Y145180D02*
D03*
X326370D02*
D03*
X191750Y290420D02*
D03*
X175250D02*
D03*
X191750Y420420D02*
D03*
X175250D02*
D03*
X191750Y810420D02*
D03*
X175250D02*
D03*
X309870Y795180D02*
D03*
X326370D02*
D03*
X191750Y680420D02*
D03*
X175250D02*
D03*
X191750Y550420D02*
D03*
X175250D02*
D03*
X191750Y160420D02*
D03*
X175250D02*
D03*
D57*
X509410Y195140D02*
D03*
Y200140D02*
D03*
Y205140D02*
D03*
Y210140D02*
D03*
Y215140D02*
D03*
Y220140D02*
D03*
X481510Y195140D02*
D03*
Y200140D02*
D03*
Y205140D02*
D03*
Y210140D02*
D03*
Y215140D02*
D03*
Y220140D02*
D03*
X639410Y195620D02*
D03*
Y200620D02*
D03*
Y205620D02*
D03*
Y210620D02*
D03*
Y215620D02*
D03*
Y220620D02*
D03*
X611510Y195620D02*
D03*
Y200620D02*
D03*
Y205620D02*
D03*
Y210620D02*
D03*
Y215620D02*
D03*
Y220620D02*
D03*
D58*
X495460Y207640D02*
D03*
X625460Y208120D02*
D03*
D59*
X525940Y235210D02*
D03*
Y220710D02*
D03*
X655940Y235690D02*
D03*
Y221190D02*
D03*
D60*
X513240Y252894D02*
D03*
Y238586D02*
D03*
X643240Y253374D02*
D03*
Y239066D02*
D03*
D61*
X464460Y73020D02*
D03*
X526460D02*
D03*
X594460Y73500D02*
D03*
X656460D02*
D03*
D62*
X510700Y112390D02*
D03*
Y170810D02*
D03*
X640700Y112870D02*
D03*
Y171290D02*
D03*
D63*
X449250Y131500D02*
D03*
X579250Y131980D02*
D03*
D64*
X459900Y167000D02*
D03*
X438600D02*
D03*
X589900Y167480D02*
D03*
X568600D02*
D03*
D65*
X487840Y252999D02*
D03*
Y238481D02*
D03*
X617840Y253479D02*
D03*
Y238961D02*
D03*
D66*
X439580Y81270D02*
D03*
Y64770D02*
D03*
X454820Y199390D02*
D03*
Y215890D02*
D03*
X584820Y199870D02*
D03*
Y216370D02*
D03*
X569580Y81750D02*
D03*
Y65250D02*
D03*
D67*
X305620Y220590D02*
D03*
X310620D02*
D03*
X315620D02*
D03*
X320620D02*
D03*
X325620D02*
D03*
X330620D02*
D03*
X305620Y248490D02*
D03*
X310620D02*
D03*
X315620D02*
D03*
X320620D02*
D03*
X325620D02*
D03*
X330620D02*
D03*
X305620Y350590D02*
D03*
X310620D02*
D03*
X315620D02*
D03*
X320620D02*
D03*
X325620D02*
D03*
X330620D02*
D03*
X305620Y378490D02*
D03*
X310620D02*
D03*
X315620D02*
D03*
X320620D02*
D03*
X325620D02*
D03*
X330620D02*
D03*
X305620Y740590D02*
D03*
X310620D02*
D03*
X315620D02*
D03*
X320620D02*
D03*
X325620D02*
D03*
X330620D02*
D03*
X305620Y768490D02*
D03*
X310620D02*
D03*
X315620D02*
D03*
X320620D02*
D03*
X325620D02*
D03*
X330620D02*
D03*
X305620Y610590D02*
D03*
X310620D02*
D03*
X315620D02*
D03*
X320620D02*
D03*
X325620D02*
D03*
X330620D02*
D03*
X305620Y638490D02*
D03*
X310620D02*
D03*
X315620D02*
D03*
X320620D02*
D03*
X325620D02*
D03*
X330620D02*
D03*
X305620Y480590D02*
D03*
X310620D02*
D03*
X315620D02*
D03*
X320620D02*
D03*
X325620D02*
D03*
X330620D02*
D03*
X305620Y508490D02*
D03*
X310620D02*
D03*
X315620D02*
D03*
X320620D02*
D03*
X325620D02*
D03*
X330620D02*
D03*
X305620Y90590D02*
D03*
X310620D02*
D03*
X315620D02*
D03*
X320620D02*
D03*
X325620D02*
D03*
X330620D02*
D03*
X305620Y118490D02*
D03*
X310620D02*
D03*
X315620D02*
D03*
X320620D02*
D03*
X325620D02*
D03*
X330620D02*
D03*
D68*
X318120Y234540D02*
D03*
Y364540D02*
D03*
Y754540D02*
D03*
Y624540D02*
D03*
Y494540D02*
D03*
X318120Y104540D02*
D03*
D69*
X363374Y216760D02*
D03*
X349066D02*
D03*
X363374Y346760D02*
D03*
X349066D02*
D03*
X363374Y606760D02*
D03*
X349066D02*
D03*
X363374Y476760D02*
D03*
X349066D02*
D03*
X363374Y736760D02*
D03*
X349066D02*
D03*
X363374Y86760D02*
D03*
X349066D02*
D03*
D70*
X183500Y265540D02*
D03*
Y203540D02*
D03*
Y395540D02*
D03*
Y333540D02*
D03*
Y655540D02*
D03*
Y593540D02*
D03*
Y525540D02*
D03*
Y463540D02*
D03*
Y785540D02*
D03*
Y723540D02*
D03*
X183500Y135540D02*
D03*
Y73540D02*
D03*
D71*
X222870Y219300D02*
D03*
X281290D02*
D03*
X222870Y349300D02*
D03*
X281290D02*
D03*
X222870Y609300D02*
D03*
X281290D02*
D03*
X222870Y739300D02*
D03*
X281290D02*
D03*
X222870Y479300D02*
D03*
X281290D02*
D03*
X222870Y89300D02*
D03*
X281290D02*
D03*
D72*
X241980Y280750D02*
D03*
Y410750D02*
D03*
Y670750D02*
D03*
Y540750D02*
D03*
Y800750D02*
D03*
X241980Y150750D02*
D03*
D73*
X277480Y270100D02*
D03*
Y291400D02*
D03*
Y400100D02*
D03*
Y421400D02*
D03*
Y660100D02*
D03*
Y681400D02*
D03*
Y530100D02*
D03*
Y551400D02*
D03*
Y790100D02*
D03*
Y811400D02*
D03*
X277480Y140100D02*
D03*
Y161400D02*
D03*
D74*
X363479Y242160D02*
D03*
X348961D02*
D03*
X363479Y372160D02*
D03*
X348961D02*
D03*
X363479Y762160D02*
D03*
X348961D02*
D03*
X363479Y632160D02*
D03*
X348961D02*
D03*
X363479Y502160D02*
D03*
X348961D02*
D03*
X363479Y112160D02*
D03*
X348961D02*
D03*
D115*
X819700Y171380D02*
D03*
X729700D02*
D03*
D116*
X759700Y161980D02*
D03*
X789700D02*
D03*
X759700Y131980D02*
D03*
D117*
X789700D02*
D03*
D121*
X558800Y739120D02*
D03*
D122*
X680259Y337740D02*
X684855Y333144D01*
Y320145D02*
X717130Y287870D01*
X680259Y337740D02*
Y370421D01*
X684855Y320145D02*
Y333144D01*
X717130Y287870D02*
X725000Y280000D01*
X771718Y350283D02*
X773400Y351965D01*
X678180Y412449D02*
Y418180D01*
Y412449D02*
X679967Y410662D01*
X678180Y418180D02*
X679996Y419996D01*
X679967Y370713D02*
X680259Y370421D01*
X679967Y370713D02*
Y410662D01*
X710077Y339751D02*
Y339954D01*
X705341Y337661D02*
X707986D01*
X701540Y333860D02*
X705341Y337661D01*
X701040Y333860D02*
X701540D01*
X707986Y337661D02*
X710077Y339751D01*
X773400Y348600D02*
Y351965D01*
X745270Y348640D02*
X770075D01*
X773400Y348600D02*
X789260Y332740D01*
X770075Y348640D02*
X771718Y350283D01*
X69400Y619940D02*
X79940D01*
X725000Y280000D02*
X736350D01*
X802115Y675761D02*
Y691405D01*
X800100Y693420D02*
X802115Y691405D01*
X800100Y673746D02*
X802115Y675761D01*
X800100Y661828D02*
Y673746D01*
Y693420D02*
Y697585D01*
X798554Y699131D02*
X800100Y697585D01*
Y661828D02*
X817880Y644048D01*
Y640080D02*
Y644048D01*
X703320Y348640D02*
X717770D01*
X701865Y350095D02*
X703320Y348640D01*
X665000Y555000D02*
X675000Y545000D01*
X697220Y447370D02*
Y452120D01*
X675000Y545000D02*
X720000D01*
X717770Y367640D02*
X719420D01*
X721710Y369930D02*
Y386080D01*
X719420Y367640D02*
X721710Y369930D01*
X720000Y545000D02*
X726000Y551000D01*
X701690Y359260D02*
X701865Y359085D01*
X701040Y359260D02*
X701690D01*
X701865Y350095D02*
Y359085D01*
X717945Y357965D02*
X727035D01*
X730000Y355000D01*
X717770Y358140D02*
X717945Y357965D01*
X701040Y372260D02*
Y443550D01*
X697220Y447370D02*
X701040Y443550D01*
X663997Y575000D02*
X664497Y574500D01*
X651304Y575000D02*
X663997D01*
X646955Y565000D02*
X664497D01*
X825246Y565658D02*
Y566420D01*
X800000Y540412D02*
X825246Y565658D01*
X800000Y530000D02*
Y540412D01*
X798195Y571627D02*
X826516Y599948D01*
X792099Y571627D02*
X798195D01*
X787654Y567182D02*
X792099Y571627D01*
X787654Y566420D02*
Y567182D01*
X826516Y599948D02*
Y600710D01*
X787654Y565658D02*
Y566420D01*
X755000Y551000D02*
X758325Y554325D01*
X776321D01*
X787654Y565658D01*
X726000Y551000D02*
X755000D01*
X801400Y353060D02*
Y360060D01*
X776725Y358925D02*
Y375285D01*
X773400Y355600D02*
X776725Y358925D01*
Y375285D02*
X782440Y381000D01*
X782670D01*
X773400Y349425D02*
Y353060D01*
X736600Y101600D02*
X797560D01*
X833120Y137160D01*
Y307340D01*
X807720Y332740D02*
X833120Y307340D01*
X789260Y332740D02*
X807720D01*
X745270Y358140D02*
X770860D01*
X773400Y355600D01*
D123*
X789700Y170089D02*
X800750Y181138D01*
X789700Y162792D02*
Y170089D01*
X800750Y181138D02*
Y210000D01*
X789700Y131980D02*
Y161980D01*
D124*
X622976Y430000D02*
X680000D01*
X690000Y440000D01*
X610000Y417024D02*
X622976Y430000D01*
X690000Y440000D02*
Y445000D01*
X610000Y403800D02*
Y417024D01*
Y403800D02*
X628400Y385400D01*
X662516Y410800D02*
X668316Y405000D01*
X628400Y410800D02*
X662516D01*
X668316Y405000D02*
X668824D01*
X788924Y601472D02*
X817880Y630428D01*
Y640080D01*
X788924Y600710D02*
Y601472D01*
X660840Y555388D02*
X660951Y555500D01*
X664497D01*
D125*
X515620Y505460D02*
Y551180D01*
X789700Y161980D02*
Y162792D01*
X581690Y51230D02*
X594460Y64000D01*
X171450Y17780D02*
X548240D01*
X71120Y118110D02*
Y312420D01*
X548240Y17780D02*
X581690Y51230D01*
X71120Y118110D02*
X171450Y17780D01*
X87854Y121492D02*
Y390061D01*
X176326Y33020D02*
X457020D01*
X87854Y121492D02*
X176326Y33020D01*
X114300Y772160D02*
X127680Y785540D01*
X128524Y520452D02*
Y648101D01*
X135963Y655540D01*
X114300Y531400D02*
Y772160D01*
X70400Y487500D02*
X114300Y531400D01*
X80572Y472500D02*
X128524Y520452D01*
X135963Y655540D02*
X174000D01*
X171110Y522650D02*
X174000Y525540D01*
X154350Y522650D02*
X171110D01*
X89200Y457500D02*
X154350Y522650D01*
X70400Y457500D02*
X89200D01*
X70400Y472500D02*
X80572D01*
X40640Y378460D02*
X44680Y382500D01*
X70400D01*
X40640Y342900D02*
Y378460D01*
Y342900D02*
X71120Y312420D01*
X594460Y64000D02*
Y73500D01*
X464460Y63520D02*
Y73020D01*
Y40459D02*
Y63520D01*
X457020Y33020D02*
X464460Y40459D01*
X80415Y397500D02*
X87854Y390061D01*
X70400Y397500D02*
X80415D01*
X102616Y176784D02*
Y400548D01*
Y176784D02*
X143860Y135540D01*
X174000D01*
X183500D01*
X90664Y412500D02*
X102616Y400548D01*
X70400Y412500D02*
X90664D01*
X135780Y265540D02*
X174000D01*
X116840Y284480D02*
X135780Y265540D01*
X116840Y284480D02*
Y408940D01*
X174000Y265540D02*
X183500D01*
X70400Y427500D02*
X98280D01*
X116840Y408940D01*
X174000Y395540D02*
X183500D01*
X147140D02*
X174000D01*
X139700Y402980D02*
Y421640D01*
Y402980D02*
X147140Y395540D01*
X70400Y442500D02*
X118840D01*
X139700Y421640D01*
X174000Y655540D02*
X183500D01*
X174000Y785540D02*
X183500D01*
X127680D02*
X174000D01*
X191750Y664550D02*
Y680420D01*
Y534550D02*
Y550420D01*
Y404550D02*
Y420420D01*
Y274550D02*
Y290420D01*
X191750Y144550D02*
Y160420D01*
X439580Y81270D02*
X455450D01*
X569580Y81750D02*
X585450D01*
X191750Y794550D02*
Y810420D01*
D126*
X738601Y281751D02*
X754540D01*
D127*
X825000Y785000D02*
D03*
Y759600D02*
D03*
D128*
X628400Y410800D02*
D03*
Y385400D02*
D03*
Y360000D02*
D03*
Y334600D02*
D03*
D129*
X793860Y634980D02*
D03*
Y721380D02*
D03*
D130*
X835660Y634980D02*
D03*
Y721380D02*
D03*
D131*
X798860Y707080D02*
D03*
Y649280D02*
D03*
D132*
X599440Y624840D02*
D03*
X657860Y391160D02*
D03*
X669504Y342900D02*
D03*
Y350520D02*
D03*
X590000Y410000D02*
D03*
X685800Y17780D02*
D03*
X645160D02*
D03*
X679996Y419996D02*
D03*
X751840Y627380D02*
D03*
X715000Y650000D02*
D03*
X695017Y610000D02*
D03*
X663186Y622546D02*
D03*
X702302Y591184D02*
D03*
X710347Y617500D02*
D03*
X723900Y640080D02*
D03*
X698146Y660421D02*
D03*
X632460Y716280D02*
D03*
X625000Y669000D02*
D03*
X655000Y670484D02*
D03*
X396240Y810260D02*
D03*
X299720Y593939D02*
D03*
X326197Y733304D02*
D03*
X548640Y673100D02*
D03*
X543560Y668020D02*
D03*
X457957Y560974D02*
D03*
X414020Y563880D02*
D03*
X622300Y594360D02*
D03*
X480000Y745000D02*
D03*
X449580Y561340D02*
D03*
X396240Y589280D02*
D03*
X398780Y576580D02*
D03*
X515780Y189860D02*
D03*
X160640Y84220D02*
D03*
X561855Y48474D02*
D03*
X646696Y216197D02*
D03*
X516696Y215717D02*
D03*
X326197Y213304D02*
D03*
Y343304D02*
D03*
Y473304D02*
D03*
Y603304D02*
D03*
X326576Y83332D02*
D03*
X262240Y563120D02*
D03*
X353680Y464060D02*
D03*
X400010Y450000D02*
D03*
X158100Y420420D02*
D03*
X160640Y407720D02*
D03*
X165720Y420420D02*
D03*
Y412800D02*
D03*
X302880Y191360D02*
D03*
X354204Y397560D02*
D03*
X300287Y344250D02*
D03*
X360680Y558800D02*
D03*
X419100Y607060D02*
D03*
X495000Y590000D02*
D03*
X457200Y589280D02*
D03*
X375920Y685800D02*
D03*
X80000Y640000D02*
D03*
X547607Y289815D02*
D03*
X690000Y380000D02*
D03*
X710077Y339954D02*
D03*
X750000Y340000D02*
D03*
X740000D02*
D03*
X660000Y725000D02*
D03*
X675744Y716384D02*
D03*
X751840Y718820D02*
D03*
X655000Y730000D02*
D03*
X690000Y740000D02*
D03*
X805000D02*
D03*
X558800Y739120D02*
D03*
X575300Y706120D02*
D03*
X713836Y588836D02*
D03*
X554990Y289560D02*
D03*
X690000Y425000D02*
D03*
X725000Y610000D02*
D03*
X731520Y599440D02*
D03*
X755000Y600000D02*
D03*
X745000D02*
D03*
X759460Y297180D02*
D03*
X725000Y625000D02*
D03*
X80000Y605000D02*
D03*
Y620000D02*
D03*
Y650000D02*
D03*
X210000Y800000D02*
D03*
X220000D02*
D03*
X210000Y810000D02*
D03*
X230000Y820000D02*
D03*
X220000Y810000D02*
D03*
X210000Y820000D02*
D03*
X220000D02*
D03*
X165720Y818040D02*
D03*
X158100D02*
D03*
X165720Y810420D02*
D03*
X158100D02*
D03*
X513080Y595630D02*
D03*
X582930D02*
D03*
X475000Y755000D02*
D03*
X395000Y765000D02*
D03*
X410000Y795000D02*
D03*
X460000D02*
D03*
X465000Y755000D02*
D03*
X438292D02*
D03*
X445000D02*
D03*
X455000D02*
D03*
X470000Y795000D02*
D03*
X604520Y594360D02*
D03*
Y584200D02*
D03*
X625000Y675524D02*
D03*
X725000Y675000D02*
D03*
X765000Y600000D02*
D03*
X772160Y685800D02*
D03*
X777240Y718820D02*
D03*
X774700Y640080D02*
D03*
X800100Y693420D02*
D03*
X751840Y650240D02*
D03*
X746760Y688340D02*
D03*
X647700Y642620D02*
D03*
X713740Y713740D02*
D03*
Y728980D02*
D03*
X739140Y739140D02*
D03*
Y777240D02*
D03*
X518160Y756920D02*
D03*
X469900Y627380D02*
D03*
X487680Y739140D02*
D03*
X460000Y470000D02*
D03*
X595000Y550000D02*
D03*
Y560000D02*
D03*
X585000Y550000D02*
D03*
X575000D02*
D03*
X565000D02*
D03*
X585000Y560000D02*
D03*
X575000D02*
D03*
X565000D02*
D03*
X585000Y570000D02*
D03*
X575000D02*
D03*
X565000D02*
D03*
X655320Y756920D02*
D03*
Y764540D02*
D03*
Y772160D02*
D03*
X690000Y790000D02*
D03*
X655000D02*
D03*
X558800Y706120D02*
D03*
Y722620D02*
D03*
X575300Y739120D02*
D03*
Y722620D02*
D03*
X591800Y706120D02*
D03*
Y739120D02*
D03*
Y722620D02*
D03*
X730000Y355000D02*
D03*
X570000Y350000D02*
D03*
X590000D02*
D03*
X570000Y450000D02*
D03*
X590000D02*
D03*
Y370000D02*
D03*
X570000D02*
D03*
X590000Y430000D02*
D03*
X570000Y390000D02*
D03*
X590000D02*
D03*
X570000Y430000D02*
D03*
Y410000D02*
D03*
X400010Y470000D02*
D03*
Y490000D02*
D03*
X420000Y470000D02*
D03*
Y490000D02*
D03*
X460000D02*
D03*
X480000Y470000D02*
D03*
Y490000D02*
D03*
X510000Y470000D02*
D03*
Y490000D02*
D03*
X530000Y470000D02*
D03*
Y490000D02*
D03*
X570000Y470000D02*
D03*
Y490000D02*
D03*
X590000Y470000D02*
D03*
Y490000D02*
D03*
X539750Y581660D02*
D03*
X556260Y590550D02*
D03*
X651304Y575000D02*
D03*
X571500Y629920D02*
D03*
X629920Y617220D02*
D03*
X612140Y615950D02*
D03*
X533400Y614680D02*
D03*
X497840Y645160D02*
D03*
X467360Y665480D02*
D03*
X459740Y695960D02*
D03*
X480000Y795000D02*
D03*
X490000D02*
D03*
X436840Y731520D02*
D03*
X400010Y350000D02*
D03*
X420000D02*
D03*
X400010Y370000D02*
D03*
X420000D02*
D03*
X460000Y350000D02*
D03*
X480000D02*
D03*
X510000D02*
D03*
X530000D02*
D03*
X460000Y370000D02*
D03*
X480000D02*
D03*
X510000D02*
D03*
X530000D02*
D03*
X460000Y390000D02*
D03*
X480000D02*
D03*
X510000D02*
D03*
X530000D02*
D03*
X460000Y410000D02*
D03*
X480000D02*
D03*
X510000D02*
D03*
X530000D02*
D03*
X460000Y430000D02*
D03*
X480000D02*
D03*
X510000D02*
D03*
X530000D02*
D03*
X460000Y450000D02*
D03*
X480000D02*
D03*
X510000D02*
D03*
X530000D02*
D03*
X400010Y390000D02*
D03*
X420000D02*
D03*
Y450000D02*
D03*
X400010Y410000D02*
D03*
X420000D02*
D03*
X400010Y430000D02*
D03*
X420000D02*
D03*
X840000Y345000D02*
D03*
Y355000D02*
D03*
Y365000D02*
D03*
Y375000D02*
D03*
Y385000D02*
D03*
X830000D02*
D03*
Y375000D02*
D03*
Y365000D02*
D03*
Y355000D02*
D03*
Y345000D02*
D03*
X820000D02*
D03*
Y355000D02*
D03*
Y365000D02*
D03*
Y375000D02*
D03*
Y385000D02*
D03*
X749300Y297180D02*
D03*
X715000Y105000D02*
D03*
Y115000D02*
D03*
Y125000D02*
D03*
Y135000D02*
D03*
X705000Y105000D02*
D03*
Y115000D02*
D03*
Y125000D02*
D03*
Y135000D02*
D03*
X695000Y105000D02*
D03*
Y115000D02*
D03*
Y125000D02*
D03*
Y135000D02*
D03*
X705000Y145000D02*
D03*
Y155000D02*
D03*
Y165000D02*
D03*
Y175000D02*
D03*
X695000Y145000D02*
D03*
Y155000D02*
D03*
Y165000D02*
D03*
Y175000D02*
D03*
Y185000D02*
D03*
X705000D02*
D03*
X715000D02*
D03*
X725000D02*
D03*
X695000Y195000D02*
D03*
X705000D02*
D03*
X715000D02*
D03*
X725000D02*
D03*
X695000Y205000D02*
D03*
X705000D02*
D03*
X715000D02*
D03*
X725000D02*
D03*
X695000Y215000D02*
D03*
X705000D02*
D03*
X715000D02*
D03*
X725000D02*
D03*
Y225000D02*
D03*
X715000D02*
D03*
X705000D02*
D03*
X695000D02*
D03*
X648970Y300990D02*
D03*
X666750Y302260D02*
D03*
X541020Y292100D02*
D03*
X533400Y297180D02*
D03*
X560000Y110000D02*
D03*
Y120000D02*
D03*
Y130000D02*
D03*
Y140000D02*
D03*
X570000Y120000D02*
D03*
X580000D02*
D03*
X570000Y140000D02*
D03*
X580000D02*
D03*
X570000Y130000D02*
D03*
Y110000D02*
D03*
X580000D02*
D03*
X560000Y100000D02*
D03*
X570000D02*
D03*
X580000Y100000D02*
D03*
X430000Y110000D02*
D03*
Y120000D02*
D03*
Y130000D02*
D03*
Y140000D02*
D03*
X440000Y120000D02*
D03*
X450000D02*
D03*
X440000Y140000D02*
D03*
X450000D02*
D03*
X440000Y130000D02*
D03*
Y110000D02*
D03*
X450000D02*
D03*
X430000Y100000D02*
D03*
X440000D02*
D03*
X450000Y100000D02*
D03*
X220000Y170000D02*
D03*
X230000D02*
D03*
X240000D02*
D03*
X250000D02*
D03*
X230000Y160000D02*
D03*
Y150000D02*
D03*
X250000Y160000D02*
D03*
Y150000D02*
D03*
X240000Y160000D02*
D03*
X220000D02*
D03*
Y150000D02*
D03*
X210000Y170000D02*
D03*
Y160000D02*
D03*
X210000Y150000D02*
D03*
X220000Y300000D02*
D03*
X230000D02*
D03*
X240000D02*
D03*
X250000D02*
D03*
X230000Y290000D02*
D03*
Y280000D02*
D03*
X250000Y290000D02*
D03*
Y280000D02*
D03*
X240000Y290000D02*
D03*
X220000D02*
D03*
Y280000D02*
D03*
X210000Y300000D02*
D03*
Y290000D02*
D03*
X210000Y280000D02*
D03*
X220000Y430000D02*
D03*
X230000D02*
D03*
X240000D02*
D03*
X250000D02*
D03*
X230000Y420000D02*
D03*
Y410000D02*
D03*
X250000Y420000D02*
D03*
Y410000D02*
D03*
X240000Y420000D02*
D03*
X220000D02*
D03*
Y410000D02*
D03*
X210000Y430000D02*
D03*
Y420000D02*
D03*
X210000Y410000D02*
D03*
X220000Y560000D02*
D03*
X230000D02*
D03*
X240000D02*
D03*
X250000D02*
D03*
X230000Y550000D02*
D03*
Y540000D02*
D03*
X250000Y550000D02*
D03*
Y540000D02*
D03*
X240000Y550000D02*
D03*
X220000D02*
D03*
Y540000D02*
D03*
X210000Y560000D02*
D03*
Y550000D02*
D03*
X210000Y540000D02*
D03*
X220000Y690000D02*
D03*
X230000D02*
D03*
X240000D02*
D03*
X250000D02*
D03*
X230000Y680000D02*
D03*
Y670000D02*
D03*
X250000Y680000D02*
D03*
Y670000D02*
D03*
X240000Y680000D02*
D03*
X220000D02*
D03*
Y670000D02*
D03*
X210000Y690000D02*
D03*
Y680000D02*
D03*
X210000Y670000D02*
D03*
X240000Y810000D02*
D03*
X250000Y800000D02*
D03*
Y810000D02*
D03*
X230000Y800000D02*
D03*
Y810000D02*
D03*
X250000Y820000D02*
D03*
X240000D02*
D03*
X565664Y52016D02*
D03*
X574865Y60070D02*
D03*
X431960Y47620D02*
D03*
X439580D02*
D03*
X158100Y160420D02*
D03*
X165720Y152800D02*
D03*
Y160420D02*
D03*
X158100Y168040D02*
D03*
X165720Y428040D02*
D03*
X491650Y216530D02*
D03*
X499270D02*
D03*
X491650Y207640D02*
D03*
X499270D02*
D03*
X491650Y198750D02*
D03*
X499270D02*
D03*
X621650Y217010D02*
D03*
X629270D02*
D03*
X621650Y208120D02*
D03*
X629270D02*
D03*
X621650Y199230D02*
D03*
X629270D02*
D03*
X262240Y693120D02*
D03*
X300340Y604220D02*
D03*
X354204Y657560D02*
D03*
X353680Y594060D02*
D03*
X361300Y599140D02*
D03*
X340980Y619460D02*
D03*
X160640Y604220D02*
D03*
X300340Y675340D02*
D03*
X160020Y665480D02*
D03*
X328280Y677880D02*
D03*
X340980Y632160D02*
D03*
X165720Y680420D02*
D03*
X300340Y474220D02*
D03*
X354204Y527560D02*
D03*
X361300Y469140D02*
D03*
X340980Y489460D02*
D03*
X160640Y474220D02*
D03*
X300340Y545340D02*
D03*
X160640Y537720D02*
D03*
X328280Y547880D02*
D03*
X340980Y502160D02*
D03*
X165720Y550420D02*
D03*
X302880Y451360D02*
D03*
X262240Y433120D02*
D03*
X353680Y334060D02*
D03*
X361300Y339140D02*
D03*
X340980Y359460D02*
D03*
X160640Y344220D02*
D03*
X300340Y415340D02*
D03*
X328280Y417880D02*
D03*
X340980Y372160D02*
D03*
X302880Y321360D02*
D03*
X262240Y303120D02*
D03*
X300340Y214220D02*
D03*
X354204Y267560D02*
D03*
X353680Y204060D02*
D03*
X361300Y209140D02*
D03*
X340980Y229460D02*
D03*
X160640Y214220D02*
D03*
X300340Y285340D02*
D03*
X160640Y277720D02*
D03*
X328280Y287880D02*
D03*
X340980Y242160D02*
D03*
X165720Y290420D02*
D03*
X262240Y173120D02*
D03*
X300340Y84220D02*
D03*
X354204Y137560D02*
D03*
X353680Y74060D02*
D03*
X361300Y79140D02*
D03*
X340980Y99460D02*
D03*
X300340Y155340D02*
D03*
X160640Y147720D02*
D03*
X328280Y157880D02*
D03*
X340980Y112160D02*
D03*
X302880Y61360D02*
D03*
X426880Y151760D02*
D03*
X462440Y243724D02*
D03*
X525940Y243200D02*
D03*
X520860Y250820D02*
D03*
X500540Y230500D02*
D03*
X444660Y189860D02*
D03*
X515780Y50160D02*
D03*
X442120Y217800D02*
D03*
X452280Y50160D02*
D03*
X487840Y230500D02*
D03*
X439580Y55240D02*
D03*
X538640Y192400D02*
D03*
X556880Y152240D02*
D03*
X645780Y190340D02*
D03*
X592440Y244204D02*
D03*
X655940Y243680D02*
D03*
X650860Y251300D02*
D03*
X630540Y230980D02*
D03*
X574660Y190340D02*
D03*
X645780Y50640D02*
D03*
X572120Y218280D02*
D03*
X582280Y50640D02*
D03*
X617840Y230980D02*
D03*
X569580Y55720D02*
D03*
X668640Y192880D02*
D03*
X165720Y671600D02*
D03*
X157480Y680720D02*
D03*
Y675640D02*
D03*
X561960Y55720D02*
D03*
X431960Y55240D02*
D03*
X447200D02*
D03*
X165720Y168040D02*
D03*
X158100Y298040D02*
D03*
X165720D02*
D03*
Y282800D02*
D03*
X158100Y290420D02*
D03*
Y428040D02*
D03*
Y558040D02*
D03*
X165720D02*
D03*
Y542800D02*
D03*
X158100Y550420D02*
D03*
Y688040D02*
D03*
X165720D02*
D03*
X327010Y238350D02*
D03*
Y230730D02*
D03*
X318120Y238350D02*
D03*
Y230730D02*
D03*
X309230Y238350D02*
D03*
Y230730D02*
D03*
X327010Y368350D02*
D03*
Y360730D02*
D03*
X318120Y368350D02*
D03*
Y360730D02*
D03*
X309230Y368350D02*
D03*
Y360730D02*
D03*
X165720Y686840D02*
D03*
Y802800D02*
D03*
X302880Y711360D02*
D03*
X340980Y762160D02*
D03*
X328280Y807880D02*
D03*
X160640Y797720D02*
D03*
X300340Y805340D02*
D03*
X160640Y734220D02*
D03*
X340980Y749460D02*
D03*
X361300Y729140D02*
D03*
X353680Y724060D02*
D03*
X354204Y787560D02*
D03*
X262240Y823120D02*
D03*
X300340Y734220D02*
D03*
X327010Y758350D02*
D03*
Y750730D02*
D03*
X318120Y758350D02*
D03*
Y750730D02*
D03*
X309230Y758350D02*
D03*
Y750730D02*
D03*
X327010Y628350D02*
D03*
Y620730D02*
D03*
X318120Y628350D02*
D03*
Y620730D02*
D03*
X309230Y628350D02*
D03*
Y620730D02*
D03*
X327010Y498350D02*
D03*
Y490730D02*
D03*
X318120Y498350D02*
D03*
Y490730D02*
D03*
X309230Y498350D02*
D03*
Y490730D02*
D03*
X327010Y108350D02*
D03*
Y100730D02*
D03*
X318120Y108350D02*
D03*
Y100730D02*
D03*
X309230Y108350D02*
D03*
Y100730D02*
D03*
M02*
